<svg xmlns="http://www.w3.org/2000/svg" viewBox="0 0 80 80"><defs><style>.cls-1{fill:#fff;}.cls-2{fill:#182b7b;}.cls-3{fill:#be0f52;}</style></defs><title>hd_menu</title><g id="Layer_2" data-name="Layer 2"><g id="ヘッダー_フッター" data-name="ヘッダー・フッター"><rect class="cls-1" width="80" height="80"/><path class="cls-2" d="M22.68,56.29,24.33,60a12.11,12.11,0,0,1,.61,1.68h0A11.25,11.25,0,0,1,25.59,60l1.65-3.73h1.88v8.1H27.88V60.25c0-.81,0-2.32.06-2.92h0a24.83,24.83,0,0,1-.91,2.4L25.48,63h-1l-1.51-3.3a22.26,22.26,0,0,1-.91-2.4h0c0,.83.06,1.83.06,2.92v4.14H20.8v-8.1Z"/><path class="cls-2" d="M38.47,56.29v1.09H34.23v2.3H38v1.06H34.23v2.54h4.39v1.11H33v-8.1Z"/><path class="cls-2" d="M43.83,56.29l2.6,4.27.07.11a17.24,17.24,0,0,1,.93,1.75h0c0-.68,0-1.92,0-2.68V56.29h1.25v8.1H47.39l-3.08-5a18.43,18.43,0,0,1-1-1.82h0c0,.67.08,1.75.08,2.86v3.92H42.12v-8.1Z"/><path class="cls-2" d="M53.84,56.29v5a2.11,2.11,0,0,0,.37,1.32,1.94,1.94,0,0,0,1.62.77,2,2,0,0,0,1.6-.74,2.13,2.13,0,0,0,.39-1.35v-5h1.29v5.29a2.77,2.77,0,0,1-.56,1.8,3.37,3.37,0,0,1-2.72,1.19,3.4,3.4,0,0,1-2.75-1.22,2.78,2.78,0,0,1-.53-1.77V56.29Z"/><rect class="cls-2" x="17" y="46" width="46" height="5" rx="2.5"/><rect class="cls-2" x="17" y="33.5" width="46" height="5" rx="2.5"/><path class="cls-3" d="M19.5,21a2.5,2.5,0,0,0,0,5h7V21Z"/><path class="cls-2" d="M60.5,21h-34v5h34a2.5,2.5,0,0,0,0-5Z"/></g></g></svg>