<?xml version="1.0" encoding="utf-8"?>
<!-- Generator: Adobe Illustrator 24.0.0, SVG Export Plug-In . SVG Version: 6.00 Build 0)  -->
<svg version="1.1" id="Layer_1" xmlns="http://www.w3.org/2000/svg" xmlns:xlink="http://www.w3.org/1999/xlink" x="0px" y="0px"
	 viewBox="0 0 80 80" style="enable-background:new 0 0 80 80;" xml:space="preserve">
<style type="text/css">
	.st0{fill:#FFFFFF;}
	.st1{fill:#182B7B;}
	.st2{display:none;fill:#182B7B;}
	.st3{fill:#BE0F52;}
</style>
<title>hd_menu</title>
<g id="Layer_2_1_">
	<g id="ヘッダー_フッター">
		<rect class="st0" width="80" height="80"/>
		<path class="st1" d="M22.7,56.3l1.6,3.7c0.2,0.5,0.4,1.1,0.6,1.7l0,0c0.2-0.6,0.4-1.1,0.6-1.7l1.6-3.7h1.9v8.1h-1.2v-4.1
			c0-0.8,0-2.3,0.1-2.9l0,0c-0.3,0.8-0.6,1.6-0.9,2.4L25.5,63h-1L23,59.7c-0.3-0.8-0.7-1.6-0.9-2.4l0,0c0,0.8,0.1,1.8,0.1,2.9v4.1
			h-1.3v-8.1L22.7,56.3z"/>
		<path class="st1" d="M38.5,56.3v1.1h-4.2v2.3H38v1.1h-3.8v2.5h4.4v1.1H33v-8.1H38.5z"/>
		<path class="st1" d="M43.8,56.3l2.6,4.3l0.1,0.1c0.3,0.6,0.7,1.1,0.9,1.8l0,0c0-0.7,0-1.9,0-2.7v-3.5h1.3v8.1h-1.3l-3.1-5
			c-0.4-0.6-0.7-1.2-1-1.8l0,0c0,0.7,0.1,1.8,0.1,2.9v3.9h-1.3v-8.1L43.8,56.3z"/>
		<path class="st1" d="M53.8,56.3v5c0,0.5,0.1,0.9,0.4,1.3c0.4,0.5,1,0.8,1.6,0.8c0.6,0,1.2-0.3,1.6-0.7c0.3-0.4,0.4-0.9,0.4-1.3v-5
			h1.3v5.3c0,0.6-0.2,1.3-0.6,1.8c-0.7,0.8-1.7,1.2-2.7,1.2c-1.1,0-2.1-0.4-2.8-1.2c-0.4-0.5-0.6-1.1-0.5-1.8v-5.3H53.8z"/>
		<path class="st1" d="M19.5,46h41c1.4,0,2.5,1.1,2.5,2.5l0,0c0,1.4-1.1,2.5-2.5,2.5h-41c-1.4,0-2.5-1.1-2.5-2.5l0,0
			C17,47.1,18.1,46,19.5,46z"/>
		<path class="st2" d="M19.5,33.5h41c1.4,0,2.5,1.1,2.5,2.5l0,0c0,1.4-1.1,2.5-2.5,2.5h-41c-1.4,0-2.5-1.1-2.5-2.5l0,0
			C17,34.6,18.1,33.5,19.5,33.5z"/>
		<path class="st3" d="M19.5,21c-1.4,0-2.5,1.1-2.5,2.5s1.1,2.5,2.5,2.5h7v-5H19.5z"/>
		<path class="st1" d="M60.5,21h-34v5h34c1.4,0,2.5-1.1,2.5-2.5S61.9,21,60.5,21z"/>
		<path class="st1" d="M19.5,34.1h41c1.4,0,2.5,1.1,2.5,2.5l0,0c0,1.4-1.1,2.5-2.5,2.5h-41c-1.4,0-2.5-1.1-2.5-2.5l0,0
			C17,35.2,18.1,34.1,19.5,34.1z"/>
	</g>
</g>
</svg>
