<svg xmlns="http://www.w3.org/2000/svg" viewBox="0 0 700.65 29.34"><defs><style>.cls-1{fill:#fff;}</style></defs><title>Asset 6</title><g id="Layer_2" data-name="Layer 2"><g id="テキスト"><path class="cls-1" d="M0,24.63C3.45,19.74,6.36,10.77,6.9,3.36l3.36.69C8.79,14.4,6.27,22.23,2.85,27Zm23.34,2.49C20.1,21.87,16.83,12.66,15.15,4l3.18-1A72.79,72.79,0,0,0,26.25,24.9ZM28.08,4A3.69,3.69,0,1,1,20.7,4a3.69,3.69,0,1,1,7.38,0ZM22.5,4a1.89,1.89,0,0,0,3.78,0A1.89,1.89,0,0,0,22.5,4Z"/><path class="cls-1" d="M43,12.78a45.94,45.94,0,0,1-10.17,5l-1.77-3A44,44,0,0,0,51,1.47l2.82,1.77a53.36,53.36,0,0,1-7.41,7V27.81H43Z"/><path class="cls-1" d="M79.77,5.19l3.63,3.3c-.93,11.7-5.58,16.86-17.58,19.56l-1.68-3C75,23.31,79.56,18.36,79.86,8.25H61V5.19Zm8.76-1.5a3.69,3.69,0,0,1-7.38,0,3.69,3.69,0,1,1,7.38,0ZM83,3.69a1.89,1.89,0,1,0,3.78,0,1.89,1.89,0,1,0-3.78,0Z"/><path class="cls-1" d="M105.09,24.66c5.79-1.47,8.61-4.68,8.61-9.87a9,9,0,0,0-4.38-8.16,9.77,9.77,0,0,0-3.24-1.11c-.9,7-2.1,11.4-4.29,15.69a13.13,13.13,0,0,1-2.22,3.39,4.77,4.77,0,0,1-3.39,1.62c-3.45,0-6.24-4.32-6.24-9.6A14.22,14.22,0,0,1,96.69,4.56a14,14,0,0,1,7.56-2c7.65,0,12.9,4.92,12.9,12.12q0,10.21-10.32,13ZM102.9,5.4a9.29,9.29,0,0,0-6,2.76,11.5,11.5,0,0,0-3.6,8.34c0,3.24,1.35,6.21,2.85,6.21.75,0,1.44-.69,2.37-2.34a39.76,39.76,0,0,0,4.32-14.46Z"/><path class="cls-1" d="M125.67,18.48c0,.81.18.9,1.71.9,1.26,0,1.62-.12,1.8-.57a19.63,19.63,0,0,0,.36-3.72l3,.84c-.12,3.06-.42,4.53-1,5.31s-2,1.17-4.29,1.17c-3.6,0-4.65-.57-4.65-2.55V11.4l-3.3.54L118.86,9l3.66-.57V.6h3.15V8l6.57-1,.24,2.88-6.81,1.08ZM139.08,5.67c-.57,13.08-2.61,18.27-9,23.1l-2.55-2.37c5.91-3.81,7.8-8.52,8.31-20.73h-5.52v-3h16.41c-.09,12-.39,19.32-.93,22.56-.39,2.49-1.44,3.36-4,3.36a34.38,34.38,0,0,1-4.53-.27l-.66-3.21a35.74,35.74,0,0,0,4.38.45c1.14,0,1.41-.33,1.65-2.16a148,148,0,0,0,.84-16V5.67Z"/><path class="cls-1" d="M157.44,15.3a28.35,28.35,0,0,1-3.15,6.33l-1.29-2v4h11V26c1.29-2.79,1.74-6.36,1.74-13.65V2.73A34.42,34.42,0,0,0,175.2.57l2,2.49a41.28,41.28,0,0,1-8.46,2v5h9.12v2.94h-3V29.1h-3v-16h-3.18v.84c-.09,8-.93,12.3-3,15.45l-2.49-2c.33-.54.48-.75.57-.93H153V28.5h-2.85V1.5H153V3.6l2.46-.9A31.59,31.59,0,0,1,157,8.61l-2.4.81A34.18,34.18,0,0,0,153,3.69V10h4.44V.6h2.82V10h4.5v2.58h-4.5v.78a24.68,24.68,0,0,1,4.5,4.14L163.14,20a29.89,29.89,0,0,0-2.88-3.9v6.78h-2.82ZM153,12.57v6.09a21.47,21.47,0,0,0,3.57-6.09Zm7.56-3.9a44.82,44.82,0,0,0,1.8-6.18l2.55.72a38.63,38.63,0,0,1-2,6.12Z"/><path class="cls-1" d="M196.92,14.85a3.3,3.3,0,1,1-3.27-3.3A3.34,3.34,0,0,1,196.92,14.85Z"/><path class="cls-1" d="M217.62,9.33c-.66,10-2.37,15.3-6.18,19L209.13,26c3.33-3.48,5-8.55,5.37-16.62H210V6.45h4.74L214.92.6H218l-.15,5.85h5.82c0,10.62-.27,16.68-.84,19.26-.42,1.77-1.32,2.4-3.51,2.4a26.31,26.31,0,0,1-3.45-.27l-.57-3.15a16.28,16.28,0,0,0,3,.36c1.08,0,1.32-.24,1.56-1.53a127.89,127.89,0,0,0,.75-14.19ZM236.79,27.9H233.7v-2h-4.86V28.2h-3V4.8h11ZM228.84,23h4.86V7.71h-4.86Z"/><path class="cls-1" d="M255.24,23.25h12.63v3.09h-28.5V23.25h12.45V6.9H241.08v-3h25.11v3H255.24Z"/><path class="cls-1" d="M272,27.72a92.68,92.68,0,0,1-.51-10.17,107.15,107.15,0,0,1,1.11-15.87l3.21.48a83.2,83.2,0,0,0-1.08,14.13,103.15,103.15,0,0,0,.54,10.92Zm19.11-26V7h6V9.9h-6v9a27.61,27.61,0,0,1,6.87,4.47l-1.65,2.91a38,38,0,0,0-5.25-4c-.27,3.81-2.1,5.49-6,5.49-4.23,0-6.87-2-6.87-5.19,0-3.06,2.76-5.1,6.84-5.1a14.63,14.63,0,0,1,2.88.33V9.9h-9.42V7h9.42V1.68Zm-3.21,19a10.14,10.14,0,0,0-3.06-.54c-2.19,0-3.57.9-3.57,2.34s1.44,2.37,3.69,2.37c1.95,0,2.94-1.11,2.94-3.3Z"/><path class="cls-1" d="M306.78,28.62a52.78,52.78,0,0,0-6.12-7.32L303,19.2a48.61,48.61,0,0,1,6.24,7.17Z"/><path class="cls-1" d="M335.13,17.07a31.15,31.15,0,0,1-4.14,7L329.16,21a26.43,26.43,0,0,0,5.67-9.27h-5.25V9h5.55V4.86c-1.74.33-2.58.48-4.05.66l-1.23-2.58A51.73,51.73,0,0,0,341.19.36L343,2.94c-1.32.42-3.33,1-4.71,1.26V9h4.68v2.76h-4.68v2.37a27.17,27.17,0,0,1,5.1,3.93L341.52,21a35.85,35.85,0,0,0-3.27-3.6V29.1h-3.12Zm21.48,11.22h-3.18v-2.1h-6.36V28.5H344v-25h12.66Zm-9.54-5h6.36V6.48h-6.36Z"/><path class="cls-1" d="M386.07,28.35H382.8v-2.1H364.44v2.07h-3.27V2.76h24.9ZM364.44,12.72h7.5v-7h-7.5Zm0,10.5h7.5V15.63h-7.5ZM382.8,5.7h-7.68v7h7.68Zm0,9.93h-7.68v7.59h7.68Z"/><path class="cls-1" d="M405.24,23.25h12.63v3.09h-28.5V23.25h12.45V6.9H391.08v-3h25.11v3H405.24Z"/><path class="cls-1" d="M435.12,14.82H445.2V17H435.12v1.59h12.72V21h-9.6a35.68,35.68,0,0,0,9.93,4.38l-1.89,2.7a31.12,31.12,0,0,1-11.16-6.54V29.1h-3.18V21.66A24.68,24.68,0,0,1,421,28.56L419.16,26a27.89,27.89,0,0,0,10.14-5h-9.9V18.57h12.54V17H422V14.82h9.9V13.26H420.81V11h6.84a16.09,16.09,0,0,0-1.59-3H420V5.67h4.77a1.3,1.3,0,0,1-.12-.21A21.89,21.89,0,0,0,422.55,2l2.82-1a16.82,16.82,0,0,1,2.37,3.72l-2.52,1h4.08V.6h3V5.67h2.55V.6h2.94V5.67h3.87l-2.22-.87a19.34,19.34,0,0,0,1.95-4l3.15.87a21.44,21.44,0,0,1-2.31,4h5v2.4h-6.39a17.69,17.69,0,0,1-1.56,3h7.17v2.22H435.12Zm.93-3.78a16.12,16.12,0,0,0,1.47-3h-8a16.06,16.06,0,0,1,1.35,3Z"/><path class="cls-1" d="M449.88,20.64A67.3,67.3,0,0,0,458,6.33,2.76,2.76,0,0,1,462.6,5c.54.45.57.48,1.65,2.31a75.3,75.3,0,0,0,13.08,15.93L475.2,26c-4-3.6-8.46-9.12-13.74-17.07-.39-.57-.54-.72-.72-.72s-.42.3-.81,1.32a64.64,64.64,0,0,1-7.38,13.26Z"/><path class="cls-1" d="M491.55,1.35V5.67h6.69v3h-6.69v4.8a29,29,0,0,1,5.58-.6c5,0,8.43,2.82,8.43,7.05a6.66,6.66,0,0,1-3.36,6.18A14.53,14.53,0,0,1,496,27.81L494.76,25c5.37-.48,7.5-1.95,7.5-5.13,0-2.82-1.86-4.38-5.19-4.38a26.57,26.57,0,0,0-5.52.72v7.74a3.54,3.54,0,0,1-3.81,3.84,8.51,8.51,0,0,1-4.89-1.8,5.64,5.64,0,0,1-2.28-4.35c0-1.71.63-2.82,2.49-4.38a17.86,17.86,0,0,1,5.25-2.88V8.64H482v-3h6.27V1.35Zm-3.24,15.9c-2.79,1.17-4.59,2.88-4.59,4.35a3.39,3.39,0,0,0,3.36,3c.87,0,1.23-.45,1.23-1.53Zm17.22-5.43a41.69,41.69,0,0,0-6-7.35l2.28-1.83a36.72,36.72,0,0,1,6.06,7.17Z"/><path class="cls-1" d="M516.27,29.1h-3.21V14.25c-.78,1.2-1.47,2.16-2.43,3.39l-1.5-3.24c2.73-3.36,4.74-7.59,6.81-14.22l3.12.84a50.48,50.48,0,0,1-2.79,7.41Zm13-16.26h8.64v3h-8.64V25h7.23v3H519.15V25H526V15.81h-8.46v-3H526V6.15l-.18,0-.15,0c-1.8.3-3.54.51-6,.75l-1.2-2.67a66.74,66.74,0,0,0,15.36-3l2,2.55a52.77,52.77,0,0,1-6.63,1.68Z"/><path class="cls-1" d="M561.84,1.56V8h5.4v2.94h-5.4v5.49c0,2.43-.84,3.3-3.12,3.3A15.49,15.49,0,0,1,554,18.9V16.08a17.29,17.29,0,0,0,3.66.66c.66,0,.87-.27.87-1V10.92h-9.93V22.29c0,1,.18,1.38.75,1.62a24.23,24.23,0,0,0,6.27.48c3,0,5.55-.12,8.37-.36v3.09c-2.76.18-5.91.27-8.73.27-4.59,0-6.69-.18-7.95-.72s-2-1.74-2-3.75v-12h-5.28V8h5.28V1.83h3.3V8h9.93V1.56Z"/><path class="cls-1" d="M591.39,28.38a166.69,166.69,0,0,0-17.34-11.52c-1.44-.84-2-1.5-2-2.43a2.33,2.33,0,0,1,.87-1.71c.36-.36.36-.36,1.83-1.17a167.67,167.67,0,0,0,16-10.17l1.92,2.52c-3.72,2.7-11,7.29-15.48,9.75-.54.33-.78.54-.78.75s0,.27,1.77,1.32a164.32,164.32,0,0,1,15.15,9.72Z"/><path class="cls-1" d="M607.35,5.82c.36-1.56.51-2.37.93-4.71l3.3.42c-.27,1.38-.6,3-.93,4.29h7.89V8.73H610a107.47,107.47,0,0,1-6.48,19.41L600.24,27a107.5,107.5,0,0,0,6.42-18.27h-6.15V5.82Zm19.08,21.54a41.45,41.45,0,0,1-5.34.33,26.17,26.17,0,0,1-7.23-.84A4,4,0,0,1,611,23a5.4,5.4,0,0,1,1.2-3.27l2.61,1.53a2.22,2.22,0,0,0-.45,1.26,1.54,1.54,0,0,0,1,1.5,16.91,16.91,0,0,0,4.86.57,39.8,39.8,0,0,0,5.91-.45ZM612.69,12.84a115,115,0,0,1,12.57-.69l.15,3a120.26,120.26,0,0,0-12.3.63Zm9.39-5.55A24.15,24.15,0,0,0,619.17,2l2.28-.84a27.89,27.89,0,0,1,2.94,5.22Zm4.14-1A23,23,0,0,0,623.34,1L625.5.24a20.1,20.1,0,0,1,2.94,5Z"/><path class="cls-1" d="M642.15,6.39c-.54-1.44-1.26-3.45-1.74-5l3.21-.21a46.35,46.35,0,0,0,1.83,5.19h10.83v3h-9.45a61.29,61.29,0,0,0,4.74,8.16L648.48,19a54.3,54.3,0,0,1-5.13-9.63h-13v-3ZM651.69,28c-2.55.12-4.11.18-5.22.18a30.86,30.86,0,0,1-8.91-1c-3.42-1.11-5.22-3.33-5.22-6.42a6.28,6.28,0,0,1,1.8-4.68l2.76,1.5a4.14,4.14,0,0,0-1.2,3.12c0,3.09,2.91,4.29,10.44,4.29,1.74,0,3.06-.06,5.19-.24Z"/><path class="cls-1" d="M673.74,19.74a24.29,24.29,0,0,1-2.91,6.06,4,4,0,0,1-3.15,1.92c-1.56,0-3-1.17-4.11-3.39a20.36,20.36,0,0,1-1.83-5.73,73.94,73.94,0,0,1-.6-9.27c0-1.29.06-3.42.18-6.09l3.45.27c-.12,2.28-.18,3.69-.18,5.64,0,6.21.6,10.68,1.74,13.11.42.87,1,1.53,1.38,1.53.72,0,2.22-2.7,3.42-6.18ZM683,23.22a56.85,56.85,0,0,0-4.89-18.45L681.24,4c3.12,6.39,4.29,10.53,5.19,18.39Z"/><path class="cls-1" d="M700.65,23.46a5,5,0,1,1-5-5A5.07,5.07,0,0,1,700.65,23.46Zm-7.77,0a2.73,2.73,0,1,0,2.73-2.73A2.78,2.78,0,0,0,692.88,23.46Z"/></g></g></svg>