<svg xmlns="http://www.w3.org/2000/svg" xmlns:xlink="http://www.w3.org/1999/xlink" viewBox="0 0 193.01 30"><defs><style>.cls-1{fill:none;}.cls-2{clip-path:url(#clip-path);}.cls-3{fill:#1b307a;}.cls-4{clip-path:url(#clip-path-2);}.cls-5{fill:#be0f52;}.cls-6{fill:#fff;}</style><clipPath id="clip-path" transform="translate(0 0)"><rect class="cls-1" width="30" height="30"/></clipPath><clipPath id="clip-path-2" transform="translate(0 0)"><circle class="cls-1" cx="15" cy="32.5" r="15"/></clipPath></defs><title>top_img05</title><g id="Layer_2" data-name="Layer 2"><g id="デザイン"><g class="cls-2"><path class="cls-3" d="M15,3A12,12,0,1,1,3,15,12,12,0,0,1,15,3m0-3A15,15,0,1,0,30,15,15,15,0,0,0,15,0Z" transform="translate(0 0)"/><g class="cls-4"><path class="cls-5" d="M15,3A12,12,0,1,1,3,15,12,12,0,0,1,15,3m0-3A15,15,0,1,0,30,15,15,15,0,0,0,15,0Z" transform="translate(0 0)"/></g></g></g><g id="テキスト"><path class="cls-6" d="M52.23,2.27c5.35,0,8.48,2.3,8.48,6.19a5.22,5.22,0,0,1-2.29,4.48,9.54,9.54,0,0,1-3.84,1.32v.08c2.52.78,3.81,2.52,7.87,10.61H58.08c-3.33-7.89-4.54-9.32-8.06-9.41H47.36V25H43.74V2.27ZM47.36,12.66h3.8c3.64,0,5.6-1.34,5.6-3.89,0-2.35-1.79-3.59-5.2-3.59h-4.2Z" transform="translate(0 0)"/><path class="cls-6" d="M82.83,2.27V5.32H71v6.44h10.5v3H71v7.11H83.25V25H67.38V2.27Z" transform="translate(0 0)"/><path class="cls-6" d="M107.67,22.38a12,12,0,0,1-8.49,3.05c-6.77,0-11.39-4.76-11.39-11.76S92.49,1.8,99,1.8a11.58,11.58,0,0,1,8.06,2.94l-1.9,2.6A8,8,0,0,0,99,4.9c-4.28,0-7.33,3.67-7.33,8.79a9.5,9.5,0,0,0,1.62,5.58,7.44,7.44,0,0,0,5.83,3,9.2,9.2,0,0,0,6.69-2.61Z" transform="translate(0 0)"/><path class="cls-6" d="M121.72,2.27c5.35,0,8.49,2.3,8.49,6.19a5.2,5.2,0,0,1-2.3,4.48,9.49,9.49,0,0,1-3.83,1.32v.08c2.52.78,3.8,2.52,7.86,10.61h-4.36c-3.34-7.89-4.54-9.32-8.07-9.41h-2.66V25h-3.61V2.27Zm-4.87,10.39h3.81c3.64,0,5.6-1.34,5.6-3.89,0-2.35-1.79-3.59-5.21-3.59h-4.2Z" transform="translate(0 0)"/><path class="cls-6" d="M140.4,2.27V16.38a5.93,5.93,0,0,0,1,3.7A5.43,5.43,0,0,0,146,22.24a5.69,5.69,0,0,0,4.48-2.08,5.92,5.92,0,0,0,1.09-3.78V2.27h3.62V17.08a7.77,7.77,0,0,1-1.57,5A9.43,9.43,0,0,1,146,25.46a9.55,9.55,0,0,1-7.7-3.42,7.79,7.79,0,0,1-1.48-5V2.27Z" transform="translate(0 0)"/><path class="cls-6" d="M170.56,2.27V5h-3.08V22.24h3.08V25h-9.75V22.24h3.08V5h-3.08V2.27Z" transform="translate(0 0)"/><path class="cls-6" d="M193,2.27V5.46h-7.76V25h-3.66V5.46H173.8V2.27Z" transform="translate(0 0)"/></g></g></svg>