<svg xmlns="http://www.w3.org/2000/svg" viewBox="0 0 445.79 85.92"><defs><style>.cls-1{fill:#fff;}</style></defs><title>Asset 1</title><g id="Layer_2" data-name="Layer 2"><g id="テキスト"><path class="cls-1" d="M37,29.55C41.15,23.69,44.64,12.92,45.29,4l4,.83c-1.77,12.42-4.79,21.81-8.89,27.5Zm28,3c-3.88-6.3-7.81-17.35-9.82-27.72L59,3.64c1.73,9.14,5.47,19.51,9.5,26.24ZM70.7,4.79a4.43,4.43,0,0,1-8.86,0,4.43,4.43,0,1,1,8.86,0Zm-6.7,0a2.27,2.27,0,1,0,4.54,0,2.27,2.27,0,0,0-4.54,0Z"/><path class="cls-1" d="M88.63,15.33a55.1,55.1,0,0,1-12.2,6L74.3,17.82A52.86,52.86,0,0,0,98.24,1.76l3.38,2.13a63.78,63.78,0,0,1-8.89,8.42V33.37h-4.1Z"/><path class="cls-1" d="M132.73,6.23l4.35,4c-1.11,14-6.69,20.23-21.09,23.47l-2-3.57C127,28,132.48,22,132.84,9.9H110.16V6.23Zm10.51-1.8a4.43,4.43,0,0,1-8.86,0,4.43,4.43,0,1,1,8.86,0Zm-6.7,0a2.27,2.27,0,0,0,4.54,0,2.27,2.27,0,1,0-4.54,0Z"/><path class="cls-1" d="M163.11,29.59c6.95-1.77,10.33-5.62,10.33-11.84,0-4.32-1.94-8-5.25-9.79a11.82,11.82,0,0,0-3.89-1.34c-1.08,8.35-2.52,13.68-5.15,18.83a15.79,15.79,0,0,1-2.66,4.07,5.71,5.71,0,0,1-4.07,1.94c-4.14,0-7.48-5.18-7.48-11.52A17.06,17.06,0,0,1,153,5.47,16.82,16.82,0,0,1,162.11,3c9.18,0,15.47,5.91,15.47,14.55q0,12.25-12.38,15.55ZM160.49,6.48a11.11,11.11,0,0,0-7.2,3.31,13.8,13.8,0,0,0-4.32,10c0,3.89,1.62,7.45,3.42,7.45.9,0,1.73-.83,2.84-2.81,2.52-4.39,4.32-10.47,5.18-17.35Z"/><path class="cls-1" d="M187.81,22.17c0,1,.22,1.08,2.05,1.08,1.52,0,1.95-.14,2.16-.68a23.77,23.77,0,0,0,.44-4.46l3.56,1c-.15,3.68-.51,5.44-1.26,6.37s-2.38,1.41-5.15,1.41c-4.32,0-5.58-.69-5.58-3.06V13.68l-4,.65-.43-3.5,4.39-.68V.72h3.78V9.54l7.88-1.23.29,3.46-8.17,1.3ZM203.9,6.8c-.68,15.7-3.13,21.92-10.76,27.72l-3.06-2.84c7.09-4.58,9.36-10.23,10-24.88h-6.62V3.17h19.69C213,17.6,212.65,26.35,212,30.24c-.47,3-1.73,4-4.82,4a40.54,40.54,0,0,1-5.44-.33L201,30.09a42.82,42.82,0,0,0,5.26.54c1.36,0,1.69-.39,2-2.59a178,178,0,0,0,1-19.26v-2Z"/><path class="cls-1" d="M225.93,18.36A34.24,34.24,0,0,1,222.16,26l-1.55-2.41v4.82h13.17v2.81c1.55-3.35,2.09-7.63,2.09-16.38V3.28A41.15,41.15,0,0,0,247.24.68l2.38,3a49.19,49.19,0,0,1-10.15,2.41v6.05h10.94v3.53h-3.56V34.92h-3.56V15.66h-3.82v1c-.11,9.53-1.12,14.75-3.6,18.53l-3-2.44c.4-.65.58-.9.69-1.12h-13V34.2h-3.42V1.8h3.42V4.32l2.95-1.08a37.31,37.31,0,0,1,1.87,7.09l-2.88,1a41.12,41.12,0,0,0-1.94-6.87V12h5.32V.72h3.39V12h5.4v3.09h-5.4V16a29.75,29.75,0,0,1,5.4,5l-1.95,3a35.27,35.27,0,0,0-3.45-4.68v8.13h-3.39Zm-5.32-3.28v7.31a25.78,25.78,0,0,0,4.28-7.31Zm9.07-4.68A54.31,54.31,0,0,0,231.84,3l3.06.86a46,46,0,0,1-2.45,7.34Z"/><path class="cls-1" d="M273.31,17.82a4,4,0,1,1-3.92-4A4,4,0,0,1,273.31,17.82Z"/><path class="cls-1" d="M298.15,11.19c-.79,12-2.84,18.36-7.41,22.86L288,31.14c4-4.18,6-10.26,6.45-20H289V7.74h5.69l.21-7h3.67l-.18,7h7c0,12.74-.33,20-1,23.11-.51,2.12-1.59,2.88-4.21,2.88A31.52,31.52,0,0,1,296,33.4l-.69-3.78a19.57,19.57,0,0,0,3.64.44c1.29,0,1.58-.29,1.87-1.84a154.54,154.54,0,0,0,.9-17Zm23,22.29h-3.71V31.06h-5.83v2.78H308V5.76h13.17Zm-9.54-5.91h5.83V9.25h-5.83Z"/><path class="cls-1" d="M343.29,27.9h15.16v3.7h-34.2V27.9h14.94V8.28H326.3V4.68h30.13v3.6H343.29Z"/><path class="cls-1" d="M363.35,33.26a111.7,111.7,0,0,1-.61-12.2,128.48,128.48,0,0,1,1.33-19l3.85.57a99.79,99.79,0,0,0-1.3,17,123.28,123.28,0,0,0,.65,13.1ZM386.28,2V8.39h7.16v3.49h-7.16v10.8A33.11,33.11,0,0,1,394.52,28l-2,3.49a46.75,46.75,0,0,0-6.3-4.79c-.32,4.58-2.52,6.59-7.23,6.59-5.08,0-8.25-2.37-8.25-6.23,0-3.67,3.31-6.11,8.21-6.11a17.71,17.71,0,0,1,3.46.39v-9.5H371.12V8.39h11.31V2ZM382.43,24.8a12.27,12.27,0,0,0-3.68-.65c-2.62,0-4.28,1.08-4.28,2.81s1.73,2.84,4.43,2.84c2.34,0,3.53-1.33,3.53-4Z"/><path class="cls-1" d="M405.14,34.34a62.81,62.81,0,0,0-7.34-8.78L400.64,23a58,58,0,0,1,7.49,8.6Z"/><path class="cls-1" d="M7.16,71.48a37,37,0,0,1-5,8.42L0,76.23A31.61,31.61,0,0,0,6.8,65.11H.5V61.8H7.16v-5c-2.08.4-3.09.58-4.86.79L.83,54.53a61.87,61.87,0,0,0,13.6-3.1l2.13,3.1c-1.59.5-4,1.15-5.65,1.51V61.8h5.61v3.31H10.91V68A33.16,33.16,0,0,1,17,72.67l-2.2,3.49a43,43,0,0,0-3.92-4.32V85.92H7.16ZM32.94,84.94H29.12V82.42H21.49V85.2H17.75v-30H32.94Zm-11.45-6h7.63V58.77H21.49Z"/><path class="cls-1" d="M68.29,85H64.36V82.5h-22V85H38.41V54.31H68.29Zm-26-18.76h9V57.84h-9Zm0,12.6h9V69.75h-9Zm22-21H55.15v8.42h9.21Zm0,11.91H55.15v9.11h9.21Z"/><path class="cls-1" d="M91.29,78.9h15.16v3.7H72.25V78.9H87.19V59.28H74.3v-3.6h30.13v3.6H91.29Z"/><path class="cls-1" d="M127.15,68.78h12.09v2.59H127.15v1.91h15.26v3H130.89a43,43,0,0,0,11.92,5.26l-2.27,3.24a37.39,37.39,0,0,1-13.39-7.85v9h-3.82V77a29.63,29.63,0,0,1-13.13,8.28L108,82.21a33.57,33.57,0,0,0,12.17-6H108.29v-3h15V71.37H111.46V68.78h11.87V66.91H110V64.25h8.21a19.73,19.73,0,0,0-1.91-3.57H109V57.8h5.72a1.11,1.11,0,0,1-.14-.25,26.69,26.69,0,0,0-2.52-4.14l3.38-1.26a19.89,19.89,0,0,1,2.84,4.47l-3,1.18h4.9V51.72h3.56V57.8h3.06V51.72h3.53V57.8H135l-2.66-1a24.11,24.11,0,0,0,2.34-4.82l3.78,1a25.22,25.22,0,0,1-2.78,4.82h6.05v2.88H134a21.18,21.18,0,0,1-1.88,3.57h8.61v2.66H127.15Zm1.12-4.53A19.79,19.79,0,0,0,130,60.68h-9.61A19.42,19.42,0,0,1,122,64.25Z"/><path class="cls-1" d="M144.86,75.77a81.14,81.14,0,0,0,9.8-17.17,3.53,3.53,0,0,1,3.23-2.49,3.6,3.6,0,0,1,2.24.9c.64.54.68.58,2,2.77A90.15,90.15,0,0,0,177.8,78.9l-2.56,3.34c-4.82-4.32-10.15-10.94-16.48-20.48-.47-.68-.65-.86-.87-.86s-.5.36-1,1.58a77.6,77.6,0,0,1-8.85,15.91Z"/><path class="cls-1" d="M194.87,52.62V57.8h8v3.57h-8v5.76a34.54,34.54,0,0,1,6.69-.72c6.05,0,10.12,3.38,10.12,8.46a8,8,0,0,1-4,7.41c-1.9,1.12-3.88,1.69-7.48,2.09L198.72,81c6.44-.57,9-2.34,9-6.15,0-3.38-2.23-5.26-6.23-5.26a31.9,31.9,0,0,0-6.62.87v9.28a4.25,4.25,0,0,1-4.58,4.61,10.19,10.19,0,0,1-5.86-2.16A6.76,6.76,0,0,1,181.69,77c0-2,.76-3.38,3-5.25a21.46,21.46,0,0,1,6.3-3.46V61.37h-7.52V57.8H191V52.62ZM191,71.7c-3.35,1.4-5.51,3.45-5.51,5.22s2,3.56,4,3.56c1.05,0,1.48-.54,1.48-1.84Zm20.66-6.52a50,50,0,0,0-7.16-8.82l2.73-2.19a43.65,43.65,0,0,1,7.27,8.6Z"/><path class="cls-1" d="M224.53,85.92h-3.85V68.1c-.94,1.44-1.76,2.59-2.92,4.07L216,68.28c3.28-4,5.69-9.11,8.17-17.06l3.75,1a60.8,60.8,0,0,1-3.35,8.89Zm15.55-19.51h10.37V70H240.08V81h8.68v3.57H228V81h8.2V70H226V66.41h10.15v-8l-.21,0-.18,0c-2.16.36-4.25.61-7.17.9l-1.44-3.2a80,80,0,0,0,18.43-3.57L248,55.64a62.91,62.91,0,0,1-8,2Z"/><path class="cls-1" d="M279.21,52.87v7.7h6.48V64.1h-6.48v6.59c0,2.91-1,4-3.74,4a18.79,18.79,0,0,1-5.62-1V70.29a20.81,20.81,0,0,0,4.4.8c.79,0,1-.33,1-1.26V64.1H263.38V77.74c0,1.16.21,1.66.89,2,.9.36,3.53.57,7.53.57,3.56,0,6.66-.14,10-.43v3.71c-3.31.22-7.09.32-10.47.32-5.51,0-8-.21-9.54-.86-1.7-.76-2.41-2.09-2.41-4.5V64.1h-6.34V60.57h6.34V53.2h4v7.37h11.91v-7.7Z"/><path class="cls-1" d="M314.67,85.05a200.61,200.61,0,0,0-20.8-13.82c-1.73-1-2.38-1.8-2.38-2.92a2.77,2.77,0,0,1,1.05-2c.43-.43.43-.43,2.19-1.4a203,203,0,0,0,19.15-12.2l2.3,3c-4.46,3.24-13.21,8.75-18.57,11.7-.65.39-.94.65-.94.9s0,.32,2.13,1.58A199.47,199.47,0,0,1,317,81.52Z"/><path class="cls-1" d="M333.83,58c.43-1.87.61-2.84,1.11-5.65l4,.51c-.32,1.65-.72,3.6-1.11,5.14h9.46v3.49H337a128.53,128.53,0,0,1-7.78,23.29L325.3,83.4A129.54,129.54,0,0,0,333,61.47h-7.38V58Zm22.89,25.85a50.15,50.15,0,0,1-6.41.39,31.51,31.51,0,0,1-8.67-1,4.81,4.81,0,0,1-3.46-4.68,6.54,6.54,0,0,1,1.44-3.93l3.13,1.84a2.67,2.67,0,0,0-.54,1.51,1.85,1.85,0,0,0,1.16,1.8,20.35,20.35,0,0,0,5.83.68,47.82,47.82,0,0,0,7.09-.54ZM340.23,66.41a136.55,136.55,0,0,1,15.09-.83l.18,3.56a143.55,143.55,0,0,0-14.76.76Zm11.27-6.66A28.73,28.73,0,0,0,348,53.38l2.73-1a33.7,33.7,0,0,1,3.53,6.26Zm5-1.15A27.63,27.63,0,0,0,353,52.22l2.59-.93a23.82,23.82,0,0,1,3.53,6.05Z"/><path class="cls-1" d="M375.59,58.67c-.65-1.73-1.52-4.14-2.09-6l3.85-.25a56.22,56.22,0,0,0,2.2,6.23h13v3.6H381.2a74.61,74.61,0,0,0,5.69,9.79l-3.71,1.76A64.44,64.44,0,0,1,377,62.27H361.48v-3.6ZM387,84.58c-3.06.15-4.93.22-6.26.22-4.79,0-8.39-.4-10.69-1.15-4.1-1.33-6.26-4-6.26-7.71A7.53,7.53,0,0,1,366,70.33l3.31,1.8a5,5,0,0,0-1.44,3.74c0,3.71,3.49,5.15,12.52,5.15,2.09,0,3.68-.07,6.23-.29Z"/><path class="cls-1" d="M413.49,74.69A29,29,0,0,1,410,82a4.81,4.81,0,0,1-3.78,2.3c-1.87,0-3.6-1.4-4.93-4.07a24.15,24.15,0,0,1-2.19-6.87,88,88,0,0,1-.72-11.13c0-1.54.07-4.1.21-7.3l4.14.32c-.14,2.74-.21,4.43-.21,6.77,0,7.45.72,12.81,2.08,15.73.51,1,1.23,1.83,1.66,1.83.86,0,2.66-3.24,4.1-7.41Zm11.13,4.17a68.43,68.43,0,0,0-5.87-22.14l3.74-.9c3.75,7.67,5.15,12.64,6.23,22.07Z"/><path class="cls-1" d="M445.79,79.15a6.05,6.05,0,1,1-6-6.05A6.09,6.09,0,0,1,445.79,79.15Zm-9.33,0a3.28,3.28,0,1,0,3.28-3.28A3.34,3.34,0,0,0,436.46,79.15Z"/></g></g></svg>