<svg xmlns="http://www.w3.org/2000/svg" xmlns:xlink="http://www.w3.org/1999/xlink" viewBox="0 0 444.89 240.43"><defs><style>.cls-1{fill:none;}.cls-2{clip-path:url(#clip-path);}.cls-3{fill:#1b307a;}.cls-4{clip-path:url(#clip-path-2);}.cls-5{fill:#be0f52;}.cls-6{fill:#fff;}</style><clipPath id="clip-path" transform="translate(0 0)"><rect class="cls-1" x="211.22" width="30" height="30"/></clipPath><clipPath id="clip-path-2" transform="translate(0 0)"><circle class="cls-1" cx="226.22" cy="32.5" r="15"/></clipPath></defs><title>Asset 2</title><g id="Layer_2" data-name="Layer 2"><g id="デザイン"><g class="cls-2"><path class="cls-3" d="M226.22,3a12,12,0,1,1-12,12,12,12,0,0,1,12-12m0-3a15,15,0,1,0,15,15,15,15,0,0,0-15-15Z" transform="translate(0 0)"/><g class="cls-4"><path class="cls-5" d="M226.22,3a12,12,0,1,1-12,12,12,12,0,0,1,12-12m0-3a15,15,0,1,0,15,15,15,15,0,0,0-15-15Z" transform="translate(0 0)"/></g></g></g><g id="テキスト"><path class="cls-6" d="M101.58,52.74a6.81,6.81,0,0,1-4.85,1.75c-3.87,0-6.51-2.72-6.51-6.72S92.91,41,96.62,41a6.65,6.65,0,0,1,4.61,1.68l-1.09,1.49a4.57,4.57,0,0,0-3.49-1.39c-2.45,0-4.19,2.09-4.19,5A5.36,5.36,0,0,0,93.39,51a4.26,4.26,0,0,0,3.33,1.69,5.22,5.22,0,0,0,3.82-1.49Z" transform="translate(0 0)"/><path class="cls-6" d="M108.25,44.77v5.54c0,1.55.64,2.39,1.84,2.39a3.21,3.21,0,0,0,2.8-2.36V44.77h2v9.45h-2v-1.8a4.11,4.11,0,0,1-3.33,2c-2.19,0-3.36-1.31-3.36-3.76V44.77Z" transform="translate(0 0)"/><path class="cls-6" d="M123.2,44.77h2.91v1.55H123.2v5.1a2.52,2.52,0,0,0,.11,1,.89.89,0,0,0,.83.48,3,3,0,0,0,1.6-.53l.42,1.41a4.46,4.46,0,0,1-2.5.67c-1.6,0-2.47-1-2.47-2.72V46.32H119V44.77h2.24v-2l2-.9Z" transform="translate(0 0)"/><path class="cls-6" d="M133.61,44.77h2.91v1.55h-2.91v5.1a2.52,2.52,0,0,0,.11,1,.91.91,0,0,0,.84.48,3,3,0,0,0,1.6-.53l.41,1.41a4.4,4.4,0,0,1-2.49.67c-1.61,0-2.47-1-2.47-2.72V46.32h-2.24V44.77h2.24v-2l2-.9Z" transform="translate(0 0)"/><path class="cls-6" d="M143.48,40.87v2.05h-2.22V40.87Zm-.11,3.9v9.45h-2V44.77Z" transform="translate(0 0)"/><path class="cls-6" d="M151,46.55a4,4,0,0,1,3.35-1.95c2.1,0,3.3,1.36,3.3,3.73v5.89h-2V48.65c0-1.59-.64-2.37-1.92-2.37A3.33,3.33,0,0,0,151,48.6v5.62h-2V44.77h2Z" transform="translate(0 0)"/><path class="cls-6" d="M171.36,53.34a4.42,4.42,0,0,1-1.16,3.39,5,5,0,0,1-3.28,1.07,6.1,6.1,0,0,1-4.3-1.44l.91-1.34a4.93,4.93,0,0,0,3.38,1.18,2.31,2.31,0,0,0,2.54-2.48V52.41a3.63,3.63,0,0,1-2.85,1.39c-2.54,0-4.24-1.84-4.24-4.59s1.78-4.66,4.21-4.66a3.73,3.73,0,0,1,3,1.29l.32-1.05h1.48Zm-1.91-5.86a3,3,0,0,0-2.61-1.38c-1.49,0-2.57,1.31-2.57,3.09s1.08,3.12,2.62,3.12a2.83,2.83,0,0,0,2.56-1.44Z" transform="translate(0 0)"/><path class="cls-6" d="M190.73,47.94c0-1.2-.77-1.84-2.22-1.84a4.93,4.93,0,0,0-3.09,1l-.85-1.29a7,7,0,0,1,4-1.28c2.65,0,4,1.26,4,3.71v3.15a6.41,6.41,0,0,0,.55,2.84h-1.78a6.46,6.46,0,0,1-.45-1.59h-.06A4.09,4.09,0,0,1,189.51,54a3.85,3.85,0,0,1-2.11.51,3,3,0,0,1-3.25-3c0-2.1,1.83-3.22,5.27-3.22h1.31Zm-.83,1.65c-2.55,0-3.7.56-3.7,1.81,0,.9.71,1.49,1.76,1.49a2.71,2.71,0,0,0,2.76-2.52v-.78Z" transform="translate(0 0)"/><path class="cls-6" d="M199.91,46.55a4,4,0,0,1,3.35-1.95c2.1,0,3.3,1.36,3.3,3.73v5.89h-2V48.65c0-1.59-.64-2.37-1.92-2.37a3.33,3.33,0,0,0-2.76,2.32v5.62h-2V44.77h2Z" transform="translate(0 0)"/><path class="cls-6" d="M220.68,40.53V54.26h-2V52.79a3.56,3.56,0,0,1-3.09,1.65c-2.63,0-4.41-2-4.41-5s1.88-4.93,4.5-4.93a3.67,3.67,0,0,1,3,1.55V40.53Zm-2,7.57a2.93,2.93,0,0,0-2.58-2c-1.63,0-2.82,1.41-2.82,3.36s1.11,3.36,2.79,3.36A3.05,3.05,0,0,0,218.72,51Z" transform="translate(0 0)"/><path class="cls-6" d="M245,52.74a6.83,6.83,0,0,1-4.85,1.75c-3.88,0-6.52-2.72-6.52-6.72s2.69-6.79,6.4-6.79a6.63,6.63,0,0,1,4.61,1.68l-1.08,1.49a4.58,4.58,0,0,0-3.49-1.39c-2.45,0-4.2,2.09-4.2,5a5.43,5.43,0,0,0,.93,3.19,4.28,4.28,0,0,0,3.33,1.69A5.25,5.25,0,0,0,244,51.17Z" transform="translate(0 0)"/><path class="cls-6" d="M251.69,40.53v6A4,4,0,0,1,255,44.6c2.1,0,3.3,1.36,3.3,3.73v5.89h-2V48.65c0-1.59-.64-2.37-1.92-2.37a3.32,3.32,0,0,0-2.75,2.32v5.62h-2V40.53Z" transform="translate(0 0)"/><path class="cls-6" d="M269.59,47.94c0-1.2-.76-1.84-2.22-1.84a5,5,0,0,0-3.09,1l-.85-1.29a7,7,0,0,1,4-1.28c2.66,0,4,1.26,4,3.71v3.15a6.57,6.57,0,0,0,.54,2.84h-1.77a6,6,0,0,1-.45-1.59h-.07A4,4,0,0,1,268.38,54a3.9,3.9,0,0,1-2.11.51,3,3,0,0,1-3.25-3c0-2.1,1.82-3.22,5.26-3.22h1.31Zm-.83,1.65c-2.54,0-3.7.56-3.7,1.81,0,.9.71,1.49,1.77,1.49a2.7,2.7,0,0,0,2.75-2.52v-.78Z" transform="translate(0 0)"/><path class="cls-6" d="M278.46,46.48A2.88,2.88,0,0,1,281,44.6a2.57,2.57,0,0,1,2.69,2.08,3.14,3.14,0,0,1,2.72-2.08,2.75,2.75,0,0,1,2.29,1.08,4.16,4.16,0,0,1,.68,2.65v5.89h-1.89V48.55c0-1.42-.58-2.27-1.57-2.27s-1.71,1-2,2.21v5.73h-1.89V48.47c0-1.39-.58-2.19-1.57-2.19s-1.71.94-2,2.35v5.59h-1.89V44.77h1.88Z" transform="translate(0 0)"/><path class="cls-6" d="M295.82,44.2c0-2.31,1.21-3.67,3.28-3.67a4.15,4.15,0,0,1,2.42.67l-.73,1.48a2.12,2.12,0,0,0-1.44-.5c-1,0-1.58.7-1.58,2v.64h3.11v1.51h-3.11v7.94h-1.95V46.28h-2.4V44.77h2.4Z" transform="translate(0 0)"/><path class="cls-6" d="M306.82,49.83a2.84,2.84,0,0,0,3,3,3.75,3.75,0,0,0,3-1.42L314,52.7a5.49,5.49,0,0,1-4.28,1.8,4.62,4.62,0,0,1-4.93-4.93c0-3,2-5.07,4.74-5.07a4.42,4.42,0,0,1,4.45,4.75v.58Zm5-1.42A2.36,2.36,0,0,0,309.4,46a2.62,2.62,0,0,0-2.54,2.39Z" transform="translate(0 0)"/><path class="cls-6" d="M320.73,47.4c.58-2,1.57-2.87,3.14-2.87a2.81,2.81,0,0,1,1.29.27l-.54,1.83a2.76,2.76,0,0,0-1-.16c-1.45,0-2.53,1.2-2.85,3.17v4.58h-2V44.77h1.94l-.06,2.63Z" transform="translate(0 0)"/><path class="cls-6" d="M331.42,40.87v2.05h-2.23V40.87Zm-.11,3.9v9.45h-2V44.77Z" transform="translate(0 0)"/><path class="cls-6" d="M338.89,46.55a4,4,0,0,1,3.34-1.95c2.1,0,3.3,1.36,3.3,3.73v5.89h-2V48.65c0-1.59-.64-2.37-1.92-2.37a3.32,3.32,0,0,0-2.75,2.32v5.62h-2V44.77h2Z" transform="translate(0 0)"/><path class="cls-6" d="M359.29,53.34a4.42,4.42,0,0,1-1.15,3.39,5,5,0,0,1-3.28,1.07,6.11,6.11,0,0,1-4.31-1.44l.91-1.34a4.93,4.93,0,0,0,3.38,1.18,2.32,2.32,0,0,0,2.55-2.48V52.41a3.66,3.66,0,0,1-2.85,1.39c-2.55,0-4.24-1.84-4.24-4.59s1.77-4.66,4.21-4.66a3.76,3.76,0,0,1,3,1.29l.32-1.05h1.47Zm-1.9-5.86a3,3,0,0,0-2.61-1.38c-1.49,0-2.58,1.31-2.58,3.09s1.09,3.12,2.63,3.12a2.85,2.85,0,0,0,2.56-1.44Z" transform="translate(0 0)"/><path class="cls-6" d="M31.1,124.17c.44-.43,1.76-1.83,4-4.18l19.52-23.4L56,95.66h6.26c1.39,0,2.47.07,3.24.07a12.41,12.41,0,0,1,2,.14l1,.18.83.33c.46.19.78.33,1,.43a12.56,12.56,0,0,1,3.89,2.7,39.43,39.43,0,0,1,3.28,3.85,16.84,16.84,0,0,0,3.13,3.31q11.81,9.58,15.19,13.25a.64.64,0,0,1,.43.58c0,.38-.48.76-1.44,1.15a8.52,8.52,0,0,1-3.17.57,29.78,29.78,0,0,1-7.74-2.44,55.85,55.85,0,0,1-6.26-3.35,49.24,49.24,0,0,1-6.08-4.86q-3.68-3.31-4.65-4.36l-4.28-4.57c-.43.48-1.42,1.63-3,3.46a69.69,69.69,0,0,1-13.47,13.1,18.48,18.48,0,0,1-4.43,2.48c-1.36.51-3,1-4.86,1.52A31.51,31.51,0,0,1,31.1,124.17ZM46,134V132.3a16.62,16.62,0,0,1,5.47-1.9q3.09-.54,10-1c1.1,0,2-.09,2.66-.14q5.91-.36,9.79-.36a57.82,57.82,0,0,1,12.46,1A3.12,3.12,0,0,1,88,131.19a3.28,3.28,0,0,1,.68,1.91,1.35,1.35,0,0,1-.79,1.44c-1.25,1-3.33,2.74-6.26,5.36s-5.29,4.66-7.09,6.12a49.72,49.72,0,0,1-7.24,4.68,32.34,32.34,0,0,1-9.07,3.42,7.41,7.41,0,0,1-1.44.22c-.39,0-.58-.15-.58-.44a7.7,7.7,0,0,1,1-2.23q1.95-3.37,8-9t7-6.69a4.43,4.43,0,0,0-2.23-.36q-1.59,0-7.38.61c-3.87.41-6.78.61-8.75.61Q47,136.84,46,134Zm3.53-14.4c0-.38.28-.72.86-1q3.75-2.3,16.63-2.3c7.35,0,11.47.7,12.39,2.09a4.48,4.48,0,0,1,.79,2.16c0,1.58-2.55,2.37-7.63,2.37l-3.71,0c-1.71,0-3,0-3.78,0a35.77,35.77,0,0,0-5.55.36h-5l-2.24-1.29C50.47,120.88,49.54,120.11,49.54,119.63Z" transform="translate(0 0)"/><path class="cls-6" d="M109.08,114.23v-5.76c0-1.25,0-2.22,0-2.91s0-1.38,0-2.06a4.39,4.39,0,0,1,.18-1.47,4.15,4.15,0,0,0,.25-.87.7.7,0,0,1,.51-.54,3.05,3.05,0,0,0,.61-.25,3.22,3.22,0,0,1,.9-.21l1.15-.18a11,11,0,0,1,2.09-.22,11.65,11.65,0,0,1,3.06.5,10.58,10.58,0,0,0,2.63.51h.14q2.81-.08,13-1.48a123.52,123.52,0,0,1,15.48-1.4q6.76,0,10.51,1.87,3.24,3.6,3.24,16.06a133.52,133.52,0,0,1-2.59,26.28c-1.05.72-1.58,2-1.58,3.81a4.92,4.92,0,0,0,0,.51,3.22,3.22,0,0,1,0,.5c0,1.78-.6,2.88-1.8,3.31a29.81,29.81,0,0,1-9.65,1.59l-1.47,0-1.62,0a90.62,90.62,0,0,0-12.39.94,62.17,62.17,0,0,1-6.91.58c-.62,0-1.3,0-2-.08s-1.22-.07-1.51-.07a14.12,14.12,0,0,0-1.44.07,4.2,4.2,0,0,1-1.58,1.7,4.29,4.29,0,0,1-2.31.68A3,3,0,0,1,113,152.9q-1.23-.87-2-5.55c-.51-3.12-.91-7.08-1.23-11.88s-.49-7.39-.54-7.77S109.08,122.92,109.08,114.23Zm12.67,32.33q26.35-2.24,26.71-2.23-.28-3-1.15-15.7s-3.41-.12-10.22-.21q-10.8-.28-11.67-.44a3.3,3.3,0,0,1-1.72-1.08l-.08-.07c-.14,0-.21.27-.21.79s.06,1.2.18,2.31.18,1.75.18,1.94,0,.29-.07.29c0,.53-.18,2.15-.4,4.86s-.44,4.92-.68,6.62S122.09,146.32,121.75,146.56Zm.87-34.56a19.72,19.72,0,0,0,.21,3.31,13.21,13.21,0,0,1,.22,2.52c0,.29,0,.88,0,1.77s0,1.5,0,1.83c0,1.83.21,2.74.64,2.74a3.19,3.19,0,0,0,1.37-.76,5.87,5.87,0,0,1,1.73-1,100.13,100.13,0,0,1,10.94-.5q6.92,0,8.57.79l1.44.21.15-3.09v-.58c0-1.29,0-3,.14-5.25s.14-3.7.14-4.47c0-3-.52-4.46-1.58-4.46a63.6,63.6,0,0,0-9.76.86,59.38,59.38,0,0,1-9.1.87l-5,.07V112Z" transform="translate(0 0)"/><path class="cls-6" d="M178,129.46c-1-.6-1.48-1.14-1.48-1.62s.53-.94,1.59-1.37q.8-.64,4.5-1.26a29.34,29.34,0,0,0,4.35-.9l3.6-10.37a23,23,0,0,0-4-1.8c-2.68-1.15-4-2.13-4-3q0-.72,1.08-1.29a6.65,6.65,0,0,1,2.23-.94,29.38,29.38,0,0,1,3.75-.29l4.68-.07,2-3.1c.29-.38.83-1.18,1.62-2.41s1.44-2.17,1.95-2.84a30.41,30.41,0,0,1,2-2.34,8.18,8.18,0,0,1,2.52-2,6.41,6.41,0,0,1,2.73-.61,7.39,7.39,0,0,1,4,1.3c.86.19,1.29.65,1.29,1.37s-.85,2.43-2.55,4.71-2.56,3.66-2.56,4.14v.07l.07.15a6.35,6.35,0,0,0,2.38.29c.81,0,2.42-.08,4.82-.22s4.2-.22,5.4-.22q6.48,0,6.48,2.45a4,4,0,0,1-.86,2.23,32.22,32.22,0,0,1-6.19,1.52q-1.67.28-8.79,1.15-6.61.72-7.34.72-.15,0-.36.36-3.53,6-3.53,8.64c0-.1.29-.15.86-.15h.51q1.58,0,9.32-.79t9-.79c.33,0,.5,0,.5.07,2.64.15,4,.6,4,1.37s-1,1.58-2.95,2.59a25.36,25.36,0,0,1-6.34,2.23q-1.93.43-11.44,2.38L197.57,130a10.84,10.84,0,0,0-.94,5.26,15,15,0,0,0,.07,1.65q1.52,11.31,9.44,11.31,3.88,0,9.68-2.7t11.45-5.62q5.65-2.91,8.67-3.2a4.27,4.27,0,0,0,1,1.65c.5.58.75,1,.75,1.15,0,.34-.38.77-1.15,1.3q-2.16,1.44-6.23,4.61t-6.77,5.11a30.85,30.85,0,0,1-7,3.6,24.62,24.62,0,0,1-8.85,1.66c-1,0-1.71,0-2.23-.08q-21-1.65-21-20.88c0-1.34,0-2.35.07-3l-1.36-.14a17.42,17.42,0,0,1-2.31-.8A17.17,17.17,0,0,1,178,129.46Z" transform="translate(0 0)"/><path class="cls-6" d="M248.62,122.58c0-1,.91-1.65,2.73-1.94a52,52,0,0,1,7.67-.43,47.17,47.17,0,0,0,7.38-.43c1.3-.2,3.83-.46,7.6-.8s6.51-.67,8.24-1a95.5,95.5,0,0,1,14.47-1.08,16.79,16.79,0,0,1,2.59.18c.77.12,1.35.22,1.73.32s1,.29,1.8.58l1.87.64a30.6,30.6,0,0,1,3.46,1.26,3.12,3.12,0,0,1,1.08,1.48,4.61,4.61,0,0,1,.5,1.94,1.52,1.52,0,0,1-1.18,1.59,14.73,14.73,0,0,1-3.86.36H302q-9,.14-19.33,1.26t-17.39,1.4c-.77,0-1.94.07-3.53.07q-9.21,0-10.73-1.51Q248.62,124,248.62,122.58Z" transform="translate(0 0)"/><path class="cls-6" d="M325.08,114.23v-5.76c0-1.25,0-2.22,0-2.91s0-1.38,0-2.06a4.39,4.39,0,0,1,.18-1.47,4.15,4.15,0,0,0,.25-.87.7.7,0,0,1,.51-.54,3.05,3.05,0,0,0,.61-.25,3.22,3.22,0,0,1,.9-.21l1.15-.18a11,11,0,0,1,2.09-.22,11.65,11.65,0,0,1,3.06.5,10.58,10.58,0,0,0,2.63.51h.14q2.81-.08,13-1.48a123.52,123.52,0,0,1,15.48-1.4q6.76,0,10.51,1.87,3.24,3.6,3.24,16.06a133.52,133.52,0,0,1-2.59,26.28c-1,.72-1.58,2-1.58,3.81a4.92,4.92,0,0,0,0,.51,3.22,3.22,0,0,1,0,.5c0,1.78-.6,2.88-1.8,3.31a29.81,29.81,0,0,1-9.65,1.59l-1.47,0-1.62,0a90.62,90.62,0,0,0-12.39.94,62.17,62.17,0,0,1-6.91.58c-.62,0-1.3,0-2-.08s-1.22-.07-1.51-.07a14.12,14.12,0,0,0-1.44.07,4.2,4.2,0,0,1-1.58,1.7,4.29,4.29,0,0,1-2.31.68A3,3,0,0,1,329,152.9q-1.23-.87-2-5.55c-.51-3.12-.91-7.08-1.23-11.88s-.49-7.39-.54-7.77S325.08,122.92,325.08,114.23Zm12.67,32.33q26.36-2.24,26.71-2.23-.29-3-1.15-15.7s-3.41-.12-10.22-.21q-10.8-.28-11.67-.44a3.3,3.3,0,0,1-1.72-1.08l-.08-.07c-.14,0-.21.27-.21.79s.06,1.2.18,2.31.18,1.75.18,1.94,0,.29-.07.29c-.05.53-.18,2.15-.4,4.86s-.44,4.92-.68,6.62S338.09,146.32,337.75,146.56Zm.87-34.56a19.72,19.72,0,0,0,.21,3.31,13.21,13.21,0,0,1,.22,2.52c0,.29,0,.88,0,1.77s0,1.5,0,1.83c0,1.83.21,2.74.64,2.74a3.19,3.19,0,0,0,1.37-.76,5.87,5.87,0,0,1,1.73-1,100.13,100.13,0,0,1,10.94-.5q6.91,0,8.57.79l1.44.21.15-3.09v-.58c0-1.29,0-3,.14-5.25s.14-3.7.14-4.47c0-3-.52-4.46-1.58-4.46a63.6,63.6,0,0,0-9.76.86,59.38,59.38,0,0,1-9.1.87l-5,.07V112Z" transform="translate(0 0)"/><path class="cls-6" d="M388.94,145.12c0-1.15,1-1.73,2.88-1.73q3.68,0,4.9,2c.24.24.85.8,1.84,1.69s1.74,1.6,2.26,2.12a9.24,9.24,0,0,1,1.55,2.2,5.66,5.66,0,0,1,.76,2.7,5.79,5.79,0,0,1-.43,2.09,6.47,6.47,0,0,1-1.16.07,8.62,8.62,0,0,1-3-.5,8.36,8.36,0,0,1-2.59-1.59,26.62,26.62,0,0,1-2.05-2c-.55-.6-1.25-1.45-2.09-2.55s-1.48-1.92-1.91-2.45A3.6,3.6,0,0,1,388.94,145.12Z" transform="translate(0 0)"/><path class="cls-6" d="M0,234.46l6-39.1q2.22-7.63,2.52-8.78c.33-1.11.56-1.84.68-2.2a6.7,6.7,0,0,1,.68-1.33,2.07,2.07,0,0,1,1.23-1A7.92,7.92,0,0,1,13,181.9c.29,0,1,0,2,.14a8.86,8.86,0,0,1,3.6.86,6,6,0,0,1,2,2.52l.79,1.44-2.66,7.92q-.79,2.39-2.7,9.44c-1.27,4.7-2.08,7.6-2.41,8.71Q9,228.19,5.9,233.09c-1.48,2.35-2.88,3.6-4.17,3.74l-1.44.07Zm33.91-45.94q0-3.32,3.53-3.31a8.36,8.36,0,0,1,3.85,1,6.19,6.19,0,0,1,2.77,2.44A85.2,85.2,0,0,1,51,205a167,167,0,0,1,5.11,18.9,31.22,31.22,0,0,1,.72,4.76q0,3.17-3.17,3.16a7.28,7.28,0,0,1-3.78-1,10.94,10.94,0,0,1-3.24-3.06,33.45,33.45,0,0,1-2.34-3.6q-.87-1.59-2-4a96.2,96.2,0,0,1-7.77-28.73A10.5,10.5,0,0,1,33.91,188.52Zm14.91-4.39a7.55,7.55,0,0,1,2.7-5.62A8.44,8.44,0,0,1,57.38,176c2.79,0,4.8,1.47,6,4.39a8.29,8.29,0,0,1,1.3,4.32,5.59,5.59,0,0,1-2.41,4.68,9.09,9.09,0,0,1-5.58,1.8,8.87,8.87,0,0,1-4.68-1.26,6.43,6.43,0,0,1-2.88-3.7A5.47,5.47,0,0,1,48.82,184.13Zm4.32.93a2,2,0,0,0,1,1.8,4.63,4.63,0,0,0,5-.18,2.81,2.81,0,0,0,1.11-2.41,7.76,7.76,0,0,0-.64-2.66c-.44-1.11-1-1.66-1.73-1.66s-1.92.7-3.31,2.09A4.45,4.45,0,0,0,53.14,185.06Z" transform="translate(0 0)"/><path class="cls-6" d="M76.1,209.26a2.85,2.85,0,0,1,.94-1.73q9.72-6.27,19.22-13l16.85-12.1a5.44,5.44,0,0,1,6.66-.79,2.6,2.6,0,0,1,1.19,2.3q0,2.24-3.49,5.19a68.77,68.77,0,0,1-7.2,5.32c-2.47,1.59-3.81,2.64-4,3.17a15.83,15.83,0,0,0,1.44,2.23,5.47,5.47,0,0,1,1.3,3.1,39.08,39.08,0,0,1,.65,7.56c0,.24,0,.61,0,1.12s0,.9,0,1.18l-.86,24a6,6,0,0,1-3,.86,4.66,4.66,0,0,1-3-1,4.4,4.4,0,0,1-1.58-2.84A18.64,18.64,0,0,1,98.78,228a64.06,64.06,0,0,1-1.33-6.59q-.39-2.88-.86-8.13c-.31-3.51-.54-5.76-.69-6.77h-.28a4.1,4.1,0,0,0-1.41.32,8.71,8.71,0,0,0-1.33.65c-.34.22-.82.54-1.44,1l-1.15.8a12.94,12.94,0,0,1-3.89,1.15,30.8,30.8,0,0,1-5.69.57Q76.11,211,76.1,209.26Z" transform="translate(0 0)"/><path class="cls-6" d="M140.9,188.38a2.94,2.94,0,0,1,.76-1.91,3.54,3.54,0,0,1,1.84-1.19L162.94,181q2.09-.36,6.22-1.26t6.66-1.3a32.91,32.91,0,0,1,5-.39,31.32,31.32,0,0,1,8.07,1.15q4,1.08,4,5a13.9,13.9,0,0,1-2.74,7.56L157,239.93c-.67-.29-1-1.13-1-2.52a42.82,42.82,0,0,1,1.08-6.63,58.27,58.27,0,0,1,4.14-12.67q3.06-6.92,6.88-14.61a112.12,112.12,0,0,0,5.69-13.25c-.1-1-.36-1.44-.79-1.44s-.84.33-1.52,1c-1.24.28-3.28.8-6.12,1.54s-5.31,1.33-7.45,1.73a31.9,31.9,0,0,1-6,.61,14.51,14.51,0,0,1-10.15-3.52A2.39,2.39,0,0,1,140.9,188.38Zm55.52-2.24A6.72,6.72,0,0,1,198.9,181a8,8,0,0,1,5.51-2.23q3.89,0,5.9,4a8.38,8.38,0,0,1,.94,4,7.55,7.55,0,0,1-1.12,4.14,4.08,4.08,0,0,1-3.2,2,13,13,0,0,1-7-1.19,6.36,6.36,0,0,1-3.13-3.42A5.54,5.54,0,0,1,196.42,186.14Zm4.32,1a2.89,2.89,0,0,0,.57,1.73A3.74,3.74,0,0,0,203.9,190a2.51,2.51,0,0,0,2-1,3.88,3.88,0,0,0,.83-2.63,4.76,4.76,0,0,0-.07-.93v-.58c0-1.63-.55-2.45-1.66-2.45a4,4,0,0,0-2.8,1.51A4.59,4.59,0,0,0,200.74,187.15Z" transform="translate(0 0)"/><path class="cls-6" d="M218.38,193.42l.57-2.31q.08-.93,4.36-1.73a88.19,88.19,0,0,1,8.75-1.15q.72-.64,2.95-3.24c1.49-1.73,2.89-3.26,4.21-4.61s2.29-2,2.92-2h.07a10.09,10.09,0,0,1,3.45-.72h.44c2.35,0,3.52.57,3.52,1.73q0,1.29-2.23,4c-1.49,1.82-2.25,2.78-2.3,2.88a11.11,11.11,0,0,0,1.73.14c.62,0,1.81-.05,3.56-.14s3.11-.15,4.07-.15q6.41,0,6.41,2.45a3.46,3.46,0,0,1-.44,1.51q-1.57.79-11.16,2.56t-10.72,2.2l-5.62,7.84a4.59,4.59,0,0,0,3.38,1.16q3,0,11.34-3t11.7-3l.54,0a3.76,3.76,0,0,0,.47,0,13.67,13.67,0,0,1,3.6-.43,13.32,13.32,0,0,1,4.72.75q2,.77,2,2.13a2.56,2.56,0,0,1-.87,1.8q-.86.21-6.84.9t-7.2,1.62l3.89,4a9.91,9.91,0,0,1,.43,2.88A12.23,12.23,0,0,1,256.5,220a10.74,10.74,0,0,1-8.1,3.89,11.42,11.42,0,0,1-2.09-.29,28.74,28.74,0,0,1,2.34-4.89q2.13-3.88,2.13-6.12a4.76,4.76,0,0,0-.62-2.34,1.85,1.85,0,0,0-1.69-1.12,1.39,1.39,0,0,0-1.22.65c-.63.48-1.93,1.32-3.93,2.52s-3.63,2.23-4.93,3.1a17.19,17.19,0,0,0-3.67,3.38,6.5,6.5,0,0,0-1.73,4.1q0,2.59,2.74,5.26a16,16,0,0,0,11.52,4.32,29.59,29.59,0,0,0,5.9-.58l9.79-1.15,4.68-.57c.48,0,1-.14,1.59-.26a7.4,7.4,0,0,1,1.08-.18.91.91,0,0,1,.79.44c-2.16,1.72-4,3.07-5.47,4a25.26,25.26,0,0,1-6.27,2.66,29.91,29.91,0,0,1-8.78,1.23l-.94,0-1,0a54.42,54.42,0,0,1-15.09-2.48q-7.59-2.34-11.41-5.72-3.17-2.67-3.17-5.33a7.9,7.9,0,0,1,2.49-5.22,45.57,45.57,0,0,1,6-5.4,31.57,31.57,0,0,0,4.58-3.93h-.72a9.34,9.34,0,0,1-6.38-2.05,6.48,6.48,0,0,1-2.34-5.07,8.53,8.53,0,0,1,2.88-6.2c.34-.33.51-.6.51-.79,0-.38-.66-.61-2-.68s-2.62-.21-3.89-.4S218.28,194.09,218.38,193.42Z" transform="translate(0 0)"/><path class="cls-5" d="M282.1,193.13a1.82,1.82,0,0,1,.86-1.55,7.47,7.47,0,0,1,1.91-1,4.9,4.9,0,0,0,1.91-1.26,3.26,3.26,0,0,0,.86-2.34,37.8,37.8,0,0,1,.4-5.73c.26-1.75.51-2.7.75-2.84a6.41,6.41,0,0,1,3.46-1.15,4.93,4.93,0,0,1,4,1.94,7.44,7.44,0,0,1,1.58,4.83,13.72,13.72,0,0,1-.29,2.3v1.94l2.09-.21a6.18,6.18,0,0,1,2.81-.58,8.68,8.68,0,0,1,3.85.83,2.49,2.49,0,0,1,1.69,2.2,2.78,2.78,0,0,1-.64,1.65q-.51,1.16-5.19,2.16t-5,1.37c-.19.19-.39,2.62-.61,7.27s-.32,8.38-.32,11.16a6.17,6.17,0,0,0,.14,2.16l2.88.22c1.87.14,3.68.31,5.44.5s2.65.36,2.7.51c2,.76,3,1.75,3,3,0,1-.74,1.8-2.23,2.37q-.79.79-5.76.8a48.47,48.47,0,0,1-8.21-.65,8.62,8.62,0,0,1-3.06-.9,35.25,35.25,0,0,1-3.64-3.35l-1.29-1.3.21-9.14c.2-6.91.29-10.54.29-10.87a2,2,0,0,0-.68-1.69,6.06,6.06,0,0,0-1.91-.94,5.17,5.17,0,0,1-1.87-1A2.92,2.92,0,0,1,282.1,193.13Zm23.32,42.26a13.69,13.69,0,0,1,.94-2.37q1.15-2.52,3.49-7.46c1.56-3.28,2.81-6,3.75-8.2s2-4.8,3.13-7.85a63.81,63.81,0,0,0,2.73-9.33,70.36,70.36,0,0,0,1.37-9.79,4.48,4.48,0,0,0-1.87-.21h-1.44c-1.82,0-2.88-.27-3.17-.8-1.77-.72-2.66-1.6-2.66-2.66,0-.72.5-1.32,1.51-1.8q.87-1.15,7.38-2.3a75.08,75.08,0,0,1,13.14-1.16q11.31,0,13.61,3.6,0,.3-1.8,18.11t-1.8,25.17a21.29,21.29,0,0,0,.43,5.18,1.52,1.52,0,0,1,.36,1,2.51,2.51,0,0,1-1.22,2,4.23,4.23,0,0,1-2.52.9.23.23,0,0,1,.07.14c0,.1-.07.15-.22.15q-1.36,0-7.41-2.88c-4-1.92-6.1-3.12-6.2-3.6,0-.29-.8-.84-2.26-1.66s-2.2-1.37-2.2-1.66.1-.24.29-.28c.19-.24,1-.36,2.3-.36a30.54,30.54,0,0,1,8.21,1.08l.94.21-.15-6.91v-2.95a248.25,248.25,0,0,1,1.66-26.86l.21-3.6h-1.08a5.49,5.49,0,0,1-1.58.15l-1.3,0-1.29,0c-1.68,0-2.52.32-2.52.94a2,2,0,0,0,.43,1,3.65,3.65,0,0,1,.94,2.45,48.8,48.8,0,0,1-5.94,22.75,62.77,62.77,0,0,1-13.79,18.29c0,.33-.51.75-1.51,1.26a6,6,0,0,1-2.45.75Q305.42,235.75,305.42,235.39Z" transform="translate(0 0)"/><path class="cls-6" d="M359.78,218.62c0-.2.22-.5.65-.9s.93-.84,1.48-1.3.87-.73,1-.83a75.92,75.92,0,0,0,9.14-9.07l15.2-18.65c.67-.53.64-.79-.08-.79-.48,0-1.7.23-3.67.54s-4.07.59-6.3.83a55.75,55.75,0,0,1-5.87.36c-4.84,0-7.27-1.08-7.27-3.24a.39.39,0,0,1,.15-.33l.46-.32c.22-.14.42-.29.62-.43L389,179.81a21.91,21.91,0,0,1,3.24-.22,18.74,18.74,0,0,1,6.26.94c1.78.62,2.69,1.61,2.74,2.95l-13.76,18a38.93,38.93,0,0,1,7.92-.86q8.35,0,13,4.17t4.64,11.52a27.53,27.53,0,0,1-1.08,7.35,20.21,20.21,0,0,1-6.91,10.8q-5,3.89-13,3.88a35.22,35.22,0,0,1-5.4-.43,16.85,16.85,0,0,1-9-4,15.67,15.67,0,0,1-5-8.18q2.88-4.45,8.79-4.46a56.36,56.36,0,0,1,9.43,1.3,59.06,59.06,0,0,0,7.92,1.44,2.86,2.86,0,0,0,2.84-1.55q.77-1.54.76-5.73V214.8c-.05-.38-.09-.94-.11-1.66s-.05-1.22-.07-1.51-.06-.67-.11-1.15a6.59,6.59,0,0,0-.18-1.08c-.07-.24-.17-.53-.29-.86a2.8,2.8,0,0,0-.43-.83,7.2,7.2,0,0,0-.61-.69c-1.35-.09-2.33-.14-2.95-.14a25.53,25.53,0,0,0-8.28,1.4,32.7,32.7,0,0,0-6.63,3c-1.68,1.06-3.77,2.47-6.26,4.25s-4.32,3-5.47,3.67a9.18,9.18,0,0,1-4.25,1.59,7.1,7.1,0,0,1-2.92-1,8,8,0,0,0-3.71-1h-.07C359.88,218.76,359.78,218.71,359.78,218.62Zm22.47,9.21a3.3,3.3,0,0,0,.57,1.3q.8,3.24,5.91,3.24a20.16,20.16,0,0,0,5.4-.79,13.66,13.66,0,0,0,4.1-1.73,46.77,46.77,0,0,0-7.34-1.59q-5.68-.93-7.56-1.08C382.61,227.18,382.25,227.4,382.25,227.83Z" transform="translate(0 0)"/><path class="cls-6" d="M425.45,229.49a9,9,0,0,1,1-4.25,5.38,5.38,0,0,1,3.2-2.56,16.08,16.08,0,0,1,11,.15,5.6,5.6,0,0,1,3.34,3,13.34,13.34,0,0,1,.87,4.6,10.49,10.49,0,0,1-2.52,7.1,8,8,0,0,1-6.34,2.91,9.77,9.77,0,0,1-7.52-3.35A10.94,10.94,0,0,1,425.45,229.49Zm5.54-.07a8,8,0,0,0,.51,2.66q.86,3,3.6,2.95a6,6,0,0,0,3.74-1.62,4.51,4.51,0,0,0,1.94-3.42,3.61,3.61,0,0,0-1.83-3,7,7,0,0,0-4-1.26,4.28,4.28,0,0,0-2.84.94A3.36,3.36,0,0,0,431,229.42Z" transform="translate(0 0)"/></g></g></svg>