<svg xmlns="http://www.w3.org/2000/svg" xmlns:xlink="http://www.w3.org/1999/xlink" viewBox="0 0 881.78 157.43"><defs><style>.cls-1{fill:none;}.cls-2{clip-path:url(#clip-path);}.cls-3{fill:#1b307a;}.cls-4{clip-path:url(#clip-path-2);}.cls-5{fill:#be0f52;}.cls-6{fill:#fff;}</style><clipPath id="clip-path" transform="translate(0 0)"><rect class="cls-1" x="432.12" width="30" height="30"/></clipPath><clipPath id="clip-path-2" transform="translate(0 0)"><circle class="cls-1" cx="447.12" cy="32.5" r="15"/></clipPath></defs><title>txt_slide</title><g id="Layer_2" data-name="Layer 2"><g id="デザイン"><g class="cls-2"><path class="cls-3" d="M447.12,3a12,12,0,1,1-12,12,12,12,0,0,1,12-12m0-3a15,15,0,1,0,15,15,15,15,0,0,0-15-15Z" transform="translate(0 0)"/><g class="cls-4"><path class="cls-5" d="M447.12,3a12,12,0,1,1-12,12,12,12,0,0,1,12-12m0-3a15,15,0,1,0,15,15,15,15,0,0,0-15-15Z" transform="translate(0 0)"/></g></g></g><g id="テキスト"><path class="cls-6" d="M322.48,52.74a6.83,6.83,0,0,1-4.85,1.75c-3.88,0-6.52-2.72-6.52-6.72S313.8,41,317.52,41a6.66,6.66,0,0,1,4.61,1.68L321,44.15a4.58,4.58,0,0,0-3.49-1.39c-2.45,0-4.2,2.09-4.2,5a5.43,5.43,0,0,0,.93,3.19,4.28,4.28,0,0,0,3.33,1.69,5.25,5.25,0,0,0,3.83-1.49Z" transform="translate(0 0)"/><path class="cls-6" d="M329.15,44.77v5.54c0,1.55.64,2.39,1.84,2.39a3.21,3.21,0,0,0,2.8-2.36V44.77h2v9.45h-2v-1.8a4.08,4.08,0,0,1-3.32,2c-2.2,0-3.37-1.31-3.37-3.76V44.77Z" transform="translate(0 0)"/><path class="cls-6" d="M344.09,44.77H347v1.55h-2.91v5.1a2.52,2.52,0,0,0,.11,1,.91.91,0,0,0,.84.48,3,3,0,0,0,1.6-.53l.41,1.41a4.41,4.41,0,0,1-2.5.67c-1.6,0-2.46-1-2.46-2.72V46.32h-2.24V44.77h2.24v-2l2-.9Z" transform="translate(0 0)"/><path class="cls-6" d="M354.51,44.77h2.91v1.55h-2.91v5.1a2.52,2.52,0,0,0,.11,1,.89.89,0,0,0,.83.48,3,3,0,0,0,1.6-.53l.42,1.41a4.46,4.46,0,0,1-2.5.67c-1.6,0-2.46-1-2.46-2.72V46.32h-2.24V44.77h2.24v-2l2-.9Z" transform="translate(0 0)"/><path class="cls-6" d="M364.38,40.87v2.05h-2.23V40.87Zm-.11,3.9v9.45h-2V44.77Z" transform="translate(0 0)"/><path class="cls-6" d="M371.85,46.55a4,4,0,0,1,3.34-1.95c2.1,0,3.3,1.36,3.3,3.73v5.89h-2V48.65c0-1.59-.64-2.37-1.92-2.37a3.32,3.32,0,0,0-2.75,2.32v5.62h-2V44.77h2Z" transform="translate(0 0)"/><path class="cls-6" d="M392.25,53.34a4.42,4.42,0,0,1-1.15,3.39,5,5,0,0,1-3.28,1.07,6.11,6.11,0,0,1-4.31-1.44l.91-1.34a5,5,0,0,0,3.38,1.18,2.32,2.32,0,0,0,2.55-2.48V52.41a3.66,3.66,0,0,1-2.85,1.39c-2.55,0-4.24-1.84-4.24-4.59s1.77-4.66,4.21-4.66a3.76,3.76,0,0,1,3,1.29l.32-1.05h1.47Zm-1.9-5.86a3,3,0,0,0-2.61-1.38c-1.49,0-2.58,1.31-2.58,3.09s1.09,3.12,2.63,3.12a2.85,2.85,0,0,0,2.56-1.44Z" transform="translate(0 0)"/><path class="cls-6" d="M411.63,47.94c0-1.2-.77-1.84-2.23-1.84a5,5,0,0,0-3.09,1l-.85-1.29a7,7,0,0,1,4-1.28c2.66,0,4,1.26,4,3.71v3.15a6.57,6.57,0,0,0,.54,2.84h-1.77a6,6,0,0,1-.45-1.59h-.07A4,4,0,0,1,410.41,54a3.9,3.9,0,0,1-2.11.51,3,3,0,0,1-3.25-3c0-2.1,1.82-3.22,5.26-3.22h1.32Zm-.84,1.65c-2.54,0-3.69.56-3.69,1.81,0,.9.7,1.49,1.76,1.49a2.7,2.7,0,0,0,2.75-2.52v-.78Z" transform="translate(0 0)"/><path class="cls-6" d="M420.81,46.55a4,4,0,0,1,3.34-1.95c2.1,0,3.3,1.36,3.3,3.73v5.89h-2V48.65c0-1.59-.64-2.37-1.92-2.37a3.32,3.32,0,0,0-2.75,2.32v5.62h-2V44.77h2Z" transform="translate(0 0)"/><path class="cls-6" d="M441.58,40.53V54.26h-2V52.79a3.54,3.54,0,0,1-3.09,1.65c-2.62,0-4.4-2-4.4-5s1.87-4.93,4.5-4.93a3.66,3.66,0,0,1,3,1.55V40.53Zm-2,7.57a2.92,2.92,0,0,0-2.58-2c-1.63,0-2.81,1.41-2.81,3.36s1.1,3.36,2.78,3.36A3.05,3.05,0,0,0,439.61,51Z" transform="translate(0 0)"/><path class="cls-6" d="M465.93,52.74a6.81,6.81,0,0,1-4.85,1.75c-3.87,0-6.51-2.72-6.51-6.72S457.26,41,461,41a6.66,6.66,0,0,1,4.61,1.68l-1.09,1.49A4.57,4.57,0,0,0,461,42.76c-2.45,0-4.19,2.09-4.19,5a5.36,5.36,0,0,0,.93,3.19,4.26,4.26,0,0,0,3.33,1.69,5.22,5.22,0,0,0,3.82-1.49Z" transform="translate(0 0)"/><path class="cls-6" d="M472.58,40.53v6a4,4,0,0,1,3.35-1.95c2.1,0,3.3,1.36,3.3,3.73v5.89h-2V48.65c0-1.59-.64-2.37-1.92-2.37a3.33,3.33,0,0,0-2.76,2.32v5.62h-2V40.53Z" transform="translate(0 0)"/><path class="cls-6" d="M490.49,47.94c0-1.2-.77-1.84-2.22-1.84a4.93,4.93,0,0,0-3.09,1l-.85-1.29a7,7,0,0,1,4-1.28c2.65,0,4,1.26,4,3.71v3.15a6.41,6.41,0,0,0,.55,2.84h-1.78a6.46,6.46,0,0,1-.45-1.59h-.06A4.09,4.09,0,0,1,489.27,54a3.85,3.85,0,0,1-2.11.51,3,3,0,0,1-3.25-3c0-2.1,1.83-3.22,5.27-3.22h1.31Zm-.83,1.65c-2.55,0-3.7.56-3.7,1.81,0,.9.71,1.49,1.76,1.49a2.7,2.7,0,0,0,2.75-2.52v-.78Z" transform="translate(0 0)"/><path class="cls-6" d="M499.35,46.48a2.91,2.91,0,0,1,2.58-1.88,2.58,2.58,0,0,1,2.69,2.08,3.13,3.13,0,0,1,2.72-2.08,2.75,2.75,0,0,1,2.29,1.08,4.23,4.23,0,0,1,.67,2.65v5.89h-1.89V48.55c0-1.42-.57-2.27-1.57-2.27-.84,0-1.71,1-2,2.21v5.73H503V48.47c0-1.39-.57-2.19-1.56-2.19s-1.72.94-2,2.35v5.59h-1.89V44.77h1.87Z" transform="translate(0 0)"/><path class="cls-6" d="M516.71,44.2c0-2.31,1.22-3.67,3.28-3.67a4.13,4.13,0,0,1,2.42.67l-.72,1.48a2.14,2.14,0,0,0-1.44-.5c-1,0-1.58.7-1.58,2v.64h3.1v1.51h-3.1v7.94h-2V46.28h-2.4V44.77h2.4Z" transform="translate(0 0)"/><path class="cls-6" d="M527.72,49.83a2.84,2.84,0,0,0,3,3,3.77,3.77,0,0,0,3-1.42l1.1,1.28a5.45,5.45,0,0,1-4.27,1.8,4.62,4.62,0,0,1-4.93-4.93c0-3,2-5.07,4.74-5.07a4.42,4.42,0,0,1,4.45,4.75v.58Zm5-1.42A2.37,2.37,0,0,0,530.3,46a2.63,2.63,0,0,0-2.55,2.39Z" transform="translate(0 0)"/><path class="cls-6" d="M541.63,47.4c.57-2,1.56-2.87,3.13-2.87a2.85,2.85,0,0,1,1.3.27l-.55,1.83a2.74,2.74,0,0,0-1-.16c-1.46,0-2.53,1.2-2.85,3.17v4.58h-2V44.77h1.94l-.07,2.63Z" transform="translate(0 0)"/><path class="cls-6" d="M552.31,40.87v2.05h-2.22V40.87Zm-.11,3.9v9.45h-2V44.77Z" transform="translate(0 0)"/><path class="cls-6" d="M559.78,46.55a4,4,0,0,1,3.35-1.95c2.1,0,3.3,1.36,3.3,3.73v5.89h-2V48.65c0-1.59-.64-2.37-1.92-2.37a3.33,3.33,0,0,0-2.76,2.32v5.62h-2V44.77h2Z" transform="translate(0 0)"/><path class="cls-6" d="M580.19,53.34A4.42,4.42,0,0,1,579,56.73a5,5,0,0,1-3.28,1.07,6.1,6.1,0,0,1-4.3-1.44l.91-1.34a4.93,4.93,0,0,0,3.38,1.18,2.31,2.31,0,0,0,2.54-2.48V52.41a3.63,3.63,0,0,1-2.85,1.39c-2.54,0-4.24-1.84-4.24-4.59s1.78-4.66,4.21-4.66a3.73,3.73,0,0,1,3,1.29l.32-1.05h1.48Zm-1.91-5.86a3,3,0,0,0-2.61-1.38c-1.49,0-2.57,1.31-2.57,3.09s1.08,3.12,2.62,3.12a2.83,2.83,0,0,0,2.56-1.44Z" transform="translate(0 0)"/><path class="cls-6" d="M0,124.17c.43-.43,1.75-1.83,4-4.18l19.51-23.4,1.44-.93h6.27c1.39,0,2.47.07,3.24.07a12.59,12.59,0,0,1,2,.14l1,.18.83.33c.45.19.78.33,1,.43a12.68,12.68,0,0,1,3.89,2.7,39.39,39.39,0,0,1,3.27,3.85,17.14,17.14,0,0,0,3.13,3.31q11.82,9.58,15.2,13.25a.66.66,0,0,1,.43.58c0,.38-.48.76-1.44,1.15a8.55,8.55,0,0,1-3.17.57,29.78,29.78,0,0,1-7.74-2.44,54.12,54.12,0,0,1-6.26-3.35,50,50,0,0,1-6.09-4.86c-2.45-2.21-4-3.66-4.64-4.36l-4.29-4.57q-.64.72-2.95,3.46a69.94,69.94,0,0,1-13.46,13.1,18.67,18.67,0,0,1-4.43,2.48c-1.37.51-3,1-4.86,1.52A31.51,31.51,0,0,1,0,124.17ZM14.9,134V132.3a16.67,16.67,0,0,1,5.48-1.9c2.06-.36,5.4-.69,10-1,1.11,0,2-.09,2.67-.14,3.93-.24,7.2-.36,9.79-.36a57.94,57.94,0,0,1,12.46,1,3.12,3.12,0,0,1,1.62,1.26,3.35,3.35,0,0,1,.68,1.91,1.35,1.35,0,0,1-.79,1.44c-1.25,1-3.34,2.74-6.27,5.36s-5.29,4.66-7.09,6.12a49.55,49.55,0,0,1-7.23,4.68,32.4,32.4,0,0,1-9.08,3.42,7.21,7.21,0,0,1-1.44.22c-.38,0-.57-.15-.57-.44a7.41,7.41,0,0,1,1-2.23q1.93-3.37,8-9t7-6.69a4.4,4.4,0,0,0-2.23-.36q-1.58,0-7.38.61t-8.75.61Q15.92,136.84,14.9,134Zm3.53-14.4c0-.38.29-.72.87-1q3.73-2.3,16.63-2.3,11,0,12.38,2.09a4.38,4.38,0,0,1,.79,2.16q0,2.37-7.63,2.37l-3.71,0c-1.7,0-3,0-3.78,0a35.72,35.72,0,0,0-5.54.36h-5l-2.23-1.29C19.37,120.88,18.43,120.11,18.43,119.63Z" transform="translate(0 0)"/><path class="cls-6" d="M78,114.23v-5.76q0-1.87,0-2.91c0-.7,0-1.38,0-2.06a4.39,4.39,0,0,1,.18-1.47,4.86,4.86,0,0,0,.25-.87.7.7,0,0,1,.5-.54,3.2,3.2,0,0,0,.62-.25,3.22,3.22,0,0,1,.9-.21l1.15-.18a10.94,10.94,0,0,1,2.09-.22,11.65,11.65,0,0,1,3.06.5,10.52,10.52,0,0,0,2.62.51h.15q2.81-.08,13-1.48A123.52,123.52,0,0,1,118,97.89q6.76,0,10.51,1.87,3.24,3.6,3.24,16.06a133.52,133.52,0,0,1-2.59,26.28q-1.59,1.08-1.59,3.81c0,.15,0,.32,0,.51s0,.36,0,.5c0,1.78-.6,2.88-1.8,3.31a29.81,29.81,0,0,1-9.65,1.59l-1.48,0-1.62,0a90.48,90.48,0,0,0-12.38.94,62.36,62.36,0,0,1-6.91.58c-.63,0-1.3,0-2-.08s-1.22-.07-1.51-.07a13.81,13.81,0,0,0-1.44.07A4.5,4.5,0,0,1,85,155.56a3,3,0,0,1-3.1-2.66q-1.22-.87-2-5.55t-1.22-11.88q-.47-7.2-.54-7.77T78,114.23Zm12.67,32.33q26.35-2.24,26.71-2.23-.28-3-1.15-15.7s-3.41-.12-10.23-.21q-10.8-.28-11.66-.44a3.36,3.36,0,0,1-1.73-1.08l-.07-.07c-.14,0-.22.27-.22.79s.06,1.2.18,2.31.18,1.75.18,1.94,0,.29-.07.29q-.07.79-.39,4.86t-.69,6.62C91.27,145.35,91,146.32,90.65,146.56ZM91.51,112a18.52,18.52,0,0,0,.22,3.31,14.11,14.11,0,0,1,.21,2.52q0,.44,0,1.77c0,.88,0,1.5,0,1.83,0,1.83.22,2.74.65,2.74a3.19,3.19,0,0,0,1.37-.76,5.87,5.87,0,0,1,1.73-1,100.13,100.13,0,0,1,10.94-.5c4.61,0,7.46.26,8.57.79l1.44.21.14-3.09v-.58c0-1.29.05-3,.15-5.25s.14-3.7.14-4.47q0-4.45-1.58-4.46a63.5,63.5,0,0,0-9.76.86,59.38,59.38,0,0,1-9.11.87l-5,.07V112Z" transform="translate(0 0)"/><path class="cls-6" d="M146.92,129.46c-1-.6-1.48-1.14-1.48-1.62s.53-.94,1.58-1.37q.79-.64,4.5-1.26a29.28,29.28,0,0,0,4.36-.9l3.6-10.37a23,23,0,0,0-4-1.8q-4-1.73-4-3,0-.72,1.08-1.29a6.65,6.65,0,0,1,2.23-.94,29.19,29.19,0,0,1,3.74-.29l4.68-.07,2-3.1c.29-.38.83-1.18,1.62-2.41s1.44-2.17,1.94-2.84,1.17-1.45,2-2.34a8.42,8.42,0,0,1,2.52-2,6.48,6.48,0,0,1,2.74-.61,7.36,7.36,0,0,1,4,1.3c.87.19,1.3.65,1.3,1.37s-.85,2.43-2.56,4.71-2.55,3.66-2.55,4.14v.07l.07.15a6.25,6.25,0,0,0,2.37.29c.82,0,2.43-.08,4.83-.22s4.2-.22,5.4-.22q6.48,0,6.48,2.45a4,4,0,0,1-.87,2.23,32,32,0,0,1-6.19,1.52q-1.65.28-8.78,1.15-6.63.72-7.35.72-.14,0-.36.36-3.53,6-3.52,8.64c0-.1.28-.15.86-.15h.5q1.59,0,9.33-.79t9-.79c.34,0,.51,0,.51.07,2.64.15,4,.6,4,1.37s-1,1.58-2.95,2.59a25.36,25.36,0,0,1-6.34,2.23q-2,.43-11.45,2.38L166.46,130a11,11,0,0,0-.93,5.26,12.85,12.85,0,0,0,.07,1.65q1.52,11.31,9.43,11.31,3.89,0,9.69-2.7t11.44-5.62q5.66-2.91,8.68-3.2a4.23,4.23,0,0,0,1,1.65c.51.58.76,1,.76,1.15,0,.34-.39.77-1.15,1.3q-2.16,1.44-6.23,4.61t-6.77,5.11a30.85,30.85,0,0,1-7,3.6,24.63,24.63,0,0,1-8.86,1.66c-1,0-1.7,0-2.23-.08q-21-1.65-21-20.88c0-1.34,0-2.35.07-3l-1.37-.14a18.18,18.18,0,0,1-2.3-.8A16.77,16.77,0,0,1,146.92,129.46Z" transform="translate(0 0)"/><path class="cls-6" d="M217.51,122.58c0-1,.91-1.65,2.74-1.94a51.91,51.91,0,0,1,7.67-.43,47.35,47.35,0,0,0,7.38-.43c1.29-.2,3.82-.46,7.59-.8s6.52-.67,8.25-1a95.41,95.41,0,0,1,14.47-1.08,16.89,16.89,0,0,1,2.59.18c.77.12,1.34.22,1.73.32s1,.29,1.8.58l1.87.64a31.46,31.46,0,0,1,3.46,1.26,3.12,3.12,0,0,1,1.08,1.48,4.76,4.76,0,0,1,.5,1.94,1.53,1.53,0,0,1-1.19,1.59,14.59,14.59,0,0,1-3.85.36h-2.66q-9,.14-19.34,1.26t-17.38,1.4c-.77,0-1.95.07-3.53.07q-9.23,0-10.73-1.51Q217.52,124,217.51,122.58Z" transform="translate(0 0)"/><path class="cls-6" d="M294,114.23v-5.76q0-1.87,0-2.91c0-.7,0-1.38,0-2.06a4.39,4.39,0,0,1,.18-1.47,4.86,4.86,0,0,0,.25-.87.7.7,0,0,1,.5-.54,3.2,3.2,0,0,0,.62-.25,3.22,3.22,0,0,1,.9-.21l1.15-.18a10.94,10.94,0,0,1,2.09-.22,11.65,11.65,0,0,1,3.06.5,10.52,10.52,0,0,0,2.62.51h.15q2.81-.08,13-1.48A123.52,123.52,0,0,1,334,97.89q6.76,0,10.51,1.87,3.24,3.6,3.24,16.06a133.52,133.52,0,0,1-2.59,26.28q-1.59,1.08-1.59,3.81c0,.15,0,.32,0,.51s0,.36,0,.5c0,1.78-.6,2.88-1.8,3.31a29.81,29.81,0,0,1-9.65,1.59l-1.48,0-1.62,0a90.48,90.48,0,0,0-12.38.94,62.36,62.36,0,0,1-6.91.58c-.63,0-1.3,0-2-.08s-1.22-.07-1.51-.07a13.81,13.81,0,0,0-1.44.07,4.5,4.5,0,0,1-3.89,2.38,3,3,0,0,1-3.1-2.66q-1.22-.87-2-5.55t-1.22-11.88q-.46-7.2-.54-7.77T294,114.23Zm12.67,32.33q26.36-2.24,26.71-2.23-.28-3-1.15-15.7s-3.41-.12-10.23-.21q-10.8-.28-11.66-.44a3.36,3.36,0,0,1-1.73-1.08l-.07-.07c-.14,0-.22.27-.22.79s.06,1.2.18,2.31.18,1.75.18,1.94,0,.29-.07.29q-.07.79-.39,4.86t-.69,6.62C307.27,145.35,307,146.32,306.65,146.56Zm.86-34.56a18.52,18.52,0,0,0,.22,3.31,14.11,14.11,0,0,1,.21,2.52q0,.44,0,1.77c0,.88,0,1.5,0,1.83,0,1.83.22,2.74.65,2.74a3.19,3.19,0,0,0,1.37-.76,5.87,5.87,0,0,1,1.73-1,100.13,100.13,0,0,1,10.94-.5c4.61,0,7.46.26,8.57.79l1.44.21.14-3.09v-.58c0-1.29.05-3,.15-5.25s.14-3.7.14-4.47q0-4.45-1.58-4.46a63.5,63.5,0,0,0-9.76.86,59.38,59.38,0,0,1-9.11.87l-5,.07V112Z" transform="translate(0 0)"/><path class="cls-6" d="M357.84,145.12c0-1.15,1-1.73,2.88-1.73q3.67,0,4.9,2c.24.24.85.8,1.83,1.69s1.74,1.6,2.27,2.12a9.53,9.53,0,0,1,1.55,2.2,5.75,5.75,0,0,1,.75,2.7,5.58,5.58,0,0,1-.43,2.09,6.34,6.34,0,0,1-1.15.07,8.58,8.58,0,0,1-2.95-.5,8.25,8.25,0,0,1-2.59-1.59c-.82-.72-1.5-1.38-2.06-2s-1.24-1.45-2.08-2.55-1.48-1.92-1.91-2.45A3.6,3.6,0,0,1,357.84,145.12Z" transform="translate(0 0)"/><path class="cls-6" d="M436.9,151.46l6-39.1q2.24-7.64,2.52-8.78c.34-1.11.57-1.84.69-2.2a6.2,6.2,0,0,1,.68-1.33,2.05,2.05,0,0,1,1.22-1,8,8,0,0,1,1.88-.18c.28,0,1,0,2,.14a8.86,8.86,0,0,1,3.6.86,6.1,6.1,0,0,1,2,2.52l.79,1.44-2.66,7.92q-.8,2.39-2.7,9.44c-1.28,4.7-2.08,7.6-2.42,8.71q-4.61,15.25-7.7,20.16-2.24,3.53-4.18,3.74l-1.44.07Zm33.91-45.94c0-2.21,1.17-3.31,3.53-3.31a8.39,8.39,0,0,1,3.85,1,6.24,6.24,0,0,1,2.77,2.44A85.27,85.27,0,0,1,487.87,122a162.86,162.86,0,0,1,5.11,18.9,31.22,31.22,0,0,1,.72,4.76q0,3.17-3.16,3.16a7.22,7.22,0,0,1-3.78-1,10.94,10.94,0,0,1-3.24-3.06,30.63,30.63,0,0,1-2.34-3.6q-.87-1.59-2-4a95.93,95.93,0,0,1-7.78-28.73A10.8,10.8,0,0,1,470.81,105.52Zm14.9-4.39a7.55,7.55,0,0,1,2.7-5.62A8.46,8.46,0,0,1,494.28,93c2.78,0,4.8,1.47,6.05,4.39a8.36,8.36,0,0,1,1.29,4.32,5.56,5.56,0,0,1-2.41,4.68,9.09,9.09,0,0,1-5.58,1.8,8.87,8.87,0,0,1-4.68-1.26,6.51,6.51,0,0,1-2.88-3.7A5.47,5.47,0,0,1,485.71,101.13Zm4.32.93a2,2,0,0,0,1,1.8,4.61,4.61,0,0,0,5-.18,2.79,2.79,0,0,0,1.12-2.41,7.82,7.82,0,0,0-.65-2.66c-.43-1.11-1-1.66-1.73-1.66s-1.92.7-3.31,2.09A4.45,4.45,0,0,0,490,102.06Z" transform="translate(0 0)"/><path class="cls-6" d="M513,126.26a2.8,2.8,0,0,1,.94-1.73q9.72-6.27,19.22-13L550,99.4a5.44,5.44,0,0,1,6.66-.79,2.6,2.6,0,0,1,1.19,2.3q0,2.24-3.5,5.19a66.74,66.74,0,0,1-7.2,5.32c-2.47,1.59-3.8,2.64-4,3.17a15.83,15.83,0,0,0,1.44,2.23,5.44,5.44,0,0,1,1.29,3.1,38.3,38.3,0,0,1,.65,7.56c0,.24,0,.61,0,1.12s0,.9,0,1.18l-.86,24a6,6,0,0,1-3,.86,4.64,4.64,0,0,1-3-1,4.41,4.41,0,0,1-1.59-2.84,18.41,18.41,0,0,1-2.3-5.73,61.49,61.49,0,0,1-1.33-6.59c-.27-1.92-.55-4.63-.87-8.13s-.54-5.76-.68-6.77h-.29a4.1,4.1,0,0,0-1.4.32,8.27,8.27,0,0,0-1.33.65c-.34.22-.82.54-1.44,1l-1.16.8a12.85,12.85,0,0,1-3.88,1.15,30.89,30.89,0,0,1-5.69.57Q513,128,513,126.26Z" transform="translate(0 0)"/><path class="cls-6" d="M577.8,105.38a2.89,2.89,0,0,1,.76-1.91,3.51,3.51,0,0,1,1.83-1.19L599.83,98q2.08-.36,6.23-1.26t6.66-1.3a32.91,32.91,0,0,1,5-.39,31.31,31.31,0,0,1,8.06,1.15q4,1.08,4,5a14,14,0,0,1-2.73,7.56l-33.12,48.24c-.68-.29-1-1.13-1-2.52a42.82,42.82,0,0,1,1.08-6.63,58.27,58.27,0,0,1,4.14-12.67q3.06-6.92,6.88-14.61a110.2,110.2,0,0,0,5.68-13.25c-.09-1-.36-1.44-.79-1.44s-.84.33-1.51,1c-1.25.28-3.29.8-6.12,1.54s-5.32,1.33-7.45,1.73a32,32,0,0,1-6,.61,14.56,14.56,0,0,1-10.16-3.52A2.41,2.41,0,0,1,577.8,105.38Zm55.51-2.24A6.73,6.73,0,0,1,635.8,98a8,8,0,0,1,5.5-2.23c2.6,0,4.56,1.32,5.91,4a8.5,8.5,0,0,1,.93,4,7.63,7.63,0,0,1-1.11,4.14,4.1,4.1,0,0,1-3.21,2,13,13,0,0,1-6.94-1.19,6.38,6.38,0,0,1-3.14-3.42A5.74,5.74,0,0,1,633.31,103.14Zm4.32,1a2.84,2.84,0,0,0,.58,1.73A3.72,3.72,0,0,0,640.8,107a2.51,2.51,0,0,0,2-1,3.93,3.93,0,0,0,.83-2.63,5.69,5.69,0,0,0-.07-.93v-.58c0-1.63-.56-2.45-1.66-2.45a4.06,4.06,0,0,0-2.81,1.51A4.59,4.59,0,0,0,637.63,104.15Z" transform="translate(0 0)"/><path class="cls-6" d="M655.27,110.42l.58-2.31q.07-.93,4.35-1.73c2.86-.52,5.78-.91,8.75-1.15A43.47,43.47,0,0,0,671.9,102c1.49-1.73,2.89-3.26,4.22-4.61s2.29-2,2.91-2h.07a10.14,10.14,0,0,1,3.46-.72H683c2.35,0,3.53.57,3.53,1.73q0,1.29-2.23,4T682,103.29a11.31,11.31,0,0,0,1.73.14c.62,0,1.81-.05,3.57-.14s3.1-.15,4.06-.15c4.28,0,6.41.82,6.41,2.45a3.43,3.43,0,0,1-.43,1.51q-1.59.8-11.16,2.56t-10.73,2.2l-5.61,7.84a4.56,4.56,0,0,0,3.38,1.16q3,0,11.34-3t11.7-3l.54,0a3.62,3.62,0,0,0,.47,0,13.56,13.56,0,0,1,3.6-.43,13.3,13.3,0,0,1,4.71.75q2,.76,2,2.13a2.54,2.54,0,0,1-.86,1.8q-.87.21-6.84.9t-7.2,1.62l3.89,4a9.91,9.91,0,0,1,.43,2.88A12.27,12.27,0,0,1,693.4,137a10.74,10.74,0,0,1-8.1,3.89,11.31,11.31,0,0,1-2.09-.29,27.14,27.14,0,0,1,2.34-4.89q2.12-3.88,2.12-6.12a4.75,4.75,0,0,0-.61-2.34,1.86,1.86,0,0,0-1.69-1.12,1.4,1.4,0,0,0-1.23.65q-.93.72-3.92,2.52c-2,1.2-3.64,2.23-4.93,3.1a17,17,0,0,0-3.67,3.38,6.45,6.45,0,0,0-1.73,4.1q0,2.59,2.73,5.26a16.05,16.05,0,0,0,11.52,4.32,29.61,29.61,0,0,0,5.91-.58l9.79-1.15,4.68-.57a15.67,15.67,0,0,0,1.58-.26,7.85,7.85,0,0,1,1.08-.18.92.92,0,0,1,.8.44c-2.16,1.72-4,3.07-5.48,4a25,25,0,0,1-6.26,2.66,30,30,0,0,1-8.78,1.23l-.94,0-1,0a54.35,54.35,0,0,1-15.08-2.48q-7.6-2.34-11.41-5.72c-2.12-1.78-3.17-3.56-3.17-5.33a7.93,7.93,0,0,1,2.48-5.22,45.7,45.7,0,0,1,6-5.4A30.75,30.75,0,0,0,669,126.9h-.72a9.31,9.31,0,0,1-6.37-2.05,6.48,6.48,0,0,1-2.34-5.07,8.53,8.53,0,0,1,2.88-6.2,1.34,1.34,0,0,0,.5-.79c0-.38-.66-.61-2-.68s-2.61-.21-3.88-.4S655.18,111.09,655.27,110.42Z" transform="translate(0 0)"/><path class="cls-5" d="M719,110.13a1.83,1.83,0,0,1,.87-1.55,7.4,7.4,0,0,1,1.9-1,4.76,4.76,0,0,0,1.91-1.26,3.23,3.23,0,0,0,.87-2.34,39.2,39.2,0,0,1,.39-5.73c.27-1.75.52-2.7.76-2.84a6.41,6.41,0,0,1,3.45-1.15,4.9,4.9,0,0,1,4,1.94,7.39,7.39,0,0,1,1.59,4.83,14.89,14.89,0,0,1-.29,2.3v1.94l2.09-.21a6.12,6.12,0,0,1,2.81-.58,8.68,8.68,0,0,1,3.85.83,2.49,2.49,0,0,1,1.69,2.2,2.8,2.8,0,0,1-.65,1.65q-.5,1.16-5.18,2.16t-5,1.37c-.19.19-.4,2.62-.61,7.27s-.33,8.38-.33,11.16a6,6,0,0,0,.15,2.16l2.88.22c1.87.14,3.68.31,5.43.5s2.65.36,2.7.51c2,.76,3,1.75,3,3,0,1-.75,1.8-2.24,2.37q-.78.79-5.76.8A48.35,48.35,0,0,1,731,140a8.62,8.62,0,0,1-3.06-.9,33.17,33.17,0,0,1-3.64-3.35l-1.3-1.3.22-9.14c.19-6.91.29-10.54.29-10.87a2,2,0,0,0-.69-1.69,6,6,0,0,0-1.9-.94,5.31,5.31,0,0,1-1.88-1A3.5,3.5,0,0,1,719,110.13Zm23.33,42.26a12.79,12.79,0,0,1,.94-2.37c.76-1.68,1.93-4.17,3.49-7.46s2.81-6,3.74-8.2,2-4.8,3.13-7.85a62.64,62.64,0,0,0,2.74-9.33,71.89,71.89,0,0,0,1.37-9.79,4.51,4.51,0,0,0-1.87-.21h-1.44c-1.83,0-2.88-.27-3.17-.8-1.78-.72-2.67-1.6-2.67-2.66,0-.72.51-1.32,1.52-1.8q.85-1.15,7.38-2.3a75.08,75.08,0,0,1,13.14-1.16q11.29,0,13.6,3.6,0,.3-1.8,18.11t-1.8,25.17a21.16,21.16,0,0,0,.44,5.18,1.52,1.52,0,0,1,.36,1,2.5,2.5,0,0,1-1.23,2,4.18,4.18,0,0,1-2.52.9.19.19,0,0,1,.07.14q0,.15-.21.15c-.91,0-3.39-1-7.42-2.88s-6.09-3.12-6.19-3.6c0-.29-.8-.84-2.27-1.66s-2.19-1.37-2.19-1.66.09-.24.28-.28c.2-.24,1-.36,2.31-.36a30.59,30.59,0,0,1,8.21,1.08l.93.21-.14-6.91v-2.95a250.6,250.6,0,0,1,1.65-26.86l.22-3.6h-1.08a5.59,5.59,0,0,1-1.58.15l-1.3,0-1.3,0c-1.68,0-2.52.32-2.52.94a2.08,2.08,0,0,0,.44,1,3.64,3.64,0,0,1,.93,2.45,48.8,48.8,0,0,1-5.94,22.75,62.6,62.6,0,0,1-13.79,18.29c0,.33-.5.75-1.51,1.26a5.9,5.9,0,0,1-2.45.75C742.49,152.75,742.32,152.63,742.32,152.39Z" transform="translate(0 0)"/><path class="cls-6" d="M796.68,135.62c0-.2.22-.5.65-.9s.92-.84,1.47-1.3.88-.73,1-.83a76.66,76.66,0,0,0,9.14-9.07l15.19-18.65c.67-.53.65-.79-.07-.79-.48,0-1.7.23-3.67.54s-4.07.59-6.3.83a55.75,55.75,0,0,1-5.87.36q-7.28,0-7.27-3.24a.41.41,0,0,1,.14-.33l.47-.32c.22-.14.42-.29.61-.43l23.76-4.68a22.1,22.1,0,0,1,3.24-.22,18.8,18.8,0,0,1,6.27.94c1.77.62,2.68,1.61,2.73,3l-13.75,18a38.78,38.78,0,0,1,7.92-.86q8.35,0,13,4.17T850,133.31a27.53,27.53,0,0,1-1.08,7.35,20.27,20.27,0,0,1-6.91,10.8q-5,3.89-13,3.88a35.22,35.22,0,0,1-5.4-.43,16.78,16.78,0,0,1-9-4,15.61,15.61,0,0,1-5-8.18q2.88-4.45,8.78-4.46a56.23,56.23,0,0,1,9.43,1.3A59.06,59.06,0,0,0,835.7,141a2.88,2.88,0,0,0,2.85-1.55q.75-1.54.75-5.73V131.8c0-.38-.08-.94-.1-1.66s-.05-1.22-.08-1.51-.06-.67-.1-1.15a6.59,6.59,0,0,0-.18-1.08c-.08-.24-.17-.53-.29-.86a3.06,3.06,0,0,0-.43-.83,7.4,7.4,0,0,0-.62-.69c-1.34-.09-2.32-.14-3-.14a25.62,25.62,0,0,0-8.28,1.4,32.84,32.84,0,0,0-6.62,3c-1.68,1.06-3.77,2.47-6.27,4.25s-4.32,3-5.47,3.67a9.1,9.1,0,0,1-4.25,1.59,7.07,7.07,0,0,1-2.91-1,8,8,0,0,0-3.71-1H797C796.78,135.76,796.68,135.71,796.68,135.62Zm22.46,9.21a3.21,3.21,0,0,0,.58,1.3q.79,3.24,5.9,3.24a20.16,20.16,0,0,0,5.4-.79,13.74,13.74,0,0,0,4.11-1.73,47,47,0,0,0-7.35-1.59q-5.68-.93-7.56-1.08C819.5,144.18,819.14,144.4,819.14,144.83Z" transform="translate(0 0)"/><path class="cls-6" d="M862.34,146.49a9.12,9.12,0,0,1,1-4.25,5.43,5.43,0,0,1,3.21-2.56,16.05,16.05,0,0,1,11,.15,5.62,5.62,0,0,1,3.35,3,13.32,13.32,0,0,1,.86,4.6,10.49,10.49,0,0,1-2.52,7.1,8,8,0,0,1-6.33,2.91,9.78,9.78,0,0,1-7.53-3.35A10.94,10.94,0,0,1,862.34,146.49Zm5.55-.07a8.26,8.26,0,0,0,.5,2.66q.87,3,3.6,2.95a6,6,0,0,0,3.75-1.62,4.54,4.54,0,0,0,1.94-3.42,3.6,3.6,0,0,0-1.84-3,7,7,0,0,0-4-1.26,4.33,4.33,0,0,0-2.85.94A3.38,3.38,0,0,0,867.89,146.42Z" transform="translate(0 0)"/></g></g></svg>