<svg xmlns="http://www.w3.org/2000/svg" viewBox="0 0 269.07 17.27"><defs><style>.cls-1{fill:#182b7b;}</style></defs><title>Asset 5</title><g id="Layer_2" data-name="Layer 2"><g id="テキスト"><path class="cls-1" d="M11.36,12.21A6.81,6.81,0,0,1,6.51,14C2.64,14,0,11.24,0,7.23S2.69.45,6.4.45A6.65,6.65,0,0,1,11,2.13L9.92,3.62a4.56,4.56,0,0,0-3.49-1.4c-2.44,0-4.19,2.1-4.19,5a5.43,5.43,0,0,0,.93,3.19A4.26,4.26,0,0,0,6.5,12.13a5.21,5.21,0,0,0,3.82-1.49Z"/><path class="cls-1" d="M18,4.24V9.78c0,1.55.64,2.38,1.84,2.38a3.2,3.2,0,0,0,2.8-2.35V4.24h2v9.45h-2v-1.8a4.1,4.1,0,0,1-3.33,2c-2.19,0-3.36-1.31-3.36-3.76V4.24Z"/><path class="cls-1" d="M33,4.24h2.91V5.79H33v5.09a2.45,2.45,0,0,0,.11,1,.87.87,0,0,0,.83.48,3,3,0,0,0,1.6-.52l.42,1.41a4.46,4.46,0,0,1-2.5.67c-1.6,0-2.46-1-2.46-2.72V5.79H28.74V4.24H31v-2l2-.89Z"/><path class="cls-1" d="M43.39,4.24h2.92V5.79H43.39v5.09a2.45,2.45,0,0,0,.11,1,.9.9,0,0,0,.84.48,3,3,0,0,0,1.6-.52l.41,1.41a4.4,4.4,0,0,1-2.49.67c-1.6,0-2.47-1-2.47-2.72V5.79H39.15V4.24h2.24v-2l2-.89Z"/><path class="cls-1" d="M53.26.34v2H51v-2Zm-.11,3.9v9.45h-2V4.24Z"/><path class="cls-1" d="M60.74,6a3.93,3.93,0,0,1,3.34-1.95c2.1,0,3.3,1.36,3.3,3.72v5.9h-2V8.12c0-1.59-.64-2.37-1.92-2.37a3.31,3.31,0,0,0-2.75,2.32v5.62h-2V4.24h2Z"/><path class="cls-1" d="M81.14,12.81A4.42,4.42,0,0,1,80,16.2a5,5,0,0,1-3.29,1.07,6.15,6.15,0,0,1-4.3-1.44l.91-1.34a4.93,4.93,0,0,0,3.38,1.18,2.31,2.31,0,0,0,2.54-2.48V11.88a3.63,3.63,0,0,1-2.85,1.39c-2.54,0-4.24-1.84-4.24-4.59S73.92,4,76.35,4a3.77,3.77,0,0,1,3,1.29l.32-1h1.47ZM79.23,7a3,3,0,0,0-2.61-1.38c-1.48,0-2.57,1.31-2.57,3.09s1.09,3.12,2.62,3.12a2.83,2.83,0,0,0,2.56-1.44Z"/><path class="cls-1" d="M100.51,7.41c0-1.2-.77-1.84-2.22-1.84a5,5,0,0,0-3.09,1l-.85-1.29a7,7,0,0,1,4-1.28c2.65,0,4,1.26,4,3.71v3.15a6.43,6.43,0,0,0,.54,2.84h-1.78a6.09,6.09,0,0,1-.44-1.59h-.07a4.15,4.15,0,0,1-1.34,1.33,3.91,3.91,0,0,1-2.12.51,3,3,0,0,1-3.25-3c0-2.09,1.83-3.21,5.27-3.21h1.31Zm-.83,1.65c-2.54,0-3.7.56-3.7,1.81a1.56,1.56,0,0,0,1.76,1.49,2.71,2.71,0,0,0,2.76-2.52V9.06Z"/><path class="cls-1" d="M109.7,6A3.93,3.93,0,0,1,113,4.07c2.1,0,3.3,1.36,3.3,3.72v5.9h-2V8.12c0-1.59-.64-2.37-1.92-2.37a3.31,3.31,0,0,0-2.75,2.32v5.62h-2V4.24h2Z"/><path class="cls-1" d="M130.47,0V13.73h-2V12.26a3.56,3.56,0,0,1-3.09,1.65c-2.63,0-4.4-2-4.4-5S122.88,4,125.5,4a3.67,3.67,0,0,1,3,1.55V0Zm-2,7.57a2.91,2.91,0,0,0-2.58-2c-1.63,0-2.82,1.4-2.82,3.36s1.11,3.36,2.79,3.36a3.05,3.05,0,0,0,2.61-1.84Z"/><path class="cls-1" d="M154.82,12.21A6.83,6.83,0,0,1,150,14c-3.88,0-6.52-2.72-6.52-6.73S146.14.45,149.86.45a6.66,6.66,0,0,1,4.61,1.68l-1.09,1.49a4.59,4.59,0,0,0-3.49-1.4c-2.45,0-4.2,2.1-4.2,5a5.43,5.43,0,0,0,.93,3.19A4.28,4.28,0,0,0,150,12.13a5.25,5.25,0,0,0,3.83-1.49Z"/><path class="cls-1" d="M161.47,0V6a4,4,0,0,1,3.35-1.95c2.09,0,3.29,1.36,3.29,3.72v5.9h-2V8.12c0-1.59-.64-2.37-1.92-2.37a3.33,3.33,0,0,0-2.75,2.32v5.62h-2V0Z"/><path class="cls-1" d="M179.38,7.41c0-1.2-.77-1.84-2.23-1.84a5,5,0,0,0-3.09,1l-.85-1.29a7,7,0,0,1,4-1.28c2.66,0,4,1.26,4,3.71v3.15a6.57,6.57,0,0,0,.54,2.84H180a6,6,0,0,1-.45-1.59h-.07a4.05,4.05,0,0,1-1.34,1.33,3.9,3.9,0,0,1-2.11.51,3,3,0,0,1-3.25-3c0-2.09,1.82-3.21,5.26-3.21h1.32Zm-.84,1.65c-2.54,0-3.69.56-3.69,1.81,0,.89.7,1.49,1.76,1.49a2.7,2.7,0,0,0,2.75-2.52V9.06Z"/><path class="cls-1" d="M188.24,6a2.89,2.89,0,0,1,2.58-1.88,2.57,2.57,0,0,1,2.68,2.08,3.14,3.14,0,0,1,2.73-2.08,2.75,2.75,0,0,1,2.29,1.08,4.21,4.21,0,0,1,.67,2.64v5.9H197.3V8c0-1.43-.58-2.27-1.57-2.27s-1.71,1-2,2.21v5.73h-1.89V7.94c0-1.39-.58-2.19-1.57-2.19s-1.71.94-2,2.35v5.59h-1.88V4.24h1.87Z"/><path class="cls-1" d="M205.6,3.67c0-2.31,1.21-3.67,3.28-3.67a4.13,4.13,0,0,1,2.42.67l-.72,1.47a2.2,2.2,0,0,0-1.44-.49c-1,0-1.59.7-1.59,2v.64h3.11V5.75h-3.11v7.94h-2V5.75h-2.4V4.24h2.4Z"/><path class="cls-1" d="M216.61,9.3a2.84,2.84,0,0,0,3,3,3.76,3.76,0,0,0,3-1.43l1.1,1.28A5.44,5.44,0,0,1,219.46,14,4.61,4.61,0,0,1,214.53,9c0-3,1.95-5.07,4.73-5.07a4.42,4.42,0,0,1,4.45,4.75V9.3Zm5-1.42a2.36,2.36,0,0,0-2.45-2.39,2.63,2.63,0,0,0-2.54,2.39Z"/><path class="cls-1" d="M230.51,6.87c.58-2,1.57-2.87,3.14-2.87a2.81,2.81,0,0,1,1.29.27L234.4,6.1a2.76,2.76,0,0,0-1-.16c-1.45,0-2.53,1.2-2.85,3.17v4.58h-2V4.24h1.94l-.06,2.63Z"/><path class="cls-1" d="M241.2.34v2H239v-2Zm-.11,3.9v9.45h-2V4.24Z"/><path class="cls-1" d="M248.67,6A4,4,0,0,1,252,4.07c2.09,0,3.29,1.36,3.29,3.72v5.9h-2V8.12c0-1.59-.64-2.37-1.92-2.37a3.32,3.32,0,0,0-2.75,2.32v5.62h-2V4.24h2Z"/><path class="cls-1" d="M269.07,12.81a4.42,4.42,0,0,1-1.15,3.39,5,5,0,0,1-3.28,1.07,6.16,6.16,0,0,1-4.31-1.44l.92-1.34a4.91,4.91,0,0,0,3.37,1.18,2.32,2.32,0,0,0,2.55-2.48V11.88a3.66,3.66,0,0,1-2.85,1.39c-2.55,0-4.24-1.84-4.24-4.59S261.85,4,264.29,4a3.75,3.75,0,0,1,3,1.29l.32-1h1.47ZM267.17,7a3,3,0,0,0-2.61-1.38c-1.49,0-2.58,1.31-2.58,3.09s1.09,3.12,2.63,3.12a2.85,2.85,0,0,0,2.56-1.44Z"/></g></g></svg>