<svg xmlns="http://www.w3.org/2000/svg" xmlns:xlink="http://www.w3.org/1999/xlink" viewBox="0 0 300.81 30"><defs><style>.cls-1{fill:none;}.cls-2{clip-path:url(#clip-path);}.cls-3{fill:#a3a3a3;}.cls-4{clip-path:url(#clip-path-2);}.cls-5{fill:#b80f52;}.cls-6{fill:#182b7b;}</style><clipPath id="clip-path"><rect class="cls-1" width="30" height="30"/></clipPath><clipPath id="clip-path-2"><circle class="cls-1" cx="15" cy="32.5" r="15"/></clipPath></defs><title>Asset 4</title><g id="Layer_2" data-name="Layer 2"><g id="ヘッダー_フッター" data-name="ヘッダー・フッター"><g class="cls-2"><path class="cls-3" d="M15,3A12,12,0,1,1,3,15,12,12,0,0,1,15,3m0-3A15,15,0,1,0,30,15,15,15,0,0,0,15,0Z"/><g class="cls-4"><path class="cls-5" d="M15,3A12,12,0,1,1,3,15,12,12,0,0,1,15,3m0-3A15,15,0,1,0,30,15,15,15,0,0,0,15,0Z"/></g></g><path class="cls-6" d="M64.46,15c0,7-4.53,11.85-11.08,11.85S42.29,22,42.29,15,46.88,3.18,53.38,3.18,64.46,8.06,64.46,15Zm-18.28,0c0,5.18,2.91,8.71,7.2,8.71s7.19-3.53,7.19-8.71-2.94-8.73-7.19-8.73S46.18,9.79,46.18,14.94Z"/><path class="cls-6" d="M73.4,3.66V17.77a5.93,5.93,0,0,0,1,3.7A5.44,5.44,0,0,0,79,23.62a5.69,5.69,0,0,0,4.48-2.07,5.92,5.92,0,0,0,1.09-3.78V3.66h3.61V18.47a7.71,7.71,0,0,1-1.57,5A9.39,9.39,0,0,1,79,26.84a9.53,9.53,0,0,1-7.7-3.41,7.81,7.81,0,0,1-1.49-5V3.66Z"/><path class="cls-6" d="M103.41,3.66c5.35,0,8.49,2.3,8.49,6.19a5.23,5.23,0,0,1-2.3,4.48,9.7,9.7,0,0,1-3.84,1.31v.09c2.52.78,3.81,2.52,7.87,10.61h-4.37c-3.33-7.9-4.53-9.32-8.06-9.41H98.54v9.41H94.93V3.66ZM98.54,14.05h3.81c3.64,0,5.6-1.35,5.6-3.89,0-2.36-1.79-3.59-5.21-3.59h-4.2Z"/><path class="cls-6" d="M138.13,3.66a15.31,15.31,0,0,1,4.84.67,5.33,5.33,0,0,1,3.81,5c0,2.8-1.62,4.53-4.79,5.12v.11c3.84.53,5.86,2.44,5.86,5.46,0,4-3.31,6.33-8.85,6.33h-8.68V3.66Zm-4.26,9.41h3.92c3.31,0,5.21-1.21,5.21-3.31s-1.76-3.38-5.07-3.38h-4.06Zm0,10.27h4.68a8.23,8.23,0,0,0,3.33-.58,3.47,3.47,0,0,0,2-3.08c0-1.49-.59-2.33-2.18-3.08a9.43,9.43,0,0,0-3.73-.7h-4.06Z"/><path class="cls-6" d="M157.51,3.66V17.77a5.93,5.93,0,0,0,1,3.7,5.44,5.44,0,0,0,4.54,2.15,5.69,5.69,0,0,0,4.48-2.07,5.92,5.92,0,0,0,1.09-3.78V3.66h3.61V18.47a7.71,7.71,0,0,1-1.57,5,9.39,9.39,0,0,1-7.61,3.33,9.53,9.53,0,0,1-7.7-3.41,7.81,7.81,0,0,1-1.49-5V3.66Z"/><path class="cls-6" d="M179.29,20.38a9.68,9.68,0,0,0,7.5,3.27c3,0,4.65-1.17,4.65-3.27s-1.23-3.14-4.62-4.15l-2-.59a15.89,15.89,0,0,1-4-1.7,4.89,4.89,0,0,1-2.33-4.23c0-4.09,3-6.47,8.1-6.47a12.78,12.78,0,0,1,7.61,2.55l-1.65,2.6a9.36,9.36,0,0,0-6-2.13c-2.69,0-4.28,1.15-4.28,3.08,0,1.77,1,2.55,4.45,3.59l2.18.64c4.34,1.29,6.41,3.45,6.41,6.69a6,6,0,0,1-2.77,5.13,11.37,11.37,0,0,1-5.91,1.4,12.13,12.13,0,0,1-9.26-3.89Z"/><path class="cls-6" d="M209.92,3.66V6.38h-3.08V23.62h3.08v2.72h-9.74V23.62h3.08V6.38h-3.08V3.66Z"/><path class="cls-6" d="M220.39,3.66l7.28,12,.2.3a48.59,48.59,0,0,1,2.6,4.9h.12c-.09-1.9-.14-5.37-.14-7.5V3.66H234V26.34h-3.59l-8.62-13.89A54.32,54.32,0,0,1,219,7.36h-.14c.14,1.87.23,4.9.23,8v11h-3.5V3.66Z"/><path class="cls-6" d="M256.15,3.66V6.71H244.28v6.44h10.5v3h-10.5v7.11h12.29v3.11H240.69V3.66Z"/><path class="cls-6" d="M262.51,20.38a9.68,9.68,0,0,0,7.5,3.27c3,0,4.65-1.17,4.65-3.27s-1.23-3.14-4.62-4.15l-2-.59a16.15,16.15,0,0,1-4-1.7,4.88,4.88,0,0,1-2.32-4.23c0-4.09,3-6.47,8.09-6.47a12.79,12.79,0,0,1,7.62,2.55l-1.65,2.6a9.38,9.38,0,0,0-6-2.13c-2.69,0-4.29,1.15-4.29,3.08,0,1.77,1,2.55,4.45,3.59l2.19.64c4.34,1.29,6.41,3.45,6.41,6.69a6.07,6.07,0,0,1-2.77,5.13,11.37,11.37,0,0,1-5.91,1.4,12.17,12.17,0,0,1-9.27-3.89Z"/><path class="cls-6" d="M284.77,20.38a9.68,9.68,0,0,0,7.5,3.27c3,0,4.65-1.17,4.65-3.27s-1.23-3.14-4.62-4.15l-2-.59a16.15,16.15,0,0,1-4-1.7A4.88,4.88,0,0,1,284,9.71c0-4.09,3-6.47,8.09-6.47a12.79,12.79,0,0,1,7.62,2.55l-1.65,2.6a9.38,9.38,0,0,0-6-2.13c-2.69,0-4.29,1.15-4.29,3.08,0,1.77,1,2.55,4.45,3.59l2.19.64c4.34,1.29,6.41,3.45,6.41,6.69A6.07,6.07,0,0,1,298,25.39a11.37,11.37,0,0,1-5.91,1.4,12.17,12.17,0,0,1-9.27-3.89Z"/></g></g></svg>