<svg xmlns="http://www.w3.org/2000/svg" xmlns:xlink="http://www.w3.org/1999/xlink" viewBox="0 0 226.58 30"><defs><style>.cls-1{fill:none;}.cls-2{clip-path:url(#clip-path);}.cls-3{fill:#a3a3a3;}.cls-4{clip-path:url(#clip-path-2);}.cls-5{fill:#b80f52;}.cls-6{fill:#182b7b;}</style><clipPath id="clip-path" transform="translate(0 0)"><rect class="cls-1" width="30" height="30"/></clipPath><clipPath id="clip-path-2" transform="translate(0 0)"><circle class="cls-1" cx="15" cy="32.5" r="15"/></clipPath></defs><title>Asset 1</title><g id="Layer_2" data-name="Layer 2"><g id="デザイン"><g class="cls-2"><path class="cls-3" d="M15,3A12,12,0,1,1,3,15,12,12,0,0,1,15,3m0-3A15,15,0,1,0,30,15,15,15,0,0,0,15,0Z" transform="translate(0 0)"/><g class="cls-4"><path class="cls-5" d="M15,3A12,12,0,1,1,3,15,12,12,0,0,1,15,3m0-3A15,15,0,1,0,30,15,15,15,0,0,0,15,0Z" transform="translate(0 0)"/></g></g></g><g id="テキスト"><path class="cls-6" d="M57.76,18c0,5-3.24,8.46-7.92,8.46S41.92,23,41.92,18,45.2,9.6,49.84,9.6,57.76,13.08,57.76,18ZM44.7,18c0,3.7,2.08,6.22,5.14,6.22S55,21.7,55,18s-2.1-6.24-5.14-6.24S44.7,14.32,44.7,18Z" transform="translate(0 0)"/><path class="cls-6" d="M64.14,9.94V20a4.22,4.22,0,0,0,.74,2.64,3.89,3.89,0,0,0,3.24,1.54,4.07,4.07,0,0,0,3.2-1.48A4.25,4.25,0,0,0,72.1,20V9.94h2.58V20.52a5.53,5.53,0,0,1-1.12,3.6,6.73,6.73,0,0,1-5.44,2.38,6.81,6.81,0,0,1-5.5-2.44,5.57,5.57,0,0,1-1.06-3.54V9.94Z" transform="translate(0 0)"/><path class="cls-6" d="M85.58,9.94c3.82,0,6.06,1.64,6.06,4.42A3.72,3.72,0,0,1,90,17.56a6.83,6.83,0,0,1-2.74.94v.06c1.8.56,2.72,1.8,5.62,7.58H89.76c-2.38-5.64-3.24-6.66-5.76-6.72H82.1v6.72H79.52V9.94ZM82.1,17.36h2.72c2.6,0,4-1,4-2.78S87.54,12,85.1,12h-3Z" transform="translate(0 0)"/><path class="cls-6" d="M110.38,9.94a11,11,0,0,1,3.46.48A3.8,3.8,0,0,1,116.56,14c0,2-1.16,3.24-3.42,3.66v.08c2.74.38,4.18,1.74,4.18,3.9,0,2.84-2.36,4.52-6.32,4.52h-6.2V9.94Zm-3,6.72h2.8c2.36,0,3.72-.86,3.72-2.36s-1.26-2.42-3.62-2.42h-2.9Zm0,7.34h3.34a5.83,5.83,0,0,0,2.38-.42,2.48,2.48,0,0,0,1.4-2.2,2.19,2.19,0,0,0-1.56-2.2,6.71,6.71,0,0,0-2.66-.5h-2.9Z" transform="translate(0 0)"/><path class="cls-6" d="M124.22,9.94V20a4.22,4.22,0,0,0,.74,2.64,3.89,3.89,0,0,0,3.24,1.54,4.07,4.07,0,0,0,3.2-1.48,4.25,4.25,0,0,0,.78-2.7V9.94h2.58V20.52a5.53,5.53,0,0,1-1.12,3.6,6.73,6.73,0,0,1-5.44,2.38,6.81,6.81,0,0,1-5.5-2.44,5.57,5.57,0,0,1-1.06-3.54V9.94Z" transform="translate(0 0)"/><path class="cls-6" d="M139.78,21.88a6.91,6.91,0,0,0,5.36,2.34c2.12,0,3.32-.84,3.32-2.34s-.88-2.24-3.3-3l-1.42-.42a11.34,11.34,0,0,1-2.84-1.22,3.48,3.48,0,0,1-1.66-3c0-2.92,2.14-4.62,5.78-4.62a9.13,9.13,0,0,1,5.44,1.82l-1.18,1.86A6.68,6.68,0,0,0,145,11.8c-1.92,0-3.06.82-3.06,2.2s.7,1.82,3.18,2.56l1.56.46c3.1.92,4.58,2.46,4.58,4.78a4.32,4.32,0,0,1-2,3.66,8.08,8.08,0,0,1-4.22,1,8.68,8.68,0,0,1-6.62-2.78Z" transform="translate(0 0)"/><path class="cls-6" d="M161.66,9.94v1.94h-2.2V24.2h2.2v1.94h-7V24.2h2.2V11.88h-2.2V9.94Z" transform="translate(0 0)"/><path class="cls-6" d="M169.14,9.94l5.2,8.54.14.22a34.47,34.47,0,0,1,1.86,3.5h.08c-.06-1.36-.1-3.84-.1-5.36V9.94h2.5v16.2h-2.56l-6.16-9.92a36.87,36.87,0,0,1-2-3.64H168c.1,1.34.16,3.5.16,5.72v7.84h-2.5V9.94Z" transform="translate(0 0)"/><path class="cls-6" d="M194.68,9.94v2.18H186.2v4.6h7.5v2.12h-7.5v5.08H195v2.22H183.64V9.94Z" transform="translate(0 0)"/><path class="cls-6" d="M199.22,21.88a6.91,6.91,0,0,0,5.36,2.34c2.12,0,3.32-.84,3.32-2.34s-.88-2.24-3.3-3l-1.42-.42a11.34,11.34,0,0,1-2.84-1.22,3.48,3.48,0,0,1-1.66-3c0-2.92,2.14-4.62,5.78-4.62a9.13,9.13,0,0,1,5.44,1.82l-1.18,1.86a6.68,6.68,0,0,0-4.3-1.52c-1.92,0-3.06.82-3.06,2.2s.7,1.82,3.18,2.56l1.56.46c3.1.92,4.58,2.46,4.58,4.78a4.32,4.32,0,0,1-2,3.66,8.08,8.08,0,0,1-4.22,1,8.68,8.68,0,0,1-6.62-2.78Z" transform="translate(0 0)"/><path class="cls-6" d="M215.12,21.88a6.91,6.91,0,0,0,5.36,2.34c2.12,0,3.32-.84,3.32-2.34s-.88-2.24-3.3-3l-1.42-.42a11.34,11.34,0,0,1-2.84-1.22,3.48,3.48,0,0,1-1.66-3c0-2.92,2.14-4.62,5.78-4.62a9.13,9.13,0,0,1,5.44,1.82l-1.18,1.86a6.68,6.68,0,0,0-4.3-1.52c-1.92,0-3.06.82-3.06,2.2s.7,1.82,3.18,2.56L222,17c3.1.92,4.58,2.46,4.58,4.78a4.32,4.32,0,0,1-2,3.66,8.08,8.08,0,0,1-4.22,1,8.68,8.68,0,0,1-6.62-2.78Z" transform="translate(0 0)"/></g></g></svg>