<svg xmlns="http://www.w3.org/2000/svg" viewBox="0 0 370.18 76.95"><defs><style>.cls-1{fill:none;stroke:#bbb;stroke-miterlimit:10;}.cls-2{fill:#b80f52;}.cls-3{fill:#bcbcbc;}.cls-4{fill:#182b7b;}</style></defs><title>Asset 5</title><g id="Layer_2" data-name="Layer 2"><g id="デザイン"><line class="cls-1" y1="20.71" x2="180" y2="20.71"/></g><g id="テキスト"><path class="cls-2" d="M4.39.72,7,6.69A18.39,18.39,0,0,1,8,9.38h.07A18.34,18.34,0,0,1,9,6.69l2.64-6h3v13h-2V7.06c0-1.3,0-3.71.1-4.68h-.07a39.62,39.62,0,0,1-1.46,3.85L8.87,11.51H7.2L4.79,6.23A35.14,35.14,0,0,1,3.33,2.38H3.27c.06,1.33.09,2.93.09,4.68v6.63h-2V.72Z"/><path class="cls-3" d="M28.23,7.41c0-1.2-.77-1.84-2.23-1.84a5,5,0,0,0-3.09,1l-.85-1.29a7,7,0,0,1,4-1.28c2.66,0,4,1.26,4,3.71v3.15a6.57,6.57,0,0,0,.54,2.84H28.87a6,6,0,0,1-.45-1.59h-.07A4.05,4.05,0,0,1,27,13.43a3.9,3.9,0,0,1-2.11.51,3,3,0,0,1-3.25-3c0-2.09,1.82-3.21,5.26-3.21h1.32Zm-.84,1.65c-2.54,0-3.69.56-3.69,1.81,0,.89.7,1.49,1.76,1.49a2.7,2.7,0,0,0,2.75-2.52V9.06Z"/><path class="cls-3" d="M39.81,6a4,4,0,0,1,3.34-1.95c2.1,0,3.3,1.36,3.3,3.72v5.9h-2V8.12c0-1.59-.64-2.37-1.92-2.37a3.32,3.32,0,0,0-2.75,2.32v5.62h-2V4.24h2Z"/><path class="cls-3" d="M56.21,4.24V9.78c0,1.55.64,2.38,1.84,2.38a3.2,3.2,0,0,0,2.8-2.35V4.24h2v9.45h-2v-1.8a4.11,4.11,0,0,1-3.33,2c-2.2,0-3.36-1.31-3.36-3.76V4.24Z"/><path class="cls-3" d="M71.79,3.67C71.79,1.36,73,0,75.07,0a4.13,4.13,0,0,1,2.42.67l-.72,1.47a2.19,2.19,0,0,0-1.44-.49c-1,0-1.58.7-1.58,2v.64h3.1V5.75h-3.1v7.94h-2V5.75h-2.4V4.24h2.4Z"/><path class="cls-3" d="M89.68,7.41c0-1.2-.77-1.84-2.22-1.84a4.93,4.93,0,0,0-3.09,1l-.85-1.29a7,7,0,0,1,4-1.28c2.65,0,4,1.26,4,3.71v3.15a6.43,6.43,0,0,0,.54,2.84H90.32a6.46,6.46,0,0,1-.45-1.59h-.06a4.15,4.15,0,0,1-1.34,1.33,3.91,3.91,0,0,1-2.12.51,3,3,0,0,1-3.25-3c0-2.09,1.83-3.21,5.27-3.21h1.31Zm-.83,1.65c-2.54,0-3.7.56-3.7,1.81a1.56,1.56,0,0,0,1.76,1.49,2.71,2.71,0,0,0,2.76-2.52V9.06Z"/><path class="cls-3" d="M107.62,12.24a4.72,4.72,0,0,1-4,1.73,4.8,4.8,0,0,1-5-5,4.84,4.84,0,0,1,5-5,5.34,5.34,0,0,1,3.69,1.31l-1,1.35a3.76,3.76,0,0,0-2.67-1c-1.78,0-3,1.37-3,3.37a3.1,3.1,0,0,0,3,3.33A3.34,3.34,0,0,0,106.45,11Z"/><path class="cls-3" d="M117.31,4.24h2.92V5.79h-2.92v5.09a2.39,2.39,0,0,0,.12,1,.87.87,0,0,0,.83.48,3,3,0,0,0,1.6-.52l.41,1.41a4.4,4.4,0,0,1-2.49.67c-1.6,0-2.47-1-2.47-2.72V5.79h-2.24V4.24h2.24v-2l2-.89Z"/><path class="cls-3" d="M129.17,4.24V9.78c0,1.55.64,2.38,1.84,2.38a3.2,3.2,0,0,0,2.8-2.35V4.24h2v9.45h-2v-1.8a4.11,4.11,0,0,1-3.33,2c-2.2,0-3.36-1.31-3.36-3.76V4.24Z"/><path class="cls-3" d="M149.46,7.41c0-1.2-.77-1.84-2.23-1.84a5,5,0,0,0-3.09,1l-.84-1.29a7,7,0,0,1,4-1.28c2.66,0,4,1.26,4,3.71v3.15a6.41,6.41,0,0,0,.55,2.84H150.1a6.46,6.46,0,0,1-.45-1.59h-.06a4.19,4.19,0,0,1-1.35,1.33,3.9,3.9,0,0,1-2.11.51,3,3,0,0,1-3.25-3c0-2.09,1.82-3.21,5.27-3.21h1.31Zm-.83,1.65c-2.55,0-3.7.56-3.7,1.81,0,.89.7,1.49,1.76,1.49a2.7,2.7,0,0,0,2.75-2.52V9.06Z"/><path class="cls-3" d="M160.91,6.87c.58-2,1.57-2.87,3.14-2.87a2.85,2.85,0,0,1,1.3.27L164.8,6.1a2.74,2.74,0,0,0-1-.16c-1.46,0-2.53,1.2-2.85,3.17v4.58h-2V4.24h1.93l-.06,2.63Z"/><path class="cls-3" d="M174,.34v2h-2.22v-2Zm-.11,3.9v9.45h-2V4.24Z"/><path class="cls-3" d="M183.87,6a4,4,0,0,1,3.35-1.95c2.09,0,3.29,1.36,3.29,3.72v5.9h-2V8.12c0-1.59-.64-2.37-1.92-2.37a3.33,3.33,0,0,0-2.76,2.32v5.62h-2V4.24h2Z"/><path class="cls-3" d="M206.68,12.8a4.43,4.43,0,0,1-1.16,3.4,5,5,0,0,1-3.28,1.07,6.13,6.13,0,0,1-4.3-1.44l.91-1.34a4.91,4.91,0,0,0,3.38,1.18,2.31,2.31,0,0,0,2.54-2.48V11.88a3.63,3.63,0,0,1-2.85,1.39c-2.54,0-4.24-1.84-4.24-4.59S199.46,4,201.89,4a3.73,3.73,0,0,1,3,1.29l.32-1h1.48ZM204.77,7a3,3,0,0,0-2.61-1.38c-1.49,0-2.58,1.31-2.58,3.09s1.09,3.12,2.63,3.12a2.85,2.85,0,0,0,2.56-1.44Z"/><path class="cls-3" d="M227,5.67A3.54,3.54,0,0,1,230.05,4c2.58,0,4.37,2,4.37,5s-1.76,4.9-4.42,4.9a3.72,3.72,0,0,1-3-1.62v5h-2v-13h2Zm0,4.64a3,3,0,0,0,2.62,2c1.65,0,2.76-1.33,2.76-3.33s-1.11-3.36-2.76-3.36A3.07,3.07,0,0,0,227,7.46Z"/><path class="cls-3" d="M243.34,6.87c.58-2,1.57-2.87,3.14-2.87a2.85,2.85,0,0,1,1.3.27l-.55,1.83a2.74,2.74,0,0,0-1-.16c-1.46,0-2.53,1.2-2.85,3.17v4.58h-2V4.24h1.93l-.06,2.63Z"/><path class="cls-3" d="M263,9a4.85,4.85,0,1,1-9.69,0A4.85,4.85,0,1,1,263,9Zm-7.64,0c0,2,1.14,3.38,2.8,3.38s2.79-1.38,2.79-3.38-1.17-3.36-2.79-3.36S255.31,7,255.31,8.93Z"/><path class="cls-3" d="M278.24,12.24a4.72,4.72,0,0,1-4,1.73,4.8,4.8,0,0,1-5-5,4.85,4.85,0,0,1,5-5,5.37,5.37,0,0,1,3.7,1.31l-1,1.35a3.8,3.8,0,0,0-2.68-1c-1.77,0-3,1.37-3,3.37a3.1,3.1,0,0,0,3,3.33A3.32,3.32,0,0,0,277.07,11Z"/><path class="cls-3" d="M286.4,9.3a2.84,2.84,0,0,0,3,3,3.75,3.75,0,0,0,3-1.43l1.1,1.28A5.43,5.43,0,0,1,289.25,14,4.62,4.62,0,0,1,284.32,9c0-3,1.95-5.07,4.74-5.07a4.42,4.42,0,0,1,4.45,4.75V9.3Zm5-1.42A2.37,2.37,0,0,0,289,5.49a2.63,2.63,0,0,0-2.55,2.39Z"/><path class="cls-3" d="M301,11.28a5.41,5.41,0,0,0,3.23,1.06c1.22,0,1.86-.4,1.86-1.17s-.53-1.07-1.9-1.47l-.84-.24c-2-.56-2.75-1.36-2.75-2.77C300.59,5.07,302,4,304.14,4a5.88,5.88,0,0,1,3.73,1.12L307,6.42a4.68,4.68,0,0,0-2.8-.88c-.95,0-1.57.45-1.57,1.13a.89.89,0,0,0,.49.77,5.46,5.46,0,0,0,1.08.42l.24.08.92.3c2,.66,2.84,1.48,2.84,2.85,0,1.83-1.44,2.88-3.91,2.88a6.3,6.3,0,0,1-4.16-1.33Z"/><path class="cls-3" d="M315.44,11.28a5.38,5.38,0,0,0,3.23,1.06c1.22,0,1.86-.4,1.86-1.17s-.53-1.07-1.9-1.47l-.84-.24c-2-.56-2.75-1.36-2.75-2.77C315,5.07,316.48,4,318.59,4a5.88,5.88,0,0,1,3.73,1.12l-.89,1.33a4.71,4.71,0,0,0-2.8-.88c-.95,0-1.57.45-1.57,1.13a.89.89,0,0,0,.49.77,5.18,5.18,0,0,0,1.08.42l.24.08.92.3c2,.66,2.84,1.48,2.84,2.85,0,1.83-1.44,2.88-3.91,2.88a6.28,6.28,0,0,1-4.16-1.33Z"/><path class="cls-4" d="M19.54,52.94v4.8H3.5v-4.8Z"/><path class="cls-4" d="M59.76,39.79a81.07,81.07,0,0,0-11.13-5.95l3.31-3.31a57.6,57.6,0,0,1,12.57,6.28l-3.12,3H79.68v4.46H61.59V54.53H77.24V59H61.59V70.37H81.84V75H36.24V70.37H56.16V59H40.85V54.53H56.16V44.25H38.45V39.79Z"/><path class="cls-4" d="M96,39.07c1-3.41,1.35-4.66,1.92-7.15l5.14.62c-.77,2.74-1.11,4-1.92,6.53h8.54v4.7H99.6a84.69,84.69,0,0,1-9.84,20.36l-4.37-2.5a80.43,80.43,0,0,0,9-17.86H87v-4.7Zm21.51,9V60.91a67.25,67.25,0,0,1,11.23,6.39l-2.69,4.36a81.86,81.86,0,0,0-8.54-5.47c-.34,5.71-3.94,8.84-10.32,8.84-6.53,0-10.81-3.22-10.81-8.12s4.66-8.3,11.29-8.3a20,20,0,0,1,4.51.52V48.05Zm-5.33,15.89A15.4,15.4,0,0,0,107,63c-3.51,0-5.86,1.53-5.86,3.88s2.4,3.85,6,3.85c3.12,0,5.14-2.26,5.14-5.81Zm14-13.45a76.78,76.78,0,0,0-12-10.56l3.08-3.36a77.11,77.11,0,0,1,12.24,10.08Z"/><path class="cls-4" d="M143.81,47.47H149V52h-5.14V62c2.93-1.11,3.79-1.44,5.86-2.35L150.1,64a114.92,114.92,0,0,1-17,6.91l-1.63-5c2.35-.62,4.08-1.1,6.39-1.87l.91-.29V52H133V47.47h5.76v-9.6h-6.39V33.21h17.05v4.66h-5.62Zm24.34,22.66c0,1.1.33,1.29,2.25,1.29s2.36-.19,2.6-1a34.61,34.61,0,0,0,.57-6L178.13,66c-.43,9.31-1.1,10.13-8.06,10.13-3.22,0-4.61-.19-5.52-.77a2.86,2.86,0,0,1-1.3-2.69V60.38H160C159.55,70,156,74.21,145.68,77L143,73c9.4-2.54,11.8-5,12.24-12.58h-4.08V33h23.42V60.38h-6.38Zm-12.2-29h13.73V37.05H156Zm0,7.59h13.73v-4H156Zm0,7.73h13.73V52.32H156Z"/><path class="cls-4" d="M216.2,61.29A27.27,27.27,0,0,1,204.1,76l-3.27-2.88a24.93,24.93,0,0,0,11-11.86h-3.27a28.93,28.93,0,0,1-13.78,12.77l-3-3.07a27.3,27.3,0,0,0,12.19-9.7h-3.12a21.38,21.38,0,0,1-4.37,3.56l-2.64-2.55a80,80,0,0,1-12.58,6.24l-1.72-4.75A65.78,65.78,0,0,0,186,61.54V45.74h-5.52V41.09H186v-10h4.85v10h4.61v4.65H190.8V59.42c1.54-.72,2.31-1.1,4.37-2.16l.62,3a20.5,20.5,0,0,0,4.71-5.33h-6.63V51H226v3.94H205.59A26.72,26.72,0,0,1,204,57.55h20.31c-.34,7.63-1,13.44-1.78,16-.72,2.3-2.11,3.12-5.37,3.12a39.86,39.86,0,0,1-4.71-.34l-.86-4.46a20,20,0,0,0,4.37.52c1.49,0,1.87-.33,2.25-1.77a53.17,53.17,0,0,0,1.16-9.32Zm5.52-12.67H197.57V32.49h24.15Zm-19.45-9.79H217V36H202.27Zm0,6.29H217V42.24H202.27Z"/><path class="cls-4" d="M253.39,69.6c9.27-2.35,13.78-7.49,13.78-15.79,0-5.76-2.59-10.61-7-13.06A15.88,15.88,0,0,0,255,39c-1.44,11.14-3.36,18.24-6.87,25.11a20.89,20.89,0,0,1-3.55,5.42,7.63,7.63,0,0,1-5.42,2.6c-5.52,0-10-6.92-10-15.36A22.74,22.74,0,0,1,240,37.44a22.5,22.5,0,0,1,12.1-3.27c12.24,0,20.64,7.88,20.64,19.4q0,16.33-16.51,20.73Zm-3.5-30.82a14.86,14.86,0,0,0-9.6,4.42,18.37,18.37,0,0,0-5.76,13.34c0,5.19,2.16,9.94,4.56,9.94,1.2,0,2.3-1.1,3.79-3.74,3.36-5.86,5.76-14,6.91-23.14Z"/><path class="cls-4" d="M283.54,53.28a44.5,44.5,0,0,0-7.68-7l3.4-3.84a38.92,38.92,0,0,1,7.93,6.91ZM276.05,71.9a68.74,68.74,0,0,0,8.54-15.21l4.08,3.45a78.09,78.09,0,0,1-8.11,15.8Zm9.65-30.33a50.6,50.6,0,0,0-7.44-7l3.41-3.41a37.39,37.39,0,0,1,7.58,6.67Zm12.33,14v2.5c0,10.46-2,15.07-8.06,18.77l-3.89-3.79c5.43-2.45,7.35-6.44,7.35-15V55.58Zm22.71-19.1v4.37H304.42a65.3,65.3,0,0,1-4.23,7.53c3.84-.14,7.64-.33,11.38-.53-.91-1.15-2.4-2.88-3.55-4.08l3.79-2.25A66.54,66.54,0,0,1,320.93,52l-4.27,2.83c-.82-1.24-1.1-1.68-2.3-3.35a5.55,5.55,0,0,0-.63.09c-6.29.82-15.17,1.44-22.8,1.68l-1.2-4.61c1.25,0,3,0,5.28-.09a58.54,58.54,0,0,0,3.84-7.68H290V36.48h11.81V31.1H307v5.38ZM306.05,56.26V74.74h-4.7V56.26Zm8.31-1.11v15c0,1,.38,1.24,1.68,1.24s1.48-.62,1.63-7l4.41,1.68,0,1.15c-.24,7.58-1.11,8.73-6.63,8.73-4.41,0-5.66-.86-5.66-3.84v-17Z"/><path class="cls-4" d="M339.22,32.16V45.41c7.39-7.68,10.94-10,15.41-10,4.85,0,8.16,3.46,8.16,8.55a15.48,15.48,0,0,1-.29,2.88A141.1,141.1,0,0,0,360.44,65c0,1.44.38,2.16,1.1,2.16,1.54,0,4.42-2.69,6.72-6.29l1.92,5.38c-2.54,4.08-5.95,6.43-9.22,6.43a5.25,5.25,0,0,1-4.32-2c-1-1.21-1.34-2.74-1.34-5.57a69.08,69.08,0,0,1,.77-8.88c.24-1.64.48-3.32.67-5,.38-2.83.38-2.93.67-6.09a8.67,8.67,0,0,0,0-1c0-2.64-1.2-4.18-3.17-4.18-3.17,0-8.45,4.56-15.07,13.06V75.17H334V58.94q-4.45,6.27-7.2,10.37l-2.45-5.57A136.34,136.34,0,0,0,334,50.93V45h-8.21v-4.7H334V32.16Z"/></g></g></svg>