<?xml version="1.0" encoding="utf-8"?>
<!-- Generator: Adobe Illustrator 24.0.0, SVG Export Plug-In . SVG Version: 6.00 Build 0)  -->
<svg version="1.1" xmlns="http://www.w3.org/2000/svg" xmlns:xlink="http://www.w3.org/1999/xlink" x="0px" y="0px"
	 viewBox="0 0 73.8 71.3" style="enable-background:new 0 0 73.8 71.3;" xml:space="preserve">
<style type="text/css">
	.st0{display:none;fill:#1B307A;}
	.st1{fill:none;stroke:#1B307A;stroke-miterlimit:10;stroke-dasharray:200,6,0,0;}
	.st2{fill:#182B7B;}
	.st3{fill:#1B307A;}
	.st4{fill:#FFFFFF;}
</style>
<g id="Layer_1">
	<title>Asset 10</title>
	<g id="Layer_2_1_">
		<g id="デザイン">
			<path class="st0" d="M34,3.3c-18.8,0-34,15.2-34,34s15.2,34,34,34s34-15.2,34-34l0,0l0,0l0,0l0,0l0,0l0,0l0,0l0,0l0,0l0,0l0,0
				l0,0l0,0l0,0l0,0l0,0l0,0l0,0l0,0l0,0l0,0l0,0l0,0l0,0l0,0l0,0l0,0l0,0l0,0l0,0l0,0l0,0l0,0l0,0l0,0l0,0l0,0l0,0l0,0h-0.1l0,0
				l0,0l0,0l0,0l0,0l0,0l0,0l0,0l0,0l0,0l0,0l0,0l0,0l0,0l0,0l0,0l0,0l0,0l0,0l0,0l0,0l0,0l0,0l0,0l0,0l0,0l0,0l0,0l0,0l0,0l0,0l0,0
				l0,0l0,0l0,0l0,0l0,0l0,0l0,0l0,0l0,0l0,0l0,0l0,0l0,0l0,0l0,0l0,0l0,0l0,0l0,0l0,0l0,0l0,0l0,0l0,0l0,0l0,0l0,0l0,0l0,0l0,0l0,0
				l0,0l0,0l0,0l0,0l0,0l0,0l0,0l0,0l0,0l0,0l0,0l0,0h-0.1l0,0l0,0l0,0l0,0l0,0l0,0l0,0l0,0l0,0l0,0l0,0l0,0l0,0h-0.1l0,0h-0.1l0,0
				l0,0l0,0l0,0l0,0l0,0l0,0l0,0l0,0l0,0l0,0l0,0l0,0l0,0l0,0l0,0l0,0l0,0l0,0l0,0l0,0l0,0l0,0l0,0l0,0l0,0l0,0l0,0l0,0l0,0l0,0l0,0
				l0,0l0,0l0,0l0,0l0,0l0,0l0,0l0,0l0,0l0,0l0,0l0,0l0,0l0,0l0,0l0,0l0,0l0,0l0,0l0,0l0,0l0,0l0,0l0,0l0,0l0,0l0,0l0,0l0,0l0,0l0,0
				l0,0l0,0l0,0l0,0l0,0l0,0l0,0l0,0l0,0l0,0l0,0l0,0l0,0l0,0l0,0l0,0l0,0l0,0l0,0l0,0l0,0l0,0l0,0l0,0l0,0l0,0l0,0l0,0l0,0l0,0l0,0
				l0,0l0,0l0,0l0,0l0,0l0,0l0,0l0,0l0,0l0,0l0,0l0,0l0,0l0,0l0,0l0,0l0,0l0,0l0,0l0,0l0,0l0,0l0,0l0,0l0,0l0,0l0,0l0,0l0,0l0,0l0,0
				l0,0l0,0l0,0l0,0l0,0l0,0l0,0l0,0l0,0l0,0l0,0l0,0l0,0l0,0l0,0l0,0l0,0l0,0l0,0l0,0l0,0l0,0l0,0l0,0l0,0l0,0l0,0l0,0l0,0l0,0l0,0
				l0,0l0,0l0,0l0,0l0,0l0,0l0,0l0,0l0,0l0,0l0,0l0,0l0,0l0,0l0,0l0,0l0,0l0,0l0,0l0,0l0,0l0,0l0,0l0,0v0l0,0l0,0l0,0l0,0l0,0l0,0
				l0,0l0,0l0,0l0,0l0,0l0,0l0,0l0,0l0,0l0,0l0,0l0,0l0,0l0,0l0,0l0,0l0,0l0,0l0,0l0,0l0,0l0,0l0,0l0,0l0,0l0,0l0,0l0,0l0,0l0,0l0,0
				l0,0l0,0l0,0l0,0v-0.1l0,0l0,0l0,0l0,0l0,0l0,0l0,0v-0.1l0,0l0,0l0,0l0,0l0,0l0,0l0,0l0,0l0,0l0,0l0,0l0,0l0,0l0,0l0,0l0,0l0,0
				l0,0l0,0v-0.1l0,0l0,0l0,0l0,0l0,0V37l0,0l0,0l0,0l0,0l0,0v-0.1l0,0l0,0l0,0v0l0,0v-0.1l0,0v-0.1l0,0v-0.1l0,0v0l0,0v-0.1l0,0
				l0,0l0,0v-0.1l0,0l0,0l0,0v-0.1l0,0c0-0.1-0.1-0.2-0.1-0.3l0,0l0,0l0,0l0,0l0,0V36l0,0c-3.5-8.1-9.9-14.5-18-18L46.9,7
				c16.8,7.2,24.5,26.5,17.4,43.3S37.7,74.9,21,67.7C4.2,60.5-3.6,41.2,3.6,24.4C8.8,12.2,20.8,4.3,34,4.3V3.3z M41.5,4.2l-0.2,1
				l0,0L41.5,4.2L41.5,4.2L41.5,4.2z M34,3.3v1c2.4,0,4.9,0.3,7.3,0.8l0.2-1c-1.5-0.3-2.9-0.6-4.4-0.7l0,0h-0.3H34V3.3z"/>
			<line class="st1" x1="16" y1="0.3" x2="73.5" y2="57.8"/>
		</g>
		<g id="テキスト">
			<path class="st2" d="M18.2,51.9c0.8-3.1,3.4-6.1,7.5-8.7l0.8-0.5c4.1-2.6,5-3.7,5-5.7s-1.9-3.6-4.4-3.6c-2.4,0-4.7,1.1-6.2,3.1
				l-2.5-2.2c2.1-2.8,5.4-4.3,8.9-4.1c4.9,0,8.5,2.9,8.5,6.8c0.1,1.7-0.5,3.3-1.7,4.5c-0.8,0.9-1.5,1.4-4.3,3.1L29.1,45l-1,0.6
				c-3.6,2.2-5.5,4.2-5.9,6H36v3.5H18.2V51.9z"/>
		</g>
	</g>
</g>
<g id="Layer_2">
	<g>
		<path class="st3" d="M33.9,4.8c18.1,0,32.8,14.7,32.8,32.8S52,70.4,33.9,70.4S1.2,55.6,1.2,37.6S15.9,4.8,33.9,4.8 M33.9,3.8
			C15.3,3.8,0.2,18.9,0.2,37.6s15.1,33.8,33.8,33.8s33.8-15.1,33.8-33.8S52.6,3.8,33.9,3.8L33.9,3.8z"/>
	</g>
	<rect x="40" y="2.6" transform="matrix(0.9822 0.1881 -0.1881 0.9822 3.0769 -7.7046)" class="st4" width="4.3" height="19.6"/>
	<rect x="41" y="3.9" transform="matrix(0.9258 0.378 -0.378 0.9258 6.5011 -15.8094)" class="st4" width="5" height="9.4"/>
</g>
</svg>
