<svg xmlns="http://www.w3.org/2000/svg" viewBox="0 0 1056 46"><defs><style>.cls-1{fill:none;stroke:#1b307a;stroke-miterlimit:10;stroke-width:1.01px;}.cls-2{fill:#182b7b;}.cls-3{fill:#fff;}</style></defs><title>Asset 9</title><g id="Layer_2" data-name="Layer 2"><g id="デザイン"><line class="cls-1" x1="123" y1="23" x2="933" y2="23"/><rect class="cls-2" width="168" height="46"/><rect class="cls-2" x="222" width="168" height="46"/><rect class="cls-2" x="444" width="168" height="46"/><rect class="cls-2" x="666" width="168" height="46"/><rect class="cls-2" x="888" width="168" height="46"/></g><g id="テキスト"><path class="cls-3" d="M77.87,23.23a11.53,11.53,0,0,1-2.57,3.6,15.46,15.46,0,0,1-4.18,2.69L70,27.77a10.75,10.75,0,0,0,4.5-3.3,9.91,9.91,0,0,0,2-5.06V17.79l-3.87,0V15.9h6.16c0,.13,0,.27,0,.42v1.42a12.88,12.88,0,0,0,.28,2.76,9.28,9.28,0,0,0,1.06,2.57,10.83,10.83,0,0,0,2,2.45,17.67,17.67,0,0,0,2.92,2.14l-1.54,1.83a19.38,19.38,0,0,1-3.7-3.19A12.86,12.86,0,0,1,77.87,23.23Z"/><path class="cls-3" d="M95.13,29.59H93V24.73c-.23.25-.61.66-1.16,1.22l-1.31-1.17a15.41,15.41,0,0,0,1.84-2.44,13.71,13.71,0,0,0,1.56-3.42l2.05.4a12.63,12.63,0,0,1-1.37,3.17h.57ZM105.74,18H102.3v.88h-2V18H96.67v.81h-2V18H91.21V16.38h3.51v-.94h2v.94h3.67v-.94h2v.94h3.44ZM105,28a1.36,1.36,0,0,1-.54,1.11,2,2,0,0,1-1.28.43h-2.64l-.27-2h2.1c.3,0,.46-.13.46-.4V21H96V19.35h10V21H105Zm-3.36-1H98v.5H96.08V22.13h5.53Zm-1.88-1.55V23.59H98v1.78Z"/><path class="cls-3" d="M297.83,27.37a4.73,4.73,0,0,1-1.57.16,8.4,8.4,0,0,1-1.47-.11,1.52,1.52,0,0,1-.89-.52,1.72,1.72,0,0,1-.32-1.09v-5l-1.54.18-.12-1.84,1.66-.19V15.44h2.13v3.22l3.22-.36.09,1.81-3.31.39v4.87a.26.26,0,0,0,.3.29h.79a.4.4,0,0,0,.26-.08.38.38,0,0,0,.11-.22q0-.15.06-.87c0-.49,0-.89,0-1.2l1.77.2v2.07a9.78,9.78,0,0,0,1.05-3,21.91,21.91,0,0,0,.25-3.44V17.64h-2.09V15.93h8.19v7.65a24.48,24.48,0,0,1-.15,2.71,8.11,8.11,0,0,1-.34,1.82,1.92,1.92,0,0,1-.76.83,2.56,2.56,0,0,1-1.37.35H301.6l-.26-2h1.81a1.38,1.38,0,0,0,.48-.08A1,1,0,0,0,304,27a2.25,2.25,0,0,0,.24-.86,15.6,15.6,0,0,0,.16-1.66q.06-1,.06-2.25c0-.52,0-2-.05-4.57h-1.95v2a14.71,14.71,0,0,1-.93,5.49,12,12,0,0,1-3.1,4.33l-1.35-1.34A7.25,7.25,0,0,0,297.83,27.37Z"/><path class="cls-3" d="M320.61,26.72l0,.73a9.85,9.85,0,0,0,.92-3,20.41,20.41,0,0,0,.26-3.28V16.46a19.84,19.84,0,0,0,5.35-1L328,17a22.82,22.82,0,0,1-4.28.89v2.17H328v1.71H326.8v7.53h-2V21.79h-1.06a17.94,17.94,0,0,1-.59,4.2,11.72,11.72,0,0,1-1.62,3.48l-1.36-1.06h-5v.65h-1.78V15.85h1.78V26.72Zm-2.88-3.31a9.68,9.68,0,0,1-1.56,2l-.92-1.06A12.68,12.68,0,0,0,317.38,21h-1.81V19.64h2.16V15.52h1.58v4.12h2V21h-1.66a14.11,14.11,0,0,0,1.71,2.09l-.88,1.25A9.86,9.86,0,0,1,319.31,23v3.47h-1.58Zm-.24-4.18-1.38.22-.48-2.91,1.36-.21Zm4-2.75-.73,2.94-1.28-.21.57-3Z"/><path class="cls-3" d="M526,28.78h-9v.64H514.9V18.83h5q.21-.63.36-1.14h-6V15.9H528.9v1.79h-6.36c-.12.34-.27.72-.43,1.14h6V29.42H526Zm-9-1.71h1.45V20.49H517Zm3.38-6.58V21.7h2V20.49Zm0,2.63v1.16h2V23.12Zm0,3.95h2V25.7h-2Zm4,0H526V20.49H524.4Z"/><path class="cls-3" d="M540.32,27q-3.15.67-5.25.94l-.4-1.84,1.27-.15V17.39H535V15.74h8.75v1.65h-1.38V29.56h-2.06ZM538,17.39V19h2.37v-1.6Zm0,3.13v1.62h2.37V20.52Zm0,5.1c.82-.13,1.61-.26,2.37-.4V23.74H538Zm11.47-7.78a17,17,0,0,1-.48,4.16,11.21,11.21,0,0,1-1.27,3.17,18.73,18.73,0,0,0,2.64,2.36L549,29.31a25.1,25.1,0,0,1-2.59-2.44,18.45,18.45,0,0,1-2.82,2.5l-1.09-1.46a12,12,0,0,0,2.66-2.64,11.56,11.56,0,0,1-1.85-5.75h-.55V17.84Zm-3,5.52a10.26,10.26,0,0,0,.86-3.84h-2A9.45,9.45,0,0,0,546.37,23.36Z"/><path class="cls-3" d="M746,26.24a7,7,0,0,1-4.71,3.28l-.67-1.65a6,6,0,0,0,3.62-2.38h-2.56V21.13h3.16v-.88H743v-.42c-.41.27-1,.61-1.77,1l-.54-.93h-.78v1a10.48,10.48,0,0,0,1.55,1.54l-.73,1.48a6,6,0,0,1-.82-.8v6.45H738V24.35a13.67,13.67,0,0,1-1.18,2.06l-1.14-1.17a15.49,15.49,0,0,0,1.41-2.61,13.34,13.34,0,0,0,.89-2.7h-1.6V18.34H738v-3h1.87v3H741v.74a14.77,14.77,0,0,0,2.12-1.59,8,8,0,0,0,1.71-2h2a7.94,7.94,0,0,0,2,2.07,12.11,12.11,0,0,0,2.73,1.56l-1.07,1.63c-.56-.29-1.07-.57-1.54-.86v.41h-2v.88h3.32v4.36h-2.5a8,8,0,0,0,3.6,2.27l-1.1,1.73A8.87,8.87,0,0,1,746,26.24Zm-1.16-3.79h-1.29v1.66h1.29Zm-.52-3.65h3.13a10.43,10.43,0,0,1-1.64-1.6A8.59,8.59,0,0,1,744.29,18.8Zm4,5.31V22.45h-1.39v1.66Z"/><path class="cls-3" d="M771.73,29.29H757V27.82h1.82V21.38c-.51.22-1,.43-1.58.63l-.8-1.55a19.29,19.29,0,0,0,5-2.53h-4.28V16.46h6V15.34h2.23v1.12h6.21v1.47h-4.36a22,22,0,0,0,5.05,2.35l-1.11,1.63c-.47-.16-.92-.33-1.36-.52v6.43h1.86Zm-12.48-8.08h10.21a19.89,19.89,0,0,1-4.13-2.51v2h-2V18.81A17.61,17.61,0,0,1,759.25,21.21Zm8.48,2.24v-.94H761v.94ZM761,25.61h6.71v-1H761Zm0,2.21h6.71v-1H761Z"/><path class="cls-3" d="M960.82,29.42h-2.24V22.75h2.24v4.17h3.48V22h-5v-5.5h2.18v3.79h2.84V15.55h2.23v4.72h3V16.43h2.22V22h-5.18v4.94h3.82V22.68h2.24v6.76h-2.24V28.7h-9.53Z"/><path class="cls-3" d="M983.13,29.59H981V24.73c-.23.25-.61.66-1.16,1.22l-1.31-1.17a15.41,15.41,0,0,0,1.84-2.44,13.71,13.71,0,0,0,1.56-3.42l2,.4a12.63,12.63,0,0,1-1.37,3.17h.57ZM993.74,18H990.3v.88h-2V18h-3.67v.81h-1.95V18h-3.51V16.38h3.51v-.94h1.95v.94h3.67v-.94h2v.94h3.44ZM993,28a1.36,1.36,0,0,1-.54,1.11,2,2,0,0,1-1.28.43h-2.64l-.27-2h2.1c.3,0,.46-.13.46-.4V21H984V19.35h10V21H993Zm-3.36-1H986v.5h-1.92V22.13h5.53Zm-1.88-1.55V23.59H986v1.78Z"/></g></g></svg>