<?xml version="1.0" encoding="utf-8"?>
<!-- Generator: Adobe Illustrator 24.0.0, SVG Export Plug-In . SVG Version: 6.00 Build 0)  -->
<svg version="1.1" id="Layer_1" xmlns="http://www.w3.org/2000/svg" xmlns:xlink="http://www.w3.org/1999/xlink" x="0px" y="0px"
	 viewBox="0 0 73.8 71.3" style="enable-background:new 0 0 73.8 71.3;" xml:space="preserve">
<style type="text/css">
	.st0{display:none;fill:#1B307A;}
	.st1{fill:none;stroke:#1B307A;stroke-miterlimit:10;stroke-dasharray:200,6,0,0;}
	.st2{fill:#182B7B;}
	.st3{fill:#1B307A;}
	.st4{fill:#FFFFFF;}
</style>
<title>Asset 12</title>
<g id="Layer_2_1_">
	<g id="デザイン">
		<path class="st0" d="M34,3.3c-18.8,0-34,15.2-34,34s15.2,34,34,34s34-15.2,34-34l0,0l0,0l0,0l0,0l0,0l0,0l0,0l0,0l0,0l0,0l0,0l0,0
			l0,0l0,0l0,0l0,0l0,0l0,0l0,0l0,0l0,0l0,0l0,0l0,0l0,0l0,0l0,0l0,0l0,0l0,0l0,0l0,0l0,0l0,0l0,0l0,0l0,0l0,0l0,0h-0.1l0,0l0,0l0,0
			l0,0l0,0l0,0l0,0l0,0l0,0l0,0l0,0l0,0l0,0l0,0l0,0l0,0l0,0l0,0l0,0l0,0l0,0l0,0l0,0l0,0l0,0l0,0l0,0l0,0l0,0l0,0l0,0l0,0l0,0l0,0
			l0,0l0,0l0,0l0,0l0,0l0,0l0,0l0,0l0,0l0,0l0,0l0,0l0,0l0,0l0,0l0,0l0,0l0,0l0,0l0,0l0,0l0,0l0,0l0,0l0,0l0,0l0,0l0,0l0,0l0,0l0,0
			l0,0l0,0l0,0l0,0l0,0l0,0l0,0l0,0l0,0l0,0h-0.1l0,0l0,0l0,0l0,0l0,0l0,0l0,0l0,0l0,0l0,0l0,0l0,0l0,0h-0.1l0,0h-0.1l0,0l0,0l0,0
			l0,0l0,0l0,0l0,0l0,0l0,0l0,0l0,0l0,0l0,0l0,0l0,0l0,0l0,0l0,0l0,0l0,0l0,0l0,0l0,0l0,0l0,0l0,0l0,0l0,0l0,0l0,0l0,0l0,0l0,0l0,0
			l0,0l0,0l0,0l0,0l0,0l0,0l0,0l0,0l0,0l0,0l0,0l0,0l0,0l0,0l0,0l0,0l0,0l0,0l0,0l0,0l0,0l0,0l0,0l0,0l0,0l0,0l0,0l0,0l0,0l0,0l0,0
			l0,0l0,0l0,0l0,0l0,0l0,0l0,0l0,0l0,0l0,0l0,0l0,0l0,0l0,0l0,0l0,0l0,0l0,0l0,0l0,0l0,0l0,0l0,0l0,0l0,0l0,0l0,0l0,0l0,0l0,0l0,0
			l0,0l0,0l0,0l0,0l0,0l0,0l0,0l0,0l0,0l0,0l0,0l0,0l0,0l0,0l0,0l0,0l0,0l0,0l0,0l0,0l0,0l0,0l0,0l0,0l0,0l0,0l0,0l0,0l0,0l0,0l0,0
			l0,0l0,0l0,0l0,0l0,0l0,0l0,0l0,0l0,0l0,0l0,0l0,0l0,0l0,0l0,0l0,0l0,0l0,0l0,0l0,0l0,0l0,0l0,0l0,0l0,0l0,0l0,0l0,0l0,0l0,0l0,0
			l0,0l0,0l0,0l0,0l0,0l0,0l0,0l0,0l0,0l0,0l0,0l0,0l0,0l0,0l0,0l0,0l0,0l0,0l0,0l0,0l0,0l0,0v0l0,0l0,0l0,0l0,0l0,0l0,0l0,0l0,0
			l0,0l0,0l0,0l0,0l0,0l0,0l0,0l0,0l0,0l0,0l0,0l0,0l0,0l0,0l0,0l0,0l0,0l0,0l0,0l0,0l0,0l0,0l0,0l0,0l0,0l0,0l0,0l0,0l0,0l0,0l0,0
			l0,0l0,0v-0.1l0,0l0,0l0,0l0,0l0,0l0,0l0,0v-0.1l0,0l0,0l0,0l0,0l0,0l0,0l0,0l0,0l0,0l0,0l0,0l0,0l0,0l0,0l0,0l0,0l0,0l0,0l0,0
			v-0.1l0,0l0,0l0,0l0,0l0,0V37l0,0l0,0l0,0l0,0l0,0v-0.1l0,0l0,0l0,0v0l0,0v-0.1l0,0v-0.1l0,0v-0.1l0,0v0l0,0v-0.1l0,0l0,0l0,0
			v-0.1l0,0l0,0l0,0v-0.1l0,0c0-0.1-0.1-0.2-0.1-0.3l0,0l0,0l0,0l0,0l0,0V36l0,0c-3.5-8.1-9.9-14.5-18-18L46.9,7
			c16.8,7.2,24.5,26.5,17.4,43.3S37.7,74.9,21,67.7C4.2,60.5-3.6,41.2,3.6,24.4C8.8,12.2,20.8,4.3,34,4.3V3.3z M41.5,4.2l-0.2,1l0,0
			L41.5,4.2L41.5,4.2L41.5,4.2z M34,3.3v1c2.4,0,4.9,0.3,7.3,0.8l0.2-1c-1.5-0.3-2.9-0.6-4.4-0.7l0,0h-0.3H34V3.3z"/>
		<line class="st1" x1="16" y1="0.3" x2="73.5" y2="57.8"/>
	</g>
	<g id="テキスト">
		<path class="st2" d="M32.7,30.6v15.7H37v3.1h-4.3v5.6H29v-5.6H16.8v-3.1l11.3-15.8H32.7z M29,39.4c0-1.2,0.1-3.7,0.2-5.4h-0.1
			c-0.7,1.5-1.5,3-2.4,4.4l-5.6,8H29V39.4z"/>
	</g>
</g>
<g>
	<path class="st3" d="M33.8,4.8c18.1,0,32.8,14.7,32.8,32.8S51.9,70.4,33.8,70.4S1,55.6,1,37.6S15.7,4.8,33.8,4.8 M33.8,3.8
		C15.1,3.8,0,18.9,0,37.6s15.1,33.8,33.8,33.8s33.8-15.1,33.8-33.8S52.5,3.8,33.8,3.8L33.8,3.8z"/>
</g>
<rect x="39.8" y="2.6" transform="matrix(0.9822 0.1881 -0.1881 0.9822 3.0742 -7.6763)" class="st4" width="4.3" height="19.6"/>
<rect x="40.9" y="3.9" transform="matrix(0.9258 0.378 -0.378 0.9258 6.4899 -15.7527)" class="st4" width="5" height="9.4"/>
</svg>
