<?xml version="1.0" encoding="utf-8"?>
<!-- Generator: Adobe Illustrator 24.0.0, SVG Export Plug-In . SVG Version: 6.00 Build 0)  -->
<svg version="1.1" id="Layer_1" xmlns="http://www.w3.org/2000/svg" xmlns:xlink="http://www.w3.org/1999/xlink" x="0px" y="0px"
	 viewBox="0 0 73.8 71.3" style="enable-background:new 0 0 73.8 71.3;" xml:space="preserve">
<style type="text/css">
	.st0{display:none;fill:#1B307A;}
	.st1{fill:none;stroke:#1B307A;stroke-miterlimit:10;stroke-dasharray:200,6,0,0;}
	.st2{fill:#182B7B;}
	.st3{fill:#1B307A;}
	.st4{fill:#FFFFFF;}
</style>
<title>Asset 13</title>
<g id="Layer_2_1_">
	<g id="デザイン">
		<path class="st0" d="M34.2,3c-18.8,0-34,15.2-34,34s15.2,34,34,34s34-15.2,34-34l0,0l0,0l0,0l0,0l0,0l0,0l0,0l0,0l0,0l0,0l0,0l0,0
			l0,0l0,0l0,0l0,0l0,0l0,0l0,0l0,0l0,0l0,0l0,0l0,0l0,0l0,0l0,0l0,0l0,0l0,0l0,0l0,0l0,0l0,0l0,0l0,0l0,0l0,0l0,0h-0.1l0,0l0,0l0,0
			l0,0l0,0l0,0l0,0l0,0l0,0l0,0l0,0l0,0l0,0l0,0l0,0l0,0l0,0l0,0l0,0l0,0l0,0l0,0l0,0l0,0l0,0l0,0l0,0l0,0l0,0l0,0l0,0l0,0l0,0l0,0
			l0,0l0,0l0,0l0,0l0,0l0,0l0,0l0,0l0,0l0,0l0,0l0,0l0,0l0,0l0,0l0,0l0,0l0,0l0,0l0,0l0,0l0,0l0,0l0,0l0,0l0,0l0,0l0,0l0,0l0,0l0,0
			l0,0l0,0l0,0l0,0l0,0l0,0l0,0l0,0l0,0l0,0H68l0,0l0,0l0,0l0,0l0,0l0,0l0,0l0,0l0,0l0,0l0,0l0,0l0,0H68l0,0h-0.1l0,0l0,0l0,0l0,0
			l0,0l0,0l0,0l0,0l0,0l0,0l0,0l0,0l0,0l0,0l0,0l0,0l0,0l0,0l0,0l0,0l0,0l0,0l0,0l0,0l0,0l0,0l0,0l0,0l0,0l0,0l0,0l0,0l0,0l0,0l0,0
			l0,0l0,0l0,0l0,0l0,0l0,0l0,0l0,0l0,0l0,0l0,0l0,0l0,0l0,0l0,0l0,0l0,0l0,0l0,0l0,0l0,0l0,0l0,0l0,0l0,0l0,0l0,0l0,0l0,0l0,0l0,0
			l0,0l0,0l0,0l0,0l0,0l0,0l0,0l0,0l0,0l0,0l0,0l0,0l0,0l0,0l0,0l0,0l0,0l0,0l0,0l0,0l0,0l0,0l0,0l0,0l0,0l0,0l0,0l0,0l0,0l0,0l0,0
			l0,0l0,0l0,0l0,0l0,0l0,0l0,0l0,0l0,0l0,0l0,0l0,0l0,0l0,0l0,0l0,0l0,0l0,0l0,0l0,0l0,0l0,0l0,0l0,0l0,0l0,0l0,0l0,0l0,0l0,0l0,0
			l0,0l0,0l0,0l0,0l0,0l0,0l0,0l0,0l0,0l0,0l0,0l0,0l0,0l0,0l0,0l0,0l0,0l0,0l0,0l0,0l0,0l0,0l0,0l0,0l0,0l0,0l0,0l0,0l0,0l0,0l0,0
			l0,0l0,0l0,0l0,0l0,0l0,0l0,0l0,0l0,0l0,0l0,0l0,0l0,0l0,0l0,0l0,0l0,0l0,0l0,0l0,0l0,0v0l0,0l0,0l0,0l0,0l0,0l0,0l0,0l0,0l0,0
			l0,0l0,0l0,0l0,0l0,0l0,0l0,0l0,0l0,0l0,0l0,0l0,0l0,0l0,0l0,0l0,0l0,0l0,0l0,0l0,0l0,0l0,0l0,0l0,0l0,0l0,0l0,0l0,0l0,0l0,0l0,0
			l0,0v-0.1l0,0l0,0l0,0l0,0l0,0l0,0l0,0v-0.1l0,0l0,0l0,0l0,0l0,0l0,0l0,0l0,0l0,0l0,0l0,0l0,0l0,0l0,0l0,0l0,0l0,0l0,0l0,0v-0.1
			l0,0l0,0l0,0l0,0l0,0v-0.1l0,0l0,0l0,0l0,0l0,0v-0.1l0,0l0,0l0,0v0l0,0v-0.1l0,0v-0.1l0,0v-0.1l0,0v0l0,0v-0.1l0,0l0,0l0,0V36l0,0
			l0,0l0,0V36l0,0c0-0.1-0.1-0.2-0.1-0.3l0,0l0,0l0,0l0,0l0,0v-0.1l0,0c-3.5-8.1-9.9-14.5-18-18l-2.7-11
			C63.8,13.8,71.6,33.2,64.5,50S37.9,74.5,21.2,67.3C4.4,60.2-3.4,40.8,3.8,24C9,11.9,20.9,4,34.2,4V3z M41.7,3.8l-0.2,1l0,0
			L41.7,3.8L41.7,3.8L41.7,3.8z M34.2,3v1c2.4,0,4.9,0.3,7.3,0.8l0.2-1c-1.5-0.3-2.9-0.6-4.4-0.7l0,0h-0.3h-2.8V3z"/>
		<line class="st1" x1="16.2" y1="0" x2="73.7" y2="57.5"/>
	</g>
	<g id="テキスト">
		<path class="st2" d="M34.9,30.4v3.3H23.6l-0.8,7.1H23c1.5-1.3,3.4-1.9,5.3-1.8c4.8,0,8.2,3.2,8.2,7.9c0,4.9-3.8,8.3-9.2,8.3
			c-3.3,0.1-6.5-1-8.9-3.2l2.3-2.6c1.8,1.6,4.1,2.5,6.6,2.6c2.8,0.1,5.1-2,5.2-4.8c0-0.1,0-0.2,0-0.3c0-3-1.9-4.9-5-4.9
			c-1.9,0-3.8,0.9-5,2.5L19,43.8l1.3-13.4H34.9z"/>
	</g>
</g>
<g>
	<path class="st3" d="M34,4.7c18.1,0,32.8,14.7,32.8,32.8S52.1,70.3,34,70.3S1.2,55.6,1.2,37.5S15.9,4.7,34,4.7 M34,3.7
		C15.3,3.7,0.2,18.8,0.2,37.5S15.3,71.3,34,71.3s33.8-15.1,33.8-33.8S52.7,3.7,34,3.7L34,3.7z"/>
</g>
<rect x="40" y="1.4" transform="matrix(0.9822 0.1881 -0.1881 0.9822 2.8568 -7.7349)" class="st4" width="4.3" height="19.6"/>
<rect x="41.1" y="2.8" transform="matrix(0.9258 0.378 -0.378 0.9258 6.0606 -15.9155)" class="st4" width="5" height="9.4"/>
</svg>
