<svg xmlns="http://www.w3.org/2000/svg" viewBox="0 0 369.6 76.99"><defs><style>.cls-1{fill:none;stroke:#bbb;stroke-miterlimit:10;}.cls-2{fill:#b80f52;}.cls-3{fill:#bcbcbc;}.cls-4{fill:#182b7b;}</style></defs><title>Asset 3</title><g id="Layer_2" data-name="Layer 2"><g id="デザイン"><line class="cls-1" y1="20.71" x2="180" y2="20.71"/></g><g id="テキスト"><path class="cls-2" d="M1.71,10.28A5.54,5.54,0,0,0,6,12.15c1.7,0,2.66-.67,2.66-1.87S8,8.48,6,7.91L4.88,7.57a8.93,8.93,0,0,1-2.27-1A2.76,2.76,0,0,1,1.28,4.18C1.28,1.84,3,.48,5.91.48a7.25,7.25,0,0,1,4.35,1.46L9.32,3.42A5.43,5.43,0,0,0,5.87,2.21c-1.53,0-2.44.65-2.44,1.76S4,5.43,6,6l1.25.37c2.48.73,3.66,2,3.66,3.82A3.46,3.46,0,0,1,9.3,13.14a6.5,6.5,0,0,1-3.38.8,7,7,0,0,1-5.3-2.22Z"/><path class="cls-3" d="M21.14,4.24h2.91V5.79H21.14v5.09a2.45,2.45,0,0,0,.11,1,.87.87,0,0,0,.83.48,3,3,0,0,0,1.6-.52l.42,1.41a4.46,4.46,0,0,1-2.5.67c-1.6,0-2.46-1-2.46-2.72V5.79H16.9V4.24h2.24v-2l2-.89Z"/><path class="cls-3" d="M32.85,6.87C33.43,4.91,34.42,4,36,4a2.81,2.81,0,0,1,1.29.27L36.74,6.1a2.76,2.76,0,0,0-1-.16c-1.45,0-2.53,1.2-2.85,3.17v4.58h-2V4.24h1.94l-.06,2.63Z"/><path class="cls-3" d="M44.94,9.3a2.84,2.84,0,0,0,3,3,3.73,3.73,0,0,0,3-1.43l1.11,1.28A5.46,5.46,0,0,1,47.79,14,4.62,4.62,0,0,1,42.86,9c0-3,2-5.07,4.74-5.07a4.42,4.42,0,0,1,4.45,4.75V9.3Zm5-1.42a2.36,2.36,0,0,0-2.45-2.39A2.62,2.62,0,0,0,45,7.88Z"/><path class="cls-3" d="M61.38,6a3.93,3.93,0,0,1,3.34-1.95c2.1,0,3.3,1.36,3.3,3.72v5.9h-2V8.12c0-1.59-.64-2.37-1.92-2.37a3.31,3.31,0,0,0-2.75,2.32v5.62h-2V4.24h2Z"/><path class="cls-3" d="M84.18,12.8A4.42,4.42,0,0,1,83,16.2a5,5,0,0,1-3.28,1.07,6.16,6.16,0,0,1-4.31-1.44l.91-1.34a4.93,4.93,0,0,0,3.38,1.18,2.31,2.31,0,0,0,2.54-2.48V11.88a3.63,3.63,0,0,1-2.85,1.39c-2.54,0-4.24-1.84-4.24-4.6S77,4,79.39,4a3.77,3.77,0,0,1,3,1.29l.32-1h1.47ZM82.27,7a3,3,0,0,0-2.6-1.38c-1.49,0-2.58,1.31-2.58,3.09s1.09,3.12,2.62,3.12a2.83,2.83,0,0,0,2.56-1.44Z"/><path class="cls-3" d="M94.85,4.24h2.91V5.79H94.85v5.09a2.45,2.45,0,0,0,.11,1,.87.87,0,0,0,.83.48,3,3,0,0,0,1.6-.52l.42,1.41a4.43,4.43,0,0,1-2.5.67c-1.6,0-2.46-1-2.46-2.72V5.79H90.61V4.24h2.24v-2l2-.89Z"/><path class="cls-3" d="M106.69,0V6A4,4,0,0,1,110,4.07c2.1,0,3.3,1.36,3.3,3.72v5.9h-2V8.12c0-1.59-.64-2.37-1.92-2.37a3.32,3.32,0,0,0-2.75,2.32v5.62h-2V0Z"/><path class="cls-3" d="M121.23,11.28a5.41,5.41,0,0,0,3.23,1.06c1.22,0,1.86-.4,1.86-1.17s-.53-1.07-1.9-1.47l-.84-.24c-2-.56-2.75-1.36-2.75-2.77,0-1.62,1.44-2.72,3.55-2.72a5.88,5.88,0,0,1,3.73,1.12l-.89,1.33a4.68,4.68,0,0,0-2.8-.88c-1,0-1.57.45-1.57,1.13a.89.89,0,0,0,.49.77,5.46,5.46,0,0,0,1.08.42l.24.08.92.3c2,.66,2.84,1.48,2.84,2.85,0,1.83-1.44,2.88-3.91,2.88a6.3,6.3,0,0,1-4.16-1.33Z"/><path class="cls-4" d="M19.54,52.94v4.8H3.5v-4.8Z"/><path class="cls-4" d="M45.46,57.46a50.15,50.15,0,0,1-6.63,11.23l-2.93-4.9A42.37,42.37,0,0,0,45,49h-8.4V44.54h8.88V37.92c-2.79.53-4.13.77-6.48,1l-2-4.12a83,83,0,0,0,18.14-4.13L58,34.85c-2.12.67-5.33,1.53-7.54,2v7.68h7.49V49H50.45v3.79A43.59,43.59,0,0,1,58.61,59L55.68,63.7a56.29,56.29,0,0,0-5.23-5.76V76.71h-5ZM79.83,75.41H74.74V72.05H64.56v3.69h-5v-40H79.83ZM64.56,67.34H74.74V40.51H64.56Z"/><path class="cls-4" d="M127,75.5h-5.23V72.14H92.35v3.32H87.12V34.56H127Zm-34.61-25h12V39.26h-12Zm0,16.81h12V55.15h-12Zm29.38-28H109.44V50.49h12.29Zm0,15.89H109.44V67.3h12.29Z"/><path class="cls-4" d="M157.63,67.34h20.21v5h-45.6v-5h19.92V41.18H135v-4.8h40.18v4.8H157.63Z"/><path class="cls-4" d="M205.44,53.85h16.13v3.46H205.44v2.55H225.8v3.93H210.43a57.09,57.09,0,0,0,15.89,7l-3,4.32a50,50,0,0,1-17.86-10.46v12h-5.09V64.8a39.47,39.47,0,0,1-17.52,11l-2.93-4.08a44.66,44.66,0,0,0,16.23-8H180.29V59.86h20.06V57.31H184.51V53.85h15.84V51.36H182.54V47.81h11A26,26,0,0,0,191,43.05h-9.7V39.21h7.63a2.94,2.94,0,0,1-.19-.33,34.77,34.77,0,0,0-3.36-5.52l4.51-1.68a26.61,26.61,0,0,1,3.79,6l-4,1.58h6.53V31.1h4.75v8.11H205V31.1h4.71v8.11h6.19l-3.55-1.39a31.39,31.39,0,0,0,3.12-6.43l5,1.39a34.44,34.44,0,0,1-3.7,6.43h8.07v3.84H214.61a28.61,28.61,0,0,1-2.49,4.76h11.47v3.55H205.44Zm1.49-6a26.06,26.06,0,0,0,2.35-4.76H196.47a26,26,0,0,1,2.16,4.76Z"/><path class="cls-4" d="M253.39,69.6c9.27-2.35,13.78-7.49,13.78-15.79,0-5.76-2.59-10.61-7-13.06A15.88,15.88,0,0,0,255,39c-1.44,11.14-3.36,18.25-6.87,25.11a20.89,20.89,0,0,1-3.55,5.42,7.63,7.63,0,0,1-5.42,2.6c-5.52,0-10-6.92-10-15.36A22.74,22.74,0,0,1,240,37.44a22.5,22.5,0,0,1,12.1-3.27c12.24,0,20.64,7.88,20.64,19.4q0,16.33-16.51,20.73Zm-3.5-30.82a14.86,14.86,0,0,0-9.6,4.42,18.37,18.37,0,0,0-5.76,13.34c0,5.19,2.16,9.94,4.56,9.94,1.2,0,2.3-1.1,3.79-3.74,3.36-5.86,5.76-14,6.91-23.14Z"/><path class="cls-4" d="M292.8,54.14c-.14,9.56-.67,16.23-1.44,18.77-.82,2.69-2.35,3.65-5.81,3.65a50.83,50.83,0,0,1-5.47-.38l-1-4.66a46,46,0,0,0,5.52.48c1.54,0,2.07-.38,2.31-1.68a107.2,107.2,0,0,0,1-11.81h-6.53l0,.15v.24c-.15.76-.24,1.39-.53,2.83L276.24,61A163.16,163.16,0,0,0,278,43.49h9.55V37.58h-11V33.07h15.65V47.85h-9.8l-.14,2.31c-.1,1.29-.15,2.06-.34,4Zm11-9.17c-3.07.24-5,.39-9.26.58L293.38,41c1.34,0,1.87,0,3.41,0a83.71,83.71,0,0,0,6.09-10.08l4.9,1.15a92,92,0,0,1-5.86,8.74l2.16,0c3.27-.1,5.76-.24,9.89-.53-1.39-1.87-2.21-2.88-3.79-4.7l3.94-2.07A53.11,53.11,0,0,1,322,44.16L318,46.7a34.4,34.4,0,0,0-1.68-3c-2.12.29-4.57.57-6.44.77v4.6h10V62.5h-10v7.82c1.59-.14,3.32-.34,5.19-.58-.77-1.58-1.59-3.16-2.35-4.46L317,63.55a55,55,0,0,1,5.52,11.19L318,77c-.48-1.34-1.15-3.17-1.44-3.74-7.2,1.25-14.45,2.16-22.08,2.78l-1.29-4.61c3.5-.09,8.68-.43,11.9-.67V62.5h-9.74V49.05h9.74V44.88Zm-4.08,8v5.57h5.38V53Zm10.13,5.57h5.52V53h-5.52Z"/><path class="cls-4" d="M348.53,34.46l3.26,2.79c-1.72,6-2.73,9.31-3.84,12.24a47.42,47.42,0,0,1,10.76,3.16c.19-2.16.29-3.93.29-5.95,0-1.05,0-1.68-.1-3.6l5.14.53a107.53,107.53,0,0,1-.53,11.28c2.16,1.11,3.79,2.11,6.09,3.55l-2,5a58.71,58.71,0,0,0-4.9-3.27c-1.92,7.83-5.95,12.53-13.44,15.7L346.32,72c6.77-2.78,10.27-7,11.67-14.25a38.38,38.38,0,0,0-11.62-3.89c-2.35,6.38-5.28,12.48-7.68,15.84-1.92,2.69-4.18,4.08-6.58,4.08-4.08,0-7-4-7-9.51,0-8.88,7.06-14.88,17.81-15.07a85.63,85.63,0,0,0,3.31-10.08H330.19V34.46ZM336.1,54.77A10.09,10.09,0,0,0,330,64c0,2.45,1,4.56,2.21,4.56,2.11,0,5.37-5.47,9.07-15A16.13,16.13,0,0,0,336.1,54.77Z"/></g></g></svg>