<svg xmlns="http://www.w3.org/2000/svg" viewBox="0 0 301 69"><defs><style>.cls-1{fill:#b60f52;stroke-dasharray:320 5 0 0;}.cls-1,.cls-2{stroke:#fff;stroke-miterlimit:10;}.cls-2{fill:none;}.cls-3{fill:#fff;}</style></defs><title>Asset 6</title><g id="Layer_2" data-name="Layer 2"><g id="デザイン"><rect class="cls-1" x="0.5" y="0.5" width="300" height="68" rx="34"/><line class="cls-2" x1="258.66" y1="33.5" x2="269.66" y2="33.5"/><polyline class="cls-2" points="267.16 36.33 269.99 33.5 267.16 30.67"/></g><g id="テキスト"><path class="cls-3" d="M87.54,26.72h1.75v3h2.53V26h1.76v3.7h2.75V26.29h1.73v3.39h2.45v1.55H98.06v5H91.82v-5H89.29v7.33H99.82v1.55H89.29v1.08H87.54v-10H85.3V29.68h2.24Zm6,4.51V34.7h2.75V31.23Z"/><path class="cls-3" d="M115.32,33.42A16.07,16.07,0,0,0,120,35.28l-.91,1.51a17.24,17.24,0,0,1-3.42-1.53v5.93h-1.81V34.78h1A10.57,10.57,0,0,1,113,33.23h-1.79a9.17,9.17,0,0,1-1.79,1.7h1v.82c0,3.08-1,4.6-3.55,5.61l-1.11-1.31c2.15-.8,2.9-1.87,2.9-4.07v-.52A15.2,15.2,0,0,1,105.24,37l-.93-1.34a11.56,11.56,0,0,0,5-2.42h-2.94V26.54h11.55v6.69H115ZM108,29.26h3.26V27.85H108Zm0,2.64h3.26V30.49H108Zm8.21-4h-3.4v1.41h3.4Zm0,2.64h-3.4V31.9h3.4Z"/><path class="cls-3" d="M131.11,39.89a7,7,0,0,0,2.79-1.42,9.7,9.7,0,0,1-1.79-3h-.68V34.24h6l.76.67a12.11,12.11,0,0,1-2.12,3.54A10.37,10.37,0,0,0,139,39.73l-1,1.43a10.48,10.48,0,0,1-3-1.64,10,10,0,0,1-3.12,1.75l-.77-1.16v1.08H129.5V39.44c-1.35.27-3.48.59-5.49.8l-.44-1.44c.77,0,1.11,0,1.76-.11V33.38H123.7v-1.3h15.21v1.3h-7.8Zm6-8.68h-11.7V26.32h11.7Zm-10.22,2.17v.94h2.56v-.94Zm0,2v1h2.56v-1Zm0,2v1.2l1-.12,1.09-.11.48-.06v-.91Zm.27-9.11h8.21v-.8h-8.21Zm0,1.93h8.21v-.91h-8.21Zm6.33,5.32a7.23,7.23,0,0,0,1.38,2,8.24,8.24,0,0,0,1.28-2Z"/><path class="cls-3" d="M146.66,37.87c1,1,2.34,1.46,4.85,1.51h6.85a5.9,5.9,0,0,0-.51,1.49h-6.39c-2.91,0-4.29-.52-5.57-1.92a15.28,15.28,0,0,1-2.22,2.29l-.88-1.59a15.43,15.43,0,0,0,2.13-1.57v-4h-2V32.51h3.65v5.27Zm-1.12-7.79a16.3,16.3,0,0,0-2.35-3l1.28-1A15.65,15.65,0,0,1,146.9,29Zm6.12,5.25a11.54,11.54,0,0,1-3.48,3.09l-1.05-1.2A13.11,13.11,0,0,0,151.24,34H148V30h3.64V28.93h-4.25V27.52h4.25V26h1.6v1.54h4.37v1.41h-4.37V30H157v4h-3.76v.3a31.86,31.86,0,0,1,4.41,2.4l-1,1.35a29.8,29.8,0,0,0-3.41-2.35v3.26h-1.6Zm-2.1-4.12v1.57h2.1V31.21Zm3.7,1.57h2.2V31.21h-2.2Z"/><path class="cls-3" d="M170.49,38.82c3.09-.79,4.59-2.5,4.59-5.27a4.79,4.79,0,0,0-2.33-4.35,5.17,5.17,0,0,0-1.73-.59A24.07,24.07,0,0,1,168.73,37a7,7,0,0,1-1.19,1.81,2.52,2.52,0,0,1-1.81.86c-1.84,0-3.33-2.3-3.33-5.12A7.61,7.61,0,0,1,166,28.09,7.48,7.48,0,0,1,170,27c4.08,0,6.88,2.62,6.88,6.46q0,5.46-5.5,6.92Zm-1.17-10.28a5,5,0,0,0-3.2,1.47,6.14,6.14,0,0,0-1.92,4.45c0,1.73.72,3.32,1.52,3.32.4,0,.77-.37,1.26-1.25a21.33,21.33,0,0,0,2.31-7.72Z"/><path class="cls-3" d="M184.66,35.52c0,.43.1.48.91.48s.87-.06,1-.3a11.22,11.22,0,0,0,.19-2l1.58.45c-.06,1.63-.22,2.42-.56,2.83s-1.05.63-2.29.63c-1.92,0-2.48-.31-2.48-1.36V31.74l-1.76.29L181,30.48l1.95-.31V26h1.68V29.9l3.51-.54.12,1.54-3.63.57Zm7.16-6.83c-.31,7-1.4,9.74-4.79,12.32l-1.36-1.26c3.15-2,4.16-4.55,4.44-11.06h-3V27.07h8.75a100.67,100.67,0,0,1-.49,12c-.21,1.32-.77,1.79-2.15,1.79a17.59,17.59,0,0,1-2.41-.15L190.5,39a19.37,19.37,0,0,0,2.34.24c.61,0,.75-.17.88-1.15a79.31,79.31,0,0,0,.45-8.56v-.88Z"/><path class="cls-3" d="M204.81,33.82a15.68,15.68,0,0,1-1.68,3.38l-.69-1.07v2.14h5.86v1.25c.68-1.49.92-3.39.92-7.28V27.12A18,18,0,0,0,214.28,26l1.06,1.33a22.3,22.3,0,0,1-4.51,1.08v2.69h4.86v1.56h-1.58v8.57h-1.59V32.62h-1.69v.45c-.05,4.24-.5,6.56-1.61,8.24l-1.32-1.08c.17-.29.25-.4.3-.5h-5.76v1.14h-1.52V26.46h1.52v1.12l1.31-.48a16.26,16.26,0,0,1,.83,3.15l-1.28.44a18.18,18.18,0,0,0-.86-3.06V31h2.37V26h1.5v5h2.4v1.38h-2.4v.41a13.32,13.32,0,0,1,2.4,2.21l-.86,1.32a15.73,15.73,0,0,0-1.54-2.09v3.62h-1.5Zm-2.37-1.45v3.25a11.47,11.47,0,0,0,1.9-3.25Zm4-2.08a23.57,23.57,0,0,0,1-3.3l1.36.38a20.93,20.93,0,0,1-1.08,3.27Z"/></g></g></svg>