<svg xmlns="http://www.w3.org/2000/svg" viewBox="0 0 301 69"><defs><style>.cls-1{fill:#b60f52;stroke-dasharray:320 5 0 0;}.cls-1,.cls-2{stroke:#fff;stroke-miterlimit:10;}.cls-2{fill:none;}.cls-3{fill:#fff;}</style></defs><title>Asset 7</title><g id="Layer_2" data-name="Layer 2"><g id="デザイン"><rect class="cls-1" x="0.5" y="0.5" width="300" height="68" rx="34"/><line class="cls-2" x1="258.66" y1="33.5" x2="269.66" y2="33.5"/><polyline class="cls-2" points="267.16 36.33 269.99 33.5 267.16 30.67"/></g><g id="テキスト"><path class="cls-3" d="M111,26.38v2.31h3.57v1.58H111v2.56a15.38,15.38,0,0,1,3-.32c2.69,0,4.49,1.51,4.49,3.76a3.55,3.55,0,0,1-1.79,3.3,7.76,7.76,0,0,1-3.33.93L112.71,39c2.87-.25,4-1,4-2.73,0-1.51-1-2.34-2.77-2.34a14.11,14.11,0,0,0-2.94.38v4.13a1.89,1.89,0,0,1-2,2,4.52,4.52,0,0,1-2.61-1,3,3,0,0,1-1.22-2.32,2.83,2.83,0,0,1,1.33-2.34,9.56,9.56,0,0,1,2.8-1.53V30.27h-3.34V28.69h3.34V26.38Zm-1.73,8.48c-1.49.63-2.45,1.54-2.45,2.33a1.8,1.8,0,0,0,1.79,1.58c.47,0,.66-.24.66-.82ZM118.46,32a21.89,21.89,0,0,0-3.19-3.92l1.22-1a19.24,19.24,0,0,1,3.23,3.83Z"/><path class="cls-3" d="M135.38,29.85l.9.82a17.4,17.4,0,0,1-3.34,2.72A29.07,29.07,0,0,0,139.1,35l-.93,1.49c-.72-.16-.94-.21-1.79-.42v5.11h-1.76v-.71h-6.49v.71h-1.76V36.37l-.38.11c-.51.15-.82.23-1.62.43l-.83-1.39a25.09,25.09,0,0,0,6-1.87l.31-.13A11.39,11.39,0,0,1,128,32.13a9.87,9.87,0,0,1-2.51,1.55l-1.17-1.12a10.42,10.42,0,0,0,4.7-3.86l1.65.51a7.09,7.09,0,0,1-.46.64Zm3-2.51v3.12h-1.73V28.62H126v1.84h-1.73V27.34h6.16V26h1.71v1.36Zm-2.74,8.53a24.92,24.92,0,0,1-4.22-1.58,24.42,24.42,0,0,1-3.54,1.58Zm-7.49,1.27v2h6.49v-2Zm1-6h0l-.06.06a11.74,11.74,0,0,0,2.35,1.51,15.31,15.31,0,0,0,2.29-1.62h-4.52Z"/><path class="cls-3" d="M145.16,34.3A19.72,19.72,0,0,1,143.49,38l-.86-1.78A16.2,16.2,0,0,0,145,30.83h-2.1V29.26h2.26V26h1.63v3.28h1.7v1.57h-1.7V32.1a12.21,12.21,0,0,1,1.94,1.82l-.88,1.44a14.07,14.07,0,0,0-1.06-1.47v7.3h-1.63Zm2.46,4.2a18.63,18.63,0,0,0,4-2.4l.4,1.21a18.59,18.59,0,0,1-3.6,2.61ZM154,39.79c0,1-.34,1.33-1.41,1.33a14.86,14.86,0,0,1-1.88-.14l-.25-1.49a8.79,8.79,0,0,0,1.69.19c.23,0,.28-.06.28-.35V33.41h-4v-1.3h4v-.93h-3.14V30h3.14v-.88h-3.72V27.79h2a12.22,12.22,0,0,0-.92-1.38l1.43-.53a8.5,8.5,0,0,1,1.1,1.91h1.62a11.78,11.78,0,0,0,.9-2l1.63.54a11.76,11.76,0,0,1-.84,1.46h2.13v1.28H154V30h3.25v1.23H154v.93h4.19v1.3H154a10.42,10.42,0,0,0,1.19,2.24l.11-.11,0,0a14.52,14.52,0,0,0,1.46-1.92l1.31,1a14.28,14.28,0,0,1-2.1,2.15,9.34,9.34,0,0,0,2.48,2l-1.07,1.46A12.31,12.31,0,0,1,154,36.32Zm-3.49-3.32a10,10,0,0,0-1.89-1.73l1-1.08a11.16,11.16,0,0,1,1.95,1.7Z"/><path class="cls-3" d="M170.49,38.82c3.09-.79,4.59-2.5,4.59-5.27a4.78,4.78,0,0,0-2.34-4.35,5,5,0,0,0-1.72-.59A24.29,24.29,0,0,1,168.73,37a7,7,0,0,1-1.19,1.81,2.54,2.54,0,0,1-1.81.86c-1.84,0-3.33-2.3-3.33-5.12A7.59,7.59,0,0,1,166,28.09,7.48,7.48,0,0,1,170,27c4.08,0,6.88,2.62,6.88,6.46q0,5.46-5.5,6.92Zm-1.17-10.28a5,5,0,0,0-3.2,1.47,6.14,6.14,0,0,0-1.92,4.45c0,1.73.72,3.32,1.52,3.32.4,0,.77-.37,1.26-1.25a21.33,21.33,0,0,0,2.31-7.72Z"/><path class="cls-3" d="M195.1,37.75h-1.76V36.9h-8.79a6.1,6.1,0,0,1-1.91,4.45l-1.39-1.22c1.12-1,1.54-2.26,1.54-4.59V32.61H195.1ZM188,26h1.75v1.46h6.56V28.8h-6.56v1.28h5.54v1.36H182.71V30.08H188V28.8h-6.45V27.44H188Zm-3.39,7.91v1.65H188V33.89Zm5.11,0v1.65h3.65V33.89Z"/></g></g></svg>