<?xml version="1.0" encoding="utf-8"?>
<!-- Generator: Adobe Illustrator 24.0.0, SVG Export Plug-In . SVG Version: 6.00 Build 0)  -->
<svg version="1.1" id="Layer_1" xmlns="http://www.w3.org/2000/svg" xmlns:xlink="http://www.w3.org/1999/xlink" x="0px" y="0px"
	 viewBox="0 0 73.8 71.3" style="enable-background:new 0 0 73.8 71.3;" xml:space="preserve">
<style type="text/css">
	.st0{display:none;fill:#1B307A;}
	.st1{fill:none;stroke:#1B307A;stroke-miterlimit:10;stroke-dasharray:200,6,0,0;}
	.st2{fill:#182B7B;}
	.st3{fill:#1B307A;}
	.st4{fill:#FFFFFF;}
</style>
<title>Asset 11</title>
<g id="Layer_2_1_">
	<g id="デザイン">
		<path class="st0" d="M34,3.3c-18.8,0-34,15.2-34,34s15.2,34,34,34s34-15.2,34-34l0,0l0,0l0,0l0,0l0,0l0,0l0,0l0,0l0,0l0,0l0,0l0,0
			l0,0l0,0l0,0l0,0l0,0l0,0l0,0l0,0l0,0l0,0l0,0l0,0l0,0l0,0l0,0l0,0l0,0l0,0l0,0l0,0l0,0l0,0l0,0l0,0l0,0l0,0l0,0h-0.1l0,0l0,0l0,0
			l0,0l0,0l0,0l0,0l0,0l0,0l0,0l0,0l0,0l0,0l0,0l0,0l0,0l0,0l0,0l0,0l0,0l0,0l0,0l0,0l0,0l0,0l0,0l0,0l0,0l0,0l0,0l0,0l0,0l0,0l0,0
			l0,0l0,0l0,0l0,0l0,0l0,0l0,0l0,0l0,0l0,0l0,0l0,0l0,0l0,0l0,0l0,0l0,0l0,0l0,0l0,0l0,0l0,0l0,0l0,0l0,0l0,0l0,0l0,0l0,0l0,0l0,0
			l0,0l0,0l0,0l0,0l0,0l0,0l0,0l0,0l0,0l0,0h-0.1l0,0l0,0l0,0l0,0l0,0l0,0l0,0l0,0l0,0l0,0l0,0l0,0l0,0h-0.1l0,0h-0.1l0,0l0,0l0,0
			l0,0l0,0l0,0l0,0l0,0l0,0l0,0l0,0l0,0l0,0l0,0l0,0l0,0l0,0l0,0l0,0l0,0l0,0l0,0l0,0l0,0l0,0l0,0l0,0l0,0l0,0l0,0l0,0l0,0l0,0l0,0
			l0,0l0,0l0,0l0,0l0,0l0,0l0,0l0,0l0,0l0,0l0,0l0,0l0,0l0,0l0,0l0,0l0,0l0,0l0,0l0,0l0,0l0,0l0,0l0,0l0,0l0,0l0,0l0,0l0,0l0,0l0,0
			l0,0l0,0l0,0l0,0l0,0l0,0l0,0l0,0l0,0l0,0l0,0l0,0l0,0l0,0l0,0l0,0l0,0l0,0l0,0l0,0l0,0l0,0l0,0l0,0l0,0l0,0l0,0l0,0l0,0l0,0l0,0
			l0,0l0,0l0,0l0,0l0,0l0,0l0,0l0,0l0,0l0,0l0,0l0,0l0,0l0,0l0,0l0,0l0,0l0,0l0,0l0,0l0,0l0,0l0,0l0,0l0,0l0,0l0,0l0,0l0,0l0,0l0,0
			l0,0l0,0l0,0l0,0l0,0l0,0l0,0l0,0l0,0l0,0l0,0l0,0l0,0l0,0l0,0l0,0l0,0l0,0l0,0l0,0l0,0l0,0l0,0l0,0l0,0l0,0l0,0l0,0l0,0l0,0l0,0
			l0,0l0,0l0,0l0,0l0,0l0,0l0,0l0,0l0,0l0,0l0,0l0,0l0,0l0,0l0,0l0,0l0,0l0,0l0,0l0,0l0,0l0,0v0l0,0l0,0l0,0l0,0l0,0l0,0l0,0l0,0
			l0,0l0,0l0,0l0,0l0,0l0,0l0,0l0,0l0,0l0,0l0,0l0,0l0,0l0,0l0,0l0,0l0,0l0,0l0,0l0,0l0,0l0,0l0,0l0,0l0,0l0,0l0,0l0,0l0,0l0,0l0,0
			l0,0l0,0v-0.1l0,0l0,0l0,0l0,0l0,0l0,0l0,0v-0.1l0,0l0,0l0,0l0,0l0,0l0,0l0,0l0,0l0,0l0,0l0,0l0,0l0,0l0,0l0,0l0,0l0,0l0,0l0,0
			v-0.1l0,0l0,0l0,0l0,0l0,0V37l0,0l0,0l0,0l0,0l0,0v-0.1l0,0l0,0l0,0v0l0,0v-0.1l0,0v-0.1l0,0v-0.1l0,0v0l0,0v-0.1l0,0l0,0l0,0
			v-0.1l0,0l0,0l0,0v-0.1l0,0c0-0.1-0.1-0.2-0.1-0.3l0,0l0,0l0,0l0,0l0,0V36l0,0c-3.5-8.1-9.9-14.5-18-18L46.9,7
			c16.8,7.2,24.5,26.5,17.4,43.3S37.7,74.9,21,67.7C4.2,60.5-3.6,41.2,3.6,24.4C8.8,12.2,20.8,4.3,34,4.3V3.3z M41.5,4.2l-0.2,1l0,0
			L41.5,4.2L41.5,4.2L41.5,4.2z M34,3.3v1c2.4,0,4.9,0.3,7.3,0.8l0.2-1c-1.5-0.3-2.9-0.6-4.4-0.7l0,0h-0.3H34V3.3z"/>
		<line class="st1" x1="16" y1="0.3" x2="73.5" y2="57.8"/>
	</g>
	<g id="テキスト">
		<path class="st2" d="M25.2,40.8c3.9,0,6-1.3,6-3.8c0-2.2-1.8-3.5-4.6-3.5c-2.2-0.1-4.4,0.8-5.9,2.5l-2.2-2.3
			c2.2-2.2,5.2-3.4,8.3-3.4c5.2,0,8.6,2.6,8.6,6.3c0,3-2.2,5-5.9,5.5v0.1c4.2,0.3,6.7,2.7,6.7,6.3c0,4.4-3.6,7.1-9.6,7.1
			c-4,0-6.9-1.1-9.2-3.5l2.3-2.5c1.8,1.8,4.3,2.8,6.9,2.7c3.3,0,5.3-1.5,5.3-4.1c0-3-2.2-4.4-6.8-4.4h-2.2v-3.1H25.2z"/>
	</g>
</g>
<g>
	<path class="st3" d="M34,4.6c18.1,0,32.8,14.7,32.8,32.8S52.1,70.2,34,70.2S1.2,55.5,1.2,37.4S15.9,4.6,34,4.6 M34,3.6
		C15.3,3.6,0.2,18.7,0.2,37.4S15.3,71.2,34,71.2s33.8-15.1,33.8-33.8S52.7,3.6,34,3.6L34,3.6z"/>
</g>
<rect x="40" y="2.4" transform="matrix(0.9822 0.1881 -0.1881 0.9822 3.0449 -7.7171)" class="st4" width="4.3" height="19.6"/>
<rect x="41.1" y="3.8" transform="matrix(0.9258 0.378 -0.378 0.9258 6.4386 -15.8413)" class="st4" width="5" height="9.4"/>
</svg>
