<svg xmlns="http://www.w3.org/2000/svg" viewBox="0 0 301 69"><defs><style>.cls-1{fill:#b60f52;stroke-dasharray:320 5 0 0;}.cls-1,.cls-2{stroke:#fff;stroke-miterlimit:10;}.cls-2{fill:none;}.cls-3{fill:#fff;}</style></defs><title>Asset 8</title><g id="Layer_2" data-name="Layer 2"><g id="デザイン"><rect class="cls-1" x="0.5" y="0.5" width="300" height="68" rx="34"/><line class="cls-2" x1="258.66" y1="33.5" x2="269.66" y2="33.5"/><polyline class="cls-2" points="267.16 36.33 269.99 33.5 267.16 30.67"/></g><g id="テキスト"><path class="cls-3" d="M91.9,28.85v1.4H85.33v-1.4Zm-.36,11.54H87.45v.8H85.89V35.81h5.65Zm-.35-13.83v1.31h-5V26.56Zm0,4.69v1.29h-5V31.25Zm0,2.29V34.8h-5V33.54Zm-3.74,5.52H90V37.15H87.45Zm12.32-5.19a14.49,14.49,0,0,1-2.54,3.88,15.19,15.19,0,0,0,3.47,1.84l-.93,1.55A17.23,17.23,0,0,1,96,38.9a15.41,15.41,0,0,1-3.52,2.29l-.91-1.4a11.27,11.27,0,0,0,3.34-1.92,11.15,11.15,0,0,1-2.22-3.33h-.79V33.1h7ZM98,26.54v3.81c0,.34.09.42.43.42s.51-.07.54-.52.08-.75.08-.81c0-.24,0-.39,0-.59l1.46.46c0,2.61-.28,2.93-2.34,2.93-1.31,0-1.73-.27-1.73-1.14V28h-2v.16c0,2.28-.51,3.63-1.71,4.56l-1.14-1.14c1-.64,1.33-1.57,1.33-3.49V26.54Zm-3.68,8a9.06,9.06,0,0,0,1.77,2.25,8.64,8.64,0,0,0,1.49-2.25Z"/><path class="cls-3" d="M107.62,41.19h-1.57V33.06a21.15,21.15,0,0,1-1.16,1.85l-.69-1.74a22.17,22.17,0,0,0,2.86-7.35l1.63.37c-.36,1.33-.65,2.26-1.07,3.41ZM111.11,26h1.59V27.5h2.72V26H117V27.5h2.33v1.27H117v1.31h2.72v1.33H110.5v1.77c0,3.78-.44,5.94-1.61,7.86l-1.16-1.25c.85-1.55,1.19-3.39,1.19-6.61v-3.1h2.19V28.77h-2.26V27.5h2.26Zm7.77,13.94c0,.83-.36,1.17-1.24,1.17a8.51,8.51,0,0,1-1.31-.09L116,39.59a9.11,9.11,0,0,0,1,.08c.28,0,.32-.07.32-.4V37.86h-1.87v2.91H114V37.86H112.3v3.33h-1.49V32.45h8.07Zm-6.58-5.3H114v-1H112.3Zm0,2.15H114V35.71H112.3Zm.4-8v1.31h2.72V28.77Zm4.65,4.85h-1.87v1h1.87Zm0,2.09h-1.87v1.06h1.87Z"/><path class="cls-3" d="M133.06,33.58a1.76,1.76,0,1,1-3.52,0,1.76,1.76,0,0,1,3.52,0Z"/><path class="cls-3" d="M157.05,36.91a13.89,13.89,0,0,1-2.3,1.52,13.5,13.5,0,0,0,3.52,1.27l-1,1.38c-3.29-1-5.7-2.73-6.78-4.87a13,13,0,0,1-1.91,1.28v1.86c2-.36,2.5-.48,3.71-.79l.05,1.28a41.41,41.41,0,0,1-7.12,1.43l-.5-1.4c1-.11,1.36-.16,2.15-.27V38.27a22.71,22.71,0,0,1-3.46,1l-.8-1.31a20.05,20.05,0,0,0,5.84-1.87H142.9V34.83h6.72v-.62h1.7v.62h6.79V36.1H156ZM147,27.1V26h1.54V27.1h3.1v1.12h-3.1V29h3.61v1.14h-3.61v.68h3.1v2.31c0,.74-.19.9-1.15.9a7.24,7.24,0,0,1-1.23-.07L149,32.88a8.34,8.34,0,0,0,.91.06c.22,0,.25,0,.25-.27v-.81h-1.69v2.33H147V31.86H145.4V34.1h-1.49V30.81h3v-.68h-4V29h1.43l-1.14-.86a6.16,6.16,0,0,0,1.5-2.07l1.43.31a8.08,8.08,0,0,1-.35.73Zm-1.89,1.12a5.65,5.65,0,0,1-.66.77H147v-.77ZM152,36.1a7.8,7.8,0,0,0,1.54,1.55,13,13,0,0,0,2-1.55Zm2.15-9.37v5.16h-1.56V26.73Zm3.07-.75V32.7c0,1.11-.34,1.4-1.62,1.4a15,15,0,0,1-1.84-.12l-.27-1.26a12.58,12.58,0,0,0,1.71.14c.34,0,.42-.08.42-.43V26Z"/><path class="cls-3" d="M169,41h-1.65v-.8h-2.87v1h-1.66V33.65H169Zm-4.52-2.29h2.87V35.14h-2.87Zm10.14-6.61h-9.77V26.48h9.77Zm-8-1.46h6.23V28h-6.23Zm10,10.54H175v-1h-3v1h-1.65V33.65h6.28ZM172,38.72h3v-3.6h-3Z"/><path class="cls-3" d="M181.25,33.06l.64,0c.15,0,.29,0,.61,0l1-1.17a17.43,17.43,0,0,0-2.21-2.64l.95-1.14.43.45a16.14,16.14,0,0,0,1.5-2.63l1.41.76a22,22,0,0,1-2,2.88c.37.46.54.7.88,1.17.59-.74,1.47-1.94,2.16-3l1.23.9a37.51,37.51,0,0,1-3.6,4.34c.94-.07,1.38-.1,2-.16-.16-.43-.32-.82-.5-1.2l1.17-.47a14.68,14.68,0,0,1,1.27,3.28l-1.28.61c-.11-.46-.18-.7-.27-1.05-.29,0-.37,0-.77.11l-.37.05v7.09h-1.54v-6.9l-.73.08c-.71.06-.88.08-1.64.13Zm0,6.27a19.37,19.37,0,0,0,.65-4.07l1.43.18a17.28,17.28,0,0,1-.64,4.56Zm5.17-.37a28.44,28.44,0,0,0-.58-3.54l1.3-.35a24.86,24.86,0,0,1,.73,3.36Zm5.47-10.69c-.26,2.66-1.27,4.35-3.22,5.43l-1-1.19a4.87,4.87,0,0,0,2.68-4.24H188V26.8h7.91a44.32,44.32,0,0,1-.27,5.38c-.18.8-.62,1.08-1.76,1.08a15.49,15.49,0,0,1-1.79-.11l-.24-1.53a8.58,8.58,0,0,0,1.6.16c.44,0,.57-.1.67-.55a23.86,23.86,0,0,0,.19-3Zm3.68,12.92H194v-.92h-3.84v.92h-1.61V34.32h7.07Zm-5.46-2.32H194V35.75h-3.84Z"/><path class="cls-3" d="M200.32,32a11.56,11.56,0,0,0,6.74-6H209a14.38,14.38,0,0,0,6.95,5.52l-1,1.59a15.94,15.94,0,0,1-6.86-5.56,12.87,12.87,0,0,1-6.69,5.89Zm5.91.18v1.88a10,10,0,0,1-.48,3.91,6.43,6.43,0,0,1-2.8,3.25L201.7,40c2.13-1.2,2.87-2.76,2.84-6V32.18ZM212,32v9.24h-1.82V32Z"/></g></g></svg>