<svg xmlns="http://www.w3.org/2000/svg" viewBox="0 0 226.61 76.75"><defs><style>.cls-1{fill:none;stroke:#bbb;stroke-miterlimit:10;}.cls-2{fill:#b80f52;}.cls-3{fill:#bcbcbc;}.cls-4{fill:#182b7b;}</style></defs><title>Asset 4</title><g id="Layer_2" data-name="Layer 2"><g id="デザイン"><line class="cls-1" y1="20.71" x2="180" y2="20.71"/></g><g id="テキスト"><path class="cls-2" d="M7.51.66l5.1,13H10.34L9,10.13H3.71L2.38,13.69H.11L5.22.66Zm-.29,4.4C7,4.35,6.5,3,6.4,2.54H6.34c-.13.52-.5,1.64-.82,2.52L4.27,8.47H8.45Z"/><path class="cls-3" d="M21,5.67A3.54,3.54,0,0,1,24.08,4c2.58,0,4.37,2,4.37,5s-1.76,4.9-4.42,4.9a3.72,3.72,0,0,1-3-1.62v5H19v-13h2Zm0,4.64a3,3,0,0,0,2.63,2c1.65,0,2.75-1.33,2.75-3.33S25.27,5.6,23.62,5.6A3.08,3.08,0,0,0,21,7.46Z"/><path class="cls-3" d="M37.54,5.67A3.53,3.53,0,0,1,40.63,4C43.2,4,45,6.07,45,9s-1.76,4.9-4.42,4.9a3.71,3.71,0,0,1-3-1.62v5h-2v-13h2Zm0,4.64a3,3,0,0,0,2.62,2c1.65,0,2.76-1.33,2.76-3.33S41.81,5.6,40.16,5.6a3.07,3.07,0,0,0-2.62,1.86Z"/><path class="cls-3" d="M54.39,0V11.73c0,.26.11.37.35.37H56l-.22,1.59H54.07A1.49,1.49,0,0,1,52.37,12V0Z"/><path class="cls-3" d="M65,.34v2H62.82v-2Zm-.11,3.9v9.45h-2V4.24Z"/><path class="cls-3" d="M81.27,12.24a4.72,4.72,0,0,1-4,1.73,4.81,4.81,0,0,1-5-5,4.85,4.85,0,0,1,5-5A5.34,5.34,0,0,1,81,5.28L80,6.63a3.76,3.76,0,0,0-2.67-1c-1.78,0-3,1.37-3,3.37a3.1,3.1,0,0,0,3,3.33A3.35,3.35,0,0,0,80.1,11Z"/><path class="cls-3" d="M93.91,7.41c0-1.2-.77-1.84-2.23-1.84a5,5,0,0,0-3.09,1l-.85-1.29a7,7,0,0,1,4-1.28c2.66,0,4,1.26,4,3.71v3.15a6.57,6.57,0,0,0,.54,2.84H94.55a6,6,0,0,1-.45-1.59H94a4.05,4.05,0,0,1-1.34,1.33,4,4,0,0,1-2.11.51,3,3,0,0,1-3.25-3c0-2.09,1.82-3.21,5.26-3.21h1.32Zm-.84,1.65c-2.54,0-3.69.56-3.69,1.81,0,.89.7,1.49,1.76,1.49a2.7,2.7,0,0,0,2.75-2.52V9.06Z"/><path class="cls-3" d="M106.47,4.24h2.91V5.79h-2.91v5.09a2.45,2.45,0,0,0,.11,1,.87.87,0,0,0,.83.48,3,3,0,0,0,1.6-.52l.42,1.41a4.46,4.46,0,0,1-2.5.67c-1.6,0-2.47-1-2.47-2.72V5.79h-2.24V4.24h2.24v-2l2-.89Z"/><path class="cls-3" d="M118.74.34v2h-2.23v-2Zm-.12,3.9v9.45h-2V4.24Z"/><path class="cls-3" d="M135.56,9a4.85,4.85,0,1,1-9.69,0,4.85,4.85,0,1,1,9.69,0Zm-7.64,0c0,2,1.14,3.38,2.8,3.38s2.79-1.38,2.79-3.38-1.17-3.36-2.79-3.36S127.92,7,127.92,8.93Z"/><path class="cls-3" d="M144.5,6a3.93,3.93,0,0,1,3.34-1.95c2.1,0,3.3,1.36,3.3,3.72v5.9h-2V8.12c0-1.59-.64-2.37-1.92-2.37a3.31,3.31,0,0,0-2.75,2.32v5.62h-2V4.24h2Z"/><path class="cls-4" d="M19.54,52.94v4.8H3.5v-4.8Z"/><path class="cls-4" d="M59.76,39.79a81.07,81.07,0,0,0-11.13-5.95l3.31-3.31a57.6,57.6,0,0,1,12.57,6.28l-3.12,3H79.68v4.46H61.59V54.53H77.24V59H61.59V70.37H81.84V75H36.24V70.37H56.16V59H40.85V54.53H56.16V44.25H38.45V39.79Z"/><path class="cls-4" d="M96,39.07c1-3.41,1.35-4.66,1.92-7.15l5.14.62c-.77,2.74-1.11,4-1.92,6.53h8.54v4.7H99.6a84.69,84.69,0,0,1-9.84,20.36l-4.37-2.5a80.43,80.43,0,0,0,9-17.86H87v-4.7Zm21.51,9V60.91a67.25,67.25,0,0,1,11.23,6.39l-2.69,4.36a81.86,81.86,0,0,0-8.54-5.47c-.34,5.71-3.94,8.84-10.32,8.84-6.53,0-10.81-3.22-10.81-8.12s4.66-8.3,11.29-8.3a20,20,0,0,1,4.51.52V48.05Zm-5.33,15.89A15.4,15.4,0,0,0,107,63c-3.51,0-5.86,1.53-5.86,3.88s2.4,3.85,6,3.85c3.12,0,5.14-2.26,5.14-5.81Zm14-13.45a76.78,76.78,0,0,0-12-10.56l3.08-3.36a77.11,77.11,0,0,1,12.24,10.08Z"/><path class="cls-4" d="M174.05,71c0,3.65-1.25,4.8-5.23,4.8-2.5,0-4.47-.1-6.48-.29l-.91-5a47.86,47.86,0,0,0,6.14.48c1.06,0,1.3-.24,1.3-1.34V60.38H157.39V74.54h-5V60.38h-11c-.29,7.64-1.58,12.1-4.8,16.37l-4.42-3.65c2.79-3.5,4.08-8.4,4.08-15.45V33.55h37.83ZM141.41,44.83h10.94V38.06H141.41Zm0,11.23h10.94v-7H141.41Zm27.46-18H157.39v6.77h11.48Zm0,11H157.39v7h11.48Z"/><path class="cls-4" d="M191.28,66c3,3.26,7.73,4.9,14.79,5h20.54a16.38,16.38,0,0,0-1.53,4.56H205.92c-8.4-.1-12.62-1.68-16.66-6.1a42.4,42.4,0,0,1-6.72,7.25L179.9,72c2.6-1.82,4.61-3.41,6.39-4.89V55.29h-6V50.64h11Zm-3.07-22.18a47.41,47.41,0,0,0-7.06-9.21l3.89-3a42.14,42.14,0,0,1,7.2,8.79Zm11.81,3V44.64a50.32,50.32,0,0,1-5.91,4.17L191,45.21A34.81,34.81,0,0,0,205.78,31.1h4.85A37.14,37.14,0,0,0,226.52,44l-2.74,4a46,46,0,0,1-6.34-3.74v2.64h-6.57v4.61h12.62v3.93H210.87V65.71c0,3-.91,3.89-4.13,3.89a40.6,40.6,0,0,1-5-.34l-1-4.36a23.24,23.24,0,0,0,4.42.43c.81,0,1-.19,1-1v-9H193.73V51.46h12.38V46.85Zm-7.87,17.66a21.07,21.07,0,0,0,5.8-8.06l4,1.92a29.16,29.16,0,0,1-6.34,9.26ZM215.81,43a34.29,34.29,0,0,1-7.54-7.88A32.19,32.19,0,0,1,201.94,43Zm4.47,24.81a47.51,47.51,0,0,0-6.92-9.31l3.89-2.35a38.59,38.59,0,0,1,6.91,8.5Z"/></g></g></svg>