<svg xmlns="http://www.w3.org/2000/svg" viewBox="0 0 401 224.5"><defs><style>.cls-1{fill:#fff;}</style></defs><title>Asset 2</title><g id="Layer_2" data-name="Layer 2"><g id="デザイン"><path class="cls-1" d="M3.74,0H0V1H0V28H78.6a.5.5,0,0,0,0-1H1V1H3.74a.5.5,0,0,0,.5-.5.5.5,0,0,0-.5-.5ZM121,0H10.78a.5.5,0,0,0-.5.5.5.5,0,0,0,.5.5H120V27H85.63a.5.5,0,0,0,0,1H121V0Z"/><path class="cls-1" d="M3.74,132H0v1H0v27H78.6a.5.5,0,0,0,0-1H1V133H3.74a.5.5,0,1,0,0-1ZM121,132H10.78a.5.5,0,0,0,0,1H120v26H85.63a.5.5,0,0,0,0,1H121V132Z"/><path class="cls-1" d="M60.5,194.33a9,9,0,1,1-9,9,9,9,0,0,1,9-9m0-3a12,12,0,1,0,12,12,12,12,0,0,0-12-12Z"/><path class="cls-1" d="M42.5,50.33a6,6,0,1,1-6,6,6,6,0,0,1,6-6m0-3a9,9,0,1,0,9,9,9,9,0,0,0-9-9Z"/><path class="cls-1" d="M60.5,50.33a6,6,0,1,1-6,6,6,6,0,0,1,6-6m0-3a9,9,0,1,0,9,9,9,9,0,0,0-9-9Z"/><path class="cls-1" d="M78.5,50.33a6,6,0,1,1-6,6,6,6,0,0,1,6-6m0-3a9,9,0,1,0,9,9,9,9,0,0,0-9-9Z"/><path class="cls-1" d="M33.5,66.33a6,6,0,1,1-6,6,6,6,0,0,1,6-6m0-3a9,9,0,1,0,9,9,9,9,0,0,0-9-9Z"/><path class="cls-1" d="M51.5,66.33a6,6,0,1,1-6,6,6,6,0,0,1,6-6m0-3a9,9,0,1,0,9,9,9,9,0,0,0-9-9Z"/><path class="cls-1" d="M69.5,66.33a6,6,0,1,1-6,6,6,6,0,0,1,6-6m0-3a9,9,0,1,0,9,9,9,9,0,0,0-9-9Z"/><path class="cls-1" d="M87.5,66.33a6,6,0,1,1-6,6,6,6,0,0,1,6-6m0-3a9,9,0,1,0,9,9,9,9,0,0,0-9-9Z"/><path class="cls-1" d="M24.5,82.33a6,6,0,1,1-6,6,6,6,0,0,1,6-6m0-3a9,9,0,1,0,9,9,9,9,0,0,0-9-9Z"/><path class="cls-1" d="M42.5,82.33a6,6,0,1,1-6,6,6,6,0,0,1,6-6m0-3a9,9,0,1,0,9,9,9,9,0,0,0-9-9Z"/><path class="cls-1" d="M60.5,82.33a6,6,0,1,1-6,6,6,6,0,0,1,6-6m0-3a9,9,0,1,0,9,9,9,9,0,0,0-9-9Z"/><path class="cls-1" d="M78.5,82.33a6,6,0,1,1-6,6,6,6,0,0,1,6-6m0-3a9,9,0,1,0,9,9,9,9,0,0,0-9-9Z"/><path class="cls-1" d="M96.5,82.33a6,6,0,1,1-6,6,6,6,0,0,1,6-6m0-3a9,9,0,1,0,9,9,9,9,0,0,0-9-9Z"/><path class="cls-1" d="M143.74,0H140V1h0V28h78.6a.5.5,0,0,0,0-1H141V1h2.74a.5.5,0,0,0,.5-.5.5.5,0,0,0-.5-.5ZM261,0H150.78a.5.5,0,0,0-.5.5.5.5,0,0,0,.5.5H260V27H225.63a.5.5,0,0,0,0,1H261V0Z"/><path class="cls-1" d="M143.74,132H140v1h0v27h78.6a.5.5,0,1,0,0-1H141V133h2.74a.5.5,0,0,0,0-1ZM261,132H150.78a.5.5,0,1,0,0,1H260v26H225.63a.5.5,0,0,0,0,1H261V132Z"/><path class="cls-1" d="M200.5,61.33a11,11,0,1,1-11,11,11,11,0,0,1,11-11m0-9a20,20,0,1,0,20,20,20,20,0,0,0-20-20Z"/><path class="cls-1" d="M283.74,0H280V1h0V28h78.6a.5.5,0,0,0,0-1H281V1h2.74a.5.5,0,0,0,.5-.5.5.5,0,0,0-.5-.5ZM401,0H290.78a.5.5,0,0,0-.5.5.5.5,0,0,0,.5.5H400V27H365.63a.5.5,0,0,0,0,1H401V0Z"/><path class="cls-1" d="M283.74,132H280v1h0v27h78.6a.5.5,0,0,0,0-1H281V133h2.74a.5.5,0,0,0,0-1ZM401,132H290.78a.5.5,0,0,0,0,1H400v26H365.63a.5.5,0,0,0,0,1H401V132Z"/><path class="cls-1" d="M340.5,53.33a19,19,0,1,1-19,19,19,19,0,0,1,19-19m0-1a20,20,0,1,0,20,20,20,20,0,0,0-20-20Z"/><path class="cls-1" d="M336.69,187.22c.55,0,1.17.06,1.83.12a19.3,19.3,0,0,0,5,0c.66-.06,1.28-.12,1.83-.12a3.67,3.67,0,0,1,1.1.13,8.19,8.19,0,0,1,2.44,1.76,18.74,18.74,0,0,0,3.9,2.84,4.87,4.87,0,0,1,3.34,4.59,23.5,23.5,0,0,0,.61,2.36,22.11,22.11,0,0,0,.88,2.21,8.3,8.3,0,0,1,.92,2.89,8.18,8.18,0,0,1-.92,2.89,22.11,22.11,0,0,0-.88,2.21,23.5,23.5,0,0,0-.61,2.36,4.87,4.87,0,0,1-3.34,4.59c-.67.4-1.37.8-2.05,1.3s-1.28,1-1.85,1.54a8.19,8.19,0,0,1-2.44,1.76,3.67,3.67,0,0,1-1.1.13c-.55,0-1.17-.06-1.83-.12a19.3,19.3,0,0,0-5,0c-.66.06-1.28.12-1.83.12a3.67,3.67,0,0,1-1.1-.13,8.19,8.19,0,0,1-2.44-1.76,18.74,18.74,0,0,0-3.9-2.84,4.87,4.87,0,0,1-3.34-4.59,23.5,23.5,0,0,0-.61-2.36,22.11,22.11,0,0,0-.88-2.21,8.3,8.3,0,0,1-.92-2.89,8.18,8.18,0,0,1,.92-2.89,22.11,22.11,0,0,0,.88-2.21,23.5,23.5,0,0,0,.61-2.36,4.87,4.87,0,0,1,3.34-4.59c.67-.4,1.37-.8,2.05-1.3s1.28-1,1.85-1.54a8.19,8.19,0,0,1,2.44-1.76,3.67,3.67,0,0,1,1.1-.13m8.62-3c-1.4,0-2.87.28-4.31.28s-2.91-.28-4.31-.28a6.55,6.55,0,0,0-2,.28c-2,.65-3.44,2.5-5.12,3.72s-3.89,2-5.13,3.73-1.31,4-2,6-1.95,3.87-1.95,6,1.32,4.08,1.95,6,.74,4.34,2,6,3.43,2.49,5.13,3.73,3.11,3.07,5.12,3.72a6.55,6.55,0,0,0,2,.28c1.4,0,2.87-.28,4.31-.28s2.91.28,4.31.28a6.55,6.55,0,0,0,2-.28c2-.65,3.44-2.5,5.12-3.72s3.89-2,5.13-3.73,1.31-4,2-6,1.95-3.87,1.95-6-1.32-4.08-1.95-6-.74-4.34-2-6-3.43-2.49-5.13-3.73-3.11-3.07-5.12-3.72a6.55,6.55,0,0,0-2-.28Z"/><path class="cls-1" d="M202.06,187.5l7.88,4.56,4.56,7.88v9.12l-4.56,7.88-7.88,4.56h-9.12l-7.88-4.56-4.56-7.88v-9.12l4.56-7.88,7.88-4.56h9.12m.8-3H192.14l-9.28,5.36-5.36,9.28v10.72l5.36,9.28,9.28,5.36h10.72l9.28-5.36,5.36-9.28V199.14l-5.36-9.28-9.28-5.36Z"/></g><g id="テキスト"><path class="cls-1" d="M50.45,10.83a19.81,19.81,0,0,0,9,10.82l-1.54,2.23a21.32,21.32,0,0,1-8.76-10.3,16.29,16.29,0,0,1-9.11,10.36l-1.52-2c4.51-1.67,8.48-6.6,9-11.15H39V8.49h8.67V3.32h2.49V8.49H59v2.34Z"/><path class="cls-1" d="M80.28,18.62H73.17v.92h7.75V21H73.17v.91h9.38v1.67h-21V21.92H70.8V21H63.18V19.54H70.8v-.92h-7V12.81H80.28Zm2.2-8.23V12H61.64V10.39Zm-2.75-.75H64.24V3.54H79.73ZM66.11,15.05h4.75V14H66.11Zm0,2.29h4.75V16.26H66.11ZM66.6,6H77.4V5H66.6Zm0,2.28H77.4v-1H66.6ZM78,14H73.11v1H78Zm0,2.22H73.11v1.08H78Z"/><path class="cls-1" d="M38.26,151.09c1.32-2.05,2.51-6.12,3.1-10.67l2.46.55c-.77,5.48-1.91,9.33-3.49,11.79Zm12-14.77v17.91c0,2-.57,2.51-2.75,2.51-1,0-2.16,0-3.28-.15l-.55-2.51a25.73,25.73,0,0,0,3.28.26c.68,0,.79-.08.79-.66V136.32ZM57,152.47a75.47,75.47,0,0,0-3.76-11.7l2.27-1a56.53,56.53,0,0,1,3.92,11.38Z"/><path class="cls-1" d="M66.75,157H64.44v-9.16a27.17,27.17,0,0,1-2,1.92l-1.15-2.11a26.21,26.21,0,0,0,5.7-6.8L68.93,142a33.57,33.57,0,0,1-2.18,3.15Zm-5.3-16a14.84,14.84,0,0,0,4.86-4.95l2,1.06A21.16,21.16,0,0,1,62.68,143Zm20.06,6.49a22.45,22.45,0,0,1-6.09-2.9A23.15,23.15,0,0,1,69,147.83l-1.21-1.76a21.54,21.54,0,0,0,6-2.77.35.35,0,0,0-.11-.09,17.3,17.3,0,0,1-3.41-4.16H69v-2H80.28l1,1a17.81,17.81,0,0,1-4.13,5.17,18.1,18.1,0,0,0,5.45,2.27Zm-7.41-.88h2.29V149h5v2h-5v3.35h6.2v2H68v-2h6.1V151H69.39v-2H74.1Zm-1.54-7.59A15,15,0,0,0,75.42,142l.28-.24a13.72,13.72,0,0,0,2.36-2.71Z"/><path class="cls-1" d="M182.24,11.38c0,6.55-.46,9.57-1.89,12.45l-2-1.69c1.16-2.27,1.62-5.35,1.62-10.76V3.83h19V5.7H182.24Zm17.16,6.55v1.79H192v2.5c0,1.32-.57,1.79-2.2,1.79-1.1,0-2.09-.05-3.28-.16l-.35-2a22.65,22.65,0,0,0,3,.2c.48,0,.57-.09.57-.59V19.72h-7.42V17.93h7.42v-.88a19,19,0,0,0,3.56-1.1h-9.43V14.3H196.5l1.08,1.13A35.12,35.12,0,0,1,192,17.78v.15Zm-2.48-4.73H184.09V6.73h12.83Zm-10.5-4h8.19v-1h-8.19Zm0,2.47h8.19V10.65h-8.19Z"/><path class="cls-1" d="M210.8,3.1h2.35V5.9h8.36V21.52c0,1.65-.59,2.18-2.46,2.18-1,0-2.2-.07-3.32-.16l-.49-2.26a21.72,21.72,0,0,0,3.24.26c.55,0,.66-.11.66-.66V7.94h-6.21a7.2,7.2,0,0,1-.22.86,33.53,33.53,0,0,1,6.16,3.72l-1.38,1.63c-1.59-1.21-3.52-2.51-5.5-3.72a10.21,10.21,0,0,1-5.51,4.27L205.17,13c3-.9,5-2.7,5.5-5H205V24h-2.38V5.9h8.21Zm1.14,13.65a9.6,9.6,0,0,1-5.43,4.11L205.17,19c3.45-1,5.3-3,5.78-6.38l2.25.2a9.05,9.05,0,0,1-.49,2.22,40.06,40.06,0,0,1,6,3.55l-1.58,1.78a38.58,38.58,0,0,0-4.4-3.17Z"/><path class="cls-1" d="M185.89,144.42v10.06h-3.72v1.84h-2v-8.09c-.33.5-.66,1-1.1,1.54l-1-2.31a21.13,21.13,0,0,0,3.46-8.45h-2.8v-2.07H186V139h-2.31a26,26,0,0,1-1.6,5.41Zm-3.72,8.05H184V146.4h-1.79Zm9.51-13.64h-5.06v-1.91h12.74v1.91h-5.74v1.76h5v8.78h-5a9.05,9.05,0,0,1-.81,3.15,23.53,23.53,0,0,0,7,2.53l-1.21,2a22.59,22.59,0,0,1-6.75-2.95,9.5,9.5,0,0,1-5.28,3.11l-1.13-1.74a7.9,7.9,0,0,0,4.76-2.49,24.91,24.91,0,0,1-2.4-2l1.3-1.19a16.4,16.4,0,0,0,2,1.63,7.4,7.4,0,0,0,.55-2.07h-4.77v-8.78h4.86Zm-2.88,3.52v1.76h2.88v-1.76Zm0,3.39v1.85h2.88v-1.85Zm4.82-1.63h3v-1.76h-3Zm0,3.48h3v-1.85h-3Z"/><path class="cls-1" d="M212.14,150.14a17.76,17.76,0,0,1-2.14,4.45,2.92,2.92,0,0,1-2.31,1.4c-1.14,0-2.2-.85-3-2.48a14.76,14.76,0,0,1-1.34-4.2,54.78,54.78,0,0,1-.44-6.8c0-.95,0-2.51.13-4.47l2.53.2c-.09,1.67-.13,2.7-.13,4.13,0,4.56.44,7.84,1.27,9.62.31.64.75,1.12,1,1.12.52,0,1.62-2,2.51-4.53Zm6.8,2.55a41.87,41.87,0,0,0-3.59-13.53l2.29-.55a35.54,35.54,0,0,1,3.81,13.49Z"/><path class="cls-1" d="M318.32,22.07a26.73,26.73,0,0,0,4.36-5.94l1.5,1.58A29.7,29.7,0,0,1,320,23.9Zm3.28-6a19,19,0,0,0-3.19-2.81l1.39-1.63a17.5,17.5,0,0,1,3.32,2.7ZM324.22,3.1h2.31V4.58h4.64V3.1h2.36V4.58h5.59V6.36h-5.59v.92h-2.36V6.36h-4.64V7.75h-2.31V6.36h-5.43V4.58h5.43ZM322.68,12a22.11,22.11,0,0,0-3.1-2.93l1.47-1.56a16.63,16.63,0,0,1,3.17,2.86Zm10-1H338V17h-2.38v.92h3.74v1.67h-3.74v2.66c0,1.3-.59,1.81-2.18,1.81a18.82,18.82,0,0,1-2.35-.18l-.37-1.93a17.59,17.59,0,0,0,2.13.15c.44,0,.55-.11.55-.57V19.56h-5.32A13.38,13.38,0,0,1,330.49,22l-1.87,1.24a14.41,14.41,0,0,0-2.48-2.8l1.4-.88h-3.25V17.89h9.15V17h-8.16V11.05h5.23v-1H324.6V8.54h5.91v-.9h2.18v.9h2.47a7.68,7.68,0,0,0-.69-1.06L336.39,7a8.59,8.59,0,0,1,1,1.54h1.52V10.1h-6.21Zm-5.15,1.34v1h3v-1Zm0,2.18v1h3v-1Zm5.15-1.19h3.17v-1h-3.17Zm0,2.24h3.17v-1h-3.17Z"/><path class="cls-1" d="M350.8,3.1h2.35V5.9h8.36V21.52c0,1.65-.59,2.18-2.46,2.18-1,0-2.2-.07-3.32-.16l-.49-2.26a21.72,21.72,0,0,0,3.24.26c.55,0,.66-.11.66-.66V7.94h-6.21a7.2,7.2,0,0,1-.22.86,33.53,33.53,0,0,1,6.16,3.72l-1.38,1.63c-1.59-1.21-3.52-2.51-5.5-3.72a10.21,10.21,0,0,1-5.51,4.27L345.17,13c3-.9,5-2.7,5.5-5H345V24h-2.38V5.9h8.21Zm1.14,13.65a9.6,9.6,0,0,1-5.43,4.11L345.17,19c3.45-1,5.3-3,5.78-6.38l2.25.2a9.05,9.05,0,0,1-.49,2.22,40.06,40.06,0,0,1,6,3.55l-1.58,1.78a38.58,38.58,0,0,0-4.4-3.17Z"/><path class="cls-1" d="M305.34,143a23.08,23.08,0,0,1-8.18,4.42l-1.45-1.65a27.66,27.66,0,0,0,7.19-2.95h-6.71v-1.76h9.27c-1.57-.52-3.37-1.1-5.24-1.65l1.58-1H298v-1.76h14.21l1.13.9a37.41,37.41,0,0,1-5.13,2.73l1.41.5c.24.09.35.11.44.16l.24.08h4.2l1.15,1.06a33,33,0,0,1-5.48,4.4l-1.72-1.32a22.72,22.72,0,0,0,3.46-2.38h-4.32V146a1.32,1.32,0,0,1-.68,1.25v1.1h9.35v1.85h-7.24A25.27,25.27,0,0,0,316.5,154l-1.43,2a23.56,23.56,0,0,1-8.12-5.33V157h-2.33v-6.23a19.2,19.2,0,0,1-7.92,5.63l-1.39-1.93a20.29,20.29,0,0,0,7.5-4.27H295.4v-1.85h9.22v-.9c-.64,0-1.25-.07-1.67-.11l-.4-1.83a16.11,16.11,0,0,0,2.24.2c.47,0,.55-.09.55-.59Zm1-3.39.09,0c.57-.24,1.74-.77,2.38-1.12h-6.25a1.82,1.82,0,0,1,.33.11l2.11.66.24.08,1,.33Z"/><path class="cls-1" d="M321.21,149a68.08,68.08,0,0,1,1.32-9l2.31.44a43.47,43.47,0,0,0-1.06,6.36,12.73,12.73,0,0,1,7.22-2.6c4,0,6.27,1.9,6.27,5.22,0,4.44-3.52,6.55-11.4,6.82L325,154c6.93,0,9.71-1.35,9.71-4.62,0-2.07-1.46-3.3-3.88-3.3a12,12,0,0,0-7.87,3.76Zm12.25-7.88a41.17,41.17,0,0,0-9.17-2.77l.9-1.92a49.7,49.7,0,0,1,9.26,2.55Z"/><path class="cls-1" d="M347.25,140.86c.25-1.3.44-2.36.73-4.12l0-.31,2.36.36c-.29,1.73-.48,2.79-.75,4.07h1.7c3.27,0,4.68,1.32,4.68,4.4a25.87,25.87,0,0,1-1.38,8.75,2.81,2.81,0,0,1-2.75,2,8.62,8.62,0,0,1-3.81-1.12l.26-2.27a8.51,8.51,0,0,0,3.17,1c.51,0,.75-.22,1-.9a22.24,22.24,0,0,0,1.14-7.24c0-1.91-.48-2.37-2.49-2.37h-2a43.84,43.84,0,0,1-4.91,13l-2.16-1.19a41.11,41.11,0,0,0,4.71-11.79H342.5v-2.2Zm12.88,8.62a40.62,40.62,0,0,0-4.36-9.92l2.07-1.06a41.5,41.5,0,0,1,4.58,10Z"/><path class="cls-1" d="M375.24,150.14a17.76,17.76,0,0,1-2.14,4.45,2.92,2.92,0,0,1-2.31,1.4c-1.14,0-2.2-.85-3-2.48a14.76,14.76,0,0,1-1.34-4.2,54.78,54.78,0,0,1-.44-6.8c0-.95,0-2.51.13-4.47l2.53.2c-.09,1.67-.13,2.7-.13,4.13,0,4.56.44,7.84,1.27,9.62.31.64.75,1.12,1,1.12.52,0,1.62-2,2.51-4.53Zm6.8,2.55a41.87,41.87,0,0,0-3.59-13.53l2.29-.55a35.54,35.54,0,0,1,3.81,13.49Z"/></g></g></svg>