<svg xmlns="http://www.w3.org/2000/svg" viewBox="0 0 226.56 76.71"><defs><style>.cls-1{fill:none;stroke:#bebebe;stroke-miterlimit:10;}.cls-2{fill:#b90f52;}.cls-3{fill:#bdbdbd;}.cls-4{fill:#182b7b;}</style></defs><title>com-06</title><g id="Layer_2" data-name="Layer 2"><g id="デザイン"><line class="cls-1" y1="20.71" x2="180" y2="20.71"/></g><g id="テキスト"><path class="cls-2" d="M6.21.72a6.59,6.59,0,0,1,3.25.69,3.68,3.68,0,0,1,1.9,3.28c0,2.83-1.72,4.24-5.25,4.24H3.68v4.76H1.63V.72ZM3.68,7.27H5.86c2.37,0,3.3-.71,3.3-2.52A2.18,2.18,0,0,0,8.23,2.9a4.2,4.2,0,0,0-2.15-.45H3.68Z"/><path class="cls-3" d="M20.46,0V6a4,4,0,0,1,3.35-1.95c2.1,0,3.3,1.36,3.3,3.72v5.9h-2V8.12c0-1.59-.64-2.37-1.92-2.37a3.33,3.33,0,0,0-2.76,2.32v5.62h-2V0Z"/><path class="cls-3" d="M37.28.34v2H35.06v-2Zm-.11,3.9v9.45h-2V4.24Z"/><path class="cls-3" d="M47.49,0V11.73c0,.26.11.37.35.37h1.3l-.23,1.59H47.17A1.49,1.49,0,0,1,45.47,12V0Z"/><path class="cls-3" d="M64.66,9A4.84,4.84,0,1,1,55,9a4.84,4.84,0,1,1,9.68,0ZM57,8.93c0,2,1.14,3.38,2.81,3.38s2.78-1.38,2.78-3.38-1.17-3.36-2.78-3.36S57,7,57,8.93Z"/><path class="cls-3" d="M71.76,11.28A5.38,5.38,0,0,0,75,12.34c1.22,0,1.86-.4,1.86-1.17S76.32,10.1,75,9.7l-.84-.24c-2-.56-2.75-1.36-2.75-2.77C71.36,5.07,72.8,4,74.91,4a5.88,5.88,0,0,1,3.73,1.12l-.89,1.33A4.71,4.71,0,0,0,75,5.54c-1,0-1.57.45-1.57,1.13a.89.89,0,0,0,.49.77A5.18,5.18,0,0,0,75,7.86l.24.08.92.3c2,.66,2.84,1.48,2.84,2.85C79,12.92,77.51,14,75,14a6.28,6.28,0,0,1-4.16-1.33Z"/><path class="cls-3" d="M95,9a4.85,4.85,0,1,1-9.69,0A4.85,4.85,0,1,1,95,9Zm-7.64,0c0,2,1.14,3.38,2.8,3.38S93,10.93,93,8.93s-1.17-3.36-2.79-3.36S87.36,7,87.36,8.93Z"/><path class="cls-3" d="M104,5.67A3.54,3.54,0,0,1,107.06,4c2.57,0,4.37,2,4.37,5s-1.76,4.9-4.42,4.9a3.72,3.72,0,0,1-3-1.62v5h-2v-13h2Zm0,4.64a3,3,0,0,0,2.62,2c1.65,0,2.76-1.33,2.76-3.33s-1.11-3.36-2.76-3.36A3.07,3.07,0,0,0,104,7.46Z"/><path class="cls-3" d="M120.48,0V6a4,4,0,0,1,3.35-1.95c2.09,0,3.29,1.36,3.29,3.72v5.9h-2V8.12c0-1.59-.64-2.37-1.92-2.37a3.32,3.32,0,0,0-2.75,2.32v5.62h-2V0Z"/><path class="cls-3" d="M136.06,4.24l2,5.89.15.42c.08.24.16.49.25.73s.11.36.21.63h.05l0-.05c.31-.82.36-.94.62-1.68l2-5.94h2.23l-4.2,10.61c-.7,1.76-1.74,2.44-3.81,2.44h-.69l-.54-1.57h.91c1.23,0,1.78-.27,2.07-1l.33-.86-3.89-9.59Z"/><path class="cls-4" d="M19.54,52.94v4.8H3.5v-4.8Z"/><path class="cls-4" d="M35.42,48.81C44.59,45,51,39.6,55.92,31.48h5.81c4.42,6.82,11.81,12.34,21,15.8L79.4,52c-8.65-3.84-16.13-9.6-20.6-16-4.41,7.1-11.38,13.06-20,17.14Zm40,4.8v4.52H62.64V69.94H81v4.75H37.15V69.94H44.5V52.08h5.37V69.94h7.35v-26h5.42v9.69Z"/><path class="cls-4" d="M109.44,53.85h16.13v3.46H109.44v2.55H129.8v3.93H114.43a57.09,57.09,0,0,0,15.89,7l-3,4.32a50,50,0,0,1-17.86-10.46v12h-5.09V64.8a39.47,39.47,0,0,1-17.52,11L83.9,71.76a44.66,44.66,0,0,0,16.23-8H84.29V59.86h20.06V57.31H88.51V53.85h15.84V51.36H86.54V47.81H97.49A26,26,0,0,0,95,43.05h-9.7V39.21h7.63a2.94,2.94,0,0,1-.19-.33,34.77,34.77,0,0,0-3.36-5.52l4.51-1.68a26.61,26.61,0,0,1,3.79,6l-4,1.58h6.53V31.1h4.75v8.11H109V31.1h4.71v8.11h6.19l-3.55-1.39a31.39,31.39,0,0,0,3.12-6.43l5,1.39a34.44,34.44,0,0,1-3.7,6.43h8.07v3.84H118.61a28.61,28.61,0,0,1-2.49,4.76h11.47v3.55H109.44Zm1.49-6a26.06,26.06,0,0,0,2.35-4.76H100.47a26,26,0,0,1,2.16,4.76Z"/><path class="cls-4" d="M143.28,47.81h4.66v4.8h-4.66V62c1.15-.44,2.79-1.2,4.13-1.88L148,64.8a108.74,108.74,0,0,1-15,6.62l-1.44-5.28c2.26-.67,5-1.53,6.86-2.2V52.61h-5.47v-4.8h5.47V38.3h-6V33.45h16.13V38.3h-5.19Zm32.6,9.07H165.22v4.46h11.09v4.28H165.22v4.94H178v4.56H146.45V70.56h14V65.62H149.19V61.34h11.23V56.88H150V32.83h25.93ZM154.47,42.67h5.95V37.05h-5.95Zm0,10h5.95v-5.8h-5.95Zm16.8-15.6h-6.05v5.62h6.05Zm0,9.8h-6.05v5.8h6.05Z"/><path class="cls-4" d="M212.69,45.55H193.2V43.39a70.67,70.67,0,0,1-10.42,5.33l-3.12-4.13c9.13-3.07,15.56-7.3,20.31-13.49h5.47c4.8,5.57,11.48,9.51,21,12.39l-2.83,4.41a66.34,66.34,0,0,1-10.9-5ZM180.24,72.67a30.76,30.76,0,0,0,4-11.47l5,1.1a32.88,32.88,0,0,1-4.22,13.35ZM216.39,49.1l2.69,2.31a64.47,64.47,0,0,1-7.16,10.94l-4.46-2.45a39,39,0,0,0,4.8-6.62H187V49.1ZM198.1,61v8.3c0,2,.24,2.07,6.24,2.07,5,0,5.85-.2,6.24-1.3a23.64,23.64,0,0,0,.53-4.66l5.09,1.2c-.15,3.84-.44,5.57-1.16,6.92-1,2-2.78,2.35-12.09,2.35-8.84,0-10-.48-10-4.23V61Zm12.29-19.49a45.72,45.72,0,0,1-7.64-6.24,36.46,36.46,0,0,1-6.81,6.24Zm-6.29,26a41.55,41.55,0,0,0-6-8.84l3.89-2.49a54.06,54.06,0,0,1,6.48,8.54Zm17.81,6.57a66.47,66.47,0,0,0-6.29-11.9l4.46-2.4a66.89,66.89,0,0,1,6.48,11.42Z"/></g></g></svg>