<svg xmlns="http://www.w3.org/2000/svg" viewBox="0 0 225.84 76.37"><defs><style>.cls-1{fill:none;stroke:#bebebe;stroke-miterlimit:10;}.cls-2{fill:#b90f52;}.cls-3{fill:#bdbdbd;}.cls-4{fill:#182b7b;}</style></defs><title>com-16</title><g id="Layer_2" data-name="Layer 2"><g id="デザイン"><line class="cls-1" y1="20.37" x2="180" y2="20.37"/></g><g id="テキスト"><path class="cls-2" d="M3.57.38v5.3H9.94V.38H12v13H9.94V7.49H3.57v5.86h-2V.38Z"/><path class="cls-3" d="M22.18,0V2.05H20V0Zm-.11,3.91v9.44h-2V3.91Z"/><path class="cls-3" d="M30.21,11A5.37,5.37,0,0,0,33.44,12c1.22,0,1.86-.4,1.86-1.16s-.53-1.08-1.91-1.48l-.83-.24c-2-.56-2.75-1.36-2.75-2.77,0-1.61,1.44-2.72,3.55-2.72a5.88,5.88,0,0,1,3.73,1.12l-.9,1.33a4.66,4.66,0,0,0-2.8-.88c-.94,0-1.56.45-1.56,1.14a.91.91,0,0,0,.49.77,4.88,4.88,0,0,0,1.07.41l.24.08.93.31c2,.65,2.84,1.47,2.84,2.85,0,1.82-1.44,2.88-3.91,2.88a6.33,6.33,0,0,1-4.16-1.33Z"/><path class="cls-3" d="M47.47,3.91h2.92V5.46H47.47v5.09a2.46,2.46,0,0,0,.12,1,.89.89,0,0,0,.83.48,2.91,2.91,0,0,0,1.6-.53l.41,1.41a4.32,4.32,0,0,1-2.49.67c-1.6,0-2.47-1-2.47-2.72V5.46H43.23V3.91h2.24v-2l2-.9Z"/><path class="cls-3" d="M66.26,8.61a4.84,4.84,0,1,1-9.68,0,4.84,4.84,0,1,1,9.68,0Zm-7.63,0c0,2,1.13,3.37,2.8,3.37s2.78-1.37,2.78-3.37S63,5.23,61.43,5.23,58.63,6.66,58.63,8.6Z"/><path class="cls-3" d="M75.07,6.53c.58-1.95,1.57-2.86,3.14-2.86a2.85,2.85,0,0,1,1.3.27L79,5.76a2.74,2.74,0,0,0-1-.16c-1.46,0-2.53,1.2-2.85,3.17v4.58h-2V3.91h1.93L75,6.53Z"/><path class="cls-3" d="M86.93,3.91l2,5.89.14.41c.08.24.16.5.26.74s.11.35.21.62h0l0-.05c.32-.81.37-.94.62-1.68l2-5.93h2.23L90.23,14.52C89.52,16.28,88.48,17,86.42,17h-.69l-.55-1.57h.92c1.23,0,1.77-.27,2.06-1l.34-.87L84.61,3.91Z"/><path class="cls-4" d="M19.54,52.61v4.8H3.5v-4.8Z"/><path class="cls-4" d="M71.19,49H47.57V46.13a46.6,46.6,0,0,1-8.88,4.75l-3-4.27c8.74-3.17,16.18-9,20.12-15.84h5.76c5,6.24,10.85,10.17,20.69,13.87l-2.5,4.65a80.87,80.87,0,0,1-8.54-4.17ZM57,59.28A92.4,92.4,0,0,1,50.35,69.7l.92,0c3.6-.19,12.72-.91,17.61-1.44a72.29,72.29,0,0,0-5.37-5.43l4.41-2.54A92.43,92.43,0,0,1,80.07,73l-4.71,3.31C73.78,74.16,73,73.2,72,71.86c-8.41,1.34-20.6,2.64-31.5,3.36l-1.68-5c1.83-.05,2-.05,3.12-.1l2.6-.14a80.68,80.68,0,0,0,6-10.66H37.06V54.67h44v4.61ZM70.23,44.54A49.22,49.22,0,0,1,58.8,35.09a39.88,39.88,0,0,1-9,9.45Z"/><path class="cls-4" d="M105.12,40.7a55.65,55.65,0,0,1-7,10.76,57.42,57.42,0,0,1,8.26,6.14l-2.88,4.61a79.8,79.8,0,0,0-5.86-5.62V76.37H92.69v-19l-.39.38a52.52,52.52,0,0,1-5.61,4.71l-3-4.28c5.57-3.64,11.72-10,14.6-15.07h-13v-4.7h7.29V30.77h5v7.68h5.23Zm8.93-9.93h5.19V44.21h9.93v4.7h-9.93v21h10.65v4.8H102.34v-4.8h11.71v-21h-9.74v-4.7h9.74Z"/><path class="cls-4" d="M139.87,54.62a45.47,45.47,0,0,0-8-7.15l3.45-3.89a38.19,38.19,0,0,1,8.26,7Zm-7.73,17.43a66.81,66.81,0,0,0,8.93-15l4,3.55a75.63,75.63,0,0,1-8.4,15.56Zm10.37-30a45.45,45.45,0,0,0-7.82-7.11l3.36-3.74a34,34,0,0,1,8,6.77Zm2.12,7.1c4.41-4.32,7.58-10.32,9.4-17.81L159,32.78a41.38,41.38,0,0,1-10.56,20.35Zm29.28,27.27h-5.28V73.68H153.75v2.69h-5.24V53.9h25.4Zm-20.16-7.25h14.88V58.42H153.75Zm20.16-16.37a54.63,54.63,0,0,1-12-20.06l4.85-1.92A49.84,49.84,0,0,0,177.8,48.53Z"/><path class="cls-4" d="M205.49,49.05h15.07V60.77H205.49v3.07h20.35v4.32H205.49v8.21h-5.18V68.16H180.24V63.84h20.07V60.77H185.52V49.05h14.79v-3h-8.5V39.84h-10V35.61h10V30.77h5.09v4.84h11.95V30.77H214v4.84h10.27v4.23H214v6.24h-8.55Zm-14.83,3.84v3.94h9.65V52.89Zm6.24-13v2.78h11.95V39.84Zm8.59,17h9.94V52.89h-9.94Z"/></g></g></svg>