<svg xmlns="http://www.w3.org/2000/svg" viewBox="0 0 225.17 76.27"><defs><style>.cls-1{fill:none;stroke:#bebebe;stroke-miterlimit:10;}.cls-2{fill:#b90f52;}.cls-3{fill:#bdbdbd;}.cls-4{fill:#182b7b;}</style></defs><title>com-03_1</title><g id="Layer_2" data-name="Layer 2"><g id="デザイン"><line class="cls-1" y1="19.99" x2="180" y2="19.99"/></g><g id="テキスト"><path class="cls-2" d="M11.11,0V1.83H6.67V13H4.58V1.83H.13V0Z"/><path class="cls-3" d="M26.42,8.23a4.69,4.69,0,0,1-4.83,5,4.69,4.69,0,0,1-4.85-5,4.72,4.72,0,0,1,4.85-5A4.72,4.72,0,0,1,26.42,8.23Zm-7.64,0c0,2,1.14,3.38,2.81,3.38s2.78-1.38,2.78-3.38S23.2,4.85,21.59,4.85,18.78,6.27,18.78,8.21Z"/><path class="cls-3" d="M35.39,5a3.54,3.54,0,0,1,3.09-1.64c2.58,0,4.37,2,4.37,4.95s-1.76,4.9-4.42,4.9a3.72,3.72,0,0,1-3-1.62v5h-2v-13h2Zm0,4.64a3,3,0,0,0,2.63,2c1.65,0,2.75-1.33,2.75-3.33S39.67,4.88,38,4.88a3.08,3.08,0,0,0-2.63,1.86Z"/><path class="cls-3" d="M51.58,5.23a2.91,2.91,0,0,1,2.58-1.88,2.58,2.58,0,0,1,2.69,2.08,3.14,3.14,0,0,1,2.72-2.08,2.75,2.75,0,0,1,2.29,1.08,4.16,4.16,0,0,1,.67,2.65V13H60.64V7.3c0-1.43-.57-2.27-1.56-2.27s-1.72,1-2,2.21V13H55.19V7.22c0-1.39-.58-2.19-1.57-2.19s-1.72.94-2,2.35V13H49.71V3.52h1.87Z"/><path class="cls-3" d="M71.57,8.58a2.84,2.84,0,0,0,3,3,3.76,3.76,0,0,0,3-1.43l1.1,1.28a5.44,5.44,0,0,1-4.27,1.81,4.61,4.61,0,0,1-4.93-4.93c0-3,2-5.07,4.74-5.07A4.43,4.43,0,0,1,78.68,8v.58Zm5-1.42a2.36,2.36,0,0,0-2.44-2.39A2.63,2.63,0,0,0,71.6,7.16Z"/><path class="cls-3" d="M86.16,10.56a5.32,5.32,0,0,0,3.23,1.06c1.22,0,1.86-.4,1.86-1.17S90.72,9.38,89.35,9l-.84-.24c-2-.56-2.75-1.36-2.75-2.77,0-1.62,1.44-2.72,3.55-2.72A5.88,5.88,0,0,1,93,4.37L92.15,5.7a4.71,4.71,0,0,0-2.8-.88c-.95,0-1.57.45-1.57,1.13a.89.89,0,0,0,.49.77,4.63,4.63,0,0,0,1.08.42l.23.08.93.3c2,.66,2.84,1.48,2.84,2.85,0,1.83-1.44,2.88-3.91,2.88a6.28,6.28,0,0,1-4.16-1.33Z"/><path class="cls-3" d="M100.61,10.56a5.32,5.32,0,0,0,3.23,1.06c1.22,0,1.86-.4,1.86-1.17s-.53-1.07-1.91-1.47L103,8.74c-2-.56-2.75-1.36-2.75-2.77,0-1.62,1.44-2.72,3.55-2.72a5.9,5.9,0,0,1,3.73,1.12l-.9,1.33a4.66,4.66,0,0,0-2.8-.88c-.94,0-1.57.45-1.57,1.13a.9.9,0,0,0,.5.77,4.67,4.67,0,0,0,1.07.42l.24.08.93.3c2,.66,2.83,1.48,2.83,2.85,0,1.83-1.44,2.88-3.9,2.88a6.28,6.28,0,0,1-4.16-1.33Z"/><path class="cls-3" d="M120.82,6.69c0-1.2-.77-1.84-2.23-1.84a5,5,0,0,0-3.09,1l-.84-1.29a7,7,0,0,1,4-1.28c2.66,0,4,1.26,4,3.71v3.15a6.57,6.57,0,0,0,.54,2.84h-1.77a6.46,6.46,0,0,1-.45-1.59H121a4.19,4.19,0,0,1-1.35,1.33,4,4,0,0,1-2.11.51,3,3,0,0,1-3.25-3c0-2.09,1.82-3.21,5.27-3.21h1.31ZM120,8.34c-2.55,0-3.7.56-3.7,1.81,0,.89.7,1.49,1.76,1.49a2.7,2.7,0,0,0,2.75-2.52V8.34Z"/><path class="cls-3" d="M138.82,12.08a4.42,4.42,0,0,1-1.15,3.4,5,5,0,0,1-3.29,1.07,6.15,6.15,0,0,1-4.3-1.44l.91-1.34A4.93,4.93,0,0,0,134.37,15a2.31,2.31,0,0,0,2.54-2.48V11.16a3.63,3.63,0,0,1-2.85,1.39c-2.54,0-4.24-1.84-4.24-4.59S131.6,3.3,134,3.3a3.77,3.77,0,0,1,3,1.29l.32-1h1.47Zm-1.91-5.85a3,3,0,0,0-2.61-1.38c-1.48,0-2.57,1.31-2.57,3.09s1.09,3.12,2.62,3.12a2.83,2.83,0,0,0,2.56-1.44Z"/><path class="cls-3" d="M148,8.58a2.84,2.84,0,0,0,3,3,3.73,3.73,0,0,0,3-1.43l1.1,1.28a5.43,5.43,0,0,1-4.27,1.81,4.62,4.62,0,0,1-4.93-4.93c0-3,1.95-5.07,4.74-5.07A4.42,4.42,0,0,1,155.06,8v.58Zm5-1.42a2.36,2.36,0,0,0-2.45-2.39A2.63,2.63,0,0,0,148,7.16Z"/><path class="cls-4" d="M19.54,52.22V57H3.5v-4.8Z"/><path class="cls-4" d="M48,76H42.72V52.27a66.22,66.22,0,0,1-4.13,5.43L35.9,52.56C40.7,47.09,44.45,40,47.76,30.09l5,1.4A94,94,0,0,1,48,43.29Zm2.4-26.31-.48-4.8,11-.77a133.83,133.83,0,0,1-.63-13.73h5.19a108.52,108.52,0,0,0,.76,13.35l15-1.11.29,4.8L66.87,48.48C68.21,55.92,69.7,60.77,72,65c1.25,2.26,3.08,4.51,3.7,4.51s1.2-3.17,1.44-7.73l4.66,2.6C81.17,72.29,79.59,76,76.8,76c-2.59,0-5.8-2.54-8.21-6.48-3.31-5.33-5.76-12.43-7.1-20.69Zm23.86-8.21a52.48,52.48,0,0,0-5.76-8.35l3.84-2.35a58.76,58.76,0,0,1,6,8.16Z"/><path class="cls-4" d="M114.24,70.37a157,157,0,0,1-22.61,5.9l-1.73-4.7c2.07-.29,2.74-.43,6.1-1.06V61.92a68,68,0,0,1-9.65,3.94l-2.69-4.18c7-1.82,13.16-4.61,17.24-7.78H84.14V49.82h20.07V46.27H89V42.33h15.17V39H86.64V35h17.57V30.38h5.14V35h18.09v4H109.35v3.31H125v3.94H109.35v3.55h20.59V53.9h-5.57l3.46,2.4A57,57,0,0,1,119,63l-.76.48a33.18,33.18,0,0,0,11.95,6.67l-3.17,4.75a36.4,36.4,0,0,1-13.15-8.74Zm-13-1c3.74-.82,8.83-2.16,12.67-3.31A33.84,33.84,0,0,1,106.8,54a30.48,30.48,0,0,1-5.61,4.9ZM111.6,53.9a26.16,26.16,0,0,0,3.79,6.48,44.62,44.62,0,0,0,7.3-6.48Z"/><path class="cls-4" d="M164.83,57.41h13v4.32H166.13a21.94,21.94,0,0,0,12.15,9.55l-2.93,4.56C169,73,165,69.17,162.82,64c-2,6-6.29,9.7-14.07,12.29l-2.92-4c6.33-1.3,11.18-5.18,13.2-10.51H147.12V57.41h12.67V52.08h-5.47a27.68,27.68,0,0,1-3.45,4.51l-3.6-2.69-.92.39c-1.24.57-2.2,1-3.4,1.44V71.62c0,3.07-1.16,4.22-4.37,4.22a25.28,25.28,0,0,1-4.8-.43l-.92-5a21.36,21.36,0,0,0,3.89.43c1,0,1.2-.19,1.2-1.15V57.55c-1.87.67-3,1-5.09,1.59l-1.29-4.8c2-.48,4-1,6.38-1.68v-9h-5.66V39H138V30.38h5V39h4.17v4.66H143v7.39c1.24-.43,2-.72,2.49-.86s.72-.29,1.54-.63l.38,3.8A26.06,26.06,0,0,0,153,44l-1.35,0c-1.1.05-1.2.05-2.83.1l-1.34-4.56c1.92,0,2.54,0,3.5,0l1.49,0a90.58,90.58,0,0,0,4.94-9.4l5.14,1.05a72,72,0,0,1-4.85,8.21c5.43-.19,5.43-.19,5.66-.24.92,0,1.83,0,5.29-.29-1-1.39-2.17-2.88-3.36-4.27l4.08-2a66,66,0,0,1,8.44,10.9L173.43,46c-.53-.91-.82-1.34-1.2-1.92l-1-1.63-.77.14c-3.65.48-10.42,1.06-16.51,1.35l3.74,1.1c-.48,1.25-.72,1.87-1.15,2.83h18.53v4.23H164.83Z"/><path class="cls-4" d="M186.43,30.38h5V39h5.09v4.66h-5.09v7.68c1.54-.48,2.74-.86,4.81-1.63l.48,4.37c-1.78.72-3.36,1.34-5.29,2.06V71.47c0,3.17-1.2,4.32-4.36,4.32a24.44,24.44,0,0,1-5.09-.48l-.91-5.09a19.54,19.54,0,0,0,4.12.48c1,0,1.25-.28,1.25-1.24V57.84c-2.21.67-3.26,1-5.42,1.58l-1.35-4.84c2.84-.68,4.28-1,6.77-1.73V43.68h-6.05V39h6.05Zm34.85,22.08,2.79,2.16c-5.62,12.1-12.68,18.1-25.44,21.65l-3.08-4c6.39-1.63,11.09-3.7,14.31-6.29a52,52,0,0,0-6.58-4.75,30.39,30.39,0,0,1-5,3.5l-3.31-3.36a27.21,27.21,0,0,0,12-12.53L211.68,50c-.57,1.19-.76,1.58-1.25,2.44Zm-19.39-2.21a62.08,62.08,0,0,0-5.14-10.32,41.55,41.55,0,0,0,5.19-9.69l4.41,1.58a48.83,48.83,0,0,1-4.65,8.07A46.68,46.68,0,0,1,206,47.71Zm9.31-.57a50.33,50.33,0,0,0-5.47-9.89,36.77,36.77,0,0,0,5.19-9.55l4.51,1.63a55.21,55.21,0,0,1-4.56,7.87,45.4,45.4,0,0,1,4.75,7.78Zm-3.31,6.62a24.48,24.48,0,0,1-1.68,2.07,52.89,52.89,0,0,1,7,4.46,26.33,26.33,0,0,0,4.56-6.53ZM215,39.21a48,48,0,0,0,4.94-9l4.61,1.63a53.48,53.48,0,0,1-4.71,7.63,44.93,44.93,0,0,1,5.33,7.59l-4.46,2.49a44.08,44.08,0,0,0-6.05-9.93Z"/></g></g></svg>