<svg xmlns="http://www.w3.org/2000/svg" viewBox="0 0 225.84 77.14"><defs><style>.cls-1{fill:none;stroke:#bebebe;stroke-miterlimit:10;}.cls-2{fill:#b90f52;}.cls-3{fill:#bdbdbd;}.cls-4{fill:#182b7b;}</style></defs><title>com-08</title><g id="Layer_2" data-name="Layer 2"><g id="デザイン"><line class="cls-1" y1="20.71" x2="180" y2="20.71"/></g><g id="テキスト"><path class="cls-2" d="M13.41,7.19c0,4-2.59,6.77-6.34,6.77S.74,11.19.74,7.19,3.36.45,7.07.45,13.41,3.23,13.41,7.19ZM3,7.17c0,3,1.67,5,4.11,5s4.12-2,4.12-5-1.68-5-4.12-5S3,4.23,3,7.17Z"/><path class="cls-3" d="M22.4,4.24V9.78c0,1.55.64,2.38,1.84,2.38A3.2,3.2,0,0,0,27,9.81V4.24h2v9.45h-2v-1.8a4.11,4.11,0,0,1-3.33,2c-2.19,0-3.36-1.31-3.36-3.76V4.24Z"/><path class="cls-3" d="M39.75,4.24h2.91V5.79H39.75v5.09a2.45,2.45,0,0,0,.11,1,.87.87,0,0,0,.83.48,3,3,0,0,0,1.6-.52l.42,1.41a4.46,4.46,0,0,1-2.5.67c-1.6,0-2.47-1-2.47-2.72V5.79H35.5V4.24h2.24v-2l2-.89Z"/><path class="cls-3" d="M51.92,0V11.73c0,.26.11.37.35.37h1.3l-.22,1.59H51.6A1.49,1.49,0,0,1,49.9,12V0Z"/><path class="cls-3" d="M62.58.34v2H60.35v-2Zm-.12,3.9v9.45h-2V4.24Z"/><path class="cls-3" d="M72.45,6a4,4,0,0,1,3.34-1.95c2.1,0,3.3,1.36,3.3,3.72v5.9h-2V8.12c0-1.59-.64-2.37-1.92-2.37a3.32,3.32,0,0,0-2.75,2.32v5.62h-2V4.24h2Z"/><path class="cls-3" d="M88.27,9.3a2.84,2.84,0,0,0,3,3,3.73,3.73,0,0,0,3-1.43l1.1,1.28A5.43,5.43,0,0,1,91.12,14,4.62,4.62,0,0,1,86.19,9c0-3,2-5.07,4.74-5.07a4.42,4.42,0,0,1,4.45,4.75V9.3Zm5-1.42a2.36,2.36,0,0,0-2.45-2.39A2.63,2.63,0,0,0,88.3,7.88Z"/><path class="cls-4" d="M19.54,52.94v4.8H3.5v-4.8Z"/><path class="cls-4" d="M71.19,49.29H47.57V46.46a46,46,0,0,1-8.88,4.75l-3-4.27c8.74-3.17,16.18-9,20.12-15.84h5.76c5,6.24,10.85,10.18,20.69,13.87l-2.5,4.66a78.82,78.82,0,0,1-8.54-4.18ZM57,59.62A92.25,92.25,0,0,1,50.35,70l.92,0c3.6-.19,12.72-.91,17.61-1.44a72.18,72.18,0,0,0-5.37-5.42l4.41-2.54A92.92,92.92,0,0,1,80.07,73.34l-4.71,3.32C73.78,74.5,73,73.54,72,72.19c-8.41,1.35-20.6,2.64-31.5,3.36l-1.68-5,3.12-.09,2.6-.15a80.59,80.59,0,0,0,6-10.65H37.06V55h44v4.61ZM70.23,44.88A49.26,49.26,0,0,1,58.8,35.42a39.92,39.92,0,0,1-9,9.46Z"/><path class="cls-4" d="M105.12,41a55.6,55.6,0,0,1-7,10.75,58.27,58.27,0,0,1,8.26,6.15l-2.88,4.6a79.66,79.66,0,0,0-5.86-5.61V76.71H92.69v-19l-.39.39a51.21,51.21,0,0,1-5.61,4.7l-3-4.27c5.57-3.65,11.72-10,14.6-15.07h-13V38.78h7.29V31.1h5v7.68h5.23Zm8.93-9.94h5.19V44.54h9.93v4.71h-9.93v21h10.65v4.8H102.34v-4.8h11.71v-21h-9.74V44.54h9.74Z"/><path class="cls-4" d="M156.87,57.07a60.35,60.35,0,0,1,4.84,8.4A42,42,0,0,0,167.19,54h-6.58V49.63h2.26V37.34h-1.78V32.93h16.32v4.41h-3a122.48,122.48,0,0,1-1.83,12.29h5.52V54h-6.76c-.2.72-.34,1.15-.72,2.45h1.92V70.51c0,.77.19,1,.91,1,.91,0,1-.53,1.29-6.62l3.65,1.25c-.09,3.88-.48,7-1,8.2-.67,1.54-1.53,1.88-4.46,1.88-3.6,0-4.42-.63-4.42-3.27V61.73a44.06,44.06,0,0,1-11.66,15.41l-3.27-3.56a31.5,31.5,0,0,0,5.28-4.51c-.33-.81-.86-1.87-1.34-2.88a65.08,65.08,0,0,1-12.1,7.92l-1.87-4.7A31.92,31.92,0,0,0,146.74,68V54.62l-2.11,3.94c-.87-1.54-1.59-2.74-2.36-3.84v22h-4.65V56.64a60.23,60.23,0,0,1-4,10.46l-2.21-5.52a57.34,57.34,0,0,0,5.72-16h-5V41h5.52V31.1h4.65V41h3.41V45.6h-3.41v3.84a39.49,39.49,0,0,1,4.47,4.61V32.35h12.62V55.49h-8.45V65.9c1.44-.81,2.5-1.44,4-2.44l.81-.53a37.31,37.31,0,0,0-2.49-3.84Zm-6.05-20.5V42h4.65V36.57Zm0,9.17v5.67h4.65V45.74Zm17.47,3.89a119,119,0,0,0,1.78-12.29H167V49.63Z"/><path class="cls-4" d="M203.14,52.94c-.48.87-1.59,2.6-2.35,3.75h25.05v4.13h-9.6a35.66,35.66,0,0,1-6.43,7.39l1.92.53c4.37,1.24,8.59,2.59,12.63,4.08l-3.08,3.89c-5-2-10.22-3.85-15.65-5.48-5.85,2.93-12.24,4.56-21.79,5.52l-2.5-4.17a63.94,63.94,0,0,0,18.25-3.08c-3.17-.91-8-2.06-12.87-3.07l2.07-2.16c.81-.91,1.63-1.82,3-3.45H180.24V56.69H195l.24-.34.09-.09c.77-1.06,1.25-1.78,2.26-3.32H184.42v-12h10.75V37.2H181.68v-4h42.68v4H210.63v3.69h11v12Zm-13.78-8.45v4.76h5.81V44.49Zm8.4,16.33a42.84,42.84,0,0,1-3.12,3.64c.34.1.39.1,1.06.24,2.25.48,3.26.72,8.69,2.07a28.43,28.43,0,0,0,6-5.95Zm8.11-19.93V37.2H200v3.69ZM200,49.25h5.85V44.49H200Zm10.61,0h6.05V44.49h-6.05Z"/></g></g></svg>