<svg xmlns="http://www.w3.org/2000/svg" viewBox="0 0 33 28"><defs><style>.cls-1{fill:none;stroke:#1b307a;stroke-linecap:round;stroke-linejoin:round;}.cls-2{fill:#1b307a;}.cls-3{fill:#fff;}</style></defs><title>com-19</title><g id="Layer_2" data-name="Layer 2"><g id="デザイン"><rect class="cls-1" x="4" y="21.5" width="5" height="6"/><rect class="cls-1" x="24" y="21.5" width="5" height="6"/><path class="cls-2" d="M4,10v1H1V10H4m.21-1H.79A.79.79,0,0,0,0,9.79v1.42A.79.79,0,0,0,.79,12H4.21A.79.79,0,0,0,5,11.21V9.79A.79.79,0,0,0,4.21,9Z"/><path class="cls-2" d="M32,10v1H29V10h3m.21-1H28.79a.79.79,0,0,0-.79.79v1.42a.79.79,0,0,0,.79.79h3.42a.79.79,0,0,0,.79-.79V9.79A.79.79,0,0,0,32.21,9Z"/><path class="cls-3" d="M3.19,22.5a.69.69,0,0,1-.69-.69v-9a.29.29,0,0,1,.29-.29,1.3,1.3,0,0,0,1.26-1L6.35.73A.3.3,0,0,1,6.64.5H26.36a.3.3,0,0,1,.29.23L29,11.48a1.3,1.3,0,0,0,1.26,1,.29.29,0,0,1,.29.29v9a.69.69,0,0,1-.69.69Z"/><path class="cls-2" d="M6.84.83h0M26.19,1l2.27,10.58A1.8,1.8,0,0,0,30,13v8.82a.18.18,0,0,1-.19.19H3.19A.18.18,0,0,1,3,21.81V13a1.8,1.8,0,0,0,1.54-1.41L6.81,1H26.19m.17-1H6.64a.78.78,0,0,0-.77.62L3.56,11.38a.79.79,0,0,1-.77.62h0a.79.79,0,0,0-.79.79v9A1.19,1.19,0,0,0,3.19,23H29.81A1.19,1.19,0,0,0,31,21.81v-9a.79.79,0,0,0-.79-.79.79.79,0,0,1-.77-.62L27.13.62A.78.78,0,0,0,26.36,0Z"/><path class="cls-2" d="M7.2,14.67a1.24,1.24,0,0,1,1.23,1.27,1.23,1.23,0,0,1-2.46,0V14.67H7.2m0-1H5v2.27A2.23,2.23,0,0,0,7.2,18.17h0a2.23,2.23,0,0,0,2.23-2.23v0A2.23,2.23,0,0,0,7.2,13.67Z"/><path class="cls-2" d="M27.3,14.69v1.23a1.25,1.25,0,0,1-2.5,0A1.23,1.23,0,0,1,26,14.69H27.3m1-1H26a2.24,2.24,0,0,0,0,4.47h0a2.23,2.23,0,0,0,2.23-2.24V13.69Z"/><polygon class="cls-2" points="21.13 18 12.13 18 12.13 20 21.13 20 21.13 18 21.13 18"/><path class="cls-2" d="M10,4.82h0M23.26,5,24,10H9.28L10,5H23.26m.18-1H9.81A.79.79,0,0,0,9,4.68L8.25,10.1A.8.8,0,0,0,9,11H24.21a.8.8,0,0,0,.79-.9l-.78-5.42A.79.79,0,0,0,23.44,4Z"/></g></g></svg>