<svg xmlns="http://www.w3.org/2000/svg" viewBox="0 0 222.92 74.42"><defs><style>.cls-1{fill:none;stroke:#bebebe;stroke-miterlimit:10;}.cls-2{fill:#b90f52;}.cls-3{fill:#bdbdbd;}.cls-4{fill:#182b7b;}</style></defs><title>com-15</title><g id="Layer_2" data-name="Layer 2"><g id="デザイン"><line class="cls-1" y1="20.05" x2="180" y2="20.05"/></g><g id="テキスト"><path class="cls-2" d="M7.51,0l5.1,13H10.34L9,9.48H3.71L2.38,13H.11L5.22,0ZM7.22,4.4C7,3.7,6.5,2.32,6.4,1.89H6.34c-.13.51-.5,1.63-.82,2.51L4.27,7.81H8.45Z"/><path class="cls-3" d="M27.32,11.59a4.73,4.73,0,0,1-4,1.73,4.82,4.82,0,0,1-5-5,4.85,4.85,0,0,1,5-5A5.36,5.36,0,0,1,27,4.63L26,6a3.82,3.82,0,0,0-2.67-1c-1.78,0-3,1.38-3,3.38a3.1,3.1,0,0,0,3,3.33,3.36,3.36,0,0,0,2.76-1.27Z"/><path class="cls-3" d="M42.39,11.59a4.72,4.72,0,0,1-4,1.73,4.82,4.82,0,0,1-5-5,4.86,4.86,0,0,1,5-5,5.35,5.35,0,0,1,3.69,1.32L41.09,6a3.81,3.81,0,0,0-2.67-1c-1.78,0-3,1.38-3,3.38a3.1,3.1,0,0,0,3,3.33,3.36,3.36,0,0,0,2.75-1.27Z"/><path class="cls-3" d="M50.54,8.64a2.85,2.85,0,0,0,3,3,3.75,3.75,0,0,0,3-1.42l1.11,1.28a5.48,5.48,0,0,1-4.28,1.81,4.62,4.62,0,0,1-4.93-4.93c0-3,2-5.08,4.74-5.08a4.43,4.43,0,0,1,4.45,4.76v.57Zm5-1.42a2.37,2.37,0,0,0-2.45-2.39,2.63,2.63,0,0,0-2.54,2.39Z"/><path class="cls-3" d="M65.14,10.63a5.35,5.35,0,0,0,3.23,1c1.22,0,1.86-.4,1.86-1.16S69.7,9.44,68.32,9l-.83-.24c-2-.56-2.75-1.36-2.75-2.77,0-1.61,1.44-2.72,3.55-2.72A5.9,5.9,0,0,1,72,4.43l-.9,1.33a4.66,4.66,0,0,0-2.8-.88c-.94,0-1.57.45-1.57,1.14a.93.93,0,0,0,.5.77,4.88,4.88,0,0,0,1.07.41l.24.08.93.31c2,.65,2.83,1.47,2.83,2.85,0,1.82-1.44,2.88-3.9,2.88A6.33,6.33,0,0,1,64.26,12Z"/><path class="cls-3" d="M79.58,10.63a5.4,5.4,0,0,0,3.24,1c1.21,0,1.85-.4,1.85-1.16S84.15,9.44,82.77,9l-.83-.24C80,8.24,79.18,7.44,79.18,6c0-1.61,1.44-2.72,3.56-2.72a5.92,5.92,0,0,1,3.73,1.12l-.9,1.33a4.66,4.66,0,0,0-2.8-.88c-.94,0-1.57.45-1.57,1.14a.93.93,0,0,0,.5.77,4.65,4.65,0,0,0,1.07.41l.24.08.93.31c2,.65,2.83,1.47,2.83,2.85,0,1.82-1.44,2.88-3.9,2.88A6.38,6.38,0,0,1,78.7,12Z"/><path class="cls-4" d="M19.54,52.29v4.8H3.5v-4.8Z"/><path class="cls-4" d="M76.47,35.25l3,2.54c-2.16,8.69-7.2,14.5-15.26,17.47l-3-4C66.77,49.74,72,44.89,73.3,40H39.74V35.25ZM60.15,45.37v4c0,13.34-2.93,19.25-12,24.24L44.3,69.57c4.52-2.07,6.87-4.23,8.79-8.07,1.15-2.25,1.68-6.09,1.68-12.14v-4Z"/><path class="cls-4" d="M124.66,40.77c-3.36,19-11.33,28.22-29.14,33.65l-2.93-4.76C108,65.78,116,57.47,118.75,42.54H103A39.71,39.71,0,0,1,91.39,54.45l-3.84-3.89a32.91,32.91,0,0,0,14.79-18.72l5.09,1.39a45.28,45.28,0,0,1-1.83,4.51H121Z"/><path class="cls-4" d="M149.71,31.93V43l22.52-3,2.93,2.93c-2.79,8.06-7,13.77-12.29,16.94l-4.08-3.4c4.41-2.31,8.54-7.06,9.84-11.29l-18.92,2.74V64.05c0,3.41,1.06,3.84,9.32,3.84a132.29,132.29,0,0,0,13.39-.72V72.5c-4.32.33-8.59.48-13.11.48-6.76,0-10-.24-11.61-.92-2.31-1-3.36-3-3.36-6.52V48.64l-9.84,1.44-.53-5,10.37-1.4V31.93Z"/><path class="cls-4" d="M214.42,35.25,217.54,38a81.8,81.8,0,0,1-9.46,17,124.22,124.22,0,0,1,14.84,13.73L219,73.17A159,159,0,0,0,205,59a53.42,53.42,0,0,1-19.44,14.35l-2.83-4.85C194.83,64,205.06,53.73,211,40H186.14V35.25Z"/></g></g></svg>