<svg xmlns="http://www.w3.org/2000/svg" xmlns:xlink="http://www.w3.org/1999/xlink" viewBox="0 0 213.25 30"><defs><style>.cls-1{fill:none;}.cls-2{clip-path:url(#clip-path);}.cls-3{fill:#a4a4a4;}.cls-4{clip-path:url(#clip-path-2);}.cls-5{fill:#b90f52;}.cls-6{fill:#182b7b;}</style><clipPath id="clip-path"><rect class="cls-1" width="30" height="30"/></clipPath><clipPath id="clip-path-2"><circle class="cls-1" cx="15" cy="32.5" r="15"/></clipPath></defs><title>com-01</title><g id="Layer_2" data-name="Layer 2"><g id="ヘッダー_フッター" data-name="ヘッダー・フッター"><g class="cls-2"><path class="cls-3" d="M15,3A12,12,0,1,1,3,15,12,12,0,0,1,15,3m0-3A15,15,0,1,0,30,15,15,15,0,0,0,15,0Z"/><g class="cls-4"><path class="cls-5" d="M15,3A12,12,0,1,1,3,15,12,12,0,0,1,15,3m0-3A15,15,0,1,0,30,15,15,15,0,0,0,15,0Z"/></g></g><path class="cls-6" d="M62.48,23.76A12,12,0,0,1,54,26.82c-6.77,0-11.39-4.76-11.39-11.76S47.3,3.18,53.8,3.18a11.63,11.63,0,0,1,8.06,2.94L60,8.73a8,8,0,0,0-6.11-2.44c-4.28,0-7.33,3.67-7.33,8.79a9.43,9.43,0,0,0,1.62,5.58,7.46,7.46,0,0,0,5.82,3,9.22,9.22,0,0,0,6.7-2.6Z"/><path class="cls-6" d="M88.77,15c0,7-4.54,11.85-11.09,11.85S66.59,22,66.59,15,71.18,3.18,77.68,3.18,88.77,8.06,88.77,15Zm-18.29,0c0,5.18,2.92,8.71,7.2,8.71s7.2-3.53,7.2-8.71-2.94-8.73-7.2-8.73S70.48,9.79,70.48,14.94Z"/><path class="cls-6" d="M99.13,3.66l4.62,10.44a34.46,34.46,0,0,1,1.71,4.71h.11a31.58,31.58,0,0,1,1.7-4.71L111.9,3.66h5.26V26.34h-3.47V14.75c0-2.27.08-6.5.16-8.18h-.11a65.21,65.21,0,0,1-2.55,6.72L107,22.53h-2.91l-4.23-9.24a61.6,61.6,0,0,1-2.55-6.72h-.11c.11,2.33.16,5.13.16,8.18V26.34H93.86V3.66Z"/><path class="cls-6" d="M131.83,3.66a11.72,11.72,0,0,1,5.69,1.2,6.45,6.45,0,0,1,3.33,5.74c0,5-3,7.42-9.19,7.42h-4.25v8.32h-3.59V3.66Zm-4.42,11.45h3.81c4.14,0,5.76-1.23,5.76-4.39a3.79,3.79,0,0,0-1.62-3.25,7.27,7.27,0,0,0-3.75-.79h-4.2Z"/><path class="cls-6" d="M156.89,3.55l8.93,22.79h-4l-2.33-6.22h-9.27l-2.32,6.22h-4l8.94-22.79Zm-.5,7.7c-.45-1.23-1.26-3.64-1.43-4.4h-.11c-.23.9-.87,2.86-1.43,4.4l-2.19,6h7.31Z"/><path class="cls-6" d="M174.87,3.66l7.28,12,.19.3a51,51,0,0,1,2.61,4.9h.11c-.09-1.9-.14-5.37-.14-7.5V3.66h3.5V26.34h-3.59l-8.62-13.89a51.69,51.69,0,0,1-2.74-5.09h-.14c.14,1.87.22,4.9.22,8v11h-3.5V3.66Z"/><path class="cls-6" d="M197,3.66,202.89,13l5.86-9.35h4.5l-8.54,12.43V26.34H201.1V16.09L192.53,3.66Z"/></g></g></svg>