<svg xmlns="http://www.w3.org/2000/svg" viewBox="0 0 702.41 31.65"><title>com-07</title><g id="Layer_2" data-name="Layer 2"><g id="テキスト"><path d="M25.18,28.61a82.75,82.75,0,0,1-11,.8c-4.66,0-9-.66-10.9-1.65C1,26.57,0,25.08,0,22.77A7.89,7.89,0,0,1,2.54,17l2.81,1.85A5.2,5.2,0,0,0,3.8,22.28c0,1.19.66,2,2,2.51a28.62,28.62,0,0,0,8.22.95,68.2,68.2,0,0,0,10.63-.82ZM22.77,3.83v3.5H3.07V3.83Z"/><path d="M58.18,28.61a82.75,82.75,0,0,1-11,.8c-4.66,0-9-.66-10.9-1.65C34,26.57,33,25.08,33,22.77A7.89,7.89,0,0,1,35.54,17l2.81,1.85a5.2,5.2,0,0,0-1.55,3.43c0,1.19.66,2,2,2.51a28.62,28.62,0,0,0,8.22.95,68.2,68.2,0,0,0,10.63-.82ZM55.77,3.83v3.5H36.07V3.83Z"/><path d="M66.2,30.4a87.33,87.33,0,0,1-.63-10.89A106.6,106.6,0,0,1,67,1.88l3.53.36a90.5,90.5,0,0,0-1.32,16.31,83.69,83.69,0,0,0,.69,11.39Zm26.24-2a56.38,56.38,0,0,1-7.66.49c-7.43,0-11.12-2.18-11.12-6.53A7.57,7.57,0,0,1,75,17.86l3,1.35A4.74,4.74,0,0,0,77.22,22c0,2.34,2.38,3.4,7.69,3.4a54.37,54.37,0,0,0,7.16-.5ZM91.35,4.88V8.32H75.87V4.88Z"/><path d="M103.59,11.91h3.2v3.3h-3.2v6.47c.79-.29,1.91-.82,2.84-1.28l.39,3.2a74.41,74.41,0,0,1-10.33,4.55l-1-3.63c1.55-.46,3.47-1.05,4.72-1.52V15.21H96.46v-3.3h3.76V5.38H96.06V2.05h11.09V5.38h-3.56ZM126,18.15h-7.33v3.07h7.62v2.94h-7.62v3.4h8.78v3.13H105.77V27.56h9.6v-3.4h-7.72V21.22h7.72V18.15h-7.19V1.62H126ZM111.28,8.38h4.09V4.52h-4.09Zm0,6.87h4.09v-4h-4.09ZM122.83,4.52h-4.16V8.38h4.16Zm0,6.73h-4.16v4h4.16Z"/><path d="M151.31,10.36h-13.4V8.88a48.54,48.54,0,0,1-7.16,3.66L128.6,9.7c6.27-2.11,10.69-5,14-9.27h3.76c3.3,3.83,7.89,6.53,14.43,8.51l-1.95,3a45.88,45.88,0,0,1-7.49-3.43ZM129,29a21.18,21.18,0,0,0,2.77-7.89l3.46.76a22.53,22.53,0,0,1-2.9,9.18Zm24.85-16.2,1.85,1.58a44.82,44.82,0,0,1-4.92,7.53l-3.07-1.69a27,27,0,0,0,3.3-4.55H133.62V12.81ZM141.27,21V26.7c0,1.35.17,1.42,4.29,1.42,3.44,0,4-.13,4.3-.89a16.87,16.87,0,0,0,.36-3.2l3.5.82c-.1,2.64-.3,3.83-.8,4.75-.72,1.39-1.91,1.62-8.31,1.62-6.08,0-6.87-.33-6.87-2.9V21Zm8.45-13.4a31.37,31.37,0,0,1-5.24-4.29,24.92,24.92,0,0,1-4.69,4.29ZM145.4,25.48a27.8,27.8,0,0,0-4.16-6.07l2.67-1.72a36.93,36.93,0,0,1,4.46,5.88ZM157.64,30a45.42,45.42,0,0,0-4.32-8.18l3.07-1.65A46.16,46.16,0,0,1,160.85,28Z"/><path d="M169.82,7.56c.36-1.95.66-3.53,1.09-6.17L171,.92l3.54.53c-.43,2.61-.73,4.19-1.13,6.11h2c4.92,0,7,2,7,6.6,0,4.82-.89,10.49-2.08,13.13-.89,2-2.18,2.94-4.12,2.94a12.87,12.87,0,0,1-5.71-1.68l.39-3.4a12.85,12.85,0,0,0,4.75,1.48c.76,0,1.13-.33,1.56-1.35a33.4,33.4,0,0,0,1.71-10.86c0-2.87-.72-3.56-3.73-3.56h-2.47a66,66,0,0,1-7.36,19.47l-3.24-1.78a61.94,61.94,0,0,0,7.07-17.69h-6.44V7.56Zm19.64,15.91a50.94,50.94,0,0,0-5.75-13.17l3.14-1.42a55.46,55.46,0,0,1,6.07,13ZM187.08,8a28.1,28.1,0,0,0-3.23-5.81l2.5-.92A31,31,0,0,1,189.62,7Zm4.32-1.39A28.33,28.33,0,0,0,188.2.79L190.58,0a20.7,20.7,0,0,1,3.23,5.51Z"/><path d="M213,4.62c.3,11.29,4.06,17.86,13.43,23.47L224,31.26A27.42,27.42,0,0,1,211.1,14.72l-.13.43c-1.88,7.29-6,12.44-13.27,16.5l-2.51-3.07c9.31-4.65,13.27-11.15,14.2-23.23h-8.25V1.91H213Z"/><path d="M242.09,15.21c-2,3.67-4.16,5.81-5.94,5.81-2.25,0-3.5-3.26-3.5-9a60.42,60.42,0,0,1,1.09-10.17l3.53.53a50.74,50.74,0,0,0-1.06,9.21c0,3.33.27,5.08.73,5.08s1.91-1.85,3.1-4.19Zm-2.44,12.61c7.49-2.08,10.53-6.2,10.53-14.32a83,83,0,0,0-1-11.62l3.69-.36a81.31,81.31,0,0,1,1.06,12.14c0,9.54-3.34,14.2-12.38,17.2Z"/><path d="M279.41,1.19V5.25h10.14V8.32H279.41v3.83H289v3h-9.57v5A46.55,46.55,0,0,1,290.73,26L288.82,29a49.81,49.81,0,0,0-9.41-5.57c-.23,5-2.34,6.89-7.49,6.89s-8.41-2.17-8.41-5.57c0-3.57,3.43-5.68,9.2-5.68a22.44,22.44,0,0,1,3.14.23V15.18H264.43v-3h11.42V8.32H263.74V5.25h12.11V1.19Zm-3.56,21.15a21.13,21.13,0,0,0-3.66-.39c-3.14,0-5.09,1.05-5.09,2.77s1.85,2.64,4.59,2.64c2.94,0,4.16-1.29,4.16-4.39Z"/><path d="M314.69,1.09V5.54h9.51V8.65h-9.51v6.89a12.29,12.29,0,0,1,.56,3.54c0,3.86-.82,6.63-2.54,8.45-1.91,2-4.46,3.3-8.28,4.06l-1.85-2.74c5.48-1,8.12-2.84,9-6.18a5.29,5.29,0,0,1-4.13,1.89c-3.89,0-6.27-2.55-6.27-6.7A6.6,6.6,0,0,1,308,11a6.06,6.06,0,0,1,3.07.8V8.65H295.15V5.54h15.91V1.09Zm-3.5,16.14a3.13,3.13,0,0,0-3.1-3.3,3.67,3.67,0,0,0-3.4,3.89c0,2.31,1.32,3.83,3.3,3.83,1.82,0,3.2-1.65,3.2-3.83Z"/><path d="M339.41,25.58A5.55,5.55,0,1,1,333.89,20,5.58,5.58,0,0,1,339.41,25.58Zm-8.55,0a3,3,0,1,0,3-3A3,3,0,0,0,330.86,25.58Z"/><path d="M388.18,28.61a82.75,82.75,0,0,1-11.05.8c-4.66,0-9-.66-10.9-1.65-2.27-1.19-3.23-2.68-3.23-5A7.89,7.89,0,0,1,365.54,17l2.81,1.85a5.2,5.2,0,0,0-1.55,3.43c0,1.19.66,2,2,2.51a28.62,28.62,0,0,0,8.22.95,68.2,68.2,0,0,0,10.63-.82ZM385.77,3.83v3.5h-19.7V3.83Z"/><path d="M421.18,28.61a82.75,82.75,0,0,1-11.05.8c-4.66,0-9-.66-10.9-1.65-2.27-1.19-3.23-2.68-3.23-5A7.89,7.89,0,0,1,398.54,17l2.81,1.85a5.2,5.2,0,0,0-1.55,3.43c0,1.19.66,2,2,2.51a28.62,28.62,0,0,0,8.22.95,68.2,68.2,0,0,0,10.63-.82ZM418.77,3.83v3.5h-19.7V3.83Z"/><path d="M429.2,30.4a87.33,87.33,0,0,1-.63-10.89A106.6,106.6,0,0,1,430,1.88l3.53.36a90.5,90.5,0,0,0-1.32,16.31,83.69,83.69,0,0,0,.69,11.39Zm26.24-2a56.38,56.38,0,0,1-7.66.49c-7.43,0-11.12-2.18-11.12-6.53A7.57,7.57,0,0,1,438,17.86l3,1.35a4.74,4.74,0,0,0-.86,2.74c0,2.34,2.38,3.4,7.69,3.4a54.37,54.37,0,0,0,7.16-.5ZM454.35,4.88V8.32H438.87V4.88Z"/><path d="M466.59,11.91h3.2v3.3h-3.2v6.47c.79-.29,1.91-.82,2.84-1.28l.39,3.2a74.41,74.41,0,0,1-10.33,4.55l-1-3.63c1.55-.46,3.47-1.05,4.72-1.52V15.21h-3.76v-3.3h3.76V5.38h-4.16V2.05h11.09V5.38h-3.56ZM489,18.15h-7.33v3.07h7.62v2.94h-7.62v3.4h8.78v3.13H468.77V27.56h9.6v-3.4h-7.72V21.22h7.72V18.15h-7.19V1.62H489ZM474.28,8.38h4.09V4.52h-4.09Zm0,6.87h4.09v-4h-4.09ZM485.83,4.52h-4.16V8.38h4.16Zm0,6.73h-4.16v4h4.16Z"/><path d="M514.31,10.36h-13.4V8.88a48.54,48.54,0,0,1-7.16,3.66L491.6,9.7c6.27-2.11,10.69-5,14-9.27h3.76c3.3,3.83,7.89,6.53,14.43,8.51l-2,3a45.88,45.88,0,0,1-7.49-3.43ZM492,29a21.18,21.18,0,0,0,2.77-7.89l3.46.76a22.53,22.53,0,0,1-2.9,9.18Zm24.85-16.2,1.85,1.58a44.2,44.2,0,0,1-4.92,7.53l-3.07-1.69a27,27,0,0,0,3.3-4.55H496.62V12.81ZM504.27,21V26.7c0,1.35.17,1.42,4.29,1.42,3.44,0,4-.13,4.29-.89a15.85,15.85,0,0,0,.37-3.2l3.5.82c-.1,2.64-.3,3.83-.79,4.75-.73,1.39-1.92,1.62-8.32,1.62-6.08,0-6.87-.33-6.87-2.9V21Zm8.45-13.4a31.37,31.37,0,0,1-5.24-4.29,24.92,24.92,0,0,1-4.69,4.29ZM508.4,25.48a27.8,27.8,0,0,0-4.16-6.07l2.67-1.72a36.93,36.93,0,0,1,4.46,5.88ZM520.64,30a45.42,45.42,0,0,0-4.32-8.18l3.07-1.65A46.16,46.16,0,0,1,523.85,28Z"/><path d="M532.82,7.56c.36-1.95.66-3.53,1.09-6.17L534,.92l3.54.53c-.43,2.61-.73,4.19-1.13,6.11h2c4.92,0,7,2,7,6.6,0,4.82-.89,10.49-2.08,13.13-.89,2-2.18,2.94-4.12,2.94a12.87,12.87,0,0,1-5.71-1.68l.39-3.4a12.85,12.85,0,0,0,4.75,1.48c.76,0,1.13-.33,1.56-1.35a33.4,33.4,0,0,0,1.71-10.86c0-2.87-.72-3.56-3.73-3.56h-2.47a66,66,0,0,1-7.36,19.47l-3.24-1.78a61.94,61.94,0,0,0,7.07-17.69h-6.44V7.56Zm19.64,15.91a50.94,50.94,0,0,0-5.75-13.17l3.14-1.42a55.46,55.46,0,0,1,6.07,13ZM550.08,8a28.1,28.1,0,0,0-3.23-5.81l2.5-.92A31,31,0,0,1,552.62,7Zm4.32-1.39A28.33,28.33,0,0,0,551.2.79L553.58,0a20.7,20.7,0,0,1,3.23,5.51Z"/><path d="M576,4.62c.3,11.29,4.06,17.86,13.43,23.47L587,31.26A27.42,27.42,0,0,1,574.1,14.72l-.13.43c-1.88,7.29-6,12.44-13.27,16.5l-2.51-3.07c9.31-4.65,13.27-11.15,14.2-23.23h-8.25V1.91H576Z"/><path d="M605.09,15.21c-2,3.67-4.16,5.81-5.94,5.81-2.25,0-3.5-3.26-3.5-9a60.42,60.42,0,0,1,1.09-10.17l3.53.53a50.74,50.74,0,0,0-1.06,9.21c0,3.33.27,5.08.73,5.08s1.91-1.85,3.1-4.19Zm-2.44,12.61c7.49-2.08,10.53-6.2,10.53-14.32a83,83,0,0,0-1-11.62l3.69-.36a81.31,81.31,0,0,1,1.06,12.14c0,9.54-3.34,14.2-12.38,17.2Z"/><path d="M642.41,1.19V5.25h10.14V8.32H642.41v3.83H652v3h-9.57v5A46.55,46.55,0,0,1,653.73,26L651.82,29a49.81,49.81,0,0,0-9.41-5.57c-.23,5-2.34,6.89-7.49,6.89s-8.41-2.17-8.41-5.57c0-3.57,3.43-5.68,9.2-5.68a22.44,22.44,0,0,1,3.14.23V15.18H627.43v-3h11.42V8.32H626.74V5.25h12.11V1.19Zm-3.56,21.15a21.13,21.13,0,0,0-3.66-.39c-3.14,0-5.09,1.05-5.09,2.77s1.85,2.64,4.59,2.64c2.94,0,4.16-1.29,4.16-4.39Z"/><path d="M677.69,1.09V5.54h9.51V8.65h-9.51v6.89a12.29,12.29,0,0,1,.56,3.54c0,3.86-.82,6.63-2.54,8.45-1.91,2-4.46,3.3-8.28,4.06l-1.85-2.74c5.48-1,8.12-2.84,9-6.18a5.29,5.29,0,0,1-4.13,1.89c-3.89,0-6.27-2.55-6.27-6.7A6.6,6.6,0,0,1,671,11a6.06,6.06,0,0,1,3.07.8V8.65H658.15V5.54h15.91V1.09Zm-3.5,16.14a3.13,3.13,0,0,0-3.1-3.3,3.67,3.67,0,0,0-3.4,3.89c0,2.31,1.32,3.83,3.3,3.83,1.82,0,3.2-1.65,3.2-3.83Z"/><path d="M702.41,25.58A5.55,5.55,0,1,1,696.89,20,5.58,5.58,0,0,1,702.41,25.58Zm-8.55,0a3,3,0,1,0,3-3A3,3,0,0,0,693.86,25.58Z"/></g></g></svg>