<svg xmlns="http://www.w3.org/2000/svg" viewBox="0 0 27.55 40.5"><defs><style>.cls-1{fill:#1b307a;}.cls-2{fill:none;stroke:#1b307a;stroke-linecap:round;stroke-linejoin:round;}</style></defs><title>com-20</title><g id="Layer_2" data-name="Layer 2"><g id="デザイン"><path class="cls-1" d="M26,1a.32.32,0,0,1,.32.33V29.06a.32.32,0,0,1-.32.33H1.6a.33.33,0,0,1-.33-.33V1.33A.33.33,0,0,1,1.6,1H26m0-1H1.6A1.34,1.34,0,0,0,.27,1.33V29.06A1.33,1.33,0,0,0,1.6,30.39H26a1.32,1.32,0,0,0,1.32-1.33V1.33A1.33,1.33,0,0,0,26,0Z"/><path class="cls-1" d="M19.47,3.23a.06.06,0,0,1,.05.06V4.75a.06.06,0,0,1-.05.06H8.08A.06.06,0,0,1,8,4.75V3.29a.06.06,0,0,1,.06-.06H19.47m0-1H8.08A1.07,1.07,0,0,0,7,3.29V4.75A1.06,1.06,0,0,0,8.08,5.81H19.47a1.05,1.05,0,0,0,1.05-1.06V3.29a1.06,1.06,0,0,0-1.05-1.06Z"/><path class="cls-1" d="M22.62,9a.06.06,0,0,1,.05.06v7.72a.06.06,0,0,1-.05.06H4.93a.06.06,0,0,1,0-.06V9.1a.06.06,0,0,1,0-.06H22.62m0-1H4.93a1.06,1.06,0,0,0-1,1.06v7.72a1.06,1.06,0,0,0,1,1.06H22.62a1.06,1.06,0,0,0,1.05-1.06V9.1A1.06,1.06,0,0,0,22.62,8Z"/><path class="cls-1" d="M6.37,24.69A1.23,1.23,0,0,1,7.6,25.92a1.25,1.25,0,0,1-2.5,0,1.23,1.23,0,0,1,1.23-1.23h0m0-1h0a2.24,2.24,0,0,0,0,4.47h0a2.24,2.24,0,0,0,0-4.47Z"/><path class="cls-1" d="M21.22,24.69a1.23,1.23,0,0,1,1.23,1.23,1.25,1.25,0,0,1-2.5,0,1.23,1.23,0,0,1,1.23-1.23h0m0-1h0a2.24,2.24,0,0,0,0,4.47h0a2.24,2.24,0,0,0,0-4.47Z"/><line class="cls-2" x1="0.5" y1="40" x2="8.15" y2="30.17"/><line class="cls-2" x1="27.05" y1="40" x2="19.4" y2="30.17"/><line class="cls-2" x1="5.45" y1="33.3" x2="22.1" y2="33.3"/></g></g></svg>