<svg xmlns="http://www.w3.org/2000/svg" viewBox="0 0 733 242.7"><defs><style>.cls-1{fill:none;stroke:#000;stroke-miterlimit:10;}</style></defs><title>contact_img01</title><g id="Layer_2" data-name="Layer 2"><g id="デザイン"><line class="cls-1" y1="10.7" x2="320" y2="10.7"/><line class="cls-1" x1="413" y1="11.2" x2="733" y2="11.2"/><line class="cls-1" y1="192.7" x2="320" y2="192.7"/><line class="cls-1" x1="413" y1="193.2" x2="733" y2="193.2"/></g><g id="テキスト"><path d="M142.79,68.71c0,14.62-6.72,23.64-17.64,23.64s-17.64-9-17.64-23.64,6.72-23.63,17.64-23.63S142.79,54.1,142.79,68.71Zm-27.66,0c0,10.81,3.86,17.48,10,17.48s10-6.67,10-17.48-3.81-17.63-10-17.63S115.13,57.85,115.13,68.71Z"/><path d="M185.8,46V52.2H164.74l-1.45,13.32h.22c2.41-2.24,5.83-3.41,9.91-3.41,9,0,15.24,6,15.24,14.67,0,9.13-7.12,15.57-17.2,15.57a23.5,23.5,0,0,1-16.57-6l4.25-4.82a18.64,18.64,0,0,0,12.16,4.76A9.37,9.37,0,0,0,181,76.72c0-5.6-3.52-9.07-9.29-9.07-3.7,0-7.56,2-9.24,4.59L156.12,71,158.53,46Z"/><path d="M209.21,67.65A12.79,12.79,0,0,1,220.07,62c8.91,0,15.4,6.16,15.4,14.56,0,9.23-6.66,15.79-16,15.79-10.76,0-18-8.35-18-20.72a27.29,27.29,0,0,1,6.78-17.47,32.92,32.92,0,0,1,18-10.59L229,49.12c-11.37,3.36-18.37,9.8-20,18.53Zm.5,8.85a9.85,9.85,0,0,0,9.52,9.86c5.1,0,8.79-4,8.79-9.58s-3.58-9.35-9-9.35C214.14,67.43,209.71,71.74,209.71,76.5Z"/><path d="M248.35,85.46c1.57-5.71,6.39-11.31,14-16.18l1.4-.9c7.62-4.87,9.41-6.89,9.41-10.59,0-3.91-3.53-6.66-8.46-6.66-4.7,0-8,1.62-11.53,5.71l-4.65-4c4.2-5.26,9.41-7.73,16.52-7.73,9.07,0,15.9,5.44,15.9,12.66a11.12,11.12,0,0,1-3.13,8.4c-1.51,1.62-2.86,2.57-8.07,5.82l-1,.62-1.8,1.12c-6.72,4.14-10.36,7.84-11,11.2H281.5v6.5H248.35Z"/><path d="M312.81,67.59V73.2H294.1V67.59Z"/><path d="M350.78,70.4a13.45,13.45,0,0,1-11.37,6.21c-9.07,0-15.29-6.21-15.29-15.29A16.62,16.62,0,0,1,329,49.84a16.27,16.27,0,0,1,11.71-4.76c10.75,0,17.41,8,17.41,20.84,0,17.3-7.67,25.25-26.37,27.27l-3-5.77c13.61-.73,20.44-5.94,22.29-17Zm-19.21-9.47c0,6.16,3.53,10.19,8.9,10.19a9.19,9.19,0,0,0,6.83-3.19,12.15,12.15,0,0,0,2.64-6.61,11.12,11.12,0,0,0-4.2-8.84,8.39,8.39,0,0,0-5.16-1.57C335.6,50.91,331.57,55.44,331.57,60.93Z"/><path d="M379,67.65A12.79,12.79,0,0,1,389.86,62c8.91,0,15.4,6.16,15.4,14.56,0,9.23-6.66,15.79-16,15.79-10.75,0-18-8.35-18-20.72a27.29,27.29,0,0,1,6.78-17.47,32.92,32.92,0,0,1,18-10.59l2.69,5.55c-11.37,3.36-18.37,9.8-20,18.53Zm.5,8.85A9.85,9.85,0,0,0,389,86.36c5.1,0,8.8-4,8.8-9.58s-3.59-9.35-9-9.35C383.93,67.43,379.5,71.74,379.5,76.5Z"/><path d="M435.9,67.59V73.2H417.19V67.59Z"/><path d="M447.82,85.46c1.57-5.71,6.39-11.31,14-16.18l1.4-.9c7.62-4.87,9.41-6.89,9.41-10.59,0-3.91-3.53-6.66-8.46-6.66-4.7,0-8,1.62-11.53,5.71l-4.65-4c4.2-5.26,9.41-7.73,16.52-7.73,9.07,0,15.91,5.44,15.91,12.66a11.13,11.13,0,0,1-3.14,8.4c-1.51,1.62-2.86,2.57-8.07,5.82l-1,.62-1.79,1.12c-6.72,4.14-10.37,7.84-11,11.2H481v6.5H447.82Z"/><path d="M504.38,68.21c-6.1-2.35-9.13-6-9.13-11.09,0-7,6.78-12.09,16.13-12.09s15.91,4.87,15.91,11.87c0,5-3.76,9.24-9.69,10.86v.17a16.64,16.64,0,0,1,7.11,3.64,11.33,11.33,0,0,1,4,8.35c0,7.44-6.94,12.43-17.36,12.43-10.69,0-17.41-4.76-17.41-12.27,0-5.32,3.69-9.46,10.41-11.7Zm-2.63,11.2c0,4.42,3.75,7.22,9.63,7.22,5.6,0,9.41-3,9.41-7.39,0-2.29-1.23-4.25-3.75-5.88a16.42,16.42,0,0,0-4.26-2c-.5-.17-1.73-.45-1.79-.45C505.33,72.36,501.75,75.66,501.75,79.41Zm18.14-21.84c0-4.2-3.52-7.17-8.51-7.17s-8.57,2.92-8.57,7a5.57,5.57,0,0,0,2,4.71,13.75,13.75,0,0,0,3.19,2,18.31,18.31,0,0,0,3.42,1.17C516.65,64,519.89,61,519.89,57.57Z"/><path d="M551.09,68.21c-6.11-2.35-9.13-6-9.13-11.09,0-7,6.77-12.09,16.13-12.09S574,49.9,574,56.9c0,5-3.75,9.24-9.69,10.86v.17a16.58,16.58,0,0,1,7.11,3.64,11.34,11.34,0,0,1,4,8.35c0,7.44-7,12.43-17.36,12.43-10.7,0-17.42-4.76-17.42-12.27,0-5.32,3.7-9.46,10.42-11.7Zm-2.64,11.2c0,4.42,3.76,7.22,9.64,7.22,5.6,0,9.4-3,9.4-7.39,0-2.29-1.23-4.25-3.75-5.88a16.5,16.5,0,0,0-4.25-2c-.51-.17-1.74-.45-1.8-.45C552,72.36,548.45,75.66,548.45,79.41ZM566.6,57.57c0-4.2-3.53-7.17-8.51-7.17s-8.57,2.92-8.57,7a5.57,5.57,0,0,0,2,4.71,13.62,13.62,0,0,0,3.2,2,18.28,18.28,0,0,0,3.41,1.17C563.35,64,566.6,61,566.6,57.57Z"/><path d="M602.21,52.92A78.16,78.16,0,0,1,591.41,56l-1.52-5.82c5.16-1.12,11.54-3.3,14.23-5h5.43V91.4h-7.34Z"/><path d="M220.21,119v-2.84h-6.09v3.61h-1.34v-3.61H207V119h-1.22v-3.75h7v-1.13h-5.89v-.94h13.22v.94h-6v1.13h7.34V119Zm-12.11,6.81v.75h-1.25v-6.09h13.41v5.34h-6.12v.77a.73.73,0,0,0,.17.51.87.87,0,0,0,.51.23c.22,0,.57.06,1.06.08s1,0,1.48,0,1.2,0,1.85,0l1.22-.08a.9.9,0,0,0,.44-.18.93.93,0,0,0,.28-.44,10.2,10.2,0,0,0,.13-1.83l1.16.17v2a1.2,1.2,0,0,1-.18.65,1.38,1.38,0,0,1-.45.45,2.23,2.23,0,0,1-.58.24,12.9,12.9,0,0,1-1.69.11c-.92,0-1.78,0-2.57,0a25.31,25.31,0,0,1-2.92-.1,1.54,1.54,0,0,1-1-.46,1.5,1.5,0,0,1-.3-1v-1.12Zm.05-3.08h4.61v-1.38h-4.61Zm4.61.84h-4.61v1.34h4.61Zm-4.54-5.73v-.75h3.22v.75Zm0,1.67v-.75h3.22v.75Zm5.9,3.22H219v-1.38h-4.83Zm4.83.84h-4.83v1.34H219Zm-3.47-5.73v-.75h3.43v.75Zm0,1.67v-.75h3.43v.75Z"/><path d="M225.48,116.73v-1h6v1Zm1.69,11.11v.64h-1.28V123h5v4.87Zm-1.06-13.53v-1H231v1Zm0,4.84v-1h4.75v1Zm0,2.36v-1h4.75v1Zm3.52,2.44h-2.48v2.92h2.48Zm9.93,3.78h-5.69v.68h-1.37v-6.83H236v-2.94h-4.19v-1.08H236V114.9c-1,.11-2.16.2-3.41.29l-.3-1.07a37.15,37.15,0,0,0,8.19-1.19l.62,1a28.33,28.33,0,0,1-3.69.76v2.84h4.32v1.08h-4.32v2.94h3.55v6.83h-1.36Zm-5.69-1h5.69v-4.06h-5.69Z"/><path d="M253.59,126.23a20.37,20.37,0,0,1-7.78,2.36l-.33-1a23,23,0,0,0,6.91-2,12.21,12.21,0,0,1-3.64-3.55l1-.49h-2v-1.1h10.6l.66.56a13.19,13.19,0,0,1-4.14,4.54,22.06,22.06,0,0,0,6.49,1.85l-.61,1.13A21.81,21.81,0,0,1,253.59,126.23Zm-5.07-8.65c-.48-1.06-.83-1.77-1-2.13l1.23-.44c.48.91.89,1.77,1.24,2.57h3.18s-.4-.87-1.15-2.46l1.27-.37c.32.68.75,1.62,1.29,2.83h2.22a22.32,22.32,0,0,0,1.61-3.11l1.42.41a31.15,31.15,0,0,1-1.64,2.7h3.21V121H260v-2.42H246.79V121H245.5v-3.43Zm-2.45-2.87-.22-1.1q2.73.06,7.35-.23a61.15,61.15,0,0,0,6.59-.67l.51,1.14q-1.67.24-6.91.55t-7.21.31Zm7.48,10.09a10.2,10.2,0,0,0,3.48-3.31h-7.11A11.37,11.37,0,0,0,253.55,124.8Z"/><path d="M267.63,128.65v-9.39a20.62,20.62,0,0,1-2.07,2.89l-.92-.71a26.06,26.06,0,0,0,2.74-4.4,19.74,19.74,0,0,0,1.7-4.51l1.38.2a25,25,0,0,1-2,5H269v10.87Zm9.75-.24h-2.82l-.22-1.27h2.57c.59,0,.89-.25.89-.75v-8.66h-7.5v-1.11h7.5v-3.93h1.48v3.93h2.31v1.11h-2.31v9.15a1.32,1.32,0,0,1-.55,1.1A2.08,2.08,0,0,1,277.38,128.41Zm-3.61-4.24a28.33,28.33,0,0,0-2.46-4.08l1.21-.64a46,46,0,0,1,2.55,4Z"/><path d="M286.65,125.47v1.18h-1.3V113.54H290v11.93Zm2-10.88h-2v4.18h2Zm-2,5.19v4.64h2v-4.64Zm10.77,8.72h-2.26l-.17-1.26h1.86a.84.84,0,0,0,.55-.21.61.61,0,0,0,.24-.47v-4.08h-6.8V121.4h6.8v-2h-7V118.3h4.48v-2.45h-3.87v-1.09h3.87v-2.19h1.41v2.19h4.13v1.09h-4.13v2.45h4.79v1.08h-2.25v2h1.78v1.08h-1.78v4.69a1.15,1.15,0,0,1-.48,1A1.82,1.82,0,0,1,297.42,128.5Zm-3.77-1.83c-.45-.62-1.21-1.59-2.28-2.92l1.05-.7c.8.89,1.59,1.84,2.37,2.87Z"/><path d="M306.61,119v9.62h-1.32V113.17h6.35V119Zm0-3.38h3.74v-1.5h-3.74Zm3.74.9h-3.74V118h3.74Zm.19,10.62v.42h-1.27v-7.29H316v6.87Zm4.13-4v-1.85h-4.13v1.85Zm-4.13,3h4.13v-2.1h-4.13Zm8.09,2.33h-1.74l-.2-1.2h1.63a.64.64,0,0,0,.44-.18.56.56,0,0,0,.19-.4V119h-5.13v-5.85h6.48V127a1.35,1.35,0,0,1-.45,1.07A1.83,1.83,0,0,1,318.63,128.48Zm-3.5-12.84H319v-1.5h-3.82Zm3.82.9h-3.82V118H319Z"/><path d="M365.37,127.57V126h.1a3.9,3.9,0,0,0,1.73.36q4.05,0,4.46-4.71a6.33,6.33,0,0,1-3.23,1.06,4.39,4.39,0,0,1-3.17-1.11,4,4,0,0,1-1.17-3,4.41,4.41,0,0,1,4.54-4.55,4.26,4.26,0,0,1,3.47,1.52,7,7,0,0,1,1.26,4.56,8.71,8.71,0,0,1-1.66,5.67,5.84,5.84,0,0,1-4.77,2A5.1,5.1,0,0,1,365.37,127.57Zm6.29-7,0-.79a5.83,5.83,0,0,0-.79-3.29,2.62,2.62,0,0,0-2.29-1.14,2.66,2.66,0,0,0-2.07.84,3.3,3.3,0,0,0-.77,2.31,3.07,3.07,0,0,0,.71,2.08,3,3,0,0,0,2.36.81A5.76,5.76,0,0,0,371.66,120.56Z"/><path d="M381.08,120h-2v-2.4h2Zm0,7.53h-2v-2.4h2Z"/><path d="M391.34,127.79a3.82,3.82,0,0,1-3.43-1.67,9.69,9.69,0,0,1-1.1-5.21,9.75,9.75,0,0,1,1.1-5.22,4.33,4.33,0,0,1,6.85,0,9.62,9.62,0,0,1,1.11,5.2,9.77,9.77,0,0,1-1.1,5.23A3.81,3.81,0,0,1,391.34,127.79Zm0-12.44a2.34,2.34,0,0,0-2.18,1.19,9.79,9.79,0,0,0-.67,4.37,9.7,9.7,0,0,0,.67,4.34,2.58,2.58,0,0,0,4.36,0,9.77,9.77,0,0,0,.67-4.36,9.71,9.71,0,0,0-.67-4.32A2.29,2.29,0,0,0,391.34,115.35Z"/><path d="M404.32,127.79a3.82,3.82,0,0,1-3.43-1.67,9.6,9.6,0,0,1-1.1-5.21,9.75,9.75,0,0,1,1.1-5.22,4.33,4.33,0,0,1,6.85,0,9.62,9.62,0,0,1,1.11,5.2,9.77,9.77,0,0,1-1.1,5.23A3.81,3.81,0,0,1,404.32,127.79Zm0-12.44a2.34,2.34,0,0,0-2.18,1.19,9.79,9.79,0,0,0-.67,4.37,9.7,9.7,0,0,0,.67,4.34,2.58,2.58,0,0,0,4.36,0,9.77,9.77,0,0,0,.67-4.36,9.71,9.71,0,0,0-.67-4.32A2.29,2.29,0,0,0,404.32,115.35Z"/><path d="M418.4,122.46h-5.48V121h5.48Z"/><path d="M430.8,127.52h-7.05V126.3h2.76v-9.1h-2.76v-1.07a4.5,4.5,0,0,0,2.31-.46,1.81,1.81,0,0,0,.79-1.44h1.24V126.3h2.71Z"/><path d="M444.57,116.11l-5.94,11.41h-1.76l6.31-11.82h-7.56v-1.43h8.95Z"/><path d="M452.24,120h-2v-2.4h2Zm0,7.53h-2v-2.4h2Z"/><path d="M462.51,127.79a3.83,3.83,0,0,1-3.44-1.67,9.69,9.69,0,0,1-1.1-5.21,9.65,9.65,0,0,1,1.11-5.22,4.33,4.33,0,0,1,6.85,0,9.72,9.72,0,0,1,1.1,5.2,9.78,9.78,0,0,1-1.09,5.23A3.83,3.83,0,0,1,462.51,127.79Zm0-12.44a2.33,2.33,0,0,0-2.18,1.19,9.76,9.76,0,0,0-.68,4.37,9.66,9.66,0,0,0,.68,4.34,2.57,2.57,0,0,0,4.35,0,9.74,9.74,0,0,0,.68-4.36,9.86,9.86,0,0,0-.67-4.32A2.3,2.3,0,0,0,462.51,115.35Z"/><path d="M475.49,127.79a3.83,3.83,0,0,1-3.44-1.67,9.69,9.69,0,0,1-1.1-5.21,9.75,9.75,0,0,1,1.1-5.22,4.34,4.34,0,0,1,6.86,0,9.72,9.72,0,0,1,1.1,5.2,9.78,9.78,0,0,1-1.09,5.23A3.83,3.83,0,0,1,475.49,127.79Zm0-12.44a2.33,2.33,0,0,0-2.18,1.19,9.76,9.76,0,0,0-.68,4.37,9.66,9.66,0,0,0,.68,4.34,2.57,2.57,0,0,0,4.35,0,9.77,9.77,0,0,0,.67-4.36,9.89,9.89,0,0,0-.66-4.32A2.3,2.3,0,0,0,475.49,115.35Z"/><path d="M488.14,122.91v-1.14h7.38v-7.08h-6.68v-1.12h14.78v1.12H497v7.08h7.47v1.14H497v5.73h-1.44v-5.73Zm3.75-2c-.66-1.76-1.28-3.26-1.88-4.48l1.33-.48q.72,1.44,1.89,4.5Zm8.72,0-1.19-.38a30.1,30.1,0,0,0,2-4.66l1.43.42A36.71,36.71,0,0,1,500.61,120.94Z"/><path d="M521.07,127.39H511v.88h-1.34v-14.7h12.76v14.7h-1.38Zm0-7.69v-5H511v5Zm-10,6.58h10v-5.51H511Z"/><path d="M360.43,0V2.28h-5.54V16.2h-2.62V2.28h-5.56V0Z"/><path d="M374.57,0V2.18h-8.48v4.6h7.5V8.9h-7.5V14h8.78V16.2H363.53V0Z"/><path d="M381.51,0V13.92h7.72V16.2H378.87V0Z"/><path d="M263.42,242.66c-2.5,0-4.33-.75-5.5-2.27s-1.75-4-1.75-7.31.58-5.74,1.76-7.27,3-2.3,5.49-2.3,4.32.76,5.49,2.29,1.76,3.95,1.76,7.27-.58,5.82-1.75,7.33S265.93,242.66,263.42,242.66Zm0-16.3A2.52,2.52,0,0,0,261,228a13.14,13.14,0,0,0-.74,5.13,12.89,12.89,0,0,0,.76,5.13,2.63,2.63,0,0,0,4.86,0,17.85,17.85,0,0,0,0-10.24A2.52,2.52,0,0,0,263.42,226.36Z"/><path d="M276.21,241.57v-3.5h.4a10,10,0,0,0,5,1.57c2.74,0,4.11-1.11,4.11-3.31a2.43,2.43,0,0,0-1.14-2.16,6,6,0,0,0-3.36-.76,17.53,17.53,0,0,0-3.87.55h-.45V223.88h12.5v3h-8.71v3.77c.93-.06,1.62-.09,2.06-.09a8.05,8.05,0,0,1,5.25,1.5,5.08,5.08,0,0,1,1.81,4.13,5.93,5.93,0,0,1-2.08,4.7,8.34,8.34,0,0,1-5.63,1.78A15.5,15.5,0,0,1,276.21,241.57Z"/><path d="M308,223.82V227h-.36a6.25,6.25,0,0,0-2.79-.57c-3.33,0-5.19,1.75-5.57,5.23a8.74,8.74,0,0,1,4.37-1.44,6.11,6.11,0,0,1,4.35,1.55,5.63,5.63,0,0,1,1.66,4.34,6.17,6.17,0,0,1-2,4.75,7.21,7.21,0,0,1-5.09,1.83,6.84,6.84,0,0,1-5.48-2.2,9.52,9.52,0,0,1-1.9-6.37q0-5.11,2.51-7.84t7.28-2.74A13,13,0,0,1,308,223.82Zm-8.73,9.8v.5c0,.27,0,.48,0,.65q0,5.14,3.35,5.15a2.73,2.73,0,0,0,2.17-1,3.93,3.93,0,0,0,.82-2.67c0-2.24-1.17-3.35-3.5-3.35A6.44,6.44,0,0,0,299.28,233.62Z"/><path d="M328.93,242.27H315.06v-2.89a47,47,0,0,0,7.07-6.18,6.4,6.4,0,0,0,1.82-3.85,2.58,2.58,0,0,0-.88-2.09,3.59,3.59,0,0,0-2.39-.73,8.93,8.93,0,0,0-4.84,1.64h-.3v-3.5a16.16,16.16,0,0,1,5.77-1.16,7.86,7.86,0,0,1,5,1.42,4.83,4.83,0,0,1,1.77,4,7.7,7.7,0,0,1-1.44,4.18q-1.43,2.21-6.67,6.21h8.94Z"/><path d="M342.93,235.71H334v-3.15h8.89Z"/><path d="M349.49,242.37v-3.14h.38a6.71,6.71,0,0,0,2.81.54q5,0,5.58-5.25a8.45,8.45,0,0,1-4.35,1.45,6.18,6.18,0,0,1-4.36-1.53,5.68,5.68,0,0,1-1.66-4.36,6.13,6.13,0,0,1,2-4.73,7.23,7.23,0,0,1,5.14-1.84,6.83,6.83,0,0,1,5.43,2.17q1.91,2.16,1.91,6.35,0,5.11-2.52,7.88t-7.31,2.75A12.16,12.16,0,0,1,349.49,242.37Zm8.79-9.81c0-.08,0-.27,0-.55s0-.49,0-.63q0-5.12-3.32-5.12a2.74,2.74,0,0,0-2.19,1,3.88,3.88,0,0,0-.84,2.65q0,3.36,3.54,3.36A6.72,6.72,0,0,0,358.28,232.56Z"/><path d="M380.46,223.82V227h-.36a6.25,6.25,0,0,0-2.79-.57c-3.33,0-5.18,1.75-5.57,5.23a8.74,8.74,0,0,1,4.37-1.44,6.11,6.11,0,0,1,4.35,1.55,5.63,5.63,0,0,1,1.66,4.34,6.17,6.17,0,0,1-2,4.75,7.21,7.21,0,0,1-5.09,1.83,6.84,6.84,0,0,1-5.48-2.2q-1.89-2.21-1.89-6.37,0-5.11,2.5-7.84c1.68-1.83,4.1-2.74,7.29-2.74A13,13,0,0,1,380.46,223.82Zm-8.73,9.8v.5c0,.27,0,.48,0,.65q0,5.14,3.34,5.15a2.72,2.72,0,0,0,2.17-1,3.93,3.93,0,0,0,.82-2.67c0-2.24-1.17-3.35-3.5-3.35A6.47,6.47,0,0,0,371.73,233.62Z"/><path d="M396,235.71h-8.89v-3.15H396Z"/><path d="M415.57,242.27H401.71v-2.89a48,48,0,0,0,7.07-6.18,6.38,6.38,0,0,0,1.81-3.85,2.6,2.6,0,0,0-.87-2.09,3.6,3.6,0,0,0-2.4-.73,8.88,8.88,0,0,0-4.83,1.64h-.31v-3.5a16.25,16.25,0,0,1,5.78-1.16,7.87,7.87,0,0,1,5,1.42,4.83,4.83,0,0,1,1.76,4,7.77,7.77,0,0,1-1.43,4.18q-1.44,2.21-6.67,6.21h8.93Z"/><path d="M423.91,232.86v-.07a4.66,4.66,0,0,1-3.05-4.36,4.22,4.22,0,0,1,1.9-3.56,8.28,8.28,0,0,1,5-1.4,8.72,8.72,0,0,1,5,1.28,3.93,3.93,0,0,1,1.86,3.39q0,2.76-3.23,4.17v.08c2.47,1,3.71,2.56,3.71,4.77a4.78,4.78,0,0,1-2,4,8.61,8.61,0,0,1-5.36,1.54,8.83,8.83,0,0,1-5.4-1.47,4.61,4.61,0,0,1-2-3.9Q420.36,234.33,423.91,232.86Zm2.16.88a3.8,3.8,0,0,0-1.72,3.13,2.83,2.83,0,0,0,1,2.27,3.76,3.76,0,0,0,2.56.86,3.59,3.59,0,0,0,2.27-.7,2.27,2.27,0,0,0,.92-1.9,2.53,2.53,0,0,0-.22-1.11,2,2,0,0,0-.81-.86,7.83,7.83,0,0,0-1.11-.6C428.63,234.68,427.66,234.32,426.07,233.74Zm4.65-5.24a2,2,0,0,0-.82-1.69,3.34,3.34,0,0,0-2.13-.64,3.52,3.52,0,0,0-2.08.58,1.76,1.76,0,0,0-.83,1.51,2.09,2.09,0,0,0,.89,1.64,12,12,0,0,0,3.55,1.51A3.76,3.76,0,0,0,430.72,228.5Z"/><path d="M443.33,232.86v-.07a4.66,4.66,0,0,1-3.05-4.36,4.22,4.22,0,0,1,1.9-3.56,8.27,8.27,0,0,1,5-1.4,8.73,8.73,0,0,1,5,1.28,3.93,3.93,0,0,1,1.86,3.39q0,2.76-3.24,4.17v.08c2.48,1,3.71,2.56,3.71,4.77a4.77,4.77,0,0,1-2,4,8.61,8.61,0,0,1-5.36,1.54,8.83,8.83,0,0,1-5.4-1.47,4.62,4.62,0,0,1-2-3.9Q439.77,234.33,443.33,232.86Zm2.16.88a3.8,3.8,0,0,0-1.72,3.13,2.83,2.83,0,0,0,1,2.27,3.74,3.74,0,0,0,2.56.86,3.61,3.61,0,0,0,2.27-.7,2.27,2.27,0,0,0,.92-1.9,2.53,2.53,0,0,0-.22-1.11,2,2,0,0,0-.81-.86,7.83,7.83,0,0,0-1.11-.6C448.05,234.68,447.08,234.32,445.49,233.74Zm4.65-5.24a2,2,0,0,0-.82-1.69,3.35,3.35,0,0,0-2.14-.64,3.49,3.49,0,0,0-2.07.58,1.76,1.76,0,0,0-.83,1.51,2.09,2.09,0,0,0,.89,1.64,12,12,0,0,0,3.55,1.51A3.76,3.76,0,0,0,450.14,228.5Z"/><path d="M466.58,242.66c-2.5,0-4.33-.75-5.5-2.27s-1.75-4-1.75-7.31.58-5.74,1.76-7.27,3-2.3,5.49-2.3,4.32.76,5.49,2.29,1.76,3.95,1.76,7.27-.58,5.82-1.75,7.33S469.08,242.66,466.58,242.66Zm0-16.3a2.52,2.52,0,0,0-2.45,1.6,13.14,13.14,0,0,0-.74,5.13,12.71,12.71,0,0,0,.76,5.13,2.63,2.63,0,0,0,4.86,0A18.08,18.08,0,0,0,469,228,2.52,2.52,0,0,0,466.58,226.36Z"/><path d="M356.93,182v2.22h-8.24V189H356v2.12h-7.26v7.08h-2.56V182Z"/><path d="M368.23,181.92l6.38,16.28h-2.84l-1.66-4.44h-6.62l-1.66,4.44H359l6.38-16.28Zm-.36,5.5c-.32-.88-.9-2.6-1-3.14h-.08c-.16.64-.62,2-1,3.14l-1.56,4.26h5.22Z"/><path d="M379.59,182l4.2,6.22L388,182h3.22l-5.8,7.94,6.14,8.26h-3.3l-4.46-6.5-4.46,6.5H376l6.16-8.26L376.37,182Z"/></g></g></svg>