<svg xmlns="http://www.w3.org/2000/svg" xmlns:xlink="http://www.w3.org/1999/xlink" viewBox="0 0 158.1 30"><defs><style>.cls-1{fill:none;}.cls-2{clip-path:url(#clip-path);}.cls-3{fill:#ababab;}.cls-4{clip-path:url(#clip-path-2);}.cls-5{fill:#c00f52;}.cls-6{fill:#182b7b;}</style><clipPath id="clip-path" transform="translate(0 0)"><rect class="cls-1" width="30" height="30"/></clipPath><clipPath id="clip-path-2" transform="translate(0 0)"><circle class="cls-1" cx="15" cy="32.5" r="15"/></clipPath></defs><title>Asset 2</title><g id="Layer_2" data-name="Layer 2"><g id="デザイン"><g class="cls-2"><path class="cls-3" d="M15,3A12,12,0,1,1,3,15,12,12,0,0,1,15,3m0-3A15,15,0,1,0,30,15,15,15,0,0,0,15,0Z" transform="translate(0 0)"/><g class="cls-4"><path class="cls-5" d="M15,3A12,12,0,1,1,3,15,12,12,0,0,1,15,3m0-3A15,15,0,1,0,30,15,15,15,0,0,0,15,0Z" transform="translate(0 0)"/></g></g></g><g id="テキスト"><path class="cls-6" d="M56.34,24.3a8.55,8.55,0,0,1-6.06,2.18c-4.84,0-8.14-3.4-8.14-8.4s3.36-8.48,8-8.48a8.3,8.3,0,0,1,5.76,2.1l-1.36,1.86a5.73,5.73,0,0,0-4.36-1.74c-3.06,0-5.24,2.62-5.24,6.28a6.75,6.75,0,0,0,1.16,4,5.32,5.32,0,0,0,4.16,2.12A6.58,6.58,0,0,0,55,22.34Z" transform="translate(0 0)"/><path class="cls-6" d="M75.12,18c0,5-3.24,8.46-7.92,8.46S59.28,23,59.28,18,62.56,9.6,67.2,9.6,75.12,13.08,75.12,18ZM62.06,18c0,3.7,2.08,6.22,5.14,6.22S72.34,21.7,72.34,18s-2.1-6.24-5.14-6.24S62.06,14.32,62.06,18Z" transform="translate(0 0)"/><path class="cls-6" d="M82.36,9.94l5.2,8.54.14.22a34.47,34.47,0,0,1,1.86,3.5h.08c-.06-1.36-.1-3.84-.1-5.36V9.94H92v16.2H89.48l-6.16-9.92a36.87,36.87,0,0,1-2-3.64h-.1c.1,1.34.16,3.5.16,5.72v7.84h-2.5V9.94Z" transform="translate(0 0)"/><path class="cls-6" d="M108.8,9.94v2.28h-5.54V26.14h-2.62V12.22H95.08V9.94Z" transform="translate(0 0)"/><path class="cls-6" d="M119.34,9.86l6.38,16.28h-2.84l-1.66-4.44H114.6l-1.66,4.44H110.1l6.38-16.28Zm-.36,5.5c-.32-.88-.9-2.6-1-3.14h-.08c-.16.64-.62,2-1,3.14l-1.56,4.26h5.22Z" transform="translate(0 0)"/><path class="cls-6" d="M142.2,24.3a8.55,8.55,0,0,1-6.06,2.18c-4.84,0-8.14-3.4-8.14-8.4s3.36-8.48,8-8.48a8.3,8.3,0,0,1,5.76,2.1l-1.36,1.86A5.73,5.73,0,0,0,136,11.82c-3.06,0-5.24,2.62-5.24,6.28a6.75,6.75,0,0,0,1.16,4,5.32,5.32,0,0,0,4.16,2.12,6.58,6.58,0,0,0,4.78-1.86Z" transform="translate(0 0)"/><path class="cls-6" d="M158.1,9.94v2.28h-5.54V26.14h-2.62V12.22h-5.56V9.94Z" transform="translate(0 0)"/></g></g></svg>