<?xml version="1.0" encoding="utf-8"?>
<!-- Generator: Adobe Illustrator 24.0.0, SVG Export Plug-In . SVG Version: 6.00 Build 0)  -->
<svg version="1.1" id="Layer_1" xmlns="http://www.w3.org/2000/svg" xmlns:xlink="http://www.w3.org/1999/xlink" x="0px" y="0px"
	 viewBox="0 0 294.2 68" style="enable-background:new 0 0 294.2 68;" xml:space="preserve">
<style type="text/css">
	.st0{fill:#FFFFFF;}
	.st1{display:none;fill:#0B2264;}
	.st2{fill:#FFFFFF;stroke:#0B2264;stroke-miterlimit:10;stroke-dasharray:320,5,0,0;}
	.st3{fill:none;stroke:#0B2264;stroke-miterlimit:10;}
	.st4{fill:#0B2264;}
</style>
<title>contact_img02</title>
<g id="Layer_2_1_">
	<g id="デザイン">
		<path class="st0" d="M34.4,1h225.2c18.2,0,33,14.8,33,33l0,0c0,18.2-14.8,33-33,33H34.4c-18.2,0-33-14.8-33-33l0,0
			C1.4,15.8,16.1,1,34.4,1z"/>
		<path class="st1" d="M1.9,35L1.9,35c-0.3,0-0.5,0.2-0.5,0.5v0.7l0,0l0,0l0,0l0,0l0,0v0.1l0,0l0,0l0,0l0,0l0,0l0,0l0,0l0,0l0,0v0.1
			l0,0c0.1,1,0.2,1.9,0.3,2.8l0,0l0,0l0,0l0,0c2.2,13.6,12.5,24.4,26,27.2h0h0.2h0.1h0.2l0,0h0.2l0,0h0.2h0.1h0.1H29h0.2h0.1h0.1
			h0.1h0.1h0.1h0.1h0.1H30h0.4h0.1h228.4c0.3,0,0.5-0.2,0.5-0.5c0-0.3-0.2-0.5-0.5-0.5H34.4C18.9,65.5,5.6,54.5,2.8,39.3v0
			c-0.2-1.2-0.4-2.5-0.4-3.7C2.3,35.2,2.1,35,1.9,35L1.9,35z M259.6,1H21.9l0,0h-0.8h0h-0.9l0,0h-0.1l0,0h-0.3h0h-0.2l0,0h-0.3h0
			h-0.6h0h-0.1h0h-0.2l0,0h-0.1l0,0l0,0l0,0h-0.2l-0.1,0l0,0l0,0l0,0h-0.1h-0.1h-0.1l0,0l0,0h-0.2l0,0l0,0h-0.1h-0.1h-0.1h-0.1H17
			h-0.1h-0.1h-0.1h-0.1h-0.1h-0.1h-0.1l0,0l0,0h-0.1l0,0l0,0h-0.1h-0.1h-0.1h-0.1h-0.2l0,0h-0.1l0,0l0,0h-0.1h-0.1l-0.1,0l0,0l0,0
			l0,0l-0.1,0.1l0,0l0,0l0,0l-0.1,0.1l0,0l0,0l0,0l-0.1,0.1l0,0l-0.1,0.1l0,0L15,1.6l0,0l-0.1,0.1l0,0l0,0l0,0l0,0l0,0L14,8l0,0
			C7.7,13,3.4,20,2,27.8c0,0.3,0.1,0.5,0.4,0.6h0.1c0.2,0,0.4-0.2,0.5-0.4C5.8,12.9,19,2,34.4,2h225.2c17.7,0,32,14.3,32.1,32
			c0,13.7-8.7,25.9-21.6,30.3h0c-1.2,0.4-2.4,0.7-3.6,1c-0.3,0.1-0.4,0.3-0.4,0.6c0.1,0.2,0.2,0.4,0.5,0.4h0.1l1-0.2l0,0h0.1h0.2
			h0.1l0,0c0.6-0.2,1.2-0.3,1.8-0.5h0.1h0.1h0.1h0.1l0,0l0.2-0.1h0c4.8-1.6,9.1-4.4,12.6-7.9l0,0l0.1-0.1l0,0l0.1-0.1l0,0l0.1-0.1
			l0,0l0,0l0,0l0,0l0,0l0,0l0,0l0,0l0,0l0.1-0.1l0,0l0,0l0,0h0.1l0,0l0,0l0,0l0,0l0,0l0,0l0,0l0,0l0,0l0,0l0,0l0,0l0,0l0,0l0,0l0,0
			l0,0l0,0l0,0l0,0l0,0l0,0l0,0l0-0.1l0,0l0,0l0,0l0,0l0,0l0,0l0,0l0,0l0,0l0,0l0,0l0,0h0l0,0l0,0l0,0l0,0l0,0l0,0l0,0l0,0l0,0l0,0
			l0,0h0l0,0h0l0,0h1.3l0,0h0l0,0h0.2l0,0l0,0l0,0h0.1l0,0l0,0l0,0l0,0l0,0l0,0l0,0l0,0l0,0l0,0l0,0l0,0l0,0l0,0l0,0l0,0l0,0l0,0
			l0,0l0,0l0,0l0,0l0,0l0,0l0,0l0,0l0,0l0,0l0,0l0,0l0,0l0,0l0,0l0,0l0,0l0,0l0,0l0,0l0,0l0,0l0,0l0,0l0,0l0,0l0,0l0,0l0,0l0,0l0,0
			l0,0l0,0l0,0l0,0l0,0l0,0l0,0l0,0l0,0l0,0l0,0l0,0l0,0l0,0l0,0l0,0l0,0l0,0h0l0,0l0,0l0,0l0,0l0,0l0,0l0,0l0,0l0,0l0,0l0,0l0,0
			l0,0l0,0l0,0l0,0l0,0l0,0l0,0l0,0l0,0l0,0l0,0l0,0l0,0l0,0l0,0l0,0l0,0l0,0l0,0l0,0l0,0l0,0l0,0l0,0l0,0l0,0l0,0l0,0l0,0l0,0l0,0
			l0,0l0,0l0,0l0,0l0,0l0,0l0,0l0,0l0,0l0,0l0,0l0,0l0,0l0,0l0,0l0,0l0,0l0,0l0,0l0,0l0,0l0,0l0,0l0,0l0,0l0,0l0,0l0,0l0,0l0,0l0,0
			l0,0l0,0l0,0l0,0l0,0l0,0l0,0l0,0l0,0l0,0l0,0l0,0l0,0l0,0l0,0l0,0l0,0l0,0l0,0l0,0l0,0l0,0l0,0l0,0l0,0l0,0l0,0l0,0l0,0l0,0l0,0
			l0,0l0,0l0,0l0,0l0,0l0,0l0,0l0,0l0,0l0,0l0,0l0,0l0,0l0,0l0,0l0,0l0,0l0,0l0,0l0,0l0,0l0,0l0,0l0,0l0,0l0,0l0,0l0,0l0,0l0,0l0,0
			l0,0l0,0v0l0,0l0,0l0,0l0,0l0,0l0,0l0,0l0,0l0,0V57l0,0l0,0l0,0l0,0l0,0l0,0l0,0l0,0l0,0l0,0l0,0l0,0l0,0l0,0l0,0l0,0l0,0l0,0l0,0
			l0,0l0,0l0,0l0,0v-0.1l0,0l0,0l0,0l0,0l0,0l0,0l0,0l0,0l0,0v-0.1l0,0l0,0l0,0l0,0l0,0l0,0l0,0l0,0l0,0l0,0l0,0l0,0l0,0l0,0l0,0v0
			l0,0l0,0l0,0l0,0l0,0l0,0l0,0l0,0l0,0l0,0l0,0l0,0l0,0l0,0l0,0l0,0l0,0v-0.1l0,0l0,0l0,0l0,0l0,0l0,0l0,0l0,0l0,0l0,0l0,0l0,0l0,0
			l0,0l0,0l0,0l0,0l0,0l0,0l0,0l0,0l0,0l0,0l0,0l0,0l0,0l0,0l0,0l0,0l0,0l0,0l0,0l0,0l0,0l0,0l0,0l0,0l0,0l0,0l0,0l0,0l0,0l0,0v-0.1
			l0,0l0,0l0,0v-0.1l0,0l0,0l0,0v-0.1l0,0l0,0l0,0v-0.1l0,0l0,0l0,0v-0.1l0,0l0,0l0,0v-0.1l0,0l0,0l0,0l0,0l0,0l0,0l0,0v-0.1l0,0
			l0,0l0,0l0,0l0,0l0,0l0,0l0,0l0,0v-0.1l0,0l0,0l0,0v-0.1l0,0l0,0l0,0l0,0l0,0l0,0l0,0l0,0l0,0l0,0l0,0v0l0,0l0,0l0,0l0,0l0,0l0,0
			l0,0l0,0l0,0l0,0l0,0l0,0l0,0l0,0l0,0l0,0l0,0l0,0l0,0l0,0l0,0l0,0l0,0l0,0l0,0l0,0l0,0l0,0l0,0l0,0l0,0l0,0l0,0l0,0l0,0l0,0l0,0
			l0,0l0,0l0,0l0,0l0,0l0,0l0,0l0,0l0,0l0,0v0l0,0l0,0l0,0l0,0l0,0l0,0l0,0l0,0l0,0V56l0,0l0,0l0,0l0,0l0,0l0,0l0,0l0,0l0,0v0l0,0
			l0,0l0,0l0,0l0,0l0,0l0,0l0,0l0,0l0,0l0,0l0,0l0,0l0,0l0,0l0,0l0,0l0,0l0,0l0,0l0,0l0,0l0,0l0,0l0,0l0,0l0,0l0,0l0,0l0,0l0,0l0,0
			l0,0l0,0l0,0l0,0l0,0l0,0l0,0v0l0,0l0,0l0,0l0,0l0,0l0,0l0,0l0,0l0,0v0l0,0l0,0l0,0l0,0l0,0l0,0l0,0l0,0l0,0l0,0l0,0v0l0,0l0,0
			l0,0l0,0l0,0v0l0,0l0,0l0,0l0,0l0,0l0,0l0,0l0,0l0,0v-0.1l0,0l0,0l0,0l0,0l0,0l0,0l0,0l0,0l0,0v0l0,0l0,0l0,0l0,0l0,0v0l0,0l0,0
			l0,0l0,0l0,0l0,0l0,0l0,0l0,0v-0.1l0,0l0,0l0,0l0,0l0,0v0l0,0l0,0l0,0v-0.1l0,0l0,0l0,0v-0.1l0,0l0,0l0,0l0,0l0,0l0,0l0,0l0,0l0,0
			l0,0l0,0l0,0l0,0l0,0l0,0l0,0l0,0l0,0l0,0v-0.1l0,0l0,0l0,0l0,0l0,0l0,0l0,0l0,0l0,0v-0.1l0,0l0,0l0,0l0,0l0,0l0,0l0,0l0,0l0,0v0
			l0,0l0,0l0,0l0,0l0,0v-0.1l0,0V55l0,0l0,0l0,0v-0.1l0,0l0,0l0,0v-0.1l0,0l0,0l0,0l0,0l0,0l0,0l0,0l0,0l0,0l0,0l0,0l0,0l0,0l0,0
			l0,0l0,0l0,0l0,0l0,0v-0.1l0,0l0,0l0,0l0,0l0,0l0,0l0,0l0,0l0,0l0,0l0,0l0,0l0,0l0,0l0,0l0,0l0,0l0,0l0,0l0,0l0,0l0,0l0,0l0,0l0,0
			l0,0l0,0l0,0l0,0v0l0,0l0,0l0,0l0,0l0,0v0l0,0l0,0l0,0l0,0l0,0l0,0l0,0l0,0l0,0l0,0l0,0l0,0l0,0l0,0l0,0l0,0l0,0l0,0l0,0l0,0l0,0
			l0,0l0,0l0,0l0,0l0,0l0,0l0,0l0,0l0,0l0,0v0l0,0l0,0l0,0l0,0l0,0v0l0,0l0,0l0,0v0l0,0l0,0l0,0l0,0l0,0l0,0l0,0l0,0l0,0l0,0l0,0
			l0,0l0,0l0,0l0,0l0,0l0,0l0,0l0,0l0,0l0,0l0,0l0,0l0,0l0,0l0,0l0,0l0,0l0,0l0,0l0,0l0,0l0,0l0,0l0,0l0,0l0,0V41.8l0,0l0,0l0,0l0,0
			l0,0l0,0l0,0l0,0l0,0l0,0l0,0l0,0l0,0l0,0l0,0v0l0,0l0,0l0,0l0,0l0,0l0,0l0,0l0,0l0,0l0,0l0,0l0,0l0,0l0,0l0,0l0,0l0,0l0,0l0,0
			l0,0l0,0l0,0l0,0l0,0l0,0l0,0l0,0l0,0l0,0l0,0l0,0l0,0l0,0l0,0l0,0l0,0l0,0l0,0l0,0l0,0l0,0l0,0l0,0v0l0,0l0,0l0,0l0,0l0,0l0,0
			l0,0l0,0l0,0l0,0l0,0l0,0l0,0l0,0l0,0l0,0l0,0l0,0l0,0l0,0l0,0l0,0l0,0l0,0l0,0l0,0l0,0l0,0l0,0l0,0l0,0l0,0l0,0l0,0l0,0l0,0l0,0
			l0,0l0,0l0,0l0,0l0,0l0,0l0,0l0,0l0,0l0,0l0,0l0,0l0,0l0,0l0,0l0,0l0,0l0,0l0,0l0,0l0,0l0,0l0,0l0,0l0,0l0,0l0,0l0,0l0,0l0,0l0,0
			l0,0l0,0l0,0l0,0l0,0l0,0l0,0l0,0l0,0v-1.8l0,0l0,0l0,0l0,0l0,0l0,0l0,0l0,0l0,0l0,0l0,0v0l0,0l0,0l0,0l0,0l0,0v0l0,0l0,0l0,0l0,0
			l0,0l0,0l0,0l0,0l0,0l0,0l0,0v-0.1l0,0l0,0l0,0l0,0l0,0l0,0l0,0l0,0l0,0v0l0,0l0,0l0,0l0,0l0,0l0,0l0,0l0,0l0,0l0,0l0,0l0,0l0,0
			l0,0l0,0l0,0l0,0l0,0l0,0l0,0l0,0l0,0l0,0l0,0l0,0l0,0l0,0l0,0l0,0l0,0l0,0l0,0l0,0l0,0l0,0l0,0l0,0l0,0l0,0l0,0l0,0l0,0l0,0v0
			l0,0l0,0l0,0l0,0l0,0v0l0,0l0,0l0,0l0,0l0,0v0l0,0l0,0l0,0l0,0l0,0l0,0l0,0l0,0l0,0l0,0l0,0l0,0l0,0l0,0l0,0l0,0l0,0l0,0l0,0l0,0
			l0,0l0,0l0,0l0,0l0,0l0,0l0,0l0,0l0,0l0,0l0,0l0,0l0,0l0,0l0,0l0,0l0,0l0,0l0,0l0,0l0,0l0,0l0,0l0,0l0,0l0,0l0,0l0,0l0,0l0,0l0,0
			l0,0l0,0l0,0l0,0l0,0l0,0l0,0l0,0l0,0l0,0l0,0l0,0l0,0l0,0l0,0l0,0l0,0l0,0l0,0l0,0l0,0l0,0l0,0l0,0l0,0l0,0l0,0l0,0l0,0l0,0l0,0
			l0,0l0,0l0,0l0,0l0,0l0,0l0,0l0,0l0,0l0,0l0,0l0,0l0,0l0,0l0,0l0,0l0,0l0,0l0,0l0,0l0,0l0,0l0,0l0,0l0,0l0,0l0,0l0,0l0,0l0,0l0,0
			l0,0l0,0l0,0l0,0l0,0l0,0l0,0l0,0l0,0l0,0l0,0l0,0l0,0l0,0l0,0l0,0l0,0l0,0l0,0l0,0l0,0l0,0l0,0l0,0l0,0l0,0l0,0l0,0l0,0l0,0l0,0
			l0,0l0,0l0,0l0,0l0,0l0,0l0,0l0,0l0,0l0,0l0,0l0,0l0,0l0,0l0,0l0,0l0,0l0,0l0,0l0,0l0,0l0,0l0,0l0,0l0,0l0,0l0,0l0,0l0,0l0,0l0,0
			l0,0l0,0l0,0l0,0l0,0l0,0l0,0l0,0l0,0l0,0l0,0l0,0l0,0l0,0l0,0l0,0l0,0l0,0l0,0l0,0l0,0l0,0l0,0l0,0l0,0l0,0l0,0l0,0l0,0l0,0l0,0
			l0,0l0,0l0,0l0,0l0,0l0,0l0,0l0,0l0,0l0,0l0,0l0,0l0,0l0,0l0,0l0,0l0,0l0,0l0,0l0,0l0,0l0,0l0,0l0,0l0,0l0,0l0,0l0,0l0,0l0,0l0,0
			l0,0l0,0l0,0l0,0l0,0l0,0l0,0l0,0l0,0l0,0l0,0l0,0l0,0l0,0l0,0l0,0l0,0l0,0l0,0l0,0l0,0l0,0l0,0l0,0l0,0l0,0l0,0l0,0l0,0l0,0l0,0
			l0,0l0,0l0,0l0,0l0,0l0,0l0,0l0,0l0,0l0,0l0,0l0,0l0,0l0,0l0,0l0,0l0,0l0,0l0,0l0,0l0,0l0,0l0,0l0,0l0,0
			C288.5,21.8,277.1,4.7,259.6,1z"/>
		<path class="st2" d="M34.9,1h224.6c18.2,0,32.9,14.7,32.9,32.9l0,0c0,18.2-14.7,32.9-32.9,32.9H34.9c-18.2,0-32.9-14.7-32.9-32.9
			l0,0C1.9,15.7,16.7,1,34.9,1z"/>
		<line class="st3" x1="258.6" y1="33.6" x2="269.3" y2="33.6"/>
		<polyline class="st3" points="266.8,36.4 269.6,33.6 266.8,30.9 		"/>
		<path class="st3" d="M264.2,28.9c-2.6-2.7-6.9-2.8-9.6-0.1c-2.7,2.6-2.8,6.9-0.1,9.6c2.6,2.7,6.9,2.8,9.6,0.1c0,0,0.1-0.1,0.1-0.1
			"/>
	</g>
	<g id="テキスト">
		<path class="st4" d="M146,37.1l-0.3,1.7h-0.4h-4.5c-1.4,0-2.9-0.1-4.3-0.3c-0.7-0.2-1.2-0.6-1.6-1.1c-0.7,0.7-1.4,1.2-2.3,1.6
			l-0.7-1.7c0.7-0.3,1.3-0.6,1.9-1.1v-3.6h-1.5v-1.5h3.4v4.7c0,0.2,0.1,0.5,0.2,0.6c0.2,0.2,0.5,0.4,0.8,0.5
			c0.4,0.1,0.9,0.2,1.3,0.2c0.5,0,1.3,0,2.3,0C143,37.2,145,37.2,146,37.1z M135.9,29l-1.8,0.9c-0.3-0.5-0.5-1-0.9-1.4
			c-0.5-0.7-0.8-1.2-1-1.5l1.6-0.9C134.6,27.1,135.3,28,135.9,29L135.9,29z M140.6,33.6c-0.9,1.5-2.4,2.7-4.1,3.1l-0.8-1.5
			c1.3-0.3,2.4-1.1,3.2-2.3h-2.8v-1.6h3.4v-1.5h-3.1v-1.5h1.5l-0.9-1.8l1.9-0.5c0.2,0.4,0.6,1.2,1,2.2h1.2c0.2-0.3,0.5-1.1,1-2.2
			l1.9,0.5c-0.2,0.5-0.6,1.1-1,1.8h1.8v1.5h-3.5v1.5h3.8v1.6h-2.8c0.9,1,2,1.7,3.3,2.1l-1,1.6C143,36,141.6,35,140.6,33.6
			L140.6,33.6z"/>
		<path class="st4" d="M151.9,39H150v-6c-0.2,0.4-0.6,0.9-0.9,1.4l-1.3-1.1c0.7-1,1.2-2,1.7-3.1c0.6-1.3,1.1-2.7,1.4-4.2l1.9,0.3
			c-0.3,1.3-0.7,2.6-1.2,3.8h0.4L151.9,39z M161.9,29.9h-9.6v-1.5h9.6V29.9z M159.4,38.4h-4.7v0.5h-1.9v-4.4h8.6v4.3h-1.9
			L159.4,38.4z M161.2,27.8h-8.1v-1.4h8.1V27.8z M161.1,31.9h-8v-1.3h8V31.9z M161.1,33.8h-8v-1.3h8V33.8z M154.7,37.1h4.7v-1.3
			h-4.7V37.1z"/>
	</g>
</g>
</svg>
