<svg xmlns="http://www.w3.org/2000/svg" xmlns:xlink="http://www.w3.org/1999/xlink" viewBox="0 0 204.94 30"><defs><style>.cls-1{fill:none;}.cls-2{clip-path:url(#clip-path);}.cls-3{fill:#ababab;}.cls-4{clip-path:url(#clip-path-2);}.cls-5{fill:#c00f52;}.cls-6{fill:#182b7b;}</style><clipPath id="clip-path"><rect class="cls-1" width="30" height="30"/></clipPath><clipPath id="clip-path-2"><circle class="cls-1" cx="15" cy="32.5" r="15"/></clipPath></defs><title>contact_banner_txt</title><g id="Layer_2" data-name="Layer 2"><g id="ヘッダー_フッター" data-name="ヘッダー・フッター"><g class="cls-2"><path class="cls-3" d="M15,3A12,12,0,1,1,3,15,12,12,0,0,1,15,3m0-3A15,15,0,1,0,30,15,15,15,0,0,0,15,0Z"/><g class="cls-4"><path class="cls-5" d="M15,3A12,12,0,1,1,3,15,12,12,0,0,1,15,3m0-3A15,15,0,1,0,30,15,15,15,0,0,0,15,0Z"/></g></g><path class="cls-6" d="M62.48,23.76A12,12,0,0,1,54,26.82c-6.77,0-11.39-4.76-11.39-11.76S47.3,3.18,53.8,3.18a11.63,11.63,0,0,1,8.06,2.94L60,8.73a8,8,0,0,0-6.11-2.44c-4.28,0-7.33,3.67-7.33,8.79a9.43,9.43,0,0,0,1.62,5.58,7.46,7.46,0,0,0,5.82,3,9.22,9.22,0,0,0,6.7-2.6Z"/><path class="cls-6" d="M88.77,15c0,7-4.54,11.85-11.09,11.85S66.59,22,66.59,15,71.18,3.18,77.68,3.18,88.77,8.06,88.77,15Zm-18.29,0c0,5.18,2.92,8.71,7.2,8.71s7.2-3.53,7.2-8.71-2.94-8.73-7.2-8.73S70.48,9.79,70.48,14.94Z"/><path class="cls-6" d="M98.9,3.66l7.28,12,.2.3a48.59,48.59,0,0,1,2.6,4.9h.12c-.09-1.9-.14-5.37-.14-7.5V3.66h3.5V26.34h-3.59l-8.62-13.89A54.32,54.32,0,0,1,97.5,7.36h-.14c.14,1.87.23,4.9.23,8v11h-3.5V3.66Z"/><path class="cls-6" d="M135.92,3.66V6.85h-7.76V26.34H124.5V6.85h-7.79V3.66Z"/><path class="cls-6" d="M150.67,3.55l8.94,22.79h-4l-2.32-6.22H144l-2.33,6.22h-4l8.93-22.79Zm-.5,7.7c-.45-1.23-1.26-3.64-1.43-4.4h-.11c-.22.9-.87,2.86-1.43,4.4l-2.18,6h7.31Z"/><path class="cls-6" d="M182.68,23.76a12,12,0,0,1-8.49,3.06c-6.77,0-11.39-4.76-11.39-11.76S167.5,3.18,174,3.18a11.63,11.63,0,0,1,8.06,2.94l-1.9,2.61a8,8,0,0,0-6.11-2.44c-4.28,0-7.33,3.67-7.33,8.79a9.5,9.5,0,0,0,1.62,5.58,7.46,7.46,0,0,0,5.83,3,9.19,9.19,0,0,0,6.69-2.6Z"/><path class="cls-6" d="M204.94,3.66V6.85h-7.76V26.34h-3.67V6.85h-7.78V3.66Z"/></g></g></svg>