<svg xmlns="http://www.w3.org/2000/svg" xmlns:xlink="http://www.w3.org/1999/xlink" viewBox="0 0 502.94 30"><defs><style>.cls-1{fill:none;}.cls-2{clip-path:url(#clip-path);}.cls-3{fill:#a3a3a3;}.cls-4{clip-path:url(#clip-path-2);}.cls-5{fill:#b80f52;}.cls-6{fill:#182b7b;}</style><clipPath id="clip-path"><rect class="cls-1" width="30" height="30"/></clipPath><clipPath id="clip-path-2"><circle class="cls-1" cx="15" cy="32.5" r="15"/></clipPath></defs><title>cus-01_1</title><g id="Layer_2" data-name="Layer 2"><g id="ヘッダー_フッター" data-name="ヘッダー・フッター"><g class="cls-2"><path class="cls-3" d="M15,3A12,12,0,1,1,3,15,12,12,0,0,1,15,3m0-3A15,15,0,1,0,30,15,15,15,0,0,0,15,0Z"/><g class="cls-4"><path class="cls-5" d="M15,3A12,12,0,1,1,3,15,12,12,0,0,1,15,3m0-3A15,15,0,1,0,30,15,15,15,0,0,0,15,0Z"/></g></g><path class="cls-6" d="M62.48,23.76A12,12,0,0,1,54,26.82c-6.77,0-11.39-4.76-11.39-11.76S47.3,3.18,53.8,3.18a11.63,11.63,0,0,1,8.06,2.94L60,8.73a8,8,0,0,0-6.11-2.44c-4.28,0-7.33,3.67-7.33,8.79a9.43,9.43,0,0,0,1.62,5.58,7.46,7.46,0,0,0,5.82,3,9.22,9.22,0,0,0,6.7-2.6Z"/><path class="cls-6" d="M71.55,3.66V17.77a5.93,5.93,0,0,0,1,3.7,5.45,5.45,0,0,0,4.54,2.15,5.68,5.68,0,0,0,4.48-2.07,5.92,5.92,0,0,0,1.09-3.78V3.66H86.3V18.47a7.76,7.76,0,0,1-1.56,5,9.42,9.42,0,0,1-7.62,3.33,9.53,9.53,0,0,1-7.7-3.41,7.81,7.81,0,0,1-1.48-5V3.66Z"/><path class="cls-6" d="M93.33,20.38a9.7,9.7,0,0,0,7.51,3.27c3,0,4.64-1.17,4.64-3.27s-1.23-3.14-4.62-4.15l-2-.59a15.81,15.81,0,0,1-4-1.7,4.88,4.88,0,0,1-2.32-4.23c0-4.09,3-6.47,8.09-6.47a12.78,12.78,0,0,1,7.61,2.55l-1.65,2.6a9.34,9.34,0,0,0-6-2.13c-2.69,0-4.28,1.15-4.28,3.08,0,1.77,1,2.55,4.45,3.59l2.18.64c4.34,1.29,6.42,3.45,6.42,6.69a6.06,6.06,0,0,1-2.78,5.13,11.33,11.33,0,0,1-5.9,1.4,12.15,12.15,0,0,1-9.27-3.89Z"/><path class="cls-6" d="M132,3.66V6.85h-7.76V26.34H120.6V6.85h-7.78V3.66Z"/><path class="cls-6" d="M157.12,15c0,7-4.54,11.85-11.09,11.85S134.94,22,134.94,15,139.53,3.18,146,3.18,157.12,8.06,157.12,15Zm-18.29,0c0,5.18,2.91,8.71,7.2,8.71s7.19-3.53,7.19-8.71S150.28,6.21,146,6.21,138.83,9.79,138.83,14.94Z"/><path class="cls-6" d="M167.47,3.66l4.62,10.44a34.46,34.46,0,0,1,1.71,4.71h.11a31.82,31.82,0,0,1,1.71-4.71l4.62-10.44h5.27V26.34H182V14.75c0-2.27.09-6.5.17-8.18h-.11a70.17,70.17,0,0,1-2.55,6.72l-4.23,9.24H172.4l-4.23-9.24a61.62,61.62,0,0,1-2.54-6.72h-.12c.12,2.33.17,5.13.17,8.18V26.34h-3.47V3.66Z"/><path class="cls-6" d="M207.49,3.66V6.71H195.61v6.44h10.5v3h-10.5v7.11h12.3v3.11H192V3.66Z"/><path class="cls-6" d="M222.07,3.66c5.35,0,8.49,2.3,8.49,6.19a5.2,5.2,0,0,1-2.3,4.48,9.65,9.65,0,0,1-3.83,1.31v.09c2.52.78,3.8,2.52,7.86,10.61h-4.36c-3.34-7.9-4.54-9.32-8.07-9.41H217.2v9.41h-3.61V3.66ZM217.2,14.05H221c3.64,0,5.6-1.35,5.6-3.89,0-2.36-1.79-3.59-5.21-3.59h-4.2Z"/><path class="cls-6" d="M265.42,3.66V6.85h-7.76V26.34H254V6.85h-7.78V3.66Z"/><path class="cls-6" d="M285.21,3.66V6.71H273.34v6.44h10.5v3h-10.5v7.11h12.29v3.11H269.76V3.66Z"/><path class="cls-6" d="M291.57,20.38a9.7,9.7,0,0,0,7.51,3.27c3,0,4.64-1.17,4.64-3.27s-1.23-3.14-4.62-4.15l-2-.59a15.81,15.81,0,0,1-4-1.7,4.88,4.88,0,0,1-2.32-4.23c0-4.09,3-6.47,8.09-6.47a12.78,12.78,0,0,1,7.61,2.55l-1.65,2.6a9.36,9.36,0,0,0-6-2.13c-2.69,0-4.28,1.15-4.28,3.08,0,1.77,1,2.55,4.45,3.59l2.18.64c4.34,1.29,6.42,3.45,6.42,6.69a6.06,6.06,0,0,1-2.78,5.13,11.33,11.33,0,0,1-5.9,1.4,12.15,12.15,0,0,1-9.27-3.89Z"/><path class="cls-6" d="M330.27,3.66V6.85h-7.76V26.34h-3.67V6.85h-7.78V3.66Z"/><path class="cls-6" d="M343.26,3.66V6.38h-3.08V23.62h3.08v2.72h-9.74V23.62h3.08V6.38h-3.08V3.66Z"/><path class="cls-6" d="M354,3.66l4.62,10.44a32.89,32.89,0,0,1,1.7,4.71h.12a30.48,30.48,0,0,1,1.7-4.71l4.62-10.44H372V26.34h-3.48V14.75c0-2.27.09-6.5.17-8.18h-.11A67.6,67.6,0,0,1,366,13.29l-4.23,9.24h-2.91l-4.22-9.24a59.62,59.62,0,0,1-2.55-6.72H352c.11,2.33.16,5.13.16,8.18V26.34h-3.47V3.66Z"/><path class="cls-6" d="M399.26,15c0,7-4.54,11.85-11.09,11.85S377.08,22,377.08,15s4.6-11.79,11.09-11.79S399.26,8.06,399.26,15Zm-18.28,0c0,5.18,2.91,8.71,7.19,8.71s7.2-3.53,7.2-8.71-2.94-8.73-7.2-8.73S381,9.79,381,14.94Z"/><path class="cls-6" d="M409.4,3.66l7.28,12,.19.3a51,51,0,0,1,2.61,4.9h.11c-.09-1.9-.14-5.37-.14-7.5V3.66H423V26.34h-3.59l-8.62-13.89A51.69,51.69,0,0,1,408,7.36h-.14c.14,1.87.22,4.9.22,8v11h-3.5V3.66Z"/><path class="cls-6" d="M438.35,3.66V6.38h-3.08V23.62h3.08v2.72H428.6V23.62h3.08V6.38H428.6V3.66Z"/><path class="cls-6" d="M454.5,3.55l8.94,22.79h-4l-2.32-6.22h-9.27l-2.33,6.22h-4L450.5,3.55Zm-.5,7.7c-.45-1.23-1.26-3.64-1.43-4.4h-.11c-.22.9-.87,2.86-1.43,4.4l-2.18,6h7.31Z"/><path class="cls-6" d="M471.39,3.66V23.15H482.2v3.19H467.69V3.66Z"/><path class="cls-6" d="M486.9,20.38a9.68,9.68,0,0,0,7.5,3.27c3,0,4.65-1.17,4.65-3.27s-1.23-3.14-4.62-4.15l-2-.59a15.89,15.89,0,0,1-4-1.7,4.89,4.89,0,0,1-2.33-4.23c0-4.09,3-6.47,8.1-6.47a12.78,12.78,0,0,1,7.61,2.55l-1.65,2.6a9.36,9.36,0,0,0-6-2.13c-2.69,0-4.28,1.15-4.28,3.08,0,1.77,1,2.55,4.45,3.59l2.18.64c4.34,1.29,6.41,3.45,6.41,6.69a6,6,0,0,1-2.77,5.13,11.37,11.37,0,0,1-5.91,1.4A12.13,12.13,0,0,1,485,22.9Z"/></g></g></svg>