<svg xmlns="http://www.w3.org/2000/svg" viewBox="0 0 369.17 77.19"><defs><style>.cls-1{fill:none;stroke:#bbb;stroke-miterlimit:10;}.cls-2{fill:#b60f52;}.cls-3{fill:#bababa;}.cls-4{fill:#182b7b;}</style></defs><title>cus-01</title><g id="Layer_2" data-name="Layer 2"><g id="デザイン"><line class="cls-1" y1="20.71" x2="180" y2="20.71"/></g><g id="テキスト"><path class="cls-2" d="M12.28,12.21A6.83,6.83,0,0,1,7.43,14C3.55,14,.91,11.24.91,7.23S3.6.45,7.31.45a6.63,6.63,0,0,1,4.61,1.68L10.84,3.62a4.59,4.59,0,0,0-3.49-1.4c-2.45,0-4.2,2.1-4.2,5a5.43,5.43,0,0,0,.93,3.19,4.28,4.28,0,0,0,3.33,1.69,5.25,5.25,0,0,0,3.83-1.49Z"/><path class="cls-3" d="M21.35,4.24V9.78c0,1.55.64,2.38,1.84,2.38A3.22,3.22,0,0,0,26,9.81V4.24h2v9.45H26v-1.8a4.1,4.1,0,0,1-3.33,2c-2.19,0-3.36-1.31-3.36-3.76V4.24Z"/><path class="cls-3" d="M35.87,11.28a5.41,5.41,0,0,0,3.24,1.06c1.21,0,1.85-.4,1.85-1.17s-.53-1.07-1.9-1.47l-.83-.24c-2-.56-2.76-1.36-2.76-2.77C35.47,5.07,36.91,4,39,4a5.92,5.92,0,0,1,3.73,1.12l-.9,1.33a4.68,4.68,0,0,0-2.8-.88c-1,0-1.57.45-1.57,1.13a.9.9,0,0,0,.5.77,5,5,0,0,0,1.07.42l.24.08.93.3c2,.66,2.83,1.48,2.83,2.85,0,1.83-1.44,2.88-3.91,2.88A6.3,6.3,0,0,1,35,12.64Z"/><path class="cls-3" d="M53.14,4.24h2.91V5.79H53.14v5.09a2.45,2.45,0,0,0,.11,1,.87.87,0,0,0,.83.48,3,3,0,0,0,1.6-.52l.42,1.41a4.46,4.46,0,0,1-2.5.67c-1.6,0-2.46-1-2.46-2.72V5.79H48.9V4.24h2.24v-2l2-.89Z"/><path class="cls-3" d="M71.92,9a4.84,4.84,0,1,1-9.68,0,4.84,4.84,0,1,1,9.68,0Zm-7.63,0c0,2,1.14,3.38,2.8,3.38s2.79-1.38,2.79-3.38-1.17-3.36-2.79-3.36S64.29,7,64.29,8.93Z"/><path class="cls-3" d="M80.54,6a2.91,2.91,0,0,1,2.58-1.88,2.58,2.58,0,0,1,2.69,2.08,3.14,3.14,0,0,1,2.72-2.08,2.75,2.75,0,0,1,2.29,1.08,4.15,4.15,0,0,1,.67,2.64v5.9H89.6V8C89.6,6.59,89,5.75,88,5.75s-1.72,1-2,2.21v5.73H84.15V7.94c0-1.39-.58-2.19-1.57-2.19s-1.71.94-2,2.35v5.59H78.67V4.24h1.87Z"/><path class="cls-3" d="M100.53,9.3a2.84,2.84,0,0,0,3,3,3.76,3.76,0,0,0,3-1.43l1.1,1.28A5.44,5.44,0,0,1,103.38,14,4.61,4.61,0,0,1,98.45,9c0-3,2-5.07,4.74-5.07a4.43,4.43,0,0,1,4.45,4.75V9.3Zm5-1.42a2.36,2.36,0,0,0-2.44-2.39,2.63,2.63,0,0,0-2.55,2.39Z"/><path class="cls-3" d="M116.83,6.87C117.41,4.91,118.4,4,120,4a2.85,2.85,0,0,1,1.3.27l-.55,1.83a2.74,2.74,0,0,0-1-.16c-1.46,0-2.53,1.2-2.85,3.17v4.58h-2V4.24h1.93l-.06,2.63Z"/><path class="cls-3" d="M141,4.24h2.91V5.79H141v5.09a2.45,2.45,0,0,0,.11,1,.87.87,0,0,0,.83.48,3,3,0,0,0,1.6-.52l.42,1.41a4.46,4.46,0,0,1-2.5.67c-1.6,0-2.47-1-2.47-2.72V5.79h-2.24V4.24H139v-2l2-.89Z"/><path class="cls-3" d="M152.3,9.3a2.84,2.84,0,0,0,3,3,3.73,3.73,0,0,0,3-1.43l1.11,1.28A5.46,5.46,0,0,1,155.15,14,4.62,4.62,0,0,1,150.22,9c0-3,2-5.07,4.74-5.07a4.42,4.42,0,0,1,4.45,4.75V9.3Zm5-1.42a2.36,2.36,0,0,0-2.45-2.39,2.62,2.62,0,0,0-2.54,2.39Z"/><path class="cls-3" d="M166.9,11.28a5.36,5.36,0,0,0,3.23,1.06c1.21,0,1.86-.4,1.86-1.17s-.53-1.07-1.91-1.47l-.83-.24c-2-.56-2.75-1.36-2.75-2.77,0-1.62,1.44-2.72,3.55-2.72a5.92,5.92,0,0,1,3.73,1.12l-.9,1.33a4.66,4.66,0,0,0-2.8-.88c-.94,0-1.57.45-1.57,1.13a.9.9,0,0,0,.5.77,5.24,5.24,0,0,0,1.07.42l.24.08.93.3c2,.66,2.83,1.48,2.83,2.85,0,1.83-1.44,2.88-3.9,2.88A6.32,6.32,0,0,1,166,12.64Z"/><path class="cls-3" d="M184.16,4.24h2.91V5.79h-2.91v5.09a2.45,2.45,0,0,0,.11,1,.89.89,0,0,0,.83.48,3,3,0,0,0,1.61-.52l.41,1.41a4.43,4.43,0,0,1-2.5.67c-1.6,0-2.46-1-2.46-2.72V5.79h-2.24V4.24h2.24v-2l2-.89Z"/><path class="cls-3" d="M196.43.34v2h-2.22v-2Zm-.11,3.9v9.45h-2V4.24Z"/><path class="cls-3" d="M206,6a2.91,2.91,0,0,1,2.58-1.88,2.58,2.58,0,0,1,2.69,2.08A3.13,3.13,0,0,1,214,4.07a2.75,2.75,0,0,1,2.29,1.08,4.21,4.21,0,0,1,.67,2.64v5.9H215V8c0-1.43-.57-2.27-1.57-2.27-.84,0-1.71,1-2,2.21v5.73h-1.89V7.94c0-1.39-.57-2.19-1.56-2.19s-1.72.94-2,2.35v5.59h-1.89V4.24H206Z"/><path class="cls-3" d="M233.47,9a4.84,4.84,0,1,1-9.68,0,4.84,4.84,0,1,1,9.68,0Zm-7.63,0c0,2,1.14,3.38,2.8,3.38s2.79-1.38,2.79-3.38-1.17-3.36-2.79-3.36S225.84,7,225.84,8.93Z"/><path class="cls-3" d="M242.42,6a3.93,3.93,0,0,1,3.34-1.95c2.1,0,3.3,1.36,3.3,3.72v5.9h-2V8.12c0-1.59-.64-2.37-1.92-2.37a3.31,3.31,0,0,0-2.75,2.32v5.62h-2V4.24h2Z"/><path class="cls-3" d="M259.23.34v2H257v-2Zm-.11,3.9v9.45h-2V4.24Z"/><path class="cls-3" d="M273,7.41c0-1.2-.77-1.84-2.23-1.84a5,5,0,0,0-3.09,1l-.85-1.29a7,7,0,0,1,4-1.28c2.66,0,4,1.26,4,3.71v3.15a6.57,6.57,0,0,0,.54,2.84h-1.77a5.68,5.68,0,0,1-.45-1.59h-.07a4.05,4.05,0,0,1-1.34,1.33,4,4,0,0,1-2.11.51,3,3,0,0,1-3.25-3c0-2.09,1.82-3.21,5.26-3.21H273Zm-.84,1.65c-2.54,0-3.69.56-3.69,1.81,0,.89.7,1.49,1.76,1.49A2.7,2.7,0,0,0,273,9.84V9.06Z"/><path class="cls-3" d="M284.94,0V11.73c0,.26.12.37.36.37h1.29l-.22,1.59h-1.75A1.48,1.48,0,0,1,282.93,12V0Z"/><path class="cls-3" d="M293.33,11.28a5.36,5.36,0,0,0,3.23,1.06c1.22,0,1.86-.4,1.86-1.17s-.53-1.07-1.91-1.47l-.83-.24c-2-.56-2.75-1.36-2.75-2.77,0-1.62,1.44-2.72,3.55-2.72a5.9,5.9,0,0,1,3.73,1.12l-.9,1.33a4.66,4.66,0,0,0-2.8-.88c-.94,0-1.57.45-1.57,1.13a.9.9,0,0,0,.5.77,5.24,5.24,0,0,0,1.07.42l.24.08.93.3c2,.66,2.83,1.48,2.83,2.85,0,1.83-1.44,2.88-3.9,2.88a6.28,6.28,0,0,1-4.16-1.33Z"/><path class="cls-4" d="M19.54,52.94v4.8H3.5v-4.8Z"/><path class="cls-4" d="M55.73,32.3v6.91h10.7V44H55.73v7.68a46,46,0,0,1,8.93-1c8.06,0,13.49,4.51,13.49,11.28,0,4.46-1.78,7.77-5.38,9.89-2.54,1.48-5.18,2.25-10,2.78l-1.92-4.51c8.59-.77,12-3.12,12-8.21,0-4.51-3-7-8.31-7a42.48,42.48,0,0,0-8.83,1.15V68.45c0,3.79-2.3,6.14-6.1,6.14a13.64,13.64,0,0,1-7.82-2.88,9,9,0,0,1-3.65-7c0-2.73,1-4.51,4-7a28.89,28.89,0,0,1,8.4-4.61V44h-10V39.21h10V32.3ZM50.54,57.74c-4.46,1.88-7.34,4.61-7.34,7s2.64,4.76,5.38,4.76c1.39,0,2-.72,2-2.45ZM78.1,49.05a67.1,67.1,0,0,0-9.55-11.76l3.65-2.92a58.55,58.55,0,0,1,9.69,11.47Z"/><path class="cls-4" d="M119.28,42.72,122,45.17a53.77,53.77,0,0,1-10,8.16,89.09,89.09,0,0,0,18.48,4.85l-2.78,4.46c-2.16-.48-2.84-.62-5.38-1.25V76.71H117V74.59H97.54v2.12H92.26V62.26l-1.16.33c-1.53.43-2.44.67-4.84,1.3l-2.5-4.18a74.77,74.77,0,0,0,18.1-5.62l.91-.38a33,33,0,0,1-5.52-4.18,28.56,28.56,0,0,1-7.54,4.66l-3.5-3.36a31.21,31.21,0,0,0,14.11-11.57l5,1.54c-.72,1.05-.92,1.29-1.4,1.92Zm8.93-7.54v9.36H123V39H91v5.52H85.82V35.18h18.49V31.1h5.13v4.08ZM120,60.77A74,74,0,0,1,107.33,56a75.17,75.17,0,0,1-10.61,4.75ZM97.54,64.56v6H117v-6Zm3-18,0,0-.2.19a36.87,36.87,0,0,0,7.06,4.51,45.69,45.69,0,0,0,6.86-4.85H100.66Z"/><path class="cls-4" d="M139,56.06a60.75,60.75,0,0,1-5,11.14l-2.6-5.33a48.24,48.24,0,0,0,7.11-16.22h-6.29V40.94H139V31.1h4.9v9.84H149v4.71h-5.08v3.79a37.42,37.42,0,0,1,5.8,5.47l-2.64,4.32a42.8,42.8,0,0,0-3.16-4.42v21.9H139Zm7.39,12.58a55.85,55.85,0,0,0,11.95-7.2l1.2,3.65a56.05,56.05,0,0,1-10.8,7.82Zm19,3.89c0,3-1,4-4.22,4a44.3,44.3,0,0,1-5.62-.43l-.77-4.46a27.4,27.4,0,0,0,5.09.57c.67,0,.82-.19.82-1V53.38H148.75V49.49h11.91V46.7h-9.41V43h9.41V40.37H149.52V36.53h6.1a33.42,33.42,0,0,0-2.74-4.13l4.27-1.59a24.91,24.91,0,0,1,3.32,5.72h4.85a36.67,36.67,0,0,0,2.68-6l4.9,1.64a34.42,34.42,0,0,1-2.5,4.37h6.39v3.84H165.36V43h9.75V46.7h-9.75v2.79h12.58v3.89H165.41A32,32,0,0,0,169,60.1l.34-.34.1-.1a44.27,44.27,0,0,0,4.36-5.76l3.94,2.93a41.25,41.25,0,0,1-6.29,6.43,27.44,27.44,0,0,0,7.44,6.05l-3.21,4.37a36.83,36.83,0,0,1-10.28-11.57Zm-10.46-10a30.3,30.3,0,0,0-5.67-5.18l2.88-3.22A33.17,33.17,0,0,1,158,59.23Z"/><path class="cls-4" d="M192.58,41.47c.53-2.83,1-5.14,1.58-9l.1-.67,5.13.77c-.62,3.79-1,6.1-1.63,8.88h3.7c7.15,0,10.22,2.88,10.22,9.6,0,7-1.29,15.27-3,19.11-1.3,2.92-3.17,4.27-6,4.27A18.65,18.65,0,0,1,194.35,72l.58-4.94a18.72,18.72,0,0,0,6.91,2.16c1.11,0,1.63-.48,2.26-2,1.44-3.46,2.49-10.23,2.49-15.8,0-4.17-1.05-5.18-5.42-5.18h-4.46A95.51,95.51,0,0,1,186,74.59L181.3,72a90.16,90.16,0,0,0,10.27-25.73h-9.36v-4.8Zm28.08,18.82a88.56,88.56,0,0,0-9.5-21.65l4.51-2.31a89.79,89.79,0,0,1,10,21.8Z"/><path class="cls-4" d="M234.14,59.18A150.83,150.83,0,0,1,237,39.65l5,1a96.85,96.85,0,0,0-2.31,13.87,27.81,27.81,0,0,1,15.75-5.67c8.73,0,13.68,4.13,13.68,11.38,0,9.7-7.68,14.31-24.87,14.88l-1.87-4.85c15.12,0,21.17-2.92,21.17-10.08,0-4.51-3.17-7.2-8.45-7.2-5.52,0-12.43,3.32-17.18,8.21ZM260.88,42a90.85,90.85,0,0,0-20-6l2-4.18A108.13,108.13,0,0,1,263,37.34Z"/><path class="cls-4" d="M301.39,69.6c9.27-2.35,13.78-7.49,13.78-15.79,0-5.76-2.59-10.61-7-13.06A15.88,15.88,0,0,0,303,39c-1.44,11.14-3.36,18.25-6.87,25.11a20.89,20.89,0,0,1-3.55,5.42,7.63,7.63,0,0,1-5.42,2.6c-5.52,0-10-6.92-10-15.36A22.74,22.74,0,0,1,288,37.44a22.5,22.5,0,0,1,12.1-3.27c12.24,0,20.64,7.88,20.64,19.4q0,16.33-16.51,20.73Zm-3.5-30.82a14.86,14.86,0,0,0-9.6,4.42,18.37,18.37,0,0,0-5.76,13.34c0,5.19,2.16,9.94,4.56,9.94,1.2,0,2.3-1.1,3.79-3.74,3.36-5.86,5.76-14,6.91-23.14Z"/><path class="cls-4" d="M365.62,66.38h-5.28V63.84H334c-.39,6-2.07,9.94-5.72,13.35l-4.17-3.65c3.36-3.08,4.6-6.77,4.6-13.78V51h36.92ZM344.26,31.1h5.23v4.37h19.68v4.08H349.49v3.84H366.1v4.08H328.46V43.39h15.8V39.55H324.91V35.47h19.35ZM334.08,54.81v4.95h10.23V54.81Zm15.31,0v4.95h10.95V54.81Z"/></g></g></svg>