<svg xmlns="http://www.w3.org/2000/svg" viewBox="0 0 429.47 150.98"><defs><style>.cls-1{fill:#fff;}.cls-2{fill:#1e337c;}</style></defs><title>fas-040</title><g id="Layer_2" data-name="Layer 2"><g id="テキスト"><rect class="cls-1" x="105.98" width="216" height="34"/><path class="cls-2" d="M120.6,7h3.05v5.18h4.43V5.7h3.08v6.47H136V6.23h3v5.94h4.28v2.71H139v8.71H128.08V14.88h-4.43V27.71h18.43v2.71H123.65V32.3H120.6V14.88h-3.92V12.17h3.92Zm10.56,7.89V21H136V14.88Z"/><path class="cls-2" d="M163.61,18.72A28.25,28.25,0,0,0,171.73,22l-1.6,2.63a30.35,30.35,0,0,1-6-2.66V32.3H161V21.1h1.82a18.46,18.46,0,0,1-3.28-2.72h-3.14a15.72,15.72,0,0,1-3.13,3H155v1.43c0,5.4-1.68,8.06-6.21,9.83l-1.93-2.3c3.75-1.4,5.06-3.27,5.06-7.11v-.92A26.15,26.15,0,0,1,146,25l-1.63-2.35A20.08,20.08,0,0,0,153,18.38h-5.15V6.68h20.22v11.7h-5Zm-12.8-7.28h5.71V9h-5.71Zm0,4.62h5.71V13.6h-5.71ZM165.18,9h-5.94v2.46h5.94Zm0,4.62h-5.94v2.46h5.94Z"/><path class="cls-2" d="M185.64,30a12.25,12.25,0,0,0,4.88-2.49,17.13,17.13,0,0,1-3.14-5.21H186.2V20.15h10.56l1.34,1.17a21.11,21.11,0,0,1-3.72,6.19,18,18,0,0,0,5,2.24l-1.68,2.49a18.18,18.18,0,0,1-5.26-2.85,17.51,17.51,0,0,1-5.46,3l-1.35-2V32.3h-2.82v-3c-2.36.47-6.08,1-9.61,1.4l-.75-2.52c1.34-.06,1.93-.09,3.08-.2V18.64h-2.86V16.37h26.6v2.27H185.64Zm10.59-15.17H175.76V6.29h20.47Zm-17.89,3.78v1.65h4.48V18.64Zm0,3.47v1.68h4.48V22.11Zm0,3.47v2.1c.81-.08,1.48-.17,1.73-.2l1.91-.19.84-.11v-1.6Zm.47-15.93h14.37V8.25H178.81Zm0,3.39h14.37v-1.6H178.81Zm11.09,9.29a12.51,12.51,0,0,0,2.41,3.47,15.14,15.14,0,0,0,2.24-3.47Z"/><path class="cls-2" d="M207.26,26.5c1.82,1.82,4.09,2.55,8.48,2.64h12a9.88,9.88,0,0,0-.9,2.6H215.66c-5.1-.06-7.5-.9-9.74-3.36a25.3,25.3,0,0,1-3.9,4l-1.54-2.77a28,28,0,0,0,3.73-2.74V19.81h-3.5V17.12h6.38v9.22Zm-2-13.63a29.6,29.6,0,0,0-4.12-5.24l2.24-1.73a25.86,25.86,0,0,1,4.26,5ZM216,22.05a20.26,20.26,0,0,1-6.08,5.41l-1.85-2.1a22.88,22.88,0,0,0,7.2-5.69h-5.63V12.73H216V10.85h-7.42V8.39H216V5.7h2.8V8.39h7.64v2.46H218.8v1.88h6.58v6.94H218.8v.53a55.42,55.42,0,0,1,7.72,4.2l-1.76,2.36a52.43,52.43,0,0,0-6-4.12v5.71H216Zm-3.67-7.19V17.6H216V14.86Zm6.47,2.74h3.86V14.86H218.8Z"/><path class="cls-2" d="M243.35,28.16c5.41-1.38,8-4.37,8-9.22a8.39,8.39,0,0,0-4.09-7.61,9,9,0,0,0-3-1c-.84,6.5-2,10.64-4,14.65a12.14,12.14,0,0,1-2.07,3.16A4.44,4.44,0,0,1,235,29.61c-3.22,0-5.83-4-5.83-9A13.12,13.12,0,0,1,242.57,7.49c7.14,0,12,4.59,12,11.31q0,9.54-9.63,12.1Zm-2-18a8.64,8.64,0,0,0-5.6,2.58,10.69,10.69,0,0,0-3.36,7.78c0,3,1.26,5.8,2.66,5.8.7,0,1.34-.65,2.21-2.19a37.05,37.05,0,0,0,4-13.49Z"/><path class="cls-2" d="M262.56,22.39c0,.75.17.84,1.6.84,1.17,0,1.51-.11,1.68-.53a18.51,18.51,0,0,0,.33-3.48l2.77.79c-.11,2.85-.39,4.23-1,4.95s-1.84,1.1-4,1.1c-3.36,0-4.34-.54-4.34-2.38v-7.9l-3.08.5-.34-2.71,3.42-.53V5.7h2.94v6.86l6.13-1,.23,2.69-6.36,1Zm12.52-12c-.54,12.21-2.44,17.05-8.38,21.56l-2.38-2.21c5.52-3.56,7.28-8,7.76-19.35h-5.15V7.6h15.31c-.08,11.23-.36,18-.86,21.06C281,31,280,31.8,277.62,31.8a31.63,31.63,0,0,1-4.22-.26l-.62-3a33.42,33.42,0,0,0,4.09.42c1.06,0,1.31-.31,1.54-2a137.3,137.3,0,0,0,.78-15V10.43Z"/><path class="cls-2" d="M292.21,19.42a25.89,25.89,0,0,1-2.94,5.91l-1.2-1.88V27.2h10.25v2.19c1.2-2.61,1.62-5.94,1.62-12.74v-9a32.17,32.17,0,0,0,8.85-2L310.64,8a38.75,38.75,0,0,1-7.9,1.87v4.71h8.51v2.74h-2.77v15h-2.77v-15h-3v.78c-.08,7.42-.87,11.48-2.8,14.42l-2.32-1.9c.3-.5.44-.7.53-.87H288.07v2h-2.66V6.54h2.66v2l2.29-.84a29.17,29.17,0,0,1,1.46,5.52l-2.24.75a32.77,32.77,0,0,0-1.51-5.35v5.88h4.14V5.7h2.63v8.76H299v2.41h-4.2v.73a23.1,23.1,0,0,1,4.2,3.86l-1.51,2.3a27.28,27.28,0,0,0-2.69-3.64v6.33h-2.63Zm-4.14-2.55v5.69a20.19,20.19,0,0,0,3.33-5.69Zm7.05-3.64a41.27,41.27,0,0,0,1.68-5.77l2.38.68a36,36,0,0,1-1.9,5.71Z"/><path class="cls-1" d="M5.44,87.62C10.88,93.78,18.24,97,26.88,97c8.48,0,13.28-3.36,13.28-9.36,0-5.84-3.52-9-13.2-11.84L21.28,74.1A45.38,45.38,0,0,1,9.92,69.22,13.93,13.93,0,0,1,3.28,57.14c0-11.68,8.56-18.48,23.12-18.48a36.5,36.5,0,0,1,21.76,7.28l-4.72,7.44a26.73,26.73,0,0,0-17.2-6.08C18.56,47.3,14,50.58,14,56.1c0,5,2.8,7.28,12.72,10.24L33,68.18C45.36,71.86,51.28,78,51.28,87.3a17.28,17.28,0,0,1-7.92,14.64c-4.08,2.56-10,4-16.88,4-10.72,0-20-3.92-26.48-11.12Z"/><path class="cls-1" d="M75.84,37.94V48.18H64.72V37.94Zm-.56,19.52v47.2H65.2V57.46Z"/><path class="cls-1" d="M133.28,100.26c0,7.84-1.76,13-5.76,17-3.2,3.2-9.84,5.36-16.4,5.36-9.12,0-16.48-2.48-21.52-7.2l4.56-6.72c4.88,4.08,10,5.92,16.88,5.92,7.92,0,12.72-4.64,12.72-12.4V95.62a18.24,18.24,0,0,1-14.24,7c-12.72,0-21.2-9.2-21.2-23,0-13.44,8.88-23.28,21-23.28,6.24,0,11.28,2.16,15,6.48l1.6-5.28h7.36ZM123.76,71c-3.44-4.72-7.44-6.88-13-6.88-7.44,0-12.88,6.56-12.88,15.44,0,9.12,5.44,15.6,13.12,15.6,5.6,0,9.52-2.24,12.8-7.2Z"/><path class="cls-1" d="M156.16,66c2.88-6.08,7.52-9.44,12.88-9.44,7,0,11.36,3.44,13.44,10.4,3.12-6.64,8.08-10.4,13.6-10.4A13.78,13.78,0,0,1,207.52,62c2.32,3,3.36,7.12,3.36,13.2v29.44h-9.44V76.34c0-7.12-2.88-11.36-7.84-11.36-4.24,0-8.56,4.8-10,11v28.64h-9.44V75.94c0-7-2.88-11-7.84-11-4.48,0-8.56,4.72-10.08,11.76v27.92H146.8V57.46h9.36Z"/><path class="cls-1" d="M254.48,73.3c0-6-3.84-9.2-11.12-9.2a24.61,24.61,0,0,0-15.44,5l-4.24-6.48a35,35,0,0,1,20.08-6.4c13.28,0,20.08,6.32,20.08,18.56V90.5c0,5.68,1,11.12,2.72,14.16h-8.88a30.94,30.94,0,0,1-2.24-7.92h-.32a20.5,20.5,0,0,1-6.72,6.64c-2.64,1.68-6.24,2.56-10.56,2.56-9.44,0-16.24-6.24-16.24-14.88,0-10.48,9.12-16.08,26.32-16.08h6.56Zm-4.16,8.24c-12.72,0-18.48,2.8-18.48,9,0,4.48,3.52,7.44,8.8,7.44,7.36,0,13.76-5.84,13.76-12.56V81.54Z"/><path class="cls-1" d="M288.39,53.26l-11.08,19,11.08,19H284l-11.08-19,11.08-19Z"/><path class="cls-1" d="M306.35,73.62A106.57,106.57,0,0,0,294.6,69.3l1.68-3.92a75.38,75.38,0,0,1,11.59,4.2Zm-9.23,10.76c9.43-.76,14.95-2.6,19-6.44,3.88-3.68,6.52-9,8-16.24l4,2.28c-3.6,16.56-11.76,23.32-29.8,24.76Zm13.23-20.76A89.06,89.06,0,0,0,298.6,59.3l1.28-3.88a58.53,58.53,0,0,1,11.83,4.12Z"/><path class="cls-1" d="M364.11,63.3c-3,14.8-9.72,22.28-24.08,26.6l-2.43-4c12.35-3,19.59-10.28,22.07-22.12h-13a33.36,33.36,0,0,1-9.35,9.44L334.2,70a28.44,28.44,0,0,0,12.39-15.6l4.2,1.16a36.54,36.54,0,0,1-1.8,4.24h11.6Zm-2.24-3.08a27.25,27.25,0,0,0-3.48-6.52l3.28-.76a26.74,26.74,0,0,1,3.56,6.44Zm5.88-.24a28.92,28.92,0,0,0-3.44-7l3.2-.68a26.22,26.22,0,0,1,3.44,6.6Z"/><path class="cls-1" d="M404.79,57.86l2.92,2.64A47.86,47.86,0,0,1,393.07,79a76.26,76.26,0,0,1,5.4,6.28l-3.6,3.16a107.59,107.59,0,0,0-17.19-17.6l3.08-3.08c2.79,2.2,6,5.08,9.43,8.32,5.08-3.84,9.84-9.52,11.88-14.24H374.28v-4Z"/><path class="cls-1" d="M429.47,72.26l-11.07,19H414l11.07-19L414,53.26h4.4Z"/><path class="cls-1" d="M68.37,147.64V135.87h3.46c.54,0,1,0,1.36,0a5.45,5.45,0,0,1,1.15.2,2.93,2.93,0,0,1,1,.52,2.18,2.18,0,0,1,.63.82,2.76,2.76,0,0,1,.2,1.07,2.62,2.62,0,0,1-1.58,2.4V141A3.14,3.14,0,0,1,76.47,142a3,3,0,0,1,.67,2,3.21,3.21,0,0,1-1.21,2.65,5.34,5.34,0,0,1-3.44,1Zm1.45-10.54v3.58h2.1a3.43,3.43,0,0,0,2.13-.49,1.84,1.84,0,0,0,.61-1.52,1.47,1.47,0,0,0-.48-1.14,4.27,4.27,0,0,0-2.44-.43Zm0,4.78v4.53h2.12a4.8,4.8,0,0,0,3-.63,2.09,2.09,0,0,0,.72-1.67,2.54,2.54,0,0,0-.26-1.18,1.94,1.94,0,0,0-.83-.77,5.84,5.84,0,0,0-2.2-.28Z"/><path class="cls-1" d="M83,147.84a4.65,4.65,0,0,1-3.42-1.19,4.5,4.5,0,0,1-1.21-3.37,4.89,4.89,0,0,1,1.16-3.44,4,4,0,0,1,3.09-1.28,3.5,3.5,0,0,1,2.71,1.05,4.26,4.26,0,0,1,1,3v.76H79.77a3.29,3.29,0,0,0,.87,2.45,3.23,3.23,0,0,0,2.38.86,5.31,5.31,0,0,0,3-1.06h.07v1.49A8.88,8.88,0,0,1,83,147.84Zm-3.23-5.53H85c0-1.75-.85-2.63-2.41-2.63a2.64,2.64,0,0,0-1.92.7A2.91,2.91,0,0,0,79.77,142.31Z"/><path class="cls-1" d="M99.78,138.81l-2.71,8.83h-1l-2.45-6.85L91,147.64H90l-2.65-8.83h1.43l1.9,6.64,2.43-6.64h1l2.32,6.64,1.89-6.64Z"/><path class="cls-1" d="M105,147.88a3.76,3.76,0,0,1-3-1.24,5.86,5.86,0,0,1,0-6.82,3.73,3.73,0,0,1,3-1.26,3.79,3.79,0,0,1,3,1.25,5,5,0,0,1,1.1,3.42,5,5,0,0,1-1.1,3.41A3.75,3.75,0,0,1,105,147.88Zm0-8.15a2.32,2.32,0,0,0-2,.9,4.22,4.22,0,0,0-.69,2.6,4.17,4.17,0,0,0,.69,2.58,2.58,2.58,0,0,0,3.92,0,4.17,4.17,0,0,0,.69-2.58C107.65,140.9,106.76,139.73,105,139.73Z"/><path class="cls-1" d="M121.55,147.85a5.4,5.4,0,0,1-4.14-1.59,7.42,7.42,0,0,1,0-9,5.35,5.35,0,0,1,4.12-1.63,8.43,8.43,0,0,1,3.89,1.05v1.71h-.11a6,6,0,0,0-3.87-1.54,3.64,3.64,0,0,0-2.95,1.3,5.42,5.42,0,0,0-1.08,3.59,5.3,5.3,0,0,0,1.1,3.56,3.69,3.69,0,0,0,3,1.29,5.68,5.68,0,0,0,1.89-.32,6.34,6.34,0,0,0,2-1.24h.11v1.72a11.92,11.92,0,0,1-2.33.89A7.4,7.4,0,0,1,121.55,147.85Z"/><path class="cls-1" d="M134.51,147.64h-1.38v-1.06a4.94,4.94,0,0,1-3.07,1.3,2.64,2.64,0,0,1-2.12-.85,3.66,3.66,0,0,1-.73-2.45v-5.77h1.37v5A3.85,3.85,0,0,0,129,146a1.83,1.83,0,0,0,1.49.56,4.2,4.2,0,0,0,2.6-1.14v-6.64h1.38Z"/><path class="cls-1" d="M140,147.81c-1.82,0-2.73-1-2.73-3v-4.86h-1v-1.13h1v-2.54h1.36v2.54h3.1v1.13h-3.1V144a5.42,5.42,0,0,0,.19,1.8,1.21,1.21,0,0,0,.59.61,2.38,2.38,0,0,0,1,.19,3.57,3.57,0,0,0,1.27-.28h.05v1.25A7.4,7.4,0,0,1,140,147.81Z"/><path class="cls-1" d="M146,147.81c-1.82,0-2.73-1-2.73-3v-4.86h-1v-1.13h1v-2.54h1.36v2.54h3.1v1.13h-3.1V144a5.07,5.07,0,0,0,.2,1.8,1.19,1.19,0,0,0,.58.61,2.38,2.38,0,0,0,1,.19,3.57,3.57,0,0,0,1.27-.28h.05v1.25A7.4,7.4,0,0,1,146,147.81Z"/><path class="cls-1" d="M150.76,137.05h-1.55v-1.43h1.55Zm-.08,10.59H149.3v-8.83h1.38Z"/><path class="cls-1" d="M160.65,147.64h-1.38v-4.95a3.91,3.91,0,0,0-.45-2.27,1.82,1.82,0,0,0-1.49-.56,4.15,4.15,0,0,0-2.6,1.14v6.64h-1.38v-8.83h1.38v1.06a4.79,4.79,0,0,1,3.07-1.31,2.62,2.62,0,0,1,2.1.86,3.63,3.63,0,0,1,.75,2.47Z"/><path class="cls-1" d="M170.3,146.64c0,2.9-1.38,4.34-4.12,4.34a10.31,10.31,0,0,1-2.69-.36v-1.43h.06a7,7,0,0,0,2.71.57,2.82,2.82,0,0,0,2-.61,2.53,2.53,0,0,0,.66-2v-.87a4.56,4.56,0,0,1-3,1.19,2.93,2.93,0,0,1-2.46-1.16,5.09,5.09,0,0,1-.89-3.2,4.86,4.86,0,0,1,1.1-3.32,3.46,3.46,0,0,1,2.72-1.27,4.9,4.9,0,0,1,2.49.7l.1-.45h1.28Zm-1.38-1.43v-4.88a5.2,5.2,0,0,0-2.17-.54,2.48,2.48,0,0,0-2,.85,3.74,3.74,0,0,0-.71,2.44q0,3.15,2.34,3.15A4.17,4.17,0,0,0,168.92,145.21Z"/><path class="cls-1" d="M182.12,147.85a10.2,10.2,0,0,1-4.17-1v-1.78h.1a6.13,6.13,0,0,0,4.08,1.53,3.77,3.77,0,0,0,2.21-.57,1.79,1.79,0,0,0,.8-1.53,1.75,1.75,0,0,0-.34-1.15,2.23,2.23,0,0,0-1.18-.65l-2.63-.53a4.1,4.1,0,0,1-2.21-1.11A2.88,2.88,0,0,1,178,139a3,3,0,0,1,1.17-2.4,4.74,4.74,0,0,1,3.06-.94,9.7,9.7,0,0,1,3.94.86v1.71h-.11a5.82,5.82,0,0,0-3.83-1.35,3.3,3.3,0,0,0-2,.54,1.68,1.68,0,0,0-.74,1.42c0,1,.56,1.6,1.7,1.88q1,.18,2.19.45a6.67,6.67,0,0,1,1.73.56,3.22,3.22,0,0,1,.84.67,2.49,2.49,0,0,1,.49.85,3.5,3.5,0,0,1,.16,1.05,3.13,3.13,0,0,1-1.25,2.54A5,5,0,0,1,182.12,147.85Z"/><path class="cls-1" d="M196,138.81l-5.18,12.09h-1.47l1.64-3.64-3.55-8.45H189l2.81,6.72,2.82-6.72Z"/><path class="cls-1" d="M200.09,147.85a6.81,6.81,0,0,1-3.11-.73v-1.59H197a5.24,5.24,0,0,0,3.13,1.17c1.45,0,2.18-.46,2.18-1.37a1.17,1.17,0,0,0-.29-.84,2.51,2.51,0,0,0-1.2-.51c-.51-.09-1.1-.22-1.76-.38a3,3,0,0,1-1.54-.82,2.17,2.17,0,0,1-.54-1.51,2.31,2.31,0,0,1,1-1.92,4,4,0,0,1,2.54-.75,6.12,6.12,0,0,1,2.88.64v1.52h-.05a4.82,4.82,0,0,0-2.9-1,2.76,2.76,0,0,0-1.49.35,1.07,1.07,0,0,0-.55,1,1.1,1.1,0,0,0,.3.84,2.69,2.69,0,0,0,1.16.51l1.73.37a3,3,0,0,1,1.61.82,2.2,2.2,0,0,1,.54,1.53,2.37,2.37,0,0,1-1,2A4.34,4.34,0,0,1,200.09,147.85Z"/><path class="cls-1" d="M208.36,147.81c-1.83,0-2.74-1-2.74-3v-4.86h-1v-1.13h1v-2.54H207v2.54h3.09v1.13H207V144a5.15,5.15,0,0,0,.19,1.8,1.23,1.23,0,0,0,.58.61,2.41,2.41,0,0,0,1,.19,3.62,3.62,0,0,0,1.28-.28h0v1.25A7.39,7.39,0,0,1,208.36,147.81Z"/><path class="cls-1" d="M215.62,147.84a4.65,4.65,0,0,1-3.42-1.19,4.51,4.51,0,0,1-1.22-3.37,4.9,4.9,0,0,1,1.17-3.44,4,4,0,0,1,3.08-1.28,3.52,3.52,0,0,1,2.72,1.05,4.25,4.25,0,0,1,1,3v.76h-6.52a3.32,3.32,0,0,0,.86,2.45,3.25,3.25,0,0,0,2.39.86,5.31,5.31,0,0,0,3-1.06h.06v1.49A8.79,8.79,0,0,1,215.62,147.84Zm-3.23-5.53h5.18c0-1.75-.85-2.63-2.42-2.63a2.65,2.65,0,0,0-1.92.7A2.9,2.9,0,0,0,212.39,142.31Z"/><path class="cls-1" d="M232.25,147.64v-4.95a6,6,0,0,0-.2-1.91,1.36,1.36,0,0,0-.61-.7,2.14,2.14,0,0,0-1-.22,4.28,4.28,0,0,0-2.52,1.18,9.62,9.62,0,0,1,.05,1v5.56h-1.38v-4.95a5.73,5.73,0,0,0-.2-1.93,1.3,1.3,0,0,0-.6-.68,2.08,2.08,0,0,0-1-.22,4.11,4.11,0,0,0-2.49,1.14v6.64h-1.37v-8.83h1.37v1.06a4.79,4.79,0,0,1,3-1.31,2.41,2.41,0,0,1,2.44,1.45,5.08,5.08,0,0,1,3.23-1.45q2.75,0,2.74,3.33v5.75Z"/><path class="cls-1" d="M238.71,147.85a6.78,6.78,0,0,1-3.11-.73v-1.59h.05a5.29,5.29,0,0,0,3.14,1.17c1.45,0,2.18-.46,2.18-1.37a1.17,1.17,0,0,0-.29-.84,2.56,2.56,0,0,0-1.2-.51c-.52-.09-1.1-.22-1.76-.38a3,3,0,0,1-1.54-.82,2.17,2.17,0,0,1-.54-1.51,2.32,2.32,0,0,1,1-1.92,4,4,0,0,1,2.55-.75,6.17,6.17,0,0,1,2.88.64v1.52H242a4.82,4.82,0,0,0-2.9-1,2.76,2.76,0,0,0-1.49.35,1.07,1.07,0,0,0-.55,1,1.14,1.14,0,0,0,.29.84,2.81,2.81,0,0,0,1.17.51l1.73.37a3,3,0,0,1,1.61.82,2.2,2.2,0,0,1,.54,1.53,2.38,2.38,0,0,1-1,2A4.31,4.31,0,0,1,238.71,147.85Z"/><path class="cls-1" d="M249.74,147.64V135.87h3.47q.79,0,1.35,0a5.24,5.24,0,0,1,1.15.2,3,3,0,0,1,1,.52,2.15,2.15,0,0,1,.62.82,2.7,2.7,0,0,1-1.37,3.47V141a3.14,3.14,0,0,1,1.86,1.05,3,3,0,0,1,.67,2,3.23,3.23,0,0,1-1.2,2.65,5.38,5.38,0,0,1-3.44,1Zm1.45-10.54v3.58h2.11a3.47,3.47,0,0,0,2.13-.49,1.87,1.87,0,0,0,.61-1.52,1.44,1.44,0,0,0-.49-1.14,4.2,4.2,0,0,0-2.43-.43Zm0,4.78v4.53h2.12a4.84,4.84,0,0,0,3-.63,2.09,2.09,0,0,0,.72-1.67,2.42,2.42,0,0,0-.27-1.18,1.84,1.84,0,0,0-.83-.77,5.84,5.84,0,0,0-2.2-.28Z"/><path class="cls-1" d="M262.74,147.64H261v-2.13h1.77Z"/><path class="cls-1" d="M275.43,135.87l-4.65,11.77h-1.34l-4.65-11.77h1.55l3.81,9.79,3.8-9.79Z"/><path class="cls-1" d="M279.25,147.64h-1.77v-2.13h1.77Z"/><path class="cls-1" d="M288.16,148.77h-1.54a11.09,11.09,0,0,1,0-14.55h1.54v.08a9.19,9.19,0,0,0-2.08,2.89,10.16,10.16,0,0,0,0,8.62,9.23,9.23,0,0,0,2.08,2.9Z"/><path class="cls-1" d="M299.7,139.87a18.26,18.26,0,0,1-4,4.51,20.32,20.32,0,0,1-5.22,3.18l-.6-1a22.69,22.69,0,0,0,5.18-3.34,16,16,0,0,0,3.66-4.3h-7.88v-1.13h8.84v-2.9h1.41v2.9h3.48V139h-3.48v9.41H299.7Z"/><path class="cls-1" d="M319.54,139.59a16,16,0,0,1-.25,2.18,10.18,10.18,0,0,1-.84,2.16,6.29,6.29,0,0,1-1.95,2.34,9.81,9.81,0,0,1-3.17,1.48,18.58,18.58,0,0,1-4.48.59l-.23-1.13c3-.07,5.22-.63,6.77-1.69a6.56,6.56,0,0,0,2.73-4.83H306.77v-1.1Zm-.54-2.76H307.4v-1.1H319Z"/><path class="cls-1" d="M336.3,140.57a13.72,13.72,0,0,1-3.4,4,15.34,15.34,0,0,1-4.36,2.48,22.72,22.72,0,0,1-5.32,1.15l-.28-1.21a21.08,21.08,0,0,0,4.57-.93,14.05,14.05,0,0,0,3.41-1.63,17.08,17.08,0,0,0,2.37-1.9,12.7,12.7,0,0,0,1.94-2.59Zm-6.81-2-.88,1a42.33,42.33,0,0,0-5.56-2.9l.67-1A32.57,32.57,0,0,1,329.49,138.59Z"/><path class="cls-1" d="M344.39,135a11.22,11.22,0,0,1-.61,1.52h7.65c0,.76-.09,1.29-.14,1.6a14.4,14.4,0,0,1-.76,2.77,11.92,11.92,0,0,1-1.33,2.45,10.89,10.89,0,0,1-2.08,2.18,13.33,13.33,0,0,1-2.91,1.73,18.69,18.69,0,0,1-3.68,1.14l-.37-1.07a12.65,12.65,0,0,0,7.18-3.7,38.8,38.8,0,0,0-5.61-2.41l.61-.93a48.12,48.12,0,0,1,5.81,2.34,11,11,0,0,0,1.83-5.06h-6.76a14.71,14.71,0,0,1-2.4,3.1,13.5,13.5,0,0,1-2.8,2.18l-.69-.85a13.91,13.91,0,0,0,3.63-3.34,13,13,0,0,0,2.1-3.82Zm6.27.87-.9.4a16.67,16.67,0,0,0-1.12-2.13l.85-.38A13.92,13.92,0,0,1,350.66,135.87Zm2.3-.07-.89.37a14.55,14.55,0,0,0-1.13-2.16l.82-.39A18.73,18.73,0,0,1,353,135.8Z"/><path class="cls-1" d="M358.3,141.48a11.08,11.08,0,0,1-2.72,7.29h-1.53v-.07a9.26,9.26,0,0,0,2.09-2.9,10.16,10.16,0,0,0,.95-4.32,10,10,0,0,0-.95-4.29,9.26,9.26,0,0,0-2.09-2.9v-.09h1.53A11.14,11.14,0,0,1,358.3,141.48Z"/></g></g></svg>