<svg xmlns="http://www.w3.org/2000/svg" xmlns:xlink="http://www.w3.org/1999/xlink" viewBox="0 0 530.75 30"><defs><style>.cls-1{fill:none;}.cls-2{clip-path:url(#clip-path);}.cls-3{fill:#a3a3a3;}.cls-4{clip-path:url(#clip-path-2);}.cls-5{fill:#b80f52;}.cls-6{fill:#182b7b;}</style><clipPath id="clip-path"><rect class="cls-1" width="30" height="30"/></clipPath><clipPath id="clip-path-2"><circle class="cls-1" cx="15" cy="32.5" r="15"/></clipPath></defs><title>fas-01</title><g id="Layer_2" data-name="Layer 2"><g id="ヘッダー_フッター" data-name="ヘッダー・フッター"><g class="cls-2"><path class="cls-3" d="M15,3A12,12,0,1,1,3,15,12,12,0,0,1,15,3m0-3A15,15,0,1,0,30,15,15,15,0,0,0,15,0Z"/><g class="cls-4"><path class="cls-5" d="M15,3A12,12,0,1,1,3,15,12,12,0,0,1,15,3m0-3A15,15,0,1,0,30,15,15,15,0,0,0,15,0Z"/></g></g><path class="cls-6" d="M63.09,26.65H59.73L56.29,14.83A45.19,45.19,0,0,1,55.17,10h-.11A33,33,0,0,1,54,14.83L50.52,26.65H47.19l-6.08-23h3.73l3,12.1c.36,1.51.62,2.71,1.2,5.76h.12A52.12,52.12,0,0,1,50.41,16L53.63,5.48h3L59.84,16a55.69,55.69,0,0,1,1.26,5.57h.12c.36-2.15.84-4.45,1.17-5.76l3-12.1h3.7Z"/><path class="cls-6" d="M94.14,15c0,7-4.53,11.85-11.08,11.85S72,22,72,15,76.56,3.18,83.06,3.18,94.14,8.06,94.14,15Zm-18.28,0c0,5.18,2.91,8.71,7.2,8.71s7.19-3.53,7.19-8.71-2.94-8.73-7.19-8.73S75.86,9.79,75.86,14.94Z"/><path class="cls-6" d="M108.06,3.66c5.35,0,8.48,2.3,8.48,6.19a5.22,5.22,0,0,1-2.29,4.48,9.7,9.7,0,0,1-3.84,1.31v.09c2.52.78,3.81,2.52,7.87,10.61h-4.37c-3.33-7.9-4.53-9.32-8.06-9.41h-2.66v9.41H99.58V3.66Zm-4.87,10.39H107c3.63,0,5.6-1.35,5.6-3.89,0-2.36-1.8-3.59-5.21-3.59h-4.2Z"/><path class="cls-6" d="M126.85,3.66V23.15h10.81v3.19H123.15V3.66Z"/><path class="cls-6" d="M149.53,3.66c7.58,0,12.15,4.26,12.15,11.31,0,4.29-1.74,7.7-4.87,9.61a14.07,14.07,0,0,1-7.48,1.76h-7.48V3.66Zm-4.06,19.57h3.38c5.72,0,9-3,9-8.23s-3.1-8.26-8.82-8.26h-3.52Z"/><path class="cls-6" d="M171,1.7V3.94a10.22,10.22,0,0,1-2.26,6.44h-1.94a8.42,8.42,0,0,0,1.88-4.48h-1.88V1.7Z"/><path class="cls-6" d="M183.21,20.38a9.68,9.68,0,0,0,7.5,3.27c3,0,4.65-1.17,4.65-3.27s-1.23-3.14-4.62-4.15l-2-.59a15.89,15.89,0,0,1-4-1.7,4.89,4.89,0,0,1-2.33-4.23c0-4.09,3-6.47,8.1-6.47a12.78,12.78,0,0,1,7.61,2.55l-1.65,2.6a9.36,9.36,0,0,0-6-2.13c-2.69,0-4.28,1.15-4.28,3.08,0,1.77,1,2.55,4.45,3.59l2.18.64c4.34,1.29,6.41,3.45,6.41,6.69a6,6,0,0,1-2.77,5.13,11.37,11.37,0,0,1-5.91,1.4,12.13,12.13,0,0,1-9.26-3.89Z"/><path class="cls-6" d="M231.82,3.66V6.77H220.28v6.69h10.17v3H220.28v9.91H216.7V3.66Z"/><path class="cls-6" d="M247.64,3.55l8.93,22.79h-4l-2.32-6.22H241l-2.32,6.22h-4l8.93-22.79Zm-.51,7.7c-.45-1.23-1.26-3.64-1.42-4.4h-.12c-.22.9-.87,2.86-1.42,4.4l-2.19,6h7.31Z"/><path class="cls-6" d="M261.16,20.38a9.7,9.7,0,0,0,7.51,3.27c3,0,4.64-1.17,4.64-3.27s-1.23-3.14-4.62-4.15l-2-.59a15.81,15.81,0,0,1-4-1.7,4.88,4.88,0,0,1-2.32-4.23c0-4.09,3-6.47,8.09-6.47a12.78,12.78,0,0,1,7.61,2.55l-1.65,2.6a9.36,9.36,0,0,0-6-2.13c-2.69,0-4.28,1.15-4.28,3.08,0,1.77,1,2.55,4.45,3.59l2.18.64c4.34,1.29,6.42,3.45,6.42,6.69a6.06,6.06,0,0,1-2.78,5.13,11.36,11.36,0,0,1-5.9,1.4,12.15,12.15,0,0,1-9.27-3.89Z"/><path class="cls-6" d="M299.86,3.66V6.85H292.1V26.34h-3.67V6.85h-7.78V3.66Z"/><path class="cls-6" d="M319.65,3.66V6.71H307.78v6.44h10.5v3h-10.5v7.11h12.29v3.11H304.2V3.66Z"/><path class="cls-6" d="M326,20.38a9.68,9.68,0,0,0,7.5,3.27c3,0,4.65-1.17,4.65-3.27s-1.23-3.14-4.62-4.15l-2-.59a15.89,15.89,0,0,1-4-1.7,4.89,4.89,0,0,1-2.33-4.23c0-4.09,3-6.47,8.1-6.47A12.78,12.78,0,0,1,341,5.79l-1.65,2.6a9.36,9.36,0,0,0-6-2.13c-2.69,0-4.28,1.15-4.28,3.08,0,1.77,1,2.55,4.45,3.59l2.18.64c4.34,1.29,6.41,3.45,6.41,6.69a6,6,0,0,1-2.77,5.13,11.37,11.37,0,0,1-5.91,1.4,12.13,12.13,0,0,1-9.26-3.89Z"/><path class="cls-6" d="M364.71,3.66V6.85H357V26.34h-3.67V6.85H345.5V3.66Z"/><path class="cls-6" d="M399.29,23.76a12,12,0,0,1-8.49,3.06c-6.77,0-11.39-4.76-11.39-11.76s4.7-11.88,11.2-11.88a11.63,11.63,0,0,1,8.06,2.94l-1.9,2.61a8,8,0,0,0-6.11-2.44c-4.28,0-7.33,3.67-7.33,8.79A9.43,9.43,0,0,0,385,20.66a7.46,7.46,0,0,0,5.82,3,9.22,9.22,0,0,0,6.7-2.6Z"/><path class="cls-6" d="M408.36,3.66V17.77a5.93,5.93,0,0,0,1,3.7,5.45,5.45,0,0,0,4.54,2.15,5.68,5.68,0,0,0,4.48-2.07,5.92,5.92,0,0,0,1.09-3.78V3.66h3.61V18.47a7.76,7.76,0,0,1-1.56,5,9.42,9.42,0,0,1-7.62,3.33,9.53,9.53,0,0,1-7.7-3.41,7.81,7.81,0,0,1-1.48-5V3.66Z"/><path class="cls-6" d="M446.58,3.66V6.85h-7.76V26.34h-3.67V6.85h-7.78V3.66Z"/><path class="cls-6" d="M467.63,3.66V6.85h-7.75V26.34h-3.67V6.85h-7.78V3.66Z"/><path class="cls-6" d="M480.63,3.66V6.38h-3.08V23.62h3.08v2.72h-9.75V23.62H474V6.38h-3.08V3.66Z"/><path class="cls-6" d="M491.1,3.66l7.28,12,.19.3a48.88,48.88,0,0,1,2.61,4.9h.11c-.08-1.9-.14-5.37-.14-7.5V3.66h3.5V26.34h-3.58l-8.63-13.89a51.69,51.69,0,0,1-2.74-5.09h-.14c.14,1.87.22,4.9.22,8v11h-3.5V3.66Z"/><path class="cls-6" d="M527.61,23.43a7.86,7.86,0,0,1-6.47,3.39,10.43,10.43,0,0,1-8-3.28c-2-2.1-3-4.9-3-8.48,0-7,4.7-11.88,11.42-11.88a12.21,12.21,0,0,1,8.23,2.89l-2,2.49a8.89,8.89,0,0,0-6.19-2.27c-4.62,0-7.56,3.42-7.56,8.79,0,5.07,3,8.57,7.36,8.57a7.27,7.27,0,0,0,6-3.41V17.6h-6.1V14.75h9.44v11.7h-2.64Z"/></g></g></svg>