<svg xmlns="http://www.w3.org/2000/svg" viewBox="0 0 941.67 102.74"><defs><style>.cls-1{fill:#fff;}</style></defs><title>fas-050</title><g id="Layer_2" data-name="Layer 2"><g id="テキスト"><path class="cls-1" d="M6.3,2.56h4.9v8.33h7.11V.49h5v10.4H31V1.35h4.86v9.54h6.89v4.36H35.86v14H18.31v-14H11.2V35.86H40.81v4.37H11.2v3H6.3v-28H0V10.89H6.3Zm17,12.69V25H31V15.25Z"/><path class="cls-1" d="M75.42,21.42a45.18,45.18,0,0,0,13,5.22L85.9,30.87a48.63,48.63,0,0,1-9.63-4.28V43.24H71.19v-18h2.92a30.26,30.26,0,0,1-5.26-4.36h-5a26.07,26.07,0,0,1-5,4.77h2.79v2.29c0,8.69-2.7,13-10,15.8l-3.11-3.69c6-2.25,8.15-5.27,8.15-11.43V27.13a43.13,43.13,0,0,1-9.54,4.32l-2.61-3.78c6.16-1.62,10.62-3.78,13.95-6.79H50.13V2.07H82.62V20.88h-8ZM54.85,9.72H64v-4H54.85Zm0,7.42H64v-4H54.85ZM77.94,5.76H68.4v4h9.54Zm0,7.42H68.4v4h9.54Z"/><path class="cls-1" d="M110.83,39.6a19.74,19.74,0,0,0,7.83-4,28,28,0,0,1-5-8.37h-1.89V23.71h17l2.16,1.89a34.41,34.41,0,0,1-6,9.95,29.33,29.33,0,0,0,8.06,3.6l-2.7,4a29.1,29.1,0,0,1-8.46-4.59A27.77,27.77,0,0,1,113,43.47l-2.16-3.24v3h-4.54v-4.9c-3.78.76-9.77,1.66-15.44,2.25l-1.21-4.05c2.16-.09,3.1-.14,5-.32V21.28H90V17.64h42.75v3.64H110.83Zm17-24.39H95V1.44h32.89ZM99.09,21.28v2.66h7.2V21.28Zm0,5.58v2.7h7.2v-2.7Zm0,5.58v3.38l2.79-.32c2.16-.22,2.56-.27,3.06-.31l1.35-.18V32.44Zm.76-25.6h23.09V4.59H99.85Zm0,5.44h23.09V9.72H99.85Zm17.82,14.94a20.82,20.82,0,0,0,3.87,5.58,23.94,23.94,0,0,0,3.6-5.58Z"/><path class="cls-1" d="M145.57,33.93c2.93,2.92,6.57,4.09,13.64,4.23h19.26A15.74,15.74,0,0,0,177,42.34h-18c-8.19-.09-12.06-1.44-15.66-5.4a41.12,41.12,0,0,1-6.25,6.44l-2.47-4.46a44.29,44.29,0,0,0,6-4.41V23.17H135V18.85H145.3V33.66ZM142.42,12a47.18,47.18,0,0,0-6.61-8.41l3.6-2.79a42.73,42.73,0,0,1,6.84,8.1Zm17.19,14.76a32,32,0,0,1-9.76,8.69l-3-3.38A36.5,36.5,0,0,0,158.44,23h-9V11.79h10.21v-3H147.69v-4h11.92V.49h4.5V4.81H176.4v4H164.11v3h10.58V23H164.11v.85a87.17,87.17,0,0,1,12.42,6.75l-2.83,3.78a84.68,84.68,0,0,0-9.59-6.61V36.9h-4.5Zm-5.89-11.56v4.41h5.89V15.21Zm10.39,4.41h6.21V15.21h-6.21Z"/><path class="cls-1" d="M203.58,36.58c8.68-2.2,12.91-7,12.91-14.8,0-5.4-2.43-10-6.57-12.24a14.72,14.72,0,0,0-4.86-1.67c-1.35,10.44-3.15,17.1-6.43,23.54a19.74,19.74,0,0,1-3.33,5.08,7.14,7.14,0,0,1-5.09,2.43c-5.17,0-9.36-6.48-9.36-14.4A21.35,21.35,0,0,1,191,6.43a21.1,21.1,0,0,1,11.34-3.06c11.47,0,19.35,7.38,19.35,18.18,0,10.22-5.18,16.7-15.48,19.44ZM200.29,7.69a13.94,13.94,0,0,0-9,4.14,17.26,17.26,0,0,0-5.4,12.51c0,4.86,2,9.32,4.28,9.32,1.12,0,2.16-1,3.55-3.51,3.15-5.49,5.4-13.1,6.48-21.69Z"/><path class="cls-1" d="M234.45,27.31c0,1.22.27,1.35,2.56,1.35,1.89,0,2.43-.18,2.7-.85a29,29,0,0,0,.54-5.58l4.46,1.26c-.18,4.59-.63,6.79-1.58,8s-3,1.76-6.43,1.76c-5.4,0-7-.86-7-3.83V16.69l-4.95.81-.54-4.36,5.49-.86V.49h4.73v11L244.3,10l.36,4.32-10.21,1.62ZM254.56,8.1c-.85,19.62-3.91,27.4-13.45,34.65l-3.83-3.56c8.87-5.71,11.7-12.78,12.47-31.09h-8.28V3.55h24.61c-.13,18.05-.58,29-1.39,33.84-.59,3.74-2.16,5-6,5a51.76,51.76,0,0,1-6.8-.4l-1-4.82a54,54,0,0,0,6.57.68c1.71,0,2.12-.5,2.48-3.24a224.7,224.7,0,0,0,1.26-24.08V8.1Z"/><path class="cls-1" d="M282.1,22.54a42.54,42.54,0,0,1-4.72,9.5l-1.94-3v6h16.47v3.51c1.94-4.18,2.61-9.54,2.61-20.47V3.69A51.72,51.72,0,0,0,308.74.45l3,3.73A61.82,61.82,0,0,1,299,7.2v7.56H312.7v4.41h-4.45V43.24h-4.46V19.17H299v1.26c-.13,11.92-1.39,18.45-4.5,23.17l-3.73-3.06c.49-.81.72-1.12.85-1.39h-16.2v3.19h-4.27V1.84h4.27V5l3.69-1.35a47.15,47.15,0,0,1,2.34,8.87l-3.6,1.21a51.21,51.21,0,0,0-2.43-8.59v9.45h6.66V.49h4.23V14.58h6.75v3.87h-6.75v1.17a36.68,36.68,0,0,1,6.75,6.21l-2.43,3.69a44,44,0,0,0-4.32-5.85V33.84H282.1Zm-6.66-4.09v9.13a32,32,0,0,0,5.36-9.13Zm11.34-5.85a66.75,66.75,0,0,0,2.7-9.27l3.83,1.08a58.47,58.47,0,0,1-3.06,9.18Z"/><path class="cls-1" d="M347,5,350,7.56a77,77,0,0,1-8.86,16A117.46,117.46,0,0,1,355,36.4l-3.64,4.14a148.43,148.43,0,0,0-13.19-13.32A50.18,50.18,0,0,1,320,40.68l-2.66-4.55c11.39-4.18,21-13.81,26.51-26.64H320.53V5Z"/><path class="cls-1" d="M370.48,2.79v14A86,86,0,0,0,389.88,9l2.88,4.19a119.39,119.39,0,0,1-22.28,8.28V31.68c0,1.39.45,2,1.67,2.29a63,63,0,0,0,9.18.5c4.9,0,9.9-.27,15.7-.81v5c-5.53.4-9.9.58-15.66.58-9.45,0-12.24-.27-13.9-1.35-1.44-.94-2.12-2.56-2.12-5.17V2.79ZM403,6.16a5.54,5.54,0,1,1-11.07,0,5.54,5.54,0,0,1,11.07,0Zm-8.37,0a2.84,2.84,0,1,0,5.67,0,2.84,2.84,0,0,0-5.67,0Z"/><path class="cls-1" d="M445.72,18.63v4.95H407V18.63Z"/><path class="cls-1" d="M466.24,1.75V14.8A155.86,155.86,0,0,1,488,23.08l-2.48,4.73a148.63,148.63,0,0,0-19.26-8V41.71h-5.13v-40Zm14.13,11.84a42.32,42.32,0,0,0-4.45-8.15l3.42-1.26a39.9,39.9,0,0,1,4.54,8Zm6.3-1.44A37.76,37.76,0,0,0,482.26,4l3.29-1.08A30.8,30.8,0,0,1,490,10.53Z"/><path class="cls-1" d="M510.66,6.66c1.44-2.3,2.2-3.6,3-5l4.9.72c-.67,1.17-.72,1.26-2.34,3.87l-.27.45H531.4V11H513a80,80,0,0,1-5.49,6.88c2.92-1.71,5.17-2.47,7.56-2.47,3.6,0,5.85,1.75,7,5.31,3.38-1.08,8.6-2.79,11.48-3.69l1.89,4.27-.77.23-2.2.58c-4.1,1.13-7.29,2-9.81,2.84.18,2.16.31,4.09.36,7.38l-4.82.27c0-2.34,0-3.2-.09-5.67v-.45c-6.7,2.29-10.12,4.63-10.12,7s3,3.06,11.47,3.06a120.59,120.59,0,0,0,12.6-.67l.54,4.68c-4.68.36-8.14.49-13,.49-6,0-9.59-.36-12.11-1.26-2.88-1.08-4.36-3-4.36-5.71,0-3.47,2.16-6.12,7.11-8.69a54.65,54.65,0,0,1,7.29-3.1c-.59-2.25-1.49-3.11-3.33-3.11-3.29,0-8.73,2.93-14.18,7.7l-2.92-3.33A66.18,66.18,0,0,0,507.78,11h-9V6.66Z"/><path class="cls-1" d="M556.06,8.55v4H540v-4ZM555.43,41h-10v2.25h-4.24V28.12h14.22Zm-.76-38.88V5.8H541.94V2.11Zm0,13.19v3.64H541.94V15.3Zm0,6.43v3.56H541.94V21.73Zm-9.22,15.53h5.8V31.9h-5.8ZM575,9.13a21.85,21.85,0,0,0,8.32,6.39L581,19.3a28,28,0,0,1-5.72-4.05v3H562.45V16a32.91,32.91,0,0,1-4.81,3.6l-2.75-3.42a17.3,17.3,0,0,0,8-7h-6.17V5.22h8.06A41.41,41.41,0,0,0,566.19,0l4.63.72c-.63,2.3-.9,3.11-1.35,4.46h12.24V9.13Zm4,19.8c-.5,5.94-1.26,9.72-2.39,11.84-1,1.84-2.38,2.47-5.49,2.47a56.14,56.14,0,0,1-6.39-.45L564,38.56a40.85,40.85,0,0,0,6.07.59c1.71,0,2.25-.36,2.7-1.76a31.75,31.75,0,0,0,1-4.72h-9.72c-.32.85-.81,2-1.26,3.06l-4.59-1.17a44.84,44.84,0,0,0,3.33-8.73h-5.27V22h25.83v3.87H566.23c-.22.9-.31,1.21-.45,1.66s-.13.54-.4,1.44Zm-11.3-19.8a24.36,24.36,0,0,1-3.87,5.45h10.67a23.3,23.3,0,0,1-4.19-5.45Z"/><path class="cls-1" d="M616.86,2.92l2.34,3.65c-7.56,4.59-14.67,9.18-19.8,12.69A26.75,26.75,0,0,1,610.29,17c9,0,14.62,4.45,14.62,11.61A11.52,11.52,0,0,1,618,39.24a30.47,30.47,0,0,1-12.33,2.43c-7.56,0-11.74-2.61-11.74-7.34,0-3.91,3.82-7,8.72-7,5.4,0,9.05,3.2,10.44,9.27,4.5-1.44,6.75-4.14,6.75-8,0-4.91-3.73-7.88-9.9-7.88-4.36,0-9.22.9-11.88,2.25a48.14,48.14,0,0,0-7.33,4.82l-3.11-3.74a179.45,179.45,0,0,1,23.4-16.83H592.2V2.92ZM602.73,31.23c-2.34,0-4.19,1.39-4.19,3.19,0,2,2.7,3.2,7.25,3.2a30,30,0,0,0,3.06-.18C607.81,33.25,605.83,31.23,602.73,31.23Z"/><path class="cls-1" d="M667.71,5l2.83,2.39c-2,8.14-6.75,13.59-14.31,16.38L653.44,20c5.18-1.4,10.08-5.94,11.3-10.49H633.29V5Zm-15.3,9.5v3.78c0,12.51-2.75,18-11.21,22.72l-3.64-3.82c4.23-1.94,6.43-4,8.23-7.56,1.08-2.12,1.58-5.72,1.58-11.39V14.49Z"/><path class="cls-1" d="M690.93,23.4a119.15,119.15,0,0,0-13.23-4.86l1.89-4.41a85.83,85.83,0,0,1,13,4.72ZM680.54,35.5c9.85-.72,15.92-2.61,20.38-6.25,4.63-3.78,8-9.77,9.49-16.83l4.5,2.7c-4.09,16.51-13.63,23.8-33,25.29Zm14.89-23.35A99.56,99.56,0,0,0,682.2,7.29l1.44-4.37A65.71,65.71,0,0,1,697,7.56Zm12.91-2.07a38.27,38.27,0,0,0-4.5-7.74l3.47-1.26a38.69,38.69,0,0,1,4.5,7.65ZM715,8.86A39.06,39.06,0,0,0,710.59,1l3.24-1a26,26,0,0,1,4.46,7.42Z"/><path class="cls-1" d="M757.71,5l2.83,2.39c-2,8.14-6.75,13.59-14.31,16.38L743.44,20c5.18-1.4,10.08-5.94,11.3-10.49H723.29V5Zm-15.3,9.5v3.78c0,12.51-2.75,18-11.21,22.72l-3.64-3.82c4.23-1.94,6.43-4,8.23-7.56,1.08-2.12,1.58-5.72,1.58-11.39V14.49Z"/><path class="cls-1" d="M777.78,22.68a35.38,35.38,0,0,0,4-5.18L785,19.75a37.52,37.52,0,0,1-4.36,4.68A53.44,53.44,0,0,1,785,27.67l-2.84,3.69c-1.89-1.8-2.88-2.7-5.08-4.5V43.24h-4.68V24.61a60.11,60.11,0,0,1-5.45,4.68l-2.6-3.78c4.76-3.24,10.61-9.18,13.09-13.32H765.67V7.83h6.39V.49h4.77V7.83h4.95L783.9,10a60.19,60.19,0,0,1-6.84,9.63v2.66ZM794.61,8.1c-.36,17.91-3.51,27.13-12,34.78l-3.74-3.6c7.74-6.3,10.62-14.58,11-31.18h-6.66V3.55h22.9c-.09,19-.54,29-1.48,34.25-.63,3.55-2,4.63-5.85,4.63a58.47,58.47,0,0,1-6.35-.31l-.94-4.73a51.17,51.17,0,0,0,6.07.54c1.67,0,2.16-.4,2.43-2.07.72-4.41,1.22-13.9,1.35-25.2V8.1Z"/><path class="cls-1" d="M821.56,21.06c2.88,2.52,5.72,3.33,11.84,3.37h19.66a10.78,10.78,0,0,0-1.44,3.74H844.2v1.89h8.55V33.7H844.2v5.76c0,2.88-1,3.78-4.46,3.78a59.74,59.74,0,0,1-6.57-.31l-1.08-4.14c2.57.27,5,.45,6.12.45.9,0,1-.14,1-1V33.7H823a34.32,34.32,0,0,1,6.26,4.91l-3.6,3.1a48.7,48.7,0,0,0-7.29-6l2.43-2H810.13V30.06h29.12V28.17h-6.12c-6.35-.09-10.44-1.44-13.64-4.55a43.34,43.34,0,0,1-6.2,5.63l-2.62-3.87a34.65,34.65,0,0,0,6.26-4.19V15.7h-6V11.79h10.61ZM818.32,9a38.32,38.32,0,0,0-6.52-5.8l3.15-3a31.2,31.2,0,0,1,6.7,5.49Zm3.92-2.47V3.33h6.3a13.81,13.81,0,0,0-1.67-2.16L831.33.09a19.51,19.51,0,0,1,1.93,3.24H840c.63-1.26,1.08-2.25,1.49-3.24l4.72.94c-.49.86-.81,1.31-1.26,2l-.22.32h7.06V6.57H838.39a15.64,15.64,0,0,1-.85,1.53h11.07V22.9H825.12V8.1h7.6a15.08,15.08,0,0,0,.68-1.53Zm7.33,5.8h14.49v-1.8H829.57Zm0,4h14.49V14.58H829.57Zm0,4.14h14.49V18.54H829.57Z"/><path class="cls-1" d="M879.48,6.21c.4,15.39,5.53,24.34,18.31,32l-3.28,4.32C886.09,37.89,879.07,28.84,877,20l-.18.58c-2.57,10-8.19,17-18.09,22.5l-3.42-4.18C868,32.53,873.36,23.67,874.62,7.2H863.37V2.52h16.11Z"/><path class="cls-1" d="M923.58,36.58c8.68-2.2,12.91-7,12.91-14.8,0-5.4-2.43-10-6.57-12.24a14.72,14.72,0,0,0-4.86-1.67c-1.35,10.44-3.15,17.1-6.43,23.54a19.74,19.74,0,0,1-3.33,5.08,7.14,7.14,0,0,1-5.09,2.43c-5.17,0-9.36-6.48-9.36-14.4A21.35,21.35,0,0,1,911,6.43a21.1,21.1,0,0,1,11.34-3.06c11.47,0,19.35,7.38,19.35,18.18,0,10.22-5.18,16.7-15.48,19.44ZM920.29,7.69a13.94,13.94,0,0,0-9,4.14,17.26,17.26,0,0,0-5.4,12.51c0,4.86,2,9.32,4.28,9.32,1.12,0,2.16-1,3.55-3.51,3.15-5.49,5.4-13.1,6.48-21.69Z"/><path class="cls-1" d="M41.8,63.05v3.69H.94V63.05H18.81V59.49h4.81v3.56ZM15.61,97.7v1.8h-4.5V87.3h20V97.52c.85.09,2.2.18,3.15.18,1.26,0,1.53-.23,1.53-1.31V85.05H6.93v17.19H2.07V81.5H40.68V97.88c0,2.79-1.4,4-4.64,4-1.3,0-3-.09-5.26-.27l-.9-3.87Zm19.8-18.59H7.33v-10H35.41ZM12.15,75.69h18.4V72.5H12.15Zm3.46,15.12v3.38h11V90.81Z"/><path class="cls-1" d="M44,82.26A69,69,0,0,0,45.4,70.83l.14-2.16,3.82.41A72.22,72.22,0,0,1,47.83,84.2Zm11,20H50.35V59.49H55v6.93l2.61-2.16a36.92,36.92,0,0,1,2.79,6.44l-2.93,2.65A45.16,45.16,0,0,0,55,66.87ZM71.14,67.68V59.49h4.64v8.19H86.17V72H75.78v9.36h9.4v4.28h-9.4V96.48H87.52v4.28H58.68V96.48H71.14V85.64H61.47V81.36h9.67V72H64.66A34.43,34.43,0,0,1,61,79.79l-3.33-3A42.87,42.87,0,0,0,63,60.93l4.37.63c-.36,2.12-.86,4.37-1.31,6.12Z"/><path class="cls-1" d="M89.33,69.62c.9,0,2.2-.05,4-.09a62.67,62.67,0,0,0,4.59-10.22l4.95,1a63.88,63.88,0,0,1-4.72,9c1,0,1.71-.09,2.38-.09l1.76-.09,3.33-.18a3,3,0,0,1-.23-.4c-.58-1-1.26-2-2.2-3.42l3.73-1.85A56.5,56.5,0,0,1,113,72.9l-4.23,2.3c-.5-1.08-.63-1.4-1.31-2.75-4.45.54-10.35,1-17,1.31ZM109.8,98c0,2.88-1.13,3.87-4.46,3.87a31.84,31.84,0,0,1-4.36-.27l-.72-4.14c1.57.18,3.24.32,4,.32s1.08-.18,1.08-1.13v-4H96.75v9.58H92.21V76.5H109.8Zm-13-15h8.59V80.1H96.75Zm0,6.39h8.59v-3.1H96.75Zm21.42-23.22a62.84,62.84,0,0,0,9.76-4.59l3.29,3.33a61.84,61.84,0,0,1-13,5.27v3.73c0,.9.18,1.22.85,1.35.41.09,3,.23,4.1.23,1.89,0,3.24-.27,3.73-.68s.59-1.26.72-4v-.67l.05-.36,4.63,1.12c-.13,4.41-.49,6.26-1.35,7.25-1,1.12-3.55,1.57-9.13,1.57-6.89,0-8.33-.72-8.33-4.09V59.49h4.73Zm0,21.42A59.75,59.75,0,0,0,128.7,82.8l3.06,3.65a61.5,61.5,0,0,1-13.59,5.17v4c0,1.71.4,1.89,4.54,1.89,2.84,0,4.28-.22,4.68-.72s.68-2.61.77-5.62l4.68,1.26c-.05,4.5-.63,7-2,8.14-1.17,1-3.74,1.4-8.55,1.4-7.07,0-8.87-.86-8.87-4.19V81.18h4.73Z"/><path class="cls-1" d="M144.45,86.31c0,1.22.27,1.35,2.56,1.35,1.89,0,2.43-.18,2.7-.85a29,29,0,0,0,.54-5.58l4.46,1.26c-.18,4.59-.63,6.79-1.58,8s-3,1.76-6.43,1.76c-5.4,0-7-.86-7-3.83V75.69l-4.95.81-.54-4.36,5.49-.86V59.49h4.73v11L154.3,69l.36,4.32-10.21,1.62ZM164.56,67.1c-.85,19.62-3.91,27.4-13.45,34.65l-3.83-3.56c8.87-5.71,11.7-12.78,12.47-31.09h-8.28V62.55h24.61c-.13,18-.58,29-1.39,33.84-.59,3.74-2.16,5-6,5a51.76,51.76,0,0,1-6.8-.4l-1-4.82a54,54,0,0,0,6.57.68c1.71,0,2.12-.5,2.48-3.24a224.7,224.7,0,0,0,1.26-24.08V67.1Z"/><path class="cls-1" d="M192.1,81.54a42.54,42.54,0,0,1-4.72,9.5l-1.94-3v6h16.47v3.51c1.94-4.18,2.61-9.54,2.61-20.47V62.69a51.72,51.72,0,0,0,14.22-3.24l3,3.73a61.82,61.82,0,0,1-12.69,3v7.56H222.7v4.41h-4.45v24.07h-4.46V78.17H209v1.26c-.13,11.92-1.39,18.45-4.5,23.17l-3.73-3.06c.49-.81.72-1.12.85-1.39h-16.2v3.19h-4.27V60.84h4.27V64l3.69-1.35a47.15,47.15,0,0,1,2.34,8.87l-3.6,1.21a51.21,51.21,0,0,0-2.43-8.59v9.45h6.66V59.49h4.23V73.58h6.75v3.87h-6.75v1.17a36.68,36.68,0,0,1,6.75,6.21l-2.43,3.69a44,44,0,0,0-4.32-5.85V92.84H192.1Zm-6.66-4.09v9.13a32,32,0,0,0,5.36-9.13Zm11.34-5.85a66.75,66.75,0,0,0,2.7-9.27l3.83,1.08a58.47,58.47,0,0,1-3.06,9.18Z"/><path class="cls-1" d="M255.82,86a25.57,25.57,0,0,0,1.76,4.77,36.2,36.2,0,0,0,4-4.63l3.24,2.25A45.71,45.71,0,0,1,260,93.87l-.13.14-.14.09c1.26,1.62,3.2,3.19,3.92,3.19.49,0,.67-.9,1.08-5.26l3.73,2c-.45,5.72-1.62,8.24-3.78,8.24s-5.8-2.34-8.1-5.31a61.72,61.72,0,0,1-7.74,5.53l-2.47-3.19a50,50,0,0,0,8-5.58A29.27,29.27,0,0,1,251.59,86h-5.26c-.09.81-.27,1.89-.41,2.61a32.18,32.18,0,0,1,5.31,4L248.89,96A23.61,23.61,0,0,0,245,92.12a23.86,23.86,0,0,1-5.26,9.18l-3-3.06A24.25,24.25,0,0,0,242.1,86h-4.37L237,87.44c-.81-2.12-1.49-3.74-2.3-5.45v20.25h-4.32V81.86a54,54,0,0,1-4,10.71l-2.07-4.68a49.7,49.7,0,0,0,5.58-15H225V68.54h5.39V59.49h4.32v9.05h3.69V72.9h-3.69v3.33c1.67,2.43,2.57,3.87,3.74,5.76H251A131.82,131.82,0,0,1,250.11,68L250,59.49h4l.09,8.69c0,3.33.13,5.31.27,7.42h.76l.68,0c.36-.45.4-.5.72-1l1.48-2a62.33,62.33,0,0,0-3.73-5.13l1.93-1.31a33.67,33.67,0,0,0,3.47-6.52l3.37,2a37.72,37.72,0,0,1-4.23,6.3,19.42,19.42,0,0,1,1.17,1.76c1.13-1.67,2.07-3.15,3.2-5l3.15,2.07a85.26,85.26,0,0,1-6.84,8.59l1-.09c1.26-.09,1.76-.13,2.84-.27-.32-.81-.54-1.3-.9-2.07l3-1.26a28.46,28.46,0,0,1,2.39,7.16L264.82,80a17.83,17.83,0,0,0-.54-2.16c-3.33.63-6.61,1.08-9.13,1.31l-.45,0L255,82h4.46a20.61,20.61,0,0,0-1.62-1.62l3.37-1.26A28.83,28.83,0,0,1,263.38,82H268v4ZM242.14,72.77a50.84,50.84,0,0,0-4-4.77l1.67-1.13a34.86,34.86,0,0,0,3.91-7l3.33,1.66a54.45,54.45,0,0,1-4.23,6.53c.77.94,1.13,1.39,1.31,1.57a6.59,6.59,0,0,1,.4-.63c.81-1.35,1.53-2.61,2.48-4.36l2.79,2.07a78.81,78.81,0,0,1-6.71,9.67c1.58-.09,2.61-.18,3.74-.31-.23-.68-.54-1.44-.81-2l2.43-1.39A28.25,28.25,0,0,1,250.56,79L248,80.51l-.32-1.44c-2.83.58-5.76,1.08-9,1.48l-.94-3.78c.54,0,1,0,1.21-.09h.41c.58-.81,1.53-2.11,2.2-3.1Z"/><path class="cls-1" d="M271.44,64.85c11.61-.14,27.4-.59,38.2-1l.27,4.37c-5.62.27-9.22,1-12.33,2.43-6,2.74-9.67,8-9.67,14,0,3.38,1,5.49,3.28,7.16,2.61,1.84,6.21,3,11.61,3.69l-1,5c-7-1-11.48-2.61-14.36-5.27A13.3,13.3,0,0,1,283,84.74,16.93,16.93,0,0,1,287,74.25a18.93,18.93,0,0,1,8.05-5.76c-4.9.14-14.58.59-23.39,1Zm31.95,18.94A36.74,36.74,0,0,0,299,76l3.42-1.26a38.45,38.45,0,0,1,4.41,7.74Zm5.94-2.29A34.15,34.15,0,0,0,305,73.62l3.29-1.17A28.15,28.15,0,0,1,312.61,80Z"/><path class="cls-1" d="M326.11,101.52a79.45,79.45,0,0,0-9.17-11l3.55-3.15a73.24,73.24,0,0,1,9.36,10.76Z"/><path class="cls-1" d="M379.3,63.05v3.69H338.44V63.05h17.87V59.49h4.81v3.56ZM353.11,97.7v1.8h-4.5V87.3h20V97.52c.85.09,2.2.18,3.15.18,1.26,0,1.53-.23,1.53-1.31V85.05H344.43v17.19h-4.86V81.5h38.61V97.88c0,2.79-1.4,4-4.64,4-1.3,0-3-.09-5.26-.27l-.9-3.87Zm19.8-18.59H344.83v-10h28.08Zm-23.26-3.42h18.4V72.5h-18.4Zm3.46,15.12v3.38h11V90.81Z"/><path class="cls-1" d="M401.8,101.75h-4.63V99.5h-8.06v2.74h-4.67V81.05H401.8Zm-12.69-6.44h8.06V85.23h-8.06ZM417.6,76.73H390.15V60.89H417.6Zm-22.5-4.1h17.5V65.12H395.1Zm28.21,29.61h-4.68V99.5h-8.32v2.74h-4.64V81.05h17.64Zm-13-6.93h8.32V85.19h-8.32Z"/><path class="cls-1" d="M432.27,94.59V75.24c-.14.18-.14.23-.32.45s-.49.63-1.07,1.35l-3.34-3.15a10,10,0,0,0,2.84-7.11V60.84l.58,0h.59a84.55,84.55,0,0,0,14-1.67l2.7,3.15a102.85,102.85,0,0,1-13.37,1.62v1.89h13.77v3.42h-5v5.13h6.66l-2.88-2.25A7.28,7.28,0,0,0,450,67V60.84l.63,0h.59a76.06,76.06,0,0,0,13.63-1.67l2.75,3.11a89.51,89.51,0,0,1-13.19,1.66v1.89H470v3.42h-6.79v5.13h2.56V94.59h-9.45a82.27,82.27,0,0,1,13.86,4l-3.33,3.91a114.94,114.94,0,0,0-14.71-5.26l2.29-2.66H442.21L445,97.16a65.61,65.61,0,0,1-14.31,5.58l-3.06-4.14a61.56,61.56,0,0,0,13.36-4Zm6.88-25.38h-4.41l0,.27-.05.18a13,13,0,0,1-1.8,4.68h6.3Zm-2,8.33v2.52h23.76V77.54Zm0,7.92h23.76V83H437.13Zm0,5.76h23.76v-2.7H437.13Zm21.6-16.88V69.21h-4.64a10.6,10.6,0,0,1-3,5.13Z"/><path class="cls-1" d="M498.82,80.87a5,5,0,1,1-4.9-5A5,5,0,0,1,498.82,80.87Z"/><path class="cls-1" d="M530,77h6.53v4.23h-6.61a41.24,41.24,0,0,1-.55,5.26,49.74,49.74,0,0,1,6.57,6.93L533,97.65a48.11,48.11,0,0,0-4.9-6.3,23.19,23.19,0,0,1-7.83,11.16l-3.24-3.82c5.13-3.74,7.92-9.5,8.41-17.46h-8.05V77h8.14V68.9H524a25.57,25.57,0,0,1-3.33,6.21l-3.51-2.48c2.29-3.33,3.73-7.42,4.72-13.18l4.68.68c-.22.89-.45,1.66-.59,2.33-.13.45-.27,1-.58,2.16h9.63V68.9H530Zm18.59,19.71A92.91,92.91,0,0,0,552,86l4.81,1.44A77.44,77.44,0,0,1,553,96.71h7.33v4.18H534.42V96.71Zm10.57-34.79v4.14h-23.4V61.92Zm-1.84,23.54h-19.8V70.92h19.8Zm-15.8,11.07A55.76,55.76,0,0,0,538,87.8l4.19-1.67a56.3,56.3,0,0,1,3.6,8.55Zm.5-14.9h10.71V74.84H542Z"/><path class="cls-1" d="M562.28,79.29c.85,0,1,0,1.48,0s.81,0,1.75-.09c.91-1,1.53-1.8,2.75-3.33a51.48,51.48,0,0,0-5.94-7.38l2.61-3.2,1.21,1.26a46.79,46.79,0,0,0,3.92-7.29l3.87,2a59.25,59.25,0,0,1-5.45,8.1c.95,1.21,1.4,1.89,2.3,3.19,2.16-3,3.42-4.86,3.87-5.44.49-.77.9-1.4,1.75-2.75l3.42,2.39a109.64,109.64,0,0,1-9.62,12.19c2.34-.18,3.32-.22,5.35-.45a33.39,33.39,0,0,0-1.22-3.19l3.2-1.26a46.61,46.61,0,0,1,2.92,8.68l-3.24,1.76c-.31-1.35-.45-1.89-.67-2.7-.86.13-1.85.27-2.83.45v20h-4.28V82.76c-2.21.27-4.41.45-6.3.58Zm0,17.64A39.47,39.47,0,0,0,564,85.41l3.92.5a51.18,51.18,0,0,1-1.72,12.91ZM576,95.85A63.65,63.65,0,0,0,574.42,86l3.38-1a58.83,58.83,0,0,1,1.75,9Zm14.4-36.36h4.27v7.79h9.72V98.06c0,2.7-1.17,3.82-4,3.82-1.17,0-2.61-.09-5.89-.4l-.77-4.55a33.79,33.79,0,0,0,5,.5c1.08,0,1.35-.27,1.35-1.31V87l-2.29,3.55a70.38,70.38,0,0,0-4.64-7.69,27.38,27.38,0,0,1-5.49,10.21l-2.74-3.64c3.87-4.77,5.26-9.36,5.53-17.91h-5.58v30.73h-4.18v-35h9.81Zm4,12c0,.58,0,.72-.09,1.62-.18,2.92-.27,4-.4,5A47.12,47.12,0,0,1,600,85.59V71.51Z"/><path class="cls-1" d="M607.23,99.14a24.71,24.71,0,0,0,6.12-7.7l4,2.07a27.17,27.17,0,0,1-6.61,8.87Zm4.23-39.65h4.27v5.9h7v-5.9H627v5.9h2.75v3.87H627v17.5h3.11v4H607.46v-4h4V69.26h-3.24V65.39h3.24Zm4.27,9.77V72.9h7V69.26Zm0,6.88v3.65h7V76.14Zm0,6.84v3.78h7V83Zm9.09,16.7a21.61,21.61,0,0,0-4.14-6.21L624.19,91a25.26,25.26,0,0,1,4.19,5.22Zm23.76-1.89c0,3-1.21,4.09-4.59,4.09a42.22,42.22,0,0,1-5.08-.27L638,97a39.3,39.3,0,0,0,4.45.36c1.26,0,1.58-.27,1.58-1.48V86.58H636l0,.77c-.45,6.7-1.94,11.07-5.22,15l-3.56-3.15c3.06-3.73,4.37-8.73,4.37-16.78V61.07h17.05ZM636.07,65.34v6.48h8V65.34Zm0,10.49v6.75h8V75.83Z"/><path class="cls-1" d="M668.16,65.66c1.44-2.3,2.2-3.6,3-5l4.9.72c-.67,1.17-.72,1.26-2.34,3.87l-.27.45H688.9V70H670.5A80,80,0,0,1,665,76.86c2.92-1.71,5.17-2.47,7.56-2.47,3.6,0,5.85,1.75,7,5.31,3.38-1.08,8.6-2.79,11.48-3.69l1.89,4.27-.77.23-2.2.58c-4.1,1.13-7.29,2-9.81,2.84.18,2.16.31,4.09.36,7.38l-4.82.27c0-2.34,0-3.2-.09-5.67v-.45c-6.7,2.29-10.12,4.63-10.12,7s3,3.06,11.47,3.06a120.59,120.59,0,0,0,12.6-.67l.54,4.68c-4.68.36-8.14.49-13,.49-6,0-9.59-.36-12.11-1.26-2.88-1.08-4.36-3-4.36-5.71,0-3.47,2.16-6.12,7.11-8.69a54.65,54.65,0,0,1,7.29-3.1c-.59-2.25-1.49-3.11-3.33-3.11-3.29,0-8.73,2.93-14.17,7.7l-2.93-3.33A66.18,66.18,0,0,0,665.28,70h-8.95V65.66Z"/><path class="cls-1" d="M721.12,71.37h11v3.56h-11v3.28h14.09v3.6H721.12v3.47h19.13v3.87h-18c2.88,4.09,10.12,7.78,17,8.73l-2.52,4.36C729,100.8,722.43,96.8,719.14,91.4c-2.61,5.89-8.46,9.45-18.09,10.93l-2.51-4.09q14.24-1.89,16.87-9.09H697.5V85.28h18.85V81.81H702.76v-3.6h13.59V74.93H705.64V71.37h10.71V67.82H703.84V74H699V64.13h17.28V59.49h4.81v4.64h17.55V74h-4.81V67.82H721.12Z"/><path class="cls-1" d="M753.34,74.84h4.82v4.27h-4.82v9.32c2.75-1,3.56-1.35,5.49-2.21l.41,4.14a107.26,107.26,0,0,1-15.93,6.48l-1.53-4.72c2.21-.59,3.82-1,6-1.76l.86-.27v-11h-5.4V74.84h5.4v-9h-6V61.47h16v4.37h-5.27Zm22.82,21.24c0,1,.31,1.21,2.11,1.21s2.21-.18,2.43-.94a32,32,0,0,0,.54-5.63l4.28,1.49c-.41,8.73-1,9.49-7.56,9.49-3,0-4.32-.18-5.18-.72a2.67,2.67,0,0,1-1.21-2.52V86.94h-3.06c-.41,9-3.78,13-13.41,15.53l-2.57-3.74C761.35,96.35,763.6,94,764,86.94h-3.83V61.25h22V86.94h-6ZM764.73,68.9H777.6V65.07H764.73Zm0,7.11H777.6V72.23H764.73Zm0,7.24H777.6V79.38H764.73Z"/><path class="cls-1" d="M804.42,93.78a7.56,7.56,0,1,1-7.52-7.56A7.61,7.61,0,0,1,804.42,93.78Zm-11.66,0a4.1,4.1,0,1,0,4.1-4.09A4.17,4.17,0,0,0,792.76,93.78Z"/></g></g></svg>