<svg xmlns="http://www.w3.org/2000/svg" viewBox="0 0 180 16.9"><defs><style>.cls-1{fill:none;stroke:#b9babd;stroke-miterlimit:10;}.cls-2{fill:#b60f52;}.cls-3{fill:#bababa;}</style></defs><title>fas-060</title><g id="Layer_2" data-name="Layer 2"><g id="テキスト"><line class="cls-1" y1="16.4" x2="180" y2="16.4"/><path class="cls-2" d="M4.39.38,7,6.35A18.82,18.82,0,0,1,8,9h.07A18.76,18.76,0,0,1,9,6.35l2.64-6h3v13h-2V6.72c0-1.29,0-3.71.1-4.67h-.07a39.38,39.38,0,0,1-1.46,3.84L8.87,11.17H7.2L4.79,5.89A34.19,34.19,0,0,1,3.33,2.05H3.27c.06,1.33.09,2.93.09,4.67v6.63h-2V.38Z"/><path class="cls-3" d="M31.25,8.61a4.7,4.7,0,0,1-4.83,5,4.71,4.71,0,0,1-4.85-5,4.84,4.84,0,1,1,9.68,0Zm-7.63,0c0,2,1.13,3.37,2.8,3.37S29.2,10.6,29.2,8.6,28,5.23,26.42,5.23,23.62,6.66,23.62,8.6Z"/><path class="cls-3" d="M39.1,3.91,40.93,9l0,.1A19.53,19.53,0,0,1,41.57,11h.06c.15-.51.28-.88.61-1.82l0-.16,1.82-5.07h2.25l-3.91,9.6H40.77l-3.92-9.6Z"/><path class="cls-3" d="M55.12,0V2.05H52.9V0ZM55,3.91v9.44H53V3.91Z"/><path class="cls-3" d="M64.43,9a2.84,2.84,0,0,0,3,3,3.75,3.75,0,0,0,3-1.42l1.11,1.28a5.49,5.49,0,0,1-4.28,1.81,4.62,4.62,0,0,1-4.93-4.93c0-3,1.95-5.08,4.74-5.08a4.43,4.43,0,0,1,4.45,4.76V9Zm5-1.42A2.37,2.37,0,0,0,67,5.15a2.64,2.64,0,0,0-2.55,2.39Z"/></g></g></svg>