<svg xmlns="http://www.w3.org/2000/svg" viewBox="0 0 223.06 76.47"><defs><style>.cls-1{fill:none;stroke:#bbb;stroke-miterlimit:10;}.cls-2{fill:#b60f52;}.cls-3{fill:#bababa;}.cls-4{fill:#182b7b;}</style></defs><title>Asset 90</title><g id="Layer_2" data-name="Layer 2"><g id="テキスト"><line class="cls-1" y1="19.99" x2="180" y2="19.99"/><path class="cls-2" d="M10.21,0V1.78H3.62V5.6H9.43V7.3H3.62V13h-2V0Z"/><path class="cls-3" d="M18.63,8.58a2.84,2.84,0,0,0,3,3,3.73,3.73,0,0,0,3-1.43l1.11,1.28a5.45,5.45,0,0,1-4.28,1.81,4.62,4.62,0,0,1-4.93-4.93c0-3,2-5.07,4.74-5.07A4.42,4.42,0,0,1,25.73,8v.58Zm5-1.42A2.36,2.36,0,0,0,21.2,4.77a2.63,2.63,0,0,0-2.54,2.39Z"/><path class="cls-3" d="M39,6.69c0-1.2-.77-1.84-2.23-1.84a5,5,0,0,0-3.09,1l-.84-1.29a7,7,0,0,1,4-1.28c2.66,0,4,1.26,4,3.71v3.15A6.41,6.41,0,0,0,41.4,13H39.62a6.46,6.46,0,0,1-.45-1.59h-.06a4.19,4.19,0,0,1-1.35,1.33,4,4,0,0,1-2.11.51,3,3,0,0,1-3.25-3C32.4,8.15,34.22,7,37.67,7H39Zm-.83,1.65c-2.55,0-3.7.56-3.7,1.81,0,.89.7,1.49,1.76,1.49A2.7,2.7,0,0,0,39,9.12V8.34Z"/><path class="cls-3" d="M51.54,3.52h2.91V5.07H51.54v5.09a2.55,2.55,0,0,0,.11,1,.88.88,0,0,0,.83.47,3,3,0,0,0,1.6-.52l.42,1.41a4.46,4.46,0,0,1-2.5.67c-1.6,0-2.46-1-2.46-2.72V5.07H47.3V3.52h2.24v-2l2-.89Z"/><path class="cls-3" d="M63.39,3.52V9.06c0,1.55.64,2.38,1.84,2.38A3.2,3.2,0,0,0,68,9.09V3.52h2V13h-2v-1.8a4.1,4.1,0,0,1-3.33,2c-2.19,0-3.36-1.31-3.36-3.76V3.52Z"/><path class="cls-3" d="M79.63,6.15c.58-2,1.57-2.87,3.14-2.87a2.85,2.85,0,0,1,1.3.27l-.55,1.83a2.74,2.74,0,0,0-1-.16c-1.46,0-2.53,1.2-2.85,3.17V13h-2V3.52h1.93l-.06,2.63Z"/><path class="cls-3" d="M91.73,8.58a2.84,2.84,0,0,0,3,3,3.76,3.76,0,0,0,3-1.43l1.1,1.28a5.44,5.44,0,0,1-4.27,1.81,4.61,4.61,0,0,1-4.93-4.93c0-3,1.95-5.07,4.73-5.07A4.42,4.42,0,0,1,98.83,8v.58Zm5-1.42A2.36,2.36,0,0,0,94.3,4.77a2.63,2.63,0,0,0-2.54,2.39Z"/><path class="cls-3" d="M106.32,10.56a5.32,5.32,0,0,0,3.23,1.06c1.22,0,1.86-.4,1.86-1.17S110.88,9.38,109.5,9l-.83-.24c-2-.56-2.75-1.36-2.75-2.77,0-1.62,1.44-2.72,3.55-2.72a5.88,5.88,0,0,1,3.73,1.12l-.89,1.33a4.71,4.71,0,0,0-2.81-.88c-.94,0-1.56.45-1.56,1.13a.89.89,0,0,0,.49.77,4.67,4.67,0,0,0,1.07.42l.24.08.93.3c2,.66,2.84,1.48,2.84,2.85,0,1.83-1.44,2.88-3.91,2.88a6.28,6.28,0,0,1-4.16-1.33Z"/><path class="cls-4" d="M19.54,52.22V57H3.5v-4.8Z"/><path class="cls-4" d="M69.12,58.61A26.89,26.89,0,0,0,71,63.7a39.32,39.32,0,0,0,4.22-5l3.46,2.4a50.59,50.59,0,0,1-5.14,5.91l-.14.14-.15.1c1.35,1.72,3.41,3.4,4.18,3.4.53,0,.72-1,1.15-5.61l4,2.16c-.48,6.09-1.72,8.78-4,8.78s-6.19-2.49-8.64-5.66a66.34,66.34,0,0,1-8.26,5.9L59,72.86a52.58,52.58,0,0,0,8.55-6,31.07,31.07,0,0,1-2.93-8.3H59c-.09.86-.28,2-.43,2.78a34.16,34.16,0,0,1,5.67,4.32l-2.5,3.6a26,26,0,0,0-4.13-4.13A25.48,25.48,0,0,1,52,75l-3.22-3.27a25.85,25.85,0,0,0,5.71-13.1H49.83L49,60.19c-.86-2.25-1.59-4-2.45-5.81V76H42V54.24a57.31,57.31,0,0,1-4.27,11.42l-2.21-5a52.6,52.6,0,0,0,6-16H36.19V40H42V30.38h4.61V40H50.5v4.66H46.56v3.55c1.78,2.59,2.74,4.13,4,6.14h13.4A137.94,137.94,0,0,1,63,39.5l-.1-9.12h4.32l.1,9.27c0,3.55.14,5.66.28,7.92h.82l.72,0c.38-.48.43-.53.77-1l1.58-2.16a66.07,66.07,0,0,0-4-5.47l2.06-1.39a36,36,0,0,0,3.7-7l3.6,2.16a41.76,41.76,0,0,1-4.51,6.72,21.5,21.5,0,0,1,1.25,1.87c1.2-1.78,2.2-3.36,3.4-5.38l3.36,2.21a89.67,89.67,0,0,1-7.29,9.17l1.1-.1c1.35-.09,1.87-.14,3-.29-.34-.86-.58-1.39-1-2.2l3.21-1.35A30.52,30.52,0,0,1,82,51l-3.32,1.29a18,18,0,0,0-.57-2.3c-3.55.67-7.06,1.15-9.75,1.39l-.48,0c.15,1.25.29,2.59.34,3H73a18.76,18.76,0,0,0-1.73-1.72l3.6-1.35a30,30,0,0,1,2.31,3.07h4.89v4.23ZM54.53,44.54a58.51,58.51,0,0,0-4.22-5.09l1.77-1.2a36.54,36.54,0,0,0,4.18-7.44l3.55,1.78a58.75,58.75,0,0,1-4.51,7c.81,1,1.2,1.49,1.39,1.68.1-.19.24-.38.43-.67.87-1.44,1.63-2.79,2.64-4.66l3,2.21a84.14,84.14,0,0,1-7.15,10.32c1.68-.1,2.78-.19,4-.34-.24-.72-.58-1.53-.86-2.16l2.59-1.48a30.3,30.3,0,0,1,2.21,6.76L60.82,52.8l-.34-1.54c-3,.63-6.14,1.16-9.6,1.59l-1-4c.58,0,1.11,0,1.3-.09h.43c.63-.87,1.63-2.26,2.35-3.31Z"/><path class="cls-4" d="M102.58,46.75h4v6.67h2.78V46.75h3.89v6.67h2.35V57.6h-2.35v9.89h-3.89V57.6h-2.78c-.14,7.44-1.25,11.28-4.32,15l-3.17-3.22c2.31-2.83,3.27-6.24,3.41-11.81h-2V55.54l-2.69,4.27c-.91-2.07-1.53-3.46-2.3-4.9V76h-4.8V54.77a56.2,56.2,0,0,1-5.09,11.47l-2.16-5.47a52.41,52.41,0,0,0,6.77-16h-6V40.22h6.43V30.38h4.8v9.84h3.74v4.51H95.57v3.94c1.73,2,3.26,3.94,5,6.29V53.42h2ZM107,72.86a32.67,32.67,0,0,0,11-10.46c-1.25-4.66-2-9.89-2.55-17.91v-.38H100.47V39.84h14.64c-.15-2.35-.29-6.63-.29-9.46h4.66c0,5.23.09,7,.28,9.46h10v4.27H120a105.4,105.4,0,0,0,1.3,12.43,54.11,54.11,0,0,0,3.41-9l4.17,2.06A59.49,59.49,0,0,1,122.79,63c.86,3.08,2.3,6.29,2.83,6.29s1-2.93,1.3-6.62l3.69,2.49C129.75,72.43,128.21,76,126,76c-1.92,0-4.42-3.27-6.39-8.41a41.11,41.11,0,0,1-9.6,8.89Zm18.29-33.41a36.08,36.08,0,0,0-4.08-6.76L124.66,31A32.77,32.77,0,0,1,129,37.34Z"/><path class="cls-4" d="M131.52,41.18c1,0,2.35,0,4.22-.09a66.38,66.38,0,0,0,4.9-10.9l5.28,1.1a67.81,67.81,0,0,1-5,9.65c1.06,0,1.83-.09,2.54-.09l1.88-.1c.67,0,1.68-.1,3.55-.19-.14-.24-.14-.24-.24-.43C148,39,147.27,38,146.26,36.48l4-2a60,60,0,0,1,6.48,10.18l-4.51,2.44c-.53-1.15-.67-1.48-1.39-2.92-4.75.57-11,1-18.1,1.39Zm21.84,30.29c0,3.07-1.2,4.13-4.75,4.13a33,33,0,0,1-4.66-.29l-.76-4.41c1.68.19,3.45.33,4.27.33s1.15-.19,1.15-1.2V65.76h-9.17V76h-4.85V48.53h18.77Zm-13.92-16h9.17V52.37h-9.17Zm0,6.82h9.17V58.94h-9.17Zm22.85-24.77a67.77,67.77,0,0,0,10.42-4.9l3.5,3.55a65.69,65.69,0,0,1-13.92,5.62v4c0,1,.19,1.3.91,1.44.43.1,3.17.24,4.37.24,2,0,3.46-.29,4-.72s.62-1.34.76-4.22v-.72l.05-.39,4.95,1.2c-.15,4.71-.53,6.68-1.44,7.73-1.11,1.2-3.8,1.68-9.75,1.68-7.34,0-8.88-.77-8.88-4.37V30.38h5Zm0,22.85a64.53,64.53,0,0,0,11.23-5.09l3.27,3.89a66,66,0,0,1-14.5,5.52v4.22c0,1.82.43,2,4.85,2,3,0,4.56-.24,5-.77s.72-2.79.82-6l5,1.34c-.05,4.8-.67,7.49-2.11,8.69-1.25,1.06-4,1.49-9.12,1.49-7.54,0-9.46-.91-9.46-4.47V53.52h5Z"/><path class="cls-4" d="M204.1,45c-1.49,15.51-6.77,24-18.92,30.39L181.39,71a28.91,28.91,0,0,0,13.88-13.15,35.72,35.72,0,0,0,3.26-12.39l.05-.53H182.69v-4.8h16.37l.38-9.79h5.43l-.44,9.79h18.63l-.1,4.32c-.19,13.06-.81,21.7-1.72,25.64-.82,3.41-2.93,4.85-7.06,4.85a67,67,0,0,1-9-.67l-1-5.48a51.14,51.14,0,0,0,8.26.91c2.45,0,3.22-.57,3.6-2.59.77-4.32,1.25-11.47,1.54-22.18Z"/></g></g></svg>