<svg xmlns="http://www.w3.org/2000/svg" xmlns:xlink="http://www.w3.org/1999/xlink" viewBox="0 0 204.94 30"><defs><style>.cls-1{fill:none;}.cls-2{clip-path:url(#clip-path);}.cls-3{fill:#fff;}.cls-4{clip-path:url(#clip-path-2);}.cls-5{fill:#be0f52;}</style><clipPath id="clip-path" transform="translate(0 0)"><rect class="cls-1" width="30" height="30"/></clipPath><clipPath id="clip-path-2" transform="translate(0 0)"><circle class="cls-1" cx="15" cy="32.5" r="15"/></clipPath></defs><title>ft_contact01</title><g id="Layer_2" data-name="Layer 2"><g id="ヘッダー_フッター" data-name="ヘッダー・フッター"><g class="cls-2"><path class="cls-3" d="M15,3A12,12,0,1,1,3,15,12,12,0,0,1,15,3m0-3A15,15,0,1,0,30,15,15,15,0,0,0,15,0Z" transform="translate(0 0)"/><g class="cls-4"><path class="cls-5" d="M15,3A12,12,0,1,1,3,15,12,12,0,0,1,15,3m0-3A15,15,0,1,0,30,15,15,15,0,0,0,15,0Z" transform="translate(0 0)"/></g></g><path class="cls-3" d="M62.48,22.38A12,12,0,0,1,54,25.43c-6.77,0-11.39-4.76-11.39-11.76S47.3,1.8,53.8,1.8a11.58,11.58,0,0,1,8.06,2.94L60,7.34A8,8,0,0,0,53.85,4.9c-4.28,0-7.33,3.67-7.33,8.79a9.43,9.43,0,0,0,1.62,5.58,7.44,7.44,0,0,0,5.82,3,9.22,9.22,0,0,0,6.7-2.61Z" transform="translate(0 0)"/><path class="cls-3" d="M88.77,13.58c0,7-4.54,11.85-11.09,11.85S66.59,20.58,66.59,13.58,71.18,1.8,77.68,1.8,88.77,6.67,88.77,13.58Zm-18.29,0c0,5.18,2.92,8.7,7.2,8.7s7.2-3.52,7.2-8.7-2.94-8.74-7.2-8.74S70.48,8.4,70.48,13.56Z" transform="translate(0 0)"/><path class="cls-3" d="M98.9,2.27l7.28,12,.2.31a46.54,46.54,0,0,1,2.6,4.9h.12c-.09-1.91-.14-5.38-.14-7.51V2.27h3.5V25h-3.59l-8.62-13.89A54.32,54.32,0,0,1,97.5,6h-.14c.14,1.87.23,4.9.23,8V25h-3.5V2.27Z" transform="translate(0 0)"/><path class="cls-3" d="M135.92,2.27V5.46h-7.76V25H124.5V5.46h-7.79V2.27Z" transform="translate(0 0)"/><path class="cls-3" d="M150.68,2.16,159.61,25h-4l-2.32-6.21H144L141.72,25h-4l8.93-22.79Zm-.51,7.7c-.45-1.23-1.26-3.64-1.43-4.4h-.11c-.22.9-.87,2.86-1.43,4.4l-2.18,6h7.31Z" transform="translate(0 0)"/><path class="cls-3" d="M182.68,22.38a12,12,0,0,1-8.49,3.05c-6.77,0-11.39-4.76-11.39-11.76S167.5,1.8,174,1.8a11.58,11.58,0,0,1,8.06,2.94l-1.9,2.6a8,8,0,0,0-6.11-2.44c-4.28,0-7.33,3.67-7.33,8.79a9.5,9.5,0,0,0,1.62,5.58,7.45,7.45,0,0,0,5.83,3,9.2,9.2,0,0,0,6.69-2.61Z" transform="translate(0 0)"/><path class="cls-3" d="M204.94,2.27V5.46h-7.76V25h-3.67V5.46h-7.78V2.27Z" transform="translate(0 0)"/></g></g></svg>