<?xml version="1.0" encoding="utf-8"?>
<!-- Generator: Adobe Illustrator 24.0.0, SVG Export Plug-In . SVG Version: 6.00 Build 0)  -->
<svg version="1.1" id="Layer_1" xmlns="http://www.w3.org/2000/svg" xmlns:xlink="http://www.w3.org/1999/xlink" x="0px" y="0px"
	 viewBox="0 0 272.3 62.8" style="enable-background:new 0 0 272.3 62.8;" xml:space="preserve">
<title>ft_logo</title>
<g id="Layer_2_1_">
	<g id="ヘッダー_フッター">
		<path d="M72.5,25.5h2c0.5,0.1,0.9,0.7,0.8,1.2c-0.1,0.4-0.4,0.7-0.8,0.8h-2v1.5c0.2-0.2,0.4-0.3,0.7-0.3c0.4,0,0.6,0.1,0.9,0.5
			c0.7,1.1,1.3,2.3,1.6,3.6c0,0.6-0.5,1-1.1,1c-0.4,0-0.8-0.2-0.9-0.6c-0.3-0.9-0.7-1.8-1.2-2.6v12.8c0,0.6-0.4,1-1,1s-1-0.4-1-1
			V32.4c-0.6,1.2-1.2,2.5-2,3.6c-0.3,0.5-0.7,0.9-1.2,0.9c-0.6,0-1-0.4-1.1-1c0-0.4,0.1-0.6,0.5-1.2c1.5-2.2,2.7-4.7,3.5-7.3h-2.6
			c-0.5-0.1-0.9-0.7-0.8-1.2c0.1-0.4,0.4-0.7,0.8-0.8h2.8v-4.3c0-0.6,0.4-1,1-1s1,0.4,1,1L72.5,25.5z M83.7,24.2h4.5
			c0.6,0,1,0.4,1,1s-0.4,1-1,1h-4.5V30h5.7c0.6,0,1,0.5,1,1s-0.5,1-1,1h-5.3c1.1,1.9,2.3,3.7,3.8,5.3c0.7,0.8,1.5,1.6,2.3,2.3
			c0.4,0.2,0.6,0.7,0.6,1.1c0,0.6-0.5,1.1-1.1,1.1c-0.5,0-0.9-0.3-1.2-0.6c-1.9-1.8-3.5-3.8-4.8-6v7.9c0.1,0.6-0.4,1.1-1,1.2
			c-0.6,0.1-1.1-0.4-1.2-1c0-0.1,0-0.1,0-0.2v-7.8c-1.2,1.8-4.8,6.6-6.2,6.6c-0.6,0.1-1.1-0.4-1.1-1c0-0.1,0-0.1,0-0.2
			c0-0.4,0.2-0.7,0.8-1.2c2.5-2.2,4.5-4.8,6.1-7.7h-4.7c-0.6,0-1-0.5-1-1c0-0.6,0.5-1,1-1h5.2v-3.7h-3c-1.4,3.3-1.8,3.3-2.4,3.3
			c-0.6,0-1-0.4-1.1-0.9c0,0,0,0,0-0.1c0-0.4,0.2-0.8,0.5-1.2c0.7-1.3,1.3-2.6,1.7-4c0.1-0.7,0.4-1.4,0.7-2c0.2-0.3,0.5-0.4,0.9-0.4
			c0.6,0,1,0.4,1,1c-0.1,0.8-0.3,1.5-0.6,2.3h2.3v-2.9c0.1-0.6,0.6-1,1.2-1c0.5,0,0.9,0.4,1,1L83.7,24.2z"/>
		<path d="M106.9,24.8c0-1.1,0-2,0-3.3c0-0.9,0.4-1.4,1.1-1.4c0.5-0.1,1.1,0.2,1.2,0.8c0,0.1,0,0.3,0,0.4c0,1.8,0,2.5,0,3.4h6.1
			c0.6,0,1,0.5,1,1c0,0.6-0.5,1-1,1h-6.1c0.4,12.4,3.8,14.5,4.1,14.5s0.6-0.7,1-2.6c0.2-0.6,0.5-1,1.1-1c0.6,0,1.1,0.4,1.1,1
			c-0.2,1.6-0.7,3.2-1.6,4.5c-0.4,0.4-0.9,0.7-1.5,0.7c-1.7,0-3.9-2.5-5.2-7.6c-0.7-3.1-1.1-6.3-1.2-9.5H93.7c-0.6,0-1-0.5-1-1
			c0-0.6,0.5-1,1-1H106.9z M101,32.6v7l3.1-0.8c1.1-0.3,1.8-0.6,2.3-0.6c0.6,0,1,0.4,1.1,0.9c0,0,0,0.1,0,0.1c0,0.7-0.5,1-1.7,1.3
			c-3.8,1.1-7.6,1.9-11.4,2.5c-0.6,0-1.1-0.4-1.1-1c0,0,0,0,0-0.1c0-0.8,0.6-1,1.2-1.1l4.3-0.8v-7.5h-3.8c-0.6,0-1-0.5-1-1
			c0-0.6,0.5-1,1-1h10.1c0.6,0,1,0.5,1,1c0,0.6-0.5,1-1,1H101z M114.2,22.2c0.3,0.3,0.6,0.7,0.6,1.1c0,0.6-0.4,1.1-1,1.1
			c-0.5,0-0.7-0.2-1.1-0.6s-1-0.9-1.4-1.3s-0.7-0.7-0.7-1.1c0-0.6,0.5-1,1.1-1.1C112,20.3,112.2,20.3,114.2,22.2z"/>
		<path d="M141.5,27.4c0.8,0.3,1,0.7,1,1.1c0,0.6-0.5,1.2-1.1,1.2c0,0,0,0,0,0c-1.5,0-7.1-2.9-10.8-6.7c-3.5,3.6-9.7,6.8-10.9,6.8
			c-0.6-0.1-1-0.6-1-1.2c0-0.6,0.4-0.8,1.2-1.2c3.7-1.4,7-3.7,9.6-6.6c0.3-0.4,0.7-0.7,1.2-0.7c0.7,0,1.2,0.5,1.3,1.1
			C134.6,24,137.9,26.1,141.5,27.4z M129.8,34.7c-1.4,2.3-3,4.4-4.7,6.4c2.8-0.2,8.1-0.5,11.3-0.9c-0.6-0.7-1.4-1.6-2.3-2.6
			c-0.4-0.4-0.6-0.7-0.6-1c0.1-0.6,0.6-1.1,1.2-1.2c0.5,0,0.9,0.4,1.4,0.9c1.5,1.6,2.8,3.2,4.1,4.9c0.4,0.4,0.7,1,0.7,1.5
			c-0.1,0.6-0.6,1.1-1.3,1.2c-0.5,0-0.8-0.4-1.1-0.9s-0.5-0.8-0.7-1c-3.6,0.6-13.6,1.3-15.7,1.3c-0.8,0-1.3-0.3-1.3-1.1
			c0-1.1,0.9-1.1,1.6-1.1c1.8-2,3.4-4.2,4.8-6.5h-6.8c-0.5,0-1-0.4-1-0.9c0-0.1,0-0.1,0-0.2c0-0.5,0.3-1,0.9-1c0,0,0.1,0,0.1,0h20.2
			c0.6,0,1,0.4,1.1,0.9c0,0,0,0,0,0.1c0,0.6-0.4,1-0.9,1.1c0,0-0.1,0-0.1,0L129.8,34.7z M125,30c-0.6,0.1-1.1-0.4-1.2-1
			c-0.1-0.6,0.4-1.1,1-1.2c0.1,0,0.1,0,0.2,0h10.9c0.6,0.1,1,0.6,1,1.2c0,0.5-0.5,0.9-1,1H125z"/>
		<path d="M151.3,24.5h2.5c0.6-0.1,1.2,0.3,1.3,0.9c0,0.1,0,0.2,0,0.3c0,0.6-0.6,2.4-3.1,5.7c1.2,0.8,2.4,1.7,3.4,2.6
			c0.3,0.2,0.5,0.6,0.6,1c0,0.6-0.4,1.1-1,1.2c-0.4,0-0.8-0.2-1.3-0.8s-1.4-1.2-2.2-1.9v9.9c0,0.6-0.4,1-1,1s-1-0.4-1-1v-9.1
			c-1,1-3.1,2.8-3.9,2.8c-0.6,0-1-0.5-1-1.1c0-0.4,0.2-0.6,0.7-1c2.7-1.8,4.9-4.2,6.6-6.9c0.3-0.4,0.5-0.9,0.7-1.3
			c0-0.1-0.1-0.1-0.3-0.1h-6.4c-0.6,0-1-0.5-1-1c0-0.6,0.5-1,1-1h3.6v-3.3c-0.1-0.5,0.3-0.9,0.8-1c0.1,0,0.2,0,0.2,0
			c0.5-0.1,0.9,0.3,1,0.8c0,0.1,0,0.1,0,0.2L151.3,24.5z M162.6,29.3v12h5c0.6,0,1.1,0.5,1.1,1.1c0,0.6-0.5,1.1-1.1,1.1H155
			c-0.6,0-1.1-0.5-1.1-1.1c0-0.6,0.5-1.1,1.1-1.1h5.4v-12h-3.9c-0.6,0-1-0.5-1-1c0-0.6,0.5-1,1-1h3.9v-6c0.1-0.6,0.6-1,1.2-1
			c0.5,0.1,0.9,0.5,1,1v6h4.4c0.6,0,1,0.5,1,1c0,0.6-0.5,1-1,1H162.6z"/>
		<path d="M178.1,27.2h3.4c0.6,0,1,0.4,1,1s-0.4,1-1,1h-3.4v1.5c0.2-0.1,0.4-0.2,0.6-0.3c0.4,0,0.8,0.2,1,0.6
			c0.2,0.2,2.4,2.8,2.4,3.8c0,0.6-0.5,1.1-1.1,1.1c-0.4,0-0.8-0.3-1.1-0.8c-0.6-0.9-1.2-1.8-1.9-2.7v10.7c0,0.6-0.5,1-1,1
			c-0.6,0-1-0.5-1-1v-9.8c-1,1.7-2.1,3.2-3.4,4.7c-0.6,0.6-0.9,0.8-1.2,0.8c-0.6,0-1.1-0.5-1.1-1.1c0-0.5,0.4-0.9,0.9-1.4
			c1.9-2.1,3.5-4.5,4.6-7.1h-4.1c-0.6,0-1-0.4-1-1s0.4-1,1-1h4.4V24c-1.3,0.3-2.6,0.5-3.9,0.6c-0.6,0.1-1.1-0.4-1.1-0.9
			c-0.1-0.5,0.3-1,0.9-1.1c0.5-0.1,1.2-0.2,2.1-0.3c1.9-0.3,3.8-0.8,5.7-1.5c0.4-0.2,0.9-0.4,1.3-0.4c0.6,0.1,1,0.5,1,1.1
			c0,0.5,0,1-3.9,2L178.1,27.2z M183,24.5c-0.1-0.9,0.6-1.8,1.5-1.9c0.1,0,0.3,0,0.4,0h6.7c0.9-0.1,1.8,0.6,1.9,1.5
			c0,0.1,0,0.3,0,0.4v16.4c0.1,0.9-0.6,1.8-1.5,1.9c-0.1,0-0.3,0-0.4,0h-6.7c-0.9,0.1-1.8-0.6-1.9-1.5c0-0.1,0-0.3,0-0.4V24.5z
			 M185.8,24.7c-0.6,0-0.6,0.1-0.6,0.6v14.7c0,0.5,0.1,0.7,0.6,0.7h4.9c0.6,0,0.6-0.1,0.6-0.7V25.4c0-0.5-0.1-0.6-0.6-0.6
			L185.8,24.7z"/>
		<path d="M198.3,23.7c-0.1-1,0.6-1.9,1.6-2c0.1,0,0.3,0,0.4,0h16.5c1-0.1,1.9,0.6,2,1.6c0,0.1,0,0.3,0,0.4v16.9
			c0.1,1-0.6,1.9-1.6,2c-0.1,0-0.3,0-0.4,0h-16.5c-1,0.1-1.9-0.6-2-1.6c0-0.1,0-0.3,0-0.4L198.3,23.7z M207.4,23.9h-6.1
			c-0.6,0-0.7,0.1-0.7,0.7v6.2h6.8V23.9z M207.4,32.9h-6.8v6.9c0,0.6,0.1,0.7,0.7,0.7h6.1V32.9z M209.4,30.9h7.3v-6.2
			c0-0.6-0.1-0.7-0.7-0.7h-6.6V30.9z M209.4,40.4h6.6c0.6,0,0.7-0.1,0.7-0.7v-6.8h-7.3L209.4,40.4z"/>
		<path d="M235.6,25.1v14.4h9.4c0.6,0,1.2,0.5,1.2,1.2c0,0.6-0.5,1.2-1.2,1.2h-20.8c-0.6,0-1.2-0.5-1.2-1.2c0-0.6,0.5-1.2,1.2-1.2
			c0,0,0,0,0,0h9.1V25.1h-8.1c-0.6,0.1-1.2-0.4-1.2-1c-0.1-0.6,0.4-1.2,1-1.2c0.1,0,0.1,0,0.2,0h18.5c0.5-0.1,1,0.4,1.1,0.9
			c0,0.1,0,0.1,0,0.2c0.1,0.5-0.3,1-0.9,1.1c-0.1,0-0.1,0-0.2,0L235.6,25.1z"/>
		<path d="M263.7,24.7h7.6c0.5-0.1,0.9,0.2,1,0.7c0,0.1,0,0.2,0,0.3c0.1,0.5-0.2,0.9-0.7,1c-0.1,0-0.2,0-0.3,0H266
			c-0.3,0.8-0.7,1.5-1.1,2.2h4.8c0.5,0,0.9,0.4,0.9,0.9s-0.4,0.9-0.9,0.9c0,0,0,0,0,0h-8.1v1.5h7.2c0.4-0.1,0.8,0.2,0.9,0.7
			c0,0.1,0,0.1,0,0.2c0.1,0.4-0.2,0.8-0.7,0.9c-0.1,0-0.1,0-0.2,0h-7.2v1.6h9.4c0.5,0,0.9,0.4,0.9,0.9c0,0.5-0.4,0.9-0.9,0.9h-7.2
			c2.3,1.7,4.9,3,7.6,3.8c0.7,0.2,0.9,0.5,0.9,1c0.1,0.5-0.3,1-0.9,1.1c0,0-0.1,0-0.1,0c-1,0-6.3-2-9.8-5.3v5.2
			c0.1,0.6-0.4,1.1-1,1.2c-0.6,0.1-1.1-0.4-1.2-1c0-0.1,0-0.1,0-0.2v-5.3c-4.7,4.3-9.2,5.6-9.7,5.6c-0.6,0-1-0.4-1-1
			c0-0.1,0-0.1,0-0.2c0-0.4,0.2-0.7,0.9-0.9c2.7-0.9,5.3-2.3,7.5-4.1H250c-0.5,0-0.9-0.4-0.9-0.9c0-0.5,0.4-0.9,0.9-0.9h9.4v-1.6
			h-7.1c-0.4,0-0.8-0.3-0.9-0.7c0-0.1,0-0.1,0-0.2c-0.1-0.4,0.2-0.8,0.7-0.9c0.1,0,0.1,0,0.2,0h7.1v-1.5h-8.1
			c-0.5,0-0.9-0.4-0.9-0.9s0.4-0.9,0.9-0.9c0,0,0,0,0,0h5c-0.3-0.8-0.6-1.5-1-2.2h-5.8c-0.5,0.1-0.9-0.2-1-0.7c0-0.1,0-0.2,0-0.3
			c-0.1-0.5,0.2-0.9,0.7-1c0.1,0,0.2,0,0.3,0h7.8v-3.4c0-0.6,0.5-1,1-1c0.6,0,1,0.5,1,1v3.4h2.2v-3.5c0-0.6,0.5-1,1-1s1,0.5,1,1
			L263.7,24.7z M253.8,21.1c0.6,0.7,1.1,1.5,1.4,2.4c0,0.6-0.4,1-1,1c-0.3,0-0.7-0.2-0.9-0.5c-0.3-0.4-0.8-1.3-1-1.5
			c-0.3-0.4-0.4-0.5-0.4-0.8c0-0.6,0.5-1,1.1-1C253.4,20.7,253.7,20.9,253.8,21.1z M257.5,26.6c0.3,0.6,0.7,1.5,1,2.2h4
			c0.5-0.7,0.9-1.4,1.2-2.2H257.5z M267.6,24c-0.2,0.2-0.5,0.4-0.8,0.4c-0.6,0-1-0.4-1.1-1c0-0.3,0.2-0.6,0.4-0.8
			c0.5-0.6,0.7-1,1.1-1.5c0.2-0.3,0.5-0.5,0.9-0.5c0.5,0,1,0.4,1,0.9C269.2,22.2,268.4,23.2,267.6,24z"/>
		<path d="M76.7,3.8h1.6c0.3,0,0.6,0.2,0.6,0.5c0,0,0,0.1,0,0.1c0,0.3-0.2,0.6-0.5,0.6c0,0-0.1,0-0.1,0h-1.6v3.5
			c0,0.9-0.3,1.1-1.1,1.1h-2.9c-0.8,0-1.1-0.3-1.1-1.1V5h-2.4v6.3c0,0.3,0.1,0.5,0.5,0.5H78c0.3,0,0.6,0.2,0.6,0.5c0,0,0,0.1,0,0.1
			c0,0.3-0.2,0.6-0.5,0.6c0,0-0.1,0-0.1,0h-8.8c-0.6,0.1-1.1-0.4-1.2-1c0-0.1,0-0.2,0-0.3V5h-1.4c-0.3,0-0.5-0.2-0.6-0.5
			c0,0,0-0.1,0-0.1c0-0.3,0.2-0.5,0.5-0.6c0,0,0.1,0,0.1,0H68V1.4c0-0.3,0.3-0.6,0.6-0.6s0.6,0.3,0.6,0.6c0,0,0,0,0,0v2.4h2.4V1.4
			c0-0.3,0.2-0.6,0.5-0.7c0.3,0,0.6,0.2,0.7,0.5c0,0.1,0,0.1,0,0.2v2.4h2.8V1.3c0-0.3,0.3-0.6,0.6-0.6c0.3,0,0.6,0.3,0.6,0.6
			L76.7,3.8z M72.8,5v3.1c0,0.1,0.1,0.3,0.2,0.3c0,0,0.1,0,0.1,0h2.2c0.1,0,0.3-0.1,0.3-0.2c0,0,0-0.1,0-0.1V5H72.8z"/>
		<path d="M85.5,6.5c-1.2,1.6-2.9,2.7-4.8,3.2c-0.3,0-0.5-0.2-0.6-0.5c0,0,0,0,0-0.1c0-0.3,0.2-0.5,0.6-0.6c1.3-0.4,2.4-1.1,3.4-2
			h-1.8c-0.6,0-1-0.4-1-1V1.9c0-0.6,0.4-1,1-1h8.5c0.6,0,1,0.4,1,1v3.6c0,0.6-0.4,1-1,1H89c1,0.9,2.2,1.5,3.4,2
			c0.2,0.1,0.4,0.3,0.4,0.6c0,0.3-0.2,0.6-0.6,0.6c0,0,0,0,0,0c-1.1-0.3-2.1-0.8-2.9-1.4c-0.7-0.5-1.3-1-1.9-1.7L85.5,6.5z
			 M84.2,11.7c-0.6,0.9-1.5,1.4-2.5,1.6c-0.3,0-0.6-0.2-0.6-0.5c0,0,0,0,0,0c0-0.2,0.1-0.4,0.4-0.5c1.6-0.7,2.2-1.5,2.3-3.8
			c0-0.3,0.2-0.6,0.5-0.6c0,0,0.1,0,0.1,0c0.4,0,0.6,0.2,0.6,0.6C85.1,9.6,84.8,10.7,84.2,11.7z M86,1.9h-3.3
			c-0.3,0-0.3,0.1-0.3,0.3v0.9H86V1.9z M86,4.1h-3.6v1c0,0.3,0.1,0.3,0.3,0.3H86V4.1z M87.1,3.1h3.6V2.2c0-0.3,0-0.3-0.3-0.3h-3.3
			L87.1,3.1z M87.1,4.1v1.3h3.3c0.3,0,0.3-0.1,0.3-0.3v-1L87.1,4.1z M88.1,8.5c0-0.3,0.3-0.6,0.6-0.6c0.3,0,0.6,0.3,0.6,0.6v4.2
			c0,0.3-0.3,0.6-0.6,0.6c-0.3,0-0.6-0.3-0.6-0.6V8.5z"/>
		<path d="M100.1,6.5v6.3c0,0.3-0.2,0.5-0.4,0.5c0,0-0.1,0-0.1,0c-0.3,0-0.5-0.2-0.5-0.4c0,0,0-0.1,0-0.1v-1
			c-1.4,0.4-2.8,0.6-4.2,0.8c-0.3,0-0.5-0.2-0.5-0.5c0,0,0,0,0-0.1c0-0.3,0.2-0.5,0.4-0.5c0.2,0,0.4,0,0.7-0.1v-5h-0.6
			c-0.2,0-0.5-0.1-0.5-0.4c0,0,0-0.1,0-0.1c0-0.2,0.1-0.5,0.4-0.5c0,0,0.1,0,0.1,0h11.7c0.2,0,0.5,0.1,0.5,0.4c0,0,0,0.1,0,0.1
			c0,0.2-0.1,0.5-0.4,0.5c0,0-0.1,0-0.1,0L100.1,6.5z M95.8,2c0-0.5,0.3-1,0.8-1c0.1,0,0.1,0,0.2,0h7.4c0.5,0,1,0.3,1,0.8
			c0,0.1,0,0.1,0,0.2v1.8c0,0.5-0.3,1-0.8,1c-0.1,0-0.1,0-0.2,0h-7.3c-0.5,0-1-0.3-1-0.9c0,0,0-0.1,0-0.1L95.8,2z M96.4,6.6v0.9H99
			v-1L96.4,6.6z M96.4,8.4v0.9H99V8.4H96.4z M96.4,10.2v1.2c0.9-0.1,1.7-0.3,2.6-0.6v-0.7L96.4,10.2z M97.1,1.9
			c-0.2,0-0.2,0.1-0.2,0.6h7.2c0-0.5,0-0.6-0.2-0.6L97.1,1.9z M96.9,3.4c0,0.5,0,0.6,0.2,0.6h6.8c0.2,0,0.2,0,0.2-0.6H96.9z
			 M105,7.4c0.6,0,0.9,0.3,0.9,0.8c0,0.3-0.2,1.4-1.7,3c0.5,0.4,1.1,0.7,1.7,1c0.4,0.1,0.5,0.3,0.5,0.6c0,0.3-0.3,0.6-0.6,0.6
			c-0.9-0.3-1.7-0.8-2.4-1.4c-0.7,0.6-1.5,1.1-2.3,1.4c-0.3,0-0.6-0.3-0.6-0.6c0-0.2,0.1-0.3,0.4-0.5c0.6-0.3,1.2-0.6,1.7-1
			c-0.7-0.8-1.2-1.7-1.5-2.8c-0.3,0-0.6,0-0.6-0.5c0-0.2,0.1-0.5,0.4-0.5c0,0,0.1,0,0.1,0L105,7.4z M102.2,8.4
			c0.3,0.7,0.7,1.4,1.2,2c0.6-0.5,1-1.2,1.3-1.9c0-0.1-0.1-0.1-0.2-0.1L102.2,8.4z"/>
		<path d="M111.3,10c0.6,0.9,1.5,1.6,2.6,1.7c0.8,0.1,1.6,0.1,2.4,0.1c1.9,0,3.8-0.1,4.1-0.1c0.3,0,0.5,0.1,0.6,0.4c0,0,0,0.1,0,0.1
			c0,0.4-0.3,0.6-0.9,0.6c-1.2,0.1-2.3,0.1-3.8,0.1c-3,0-4.3-0.2-5.6-1.7c-0.3,0.4-1,1.1-1.2,1.3s-0.5,0.5-0.8,0.5
			c-0.3,0-0.6-0.3-0.6-0.6c0-0.2,0-0.3,0.4-0.6c0.6-0.5,1.1-1,1.6-1.6V7.1c0-0.2-0.1-0.3-0.3-0.3h-1.2c-0.3,0-0.5-0.2-0.6-0.5
			c0,0,0-0.1,0-0.1c0-0.3,0.2-0.5,0.4-0.6c0,0,0.1,0,0.1,0h1.6c0.4-0.1,0.8,0.2,0.9,0.7c0,0.1,0,0.1,0,0.2L111.3,10z M110.3,1.1
			c0.4,0.4,0.7,0.7,1.1,1.2c0.2,0.2,0.3,0.4,0.3,0.6c0,0.3-0.2,0.6-0.6,0.6c0,0,0,0,0,0c-0.2,0-0.4-0.1-0.5-0.2
			c-0.4-0.4-0.7-0.9-1.1-1.3c-0.2-0.2-0.3-0.3-0.3-0.6c0-0.3,0.3-0.6,0.6-0.6c0,0,0,0,0,0C109.9,0.8,110.1,0.9,110.3,1.1L110.3,1.1z
			 M116.6,2.9v1h2.5c0.4,0,0.8,0.3,0.8,0.7c0,0,0,0.1,0,0.1v1.8c0,0.4-0.2,0.8-0.6,0.8c-0.1,0-0.1,0-0.2,0h-1.5
			c0.8,0.9,1.7,1.6,2.8,2.2c0.3,0.1,0.5,0.4,0.4,0.7c-0.1,0.2-0.3,0.4-0.5,0.4c-0.6,0-2.4-1.2-3.6-2.8v3c0,0.3-0.3,0.5-0.6,0.5
			c-0.2,0-0.4-0.2-0.5-0.5v-3c-0.7,1.2-1.9,2.2-3.2,2.7c-0.3,0-0.5-0.3-0.5-0.6c0-0.2,0.1-0.3,0.4-0.5c0.9-0.6,1.7-1.3,2.4-2.1h-1.4
			c-0.4,0.1-0.8-0.2-0.8-0.6c0-0.1,0-0.1,0-0.2V4.7c0-0.4,0.3-0.8,0.7-0.8c0,0,0.1,0,0.1,0h2.3v-1h-3.2c-0.3,0-0.5-0.2-0.5-0.4
			c0,0,0-0.1,0-0.1c0-0.3,0.1-0.5,0.4-0.5c0,0,0.1,0,0.1,0h3.2V1c0-0.3,0.3-0.5,0.6-0.5c0.2,0,0.4,0.2,0.5,0.5v0.8h3.4
			c0.3,0,0.5,0.2,0.5,0.4c0,0,0,0.1,0,0.1c0,0.3-0.2,0.5-0.4,0.5c0,0-0.1,0-0.1,0L116.6,2.9z M115.5,4.9h-1.8
			c-0.2,0-0.2,0.1-0.2,0.2v1c0,0.1,0.1,0.2,0.2,0.2c0,0,0,0,0.1,0h1.8V4.9z M116.6,6.5h2c0.1,0,0.2-0.1,0.2-0.2c0,0,0,0,0-0.1V5.1
			c0-0.2-0.1-0.2-0.2-0.2h-2V6.5z"/>
		<path d="M126.8,10.2c-0.3,0.7-1,1.2-1.8,1.3c-1.1,0-2.4-1.3-2.4-3.5c0-3.4,2.7-6.2,6.1-6.2c0.1,0,0.3,0,0.4,0c3.4,0,5.4,2,5.4,5.3
			c0,2.7-1.9,5.1-4.6,5.6c-0.4,0-0.6-0.3-0.6-0.6c0-0.5,0.3-0.5,0.7-0.7c1.9-0.5,3.2-2.3,3.2-4.2c0.2-2.1-1.3-3.9-3.4-4.1
			c-0.2,0-0.4,0-0.6,0C128.8,5.5,128,7.9,126.8,10.2z M123.7,8.1c0,1.4,0.7,2.1,1.2,2.1s0.8-0.6,1.1-1.1c0.9-1.9,1.6-4,1.9-6.1
			C125.5,3.5,123.7,5.6,123.7,8.1z"/>
		<path d="M140.9,3.1c-0.5,3-1.6,5.9-3.3,8.5c-0.3,0.4-0.6,0.6-0.9,0.6c-0.4,0-0.7-0.3-0.7-0.7c0-0.3,0.2-0.4,0.6-1
			c0.7-1,1.3-2.1,1.8-3.3c0.5-1.4,0.9-2.8,1.2-4.2c0-0.3,0.3-0.6,0.7-0.6C140.5,2.4,140.8,2.7,140.9,3.1
			C140.9,3.1,140.9,3.1,140.9,3.1z M145.5,3.1c0.9,1.5,3.3,7.2,3.3,8.1c0,0.4-0.3,0.7-0.7,0.7c0,0,0,0,0,0c-0.4,0-0.6-0.2-0.8-0.8
			c-0.3-1.2-0.7-2.4-1.2-3.5c-0.5-1.2-0.9-2.1-1.5-3.3c-0.2-0.3-0.4-0.7-0.5-1.1c0-0.4,0.3-0.7,0.7-0.7c0,0,0,0,0,0
			C145.1,2.4,145.2,2.5,145.5,3.1L145.5,3.1z M149.3,1.8c0.1,0.9-0.6,1.7-1.5,1.8c-0.9,0.1-1.7-0.6-1.8-1.5c0-0.1,0-0.2,0-0.3
			c-0.1-0.9,0.6-1.7,1.5-1.8c0.9-0.1,1.7,0.6,1.8,1.5C149.3,1.7,149.3,1.8,149.3,1.8z M146.8,1.8c0,0.5,0.4,0.9,0.8,0.9
			c0.5,0,0.9-0.4,0.9-0.8c0,0,0,0,0,0c0-0.5-0.4-0.8-0.8-0.9c0,0,0,0,0,0C147.2,1,146.8,1.4,146.8,1.8
			C146.8,1.8,146.8,1.8,146.8,1.8L146.8,1.8z"/>
		<path d="M156.4,6.4c-1,0.8-2,1.6-3.2,2.2c-0.4,0.3-0.9,0.6-1.4,0.7c-0.4,0-0.7-0.3-0.7-0.7c0,0,0,0,0,0c0-0.3,0.1-0.4,0.6-0.7
			c2.9-1.4,5.4-3.5,7.2-6.2c0.3-0.5,0.4-0.6,0.7-0.6c0.4,0,0.7,0.3,0.7,0.7c0,0.7-2,2.9-2.8,3.6v7.3c0,0.3-0.4,0.6-0.7,0.5
			c-0.3,0-0.5-0.3-0.5-0.5L156.4,6.4z"/>
		<path d="M173.8,2.3c0.1,0,0.3,0,0.4,0c-0.1-0.2-0.1-0.4-0.1-0.6c0-0.9,0.8-1.6,1.7-1.6c0.9,0,1.7,0.7,1.7,1.6c0,0,0,0,0,0
			c0,0.9-0.7,1.7-1.6,1.7c0,0,0,0,0,0c-0.2,0-0.5,0-0.7-0.2c-0.3,2.3-1.4,4.5-3,6.3c-1.3,1.5-3,2.6-4.9,3.1c-0.4,0-0.7-0.3-0.7-0.7
			c0,0,0,0,0,0c0-0.4,0.2-0.5,0.6-0.7c1.3-0.4,2.5-1.1,3.5-2.1c1.6-1.4,2.6-3.3,3.1-5.4c0-0.1,0-0.2-0.2-0.2h-8.3
			c-0.3,0-0.6-0.2-0.6-0.5c0,0,0-0.1,0-0.1c0-0.3,0.2-0.6,0.5-0.6c0,0,0.1,0,0.1,0L173.8,2.3z M175,1.7c0,0.5,0.3,0.8,0.8,0.9
			c0,0,0,0,0,0c0.5,0,0.9-0.4,0.9-0.8c0,0,0,0,0,0c0-0.5-0.4-0.8-0.8-0.9c0,0,0,0,0,0C175.4,0.8,175,1.2,175,1.7
			C175,1.6,175,1.7,175,1.7z"/>
		<path d="M180.8,4.1c0.2,0,2.5-0.5,2.8-0.5c0.3,0,0.5,0.2,0.5,0.5c0,0,0,0.1,0,0.1c0,0.3-0.2,0.4-0.5,0.5c-0.6,0.2-2.1,0.4-2.8,0.5
			v4.2c0,0.7,0,0.7,0.8,0.7s1,0,1.1-0.4s0.1-0.8,0.2-1.1c0.1-0.2,0.3-0.3,0.5-0.3c0.3,0,0.6,0.2,0.6,0.5c0,0,0,0,0,0.1
			c0,0.7-0.2,1.4-0.7,2c-0.3,0.3-0.7,0.4-1.9,0.4s-1.8-0.3-1.8-1.3V5.4c-0.4,0.1-0.8,0.2-1.2,0.2c-0.3,0-0.5-0.2-0.5-0.6
			s0.2-0.5,1.7-0.8v-3c0-0.3,0.2-0.5,0.4-0.6c0,0,0.1,0,0.1,0c0.3,0,0.6,0.2,0.6,0.5c0,0,0,0.1,0,0.1L180.8,4.1z M186.8,2.5
			c0,5.3-0.8,7.6-2,9.4c-0.1,0.2-1,1.4-1.6,1.4c-0.3,0-0.6-0.3-0.6-0.6c0,0,0,0,0,0c0-0.2,0.1-0.4,0.5-0.7c1.9-1.6,2.6-4.2,2.6-9.4
			h-1.9c-0.3,0-0.5-0.1-0.6-0.4c0,0,0-0.1,0-0.1c0-0.3,0.2-0.5,0.4-0.6c0,0,0.1,0,0.1,0h5.6c0.7,0,0.9,0.4,0.9,1
			c0,2.8-0.1,5.6-0.4,8.3c-0.3,1.8-0.6,2.3-2.2,2.3c-1.2,0-1.6-0.1-1.6-0.7c0-0.3,0.2-0.5,0.5-0.6c0,0,0,0,0.1,0
			c0.3,0,0.8,0.1,1.2,0.1c0.6,0,0.7-0.1,0.9-1.4c0.3-2.4,0.4-4.9,0.4-7.3c0-0.6,0-0.7-0.3-0.7L186.8,2.5z"/>
		<path d="M192.5,1.5c0-0.3,0.2-0.6,0.6-0.6s0.6,0.2,0.6,0.6v9.6c0,0.2,0.1,0.3,0.3,0.3h3.7c0.3,0,0.5,0.2,0.6,0.4c0,0,0,0.1,0,0.1
			c0,0.3-0.2,0.5-0.5,0.6c0,0-0.1,0-0.1,0h-4c-0.5,0.1-1-0.3-1.1-0.8c0-0.1,0-0.2,0-0.3L192.5,1.5z M197,4.7h1.4
			c0.3,0,0.5,0.2,0.5,0.4c0,0,0,0.1,0,0.1c0,0.3-0.1,0.5-0.4,0.5c0,0-0.1,0-0.1,0H197v0.6c0.1-0.1,0.2-0.1,0.3-0.1
			c0.2,0,0.3,0.1,0.5,0.3s0.6,0.8,0.9,1.1c0.2,0.2,0.3,0.4,0.3,0.6c0,0.3-0.2,0.5-0.5,0.5c-0.3,0-0.4-0.1-0.6-0.5s-0.6-0.7-0.9-1.1
			v3.3c0,0.3-0.2,0.6-0.5,0.6c-0.3,0-0.6-0.2-0.6-0.5c0,0,0-0.1,0-0.1V7.6c-0.3,0.5-0.6,1-1,1.5c-0.3,0.4-0.4,0.5-0.6,0.5
			c-0.3,0-0.5-0.2-0.6-0.5c0-0.3,0.1-0.4,0.4-0.7c0.6-0.8,1.2-1.7,1.6-2.6h-1.4c-0.3,0-0.5-0.2-0.5-0.4c0,0,0-0.1,0-0.1
			c0-0.3,0.2-0.5,0.4-0.5c0,0,0.1,0,0.1,0h1.6V1.1c0-0.3,0.2-0.6,0.5-0.6c0.3,0,0.6,0.2,0.6,0.5c0,0,0,0.1,0,0.1V4.7z M195.4,3
			c0.1,0.2,0.1,0.5,0.1,0.7c0,0.3-0.3,0.5-0.6,0.5c-0.3,0-0.4-0.2-0.5-0.4s-0.5-1.6-0.5-1.9c0-0.3,0.3-0.5,0.6-0.5
			C194.9,1.4,194.9,1.5,195.4,3z M199,1.8c-0.1,0.7-0.3,1.4-0.6,2c-0.1,0.3-0.2,0.4-0.5,0.4c-0.3,0-0.5-0.2-0.5-0.5
			c0-0.2,0.1-0.5,0.2-0.7c0.1-0.4,0.3-0.8,0.4-1.1c0.1-0.3,0.1-0.6,0.5-0.6S199,1.5,199,1.8z M200.6,5h3.8c0.3,0,0.5,0.2,0.6,0.4
			c0,0,0,0.1,0,0.1c0,0.3-0.1,0.5-0.4,0.6c0,0-0.1,0-0.1,0h-1.1v6.7c0,0.3-0.3,0.6-0.6,0.6s-0.6-0.3-0.6-0.6V6.1h-1.5
			c0,2.1-0.1,4.9-1.3,6.7c-0.1,0.2-0.3,0.3-0.6,0.4c-0.3,0-0.6-0.2-0.6-0.6c0,0,0,0,0,0c0-0.3,0.2-0.5,0.4-0.9
			c0.7-1.8,1-3.7,0.9-5.6V3c0-0.7,0.2-1,0.9-1.2c0.8-0.2,1.6-0.4,2.4-0.7c0.4-0.2,0.7-0.3,1.1-0.4c0.3,0,0.6,0.3,0.6,0.6
			c0,0,0,0,0,0c0,0.3-0.1,0.4-0.7,0.6c-0.9,0.3-1.8,0.6-2.8,0.8c-0.3,0.1-0.4,0.1-0.4,0.5V5z"/>
		<path d="M216.1,3.6c0.4,0,0.7,0.3,0.7,0.7c0,0,0,0,0,0c0,0.3-0.2,0.5-0.5,0.6c-2.6,1-5.3,2.2-6.3,3.4c-0.4,0.4-0.6,0.9-0.6,1.5
			c0,1.6,1.6,1.6,3.3,1.6c1,0,2-0.1,3-0.3c0.3,0,0.6-0.1,0.8-0.1c0.3,0,0.6,0.3,0.6,0.6c0,0,0,0,0,0.1c0,0.4-0.3,0.7-0.7,0.7
			c-1.3,0.2-2.6,0.3-3.9,0.3c-2.2,0-3.4-0.3-4.1-1.5c-0.2-0.4-0.3-0.9-0.4-1.4c0-1.3,0.7-2.5,2.9-3.9c-0.6-1.5-1.1-3-1.4-4.6
			c0-0.4,0.3-0.7,0.7-0.6c0,0,0,0,0,0c0.5,0,0.6,0.2,0.9,1.6c0.3,1,0.6,1.9,0.9,2.9C213.5,4.6,214.8,4.1,216.1,3.6z"/>
		<path d="M223.6,3.9c-0.1,2.1-0.5,4.1-1.1,6.1c-0.3,0.9-0.7,1.7-1.2,2.4c-0.3,0.4-0.5,0.6-0.7,0.6c-0.3,0-0.6-0.2-0.6-0.6
			c0-0.2,0.1-0.3,0.3-0.6c1.5-2,2.1-4.8,2.2-8h-1.7c-0.3,0-0.5-0.2-0.6-0.4c0,0,0-0.1,0-0.1c0-0.3,0.2-0.5,0.5-0.6c0,0,0.1,0,0.1,0
			h1.7c0-0.7,0-1.3,0-1.8c0-0.3,0.2-0.6,0.5-0.7s0.6,0.2,0.7,0.5c0,0.1,0,0.1,0,0.2c0,0.8,0,1.4,0,1.8h1.6c1.1,0,1.1,0.9,1.1,1.4
			c0,2.7-0.1,5.3-0.5,7.9c-0.2,0.7-0.8,1.1-1.5,1c-1.2,0-1.6-0.1-1.6-0.7c0-0.3,0.2-0.6,0.5-0.6c0,0,0,0,0.1,0c0.2,0,0.7,0.1,1,0.1
			s0.4-0.2,0.5-0.6c0.3-2.1,0.4-4.3,0.4-6.4c0-0.9,0-1-0.3-1L223.6,3.9z M232.5,12c0.1,0.5-0.3,0.9-0.7,1c-0.1,0-0.2,0-0.3,0h-2.9
			c-0.7,0-1-0.3-1-1V3c-0.1-0.5,0.3-0.9,0.8-1c0.1,0,0.1,0,0.2,0h2.9c0.5-0.1,0.9,0.3,1,0.8c0,0.1,0,0.2,0,0.2V12z M231.1,11.9
			c0.1,0,0.3-0.1,0.3-0.2c0,0,0,0,0-0.1V3.5c0-0.1-0.1-0.3-0.2-0.3c0,0,0,0-0.1,0H229c-0.1,0-0.3,0.1-0.3,0.2c0,0,0,0,0,0.1v8.1
			c0,0.2,0.1,0.3,0.3,0.3L231.1,11.9z"/>
		<path d="M241.1,3.1v7.8h5c0.3,0,0.6,0.2,0.6,0.5c0,0,0,0.1,0,0.1c0,0.3-0.2,0.6-0.5,0.6c0,0-0.1,0-0.1,0h-11.2
			c-0.3,0-0.6-0.2-0.6-0.5c0,0,0-0.1,0-0.1c0-0.3,0.2-0.6,0.5-0.6c0,0,0.1,0,0.1,0h4.9V3.1h-4.3c-0.3,0-0.6-0.2-0.6-0.5
			c0,0,0-0.1,0-0.1c0-0.3,0.2-0.5,0.5-0.5c0,0,0,0,0.1,0h10c0.3,0,0.6,0.2,0.6,0.5c0,0,0,0.1,0,0.1c0,0.3-0.2,0.6-0.5,0.6
			c0,0-0.1,0-0.1,0L241.1,3.1z"/>
		<path d="M72.5,50.5c0.5,0,1,0.3,1.1,0.9l1.9,8.4l0,0l2-8.6c0.1-0.4,0.4-0.7,0.8-0.7c0.6,0,0.8,0.5,0.6,1.1l-2.3,8.6
			c-0.1,0.6-0.6,1-1.2,0.9c-0.6,0-1.1-0.4-1.2-1l-1.8-8.1l0,0l-1.8,8.1c-0.1,0.6-0.6,1-1.2,1c-0.6,0.1-1.1-0.3-1.2-0.9L66,51.7
			c-0.2-0.7,0.1-1.1,0.6-1.1c0.4,0,0.8,0.3,0.8,0.7l2,8.6l0,0l1.9-8.3c0-0.6,0.5-1,1-1C72.4,50.5,72.4,50.5,72.5,50.5z"/>
		<path d="M82.5,51.6c0.2-0.7,0.9-1.2,1.6-1c0.5,0.1,0.9,0.5,1,1l2.5,8.4c0.2,0.7,0,1.1-0.7,1.1c-0.4,0-0.8-0.3-0.8-0.7L85.5,58
			h-3.4l-0.6,2.4c-0.1,0.4-0.4,0.7-0.8,0.7c-0.6,0-0.9-0.5-0.7-1.1L82.5,51.6z M83.8,51.9L83.8,51.9l-1.4,5h2.7L83.8,51.9z"/>
		<path d="M89.3,60.2v-8.6c0-0.6,0.2-0.9,0.8-0.9h2.3c3.2,0,4.8,1.6,4.8,5.2s-1.3,5.3-4.7,5.3h-2.3C89.5,61.1,89.3,60.7,89.3,60.2z
			 M92.4,59.9c2.1,0,3.2-1.2,3.2-4.1c0-2.7-0.9-4.1-3.3-4.1h-1.6v8.1L92.4,59.9z"/>
		<path d="M100.8,51.6c0.2-0.7,0.9-1.2,1.6-1c0.5,0.1,0.9,0.5,1,1L106,60c0.2,0.7,0,1.1-0.7,1.1c-0.4,0-0.8-0.3-0.8-0.7l-0.7-2.4
			h-3.4l-0.6,2.4c-0.1,0.4-0.4,0.7-0.8,0.7c-0.6,0-0.9-0.5-0.7-1.1L100.8,51.6z M102.2,51.9L102.2,51.9l-1.4,5h2.7L102.2,51.9z"/>
		<path d="M113,51.5c0-0.6,0.2-0.9,0.7-0.9s0.8,0.4,0.8,0.9v8.8c0,0.5-0.2,0.9-0.8,0.9s-0.7-0.3-0.7-0.9V51.5z"/>
		<path d="M123.1,59.3v-8c0-0.5,0.2-0.8,0.7-0.8s0.7,0.3,0.7,0.8v8.3c0,1-0.5,1.4-1.2,1.4s-1-0.3-1.3-1l-3.7-7.9l0,0v8.1
			c0,0.5-0.2,0.8-0.7,0.8s-0.7-0.3-0.7-0.8V52c0-1,0.5-1.4,1.2-1.4c0.6,0,1.1,0.4,1.3,0.9L123.1,59.3L123.1,59.3z"/>
		<path d="M126.8,60.2v-8.6c0-0.6,0.2-0.9,0.8-0.9h2.3c3.2,0,4.8,1.6,4.8,5.2s-1.3,5.3-4.7,5.3h-2.3C127,61.1,126.8,60.7,126.8,60.2
			z M129.9,59.9c2.1,0,3.2-1.2,3.2-4.1c0-2.7-0.9-4.1-3.3-4.1h-1.6v8.1L129.9,59.9z"/>
		<path d="M143.7,57.4c0,2.8-1,3.9-3.7,3.9s-3.6-1-3.6-3.9v-5.9c0-0.6,0.2-0.9,0.7-0.9s0.8,0.4,0.8,0.9v5.8c0,1.8,0.4,2.8,2.1,2.8
			s2.2-1,2.2-2.8v-5.8c0-0.6,0.2-0.9,0.7-0.9s0.8,0.4,0.8,0.9V57.4z"/>
		<path d="M146.2,58.7c0.3,0,0.5,0.1,0.6,0.3c0.5,0.7,1.2,1.1,2,1.1c1,0.1,2-0.6,2.1-1.7c0,0,0-0.1,0-0.1c0-0.5-0.2-0.9-0.6-1.2
			c-0.6-0.4-1.2-0.7-1.9-1c-0.7-0.3-1.4-0.7-2.1-1.2c-0.6-0.5-0.9-1.2-0.9-2c0-1.1,0.8-2.6,3.3-2.6c2,0,2.7,0.9,2.9,1.2
			c0.2,0.3,0.2,0.7-0.1,1c-0.1,0.1-0.3,0.1-0.4,0.1c-0.3,0-0.5-0.1-0.7-0.4c-0.4-0.5-1-0.8-1.6-0.8c-1.3,0-1.9,0.6-1.9,1.4
			c0,0.5,0.3,0.9,0.7,1.2c0.6,0.4,1.2,0.7,1.9,1c0.7,0.3,1.4,0.7,2,1.2c0.5,0.5,0.8,1.2,0.8,1.9c0,1.3-1,3-3.7,3
			c-1.2,0.1-2.3-0.4-3.1-1.2C145.3,59.4,145.5,58.7,146.2,58.7z"/>
		<path d="M159.9,50.6c0.4,0,0.7,0.2,0.7,0.6s-0.3,0.6-0.7,0.6h-2.2v8.5c0,0.5-0.2,0.9-0.8,0.9s-0.8-0.3-0.8-0.9v-8.4H154
			c-0.4,0-0.7-0.2-0.7-0.6s0.3-0.6,0.7-0.6H159.9z"/>
		<path d="M165.1,56.9h-1.6v3.4c0,0.5-0.2,0.9-0.8,0.9s-0.7-0.3-0.7-0.9v-8.7c0-0.6,0.2-0.9,0.9-0.9h2.2c2.2,0,4.1,0.7,4.1,3
			c0.1,1.5-1,2.9-2.6,3c0,0-0.1,0-0.1,0L169,60c0.3,0.4,0.2,1.2-0.5,1.2c-0.4,0-0.7-0.2-0.9-0.6L165.1,56.9z M165.4,55.7
			c1.4,0,2.3-0.7,2.3-2s-0.7-1.9-2.6-1.9h-1.6v3.9L165.4,55.7z"/>
		<path d="M176.8,50.5c0.7,0,0.8,0.7,0.6,1.2l-2.6,5.3v3.3c0,0.5-0.2,0.9-0.8,0.9s-0.7-0.3-0.7-0.9V57l-2.6-5.3
			c-0.2-0.5-0.1-1.1,0.6-1.1c0.4,0,0.6,0.2,0.8,0.7l0.8,2c0.4,0.9,0.7,1.8,1.1,2.7l0,0c0.4-0.9,0.7-1.8,1.1-2.7l0.8-2
			C176.1,50.8,176.4,50.5,176.8,50.5z"/>
		<path d="M191.5,58c0.4,0,0.7,0.3,0.7,0.7c0,0.2,0,0.3-0.1,0.4c-0.7,1.3-2.1,2.2-3.6,2.2c-1.2,0-2.3-0.5-3.1-1.3
			c-1-1.2-1.5-2.7-1.4-4.2c-0.1-1.5,0.4-2.9,1.3-4.1c0.8-0.9,2-1.3,3.2-1.3c1.4-0.1,2.8,0.7,3.4,2c0.3,0.7-0.1,1.1-0.6,1.1
			s-0.6-0.2-0.9-0.7c-0.3-0.8-1.1-1.3-2-1.3c-1.3,0-2.9,1-2.9,4.3s1.6,4.3,2.9,4.3c1,0,1.8-0.6,2.2-1.5
			C190.9,58.2,191.1,58,191.5,58z"/>
		<path d="M201,57.2c0,2.5-1.2,4.1-3.7,4.1s-3.7-1.5-3.7-4.1c0-2.9,1.5-4.1,3.7-4.1S201,54.2,201,57.2L201,57.2z M197.3,60.2
			c1.3,0,2.2-1.1,2.2-3.1c0-2.3-1.1-3.1-2.2-3.1s-2.3,0.8-2.3,3.1C195.1,59.2,196,60.2,197.3,60.2L197.3,60.2z"/>
		<path d="M204.3,60.2c0,0.5-0.4,0.9-0.9,0.9c-0.5,0-0.9-0.4-0.9-0.9s0.4-0.9,0.9-0.9l0,0C203.8,59.3,204.3,59.7,204.3,60.2z"/>
		<path d="M206.1,62.8c-0.3,0-0.4-0.2-0.4-0.5l0.3-2.1c0.1-0.6,0.4-0.9,0.9-0.9c0.4,0,0.7,0.2,0.7,0.6c0,0,0,0.1,0,0.1
			c0,0.3-0.1,0.6-0.3,0.8l-0.7,1.6C206.5,62.6,206.4,62.8,206.1,62.8z"/>
		<path d="M215.7,50.5c0.5,0,0.8,0.4,0.8,0.9v8.5h4c0.4,0,0.7,0.2,0.7,0.6s-0.3,0.6-0.7,0.6h-4.6c-0.6,0-0.9-0.3-0.9-0.9v-8.7
			C215,50.9,215.2,50.5,215.7,50.5z"/>
		<path d="M227.2,60.4c0,0.2-0.1,0.4-0.4,0.5c-0.4,0.2-0.9,0.3-1.4,0.3c-1.4,0-2.5-0.6-2.5-2.7v-4.3h-0.7c-0.4,0-0.6-0.2-0.6-0.5
			s0.2-0.5,0.6-0.5h0.8v-1c0-0.5,0.2-0.9,0.7-0.9s0.7,0.3,0.7,0.8v1.1h2c0.4,0,0.6,0.2,0.6,0.5s-0.3,0.5-0.6,0.5h-2v3.8
			c0,1.7,0.6,2.1,1.3,2.1c0.3,0,0.6-0.1,0.9-0.2c0.2-0.1,0.5,0,0.6,0.3C227.2,60.3,227.2,60.4,227.2,60.4z"/>
		<path d="M231.6,61.2c-2.2,0-3.2-1.6-3.2-4.1c0-2.7,1.4-4.1,3.1-4.1c0.9,0,1.7,0.4,2.3,1v-2.7c0-0.5,0.2-0.8,0.7-0.8
			s0.7,0.3,0.7,0.8v9c0,0.5-0.2,0.8-0.7,0.8s-0.7-0.4-0.7-0.9l0,0C233.2,60.9,232.4,61.3,231.6,61.2z M231.8,60.1
			c0.9,0,1.7-0.5,2-1.4v-3.3c-0.4-0.8-1.2-1.2-2-1.3c-1.3,0-2,1.1-2,3S230.6,60.1,231.8,60.1z"/>
		<path d="M238.9,60.2c-0.1,0.5-0.5,0.9-1,0.8c-0.4,0-0.8-0.4-0.8-0.8c-0.1-0.5,0.3-1,0.8-1c0.5-0.1,1,0.3,1,0.8
			C238.9,60.1,238.9,60.2,238.9,60.2z"/>
	</g>
</g>
<image style="overflow:visible;" width="58" height="59" xlink:href="fav-ico.png"  transform="matrix(1 0 0 1 0 2.36)">
</image>
</svg>
