<?xml version="1.0" encoding="utf-8"?>
<!-- Generator: Adobe Illustrator 24.0.0, SVG Export Plug-In . SVG Version: 6.00 Build 0)  -->
<svg version="1.1" id="Layer_1" xmlns="http://www.w3.org/2000/svg" xmlns:xlink="http://www.w3.org/1999/xlink" x="0px" y="0px"
	 viewBox="0 0 355.4 82.6" style="enable-background:new 0 0 355.4 82.6;" xml:space="preserve">
<style type="text/css">
	.st0{fill:#182B7B;}
	.st1{fill:#FFFFFF;}
	.st2{fill:#BE0F52;}
</style>
<title>hd_logo</title>
<g id="Layer_2_1_">
	<g id="ヘッダー_フッター">
		<path class="st0" d="M18.6,65.4c1.8,0.6,3.8,0,5-1.4L37,49l12.2,15.6c0.9,1.2,2.3,1.9,3.8,1.9H53c1.5,0,2.9-0.8,3.8-2l14.3-19.6
			c0-0.6,0-1.2,0-1.8c0-4-0.7-8-2-11.8L52.8,53.6L41,38.5c-1.6-2.1-4.7-2.5-6.8-0.8c-0.2,0.2-0.4,0.4-0.6,0.6L23.4,49.7l-4.6-36.3
			c-3.3,2-6.3,4.6-8.7,7.7l5.1,40.4C15.5,63.2,16.8,64.8,18.6,65.4z"/>
		<path class="st1" d="M54.8,11.6l0.3,0.1L54.8,11.6z"/>
		<path class="st1" d="M42.5,7.3l1.2,0.2L42.5,7.3z"/>
		<path class="st1" d="M40.6,7c0.4,0,0.8,0.1,1.2,0.2C41.4,7.1,41,7,40.6,7z"/>
		<path class="st1" d="M48.3,8.7l0.5,0.2L48.3,8.7z"/>
		<path class="st1" d="M44.5,7.6l0.8,0.2L44.5,7.6z"/>
		<path class="st1" d="M49.8,9.3l0.5,0.2L49.8,9.3z"/>
		<path class="st1" d="M51.3,9.8l0.4,0.2L51.3,9.8z"/>
		<path class="st1" d="M46.1,8c0.3,0.1,0.5,0.1,0.7,0.2C46.6,8.2,46.3,8.1,46.1,8z"/>
		<path class="st1" d="M38.8,6.9L40,6.9L38.8,6.9z"/>
		<path class="st1" d="M33.7,6.9l0.7-0.1L33.7,6.9z"/>
		<path class="st1" d="M22.4,9.6l0.9-0.4L22.4,9.6z"/>
		<path class="st1" d="M19.8,10.9l1-0.5L19.8,10.9z"/>
		<path class="st1" d="M24.4,8.9l0.9-0.3L24.4,8.9z"/>
		<path class="st1" d="M36.7,6.8c0.5,0,1.1,0,1.6,0C37.7,6.8,37.2,6.8,36.7,6.8z"/>
		<path class="st1" d="M18.5,11.6L18.5,11.6l0.5-0.3L18.5,11.6z"/>
		<path class="st1" d="M56.1,12.4l0.2,0.1L56.1,12.4z"/>
		<path class="st1" d="M36.6,6.8L36.6,6.8z"/>
		<path class="st1" d="M26.5,8.2L27.3,8L26.5,8.2z"/>
		<path class="st1" d="M31.4,7.2l0.8-0.1L31.4,7.2z"/>
		<path class="st1" d="M29.3,7.5l0.6-0.1L29.3,7.5z"/>
		<path class="st1" d="M38.3,9.1L39,9.1L38.3,9.1z"/>
		<path class="st1" d="M36.6,9.1L36.6,9.1z"/>
		<path class="st1" d="M21.7,12.5l0.3-0.1L21.7,12.5z"/>
		<path class="st1" d="M41.8,9.4H42H41.8z"/>
		<path class="st1" d="M40.1,9.2h0.4H40.1z"/>
		<path class="st1" d="M68.2,30c0.2,0.5,0.4,1.1,0.7,1.7l0,0c-0.8-2.2-1.8-4.2-3-6.2C66.8,26.9,67.6,28.4,68.2,30z"/>
		<path class="st1" d="M20.2,13.2L20.2,13.2L20.2,13.2z"/>
		<path class="st1" d="M59.4,14.7L59.4,14.7z"/>
		<path class="st2" d="M18.4,11.6L18.4,11.6l-0.1-0.9c-0.4-2.6-2.8-4.4-5.5-4C10.3,7.1,8.5,9.4,8.8,12l0.9,6.6v0
			C12.2,15.9,15.2,13.5,18.4,11.6z"/>
		<path class="st1" d="M32.2,7.1c0.5-0.1,1-0.1,1.5-0.1C33.2,7,32.7,7,32.2,7.1z"/>
		<path class="st0" d="M59.4,14.7c4.9,3.9,8.7,9,11.1,14.8l-1.6,2.2c6.5,17.8-2.7,37.5-20.6,44s-37.5-2.7-44-20.6
			C0.2,43.7,2.4,31,10.1,21.6l0,0c0.7-0.9,1.4-1.7,2.2-2.5c1.6-1.6,3.3-3,5.1-4.2c0.5-0.3,0.9-0.6,1.4-0.9l-0.3-2.4l0,0l0.3,2.4
			c-0.5,0.3-0.9,0.6-1.4,0.9c-1.8,1.2-3.5,2.6-5.1,4.2c-0.8,0.8-1.5,1.6-2.2,2.5l-0.4-3C-4,33.5-3.1,56.6,11.8,70.3
			s38,12.7,51.7-2.2s12.7-38-2.2-51.7C60.7,15.8,60.1,15.3,59.4,14.7L59.4,14.7z"/>
		<path class="st1" d="M65.9,25.5c-0.3-0.5-0.6-0.9-0.8-1.3c-1.2-1.8-2.6-3.5-4.2-5.1c-1.6-1.6-3.3-3-5.1-4.2
			C54,13.7,52,12.6,50,11.8c-2.6-1.1-5.3-1.8-8-2.3C51.9,11.1,60.7,16.9,65.9,25.5z"/>
		<path class="st1" d="M20.2,13.2c-0.5,0.3-1,0.5-1.4,0.8l0,0C19.2,13.8,19.7,13.5,20.2,13.2z"/>
		<path class="st1" d="M34.4,6.8c0.7,0,1.4-0.1,2.1-0.1C35.8,6.8,35.1,6.8,34.4,6.8z"/>
		<path class="st1" d="M29.9,7.4c0.5-0.1,1-0.2,1.5-0.3C30.9,7.2,30.4,7.3,29.9,7.4z"/>
		<path class="st1" d="M23.3,9.3l1.1-0.4L23.3,9.3z"/>
		<path class="st1" d="M25.3,8.6c0.4-0.1,0.8-0.2,1.2-0.4C26.1,8.3,25.7,8.4,25.3,8.6z"/>
		<path class="st1" d="M20.7,10.4c0.5-0.3,1.1-0.5,1.7-0.8C21.8,9.9,21.3,10.1,20.7,10.4z"/>
		<path class="st1" d="M18.9,11.3l0.9-0.4L18.9,11.3z"/>
		<path class="st1" d="M27.3,8c0.6-0.2,1.3-0.3,2-0.4C28.6,7.7,27.9,7.8,27.3,8z"/>
		<path class="st1" d="M36.6,6.8L36.6,6.8z"/>
		<path class="st1" d="M40,6.9L40.6,7L40,6.9z"/>
		<path class="st1" d="M36.6,9.1C32,9,27.4,10,23.2,11.8c-0.4,0.2-0.8,0.4-1.3,0.6C26.5,10.2,31.5,9,36.6,9.1L36.6,9.1z"/>
		<path class="st1" d="M48.9,8.9l0.9,0.3L48.9,8.9z"/>
		<path class="st1" d="M50.3,9.4l0.9,0.4L50.3,9.4z"/>
		<path class="st1" d="M46.8,8.2c0.5,0.1,1,0.3,1.5,0.5C47.8,8.6,47.3,8.4,46.8,8.2z"/>
		<path class="st1" d="M55,11.8c0.3,0.2,0.7,0.4,1,0.6C55.7,12.2,55.4,12,55,11.8z"/>
		<path class="st1" d="M40.5,9.3l1.3,0.2L40.5,9.3z"/>
		<path class="st1" d="M20.3,13.2c0.5-0.3,0.9-0.5,1.4-0.7C21.2,12.7,20.7,12.9,20.3,13.2z"/>
		<path class="st1" d="M51.7,10c1.1,0.5,2.1,1,3.2,1.6C53.8,11.1,52.7,10.5,51.7,10z"/>
		<path class="st1" d="M45.3,7.8L46.1,8L45.3,7.8z"/>
		<path class="st1" d="M56.2,12.5c1.1,0.7,2.1,1.4,3.2,2.3C58.4,13.9,57.3,13.2,56.2,12.5z"/>
		<path class="st1" d="M41.8,7.2l0.8,0.1L41.8,7.2z"/>
		<path class="st1" d="M38.3,6.8h0.6H38.3z"/>
		<path class="st1" d="M39,9.1l1.1,0.1L39,9.1z"/>
		<path class="st1" d="M43.7,7.5l0.8,0.2L43.7,7.5z"/>
		<path class="st1" d="M37.1,9.1c0.4,0,0.8,0,1.3,0C37.9,9.1,37.5,9.1,37.1,9.1z"/>
		<path class="st0" d="M18.8,14L18.8,14c-0.5,0.3-0.9,0.6-1.4,0.9c-1.8,1.2-3.5,2.6-5.1,4.2c-0.8,0.8-1.5,1.6-2.2,2.5l0,0
			C12.5,18.6,15.5,16,18.8,14z"/>
		<path class="st0" d="M20.2,13.2L20.2,13.2c0.5-0.3,1-0.5,1.5-0.7l0.3-0.1c0.4-0.2,0.8-0.4,1.3-0.6C27.4,10,32,9.1,36.6,9.1h0.5
			c0.4,0,0.8,0,1.3,0L39,9.1l1.1,0.1h0.4l1.3,0.2H42c2.7,0.4,5.4,1.2,8,2.3c2,0.9,4,1.9,5.8,3.2c1.8,1.2,3.5,2.6,5.1,4.2
			c1.6,1.6,3,3.3,4.2,5.1c0.3,0.4,0.6,0.9,0.8,1.3c1.2,2,2.2,4,3,6.2l1.6-2.2c-2.4-5.8-6.2-10.9-11.1-14.8l0,0
			c-1-0.8-2.1-1.6-3.2-2.3l-0.2-0.1c-0.3-0.2-0.7-0.4-1-0.6l-0.3-0.1c-1-0.6-2.1-1.1-3.2-1.6l-0.4-0.2l-0.9-0.4l-0.5-0.2L49,8.8
			l-0.5-0.2c-0.5-0.2-1-0.3-1.5-0.5c-0.2-0.1-0.5-0.1-0.7-0.2l-0.8-0.2l-0.8-0.2l-0.8-0.2l-1.2-0.2l-0.8-0.1C41.4,7.1,41,7,40.6,7
			L40,6.9l-1.1-0.1h-0.6c-0.5,0-1.1,0-1.6,0h-0.1c-0.7,0-1.4,0-2.1,0.1L33.7,7c-0.5,0-1,0.1-1.5,0.1l-0.8,0.1
			c-0.5,0.1-1,0.2-1.5,0.3l-0.6,0.1c-0.7,0.1-1.3,0.3-2,0.5l-0.9,0.3c-0.4,0.1-0.8,0.2-1.2,0.4L24.4,9l-1.1,0.4l-0.9,0.4
			c-0.6,0.2-1.1,0.5-1.7,0.8l-1,0.5L19,11.4l-0.5,0.3l0.3,2.3C19.2,13.7,19.7,13.5,20.2,13.2z"/>
		<path class="st0" d="M12.3,19.1c1.6-1.6,3.3-3,5.1-4.2c0.5-0.3,0.9-0.6,1.4-0.9l-0.3-2.4c-3.3,1.9-6.2,4.2-8.8,7l0.3,2.9
			C10.8,20.7,11.5,19.9,12.3,19.1z"/>
		<path d="M94,33.5h2.7c0.6-0.1,1.2,0.3,1.3,1c0,0.1,0,0.2,0,0.3c0.1,0.6-0.4,1.2-1,1.2c-0.1,0-0.2,0-0.3,0H94v2
			c0.2-0.2,0.5-0.4,0.8-0.3c0.5,0,0.8,0.1,1.1,0.7c0.6,1,2.1,3.7,2.1,4.7c-0.1,0.7-0.7,1.3-1.4,1.3c-0.5,0-1-0.3-1.2-0.8
			c-0.5-1.2-1-2.4-1.6-3.5v16.7c0.1,0.7-0.4,1.3-1.1,1.3c-0.1,0-0.2,0-0.3,0c-0.7,0.1-1.3-0.4-1.3-1.1c0-0.1,0-0.2,0-0.3V42.5
			c-0.7,1.6-1.6,3.2-2.5,4.8c-0.4,0.6-0.8,1.2-1.6,1.2c-0.8,0-1.4-0.6-1.4-1.4c0-0.5,0.1-0.8,0.7-1.6c2-2.9,3.5-6.1,4.6-9.5h-3.3
			c-0.6,0.1-1.2-0.4-1.3-1c0-0.1,0-0.2,0-0.3c-0.1-0.6,0.3-1.2,1-1.3c0.1,0,0.2,0,0.3,0h3.6v-5.5c0-0.7,0.6-1.3,1.3-1.3
			c0.7,0,1.3,0.6,1.3,1.3l0,0L94,33.5z M108.7,31.8h5.8c0.7,0,1.3,0.6,1.3,1.3c0,0.7-0.6,1.3-1.3,1.3h-5.8v4.9h7.4
			c0.7,0,1.3,0.6,1.3,1.3s-0.6,1.3-1.3,1.3h-6.9c1.4,2.5,3.1,4.9,5,7c0.9,1.1,1.9,2.1,3,3c0.6,0.5,0.8,0.9,0.8,1.5
			c0,0.8-0.7,1.5-1.5,1.5c-0.6-0.1-1.2-0.3-1.6-0.8c-2.4-2.3-4.5-5-6.3-7.8v10.3c0,0.8-0.6,1.4-1.4,1.4c-0.8,0-1.4-0.6-1.4-1.4V46.5
			c-1.6,2.5-6.3,8.6-8,8.6c-0.8,0.1-1.4-0.5-1.5-1.3c0-0.1,0-0.1,0-0.2c0-0.5,0.2-0.9,1-1.5c3.2-2.8,5.9-6.2,8-10h-6.3
			c-0.7,0-1.3-0.6-1.3-1.3s0.6-1.3,1.3-1.3h6.7v-4.9H102c-1.8,4.3-2.4,4.3-3.1,4.3c-0.7,0-1.4-0.6-1.4-1.3c0,0,0,0,0-0.1
			c0.1-0.6,0.3-1.1,0.6-1.5c1-1.7,1.7-3.4,2.3-5.3c0.2-0.9,0.5-1.8,0.8-2.6c0.3-0.4,0.7-0.6,1.2-0.5c0.7,0,1.3,0.6,1.4,1.3
			c0,0,0,0.1,0,0.1c-0.1,1-0.4,2-0.8,3h3V28c-0.1-0.7,0.4-1.3,1.1-1.4c0.1,0,0.2,0,0.3,0c0.7-0.1,1.3,0.3,1.4,1c0,0.1,0,0.2,0,0.3
			L108.7,31.8z"/>
		<path d="M139.1,32.6c-0.1-1.4-0.1-2.6-0.1-4.3c0-1.2,0.5-1.8,1.5-1.8s1.5,0.3,1.5,1.6c0,2.4,0,3.2,0,4.5h8c0.8,0,1.4,0.6,1.4,1.4
			s-0.6,1.4-1.4,1.4h-7.9c0.6,16.1,4.9,19,5.3,19s0.7-0.9,1.4-3.4c0.2-0.8,0.6-1.3,1.4-1.3c0.8,0,1.4,0.5,1.4,1.3c0,0,0,0,0,0.1
			c0,0.8-0.8,4.3-2.1,5.9c-0.5,0.5-1.2,0.9-1.9,0.8c-2.3,0-5.1-3.2-6.8-10c-1-4.1-1.5-8.3-1.6-12.5h-17.4c-0.8,0-1.4-0.6-1.4-1.4
			s0.6-1.4,1.4-1.4L139.1,32.6z M131.4,42.8V52l4.1-1c1-0.3,2-0.6,3-0.8c0.7-0.1,1.4,0.5,1.4,1.2c0,0.1,0,0.1,0,0.2
			c0,1-0.6,1.3-2.2,1.7c-4.9,1.4-9.9,2.5-15,3.2c-0.8,0-1.4-0.6-1.4-1.3c0-0.1,0-0.1,0-0.2c0-1,0.8-1.3,1.6-1.4
			c1.4-0.2,3.8-0.7,5.7-1v-9.8h-4.9c-0.7,0-1.3-0.6-1.3-1.3s0.6-1.3,1.3-1.3h13.2c0.7-0.1,1.2,0.4,1.3,1c0,0.1,0,0.2,0,0.3
			c0.1,0.7-0.4,1.3-1,1.4c-0.1,0-0.2,0-0.3,0H131.4z M148.6,29.1c0.5,0.3,0.7,0.9,0.8,1.4c0,0.8-0.6,1.4-1.4,1.5
			c-0.6,0-0.9-0.3-1.5-0.8s-1.3-1.2-1.9-1.7s-0.9-0.9-0.9-1.4c0-0.8,0.6-1.4,1.4-1.4C145.8,26.7,146,26.7,148.6,29.1z"/>
		<path d="M184.3,36c1,0.3,1.3,0.9,1.3,1.5c0,0.8-0.6,1.6-1.5,1.6c-1.9,0-9.4-3.8-14.1-8.8c-4.5,4.7-12.6,8.9-14.3,8.9
			c-0.8-0.1-1.4-0.8-1.4-1.6c0-0.8,0.5-1.1,1.6-1.5c4.8-1.8,9.1-4.8,12.6-8.6c0.4-0.5,0.9-0.9,1.6-1c0.9,0,1.6,0.6,1.6,1.5
			C175.3,31.5,179.6,34.3,184.3,36z M169,45.5c-1.8,3-3.9,5.8-6.1,8.4c3.7-0.2,10.5-0.6,14.7-1.2c-0.7-0.9-1.9-2.1-3-3.4
			c-0.6-0.6-0.8-1-0.8-1.3c0.1-0.8,0.7-1.4,1.6-1.5c0.7,0,1.1,0.5,1.8,1.2c1.9,2,3.7,4.2,5.3,6.4c0.5,0.5,0.8,1.2,0.9,2
			c-0.1,0.8-0.8,1.5-1.7,1.5c-0.7,0-1-0.5-1.5-1.1c-0.3-0.5-0.7-1-0.9-1.4c-4.8,0.8-17.7,1.7-20.5,1.7c-1,0-1.7-0.4-1.7-1.4
			c0-1.5,1.2-1.5,2.1-1.5c2.3-2.7,4.4-5.5,6.3-8.5h-8.9c-0.8-0.1-1.3-0.7-1.3-1.5c0.1-0.7,0.6-1.2,1.3-1.3h26.4
			c0.8-0.1,1.4,0.5,1.5,1.3s-0.5,1.4-1.3,1.5c-0.1,0-0.2,0-0.2,0L169,45.5z M162.8,39.5c-0.8,0.1-1.4-0.5-1.5-1.3
			c-0.1-0.8,0.5-1.4,1.3-1.5c0.1,0,0.2,0,0.2,0H177c0.8,0.1,1.3,0.7,1.3,1.5c-0.1,0.7-0.6,1.2-1.3,1.3H162.8z"/>
		<path d="M197.1,32.2h3.2c0.8-0.1,1.5,0.5,1.6,1.2c0,0.1,0,0.2,0,0.4c0,0.8-0.7,3.1-4.1,7.4c1.6,1,3.1,2.2,4.6,3.4
			c0.4,0.3,0.7,0.8,0.7,1.3c0,0.8-0.6,1.5-1.4,1.5c-0.6,0-1-0.3-1.7-1s-1.8-1.6-2.9-2.5v12.9c0,0.7-0.6,1.3-1.3,1.3
			c-0.7,0-1.3-0.6-1.3-1.3c0,0,0,0,0,0V45c-1.4,1.4-4.1,3.6-5.1,3.6c-0.8-0.1-1.3-0.7-1.3-1.5c0-0.5,0.2-0.8,0.9-1.3
			c3.5-2.4,6.4-5.4,8.6-9c0.4-0.5,0.7-1.1,0.9-1.7c0-0.2-0.2-0.2-0.4-0.2h-8.4c-0.8,0-1.4-0.6-1.4-1.4s0.6-1.4,1.4-1.4h4.7v-4.4
			c0-0.7,0.6-1.3,1.3-1.3s1.3,0.6,1.3,1.3c0,0,0,0,0,0V32.2z M211.9,38.4v15.6h6.6c0.8,0.1,1.3,0.7,1.3,1.5
			c-0.1,0.7-0.6,1.2-1.3,1.3H202c-0.8-0.1-1.3-0.7-1.3-1.5c0.1-0.7,0.6-1.2,1.3-1.3h7V38.5h-5.2c-0.8,0-1.4-0.6-1.4-1.4
			s0.6-1.4,1.4-1.4h5.2v-7.8c0-0.8,0.6-1.4,1.4-1.4c0.8,0,1.4,0.6,1.4,1.4v7.8h5.8c0.8,0,1.4,0.6,1.4,1.4s-0.6,1.4-1.4,1.4
			L211.9,38.4z"/>
		<path d="M232.2,35.8h4.4c0.7-0.1,1.4,0.5,1.4,1.2c0.1,0.7-0.5,1.4-1.2,1.4c-0.1,0-0.2,0-0.2,0h-4.4v2c0.2-0.2,0.5-0.3,0.8-0.3
			c0.5,0,1,0.3,1.3,0.8c0.2,0.3,3.2,3.7,3.2,5c0,0.8-0.7,1.4-1.5,1.4c-0.5,0-1-0.3-1.4-1c-0.7-1.2-1.6-2.4-2.4-3.5v14
			c0,0.8-0.6,1.4-1.4,1.4s-1.4-0.6-1.4-1.4V43.8c-1.3,2.2-2.8,4.3-4.4,6.2c-0.7,0.8-1.1,1-1.6,1c-0.8,0-1.4-0.7-1.4-1.5
			c0-0.7,0.5-1.1,1.1-1.8c2.5-2.7,4.5-5.9,5.9-9.3h-5.4c-0.7,0.1-1.4-0.5-1.4-1.2c-0.1-0.7,0.5-1.4,1.2-1.4c0.1,0,0.2,0,0.2,0h5.8
			v-4.3c-1.7,0.4-3.4,0.7-5.1,0.8c-0.7,0.1-1.4-0.5-1.4-1.2c0-0.1,0-0.1,0-0.2c0-0.6,0.4-1.2,1.1-1.3c0.6-0.2,1.6-0.2,2.7-0.4
			c2.5-0.4,5-1.1,7.4-1.9c0.6-0.3,1.1-0.4,1.8-0.5c0.8,0,1.4,0.7,1.4,1.5c0,0.7,0,1.3-5.1,2.6L232.2,35.8z M238.6,32.2
			c-0.1-1.2,0.7-2.3,2-2.5c0.2,0,0.3,0,0.5,0h8.8c1.2-0.1,2.3,0.7,2.5,2c0,0.2,0,0.3,0,0.5v21.5c0.1,1.2-0.7,2.3-2,2.5
			c-0.2,0-0.3,0-0.5,0h-8.8c-1.2,0.1-2.3-0.7-2.5-2c0-0.2,0-0.3,0-0.5V32.2z M242.3,32.5c-0.7,0-0.9,0.1-0.9,0.8v19.3
			c0,0.7,0.1,0.8,0.9,0.8h6.4c0.7,0,0.9-0.1,0.9-0.8V33.3c0-0.7-0.1-0.8-0.9-0.8L242.3,32.5z"/>
		<path d="M258.6,31.2c-0.2-1.3,0.8-2.5,2.1-2.6c0.2,0,0.4,0,0.6,0h21.6c1.3-0.2,2.5,0.8,2.7,2.1c0,0.2,0,0.4,0,0.6v22
			c0.2,1.3-0.8,2.5-2.1,2.7c-0.2,0-0.4,0-0.6,0h-21.6c-1.3,0.2-2.5-0.8-2.6-2.1c0-0.2,0-0.4,0-0.6V31.2z M270.4,31.4h-8
			c-0.8,0-0.9,0.1-0.9,1v8.2h8.9L270.4,31.4z M270.4,43.1h-8.9v9c0,0.8,0.1,1,0.9,1h8L270.4,43.1z M273.1,40.5h9.5v-8.1
			c0-0.8-0.1-1-0.9-1h-8.6L273.1,40.5z M273.1,53.1h8.6c0.8,0,0.9-0.1,0.9-1v-9h-9.5L273.1,53.1z"/>
		<path d="M307.4,33v18.9h12.2c0.8,0.1,1.4,0.8,1.3,1.7c-0.1,0.7-0.6,1.2-1.3,1.3h-27.2c-0.8,0.1-1.6-0.5-1.7-1.3s0.5-1.6,1.3-1.7
			c0.1,0,0.2,0,0.3,0h11.9V33h-10.6c-0.8,0.1-1.5-0.5-1.6-1.3c-0.1-0.8,0.5-1.5,1.3-1.6c0.1,0,0.2,0,0.2,0H318
			c0.7-0.1,1.3,0.4,1.4,1.1c0,0.1,0,0.2,0,0.3c0.1,0.7-0.4,1.4-1.1,1.5c-0.1,0-0.2,0-0.3,0H307.4z"/>
		<path d="M344.1,32.4h10c0.7,0.1,1.2,0.7,1.2,1.4c-0.1,0.6-0.5,1.1-1.2,1.2h-7c-0.4,1-0.9,2-1.5,2.9h6.3c0.7,0,1.2,0.5,1.2,1.2
			c0,0.7-0.5,1.2-1.2,1.2h-10.6v1.9h9.4c0.6-0.1,1.2,0.4,1.2,1c0.1,0.6-0.4,1.2-1,1.2c-0.1,0-0.1,0-0.2,0h-9.4v2.1h12.4
			c0.6-0.1,1.1,0.3,1.2,0.9c0,0.1,0,0.2,0,0.3c0.1,0.6-0.3,1.1-0.9,1.2c-0.1,0-0.2,0-0.3,0h-9.5c3,2.2,6.4,3.9,10,4.9
			c0.9,0.3,1.2,0.7,1.2,1.4c0.1,0.7-0.5,1.4-1.3,1.5c0,0,0,0,0,0c-1.4,0-8.3-2.6-12.8-6.9v6.8c0,0.8-0.6,1.4-1.4,1.4
			c-0.8,0-1.4-0.6-1.4-1.4c0,0,0,0,0,0v-6.9c-6.2,5.6-12.1,7.2-12.7,7.2c-0.8,0-1.4-0.6-1.3-1.4c0-0.1,0-0.1,0-0.2
			c0-0.5,0.3-0.9,1.1-1.2c3.6-1.1,6.9-2.9,9.9-5.3h-9.3c-0.6,0.1-1.1-0.3-1.2-0.9c0-0.1,0-0.2,0-0.3c-0.1-0.6,0.3-1.1,0.9-1.2
			c0.1,0,0.2,0,0.3,0h12.3v-2.1h-9.3c-0.6-0.1-1.1-0.6-1-1.2c0.1-0.5,0.5-1,1-1h9.3v-1.9h-10.6c-0.7,0-1.2-0.5-1.2-1.2
			c0-0.7,0.5-1.2,1.2-1.2h6.5c-0.4-1-0.8-2-1.3-2.9h-7.5c-0.7-0.1-1.2-0.7-1.2-1.4c0.1-0.6,0.5-1.1,1.2-1.2h10.2v-4.5
			c0-0.8,0.6-1.4,1.4-1.4c0.8,0,1.4,0.6,1.4,1.4v4.5h2.9v-4.5c0-0.7,0.6-1.3,1.3-1.3s1.3,0.6,1.3,1.3c0,0,0,0,0,0L344.1,32.4z
			 M331.2,27.8c0.7,0.8,1.8,2.4,1.8,3.1c0,0.7-0.6,1.3-1.3,1.3c0,0,0,0,0,0c-0.4,0-0.9-0.2-1.1-0.6c-0.3-0.5-1.1-1.7-1.3-2
			c-0.4-0.5-0.5-0.7-0.5-1.1c0.1-0.7,0.7-1.3,1.4-1.3C330.6,27.2,331,27.4,331.2,27.8L331.2,27.8z M336.1,35c0.4,0.8,0.9,2,1.3,2.9
			h5.3c0.7-0.9,1.2-1.9,1.6-2.9H336.1z M349.3,31.6c-0.3,0.3-0.7,0.5-1.1,0.5c-0.7,0-1.3-0.6-1.4-1.3c0.1-0.4,0.3-0.7,0.5-1
			c0.6-0.9,0.9-1.3,1.5-2c0.2-0.4,0.7-0.6,1.2-0.6c0.7,0,1.3,0.5,1.4,1.2C351.3,29.2,350.3,30.5,349.3,31.6L349.3,31.6z"/>
		<path d="M99.4,4.9h2c0.4-0.1,0.7,0.2,0.8,0.6c0,0.1,0,0.1,0,0.2c0,0.4-0.2,0.7-0.6,0.8c0,0-0.1,0-0.1,0h-2v4.5
			c0,1.1-0.3,1.4-1.4,1.4h-3.7c-1.1,0-1.4-0.3-1.4-1.4V6.4h-3.1v8.1c0,0.4,0.2,0.6,0.6,0.6h10.7c0.4,0,0.7,0.2,0.8,0.6
			c0,0.1,0,0.1,0,0.2c0,0.4-0.2,0.7-0.6,0.8c-0.1,0-0.1,0-0.2,0H89.7c-0.8,0.1-1.5-0.4-1.6-1.2c0-0.1,0-0.3,0-0.4V6.4h-1.7
			c-0.4,0-0.7-0.2-0.7-0.6c0-0.1,0-0.1,0-0.2c0-0.4,0.2-0.7,0.6-0.7c0.1,0,0.1,0,0.2,0h1.7V1.8c0-0.4,0.4-0.7,0.9-0.7
			c0.4,0,0.6,0.3,0.7,0.7v3.1h3.2V1.8c0-0.4,0.2-0.8,0.7-0.8c0.4,0,0.8,0.2,0.8,0.7c0,0.1,0,0.1,0,0.2v3.2h3.6V1.7
			c0-0.4,0.3-0.7,0.7-0.7s0.7,0.3,0.7,0.7V4.9z M94.3,6.4v4.1c0,0.2,0.1,0.4,0.3,0.4c0,0,0.1,0,0.1,0h2.9c0.2,0,0.3-0.1,0.4-0.3
			c0,0,0-0.1,0-0.1V6.4H94.3z"/>
		<path d="M110.6,8.3c-1.6,2-3.8,3.4-6.2,4.1c-0.4,0-0.7-0.3-0.7-0.7c0,0,0-0.1,0-0.1c0-0.4,0.2-0.6,0.8-0.8
			c1.6-0.5,3.1-1.4,4.3-2.6h-2.3c-0.7,0.1-1.3-0.4-1.3-1.1c0-0.1,0-0.1,0-0.2V2.4c-0.1-0.7,0.4-1.3,1.1-1.3c0.1,0,0.1,0,0.2,0h11
			c0.7-0.1,1.3,0.4,1.3,1.1c0,0.1,0,0.1,0,0.2V7c0.1,0.7-0.4,1.3-1.1,1.3c-0.1,0-0.1,0-0.2,0h-2.2c1.3,1.1,2.8,2,4.4,2.5
			c0.3,0.1,0.5,0.4,0.5,0.7c0,0.4-0.3,0.8-0.7,0.8c0,0,0,0-0.1,0c-0.7,0-2.7-1.1-3.8-1.9c-0.9-0.6-1.7-1.3-2.4-2.2L110.6,8.3z
			 M109,15c-0.7,1.1-1.9,1.8-3.2,2.1c-0.4,0-0.7-0.3-0.7-0.7c0,0,0,0,0-0.1c0-0.3,0.2-0.5,0.5-0.6c2.1-0.9,2.8-2,3-4.8
			c0-0.4,0.3-0.7,0.7-0.8c0,0,0.1,0,0.1,0c0.5,0,0.7,0.3,0.8,0.8C110.1,12.4,109.7,13.8,109,15z M111.3,2.4H107
			c-0.3,0-0.4,0.1-0.4,0.4V4h4.6L111.3,2.4z M111.3,5.3h-4.6v1.3c0,0.4,0.1,0.4,0.4,0.4h4.2V5.3z M112.7,4h4.7V2.9
			c0-0.4-0.1-0.4-0.4-0.4h-4.2V4z M112.7,5.3V7h4.2c0.4,0,0.4-0.1,0.4-0.4V5.3H112.7z M114,11c0-0.4,0.4-0.7,0.9-0.7
			c0.4,0,0.6,0.3,0.7,0.7v5.4c0,0.4-0.4,0.7-0.9,0.7c-0.4,0-0.6-0.3-0.7-0.7V11z"/>
		<path d="M129.4,8.4v8.1c0,0.4-0.2,0.7-0.6,0.8S128,17,128,16.6c0-0.1,0-0.1,0-0.2v-1.2c-1.8,0.5-3.6,0.8-5.4,1.1
			c-0.4,0-0.7-0.3-0.7-0.7c0,0,0,0,0-0.1c0-0.3,0.2-0.6,0.5-0.6l0.9-0.1V8.4h-0.8c-0.3,0-0.6-0.2-0.6-0.5c0,0,0-0.1,0-0.2
			c0-0.3,0.2-0.6,0.5-0.6c0,0,0.1,0,0.2,0h15c0.3,0,0.6,0.2,0.6,0.5c0,0,0,0.1,0,0.1c0,0.3-0.2,0.6-0.5,0.6c0,0-0.1,0-0.1,0H129.4z
			 M123.8,2.5c-0.1-0.6,0.4-1.2,1-1.3c0.1,0,0.2,0,0.3,0h9.5c0.6-0.1,1.2,0.4,1.3,1c0,0.1,0,0.2,0,0.3v2.4c0.1,0.6-0.4,1.2-1,1.3
			c-0.1,0-0.2,0-0.3,0h-9.5c-0.7,0.1-1.2-0.4-1.3-1c0-0.1,0-0.2,0-0.3L123.8,2.5z M124.7,8.4v1.2h3.3V8.4H124.7z M124.7,10.8v1.1
			h3.3v-1.1H124.7z M124.7,13.1v1.5c0.9-0.1,2.2-0.4,3.3-0.7v-0.9H124.7z M125.6,2.4c-0.3,0-0.3,0.1-0.3,0.8h9.3
			c0-0.7,0-0.8-0.3-0.8H125.6z M125.3,4.4c0,0.7,0,0.8,0.3,0.8h8.7c0.3,0,0.3-0.1,0.3-0.8H125.3z M135.8,9.4c0.8,0,1.2,0.4,1.2,1
			c0,0.4-0.3,1.7-2.2,3.8c0.7,0.5,1.4,0.9,2.2,1.2c0.5,0.2,0.6,0.4,0.6,0.7c0,0.4-0.3,0.8-0.8,0.8c-1.1-0.4-2.2-1-3.1-1.8
			c-0.9,0.8-1.9,1.4-3,1.8c-0.4,0-0.7-0.3-0.8-0.7c0-0.3,0.1-0.4,0.5-0.6c0.8-0.4,1.5-0.8,2.2-1.3c-0.9-1-1.6-2.2-2-3.5
			c-0.4,0-0.8,0-0.8-0.7c0-0.3,0.2-0.6,0.5-0.6c0,0,0.1,0,0.1,0L135.8,9.4z M132.2,10.8c0.3,1,0.9,1.9,1.6,2.6
			c0.7-0.7,1.3-1.5,1.6-2.5c0-0.1-0.1-0.1-0.3-0.1H132.2z"/>
		<path d="M143.8,12.8c0.7,1.2,2,2,3.4,2.2c1,0.1,2.1,0.2,3.1,0.2c2.5,0,4.9-0.2,5.3-0.2c0.3-0.1,0.7,0.2,0.7,0.5c0,0.1,0,0.1,0,0.2
			c0,0.6-0.3,0.8-1.1,0.8c-1.5,0.1-2.9,0.1-4.9,0.1c-3.8,0-5.5-0.3-7.1-2.2c-0.4,0.5-1.2,1.4-1.6,1.7s-0.6,0.7-1.1,0.7
			c-0.4,0-0.7-0.3-0.8-0.8c0-0.3,0.1-0.4,0.5-0.8c0.7-0.6,1.4-1.3,2-2.1v-4c0-0.3-0.1-0.3-0.4-0.3h-1.4c-0.4,0-0.7-0.2-0.7-0.5
			c0-0.1,0-0.1,0-0.2c0-0.4,0.2-0.7,0.5-0.7c0.1,0,0.1,0,0.2,0h2.1c0.5-0.1,1.1,0.3,1.2,0.8c0,0.1,0,0.2,0,0.3L143.8,12.8z
			 M142.5,1.4c0.5,0.5,0.9,1,1.4,1.5c0.2,0.2,0.3,0.5,0.4,0.8c0,0.4-0.3,0.8-0.7,0.8c0,0,0,0,0,0c-0.2,0-0.5-0.1-0.6-0.3
			c-0.5-0.6-1-1.1-1.5-1.6c-0.2-0.2-0.4-0.5-0.4-0.8c0-0.4,0.4-0.8,0.8-0.8c0,0,0,0,0,0C142.1,1,142.3,1.1,142.5,1.4z M150.7,3.7V5
			h3.2c0.6,0,1,0.4,1,1v2.4c0,0.5-0.4,1-0.9,1c0,0-0.1,0-0.1,0h-1.9c1,1.2,2.2,2.1,3.6,2.8c0.4,0.1,0.6,0.6,0.4,1
			c-0.1,0.3-0.3,0.4-0.6,0.5c-0.8,0-3.1-1.6-4.6-3.6v4c0,0.4-0.2,0.7-0.6,0.8c-0.4,0-0.7-0.2-0.8-0.6c0-0.1,0-0.1,0-0.2v-3.9
			c-1.6,2.3-3.7,3.5-4.2,3.5c-0.4-0.1-0.6-0.3-0.7-0.7c0-0.3,0.1-0.4,0.6-0.7c1.2-0.7,2.2-1.6,3.1-2.7h-1.8c-0.6,0-1-0.4-1.1-0.9
			c0,0,0,0,0-0.1V6c0-0.6,0.4-1,1-1c0,0,0,0,0.1,0h3V3.7h-4.1c-0.3,0-0.6-0.2-0.7-0.5c0,0,0-0.1,0-0.1c0-0.4,0.2-0.7,0.7-0.7h4.1v-1
			c0-0.4,0.4-0.6,0.8-0.6c0.3,0,0.6,0.3,0.6,0.6v1h4.3c0.3,0,0.6,0.2,0.7,0.5c0,0.1,0,0.1,0,0.2c0,0.3-0.2,0.6-0.5,0.7
			c0,0-0.1,0-0.1,0H150.7z M149.3,6.2H147c-0.2,0-0.3,0.1-0.3,0.3v1.4c0,0.2,0.1,0.3,0.3,0.3h2.3L149.3,6.2z M150.7,8.2h2.5
			c0.2,0,0.3-0.1,0.3-0.3V6.5c0-0.2-0.1-0.3-0.3-0.3h-2.5V8.2z"/>
		<path d="M163.7,13.1c-0.4,0.9-1.3,1.6-2.4,1.7c-1.4,0-3.1-1.6-3.1-4.5c0-4.4,3.6-8,8-8c0.1,0,0.3,0,0.4,0c4.3,0,7,2.6,7,6.8
			c0,3.5-2.4,6.5-5.9,7.2c-0.4,0-0.8-0.4-0.8-0.8c0-0.6,0.3-0.7,0.9-0.9c2.4-0.7,4.1-2.9,4-5.4c0-1.3-0.3-5.2-5.1-5.3
			C166.3,7.1,165.3,10.2,163.7,13.1z M159.7,10.4c0,1.8,0.9,2.8,1.5,2.8s1-0.8,1.4-1.4c1.2-2.4,2.1-5.1,2.6-7.8
			C162.1,4.5,159.8,7.2,159.7,10.4L159.7,10.4z"/>
		<path d="M181.9,4c-0.6,3.9-2,7.6-4.2,10.9c-0.4,0.5-0.7,0.8-1.2,0.8c-0.5,0-0.8-0.4-0.9-0.8c0-0.4,0.2-0.6,0.7-1.3
			c0.9-1.3,1.7-2.7,2.3-4.2c0.7-1.7,1.2-3.6,1.5-5.4c0-0.4,0.4-0.8,0.9-0.8C181.4,3.2,181.8,3.5,181.9,4C181.8,4,181.8,4,181.9,4z
			 M187.9,4c1.1,1.9,4.2,9.2,4.2,10.4c0,0.5-0.4,0.9-0.9,0.9c0,0,0,0,0,0c-0.5,0-0.8-0.3-1-1.1c-0.4-1.5-1-3-1.6-4.5
			c-0.6-1.5-1.2-2.7-2-4.2c-0.3-0.7-0.7-1.1-0.7-1.5c0-0.5,0.4-0.9,0.9-0.9c0,0,0,0,0,0C187.3,3.1,187.4,3.2,187.9,4L187.9,4z
			 M192.7,2.4c0,1.2-1,2.2-2.2,2.2c-1.2,0-2.1-1-2.1-2.2s1-2.2,2.1-2.2C191.7,0.2,192.7,1.2,192.7,2.4z M189.5,2.4
			c0,0.6,0.5,1.1,1.1,1.1c0.6,0,1.1-0.5,1.1-1.1c0,0,0,0,0,0c0-0.6-0.5-1.1-1.1-1.1c0,0,0,0,0,0C190,1.3,189.5,1.8,189.5,2.4
			L189.5,2.4z"/>
		<path d="M201.9,8.2c-1.3,1.1-2.6,2-4.1,2.8c-0.6,0.4-1.2,0.7-1.9,0.9c-0.5,0-0.9-0.4-0.9-0.9c0-0.4,0.2-0.6,0.8-0.9
			c3.8-1.7,7-4.5,9.2-8c0.4-0.6,0.5-0.8,0.9-0.8c0.5,0,0.9,0.4,0.9,0.9c0,0.8-2.5,3.7-3.5,4.7v9.3c0,0.4-0.3,0.8-0.7,0.9
			c-0.4,0-0.8-0.3-0.9-0.7c0-0.1,0-0.1,0-0.2V8.2z"/>
		<path d="M224.2,3c0.2,0,0.3,0,0.5,0c-0.5-1.1,0.1-2.4,1.2-2.8c0.3-0.1,0.5-0.2,0.8-0.2c1.2,0,2.1,0.9,2.2,2.1c0,0,0,0,0,0.1
			c0,1.2-0.9,2.1-2.1,2.2c0,0,0,0-0.1,0c-0.3,0-0.6-0.1-0.9-0.2c0.1,0.7-0.9,4.7-3.8,8c-2.6,2.9-5.6,4-6.4,4c-0.5,0-0.9-0.4-0.9-0.9
			c0,0,0,0,0,0c0-0.5,0.3-0.7,0.7-0.9c1.7-0.5,3.2-1.4,4.5-2.6c2-1.8,3.4-4.2,4-6.9c0-0.2,0-0.2-0.3-0.2H213
			c-0.4,0.1-0.8-0.2-0.8-0.6c0-0.1,0-0.1,0-0.2c0-0.4,0.3-0.8,0.7-0.8c0,0,0.1,0,0.1,0H224.2z M225.7,2.2c0,0.6,0.4,1.1,1,1.1
			c0,0,0,0,0.1,0c0.6,0,1.1-0.5,1.1-1.1c0,0,0,0,0,0c0-0.6-0.5-1.1-1.1-1.1c0,0,0,0,0,0C226.2,1.1,225.7,1.6,225.7,2.2L225.7,2.2z"
			/>
		<path d="M233.2,5.3c0.3,0,3.2-0.7,3.5-0.7c0.4,0,0.7,0.2,0.7,0.6c0,0,0,0.1,0,0.1c0,0.4-0.3,0.6-0.6,0.7c-0.7,0.2-2.8,0.5-3.6,0.7
			v5.4c0,0.9,0.1,0.9,1,0.9s1.3-0.1,1.4-0.5s0.2-1,0.3-1.4c0.1-0.3,0.3-0.4,0.6-0.4c0.4,0,0.8,0.2,0.8,0.6c0,0,0,0.1,0,0.1
			c0,0.9-0.3,1.8-0.8,2.5c-0.4,0.3-0.9,0.5-2.5,0.5s-2.3-0.4-2.3-1.7V7c-0.5,0.1-1.1,0.2-1.6,0.3c-0.3,0-0.6-0.2-0.6-0.7
			s0.2-0.7,2.2-1V1.7c0-0.4,0.2-0.7,0.6-0.8c0.1,0,0.1,0,0.2,0c0.4-0.1,0.7,0.2,0.8,0.6c0,0.1,0,0.1,0,0.2L233.2,5.3z M240.9,3.2
			c0,6.9-0.9,9.8-2.6,12c-0.2,0.2-1.3,1.8-2.1,1.8c-0.4,0-0.8-0.4-0.8-0.8c0-0.3,0.2-0.4,0.7-0.9c2.4-2.1,3.3-5.4,3.3-12.1H237
			c-0.4,0-0.7-0.2-0.7-0.6c0,0,0-0.1,0-0.1c0-0.4,0.2-0.7,0.6-0.7c0,0,0.1,0,0.1,0h7.2c0.9,0,1.2,0.5,1.2,1.3
			c0.1,3.6-0.1,7.2-0.4,10.8c-0.3,2.3-0.7,2.9-2.8,2.9c-1.5,0-2.1-0.1-2.1-0.9c0-0.4,0.2-0.7,0.6-0.7c0,0,0.1,0,0.1,0
			c0.4,0,1,0.1,1.5,0.1c0.8,0,0.9-0.2,1.2-1.7c0.3-3.1,0.5-6.3,0.5-9.4c0-0.8,0-0.9-0.4-0.9L240.9,3.2z"/>
		<path d="M248.2,2c0-0.4,0.4-0.7,0.8-0.6c0.3,0,0.6,0.3,0.6,0.6v12.3c0,0.2,0.1,0.3,0.3,0.3h4.7c0.4,0,0.7,0.3,0.7,0.7
			c0,0.4-0.3,0.7-0.7,0.7c0,0,0,0,0,0h-5.1c-0.9,0-1.4-0.4-1.4-1.4L248.2,2z M254,6.1h1.8c0.3,0,0.6,0.2,0.7,0.5c0,0,0,0.1,0,0.1
			c0,0.3-0.2,0.6-0.5,0.7c0,0-0.1,0-0.1,0H254v0.8c0.1-0.1,0.2-0.2,0.4-0.2c0.3,0,0.4,0.2,0.6,0.4c0.4,0.4,0.8,1,1.1,1.4
			c0.2,0.2,0.3,0.5,0.4,0.8c0,0.4-0.3,0.6-0.7,0.6c-0.3,0-0.5-0.1-0.8-0.6s-0.7-0.9-1.1-1.4v4.2c0,0.4-0.2,0.7-0.6,0.8
			c-0.4,0-0.7-0.2-0.8-0.6c0-0.1,0-0.1,0-0.2V9.7c-0.4,0.7-0.8,1.3-1.3,1.9c-0.4,0.5-0.5,0.6-0.8,0.6c-0.4,0-0.7-0.3-0.7-0.7
			c0-0.3,0.2-0.5,0.4-0.9c0.8-1,1.5-2.1,2.1-3.3h-1.8c-0.3,0-0.6-0.2-0.7-0.5c0,0,0-0.1,0-0.1c0-0.3,0.2-0.6,0.6-0.7
			c0,0,0.1,0,0.1,0h2.1V1.4c0-0.4,0.2-0.7,0.6-0.8c0.4,0,0.7,0.2,0.8,0.6c0,0.1,0,0.1,0,0.2V6.1z M251.9,3.9
			c0.1,0.3,0.2,0.6,0.2,0.9c0,0.4-0.4,0.6-0.7,0.6c-0.4,0-0.6-0.2-0.6-0.6s-0.7-2-0.7-2.4c0-0.4,0.4-0.6,0.7-0.6
			C251.3,1.8,251.3,1.9,251.9,3.9L251.9,3.9z M256.7,2.3c-0.2,0.9-0.4,1.8-0.8,2.7c-0.2,0.4-0.3,0.6-0.7,0.6c-0.3,0-0.6-0.3-0.7-0.6
			c0-0.3,0.1-0.6,0.3-0.9c0.2-0.5,0.3-1,0.4-1.5c0.1-0.4,0.2-0.8,0.6-0.8S256.6,2,256.7,2.3L256.7,2.3z M258.7,6.3h4.8
			c0.4,0,0.7,0.2,0.7,0.6c0,0,0,0.1,0,0.1c0.1,0.4-0.2,0.7-0.5,0.7c-0.1,0-0.1,0-0.2,0H262v8.6c0,0.4-0.3,0.8-0.8,0.8
			s-0.8-0.3-0.8-0.8V7.8h-1.9c0,2.8-0.1,6.2-1.6,8.6c-0.1,0.3-0.4,0.5-0.7,0.5c-0.4,0-0.8-0.3-0.8-0.7c0,0,0,0,0,0
			c0-0.3,0.3-0.7,0.6-1.2c1-2.1,1.1-4.6,1.1-7.2V3.9c0-0.9,0.3-1.3,1.1-1.5c1.1-0.2,2.1-0.6,3.1-0.9c0.4-0.2,0.9-0.4,1.4-0.4
			c0.4,0,0.8,0.3,0.8,0.8c0,0.4-0.1,0.6-0.9,0.8c-1.2,0.4-2.4,0.8-3.6,1c-0.4,0.1-0.5,0.2-0.5,0.6L258.7,6.3z"/>
		<path d="M278.6,4.6c0.5,0,0.9,0.4,0.8,0.9c0,0,0,0,0,0c0,0.4-0.2,0.6-0.6,0.8c-3.4,1.3-6.8,2.9-8.1,4.4c-0.5,0.5-0.8,1.2-0.8,1.9
			c0,2,2.1,2.1,4.3,2.1c1.3,0,2.6-0.1,3.8-0.3c0.4-0.1,0.7-0.1,1.1-0.1c0.4,0,0.8,0.4,0.8,0.8c0,0,0,0.1,0,0.1
			c0,0.5-0.4,0.9-0.9,0.9c-1.7,0.2-3.3,0.4-5,0.4c-2.8,0-4.4-0.4-5.2-1.9c-0.3-0.5-0.5-1.1-0.5-1.8c0-1.7,0.9-3.2,3.7-5
			c-0.8-1.9-1.4-3.9-1.8-5.9c0-0.5,0.4-0.8,0.9-0.8c0.6,0,0.7,0.3,1.2,2.1c0.3,1.3,0.7,2.4,1.2,3.7C273.7,6.8,277.9,4.6,278.6,4.6z"
			/>
		<path d="M288.2,5c-0.1,2.7-0.6,5.4-1.5,7.9c-0.4,1.1-0.9,2.2-1.6,3.1c-0.4,0.5-0.6,0.7-0.9,0.7c-0.4,0-0.8-0.3-0.8-0.7
			c0-0.2,0.1-0.4,0.4-0.8c1.9-2.5,2.7-6.2,2.9-10.3h-2.2c-0.4,0-0.7-0.2-0.7-0.6c0-0.1,0-0.1,0-0.2c0-0.4,0.2-0.7,0.6-0.7
			c0.1,0,0.1,0,0.2,0h2.2c0-0.9,0-1.6,0-2.3c0-0.4,0.3-0.8,0.7-0.9c0.4,0,0.8,0.3,0.9,0.7c0,0.1,0,0.1,0,0.2c0,1,0,1.7,0,2.3h2.1
			c1.4,0,1.4,1.1,1.4,1.8c0,3-0.2,8.8-0.6,10.2c-0.2,0.9-1,1.4-1.9,1.3c-1.6,0-2-0.2-2-0.9c0-0.4,0.2-0.7,0.6-0.8c0,0,0,0,0.1,0
			c0.2,0,0.9,0.1,1.3,0.1s0.5-0.2,0.6-0.8c0.3-2.7,0.5-5.5,0.5-8.2c0-1.1,0-1.3-0.3-1.3L288.2,5z M299.6,15.4
			c0.1,0.6-0.3,1.2-0.9,1.3c-0.1,0-0.2,0-0.4,0h-3.8c-0.6,0.1-1.2-0.3-1.3-1c0-0.1,0-0.2,0-0.3V3.9c-0.1-0.6,0.3-1.2,1-1.3
			c0.1,0,0.2,0,0.3,0h3.8c0.6-0.1,1.2,0.3,1.3,1c0,0.1,0,0.2,0,0.3V15.4z M297.8,15.3c0.2,0,0.3-0.1,0.4-0.3c0,0,0-0.1,0-0.1V4.5
			c0-0.2-0.1-0.3-0.3-0.4c0,0-0.1,0-0.1,0h-2.7c-0.2,0-0.3,0.1-0.4,0.3c0,0,0,0,0,0.1v10.4c0,0.2,0.1,0.3,0.3,0.4c0,0,0.1,0,0.1,0
			L297.8,15.3z"/>
		<path d="M310.7,4v10h6.5c0.4,0,0.7,0.2,0.8,0.6c0,0.1,0,0.1,0,0.2c0.1,0.4-0.2,0.7-0.6,0.8c-0.1,0-0.1,0-0.2,0h-14.4
			c-0.4,0-0.8-0.2-0.8-0.6c0-0.1,0-0.1,0-0.2c0-0.4,0.2-0.8,0.6-0.8c0.1,0,0.1,0,0.2,0h6.3V4h-5.6c-0.4,0.1-0.7-0.2-0.8-0.6
			c0-0.1,0-0.1,0-0.2c0-0.4,0.2-0.7,0.6-0.8c0,0,0.1,0,0.1,0h12.8c0.4,0,0.7,0.2,0.8,0.6c0,0.1,0,0.1,0,0.2c0.1,0.4-0.2,0.7-0.6,0.8
			c-0.1,0-0.1,0-0.2,0H310.7z"/>
		<path d="M93.9,66.8c0.7-0.1,1.3,0.4,1.4,1.1l2.4,10.8l0,0l2.6-11c0.1-0.5,0.5-0.9,1-0.9c0.7,0,1,0.6,0.8,1.4l-3,11
			c-0.1,0.7-0.7,1.2-1.5,1.2c-0.8,0.1-1.5-0.5-1.5-1.3l-2.2-10.3l0,0l-2.3,10.3c-0.1,0.8-0.7,1.3-1.5,1.3c-0.7,0.1-1.4-0.5-1.5-1.2
			l-3-11c-0.2-0.8,0.1-1.4,0.8-1.4c0.5,0,0.9,0.4,1,0.9l2.6,11l0,0L92.5,68C92.6,67.3,93.2,66.7,93.9,66.8z"/>
		<path d="M106.8,68.1c0.1-0.8,0.9-1.3,1.7-1.3c0.8-0.1,1.6,0.5,1.7,1.3l3.3,10.8c0.3,0.9-0.1,1.5-0.8,1.5c-0.5,0-1-0.4-1.1-0.9
			l-0.8-3.1h-4.4l-0.8,3.1c-0.1,0.5-0.6,0.9-1.1,0.9c-0.8,0-1.1-0.6-0.8-1.5L106.8,68.1z M108.5,68.5L108.5,68.5l-1.8,6.4h3.5
			L108.5,68.5z"/>
		<path d="M115.5,79.1V68.1c0-0.7,0.3-1.2,1.1-1.2h2.9c4.2,0,6.1,2,6.1,6.6c0,4.4-1.7,6.8-6.1,6.8h-3
			C115.8,80.3,115.5,79.9,115.5,79.1z M119.5,78.8c2.7,0,4.2-1.5,4.2-5.2c0-3.4-1.2-5.2-4.2-5.2h-2v10.4H119.5z"/>
		<path d="M130.4,68.1c0.2-0.9,1.2-1.5,2.1-1.2c0.6,0.2,1.1,0.7,1.2,1.3l3.3,10.8c0.3,0.9,0,1.5-0.8,1.5c-0.5,0-1-0.4-1.1-0.9
			l-0.8-3.1h-4.4l-0.9,3.1c-0.1,0.5-0.6,0.9-1.1,0.9c-0.8,0-1.1-0.6-0.8-1.5L130.4,68.1z M132.1,68.5L132.1,68.5l-1.8,6.4h3.5
			L132.1,68.5z"/>
		<path d="M146,68c0-0.7,0.3-1.2,1-1.2s1,0.5,1,1.2v11.3c0,0.7-0.3,1.2-1,1.2s-1-0.4-1-1.2V68z"/>
		<path d="M159,78.1V67.8c0-0.6,0.3-1,0.9-1s0.9,0.4,0.9,1.1v10.7c0,1.2-0.6,1.8-1.5,1.8s-1.3-0.4-1.7-1.3L152.8,69l0,0v10.3
			c0,0.6-0.3,1.1-0.9,1.1S151,80,151,79.3V68.6c0-1.3,0.6-1.8,1.5-1.8c0.8,0,1.4,0.5,1.6,1.2L159,78.1z"/>
		<path d="M163.7,79.1V68.1c0-0.7,0.3-1.2,1.1-1.2h2.9c4.2,0,6.1,2,6.1,6.6c0,4.4-1.7,6.8-6,6.8h-3C164,80.3,163.7,79.9,163.7,79.1z
			 M167.7,78.8c2.7,0,4.2-1.5,4.2-5.2c0-3.4-1.2-5.2-4.2-5.2h-2v10.4H167.7z"/>
		<path d="M185.4,75.6c0,3.6-1.3,5-4.7,5s-4.7-1.3-4.7-5V68c0-0.7,0.3-1.2,1-1.2s1,0.5,1,1.2v7.5c0,2.3,0.5,3.6,2.8,3.6
			s2.8-1.3,2.8-3.6V68c0-0.7,0.3-1.2,1-1.2s1,0.5,1,1.2L185.4,75.6z"/>
		<path d="M188.7,77.3c0.3,0,0.6,0.2,0.8,0.4c0.6,0.8,1.6,1.4,2.6,1.4c1.3,0.1,2.5-0.8,2.7-2.2c0,0,0-0.1,0-0.1
			c0-0.6-0.3-1.2-0.8-1.5c-0.7-0.5-1.5-0.9-2.4-1.3c-1-0.4-1.9-0.9-2.6-1.5c-0.7-0.6-1.1-1.6-1.1-2.5c0-1.4,1-3.3,4.3-3.3
			c2.6,0,3.5,1.2,3.7,1.5c0.3,0.4,0.2,0.9-0.2,1.2c-0.1,0.1-0.3,0.2-0.5,0.2c-0.4,0-0.7-0.2-0.9-0.5c-0.5-0.7-1.3-1-2.1-1
			c-1.6,0-2.4,0.8-2.4,1.8c0,0.6,0.3,1.2,0.9,1.5c0.8,0.5,1.6,0.9,2.5,1.3c0.9,0.4,1.8,0.9,2.6,1.5c0.7,0.6,1.1,1.5,1.1,2.5
			c0,1.7-1.3,3.9-4.7,3.9c-1.5,0.1-3-0.5-4-1.7C187.5,78.2,187.8,77.3,188.7,77.3z"/>
		<path d="M206.4,66.9c0.5,0,0.9,0.3,0.9,0.7s-0.4,0.7-0.9,0.7h-2.8v10.9c0,0.7-0.3,1.2-1,1.2s-1-0.4-1-1.2V68.4h-2.9
			c-0.5,0-0.9-0.2-0.9-0.7s0.3-0.7,0.9-0.7H206.4z"/>
		<path d="M213,74.9h-2v4.4c0,0.7-0.3,1.2-1,1.2s-1-0.4-1-1.2V68.1c0-0.7,0.3-1.2,1.1-1.2h2.9c2.9,0,5.3,0.9,5.3,3.9
			c0.1,2-1.4,3.7-3.4,3.8c0,0,0,0,0,0l3.1,4.3c0.4,0.5,0.3,1.5-0.7,1.5c-0.5,0-1-0.3-1.2-0.8L213,74.9z M213.4,73.4
			c1.9,0,3-0.9,3-2.6s-0.9-2.5-3.4-2.5h-2v5L213.4,73.4z"/>
		<path d="M228,66.8c0.9,0,1,0.9,0.7,1.5l-3.3,6.8v4.2c0,0.7-0.3,1.2-1,1.2s-1-0.4-1-1.2v-4.2l-3.3-6.8c-0.3-0.6-0.2-1.5,0.7-1.5
			c0.6,0,0.8,0.3,1.1,0.8l1.1,2.6c0.5,1.2,1,2.3,1.4,3.5l0,0c0.5-1.2,0.9-2.3,1.4-3.5l1.2-2.6C227.2,67.1,227.5,66.8,228,66.8z"/>
		<path d="M247,76.3c0.5,0,0.9,0.4,0.9,0.9c0,0.2-0.1,0.4-0.2,0.5c-0.9,1.7-2.7,2.8-4.6,2.8c-1.5,0-2.9-0.5-4-1.6
			c-1.3-1.5-1.9-3.5-1.8-5.4c-0.1-1.9,0.5-3.8,1.7-5.2c1.1-1.1,2.5-1.7,4.1-1.7c1.8-0.1,3.6,0.9,4.4,2.5c0.4,0.8-0.1,1.4-0.7,1.4
			s-0.8-0.3-1.1-0.8c-0.4-1-1.4-1.7-2.6-1.6c-1.7,0-3.8,1.3-3.8,5.5s2,5.5,3.7,5.5c1.2,0,2.3-0.8,2.8-1.9
			C246.2,76.6,246.4,76.3,247,76.3z"/>
		<path d="M259.1,75.3c0,3.3-1.6,5.2-4.8,5.2s-4.8-1.9-4.8-5.3c0-3.8,2-5.3,4.8-5.3C257.2,70,259.1,71.5,259.1,75.3L259.1,75.3z
			 M254.4,79.2c1.7,0,2.9-1.3,2.9-3.9c0-2.9-1.4-4-2.9-4s-2.9,1.1-2.9,4C251.5,78,252.7,79.2,254.4,79.2L254.4,79.2z"/>
		<path d="M263.3,79.2c0,0.7-0.6,1.2-1.2,1.2c-0.7,0-1.2-0.6-1.2-1.2c0-0.6,0.5-1.2,1.2-1.2C262.8,78,263.3,78.5,263.3,79.2
			C263.3,79.2,263.3,79.2,263.3,79.2z"/>
		<path d="M265.8,82.6c-0.4,0-0.6-0.3-0.5-0.7l0.3-2.7c0.1-0.8,0.5-1.2,1.1-1.2c0.5-0.1,0.9,0.2,1,0.7c0,0.1,0,0.1,0,0.2
			c0,0.3-0.2,0.7-0.3,1l-1,2.1C266.2,82.3,266.1,82.6,265.8,82.6z"/>
		<path d="M278.1,66.8c0.7,0,1,0.5,1,1.2v10.9h5.1c0.5,0,0.9,0.3,0.9,0.7s-0.4,0.7-0.9,0.7h-5.9c-0.8,0-1.1-0.4-1.1-1.2V68
			C277.1,67.2,277.4,66.8,278.1,66.8z"/>
		<path d="M292.9,79.5c0,0.3-0.2,0.6-0.5,0.7c-0.6,0.3-1.2,0.4-1.8,0.4c-1.8,0-3.2-0.8-3.2-3.4v-5.5h-0.9c-0.5,0-0.8-0.2-0.8-0.7
			s0.3-0.7,0.8-0.7h0.9v-1.4c0-0.7,0.3-1.1,0.9-1.1s0.9,0.4,0.9,1.1v1.4h2.6c0.5,0,0.8,0.3,0.8,0.7s-0.3,0.7-0.8,0.7h-2.6v4.9
			c0,2.2,0.7,2.7,1.7,2.7c0.4,0,0.8-0.1,1.1-0.3c0.3-0.2,0.7,0,0.8,0.3C292.9,79.2,292.9,79.4,292.9,79.5z"/>
		<path d="M298.5,80.5c-2.8,0-4.1-2.1-4.1-5.3c0-3.5,1.8-5.3,4-5.3c1.1,0,2.2,0.4,2.9,1.2v-3.4c0-0.7,0.3-1.1,0.9-1.1
			s0.9,0.4,0.9,1.1v11.5c0,0.7-0.3,1.1-0.9,1.1s-1-0.5-0.9-1.2l0,0C300.6,80.1,299.6,80.5,298.5,80.5z M298.8,79.1
			c1.1,0,2.2-0.7,2.5-1.8v-4.3c-0.5-1-1.5-1.6-2.6-1.6c-1.6,0-2.6,1.4-2.6,3.9S297.2,79.1,298.8,79.1L298.8,79.1z"/>
		<path d="M307.8,79.2c0,0.7-0.6,1.2-1.2,1.2s-1.2-0.6-1.2-1.2c0-0.7,0.5-1.2,1.2-1.2C307.3,78,307.8,78.6,307.8,79.2z"/>
	</g>
</g>
</svg>
