<svg xmlns="http://www.w3.org/2000/svg" viewBox="0 0 301 69"><defs><style>.cls-1{fill:#be0f52;stroke-dasharray:320 5 0 0;}.cls-1,.cls-2{stroke:#fff;stroke-miterlimit:10;}.cls-2{fill:none;}.cls-3{fill:#fff;}</style></defs><title>ft_mail</title><g id="Layer_2" data-name="Layer 2"><g id="ヘッダー_フッター" data-name="ヘッダー・フッター"><rect class="cls-1" x="0.5" y="0.5" width="300" height="68" rx="34"/><line class="cls-2" x1="225.63" y1="33.5" x2="236.63" y2="33.5"/><polyline class="cls-2" points="234.13 36.33 236.95 33.5 234.13 30.67"/><path class="cls-2" d="M231.38,28.62a7,7,0,1,0,0,9.76"/><path class="cls-3" d="M100.67,29.46l2.15,4.85a15.67,15.67,0,0,1,.79,2.18h0a14.63,14.63,0,0,1,.8-2.18l2.14-4.85H109V40h-1.61V34.61c0-1,0-3,.08-3.8h-.05a31.18,31.18,0,0,1-1.18,3.12l-2,4.29H103l-2-4.29a27.47,27.47,0,0,1-1.19-3.12h0c0,1.08.08,2.38.08,3.8V40H98.23V29.46Z"/><path class="cls-3" d="M118.86,29.41,123,40h-1.85l-1.08-2.88h-4.3L114.7,40h-1.85L117,29.41ZM118.62,33c-.2-.57-.58-1.69-.66-2h0c-.1.42-.4,1.33-.66,2l-1,2.77h3.4Z"/><path class="cls-3" d="M131,29.46v1.26h-1.44v8H131V40h-4.53V38.73h1.43v-8h-1.43V29.46Z"/><path class="cls-3" d="M137.28,29.46v9h5V40h-6.74V29.46Z"/><path class="cls-3" d="M160.62,29.46V30.9h-5.36V34H160v1.38h-4.72V40H153.6V29.46Z"/><path class="cls-3" d="M174.71,34.71c0,3.25-2.11,5.5-5.15,5.5s-5.15-2.25-5.15-5.5,2.13-5.47,5.15-5.47S174.71,31.5,174.71,34.71Zm-8.49,0c0,2.41,1.35,4,3.34,4s3.34-1.63,3.34-4-1.36-4.06-3.34-4.06S166.22,32.31,166.22,34.7Z"/><path class="cls-3" d="M183.12,29.46c2.48,0,3.94,1.07,3.94,2.87A2.4,2.4,0,0,1,186,34.41a4.39,4.39,0,0,1-1.78.62v0c1.17.37,1.77,1.17,3.65,4.93h-2c-1.55-3.66-2.11-4.33-3.75-4.37h-1.23V40h-1.68V29.46Zm-2.26,4.82h1.76c1.69,0,2.6-.62,2.6-1.8s-.83-1.67-2.41-1.67h-1.95Z"/><path class="cls-3" d="M194.4,29.46l2.15,4.85a15.67,15.67,0,0,1,.79,2.18h0a14.63,14.63,0,0,1,.8-2.18l2.14-4.85h2.44V40h-1.61V34.61c0-1,0-3,.08-3.8h-.05A28.85,28.85,0,0,1,200,33.93l-2,4.29h-1.35l-2-4.29a27.47,27.47,0,0,1-1.19-3.12h0c0,1.08.08,2.38.08,3.8V40H192V29.46Z"/></g></g></svg>