<svg xmlns="http://www.w3.org/2000/svg" viewBox="0 0 376.53 91.04"><defs><style>.cls-1{fill:#fff;}.cls-2{fill:none;stroke:#fff;stroke-miterlimit:10;stroke-width:0.98px;}</style></defs><title>ft_tel</title><g id="Layer_2" data-name="Layer 2"><g id="ヘッダー_フッター" data-name="ヘッダー・フッター"><path class="cls-1" d="M26.46,49.47c0,11-5,17.73-13.23,17.73S0,60.44,0,49.47,5,31.75,13.23,31.75,26.46,38.51,26.46,49.47Zm-20.75,0c0,8.11,2.9,13.11,7.52,13.11s7.52-5,7.52-13.11S17.9,36.24,13.23,36.24,5.71,41.32,5.71,49.47Z"/><path class="cls-1" d="M58.72,32.46v4.62H42.93l-1.1,10H42a10.66,10.66,0,0,1,7.44-2.56c6.72,0,11.42,4.53,11.42,11,0,6.85-5.33,11.68-12.89,11.68a17.67,17.67,0,0,1-12.44-4.54l3.19-3.61a14.06,14.06,0,0,0,9.12,3.57,7,7,0,0,0,7.27-7.14c0-4.2-2.65-6.8-7-6.8a8.63,8.63,0,0,0-6.93,3.44l-4.74-1,1.8-18.69Z"/><path class="cls-1" d="M76.27,48.68a9.61,9.61,0,0,1,8.15-4.25C91.1,44.43,96,49.05,96,55.35c0,6.94-5,11.85-12,11.85-8.06,0-13.48-6.26-13.48-15.54a20.48,20.48,0,0,1,5.08-13.11,24.78,24.78,0,0,1,13.53-7.94l2,4.16c-8.53,2.52-13.78,7.35-15,13.91Zm.38,6.63a7.39,7.39,0,0,0,7.14,7.4c3.82,0,6.6-3,6.6-7.19s-2.69-7-6.72-7A7.16,7.16,0,0,0,76.65,55.31Z"/><path class="cls-1" d="M105.63,62c1.18-4.28,4.79-8.48,10.5-12.14l1.05-.67c5.71-3.65,7.06-5.17,7.06-7.94,0-2.94-2.65-5-6.34-5-3.53,0-6,1.22-8.66,4.29l-3.48-3c3.15-3.95,7-5.79,12.39-5.79,6.8,0,11.93,4.07,11.93,9.49a8.36,8.36,0,0,1-2.35,6.3c-1.14,1.22-2.15,1.93-6,4.37l-.76.46-1.34.84c-5,3.11-7.78,5.88-8.28,8.4h19.2v4.88H105.63Z"/><path class="cls-1" d="M154,48.63v4.2h-14v-4.2Z"/><path class="cls-1" d="M182.45,50.73a10.06,10.06,0,0,1-8.53,4.67c-6.8,0-11.47-4.67-11.47-11.47a12.43,12.43,0,0,1,3.66-8.61,12.15,12.15,0,0,1,8.78-3.57c8.06,0,13.06,6,13.06,15.62,0,13-5.75,18.95-19.78,20.46L165.9,63.5c10.21-.54,15.33-4.45,16.72-12.77ZM168,43.63c0,4.63,2.65,7.65,6.68,7.65a7,7,0,0,0,5.13-2.39,9.16,9.16,0,0,0,2-5,8.36,8.36,0,0,0-3.15-6.64,6.28,6.28,0,0,0-3.86-1.18C171.07,36.11,168,39.52,168,43.63Z"/><path class="cls-1" d="M203.62,48.68a9.58,9.58,0,0,1,8.15-4.25c6.67,0,11.55,4.62,11.55,10.92,0,6.94-5,11.85-12,11.85-8.06,0-13.48-6.26-13.48-15.54a20.54,20.54,0,0,1,5.08-13.11,24.82,24.82,0,0,1,13.53-7.94l2,4.16c-8.52,2.52-13.77,7.35-15,13.91Zm.37,6.63a7.39,7.39,0,0,0,7.15,7.4c3.82,0,6.59-3,6.59-7.19s-2.69-7-6.72-7A7.16,7.16,0,0,0,204,55.31Z"/><path class="cls-1" d="M246.29,48.63v4.2h-14v-4.2Z"/><path class="cls-1" d="M255.23,62c1.18-4.28,4.79-8.48,10.5-12.14l1-.67c5.72-3.65,7.06-5.17,7.06-7.94,0-2.94-2.65-5-6.34-5-3.53,0-6,1.22-8.66,4.29l-3.48-3c3.15-3.95,7.06-5.79,12.39-5.79,6.81,0,11.93,4.07,11.93,9.49a8.32,8.32,0,0,1-2.35,6.3c-1.14,1.22-2.14,1.93-6.05,4.37l-.76.46-1.34.84c-5,3.11-7.77,5.88-8.28,8.4h19.2v4.88H255.23Z"/><path class="cls-1" d="M297.65,49.1c-4.58-1.77-6.84-4.54-6.84-8.32,0-5.3,5.08-9.08,12.09-9.08s11.93,3.66,11.93,8.91c0,3.78-2.81,6.93-7.26,8.15v.13a12.4,12.4,0,0,1,5.33,2.73,8.51,8.51,0,0,1,3,6.25c0,5.59-5.21,9.33-13,9.33-8,0-13.06-3.57-13.06-9.2,0-4,2.77-7.1,7.81-8.78Zm-2,8.4c0,3.31,2.81,5.42,7.22,5.42,4.2,0,7.06-2.23,7.06-5.55,0-1.72-.92-3.19-2.81-4.41a12.6,12.6,0,0,0-3.2-1.51,13.7,13.7,0,0,0-1.34-.34C298.37,52.2,295.68,54.68,295.68,57.5Zm13.61-16.39c0-3.15-2.65-5.37-6.39-5.37s-6.42,2.18-6.42,5.25A4.19,4.19,0,0,0,298,44.52,10.35,10.35,0,0,0,300.38,46a15,15,0,0,0,2.57.88C306.85,45.9,309.29,43.68,309.29,41.11Z"/><path class="cls-1" d="M332.68,49.1c-4.58-1.77-6.85-4.54-6.85-8.32,0-5.3,5.09-9.08,12.1-9.08s11.93,3.66,11.93,8.91c0,3.78-2.81,6.93-7.27,8.15v.13a12.39,12.39,0,0,1,5.34,2.73,8.5,8.5,0,0,1,3,6.25c0,5.59-5.21,9.33-13,9.33-8,0-13.06-3.57-13.06-9.2,0-4,2.77-7.1,7.81-8.78Zm-2,8.4c0,3.31,2.81,5.42,7.22,5.42,4.2,0,7.06-2.23,7.06-5.55,0-1.72-.93-3.19-2.82-4.41A12.37,12.37,0,0,0,339,51.45c-.38-.13-1.3-.34-1.34-.34C333.39,52.2,330.71,54.68,330.71,57.5Zm13.61-16.39c0-3.15-2.65-5.37-6.39-5.37S331.5,37.92,331.5,41A4.19,4.19,0,0,0,333,44.52,10.35,10.35,0,0,0,335.41,46a15.23,15.23,0,0,0,2.56.88C341.88,45.9,344.32,43.68,344.32,41.11Z"/><path class="cls-1" d="M371,37.63a58.75,58.75,0,0,1-8.11,2.31l-1.13-4.37c3.86-.84,8.65-2.48,10.67-3.74h4.07V66.49H371Z"/><path class="cls-1" d="M127.42,90.15v-1.3h.09a3.23,3.23,0,0,0,1.43.3q3.39,0,3.73-3.92a5.39,5.39,0,0,1-2.7.87,3.66,3.66,0,0,1-2.64-.92,3.33,3.33,0,0,1-1-2.54,3.68,3.68,0,0,1,3.78-3.79A3.57,3.57,0,0,1,133,80.11a5.84,5.84,0,0,1,1.05,3.8,7.19,7.19,0,0,1-1.39,4.73,4.83,4.83,0,0,1-4,1.68A4.53,4.53,0,0,1,127.42,90.15Zm5.25-5.85,0-.65a4.8,4.8,0,0,0-.66-2.74,2.18,2.18,0,0,0-1.91-1,2.23,2.23,0,0,0-1.72.7,2.74,2.74,0,0,0-.64,1.93,2.54,2.54,0,0,0,.59,1.73,2.47,2.47,0,0,0,2,.68A4.84,4.84,0,0,0,132.67,84.3Z"/><path class="cls-1" d="M140.52,83.83h-1.67v-2h1.67Zm0,6.27h-1.67v-2h1.67Z"/><path class="cls-1" d="M149.07,90.33a3.17,3.17,0,0,1-2.86-1.39,8,8,0,0,1-.92-4.34,8.09,8.09,0,0,1,.92-4.35,3.61,3.61,0,0,1,5.71,0,8.06,8.06,0,0,1,.92,4.33,8.14,8.14,0,0,1-.91,4.36A3.19,3.19,0,0,1,149.07,90.33Zm0-10.36a1.94,1.94,0,0,0-1.82,1,8.19,8.19,0,0,0-.56,3.64,8.12,8.12,0,0,0,.56,3.61,2.15,2.15,0,0,0,3.63,0,8.17,8.17,0,0,0,.56-3.63,8.22,8.22,0,0,0-.55-3.6A1.94,1.94,0,0,0,149.07,80Z"/><path class="cls-1" d="M159.89,90.33A3.19,3.19,0,0,1,157,88.94a8.09,8.09,0,0,1-.91-4.34,8,8,0,0,1,.92-4.35,3.6,3.6,0,0,1,5.7,0,8,8,0,0,1,.93,4.33,8.13,8.13,0,0,1-.92,4.36A3.16,3.16,0,0,1,159.89,90.33Zm0-10.36a1.93,1.93,0,0,0-1.82,1,8,8,0,0,0-.57,3.64,8,8,0,0,0,.57,3.61,2.15,2.15,0,0,0,3.63,0,8.17,8.17,0,0,0,.56-3.63,8.19,8.19,0,0,0-.56-3.6A1.91,1.91,0,0,0,159.89,80Z"/><path class="cls-1" d="M171.62,85.89h-4.57V84.66h4.57Z"/><path class="cls-1" d="M182,90.1h-5.87v-1h2.3V81.51h-2.3v-.9a3.67,3.67,0,0,0,1.92-.38,1.46,1.46,0,0,0,.65-1.2h1V89.09H182Z"/><path class="cls-1" d="M193.43,80.6l-5,9.5H187l5.27-9.85H186V79.07h7.47Z"/><path class="cls-1" d="M199.82,83.83h-1.66v-2h1.66Zm0,6.27h-1.66v-2h1.66Z"/><path class="cls-1" d="M208.37,90.33a3.17,3.17,0,0,1-2.86-1.39,8.08,8.08,0,0,1-.92-4.34,8.09,8.09,0,0,1,.92-4.35,3.61,3.61,0,0,1,5.71,0,8,8,0,0,1,.92,4.33,8.14,8.14,0,0,1-.91,4.36A3.17,3.17,0,0,1,208.37,90.33Zm0-10.36a1.92,1.92,0,0,0-1.81,1A8,8,0,0,0,206,84.6a8,8,0,0,0,.57,3.61,2.14,2.14,0,0,0,3.62,0,8,8,0,0,0,.56-3.63,8.22,8.22,0,0,0-.55-3.6A1.93,1.93,0,0,0,208.37,80Z"/><path class="cls-1" d="M219.19,90.33a3.19,3.19,0,0,1-2.87-1.39,8.09,8.09,0,0,1-.91-4.34,8,8,0,0,1,.92-4.35,3.61,3.61,0,0,1,5.71,0,8.06,8.06,0,0,1,.92,4.33,8.13,8.13,0,0,1-.92,4.36A3.16,3.16,0,0,1,219.19,90.33Zm0-10.36a1.94,1.94,0,0,0-1.82,1,8.19,8.19,0,0,0-.56,3.64,8.12,8.12,0,0,0,.56,3.61,2.15,2.15,0,0,0,3.63,0,8.17,8.17,0,0,0,.56-3.63A8,8,0,0,0,221,81,1.91,1.91,0,0,0,219.19,80Z"/><path class="cls-1" d="M229.73,86.27v-1h6.16v-5.9h-5.57v-.93h12.31v.93h-5.55v5.9h6.23v1h-6.23V91h-1.19V86.27Zm3.12-1.69a39.62,39.62,0,0,0-1.56-3.73l1.11-.4c.4.8.92,2,1.57,3.75Zm7.28,0-1-.33a24.38,24.38,0,0,0,1.7-3.88l1.19.35A31.06,31.06,0,0,1,240.13,84.63Z"/><path class="cls-1" d="M257.18,90H248.8v.73h-1.11V78.48h10.64V90.73h-1.15Zm0-6.41V79.4H248.8v4.19Zm-8.38,5.48h8.38V84.48H248.8Z"/><path class="cls-1" d="M188.55,0V2.28H183V16.2h-2.62V2.28h-5.56V0Z"/><path class="cls-1" d="M202.69,0V2.18h-8.48v4.6h7.5V8.9h-7.5V14H203V16.2H191.65V0Z"/><path class="cls-1" d="M209.63,0V13.92h7.72V16.2H207V0Z"/><line class="cls-2" x1="36.79" y1="10.7" x2="146.79" y2="10.7"/><line class="cls-2" x1="239.44" y1="11.2" x2="349.44" y2="11.2"/></g></g></svg>