<svg xmlns="http://www.w3.org/2000/svg" viewBox="0 0 355.37 82.58"><defs><style>.cls-1{fill:#fff;}.cls-2{fill:#be0f52;}</style></defs><title>hd_logo</title><g id="Layer_2" data-name="Layer 2"><g id="ヘッダー_フッター" data-name="ヘッダー・フッター"><path class="cls-1" d="M18.52,65.38a4.79,4.79,0,0,0,5-1.36L36.88,49.25,49,64.66a4.79,4.79,0,0,0,3.77,1.83h.08a4.78,4.78,0,0,0,3.79-1.95L70.87,45.19c0-.6,0-1.21,0-1.81a34.17,34.17,0,0,0-2-11.68L52.64,53.77,40.91,38.85a4.79,4.79,0,0,0-7.33-.25L23.39,49.86,18.79,14a34.65,34.65,0,0,0-8.71,7.56L15.2,61.41A4.79,4.79,0,0,0,18.52,65.38Z"/><path class="cls-1" d="M54.8,11.63l.25.15Z"/><path class="cls-1" d="M42.52,7.26l1.2.22Z"/><path class="cls-1" d="M40.59,7c.4,0,.79.09,1.18.15C41.38,7.09,41,7,40.59,7Z"/><path class="cls-1" d="M48.35,8.72l.55.19Z"/><path class="cls-1" d="M44.47,7.64l.81.18Z"/><path class="cls-1" d="M49.82,9.25l.51.2Z"/><path class="cls-1" d="M51.26,9.84l.39.18Z"/><path class="cls-1" d="M46.08,8c.25.06.49.13.73.21C46.57,8.16,46.33,8.09,46.08,8Z"/><path class="cls-1" d="M38.85,6.86,40,6.94Z"/><path class="cls-1" d="M33.65,6.91l.74-.06Z"/><path class="cls-1" d="M22.4,9.64l.9-.36Z"/><path class="cls-1" d="M19.77,10.88l.95-.49Z"/><path class="cls-1" d="M24.37,8.88l.92-.31Z"/><path class="cls-1" d="M36.65,6.78c.54,0,1.08,0,1.62,0C37.73,6.8,37.19,6.78,36.65,6.78Z"/><path class="cls-1" d="M18.47,11.57v0l.45-.26Z"/><path class="cls-1" d="M56.06,12.39l.15.09Z"/><path class="cls-1" d="M36.58,6.78h0Z"/><path class="cls-1" d="M26.45,8.22,27.3,8Z"/><path class="cls-1" d="M31.39,7.15l.81-.1Z"/><path class="cls-1" d="M29.25,7.52l.63-.11Z"/><path class="cls-1" d="M38.34,9.09l.62.05Z"/><path class="cls-1" d="M36.6,9.05h0Z"/><path class="cls-1" d="M21.66,12.48l.3-.15Z"/><path class="cls-1" d="M41.81,9.44l.18,0Z"/><path class="cls-1" d="M40.08,9.22l.4,0Z"/><path class="cls-1" d="M68.22,30q.34.82.66,1.68h0a34,34,0,0,0-3-6.19A33.87,33.87,0,0,1,68.22,30Z"/><path class="cls-1" d="M20.2,13.23l.07,0Z"/><path class="cls-1" d="M59.36,14.73h0Z"/><path class="cls-2" d="M18.44,11.61v0l-.11-.85a4.8,4.8,0,0,0-9.52,1.22l.85,6.62v.05A36.54,36.54,0,0,1,18.44,11.61Z"/><path class="cls-1" d="M32.2,7.05c.48-.06,1-.1,1.45-.14C33.16,7,32.68,7,32.2,7.05Z"/><path class="cls-1" d="M59.37,14.73a36.78,36.78,0,0,1,11.1,14.8l-1.59,2.16A34.33,34.33,0,1,1,10.08,21.6v0c.7-.85,1.45-1.67,2.23-2.46a34.6,34.6,0,0,1,5.08-4.19c.46-.31.92-.61,1.39-.89l-.31-2.43,0,0L18.75,14c-.47.28-.93.58-1.39.89a34.6,34.6,0,0,0-5.08,4.19c-.79.79-1.53,1.61-2.24,2.46l-.38-2.95a36.6,36.6,0,1,0,49.71-3.88Z"/><path class="cls-1" d="M65.89,25.5c-.27-.45-.55-.88-.84-1.31a35.22,35.22,0,0,0-4.19-5.09,35.68,35.68,0,0,0-5.08-4.19A34.6,34.6,0,0,0,50,11.75a33.78,33.78,0,0,0-8-2.27A34.37,34.37,0,0,1,65.89,25.5Z"/><path class="cls-1" d="M20.2,13.23c-.48.26-1,.51-1.42.79v0Q19.48,13.62,20.2,13.23Z"/><path class="cls-1" d="M34.39,6.85c.71,0,1.42-.07,2.14-.07C35.81,6.78,35.1,6.81,34.39,6.85Z"/><path class="cls-1" d="M29.88,7.41c.5-.1,1-.18,1.51-.26C30.88,7.23,30.38,7.31,29.88,7.41Z"/><path class="cls-1" d="M23.3,9.28l1.07-.4Z"/><path class="cls-1" d="M25.29,8.57c.38-.13.77-.24,1.16-.35C26.06,8.33,25.67,8.44,25.29,8.57Z"/><path class="cls-1" d="M20.72,10.39c.55-.26,1.12-.52,1.68-.75C21.84,9.87,21.27,10.13,20.72,10.39Z"/><path class="cls-1" d="M18.92,11.33l.85-.45Z"/><path class="cls-1" d="M27.3,8c.64-.16,1.29-.32,1.95-.45C28.59,7.65,27.94,7.81,27.3,8Z"/><path class="cls-1" d="M36.6,6.78h0Z"/><path class="cls-1" d="M40,6.94l.63.06Z"/><path class="cls-1" d="M36.58,9.05a34.11,34.11,0,0,0-13.36,2.7c-.42.18-.84.39-1.26.58A34.13,34.13,0,0,1,36.59,9.05Z"/><path class="cls-1" d="M48.9,8.91l.92.34Z"/><path class="cls-1" d="M50.33,9.45l.93.39Z"/><path class="cls-1" d="M46.81,8.24c.52.15,1,.31,1.54.48C47.85,8.55,47.33,8.39,46.81,8.24Z"/><path class="cls-1" d="M55.05,11.78c.34.19.68.4,1,.61C55.73,12.18,55.39,12,55.05,11.78Z"/><path class="cls-1" d="M40.48,9.27l1.33.17Z"/><path class="cls-1" d="M20.27,13.19c.45-.25.92-.49,1.39-.71C21.19,12.7,20.73,12.94,20.27,13.19Z"/><path class="cls-1" d="M51.65,10c1.08.49,2.13,1,3.15,1.61C53.78,11.05,52.73,10.51,51.65,10Z"/><path class="cls-1" d="M45.28,7.82l.8.21Z"/><path class="cls-1" d="M56.21,12.48q1.63,1,3.15,2.25Q57.85,13.53,56.21,12.48Z"/><path class="cls-1" d="M41.77,7.15l.75.11Z"/><path class="cls-1" d="M38.27,6.82l.58,0Z"/><path class="cls-1" d="M39,9.14l1.12.08Z"/><path class="cls-1" d="M43.72,7.48l.75.16Z"/><path class="cls-1" d="M37.07,9.06c.42,0,.85,0,1.27,0C37.92,9.07,37.49,9.07,37.07,9.06Z"/><path class="cls-1" d="M18.79,14v0c-.47.28-.93.58-1.39.89a34.6,34.6,0,0,0-5.08,4.19c-.78.79-1.53,1.61-2.23,2.46v0A34.65,34.65,0,0,1,18.79,14Z"/><path class="cls-1" d="M20.2,13.23l.07,0c.46-.25.92-.49,1.39-.71l.3-.15c.42-.19.84-.4,1.26-.58a34.11,34.11,0,0,1,13.36-2.7h.49c.42,0,.85,0,1.27,0l.62.05,1.12.08.4,0,1.33.17.18,0a33.78,33.78,0,0,1,8,2.27,34.6,34.6,0,0,1,5.83,3.16,35.68,35.68,0,0,1,5.08,4.19,35.22,35.22,0,0,1,4.19,5.09c.29.43.57.86.84,1.31a34,34,0,0,1,3,6.19l1.59-2.16a36.78,36.78,0,0,0-11.1-14.8h0q-1.52-1.2-3.15-2.25l-.15-.09c-.33-.21-.67-.42-1-.61l-.25-.15c-1-.58-2.07-1.12-3.15-1.61l-.39-.18-.93-.39-.51-.2-.92-.34-.55-.19c-.5-.17-1-.33-1.54-.48-.24-.08-.48-.15-.73-.21l-.8-.21-.81-.18-.75-.16-1.2-.22-.75-.11C41.38,7.09,41,7,40.59,7L40,6.94l-1.11-.08-.58,0c-.54,0-1.08,0-1.62,0h-.12c-.72,0-1.43,0-2.14.07l-.74.06c-.49,0-1,.08-1.45.14l-.81.1c-.51.08-1,.16-1.51.26l-.63.11c-.66.13-1.31.29-1.95.45l-.85.25c-.39.11-.78.22-1.16.35l-.92.31-1.07.4-.9.36c-.56.23-1.13.49-1.68.75l-.95.49-.85.45-.45.26L18.78,14C19.24,13.74,19.72,13.49,20.2,13.23Z"/><path class="cls-1" d="M12.28,19.1a34.6,34.6,0,0,1,5.08-4.19c.46-.31.92-.61,1.39-.89l-.31-2.41a36.54,36.54,0,0,0-8.78,7L10,21.56C10.75,20.71,11.49,19.89,12.28,19.1Z"/><path class="cls-1" d="M94,33.48H96.7A1.14,1.14,0,0,1,98,34.78,1.12,1.12,0,0,1,96.7,36H94V38a1.13,1.13,0,0,1,.85-.34c.51,0,.75.14,1.13.68.64.95,2.14,3.74,2.14,4.69a1.41,1.41,0,0,1-1.4,1.29,1.14,1.14,0,0,1-1.15-.81A30.94,30.94,0,0,0,94,40V56.74a1.21,1.21,0,0,1-1.36,1.32,1.2,1.2,0,0,1-1.32-1.32V42.53a38.47,38.47,0,0,1-2.52,4.76c-.41.64-.85,1.19-1.56,1.19a1.43,1.43,0,0,1-1.43-1.36c0-.51.14-.82.71-1.6A34.72,34.72,0,0,0,91.09,36H87.75a1.12,1.12,0,0,1-1.25-1.25,1.14,1.14,0,0,1,1.25-1.3h3.61V27.91a1.34,1.34,0,1,1,2.68,0Zm14.66-1.7h5.84a1.33,1.33,0,0,1,0,2.66H108.7v4.93h7.44a1.34,1.34,0,0,1,0,2.68h-6.87a36.75,36.75,0,0,0,5,7,38,38,0,0,0,3,3c.61.55.82.89.82,1.46a1.55,1.55,0,0,1-1.47,1.5,2.37,2.37,0,0,1-1.59-.82,38.69,38.69,0,0,1-6.29-7.82V56.67a1.38,1.38,0,1,1-2.76,0V46.47c-1.56,2.45-6.25,8.57-8,8.57a1.38,1.38,0,0,1-1.5-1.46c0-.51.24-.89,1-1.53a36.7,36.7,0,0,0,8-10H99.21a1.34,1.34,0,1,1,0-2.68h6.73V34.44H102c-1.8,4.35-2.42,4.35-3.13,4.35a1.35,1.35,0,0,1-1.39-1.36,3.17,3.17,0,0,1,.61-1.53,26.09,26.09,0,0,0,2.28-5.27,13.61,13.61,0,0,1,.85-2.62,1.4,1.4,0,0,1,1.15-.54,1.32,1.32,0,0,1,1.36,1.36,11.91,11.91,0,0,1-.81,3h3V28a1.22,1.22,0,0,1,1.36-1.36A1.23,1.23,0,0,1,108.7,28Z"/><path class="cls-1" d="M139.13,32.63c-.07-1.42-.07-2.61-.07-4.28,0-1.16.47-1.77,1.46-1.77s1.53.34,1.53,1.57c0,2.38,0,3.23,0,4.48h8a1.36,1.36,0,1,1,0,2.72h-7.92c.55,16.15,4.93,19,5.34,19s.71-.89,1.36-3.44c.2-.81.65-1.29,1.43-1.29A1.38,1.38,0,0,1,151.71,51c0,.78-.79,4.35-2.15,5.92a2.57,2.57,0,0,1-1.93.85c-2.28,0-5.14-3.23-6.84-10a57.61,57.61,0,0,1-1.56-12.45H121.82a1.36,1.36,0,0,1,0-2.72Zm-7.72,10.2V52l4.08-1a29.2,29.2,0,0,1,3-.79,1.31,1.31,0,0,1,1.42,1.36c0,1-.61,1.3-2.17,1.74a109.12,109.12,0,0,1-15,3.23,1.38,1.38,0,0,1-1.43-1.5c0-1,.82-1.32,1.6-1.43,1.36-.23,3.77-.68,5.68-1V42.83h-4.93a1.34,1.34,0,0,1,0-2.68h13.19a1.19,1.19,0,0,1,1.32,1.32,1.2,1.2,0,0,1-1.32,1.36Zm17.17-13.7a1.92,1.92,0,0,1,.78,1.43,1.49,1.49,0,0,1-1.36,1.5c-.61,0-.92-.28-1.46-.82s-1.29-1.22-1.87-1.7-.85-.88-.85-1.39a1.5,1.5,0,0,1,1.39-1.43C145.79,26.72,146,26.72,148.58,29.13Z"/><path class="cls-1" d="M184.28,36c1,.34,1.29.88,1.29,1.5a1.53,1.53,0,0,1-1.46,1.59c-1.91,0-9.35-3.8-14.11-8.77-4.52,4.73-12.65,8.88-14.28,8.88a1.53,1.53,0,0,1-1.36-1.64c0-.78.54-1.08,1.56-1.53a32.9,32.9,0,0,0,12.62-8.6,2.11,2.11,0,0,1,1.59-.95,1.6,1.6,0,0,1,1.64,1.5A33.77,33.77,0,0,0,184.28,36ZM169,45.48a65.22,65.22,0,0,1-6.12,8.4c3.71-.2,10.54-.61,14.72-1.15-.74-.89-1.87-2.11-3-3.4-.55-.58-.75-1-.75-1.3a1.65,1.65,0,0,1,1.56-1.49c.68,0,1.13.51,1.77,1.19a75.62,75.62,0,0,1,5.34,6.39,3.4,3.4,0,0,1,.92,2,1.72,1.72,0,0,1-1.67,1.49c-.68,0-1-.48-1.46-1.12-.31-.48-.68-1-.92-1.36-4.76.75-17.74,1.73-20.5,1.73-1,0-1.66-.44-1.66-1.42,0-1.5,1.19-1.5,2.1-1.5a72.08,72.08,0,0,0,6.33-8.47h-8.88a1.38,1.38,0,0,1,0-2.75h26.35a1.38,1.38,0,1,1,0,2.75Zm-6.25-6a1.4,1.4,0,1,1,0-2.79H177a1.4,1.4,0,0,1,0,2.79Z"/><path class="cls-1" d="M197.1,32.19h3.23a1.43,1.43,0,0,1,1.6,1.6c0,.82-.72,3.09-4.05,7.41a43.24,43.24,0,0,1,4.56,3.43,1.66,1.66,0,0,1,.71,1.33,1.47,1.47,0,0,1-1.36,1.53c-.58,0-1-.27-1.73-1s-1.81-1.6-2.93-2.51V56.84a1.34,1.34,0,1,1-2.68,0V45c-1.36,1.36-4.12,3.64-5.1,3.64a1.4,1.4,0,0,1-1.3-1.46c0-.54.24-.82.92-1.29a30.57,30.57,0,0,0,8.64-9,7.62,7.62,0,0,0,.92-1.73c0-.17-.17-.21-.38-.21h-8.36a1.36,1.36,0,0,1,0-2.72h4.69V27.84a1.31,1.31,0,1,1,2.62,0Zm14.79,6.26V54.08h6.56a1.4,1.4,0,0,1,0,2.79H202a1.4,1.4,0,0,1,0-2.79h7V38.45h-5.17a1.36,1.36,0,0,1,0-2.72H209V27.91a1.43,1.43,0,0,1,2.86,0v7.82h5.78a1.36,1.36,0,1,1,0,2.72Z"/><path class="cls-1" d="M232.22,35.8h4.45a1.33,1.33,0,1,1,0,2.65h-4.45v2a1.46,1.46,0,0,1,.82-.34,1.7,1.7,0,0,1,1.29.75c.24.27,3.19,3.7,3.19,5a1.48,1.48,0,0,1-1.46,1.4c-.54,0-1-.34-1.39-1a31.54,31.54,0,0,0-2.45-3.54v14a1.36,1.36,0,1,1-2.72,0V43.82A41.1,41.1,0,0,1,225.08,50c-.71.75-1.12,1-1.6,1a1.51,1.51,0,0,1-1.43-1.46c0-.68.51-1.12,1.13-1.8a30.76,30.76,0,0,0,5.95-9.28h-5.41a1.33,1.33,0,1,1,0-2.65h5.78V31.48a39.9,39.9,0,0,1-5.07.85,1.33,1.33,0,0,1-1.42-1.4,1.3,1.3,0,0,1,1.05-1.32c.65-.17,1.56-.24,2.72-.44a45.11,45.11,0,0,0,7.45-1.94,5.76,5.76,0,0,1,1.76-.51,1.43,1.43,0,0,1,1.36,1.46c0,.68,0,1.29-5.13,2.65Zm6.39-3.61a2.24,2.24,0,0,1,2.48-2.48h8.81a2.24,2.24,0,0,1,2.48,2.48V53.64a2.24,2.24,0,0,1-2.48,2.49h-8.81a2.24,2.24,0,0,1-2.48-2.49Zm3.71.27c-.72,0-.85.14-.85.85V52.56c0,.71.13.85.85.85h6.35c.72,0,.85-.14.85-.85V33.31c0-.71-.13-.85-.85-.85Z"/><path class="cls-1" d="M258.57,31.17a2.37,2.37,0,0,1,2.65-2.65h21.62a2.38,2.38,0,0,1,2.66,2.65v22a2.38,2.38,0,0,1-2.66,2.65H261.22a2.37,2.37,0,0,1-2.65-2.65Zm11.87.27h-8c-.79,0-.92.14-.92,1v8.15h8.91Zm0,11.7h-8.91v9c0,.82.13,1,.92,1h8Zm2.71-2.59h9.49V32.4c0-.82-.14-1-.92-1h-8.57Zm0,12.52h8.57c.78,0,.92-.14.92-1v-9h-9.49Z"/><path class="cls-1" d="M307.43,33V51.88h12.2a1.51,1.51,0,0,1,0,3h-27.2a1.51,1.51,0,1,1,0-3h11.94V33H293.79a1.45,1.45,0,1,1,0-2.89H318a1.29,1.29,0,0,1,1.42,1.43A1.3,1.3,0,0,1,318,33Z"/><path class="cls-1" d="M344.11,32.43h10a1.28,1.28,0,0,1,0,2.55h-7a25.64,25.64,0,0,1-1.46,2.92h6.32a1.19,1.19,0,0,1,0,2.38H341.32v1.91h9.42a1.14,1.14,0,1,1,0,2.27h-9.42v2.11H353.7a1.07,1.07,0,0,1,1.19,1.19A1.09,1.09,0,0,1,353.7,49h-9.45a31.76,31.76,0,0,0,10,4.93c.92.27,1.16.71,1.16,1.36a1.36,1.36,0,0,1-1.3,1.46c-1.36,0-8.26-2.62-12.75-6.9v6.83a1.39,1.39,0,1,1-2.78,0v-6.9C332.38,55.38,326.47,57,325.86,57a1.36,1.36,0,0,1-1.33-1.53c0-.54.31-.88,1.12-1.19A29.74,29.74,0,0,0,335.51,49h-9.28A1.09,1.09,0,0,1,325,47.76a1.07,1.07,0,0,1,1.19-1.19h12.31V44.46h-9.32a1.14,1.14,0,0,1,0-2.27h9.32V40.28H327.9a1.19,1.19,0,1,1,0-2.38h6.52A27.15,27.15,0,0,0,333.1,35h-7.52a1.28,1.28,0,0,1,0-2.55h10.24V27.94a1.36,1.36,0,1,1,2.72,0v4.49h2.89V27.91a1.34,1.34,0,1,1,2.68,0Zm-12.88-4.66c.68.82,1.8,2.38,1.8,3.1a1.3,1.3,0,0,1-1.36,1.25,1.36,1.36,0,0,1-1.12-.57c-.34-.55-1.06-1.67-1.33-2-.41-.54-.51-.71-.51-1.08a1.4,1.4,0,0,1,1.43-1.3A1.38,1.38,0,0,1,331.23,27.77ZM336.06,35c.4.82.88,2,1.25,2.92h5.27A11.82,11.82,0,0,0,344.15,35Zm13.22-3.4a1.5,1.5,0,0,1-1.09.54,1.38,1.38,0,0,1-1.39-1.29,1.94,1.94,0,0,1,.54-1c.65-.85.92-1.26,1.46-2a1.35,1.35,0,0,1,1.16-.64,1.3,1.3,0,0,1,1.36,1.19C351.32,29.2,350.27,30.46,349.28,31.58Z"/><path class="cls-1" d="M99.37,4.92h2a.67.67,0,0,1,.76.73.69.69,0,0,1-.76.76h-2v4.46c0,1.1-.34,1.44-1.42,1.44H94.24c-1.1,0-1.44-.34-1.44-1.44V6.41H89.65v8.1c0,.43.16.6.59.6h10.7a.67.67,0,0,1,.75.75.68.68,0,0,1-.75.76H89.67a1.39,1.39,0,0,1-1.57-1.57V6.41H86.39a.67.67,0,0,1-.74-.76.66.66,0,0,1,.74-.73H88.1V1.78a.78.78,0,0,1,1.55,0V4.92H92.8V1.76a.75.75,0,1,1,1.49,0V4.92h3.64V1.73a.72.72,0,0,1,1.44,0ZM94.29,6.41v4.05a.34.34,0,0,0,.38.38h2.88a.33.33,0,0,0,.38-.38V6.41Z"/><path class="cls-1" d="M110.6,8.3a12.3,12.3,0,0,1-6.23,4.14.69.69,0,0,1-.72-.76c0-.37.22-.61.81-.81a11.63,11.63,0,0,0,4.32-2.57h-2.3A1.22,1.22,0,0,1,105.15,7V2.39a1.22,1.22,0,0,1,1.33-1.31h11a1.22,1.22,0,0,1,1.33,1.31V7a1.23,1.23,0,0,1-1.33,1.33h-2.24a14.29,14.29,0,0,0,4.43,2.54.71.71,0,0,1,.51.7.76.76,0,0,1-.78.79c-.74,0-2.68-1.1-3.76-1.85a12.34,12.34,0,0,1-2.45-2.18ZM109,15a5,5,0,0,1-3.19,2.1.71.71,0,0,1-.73-.75.64.64,0,0,1,.46-.63c2.08-.94,2.85-2,3-4.85a.71.71,0,0,1,.79-.75c.49,0,.74.27.76.83A8.11,8.11,0,0,1,109,15Zm2.25-12.57H107c-.35,0-.42.07-.42.43V4h4.61Zm0,2.84h-4.61V6.54c0,.36.07.43.42.43h4.19ZM112.65,4h4.65V2.86c0-.36-.07-.43-.43-.43h-4.22Zm0,1.27V7h4.22c.36,0,.43-.07.43-.43V5.27ZM114,11a.78.78,0,0,1,1.55,0v5.41a.78.78,0,0,1-1.55,0Z"/><path class="cls-1" d="M129.36,8.37v8.1a.7.7,0,1,1-1.39,0V15.25a41.38,41.38,0,0,1-5.38,1.06.67.67,0,0,1-.65-.74.6.6,0,0,1,.54-.64l.86-.11V8.37h-.82a.56.56,0,0,1-.63-.63.56.56,0,0,1,.63-.63h15a.57.57,0,0,1,.63.63.57.57,0,0,1-.63.63Zm-5.51-5.85a1.18,1.18,0,0,1,1.33-1.33h9.51A1.18,1.18,0,0,1,136,2.52V4.9a1.18,1.18,0,0,1-1.33,1.33h-9.51a1.19,1.19,0,0,1-1.33-1.33Zm.83,5.85V9.56H128V8.37Zm0,2.38V11.9H128V10.75Zm0,2.34v1.53c.95-.13,2.16-.4,3.29-.67v-.86Zm.9-10.66c-.29,0-.29.09-.29.79h9.29c0-.7,0-.79-.29-.79Zm-.29,1.93c0,.7,0,.77.29.77h8.71c.29,0,.29-.07.29-.77Zm10.48,5.07c.77,0,1.2.36,1.2,1,0,.35-.3,1.73-2.23,3.84a10.89,10.89,0,0,0,2.2,1.24c.48.2.61.42.63.72a.87.87,0,0,1-.76.81,8.75,8.75,0,0,1-3.09-1.78,9.18,9.18,0,0,1-3,1.76.75.75,0,0,1-.75-.73c0-.29.09-.44.52-.65a14.66,14.66,0,0,0,2.2-1.34,8.53,8.53,0,0,1-2-3.54c-.38,0-.83,0-.83-.67a.59.59,0,0,1,.65-.65Zm-3.6,1.32a7,7,0,0,0,1.58,2.59,6.31,6.31,0,0,0,1.62-2.47c0-.09-.07-.12-.29-.12Z"/><path class="cls-1" d="M143.76,12.78A4.65,4.65,0,0,0,147.12,15a28.65,28.65,0,0,0,3.15.16c2.51,0,4.88-.18,5.32-.18a.63.63,0,0,1,.72.7c0,.56-.33.77-1.12.81-1.49.07-2.95.09-4.88.09-3.83,0-5.51-.27-7.15-2.2-.41.49-1.24,1.37-1.58,1.7s-.65.66-1.05.66a.79.79,0,0,1-.77-.75c0-.27.07-.4.54-.81a24,24,0,0,0,2-2.07v-4c0-.27-.08-.34-.35-.34H140.5a.64.64,0,0,1-.72-.72.64.64,0,0,1,.72-.72h2.1a1,1,0,0,1,1.16,1.13ZM142.5,1.35a15.87,15.87,0,0,1,1.37,1.48,1.18,1.18,0,0,1,.36.79.78.78,0,0,1-.78.81.72.72,0,0,1-.59-.29,16.81,16.81,0,0,0-1.48-1.6,1,1,0,0,1-.4-.76.78.78,0,0,1,.8-.77A1,1,0,0,1,142.5,1.35Zm8.17,2.34V5h3.17a1,1,0,0,1,1,1V8.41a.94.94,0,0,1-1,1h-1.93a11,11,0,0,0,3.55,2.77.74.74,0,0,1-.18,1.43c-.77,0-3.15-1.57-4.61-3.6V14a.69.69,0,1,1-1.37,0V10.06c-1.6,2.35-3.67,3.46-4.16,3.46a.78.78,0,0,1-.66-.7c0-.29.12-.43.56-.67a11.11,11.11,0,0,0,3.06-2.7h-1.77a1,1,0,0,1-1.06-1V6a1,1,0,0,1,1.06-1h3V3.69h-4.05a.6.6,0,0,1-.66-.68c0-.42.19-.69.66-.69h4.05v-1a.69.69,0,0,1,1.37,0v1h4.27a.61.61,0,0,1,.68.69.61.61,0,0,1-.68.68ZM149.3,6.21H147c-.2,0-.29.09-.29.29V7.9c0,.2.09.29.29.29h2.34Zm1.37,2h2.52c.2,0,.29-.09.29-.29V6.5c0-.2-.09-.29-.29-.29h-2.52Z"/><path class="cls-1" d="M163.74,13.11a2.92,2.92,0,0,1-2.38,1.69c-1.42,0-3.1-1.62-3.1-4.5a8,8,0,0,1,8.39-8c4.34,0,7,2.59,7,6.77a7.22,7.22,0,0,1-5.85,7.18.83.83,0,0,1-.81-.82c0-.62.32-.71.94-.92a5.48,5.48,0,0,0,4-5.42c0-1.26-.27-5.15-5.12-5.28A29.29,29.29,0,0,1,163.74,13.11Zm-4-2.74c0,1.78.87,2.76,1.5,2.76s1-.76,1.4-1.37A27.57,27.57,0,0,0,165.2,4,6.42,6.42,0,0,0,159.79,10.37Z"/><path class="cls-1" d="M181.85,4a26.65,26.65,0,0,1-4.24,10.87c-.39.54-.7.83-1.17.83a.88.88,0,0,1-.86-.84c0-.36.22-.58.74-1.26a19.23,19.23,0,0,0,2.28-4.22,27.44,27.44,0,0,0,1.52-5.42.82.82,0,0,1,.86-.75A.8.8,0,0,1,181.85,4Zm6,0c1.1,1.89,4.23,9.2,4.23,10.39a.93.93,0,0,1-.94.92c-.52,0-.79-.25-1-1.06a37.1,37.1,0,0,0-1.58-4.51c-.61-1.47-1.17-2.7-2-4.24-.33-.67-.67-1.1-.67-1.48a.9.9,0,0,1,.92-.88C187.27,3.1,187.43,3.22,187.86,4Zm4.86-1.62a2.15,2.15,0,1,1-4.3,0,2.15,2.15,0,1,1,4.3,0Zm-3.24,0a1.09,1.09,0,1,0,2.18,0,1.08,1.08,0,0,0-1.1-1.1A1.07,1.07,0,0,0,189.48,2.34Z"/><path class="cls-1" d="M201.86,8.17A28,28,0,0,1,197.79,11a4.64,4.64,0,0,1-1.87.85.89.89,0,0,1-.85-.92c0-.38.2-.58.83-.88a22.13,22.13,0,0,0,9.22-8c.4-.65.52-.83.92-.83a.94.94,0,0,1,.94.88c0,.85-2.54,3.69-3.53,4.67v9.32a.8.8,0,1,1-1.59,0Z"/><path class="cls-1" d="M224.24,3a1.8,1.8,0,0,1,.52,0,2.17,2.17,0,0,1,2-3,2.13,2.13,0,0,1,2.16,2.16,2.13,2.13,0,0,1-2.16,2.16,1.69,1.69,0,0,1-.92-.22c.11.74-.86,4.72-3.83,8-2.58,2.89-5.62,4-6.36,4a.88.88,0,0,1-.88-.9c0-.47.27-.7.74-.86A11.59,11.59,0,0,0,220,11.7,12.93,12.93,0,0,0,224,4.81c0-.17,0-.22-.25-.22H213a.73.73,0,0,1-.83-.81A.74.74,0,0,1,213,3Zm1.42-.79a1.06,1.06,0,0,0,1.08,1.1,1.08,1.08,0,0,0,1.1-1.1,1.08,1.08,0,0,0-1.1-1.1A1.07,1.07,0,0,0,225.66,2.16Z"/><path class="cls-1" d="M233.2,5.27c.27,0,3.22-.66,3.53-.66a.65.65,0,0,1,.7.74c0,.39-.27.57-.61.66-.72.2-2.76.54-3.62.7v5.37c0,.88.05.88,1,.88s1.3-.05,1.44-.5.16-1,.29-1.39a.63.63,0,0,1,.61-.41.73.73,0,0,1,.81.74,4.47,4.47,0,0,1-.84,2.52c-.36.32-.85.5-2.49.5s-2.3-.41-2.3-1.73V7a10.93,10.93,0,0,1-1.59.26c-.32,0-.61-.19-.61-.73s.23-.67,2.2-1V1.67a.67.67,0,0,1,.75-.75.67.67,0,0,1,.76.75Zm7.74-2.07c0,6.85-.95,9.84-2.59,12-.16.22-1.33,1.8-2.13,1.8a.8.8,0,0,1-.77-.81c0-.3.18-.45.67-.88,2.39-2.07,3.33-5.44,3.33-12.14H237a.64.64,0,0,1-.72-.7.65.65,0,0,1,.72-.72h7.24c.9,0,1.19.45,1.19,1.33A93.27,93.27,0,0,1,245,13.83c-.32,2.25-.74,2.91-2.81,2.91-1.53,0-2.09-.14-2.09-.9a.67.67,0,0,1,.69-.73c.38,0,1,.12,1.51.12.76,0,.94-.18,1.19-1.73A87,87,0,0,0,244,4.09c0-.81,0-.89-.36-.89Z"/><path class="cls-1" d="M248.19,2a.71.71,0,0,1,1.41,0v12.3c0,.23.09.32.32.32h4.74a.71.71,0,1,1,0,1.42h-5.1c-.94,0-1.37-.43-1.37-1.36ZM254,6.07h1.78a.6.6,0,0,1,.67.66.6.6,0,0,1-.67.67H254v.81a.5.5,0,0,1,.4-.18c.29,0,.43.18.65.43.39.43.82,1,1.15,1.42a1.37,1.37,0,0,1,.38.78.68.68,0,0,1-.67.65c-.32,0-.47-.15-.79-.62s-.7-.95-1.12-1.44v4.22a.68.68,0,1,1-1.35,0V9.72a17.39,17.39,0,0,1-1.28,1.95c-.36.48-.54.59-.81.59a.75.75,0,0,1-.72-.68c0-.33.18-.51.45-.85a16.88,16.88,0,0,0,2.11-3.33h-1.84a.61.61,0,0,1-.68-.67.61.61,0,0,1,.68-.66h2.09V1.4a.68.68,0,1,1,1.35,0Zm-2.07-2.2a3.26,3.26,0,0,1,.18.88.69.69,0,0,1-.74.61c-.38,0-.56-.19-.65-.57s-.68-2-.68-2.38a.68.68,0,0,1,.72-.61C251.25,1.8,251.29,1.93,251.9,3.87Zm4.74-1.53A12.52,12.52,0,0,1,255.86,5c-.18.38-.3.56-.68.56a.69.69,0,0,1-.67-.6,2.88,2.88,0,0,1,.25-.9,11.64,11.64,0,0,0,.44-1.53c.09-.43.18-.75.64-.75S256.64,2,256.64,2.34Zm2,4h4.83a.65.65,0,0,1,.72.72.65.65,0,0,1-.72.74H262v8.61a.75.75,0,0,1-1.5,0V7.83h-1.89c0,2.76-.07,6.23-1.62,8.61a.84.84,0,0,1-.7.47.78.78,0,0,1-.83-.76c0-.34.29-.67.56-1.19,1-2.05,1.12-4.61,1.12-7.24V3.91c0-.9.27-1.34,1.09-1.53a25.49,25.49,0,0,0,3.14-.94,6.21,6.21,0,0,1,1.4-.45.78.78,0,0,1,.78.77c0,.38-.15.56-.85.81a25.11,25.11,0,0,1-3.56,1c-.42.07-.53.18-.53.58Z"/><path class="cls-1" d="M278.63,4.61a.88.88,0,0,1,.83.95c0,.42-.23.6-.65.76-3.38,1.26-6.78,2.88-8.06,4.36a2.5,2.5,0,0,0-.81,1.89c0,2,2.12,2.1,4.26,2.1a26.58,26.58,0,0,0,3.84-.32,8.66,8.66,0,0,1,1.08-.13.79.79,0,0,1,.76.89A.9.9,0,0,1,279,16a34,34,0,0,1-5,.36c-2.83,0-4.38-.4-5.24-1.91a3.52,3.52,0,0,1-.45-1.75c0-1.69.92-3.24,3.73-5a38.66,38.66,0,0,1-1.8-5.87.88.88,0,0,1,.91-.83c.63,0,.74.29,1.19,2.12.34,1.25.72,2.4,1.17,3.73C273.7,6.75,277.93,4.61,278.63,4.61Z"/><path class="cls-1" d="M288.17,5a26.46,26.46,0,0,1-1.46,7.92,11.71,11.71,0,0,1-1.6,3.11c-.4.54-.59.74-.92.74a.8.8,0,0,1-.83-.74c0-.23.09-.39.4-.77,1.91-2.52,2.66-6.16,2.88-10.26h-2.16a.66.66,0,0,1-.74-.74.66.66,0,0,1,.74-.74h2.21c0-.88,0-1.64,0-2.25a.77.77,0,1,1,1.53,0c0,1,0,1.73,0,2.25h2.1c1.43,0,1.43,1.15,1.43,1.76,0,3-.2,8.83-.62,10.2a1.71,1.71,0,0,1-1.9,1.29c-1.57,0-2-.18-2-.86a.69.69,0,0,1,.66-.78c.24,0,.9.11,1.25.11s.54-.23.64-.75a63.74,63.74,0,0,0,.49-8.23c0-1.14,0-1.26-.34-1.26Zm11.45,10.42a1.13,1.13,0,0,1-1.29,1.3h-3.75a1.15,1.15,0,0,1-1.31-1.3V3.92a1.15,1.15,0,0,1,1.31-1.31h3.75a1.14,1.14,0,0,1,1.29,1.31Zm-1.82-.16a.32.32,0,0,0,.36-.36V4.46a.32.32,0,0,0-.36-.36h-2.68a.33.33,0,0,0-.36.36V14.89a.32.32,0,0,0,.36.36Z"/><path class="cls-1" d="M310.73,4V14h6.46a.71.71,0,0,1,.79.79.71.71,0,0,1-.79.81h-14.4a.73.73,0,0,1-.81-.81.72.72,0,0,1,.81-.79h6.32V4h-5.6a.69.69,0,0,1-.78-.77.7.7,0,0,1,.78-.76h12.8a.68.68,0,0,1,.75.76.68.68,0,0,1-.75.77Z"/><path class="cls-1" d="M93.92,66.79a1.27,1.27,0,0,1,1.37,1.1l2.43,10.78h0l2.61-11a1,1,0,0,1,1-.86c.74,0,1,.57.83,1.4l-3,11a1.38,1.38,0,0,1-1.47,1.17,1.43,1.43,0,0,1-1.53-1.28L93.92,68.77h0l-2.3,10.35a1.42,1.42,0,0,1-1.52,1.28,1.38,1.38,0,0,1-1.47-1.17l-3-11c-.22-.83.09-1.4.82-1.4a1,1,0,0,1,1,.86l2.61,11h0L92.53,68A1.32,1.32,0,0,1,93.92,66.79Z"/><path class="cls-1" d="M106.79,68.08a1.58,1.58,0,0,1,1.65-1.29,1.6,1.6,0,0,1,1.68,1.35l3.26,10.78c.27.87-.06,1.48-.83,1.48a1.07,1.07,0,0,1-1.1-.9l-.83-3.08h-4.38l-.81,3.08a1.06,1.06,0,0,1-1.09.9c-.78,0-1.1-.61-.83-1.48Zm1.69.44h0l-1.76,6.42h3.53Z"/><path class="cls-1" d="M115.5,79.14V68.05c0-.72.28-1.15,1.09-1.15h2.92c4.16,0,6.11,2,6.11,6.64,0,4.45-1.72,6.75-6.05,6.75h-3C115.78,80.29,115.5,79.86,115.5,79.14Zm4-.33c2.73,0,4.15-1.51,4.15-5.22,0-3.45-1.2-5.22-4.19-5.22h-2V78.81Z"/><path class="cls-1" d="M130.36,68.08a1.72,1.72,0,0,1,3.34.06L137,78.92c.27.87,0,1.48-.82,1.48a1.07,1.07,0,0,1-1.1-.9l-.83-3.08h-4.38L129,79.5a1.06,1.06,0,0,1-1.09.9c-.78,0-1.1-.61-.83-1.48Zm1.7.44h0l-1.76,6.42h3.53Z"/><path class="cls-1" d="M146,68c0-.72.3-1.17,1-1.17s1,.46,1,1.15V79.25c0,.68-.3,1.15-1,1.15s-1-.45-1-1.17Z"/><path class="cls-1" d="M159,78.09V67.83c0-.63.29-1,.9-1s.9.41.9,1.06V78.58c0,1.24-.64,1.82-1.54,1.82S158,80,157.6,79.14L152.79,69h0V79.35c0,.64-.29,1.05-.9,1.05s-.9-.41-.9-1.06V68.61c0-1.25.64-1.82,1.54-1.82A1.68,1.68,0,0,1,154.18,68L159,78.09Z"/><path class="cls-1" d="M163.7,79.14V68.05c0-.72.29-1.15,1.1-1.15h2.91c4.16,0,6.11,2,6.11,6.64,0,4.45-1.71,6.75-6,6.75h-3C164,80.29,163.7,79.86,163.7,79.14Zm4-.33c2.73,0,4.16-1.51,4.16-5.22,0-3.45-1.21-5.22-4.2-5.22h-2V78.81Z"/><path class="cls-1" d="M185.43,75.57c0,3.59-1.34,5-4.74,5s-4.7-1.35-4.7-5V68c0-.72.31-1.17,1-1.17s1,.46,1,1.15v7.51c0,2.34.54,3.63,2.77,3.63s2.81-1.26,2.81-3.63V68c0-.72.31-1.17,1-1.17s1,.46,1,1.15Z"/><path class="cls-1" d="M188.66,77.27a1,1,0,0,1,.83.43,3.3,3.3,0,0,0,2.61,1.38,2.44,2.44,0,0,0,2.7-2.28,1.94,1.94,0,0,0-.79-1.53A14.16,14.16,0,0,0,191.64,74,9,9,0,0,1,189,72.46a3.3,3.3,0,0,1-1.1-2.52c0-1.44,1-3.31,4.27-3.31,2.59,0,3.51,1.15,3.73,1.53a.88.88,0,0,1-.7,1.4,1,1,0,0,1-.87-.47,2.45,2.45,0,0,0-2.1-1c-1.61,0-2.38.81-2.38,1.82a1.84,1.84,0,0,0,.86,1.5,12.34,12.34,0,0,0,2.47,1.27,11,11,0,0,1,2.59,1.5,3.37,3.37,0,0,1,1.07,2.48c0,1.66-1.25,3.89-4.72,3.89a4.71,4.71,0,0,1-4-1.65C187.51,78.2,187.82,77.27,188.66,77.27Z"/><path class="cls-1" d="M206.36,66.9c.54,0,.88.25.88.73s-.36.74-.88.74h-2.84V79.25c0,.68-.29,1.15-1,1.15s-1-.45-1-1.17V68.37h-2.85c-.52,0-.88-.23-.88-.74s.34-.73.88-.73Z"/><path class="cls-1" d="M213,74.89h-2v4.36c0,.68-.31,1.15-1,1.15s-1-.45-1-1.17V68.05c0-.72.29-1.15,1.1-1.15H213c2.86,0,5.28.88,5.28,3.9a3.6,3.6,0,0,1-3.41,3.8L218,78.87c.4.54.29,1.53-.66,1.53a1.4,1.4,0,0,1-1.19-.77Zm.37-1.48c1.87,0,3-.91,3-2.55s-.87-2.49-3.35-2.49h-2v5Z"/><path class="cls-1" d="M228,66.79c.94,0,1,.88.72,1.47l-3.31,6.79v4.2c0,.68-.3,1.15-1,1.15s-1-.45-1-1.15v-4.2l-3.34-6.8c-.29-.6-.2-1.46.73-1.46.56,0,.81.3,1.05.84L223,70.21c.48,1.15,1,2.29,1.42,3.46h0q.71-1.78,1.41-3.48L227,67.62C227.2,67.08,227.46,66.79,228,66.79Z"/><path class="cls-1" d="M247,76.31a.91.91,0,0,1,.74,1.44,5.13,5.13,0,0,1-4.61,2.81,5.4,5.4,0,0,1-4-1.58,7.57,7.57,0,0,1-1.75-5.44,7.56,7.56,0,0,1,1.71-5.24,5.4,5.4,0,0,1,4.06-1.67,4.54,4.54,0,0,1,4.37,2.52c.36.84-.11,1.44-.74,1.44s-.81-.26-1.08-.85a2.64,2.64,0,0,0-2.55-1.64c-1.68,0-3.79,1.28-3.79,5.49s2,5.49,3.73,5.49a3.21,3.21,0,0,0,2.81-1.92C246.18,76.58,246.45,76.31,247,76.31Z"/><path class="cls-1" d="M259.15,75.29c0,3.27-1.58,5.24-4.75,5.24s-4.77-1.93-4.77-5.26c0-3.77,2-5.28,4.77-5.28s4.75,1.51,4.75,5.28Zm-4.73,3.9c1.69,0,2.86-1.35,2.86-3.92,0-2.9-1.38-4-2.88-4s-2.9,1.05-2.9,4c0,2.68,1.19,3.92,2.9,3.92Z"/><path class="cls-1" d="M263.33,79.21A1.19,1.19,0,1,1,262.14,78,1.2,1.2,0,0,1,263.33,79.21Z"/><path class="cls-1" d="M265.76,82.58c-.36,0-.58-.25-.52-.69l.32-2.7c.09-.75.45-1.17,1.1-1.17a.86.86,0,0,1,1,.87,3.1,3.1,0,0,1-.32,1l-1,2.09C266.23,82.29,266.08,82.58,265.76,82.58Z"/><path class="cls-1" d="M278.09,66.79c.66,0,1,.46,1,1.15V78.81h5.08c.54,0,.88.26.88.74s-.36.74-.88.74h-5.91c-.81,0-1.1-.43-1.1-1.15V68C277.13,67.24,277.44,66.79,278.09,66.79Z"/><path class="cls-1" d="M292.89,79.46a.74.74,0,0,1-.47.69,4.12,4.12,0,0,1-1.84.38c-1.82,0-3.19-.82-3.19-3.44V71.58h-.93c-.47,0-.79-.22-.79-.67s.3-.68.79-.68h.93V68.88c0-.69.29-1.1.9-1.1s.92.43.92,1.08v1.37h2.61c.49,0,.8.25.8.68s-.33.67-.8.67h-2.61v4.91c0,2.16.72,2.67,1.69,2.67a3,3,0,0,0,1.1-.27A.61.61,0,0,1,292.89,79.46Z"/><path class="cls-1" d="M298.45,80.53c-2.79,0-4.11-2.11-4.11-5.28,0-3.51,1.78-5.26,4.05-5.26a4.08,4.08,0,0,1,2.94,1.24V67.81c0-.68.29-1.1.9-1.1s.92.44.92,1.09V79.32c0,.65-.29,1.08-.92,1.08s-1-.49-.87-1.19h0A3.76,3.76,0,0,1,298.45,80.53Zm.34-1.45a2.67,2.67,0,0,0,2.54-1.76V73.05a3,3,0,0,0-2.56-1.62c-1.62,0-2.56,1.43-2.56,3.86s1,3.79,2.56,3.79Z"/><path class="cls-1" d="M307.82,79.21A1.19,1.19,0,1,1,306.64,78,1.2,1.2,0,0,1,307.82,79.21Z"/></g></g></svg>