<?xml version="1.0" encoding="utf-8"?>
<!-- Generator: Adobe Illustrator 24.0.0, SVG Export Plug-In . SVG Version: 6.00 Build 0)  -->
<svg version="1.1" xmlns="http://www.w3.org/2000/svg" xmlns:xlink="http://www.w3.org/1999/xlink" x="0px" y="0px"
	 viewBox="0 0 83.2 104.8" style="enable-background:new 0 0 83.2 104.8;" xml:space="preserve">
<style type="text/css">
	.st0{display:none;}
	.st1{display:inline;fill:#0040F2;}
	.st2{opacity:0.5;fill:#FFFFFF;}
	.st3{fill:#182B7B;}
	.st4{fill:#FFFFFF;}
	.st5{fill:#BE0F52;}
	.st6{fill:none;}
	.st7{font-family:'Meiryo-Bold';}
	.st8{font-size:15px;}
	.st9{letter-spacing:1;}
</style>
<g id="Layer_2" class="st0">
	<rect x="-0.1" y="-1.1" class="st1" width="85.4" height="107.2"/>
</g>
<g id="Layer_1">
	<title>hd_logo</title>
	<g>
		<circle class="st2" cx="42.1" cy="43" r="35.2"/>
		<path class="st3" d="M23.6,65.1c1.8,0.6,3.8,0,5-1.4l13.4-15l12.2,15.6c0.9,1.2,2.3,1.9,3.8,1.9l0,0c1.5,0,2.9-0.8,3.8-2
			l14.3-19.6c0-0.6,0-1.2,0-1.8c0-4-0.7-8-2-11.8L57.8,53.3L46,38.2c-1.6-2.1-4.7-2.5-6.8-0.8c-0.2,0.2-0.4,0.4-0.6,0.6L28.4,49.4
			l-4.6-36.3c-3.3,2-6.3,4.6-8.7,7.7l5.1,40.4C20.5,62.9,21.8,64.5,23.6,65.1z"/>
		<path class="st4" d="M59.8,11.3l0.3,0.1L59.8,11.3z"/>
		<path class="st4" d="M47.5,7l1.2,0.2L47.5,7z"/>
		<path class="st4" d="M45.6,6.7c0.4,0,0.8,0.1,1.2,0.2C46.4,6.8,46,6.7,45.6,6.7z"/>
		<path class="st4" d="M53.3,8.4l0.5,0.2L53.3,8.4z"/>
		<path class="st4" d="M49.5,7.3l0.8,0.2L49.5,7.3z"/>
		<path class="st4" d="M54.8,9l0.5,0.2L54.8,9z"/>
		<path class="st4" d="M56.3,9.5l0.4,0.2L56.3,9.5z"/>
		<path class="st4" d="M51.1,7.7c0.3,0.1,0.5,0.1,0.7,0.2C51.6,7.9,51.3,7.8,51.1,7.7z"/>
		<path class="st4" d="M43.8,6.6H45H43.8z"/>
		<path class="st4" d="M24.8,10.6l1-0.5L24.8,10.6z"/>
		<path class="st4" d="M41.7,6.5c0.5,0,1.1,0,1.6,0C42.7,6.5,42.2,6.5,41.7,6.5z"/>
		<path class="st4" d="M23.5,11.3L23.5,11.3L24,11L23.5,11.3z"/>
		<path class="st4" d="M61.1,12.1l0.2,0.1L61.1,12.1z"/>
		<path class="st4" d="M36.4,6.9l0.8-0.1L36.4,6.9z"/>
		<path class="st4" d="M34.3,7.2l0.6-0.1L34.3,7.2z"/>
		<path class="st4" d="M43.3,8.8H44H43.3z"/>
		<path class="st4" d="M41.6,8.8L41.6,8.8z"/>
		<path class="st4" d="M26.7,12.2l0.3-0.1L26.7,12.2z"/>
		<path class="st4" d="M46.8,9.1H47H46.8z"/>
		<path class="st4" d="M45.1,8.9h0.4H45.1z"/>
		<path class="st4" d="M73.2,29.7c0.2,0.5,0.4,1.1,0.7,1.7l0,0c-0.8-2.2-1.8-4.2-3-6.2C71.8,26.6,72.6,28.1,73.2,29.7z"/>
		<path class="st4" d="M25.2,12.9L25.2,12.9L25.2,12.9z"/>
		<path class="st4" d="M64.4,14.4L64.4,14.4z"/>
		<path class="st5" d="M23.4,11.3L23.4,11.3l-0.1-0.9c-0.4-2.6-2.8-4.4-5.5-4c-2.5,0.4-4.3,2.7-4,5.3l0.9,6.6l0,0
			C17.2,15.6,20.2,13.2,23.4,11.3z"/>
		<path class="st4" d="M37.2,6.8c0.5-0.1,1-0.1,1.5-0.1C38.2,6.7,37.7,6.7,37.2,6.8z"/>
		<path class="st3" d="M64.4,14.4c4.9,3.9,8.7,9,11.1,14.8l-1.6,2.2c6.5,17.8-2.7,37.5-20.6,44s-37.5-2.7-44-20.6
			c-4.1-11.4-1.9-24.1,5.8-33.5l0,0c0.7-0.9,1.4-1.7,2.2-2.5c1.6-1.6,3.3-3,5.1-4.2c0.5-0.3,0.9-0.6,1.4-0.9l-0.3-2.4l0,0l0.3,2.4
			c-0.5,0.3-0.9,0.6-1.4,0.9c-1.8,1.2-3.5,2.6-5.1,4.2c-0.8,0.8-1.5,1.6-2.2,2.5l-0.4-3C1,33.2,1.9,56.3,16.8,70s38,12.7,51.7-2.2
			s12.7-38-2.2-51.7C65.7,15.5,65.1,15,64.4,14.4L64.4,14.4z"/>
		<path class="st4" d="M70.9,25.2c-0.3-0.5-0.6-0.9-0.8-1.3c-1.2-1.8-2.6-3.5-4.2-5.1s-3.3-3-5.1-4.2S57,12.3,55,11.5
			c-2.6-1.1-5.3-1.8-8-2.3C56.9,10.8,65.7,16.6,70.9,25.2z"/>
		<path class="st4" d="M25.2,12.9c-0.5,0.3-1,0.5-1.4,0.8l0,0C24.2,13.5,24.7,13.2,25.2,12.9z"/>
		<path class="st4" d="M34.9,7.1c0.5-0.1,1-0.2,1.5-0.3C35.9,6.9,35.4,7,34.9,7.1z"/>
		<path class="st4" d="M23.9,11l0.9-0.4L23.9,11z"/>
		<path class="st4" d="M32.3,7.7c0.6-0.2,1.3-0.3,2-0.4C33.6,7.4,32.9,7.5,32.3,7.7z"/>
		<path class="st4" d="M45,6.6l0.6,0.1L45,6.6z"/>
		<path class="st4" d="M41.6,8.8c-4.6-0.1-9.2,0.9-13.4,2.7c-0.4,0.2-0.8,0.4-1.3,0.6C31.5,9.9,36.5,8.7,41.6,8.8L41.6,8.8z"/>
		<path class="st4" d="M53.9,8.6l0.9,0.3L53.9,8.6z"/>
		<path class="st4" d="M55.3,9.1l0.9,0.4L55.3,9.1z"/>
		<path class="st4" d="M51.8,7.9c0.5,0.1,1,0.3,1.5,0.5C52.8,8.3,52.3,8.1,51.8,7.9z"/>
		<path class="st4" d="M60,11.5c0.3,0.2,0.7,0.4,1,0.6C60.7,11.9,60.4,11.7,60,11.5z"/>
		<path class="st4" d="M45.5,9l1.3,0.2L45.5,9z"/>
		<path class="st4" d="M25.3,12.9c0.5-0.3,0.9-0.5,1.4-0.7C26.2,12.4,25.7,12.6,25.3,12.9z"/>
		<path class="st4" d="M50.3,7.5l0.8,0.2L50.3,7.5z"/>
		<path class="st4" d="M61.2,12.2c1.1,0.7,2.1,1.4,3.2,2.3C63.4,13.6,62.3,12.9,61.2,12.2z"/>
		<path class="st4" d="M46.8,6.9L47.6,7L46.8,6.9z"/>
		<path class="st4" d="M43.3,6.5h0.6H43.3z"/>
		<path class="st4" d="M44,8.8l1.1,0.1L44,8.8z"/>
		<path class="st4" d="M48.7,7.2l0.8,0.2L48.7,7.2z"/>
		<path class="st4" d="M42.1,8.8c0.4,0,0.8,0,1.3,0C42.9,8.8,42.5,8.8,42.1,8.8z"/>
		<path class="st3" d="M23.8,13.7L23.8,13.7c-0.5,0.3-0.9,0.6-1.4,0.9c-1.8,1.2-3.5,2.6-5.1,4.2c-0.8,0.8-1.5,1.6-2.2,2.5l0,0
			C17.5,18.3,20.5,15.7,23.8,13.7z"/>
		<path class="st3" d="M25.2,12.9L25.2,12.9c0.5-0.3,1-0.5,1.5-0.7l0.3-0.1c0.4-0.2,0.8-0.4,1.3-0.6c4.1-1.8,8.7-2.7,13.3-2.7h0.5
			c0.4,0,0.8,0,1.3,0H44l1.1,0.1h0.4l1.3,0.2H47c2.7,0.4,5.4,1.2,8,2.3c2,0.9,4,1.9,5.8,3.2c1.8,1.2,3.5,2.6,5.1,4.2s3,3.3,4.2,5.1
			c0.3,0.4,0.6,0.9,0.8,1.3c1.2,2,2.2,4,3,6.2l1.6-2.2c-2.4-5.8-6.2-10.9-11.1-14.8l0,0c-1-0.8-2.1-1.6-3.2-2.3L61,12
			c-0.3-0.2-0.7-0.4-1-0.6l-0.3-0.1c-1-0.6-2.1-1.1-3.2-1.6l-0.4-0.2l-0.9-0.4l-0.5-0.2L54,8.5l-0.5-0.2C53,8.1,52.5,8,52,7.8
			c-0.2-0.1-0.5-0.1-0.7-0.2l-0.8-0.2l-0.8-0.2L48.9,7l-1.2-0.2l-0.8-0.1c-0.5,0.1-0.9,0-1.3,0L45,6.6l-1.1-0.1h-0.6
			c-0.5,0-1.1,0-1.6,0h-0.1c-0.7,0-1.4,0-2.1,0.1l-0.8,0.1c-0.5,0-1,0.1-1.5,0.1l-0.8,0.1c-0.5,0.1-1,0.2-1.5,0.3l-0.6,0.1
			c-0.7,0.1-1.3,0.3-2,0.5l-0.9,0.3c-0.4,0.1-0.8,0.2-1.2,0.4l-0.8,0.2l-1.1,0.4l-0.9,0.4c-0.6,0.2-1.1,0.5-1.7,0.8l-1,0.5L24,11.1
			l-0.5,0.3l0.3,2.3C24.2,13.4,24.7,13.2,25.2,12.9z"/>
		<path class="st3" d="M17.3,18.8c1.6-1.6,3.3-3,5.1-4.2c0.5-0.3,0.9-0.6,1.4-0.9l-0.3-2.4c-3.3,1.9-6.2,4.2-8.8,7l0.3,2.9
			C15.8,20.4,16.5,19.6,17.3,18.8z"/>
		<g>
			
				<image style="overflow:visible;" width="63" height="32" xlink:href="A02375DD.png"  transform="matrix(1 0 0 1 13.0007 78.3383)">
			</image>
			<g>
				<rect x="19.1" y="84.5" class="st6" width="50.8" height="15.3"/>
				<text transform="matrix(1 0 0 1 19.1301 97.6658)" class="st3 st7 st8 st9">トップ</text>
			</g>
		</g>
	</g>
</g>
</svg>
