<svg xmlns="http://www.w3.org/2000/svg" xmlns:xlink="http://www.w3.org/1999/xlink" viewBox="0 0 216.4 30"><defs><style>.cls-1{fill:none;}.cls-2{clip-path:url(#clip-path);}.cls-3{fill:#ababab;}.cls-4{clip-path:url(#clip-path-2);}.cls-5{fill:#c00f52;}.cls-6{fill:#182b7b;}</style><clipPath id="clip-path" transform="translate(0 0)"><rect class="cls-1" width="30" height="30"/></clipPath><clipPath id="clip-path-2" transform="translate(0 0)"><circle class="cls-1" cx="15" cy="32.5" r="15"/></clipPath></defs><title>Asset 2</title><g id="Layer_2" data-name="Layer 2"><g id="デザイン"><g class="cls-2"><path class="cls-3" d="M15,3A12,12,0,1,1,3,15,12,12,0,0,1,15,3m0-3A15,15,0,1,0,30,15,15,15,0,0,0,15,0Z" transform="translate(0 0)"/><g class="cls-4"><path class="cls-5" d="M15,3A12,12,0,1,1,3,15,12,12,0,0,1,15,3m0-3A15,15,0,1,0,30,15,15,15,0,0,0,15,0Z" transform="translate(0 0)"/></g></g></g><g id="テキスト"><path class="cls-6" d="M49.12,9.94v1.94h-2.2V24.2h2.2v1.94h-7V24.2h2.2V11.88h-2.2V9.94Z" transform="translate(0 0)"/><path class="cls-6" d="M56.6,9.94l5.2,8.54.14.22a34.47,34.47,0,0,1,1.86,3.5h.08c-.06-1.36-.1-3.84-.1-5.36V9.94h2.5v16.2H63.72l-6.16-9.92a36.87,36.87,0,0,1-2-3.64h-.1c.1,1.34.16,3.5.16,5.72v7.84h-2.5V9.94Z" transform="translate(0 0)"/><path class="cls-6" d="M81.92,9.94v2.22H73.68v4.78h7.26v2.12H73.68v7.08H71.12V9.94Z" transform="translate(0 0)"/><path class="cls-6" d="M100.6,18c0,5-3.24,8.46-7.92,8.46S84.76,23,84.76,18,88,9.6,92.68,9.6,100.6,13.08,100.6,18ZM87.54,18c0,3.7,2.08,6.22,5.14,6.22S97.82,21.7,97.82,18s-2.1-6.24-5.14-6.24S87.54,14.32,87.54,18Z" transform="translate(0 0)"/><path class="cls-6" d="M110.54,9.94c3.82,0,6.06,1.64,6.06,4.42a3.72,3.72,0,0,1-1.64,3.2,6.83,6.83,0,0,1-2.74.94v.06c1.8.56,2.72,1.8,5.62,7.58h-3.12c-2.38-5.64-3.24-6.66-5.76-6.72h-1.9v6.72h-2.58V9.94Zm-3.48,7.42h2.72c2.6,0,4-1,4-2.78S112.5,12,110.06,12h-3Z" transform="translate(0 0)"/><path class="cls-6" d="M124.9,9.94l3.3,7.46a24.23,24.23,0,0,1,1.22,3.36h.08a22.51,22.51,0,0,1,1.22-3.36L134,9.94h3.76v16.2H135.3V17.86c0-1.62.06-4.64.12-5.84h-.08a49.67,49.67,0,0,1-1.82,4.8l-3,6.6h-2.08l-3-6.6a44.53,44.53,0,0,1-1.82-4.8h-.08c.08,1.66.12,3.66.12,5.84v8.28h-2.48V9.94Z" transform="translate(0 0)"/><path class="cls-6" d="M149.88,9.86l6.38,16.28h-2.84l-1.66-4.44h-6.62l-1.66,4.44h-2.84L147,9.86Zm-.36,5.5c-.32-.88-.9-2.6-1-3.14h-.08c-.16.64-.62,2-1,3.14l-1.56,4.26h5.22Z" transform="translate(0 0)"/><path class="cls-6" d="M171.28,9.94v2.28h-5.54V26.14h-2.62V12.22h-5.56V9.94Z" transform="translate(0 0)"/><path class="cls-6" d="M180.56,9.94v1.94h-2.2V24.2h2.2v1.94h-7V24.2h2.2V11.88h-2.2V9.94Z" transform="translate(0 0)"/><path class="cls-6" d="M199.48,18c0,5-3.24,8.46-7.92,8.46S183.64,23,183.64,18s3.28-8.42,7.92-8.42S199.48,13.08,199.48,18Zm-13.06,0c0,3.7,2.08,6.22,5.14,6.22S196.7,21.7,196.7,18s-2.1-6.24-5.14-6.24S186.42,14.32,186.42,18Z" transform="translate(0 0)"/><path class="cls-6" d="M206.72,9.94l5.2,8.54.14.22a34.47,34.47,0,0,1,1.86,3.5H214c-.06-1.36-.1-3.84-.1-5.36V9.94h2.5v16.2h-2.56l-6.16-9.92a36.87,36.87,0,0,1-2-3.64h-.1c.1,1.34.16,3.5.16,5.72v7.84h-2.5V9.94Z" transform="translate(0 0)"/></g></g></svg>