<svg xmlns="http://www.w3.org/2000/svg" viewBox="0 0 322.08 77.19"><defs><style>.cls-1{fill:none;stroke:#c3c3c3;stroke-miterlimit:10;}.cls-2{fill:#be0f52;}.cls-3{fill:#c2c2c2;}.cls-4{fill:#182b7b;}</style></defs><title>Asset 3</title><g id="Layer_2" data-name="Layer 2"><g id="デザイン"><line class="cls-1" y1="20.71" x2="180" y2="20.71"/></g><g id="テキスト"><path class="cls-2" d="M6.5.72V2.27H4.74v9.86H6.5v1.56H.93V12.13H2.69V2.27H.93V.72Z"/><path class="cls-3" d="M15.67,6A3.93,3.93,0,0,1,19,4.07c2.1,0,3.3,1.36,3.3,3.72v5.9h-2V8.12c0-1.59-.64-2.37-1.92-2.37a3.31,3.31,0,0,0-2.75,2.32v5.62h-2V4.24h2Z"/><path class="cls-3" d="M31.27,3.67C31.27,1.36,32.48,0,34.55,0A4.11,4.11,0,0,1,37,.67l-.72,1.47a2.17,2.17,0,0,0-1.44-.49c-1,0-1.58.7-1.58,2v.64h3.1V5.75h-3.1v7.94H31.27V5.75H28.86V4.24h2.41Z"/><path class="cls-3" d="M52.18,9A4.84,4.84,0,1,1,42.5,9a4.84,4.84,0,1,1,9.68,0Zm-7.64,0c0,2,1.14,3.38,2.81,3.38s2.78-1.38,2.78-3.38S49,5.57,47.35,5.57,44.54,7,44.54,8.93Z"/><path class="cls-3" d="M61,6.87c.58-2,1.57-2.87,3.14-2.87a2.85,2.85,0,0,1,1.3.27L64.88,6.1a2.74,2.74,0,0,0-1-.16c-1.46,0-2.53,1.2-2.85,3.17v4.58h-2V4.24H61l-.06,2.63Z"/><path class="cls-3" d="M73.33,6a2.89,2.89,0,0,1,2.58-1.88,2.57,2.57,0,0,1,2.68,2.08,3.14,3.14,0,0,1,2.73-2.08A2.73,2.73,0,0,1,83.6,5.15a4.15,4.15,0,0,1,.68,2.64v5.9H82.39V8c0-1.43-.58-2.27-1.57-2.27s-1.71,1-2,2.21v5.73H76.93V7.94c0-1.39-.58-2.19-1.57-2.19s-1.71.94-2,2.35v5.59H71.46V4.24h1.87Z"/><path class="cls-3" d="M97.79,7.41c0-1.2-.76-1.84-2.22-1.84a5,5,0,0,0-3.09,1l-.85-1.29a7,7,0,0,1,4-1.28c2.66,0,4,1.26,4,3.71v3.15a6.43,6.43,0,0,0,.54,2.84H98.43A6.09,6.09,0,0,1,98,12.1h-.07a4.05,4.05,0,0,1-1.34,1.33,4,4,0,0,1-2.12.51,3,3,0,0,1-3.25-3c0-2.09,1.83-3.21,5.27-3.21h1.31ZM97,9.06c-2.54,0-3.7.56-3.7,1.81A1.56,1.56,0,0,0,95,12.36a2.71,2.71,0,0,0,2.76-2.52V9.06Z"/><path class="cls-3" d="M110.35,4.24h2.92V5.79h-2.92v5.09a2.45,2.45,0,0,0,.11,1,.9.9,0,0,0,.84.48,3,3,0,0,0,1.6-.52l.41,1.41a4.4,4.4,0,0,1-2.49.67c-1.6,0-2.47-1-2.47-2.72V5.79h-2.24V4.24h2.24v-2l2-.89Z"/><path class="cls-3" d="M122.62.34v2H120.4v-2Zm-.11,3.9v9.45h-2V4.24Z"/><path class="cls-3" d="M139.44,9a4.84,4.84,0,1,1-9.68,0,4.84,4.84,0,1,1,9.68,0Zm-7.63,0c0,2,1.13,3.38,2.8,3.38s2.78-1.38,2.78-3.38-1.16-3.36-2.78-3.36S131.81,7,131.81,8.93Z"/><path class="cls-3" d="M148.38,6a4,4,0,0,1,3.35-1.95c2.1,0,3.3,1.36,3.3,3.72v5.9h-2V8.12c0-1.59-.64-2.37-1.92-2.37a3.33,3.33,0,0,0-2.76,2.32v5.62h-2V4.24h2Z"/><path class="cls-4" d="M19.54,52.94v4.8H3.5v-4.8Z"/><path class="cls-4" d="M50.79,60.58a48.36,48.36,0,0,1,7.53,5.18l-2.69,4.37a53.73,53.73,0,0,0-4.84-4.9V76.71H46V64.22a35.44,35.44,0,0,1-7.54,9.7L35.71,69.5a31.24,31.24,0,0,0,8.69-9.21H37V56.16h9V51.6H36.1V47.28h5.13c-.43-2-1.15-4.75-1.73-6.48H37V36.43h8.88V31.1h5v5.33h8.5V40.8h-2.5a38.72,38.72,0,0,1-2.16,6.48H60.1V51.6H50.79v4.56h8.44v4.13H50.79ZM44.16,40.8a50.8,50.8,0,0,1,1.54,6.48h4.65a53.58,53.58,0,0,0,1.88-6.48ZM66.24,52.17c-.19,11.81-1.73,19.16-5.37,25L57,73.63c3.12-4.89,4.41-11.76,4.41-23.76V35.18l.63,0,.81-.09a67.06,67.06,0,0,0,14.93-3.22l3.08,4.08a80.17,80.17,0,0,1-14.6,3.27v8.11H82v4.89H76.61V76.71H71.76V52.17Z"/><path class="cls-4" d="M98.93,76.71h-5V61.2a60,60,0,0,1-7.3,6.62L83.33,63.7A40.84,40.84,0,0,0,95.67,51.41H84.48v-3.7h19.78V44.83h-16V41.47h16V38.69H86v-3.6H96.38a21.6,21.6,0,0,0-2.2-3l5.42-1.29a24.92,24.92,0,0,1,2.64,4.32h9.94a29.56,29.56,0,0,0,2.35-4.23l5.76,1-.81,1.1a24.75,24.75,0,0,1-1.59,2.12h10.18v3.6H109.49v2.78h16.37v3.36H109.49v2.88h20.07v3.7H101.14c-.43.72-.82,1.34-1.63,2.64h24.67V76.71H119V74.78h-20ZM119,59.9V57.46h-20V59.9Zm0,5.57V63h-20v2.45Zm0,5.71V68.64h-20v2.54Z"/><path class="cls-4" d="M131.28,55.58a73.88,73.88,0,0,0,1.49-12.24l.14-2.3,4,.38a83.65,83.65,0,0,1-1.64,16.28ZM142.8,76.71h-4.9V31.1h4.9v7.11l2.26-1.88a39.82,39.82,0,0,1,3.21,6.82l-3.16,3.17A50.68,50.68,0,0,0,142.8,40Zm33.75-42.49v3.51H164.4V40h10.47v3.36H164.4v2.31h13.68v3.74H146.5V45.65h13.05V43.34H149.38V40h10.17V37.73H148V34.22h11.56V31.1h4.85v3.12Zm-2.4,38.26c0,2.93-1.25,4.08-4.47,4.08a50.18,50.18,0,0,1-6-.38L163.06,72a45.2,45.2,0,0,0,4.94.39c1,0,1.25-.24,1.25-1.35V68h-14.4v8.74H150V51.89h24.2Zm-19.3-14.4h14.4V55.34h-14.4Zm0,6.34h14.4V61.54h-14.4Z"/><path class="cls-4" d="M189.65,31.1h4.89V36h7.3v4.13h-7.3v4h8.31v4.17h-2.78a43.61,43.61,0,0,1-2,5.91h4.51v4.08h-8v4.32h7.73v4.18h-7.73v9.89h-4.89V66.82h-8.26V62.64h8.26V58.32H181V54.24h4.32a50.45,50.45,0,0,0-1.83-5.91h-3.45V44.16h9.6v-4H182V36h7.63ZM188,48.33c.57,1.64,1.24,3.84,1.73,5.91h3.88a33.83,33.83,0,0,0,1.88-5.91Zm35.9-4.56c0,3-1,3.89-4.46,3.89-1.73,0-3.75-.09-5.52-.24l-.82-4.22c2.59.29,4.18.43,4.95.43s1.1-.24,1.1-1V37H208.9V50.64h13.3L225,53a37.78,37.78,0,0,1-4.85,13.78,28.43,28.43,0,0,0,6.43,5.42l-2.64,4.37a27.29,27.29,0,0,1-6.57-5.71,42.67,42.67,0,0,1-5.67,6l-2.78-3.84v3.65h-4.75V32.78h19.77Zm-15,28.81a24.32,24.32,0,0,0,5.57-5.52,37.58,37.58,0,0,1-5-12.2h-.53Zm4.85-17.72a28.45,28.45,0,0,0,3.31,8,25,25,0,0,0,2.74-8Z"/><path class="cls-4" d="M273.6,49.92v5.47H228.53V49.92Z"/><path class="cls-4" d="M306.82,70.51c0,1.3.48,1.49,4,1.49,4.13,0,5.52-.29,6-1.3.28-.62.33-1,.48-3.93l4.84,1.53c-.19,4.42-.67,6.1-1.82,6.87s-4.18,1.1-9.36,1.1c-8.16,0-9.41-.48-9.41-3.65V66.77H296.4c-1.82,6.67-6.67,9.31-18.29,10.08l-2.21-4.27c9.6-.39,13.3-1.83,14.84-5.81H282.1V49.63h33.84V66.77h-9.12ZM292,36.91h6.76v6.62H292v1.68h8v3H278.11V32.16h21.65v3.21H292Zm-9.32-1.54v1.54h5V35.37Zm0,4v1.73h11.67V39.36Zm0,4.17v1.68h5V43.53Zm4.61,10.8h23.43V52.46H287.28Zm0,4.71h23.43V57.17H287.28Zm0,4.8h23.43v-2H287.28ZM321,35.23v3.89H305.23a25.39,25.39,0,0,1-2.73,3.21l-3.65-2.83a25.76,25.76,0,0,0,5.28-8.73l5,.76a27.42,27.42,0,0,1-1.58,3.7Zm-1.3,7.63v3.75H302.45V42.86Z"/></g></g></svg>