<svg xmlns="http://www.w3.org/2000/svg" xmlns:xlink="http://www.w3.org/1999/xlink" viewBox="0 0 286.56 30"><defs><style>.cls-1{fill:none;}.cls-2{clip-path:url(#clip-path);}.cls-3{fill:#ababab;}.cls-4{clip-path:url(#clip-path-2);}.cls-5{fill:#c00f52;}.cls-6{fill:#182b7b;}</style><clipPath id="clip-path"><rect class="cls-1" width="30" height="30"/></clipPath><clipPath id="clip-path-2"><circle class="cls-1" cx="15" cy="32.5" r="15"/></clipPath></defs><title>Asset 2</title><g id="Layer_2" data-name="Layer 2"><g id="ヘッダー_フッター" data-name="ヘッダー・フッター"><g class="cls-2"><path class="cls-3" d="M15,3A12,12,0,1,1,3,15,12,12,0,0,1,15,3m0-3A15,15,0,1,0,30,15,15,15,0,0,0,15,0Z"/><g class="cls-4"><path class="cls-5" d="M15,3A12,12,0,1,1,3,15,12,12,0,0,1,15,3m0-3A15,15,0,1,0,30,15,15,15,0,0,0,15,0Z"/></g></g><path class="cls-6" d="M52.37,3.66V6.38H49.29V23.62h3.08v2.72H42.62V23.62H45.7V6.38H42.62V3.66Z"/><path class="cls-6" d="M62.84,3.66l7.28,12,.2.3a48.59,48.59,0,0,1,2.6,4.9H73c-.08-1.9-.14-5.37-.14-7.5V3.66h3.5V26.34H72.81L64.18,12.45a51.69,51.69,0,0,1-2.74-5.09H61.3c.14,1.87.22,4.9.22,8v11H58V3.66Z"/><path class="cls-6" d="M98.29,3.66V6.77H86.75v6.69H96.92v3H86.75v9.91H83.17V3.66Z"/><path class="cls-6" d="M124.44,15c0,7-4.54,11.85-11.09,11.85S102.26,22,102.26,15s4.6-11.79,11.09-11.79S124.44,8.06,124.44,15Zm-18.28,0c0,5.18,2.91,8.71,7.19,8.71s7.2-3.53,7.2-8.71-2.94-8.73-7.2-8.73S106.16,9.79,106.16,14.94Z"/><path class="cls-6" d="M138.35,3.66c5.35,0,8.49,2.3,8.49,6.19a5.2,5.2,0,0,1-2.3,4.48,9.59,9.59,0,0,1-3.83,1.31v.09c2.52.78,3.8,2.52,7.86,10.61h-4.36c-3.33-7.9-4.54-9.32-8.07-9.41h-2.66v9.41h-3.61V3.66Zm-4.87,10.39h3.81c3.64,0,5.6-1.35,5.6-3.89,0-2.36-1.79-3.59-5.21-3.59h-4.2Z"/><path class="cls-6" d="M158.46,3.66l4.62,10.44a34.46,34.46,0,0,1,1.71,4.71h.11a30.7,30.7,0,0,1,1.71-4.71l4.62-10.44h5.26V26.34H173V14.75c0-2.27.08-6.5.17-8.18h-.12a67.68,67.68,0,0,1-2.54,6.72l-4.23,9.24h-2.91l-4.23-9.24a61.6,61.6,0,0,1-2.55-6.72h-.11c.11,2.33.17,5.13.17,8.18V26.34h-3.48V3.66Z"/><path class="cls-6" d="M193.43,3.55l8.93,22.79h-4l-2.33-6.22h-9.27l-2.32,6.22h-4l8.94-22.79Zm-.5,7.7c-.45-1.23-1.26-3.64-1.43-4.4h-.11c-.23.9-.87,2.86-1.43,4.4l-2.19,6h7.31Z"/><path class="cls-6" d="M223.39,3.66V6.85h-7.76V26.34H212V6.85h-7.79V3.66Z"/><path class="cls-6" d="M236.38,3.66V6.38H233.3V23.62h3.08v2.72h-9.74V23.62h3.08V6.38h-3.08V3.66Z"/><path class="cls-6" d="M262.87,15c0,7-4.54,11.85-11.09,11.85S240.69,22,240.69,15s4.6-11.79,11.09-11.79S262.87,8.06,262.87,15Zm-18.29,0c0,5.18,2.92,8.71,7.2,8.71s7.2-3.53,7.2-8.71-2.94-8.73-7.2-8.73S244.58,9.79,244.58,14.94Z"/><path class="cls-6" d="M273,3.66l7.28,12,.19.3a51,51,0,0,1,2.61,4.9h.11c-.09-1.9-.14-5.37-.14-7.5V3.66h3.5V26.34H283l-8.62-13.89a51.69,51.69,0,0,1-2.74-5.09h-.14c.14,1.87.22,4.9.22,8v11h-3.5V3.66Z"/></g></g></svg>