<svg xmlns="http://www.w3.org/2000/svg" viewBox="0 0 226.47 76.8"><defs><style>.cls-1{fill:none;stroke:#bbb;stroke-miterlimit:10;}.cls-2{fill:#b60f52;}.cls-3{fill:#bababa;}.cls-4{fill:#182b7b;}</style></defs><title>mac-05</title><g id="Layer_2" data-name="Layer 2"><g id="デザイン"><line class="cls-1" y1="20.71" x2="180" y2="20.71"/></g><g id="テキスト"><path class="cls-2" d="M4.39.72,7,6.69A18.39,18.39,0,0,1,8,9.38h.07A18.34,18.34,0,0,1,9,6.69l2.64-6h3v13h-2V7.06c0-1.3,0-3.72.1-4.68h-.07a39.62,39.62,0,0,1-1.46,3.85L8.87,11.51H7.2L4.79,6.23A35.14,35.14,0,0,1,3.33,2.38H3.27c.06,1.33.09,2.93.09,4.68v6.63h-2V.72Z"/><path class="cls-3" d="M28.23,7.41c0-1.2-.77-1.84-2.23-1.84a5,5,0,0,0-3.09,1l-.85-1.29a7,7,0,0,1,4-1.28c2.66,0,4,1.26,4,3.71v3.15a6.57,6.57,0,0,0,.54,2.84H28.87a6,6,0,0,1-.45-1.59h-.07A4.05,4.05,0,0,1,27,13.43a4,4,0,0,1-2.11.51,3,3,0,0,1-3.25-3c0-2.09,1.82-3.21,5.26-3.21h1.32Zm-.84,1.65c-2.54,0-3.69.56-3.69,1.81,0,.89.7,1.49,1.76,1.49a2.7,2.7,0,0,0,2.75-2.52V9.06Z"/><path class="cls-3" d="M46.16,12.24a4.71,4.71,0,0,1-4,1.73,4.81,4.81,0,0,1-5-5,4.85,4.85,0,0,1,5-5,5.37,5.37,0,0,1,3.7,1.31l-1,1.35a3.8,3.8,0,0,0-2.68-1c-1.77,0-3,1.37-3,3.37a3.1,3.1,0,0,0,3,3.33A3.36,3.36,0,0,0,45,11Z"/><path class="cls-3" d="M54.88,0V6a4,4,0,0,1,3.35-1.95c2.09,0,3.29,1.36,3.29,3.72v5.9h-2V8.12c0-1.59-.64-2.37-1.92-2.37a3.33,3.33,0,0,0-2.75,2.32v5.62h-2V0Z"/><path class="cls-3" d="M71.7.34v2H69.47v-2Zm-.11,3.9v9.45h-2V4.24Z"/><path class="cls-3" d="M81.57,6a4,4,0,0,1,3.34-1.95c2.1,0,3.3,1.36,3.3,3.72v5.9h-2V8.12c0-1.59-.64-2.37-1.92-2.37a3.32,3.32,0,0,0-2.75,2.32v5.62h-2V4.24h2Z"/><path class="cls-3" d="M97.39,9.3a2.84,2.84,0,0,0,3,3,3.73,3.73,0,0,0,3-1.43l1.11,1.28A5.46,5.46,0,0,1,100.24,14,4.62,4.62,0,0,1,95.31,9c0-3,2-5.07,4.74-5.07a4.42,4.42,0,0,1,4.45,4.75V9.3Zm5-1.42A2.36,2.36,0,0,0,100,5.49a2.63,2.63,0,0,0-2.55,2.39Z"/><path class="cls-3" d="M124.72,0V11.73c0,.26.11.37.35.37h1.3l-.22,1.59H124.4A1.49,1.49,0,0,1,122.7,12V0Z"/><path class="cls-3" d="M135.38.34v2h-2.23v-2Zm-.12,3.9v9.45h-2V4.24Z"/><path class="cls-3" d="M145.25,6a4,4,0,0,1,3.34-1.95c2.1,0,3.3,1.36,3.3,3.72v5.9h-2V8.12c0-1.59-.64-2.37-1.92-2.37a3.32,3.32,0,0,0-2.75,2.32v5.62h-2V4.24h2Z"/><path class="cls-3" d="M161.07,9.3a2.84,2.84,0,0,0,3,3,3.73,3.73,0,0,0,3-1.43l1.1,1.28A5.43,5.43,0,0,1,163.92,14,4.62,4.62,0,0,1,159,9c0-3,1.95-5.07,4.74-5.07a4.42,4.42,0,0,1,4.45,4.75V9.3Zm5-1.42a2.36,2.36,0,0,0-2.45-2.39,2.63,2.63,0,0,0-2.55,2.39Z"/><path class="cls-3" d="M180.58,6.88v1.6h-5.35V6.88Z"/><path class="cls-3" d="M190,4.24V9.78c0,1.55.64,2.38,1.84,2.38a3.2,3.2,0,0,0,2.8-2.35V4.24h2v9.45h-2v-1.8a4.11,4.11,0,0,1-3.33,2c-2.19,0-3.36-1.31-3.36-3.76V4.24Z"/><path class="cls-3" d="M206.4,5.67A3.54,3.54,0,0,1,209.49,4c2.58,0,4.37,2,4.37,5s-1.76,4.9-4.42,4.9a3.72,3.72,0,0,1-3-1.62v5h-2v-13h2Zm0,4.64a3,3,0,0,0,2.63,2c1.64,0,2.75-1.33,2.75-3.33S210.67,5.6,209,5.6a3.07,3.07,0,0,0-2.63,1.86Z"/><path class="cls-4" d="M19.54,52.94v4.8H3.5v-4.8Z"/><path class="cls-4" d="M56,39.69v4.23H36.34V39.69ZM55,74.3H42.67v2.41H38V60.58H55ZM53.91,32.83v3.94H39V32.83Zm0,14.06v3.89H39V46.89Zm0,6.87v3.79H39V53.76ZM42.67,70.32h7.59V64.61H42.67Zm37-15.55A43.09,43.09,0,0,1,72,66.38,44.75,44.75,0,0,0,82.42,71.9l-2.78,4.66a51.16,51.16,0,0,1-11.29-6.72,46.46,46.46,0,0,1-10.56,6.87l-2.73-4.18a34.18,34.18,0,0,0,10-5.76,34.6,34.6,0,0,1-6.67-10H56.07V52.46h21Zm-5.38-22V44.21c0,1,.29,1.24,1.3,1.24,1.34,0,1.53-.19,1.63-1.53s.24-2.26.24-2.45c0-.72,0-1.15,0-1.78l4.36,1.4c0,7.82-.81,8.78-7,8.78-3.94,0-5.19-.82-5.19-3.41V37.05H63.79v.48c0,6.87-1.53,10.9-5.13,13.68l-3.41-3.4c2.93-1.92,4-4.71,4-10.47V32.78Zm-11,24a27.18,27.18,0,0,0,5.33,6.72A26.1,26.1,0,0,0,73,56.78Z"/><path class="cls-4" d="M93.6,76.71H88.9V52.32c-1.11,2-2.07,3.45-3.51,5.57l-2.06-5.24c3.5-5.18,6.14-11.95,8.59-22l4.9,1.11c-1.11,4-2,6.76-3.22,10.22ZM104.07,31.1h4.75v4.56H117V31.1h4.8v4.56h7v3.79h-7v3.94h8.16v4h-27.7V52.7c0,11.33-1.34,17.81-4.85,23.57l-3.45-3.74c2.54-4.66,3.55-10.18,3.55-19.83V43.39h6.58V39.45H97.3V35.66h6.77Zm23.28,41.81c0,2.5-1.06,3.51-3.7,3.51a24.3,24.3,0,0,1-3.94-.29l-1-4.23a21.86,21.86,0,0,0,3.08.24c.81,0,1-.19,1-1.2V66.72h-5.62v8.74h-4.32V66.72h-5.23v10h-4.47V50.49h24.2ZM107.62,57h5.23V54h-5.23Zm0,6.44h5.23V60.29h-5.23Zm1.2-24v3.94H117V39.45Zm14,14.55h-5.62v3h5.62Zm0,6.29h-5.62v3.17h5.62Z"/><path class="cls-4" d="M132.1,52.32c1.05,0,1.39,0,1.92,0s.86-.05,1.82-.1c1.06-1.2,1.54-1.77,3-3.5a52.93,52.93,0,0,0-6.62-7.92l2.83-3.41c.77.77.87.87,1.3,1.35a50.79,50.79,0,0,0,4.51-7.88l4.23,2.26a64.91,64.91,0,0,1-6.1,8.64c1.1,1.39,1.63,2.11,2.64,3.5,1.77-2.2,4.42-5.8,6.48-9l3.7,2.69a114.4,114.4,0,0,1-10.8,13c2.83-.19,4.12-.28,6-.48-.49-1.29-1-2.44-1.49-3.6l3.5-1.39a44.17,44.17,0,0,1,3.79,9.84L149,58.13c-.33-1.39-.52-2.11-.81-3.17-.87.14-1.11.14-2.31.33l-1.1.15V76.71h-4.61V56l-2.21.24c-2.11.19-2.64.24-4.89.38Zm.09,18.82a59.6,59.6,0,0,0,2-12.2l4.27.53a49.47,49.47,0,0,1-1.92,13.68ZM147.7,70A81.1,81.1,0,0,0,146,59.42l3.89-1.05a72.24,72.24,0,0,1,2.21,10.08ZM164.12,38c-.77,8-3.8,13.05-9.65,16.27l-3-3.55c4.8-2.4,7.25-6.29,8-12.72H152.4V33.55h23.72c-.05,7.25-.39,14.06-.82,16.13-.53,2.4-1.87,3.26-5.28,3.26a51.94,51.94,0,0,1-5.38-.33L163.92,48a26,26,0,0,0,4.8.48c1.35,0,1.73-.29,2-1.63a68.89,68.89,0,0,0,.58-8.88Zm11,38.74h-4.85V74H158.79v2.74h-4.85V56.11h21.22Zm-16.37-7h11.52V60.38H158.79Z"/><path class="cls-4" d="M179.71,49.15a34.81,34.81,0,0,0,20.21-18h5.71c4.13,6.82,11.14,12.43,20.84,16.56l-3,4.76c-9.65-4.66-16.42-10.09-20.59-16.66-3.65,7.44-11,13.87-20.07,17.66Zm17.72.53v5.66c0,6.2-.34,8.84-1.44,11.72a19.21,19.21,0,0,1-8.41,9.74L183.84,73c6.38-3.6,8.59-8.31,8.5-18.05V49.68ZM214.85,49v27.7h-5.47V49Z"/></g></g></svg>