<svg xmlns="http://www.w3.org/2000/svg" viewBox="0 0 352.9 76.71"><defs><style>.cls-1{fill:none;stroke:#bbb;stroke-miterlimit:10;}.cls-2{fill:#b60f52;}.cls-3{fill:#bababa;}.cls-4{fill:#182b7b;}</style></defs><title>mac-03</title><g id="Layer_2" data-name="Layer 2"><g id="デザイン"><line class="cls-1" y1="20.71" x2="180" y2="20.71"/></g><g id="テキスト"><path class="cls-2" d="M6.21.72a6.59,6.59,0,0,1,3.25.69,3.68,3.68,0,0,1,1.9,3.28c0,2.83-1.72,4.24-5.25,4.24H3.68v4.76H1.63V.72ZM3.68,7.27H5.86c2.37,0,3.3-.71,3.3-2.52A2.18,2.18,0,0,0,8.23,2.9a4.2,4.2,0,0,0-2.15-.45H3.68Z"/><path class="cls-3" d="M20.34,6.87c.57-2,1.57-2.87,3.13-2.87a2.83,2.83,0,0,1,1.3.27L24.23,6.1a2.8,2.8,0,0,0-1-.16c-1.46,0-2.53,1.2-2.85,3.17v4.58h-2V4.24h1.94l-.07,2.63Z"/><path class="cls-3" d="M39.94,9a4.84,4.84,0,1,1-9.68,0,4.84,4.84,0,1,1,9.68,0Zm-7.64,0c0,2,1.14,3.38,2.81,3.38s2.78-1.38,2.78-3.38-1.17-3.36-2.78-3.36S32.3,7,32.3,8.93Z"/><path class="cls-3" d="M55.67,0V13.73h-2V12.26a3.56,3.56,0,0,1-3.09,1.65c-2.63,0-4.4-2-4.4-5S48.08,4,50.71,4a3.66,3.66,0,0,1,3,1.55V0Zm-2,7.57a2.91,2.91,0,0,0-2.58-2C49.49,5.59,48.3,7,48.3,9s1.11,3.36,2.79,3.36a3.05,3.05,0,0,0,2.61-1.84Z"/><path class="cls-3" d="M65.44,4.24V9.78c0,1.55.64,2.38,1.84,2.38a3.2,3.2,0,0,0,2.8-2.35V4.24h2v9.45h-2v-1.8a4.11,4.11,0,0,1-3.33,2c-2.19,0-3.36-1.31-3.36-3.76V4.24Z"/><path class="cls-3" d="M88.16,12.24a4.71,4.71,0,0,1-4,1.73,4.81,4.81,0,0,1-5-5,4.85,4.85,0,0,1,5-5,5.37,5.37,0,0,1,3.7,1.31l-1,1.35a3.8,3.8,0,0,0-2.68-1c-1.77,0-3,1.37-3,3.37a3.1,3.1,0,0,0,3,3.33A3.32,3.32,0,0,0,87,11Z"/><path class="cls-3" d="M97.86,4.24h2.91V5.79H97.86v5.09a2.45,2.45,0,0,0,.11,1,.87.87,0,0,0,.83.48,3,3,0,0,0,1.6-.52l.42,1.41a4.46,4.46,0,0,1-2.5.67c-1.6,0-2.46-1-2.46-2.72V5.79H93.62V4.24h2.24v-2l2-.89Z"/><path class="cls-3" d="M120.13,6.87c.57-2,1.57-2.87,3.14-2.87a2.81,2.81,0,0,1,1.29.27L124,6.1a2.76,2.76,0,0,0-1-.16c-1.46,0-2.53,1.2-2.85,3.17v4.58h-2V4.24h1.94l-.07,2.63Z"/><path class="cls-3" d="M136.71,7.41c0-1.2-.77-1.84-2.23-1.84a5,5,0,0,0-3.09,1l-.85-1.29a7,7,0,0,1,4-1.28c2.66,0,4,1.26,4,3.71v3.15a6.57,6.57,0,0,0,.54,2.84h-1.77a6,6,0,0,1-.45-1.59h-.07a4.05,4.05,0,0,1-1.34,1.33,4,4,0,0,1-2.11.51,3,3,0,0,1-3.25-3c0-2.09,1.82-3.21,5.26-3.21h1.32Zm-.84,1.65c-2.54,0-3.69.56-3.69,1.81,0,.89.7,1.49,1.76,1.49a2.7,2.7,0,0,0,2.75-2.52V9.06Z"/><path class="cls-3" d="M148.29,6a4,4,0,0,1,3.34-1.95c2.1,0,3.3,1.36,3.3,3.72v5.9h-2V8.12c0-1.59-.64-2.37-1.92-2.37a3.32,3.32,0,0,0-2.75,2.32v5.62h-2V4.24h2Z"/><path class="cls-3" d="M171.09,12.8a4.42,4.42,0,0,1-1.15,3.4,5,5,0,0,1-3.28,1.07,6.16,6.16,0,0,1-4.31-1.44l.91-1.34a4.93,4.93,0,0,0,3.38,1.18,2.32,2.32,0,0,0,2.55-2.48V11.88a3.66,3.66,0,0,1-2.85,1.39c-2.55,0-4.25-1.84-4.25-4.6S163.87,4,166.3,4a3.77,3.77,0,0,1,3,1.29l.32-1h1.47ZM169.19,7a3,3,0,0,0-2.61-1.38c-1.49,0-2.58,1.31-2.58,3.09s1.09,3.12,2.62,3.12a2.85,2.85,0,0,0,2.57-1.44Z"/><path class="cls-3" d="M180.22,9.3a2.84,2.84,0,0,0,3,3,3.73,3.73,0,0,0,3-1.43l1.11,1.28A5.46,5.46,0,0,1,183.07,14,4.62,4.62,0,0,1,178.14,9c0-3,2-5.07,4.74-5.07a4.42,4.42,0,0,1,4.45,4.75V9.3Zm5-1.42a2.36,2.36,0,0,0-2.45-2.39,2.64,2.64,0,0,0-2.55,2.39Z"/><path class="cls-3" d="M211.14,7.41c0-1.2-.77-1.84-2.23-1.84a5,5,0,0,0-3.09,1L205,5.27A7,7,0,0,1,209,4c2.66,0,4,1.26,4,3.71v3.15a6.57,6.57,0,0,0,.54,2.84h-1.77a6,6,0,0,1-.45-1.59h-.07a4.05,4.05,0,0,1-1.34,1.33,4,4,0,0,1-2.11.51,3,3,0,0,1-3.25-3c0-2.09,1.82-3.21,5.26-3.21h1.32Zm-.84,1.65c-2.54,0-3.69.56-3.69,1.81,0,.89.7,1.49,1.76,1.49a2.7,2.7,0,0,0,2.75-2.52V9.06Z"/><path class="cls-3" d="M222.75,5.67A3.54,3.54,0,0,1,225.84,4c2.58,0,4.37,2,4.37,5s-1.76,4.9-4.42,4.9a3.72,3.72,0,0,1-3-1.62v5h-2v-13h2Zm0,4.64a3,3,0,0,0,2.63,2c1.64,0,2.75-1.33,2.75-3.33S227,5.6,225.38,5.6a3.07,3.07,0,0,0-2.63,1.86Z"/><path class="cls-3" d="M239.29,5.67A3.54,3.54,0,0,1,242.38,4c2.58,0,4.37,2,4.37,5s-1.76,4.9-4.41,4.9a3.74,3.74,0,0,1-3.05-1.62v5h-2v-13h2Zm0,4.64a3,3,0,0,0,2.63,2c1.65,0,2.75-1.33,2.75-3.33s-1.1-3.36-2.75-3.36a3.08,3.08,0,0,0-2.63,1.86Z"/><path class="cls-3" d="M256.14,0V11.73c0,.26.11.37.36.37h1.29l-.22,1.59h-1.75A1.48,1.48,0,0,1,254.13,12V0Z"/><path class="cls-3" d="M266.8.34v2h-2.23v-2Zm-.11,3.9v9.45h-2V4.24Z"/><path class="cls-3" d="M283,12.24A4.73,4.73,0,0,1,279,14a4.81,4.81,0,0,1-5-5,4.85,4.85,0,0,1,5-5,5.35,5.35,0,0,1,3.7,1.31l-1,1.35a3.78,3.78,0,0,0-2.67-1c-1.78,0-3,1.37-3,3.37a3.1,3.1,0,0,0,3,3.33A3.36,3.36,0,0,0,281.86,11Z"/><path class="cls-3" d="M295.66,7.41c0-1.2-.76-1.84-2.22-1.84a5,5,0,0,0-3.09,1l-.85-1.29a7,7,0,0,1,4-1.28c2.66,0,4,1.26,4,3.71v3.15a6.43,6.43,0,0,0,.54,2.84H296.3a6.09,6.09,0,0,1-.44-1.59h-.07a4.05,4.05,0,0,1-1.34,1.33,4,4,0,0,1-2.12.51,3,3,0,0,1-3.25-3c0-2.09,1.83-3.21,5.27-3.21h1.31Zm-.83,1.65c-2.54,0-3.7.56-3.7,1.81a1.56,1.56,0,0,0,1.76,1.49,2.71,2.71,0,0,0,2.76-2.52V9.06Z"/><path class="cls-3" d="M308.22,4.24h2.92V5.79h-2.92v5.09a2.45,2.45,0,0,0,.11,1,.9.9,0,0,0,.84.48,3,3,0,0,0,1.6-.52l.41,1.41a4.4,4.4,0,0,1-2.49.67c-1.6,0-2.47-1-2.47-2.72V5.79H304V4.24h2.24v-2l2-.89Z"/><path class="cls-3" d="M320.49.34v2h-2.22v-2Zm-.11,3.9v9.45h-2V4.24Z"/><path class="cls-3" d="M337.31,9a4.84,4.84,0,1,1-9.68,0,4.84,4.84,0,1,1,9.68,0Zm-7.63,0c0,2,1.13,3.38,2.8,3.38s2.78-1.38,2.78-3.38-1.16-3.36-2.78-3.36S329.68,7,329.68,8.93Z"/><path class="cls-3" d="M346.25,6a4,4,0,0,1,3.35-1.95c2.1,0,3.3,1.36,3.3,3.72v5.9h-2V8.12c0-1.59-.64-2.37-1.92-2.37a3.33,3.33,0,0,0-2.76,2.32v5.62h-2V4.24h2Z"/><path class="cls-4" d="M19.54,52.94v4.8H3.5v-4.8Z"/><path class="cls-4" d="M59.67,39.55v2.64H71.48V31.1h5V42.19h5.61v4.75H76.47V71.52c0,3.65-1,4.8-4.32,4.8a66,66,0,0,1-7.59-.43l-1.1-5.09a53.32,53.32,0,0,0,6.67.53c1.15,0,1.35-.19,1.35-1.54V46.94H59V44.21H56.21a64.74,64.74,0,0,1-3.5,15.41c1.44,1.82,2.83,3.64,4.12,5.37.53.67,1,1.25,1.92,2.59l-3.69,3.8c-1.59-2.31-2.45-3.56-3.94-5.52l-.77-1.11A32.45,32.45,0,0,1,40,76.42l-3.4-3.8A30.4,30.4,0,0,0,47,60.34L44.88,57.6c-2.5-3.31-4.18-5.28-6.43-7.83L42,46.65c1.73,1.83,4.51,5.14,7.11,8.36a51.43,51.43,0,0,0,2.2-10.8H36.72V39.55h8.5V31.1h5v8.45Zm4.51,25A67.88,67.88,0,0,0,58.8,52L63,49.63a53.62,53.62,0,0,1,5.57,12.48Z"/><path class="cls-4" d="M128.4,36.77v4.46H92.74v9.41c0,13.2-1.2,20.06-4.37,25.87L84,72.67c2.59-4.7,3.5-10.61,3.5-22.42V36.77h17.38V31.1h5.38v5.67ZM92.06,70a51,51,0,0,0,4.18-16L101,55.29a51.71,51.71,0,0,1-4.51,17.62Zm16.47-18.19V69.17c0,1.58.48,1.82,3.5,1.82s3.94-.19,4.18-.86c.34-.87.48-3,.62-7.92l4.9,1.58c0,5.19-.43,8.55-1.2,9.79-1,1.73-2.78,2.21-8.69,2.21-4.61,0-6-.19-7-.86s-1.29-1.63-1.29-3.27V51.84ZM114,53.42a46.51,46.51,0,0,0-9.84-8.25l3.41-3.32a50.12,50.12,0,0,1,10.08,7.92Zm12,17.19a76.63,76.63,0,0,0-8-15.84l4.18-2.45a68,68,0,0,1,8.21,15.36Z"/><path class="cls-4" d="M142.32,49h-9.46V45.5h9.46V43.1h4.51v2.4h9.41V49h-9.41v2h8V65.38h-8v2.25h9.7v3.65h-9.7v5.43h-4.51V71.28H132.24V67.63h10.08V65.38H134.4V50.93h7.92Zm6-10.47A30.53,30.53,0,0,1,150,41.33l-4.7,1.53a25,25,0,0,0-2.11-4.37h-2.6a24.83,24.83,0,0,1-4.27,4.71l-3.93-2.93a24.31,24.31,0,0,0,7.1-9.5l5,.86A31.16,31.16,0,0,1,143,34.7h10.89v3.79ZM138.43,54v2.64h4V54Zm0,5.52v2.74h4V59.47Zm8.26-2.88h4V54h-4Zm0,5.62h4V59.47h-4Zm21.12-23.72a27.43,27.43,0,0,1,1.87,2.88L165.17,43a40.9,40.9,0,0,0-2.54-4.47h-2.74a30.36,30.36,0,0,1-3.6,4.95l-3.89-2.59a25.4,25.4,0,0,0,5.91-10l4.85.77c-.44,1.15-.68,1.73-1.3,3.07h15.36v3.79Zm-5.42,31.35c0,1.73.28,1.82,5.28,1.82,4.32,0,4.94-.14,5.33-1.29a18.8,18.8,0,0,0,.48-5l4.94,1.24c-.34,5.57-.67,7-1.82,8.07s-3.75,1.49-9,1.49c-8.83,0-9.94-.53-9.94-4.71V44.59h17.62v16c0,2.83-1.1,3.88-4.08,3.88a40.63,40.63,0,0,1-5.57-.38l-.77-4.46a28.65,28.65,0,0,0,4.47.48c1,0,1.15-.24,1.15-1.4v-10h-8.06Z"/><path class="cls-4" d="M224.07,76.66h-5V73.87H187.1v2.84h-5V33h42Zm-37-7.2H219V37.2H187.1Zm7.73-30.92h4.76V44.4h7V38.54h4.76V44.4h5.37v4h-5.37v6.39h6.53v4.08h-6.53v9.41h-4.76V58.85h-7.44c-.76,4.65-2.73,7.92-6.19,10.22l-3.65-3.41a10.23,10.23,0,0,0,4.95-6.81h-5.91V54.77h6.44a11.75,11.75,0,0,0,0-1.25V48.38h-5.47v-4h5.47Zm4.76,9.84V53c0,.53,0,1-.05,1.73h7.05V48.38Z"/></g></g></svg>