<svg xmlns="http://www.w3.org/2000/svg" xmlns:xlink="http://www.w3.org/1999/xlink" viewBox="0 0 409.95 32.64"><defs><style>.cls-1{fill:none;}.cls-2{clip-path:url(#clip-path);}.cls-3{fill:#a3a3a3;}.cls-4{clip-path:url(#clip-path-2);}.cls-5{fill:#b80f52;}.cls-6{fill:#182b7b;}</style><clipPath id="clip-path"><rect class="cls-1" width="30" height="30"/></clipPath><clipPath id="clip-path-2"><circle class="cls-1" cx="15" cy="32.5" r="15"/></clipPath></defs><title>mac-010</title><g id="Layer_2" data-name="Layer 2"><g id="ヘッダー_フッター" data-name="ヘッダー・フッター"><g class="cls-2"><path class="cls-3" d="M15,3A12,12,0,1,1,3,15,12,12,0,0,1,15,3m0-3A15,15,0,1,0,30,15,15,15,0,0,0,15,0Z"/><g class="cls-4"><path class="cls-5" d="M15,3A12,12,0,1,1,3,15,12,12,0,0,1,15,3m0-3A15,15,0,1,0,30,15,15,15,0,0,0,15,0Z"/></g></g><path class="cls-6" d="M48.67,3.66,53.29,14.1A34.46,34.46,0,0,1,55,18.81h.11a31.82,31.82,0,0,1,1.71-4.71L61.44,3.66H66.7V26.34H63.23V14.75c0-2.27.09-6.5.17-8.18h-.11a70.17,70.17,0,0,1-2.55,6.72l-4.23,9.24H53.6l-4.23-9.24a63.73,63.73,0,0,1-2.55-6.72h-.11c.11,2.33.17,5.13.17,8.18V26.34H43.41V3.66Z"/><path class="cls-6" d="M83.64,3.55l8.94,22.79h-4l-2.32-6.22H77l-2.33,6.22h-4L79.64,3.55Zm-.5,7.7c-.45-1.23-1.26-3.64-1.43-4.4H81.6c-.22.9-.87,2.86-1.43,4.4l-2.18,6H85.3Z"/><path class="cls-6" d="M115.65,23.76a12,12,0,0,1-8.49,3.06c-6.77,0-11.39-4.76-11.39-11.76S100.47,3.18,107,3.18A11.63,11.63,0,0,1,115,6.12l-1.9,2.61A8,8,0,0,0,107,6.29c-4.28,0-7.33,3.67-7.33,8.79a9.5,9.5,0,0,0,1.62,5.58,7.46,7.46,0,0,0,5.83,3,9.19,9.19,0,0,0,6.69-2.6Z"/><path class="cls-6" d="M124.72,3.66v9.27h11.14V3.66h3.59V26.34h-3.59V16.09H124.72V26.34h-3.58V3.66Z"/><path class="cls-6" d="M154.88,3.66V6.38H151.8V23.62h3.08v2.72h-9.75V23.62h3.08V6.38h-3.08V3.66Z"/><path class="cls-6" d="M165.35,3.66l7.28,12,.19.3a48.88,48.88,0,0,1,2.61,4.9h.11c-.08-1.9-.14-5.37-.14-7.5V3.66h3.5V26.34h-3.59l-8.62-13.89A51.69,51.69,0,0,1,164,7.36h-.14c.14,1.87.22,4.9.22,8v11h-3.5V3.66Z"/><path class="cls-6" d="M201.1,3.66V6.71H189.23v6.44h10.5v3h-10.5v7.11h12.29v3.11H185.65V3.66Z"/><path class="cls-6" d="M229.35,3,218.8,32.64l-1.91-.59L227.45,2.4Z"/><path class="cls-6" d="M254,3.66a11.72,11.72,0,0,1,5.69,1.2A6.45,6.45,0,0,1,263,10.6c0,5-3,7.42-9.18,7.42h-4.26v8.32H246V3.66Zm-4.42,11.45h3.81c4.14,0,5.76-1.23,5.76-4.39a3.79,3.79,0,0,0-1.62-3.25,7.27,7.27,0,0,0-3.75-.79h-4.2Z"/><path class="cls-6" d="M277.15,3.66c5.35,0,8.48,2.3,8.48,6.19a5.22,5.22,0,0,1-2.29,4.48,9.7,9.7,0,0,1-3.84,1.31v.09c2.52.78,3.81,2.52,7.87,10.61H283c-3.33-7.9-4.54-9.32-8.06-9.41h-2.66v9.41h-3.61V3.66Zm-4.87,10.39h3.8c3.64,0,5.6-1.35,5.6-3.89,0-2.36-1.79-3.59-5.2-3.59h-4.2Z"/><path class="cls-6" d="M313,15c0,7-4.53,11.85-11.08,11.85S290.87,22,290.87,15,295.46,3.18,302,3.18,313,8.06,313,15Zm-18.28,0c0,5.18,2.91,8.71,7.2,8.71s7.19-3.53,7.19-8.71S306.21,6.21,302,6.21,294.76,9.79,294.76,14.94Z"/><path class="cls-6" d="M325.9,3.66c7.58,0,12.15,4.26,12.15,11.31,0,4.29-1.74,7.7-4.87,9.61a14.07,14.07,0,0,1-7.48,1.76h-7.48V3.66Zm-4.06,19.57h3.38c5.72,0,9-3,9-8.23s-3.1-8.26-8.82-8.26h-3.52Z"/><path class="cls-6" d="M347.43,3.66V17.77a5.93,5.93,0,0,0,1,3.7A5.45,5.45,0,0,0,353,23.62a5.68,5.68,0,0,0,4.48-2.07,5.92,5.92,0,0,0,1.09-3.78V3.66h3.61V18.47a7.76,7.76,0,0,1-1.56,5A9.42,9.42,0,0,1,353,26.84a9.53,9.53,0,0,1-7.7-3.41,7.81,7.81,0,0,1-1.48-5V3.66Z"/><path class="cls-6" d="M387.69,23.76a11.94,11.94,0,0,1-8.48,3.06c-6.78,0-11.4-4.76-11.4-11.76S372.52,3.18,379,3.18a11.67,11.67,0,0,1,8.07,2.94l-1.91,2.61a8,8,0,0,0-6.1-2.44c-4.29,0-7.34,3.67-7.34,8.79a9.43,9.43,0,0,0,1.63,5.58,7.46,7.46,0,0,0,5.82,3,9.18,9.18,0,0,0,6.69-2.6Z"/><path class="cls-6" d="M410,3.66V6.85H402.2V26.34h-3.67V6.85h-7.79V3.66Z"/></g></g></svg>