<svg xmlns="http://www.w3.org/2000/svg" viewBox="0 0 226.47 76.95"><defs><style>.cls-1{fill:none;stroke:#bbb;stroke-miterlimit:10;}.cls-2{fill:#b60f52;}.cls-3{fill:#bababa;}.cls-4{fill:#182b7b;}</style></defs><title>mac-07</title><g id="Layer_2" data-name="Layer 2"><g id="デザイン"><line class="cls-1" y1="20.71" x2="180" y2="20.71"/></g><g id="テキスト"><path class="cls-2" d="M6.21.72a6.59,6.59,0,0,1,3.25.69,3.68,3.68,0,0,1,1.9,3.28c0,2.83-1.72,4.24-5.25,4.24H3.68v4.76H1.63V.72ZM3.68,7.27H5.86c2.37,0,3.3-.71,3.3-2.52A2.19,2.19,0,0,0,8.23,2.9a4.2,4.2,0,0,0-2.15-.45H3.68Z"/><path class="cls-3" d="M20.34,6.87c.57-2,1.57-2.87,3.13-2.87a2.83,2.83,0,0,1,1.3.27L24.23,6.1a2.8,2.8,0,0,0-1-.16c-1.46,0-2.53,1.2-2.85,3.17v4.58h-2V4.24h1.94l-.07,2.63Z"/><path class="cls-3" d="M39.94,9a4.84,4.84,0,1,1-9.68,0,4.84,4.84,0,1,1,9.68,0Zm-7.64,0c0,2,1.14,3.38,2.81,3.38s2.78-1.38,2.78-3.38-1.17-3.36-2.78-3.36S32.3,7,32.3,8.93Z"/><path class="cls-3" d="M55.67,0V13.73h-2V12.26a3.56,3.56,0,0,1-3.09,1.65c-2.63,0-4.4-2-4.4-5S48.08,4,50.71,4a3.66,3.66,0,0,1,3,1.55V0Zm-2,7.57a2.91,2.91,0,0,0-2.58-2C49.49,5.59,48.3,7,48.3,9s1.11,3.36,2.79,3.36a3.05,3.05,0,0,0,2.61-1.84Z"/><path class="cls-3" d="M65.44,4.24V9.78c0,1.55.64,2.38,1.84,2.38a3.2,3.2,0,0,0,2.8-2.35V4.24h2v9.45h-2v-1.8a4.11,4.11,0,0,1-3.33,2c-2.19,0-3.36-1.31-3.36-3.76V4.24Z"/><path class="cls-3" d="M88.16,12.24a4.71,4.71,0,0,1-4,1.73,4.81,4.81,0,0,1-5-5,4.85,4.85,0,0,1,5-5,5.37,5.37,0,0,1,3.7,1.31l-1,1.35a3.8,3.8,0,0,0-2.68-1c-1.77,0-3,1.37-3,3.37a3.1,3.1,0,0,0,3,3.33A3.32,3.32,0,0,0,87,11Z"/><path class="cls-3" d="M97.86,4.24h2.91V5.79H97.86v5.09a2.45,2.45,0,0,0,.11,1,.87.87,0,0,0,.83.48,3,3,0,0,0,1.6-.52l.42,1.41a4.46,4.46,0,0,1-2.5.67c-1.6,0-2.46-1-2.46-2.72V5.79H93.62V4.24h2.24v-2l2-.89Z"/><path class="cls-3" d="M120.59,0V11.73c0,.26.11.37.35.37h1.3L122,13.69h-1.75A1.48,1.48,0,0,1,118.58,12V0Z"/><path class="cls-3" d="M131.25.34v2H129v-2Zm-.11,3.9v9.45h-2V4.24Z"/><path class="cls-3" d="M141.12,6a4,4,0,0,1,3.35-1.95c2.09,0,3.29,1.36,3.29,3.72v5.9h-2V8.12c0-1.59-.64-2.37-1.92-2.37a3.32,3.32,0,0,0-2.75,2.32v5.62h-2V4.24h2Z"/><path class="cls-3" d="M156.94,9.3a2.84,2.84,0,0,0,3,3,3.73,3.73,0,0,0,3-1.43l1.11,1.28A5.46,5.46,0,0,1,159.79,14,4.62,4.62,0,0,1,154.86,9c0-3,2-5.07,4.74-5.07a4.42,4.42,0,0,1,4.45,4.75V9.3Zm5-1.42a2.36,2.36,0,0,0-2.45-2.39A2.62,2.62,0,0,0,157,7.88Z"/><path class="cls-3" d="M176.45,6.88v1.6H171.1V6.88Z"/><path class="cls-3" d="M185.87,4.24V9.78c0,1.55.64,2.38,1.84,2.38a3.2,3.2,0,0,0,2.8-2.35V4.24h2v9.45h-2v-1.8a4.1,4.1,0,0,1-3.33,2c-2.19,0-3.36-1.31-3.36-3.76V4.24Z"/><path class="cls-3" d="M202.27,5.67A3.54,3.54,0,0,1,205.36,4c2.58,0,4.37,2,4.37,5s-1.76,4.9-4.42,4.9a3.72,3.72,0,0,1-3-1.62v5h-2v-13h2Zm0,4.64a3,3,0,0,0,2.63,2c1.65,0,2.75-1.33,2.75-3.33s-1.1-3.36-2.75-3.36a3.08,3.08,0,0,0-2.63,1.86Z"/><path class="cls-4" d="M19.54,52.94v4.8H3.5v-4.8Z"/><path class="cls-4" d="M78.68,63.89a42.33,42.33,0,0,1-6.92,4.56,40.68,40.68,0,0,0,10.56,3.79l-3.07,4.13c-9.89-3-17.09-8.16-20.35-14.59a38.33,38.33,0,0,1-5.71,3.84v5.56c5.9-1.05,7.48-1.44,11.13-2.35l.15,3.84A125.67,125.67,0,0,1,43.1,77l-1.48-4.18c3-.34,4.08-.48,6.43-.82V68a72,72,0,0,1-10.37,3l-2.4-3.93A60.23,60.23,0,0,0,52.8,61.44H36.24V57.65H56.4V55.78h5.09v1.87H81.84v3.79H75.41ZM48.38,34.46V31.1H53v3.36h9.32v3.36H53v2.31H63.84v3.4H53V45.6h9.32v6.91c0,2.21-.58,2.69-3.46,2.69a23.75,23.75,0,0,1-3.7-.19l-.57-3.22a22.79,22.79,0,0,0,2.73.19c.68,0,.77-.09.77-.81V48.72H53v7H48.38v-7H43.73v6.72H39.26V45.6h9.12V43.53H36.24v-3.4h4.27l-3.41-2.6a18.64,18.64,0,0,0,4.52-6.19l4.27.91c-.34.82-.63,1.39-1.06,2.21Zm-5.66,3.36a19.06,19.06,0,0,1-2,2.31h7.63V37.82ZM63.51,61.44a23.43,23.43,0,0,0,4.61,4.66,39.92,39.92,0,0,0,6-4.66Zm6.43-28.08V48.81H65.28V33.36Zm9.22-2.26V51.26c0,3.32-1,4.18-4.85,4.18a49.11,49.11,0,0,1-5.52-.34L68,51.31a36.55,36.55,0,0,0,5.14.43c1,0,1.25-.24,1.25-1.29V31.1Z"/><path class="cls-4" d="M104.83,76.18H99.89v-2.4H91.3v2.93h-5V54.09h18.53ZM91.3,69.31h8.59V58.56H91.3Zm30.38-19.82H92.4V32.59h29.28Zm-24-4.37h18.67v-8H97.68Zm30.1,31.59h-5V73.78h-8.88v2.93h-5V54.09h18.82Zm-13.87-7.4h8.88V58.51h-8.88Z"/><path class="cls-4" d="M132.1,52.32c1.05,0,1.39,0,1.92,0s.86-.05,1.82-.1c1.06-1.2,1.54-1.77,3-3.5a52.93,52.93,0,0,0-6.62-7.92l2.83-3.41c.77.77.87.87,1.3,1.35a50.79,50.79,0,0,0,4.51-7.88l4.23,2.26a65.57,65.57,0,0,1-6.1,8.64c1.1,1.39,1.63,2.11,2.64,3.5,1.77-2.2,4.42-5.8,6.48-9l3.7,2.69a114.4,114.4,0,0,1-10.8,13c2.83-.19,4.12-.28,6-.47-.49-1.3-1-2.45-1.49-3.61l3.5-1.39a44.17,44.17,0,0,1,3.79,9.84L149,58.13c-.33-1.39-.52-2.11-.81-3.17-.87.14-1.11.14-2.31.33l-1.1.15V76.71h-4.61V56l-2.21.24c-2.11.19-2.64.24-4.89.38Zm.09,18.82a59.6,59.6,0,0,0,2-12.2l4.27.53a49.47,49.47,0,0,1-1.92,13.68ZM147.7,70A81.1,81.1,0,0,0,146,59.42l3.89-1.05a72.24,72.24,0,0,1,2.21,10.08ZM164.12,38c-.77,8-3.8,13.05-9.65,16.27l-3-3.55c4.8-2.4,7.25-6.29,8-12.72H152.4V33.55h23.72c-.05,7.25-.39,14.06-.82,16.13-.53,2.4-1.87,3.26-5.28,3.26a51.94,51.94,0,0,1-5.38-.33L163.92,48a26,26,0,0,0,4.8.48c1.35,0,1.73-.29,2-1.63a68.89,68.89,0,0,0,.58-8.88Zm11,38.74h-4.85V74H158.79v2.74h-4.85V56.11h21.22Zm-16.37-7h11.52V60.38H158.79Z"/><path class="cls-4" d="M179.71,49.15a34.81,34.81,0,0,0,20.21-18h5.71c4.13,6.82,11.14,12.43,20.84,16.56l-3,4.76c-9.65-4.66-16.42-10.09-20.59-16.66-3.65,7.44-11,13.87-20.07,17.66Zm17.72.53v5.66c0,6.2-.34,8.84-1.44,11.72a19.21,19.21,0,0,1-8.41,9.74L183.84,73c6.38-3.6,8.59-8.31,8.5-18.05V49.68ZM214.85,49v27.7h-5.47V49Z"/></g></g></svg>