<svg xmlns="http://www.w3.org/2000/svg" viewBox="0 0 580 337"><defs><style>.cls-1{fill:#fff;}.cls-2{fill:#d7d7d7;}.cls-3{fill:#182b7b;}.cls-4{fill:none;stroke:#fff;stroke-miterlimit:10;stroke-width:2.4px;}.cls-5{fill:#bdbdbd;}.cls-6{fill:#b90f52;}.cls-7{fill:#8a8a8a;}</style></defs><title>Asset 3</title><g id="Layer_2" data-name="Layer 2"><g id="デザイン"><rect class="cls-1" x="1.82" y="1.82" width="576.36" height="333.36"/><path class="cls-2" d="M576.36,3.64V333.36H3.64V3.64H576.36M580,0H0V337H580V0Z"/><rect class="cls-3" x="28.75" y="34.2" width="120" height="31.2"/><line class="cls-4" x1="140.35" y1="49.8" x2="153.55" y2="49.8"/></g><g id="テキスト"><path d="M25.09,141.86c2.16-3.34,4.1-10,5.07-17.45l4,.9c-1.26,9-3.13,15.26-5.72,19.29Zm19.58-24.15V147c0,3.24-.94,4.11-4.5,4.11-1.62,0-3.53-.08-5.36-.26l-.9-4.1a43.13,43.13,0,0,0,5.36.43c1.12,0,1.3-.14,1.3-1.08v-28.4Zm11.09,26.42A124.86,124.86,0,0,0,49.6,125l3.71-1.58A92.23,92.23,0,0,1,59.72,142Z"/><path d="M67.86,135.13a44.55,44.55,0,0,1-4.58,9.58l-2.16-3.78a39,39,0,0,0,6.3-12.53H61.77v-3.49h6.09v-7.56H71.6v7.56h4.75v3.49H71.6v2.34l.21.15a34.34,34.34,0,0,1,5.62,5l-2.05,3.31a47.64,47.64,0,0,0-3.78-4.35v16.7H67.86Zm20.22-6.73a32.86,32.86,0,0,0,8.28,13.21L94.24,146a39.1,39.1,0,0,1-6.7-12.1v17.68h-3.7V134.27a31.65,31.65,0,0,1-6.73,12.35L74.77,143c3.74-3.49,6.4-8.06,8.53-14.58H77.75v-3.49h6.09v-7.56h3.7v7.56h7.85v3.49Z"/><path d="M133.66,124.62h5.22v2.67h-5.22v1.9h5.69v14h-5.76v3.42c0,.69.14.9.65,1a26.56,26.56,0,0,0,3.42.21c2.05,0,3-.21,3.27-.79a17.62,17.62,0,0,0,.4-3.56l3.67,1.22c-.22,2.95-.58,4.5-1.19,5.18-.76.79-2.7,1.12-7,1.12-4,0-5.43-.14-6.19-.72a2.17,2.17,0,0,1-.86-2v-5.11h-4.47c-1.22,5.47-4.57,7.56-13.31,8.35l-1.7-3.31c7.49-.5,10.19-1.76,11-5h-5.65v-14h5.72v-1.9h-5.18v-2.67h5.18v-2h-6.08v4h-3.71V120h14v-2.63h3.85V120h14.18v6.66h-3.74v-4h-6.12Zm-14.33,8.57h16.31v-1.76H119.33Zm0,3.81h16.31v-1.72H119.33Zm0,3.89h16.31v-1.73H119.33Zm5.4-18.28v2h5.47v-2Zm5.47,6.58v-1.9h-5.47v1.9Z"/><path d="M155.87,151.55H152V136.72a45.42,45.42,0,0,1-3.86,3.31l-2-3.38a43.83,43.83,0,0,0,11.09-11.78l3,2a46.91,46.91,0,0,1-4.32,5.8Zm-9.54-25.74a28.85,28.85,0,0,0,9.4-8.31l3.1,2a38.46,38.46,0,0,1-10.41,9.39ZM174.63,148c0,2.38-1.08,3.24-3.93,3.24-1.94,0-4.42-.07-6.26-.22l-.68-3.78c1.72.15,4.17.29,5.54.29,1,0,1.33-.29,1.33-1.22V132.47H159.69v-3.6h21.09v3.6h-6.15Zm3.74-28.73v3.53H162.06v-3.53Z"/><path class="cls-5" d="M209.48,127.64v5.56h6.69v-5.56h2.15v13.61h-2.15V135.1h-6.69v6.15h-2.15V127.64Z"/><path class="cls-5" d="M224,127.24v2.15h-2.34v-2.15Zm-.12,4.1v9.91h-2.12v-9.91Z"/><path class="cls-5" d="M229.17,134.09c.6-2,1.65-3,3.29-3a3,3,0,0,1,1.36.28l-.57,1.92a2.77,2.77,0,0,0-1-.17c-1.53,0-2.66,1.26-3,3.33v4.8h-2.1v-9.91h2l-.07,2.75Z"/><path class="cls-5" d="M244.71,136.28a5.08,5.08,0,1,1-5.07-5.23A4.93,4.93,0,0,1,244.71,136.28Zm-8,0c0,2.1,1.19,3.55,2.94,3.55s2.92-1.45,2.92-3.55-1.23-3.53-2.92-3.53S236.7,134.23,236.7,136.26Z"/><path class="cls-5" d="M248.22,131.34l2.07,6.18.15.44c.08.25.17.52.27.77l.22.66h0v0c.34-.86.39-1,.66-1.77l2.1-6.23h2.33l-4.4,11.14c-.74,1.85-1.83,2.55-4,2.55H247l-.57-1.64h1c1.29,0,1.86-.29,2.16-1.08l.36-.91-4.08-10.06Z"/><path class="cls-5" d="M259.9,131.34v5.81c0,1.63.67,2.51,1.93,2.51a3.38,3.38,0,0,0,2.94-2.47v-5.85h2.13v9.91h-2.11v-1.88a4.32,4.32,0,0,1-3.5,2.07c-2.3,0-3.53-1.38-3.53-3.95v-6.15Z"/><path class="cls-5" d="M272.13,126.89v8.48l4.08-4h2.67l-3.95,3.88,4.29,6h-2.66l-3.14-4.85-1.29,1.22v3.63H270V126.89Z"/><path class="cls-5" d="M283.52,127.24v2.15h-2.34v-2.15Zm-.12,4.1v9.91h-2.12v-9.91Z"/><path class="cls-5" d="M295.11,127.64v6.3l5.64-6.3h2.79L298,133.47l6,7.78h-2.75l-4.67-6.47-1.48,1.47v5h-2.17V127.64Z"/><path class="cls-5" d="M315.3,136.28a5.08,5.08,0,1,1-5.07-5.23A4.93,4.93,0,0,1,315.3,136.28Zm-8,0c0,2.1,1.19,3.55,2.94,3.55s2.92-1.45,2.92-3.55-1.22-3.53-2.92-3.53S307.29,134.23,307.29,136.26Z"/><path class="cls-5" d="M319.71,126.89V133A3.76,3.76,0,0,1,323,131.1c2.69,0,4.61,2.15,4.61,5.2s-1.85,5.2-4.64,5.2a4.09,4.09,0,0,1-3.33-1.61l-.2,1.41h-1.76V126.89Zm0,11.1a3.19,3.19,0,0,0,2.77,1.82c1.74,0,2.89-1.38,2.89-3.5s-1.2-3.54-2.89-3.54c-1.13,0-2.1.77-2.77,2.2Z"/><path class="cls-5" d="M336.1,134.67c0-1.26-.8-1.94-2.33-1.94a5.17,5.17,0,0,0-3.25,1.05l-.89-1.37a7.45,7.45,0,0,1,4.22-1.34c2.79,0,4.22,1.33,4.22,3.9v3.31a6.81,6.81,0,0,0,.57,3h-1.87a6.77,6.77,0,0,1-.47-1.66h-.06a4.36,4.36,0,0,1-1.41,1.39,4.1,4.1,0,0,1-2.22.54,3.16,3.16,0,0,1-3.41-3.12c0-2.21,1.91-3.38,5.52-3.38h1.38Zm-.87,1.73c-2.67,0-3.88.58-3.88,1.89,0,1,.74,1.57,1.85,1.57a2.83,2.83,0,0,0,2.88-2.64v-.82Z"/><path class="cls-5" d="M342.39,131.34l2.06,6.18.15.44c.09.25.17.52.27.77l.22.66h.05l0,0c.33-.86.38-1,.65-1.77l2.1-6.23h2.34l-4.4,11.14c-.74,1.85-1.84,2.55-4,2.55h-.72l-.58-1.64h1c1.3,0,1.87-.29,2.17-1.08l.35-.91L340,131.34Z"/><path class="cls-5" d="M358.16,134.67c0-1.26-.81-1.94-2.33-1.94a5.17,5.17,0,0,0-3.25,1.05l-.89-1.37a7.42,7.42,0,0,1,4.22-1.34c2.79,0,4.22,1.33,4.22,3.9v3.31a6.66,6.66,0,0,0,.57,3h-1.87a6.77,6.77,0,0,1-.47-1.66h-.07a4.17,4.17,0,0,1-1.41,1.39,4,4,0,0,1-2.21.54,3.16,3.16,0,0,1-3.41-3.12c0-2.21,1.91-3.38,5.52-3.38h1.38Zm-.87,1.73c-2.67,0-3.88.58-3.88,1.89a1.62,1.62,0,0,0,1.84,1.57,2.84,2.84,0,0,0,2.89-2.64v-.82Z"/><path class="cls-5" d="M363.35,138.73a5.64,5.64,0,0,0,3.4,1.11c1.27,0,1.94-.42,1.94-1.23s-.55-1.12-2-1.54l-.88-.25c-2.07-.59-2.89-1.43-2.89-2.91,0-1.7,1.51-2.86,3.73-2.86a6.22,6.22,0,0,1,3.92,1.18l-.95,1.39a4.88,4.88,0,0,0-2.93-.92c-1,0-1.65.47-1.65,1.19a.94.94,0,0,0,.52.81,5.18,5.18,0,0,0,1.13.44l.25.08,1,.32c2.12.69,3,1.54,3,3,0,1.92-1.52,3-4.1,3a6.62,6.62,0,0,1-4.37-1.39Z"/><path class="cls-5" d="M375.41,126.89v6.31a4.15,4.15,0,0,1,3.51-2c2.21,0,3.47,1.43,3.47,3.92v6.18h-2.07v-5.84c0-1.67-.67-2.49-2-2.49a3.5,3.5,0,0,0-2.89,2.43v5.9h-2.06V126.89Z"/><path class="cls-5" d="M388,127.24v2.15H385.7v-2.15Zm-.12,4.1v9.91H385.8v-9.91Z"/><path class="cls-1" d="M29.84,47.5a4.72,4.72,0,0,1,4-2.34c2.51,0,3.95,1.63,3.95,4.47V56.7H35.44V50c0-1.9-.77-2.84-2.3-2.84A4,4,0,0,0,29.84,50V56.7H27.47V45.37h2.37Z"/><path class="cls-1" d="M49.52,45.37V52c0,1.86.76,2.86,2.2,2.86a3.85,3.85,0,0,0,3.36-2.82V45.37h2.44V56.7H55.1V54.55a4.94,4.94,0,0,1-4,2.36c-2.63,0-4-1.58-4-4.51v-7Z"/><path class="cls-1" d="M68.77,47.42a3.49,3.49,0,0,1,3.09-2.26,3.1,3.1,0,0,1,3.23,2.5,3.76,3.76,0,0,1,3.26-2.5,3.34,3.34,0,0,1,2.75,1.3,5.06,5.06,0,0,1,.8,3.17V56.7H79.64V49.9c0-1.71-.69-2.72-1.88-2.72-1,0-2.06,1.15-2.4,2.64V56.7H73.09V49.81c0-1.68-.69-2.63-1.88-2.63s-2,1.13-2.42,2.82v6.7H66.53V45.37h2.24Z"/><path class="cls-1" d="M93.48,40.28v7a4.34,4.34,0,0,1,3.73-2.15c3.07,0,5.26,2.46,5.26,5.93S100.36,57,97.17,57a4.66,4.66,0,0,1-3.8-1.84l-.23,1.61h-2V40.28Zm0,12.69a3.66,3.66,0,0,0,3.17,2.08c2,0,3.3-1.58,3.3-4s-1.36-4-3.3-4c-1.29,0-2.4.89-3.17,2.52Z"/><path class="cls-1" d="M112.61,51.44a3.4,3.4,0,0,0,3.6,3.61,4.51,4.51,0,0,0,3.61-1.71l1.33,1.53A6.56,6.56,0,0,1,116,57a5.54,5.54,0,0,1-5.91-5.91c0-3.59,2.34-6.09,5.68-6.09,3.13,0,5.34,2.37,5.34,5.71v.69Zm6-1.71a2.82,2.82,0,0,0-2.93-2.86,3.16,3.16,0,0,0-3.06,2.86Z"/><path class="cls-1" d="M132.17,48.52c.69-2.34,1.88-3.44,3.76-3.44a3.38,3.38,0,0,1,1.56.33l-.66,2.19a3.09,3.09,0,0,0-1.17-.19c-1.74,0-3,1.44-3.41,3.8V56.7h-2.4V45.37h2.32l-.08,3.15Z"/><path class="cls-6" d="M173.68,48.92c0,5-2.3,8.1-6.05,8.1s-6-3.09-6-8.1,2.3-8.1,6-8.1S173.68,43.91,173.68,48.92Zm-9.48,0c0,3.71,1.32,6,3.43,6s3.44-2.28,3.44-6-1.31-6-3.44-6S164.2,45.2,164.2,48.92Z"/><path class="cls-6" d="M187.54,43.51a26.61,26.61,0,0,1-3.7,1.05l-.52-2a19.22,19.22,0,0,0,4.88-1.71h1.86V56.7h-2.52Z"/><path class="cls-7" d="M38.41,99.42H27.76V97.19a36.74,36.74,0,0,0,5.44-4.74,5,5,0,0,0,1.39-3,2,2,0,0,0-.67-1.6,2.76,2.76,0,0,0-1.84-.57,6.78,6.78,0,0,0-3.72,1.27h-.23V85.9A12.26,12.26,0,0,1,32.56,85a6,6,0,0,1,3.86,1.09,3.72,3.72,0,0,1,1.35,3.06,5.9,5.9,0,0,1-1.1,3.21,23.81,23.81,0,0,1-5.12,4.77h6.86Z"/><path class="cls-7" d="M45.84,99.72A5,5,0,0,1,41.61,98q-1.34-1.75-1.34-5.61c0-2.55.45-4.42,1.35-5.59A5,5,0,0,1,45.84,85a5,5,0,0,1,4.22,1.75q1.35,1.77,1.35,5.59T50.07,98A5,5,0,0,1,45.84,99.72Zm0-12.53A1.93,1.93,0,0,0,44,88.42a10.09,10.09,0,0,0-.57,4A9.76,9.76,0,0,0,44,96.3a2,2,0,0,0,3.73,0,9.85,9.85,0,0,0,.58-3.93,10,10,0,0,0-.56-3.93A1.94,1.94,0,0,0,45.84,87.19Z"/><path class="cls-7" d="M63.71,99.42h-9V97.35h3V89.18h-3v-1.9a5,5,0,0,0,2.54-.5,2,2,0,0,0,.87-1.52h2.61V97.35h3Z"/><path class="cls-7" d="M66.74,98.87V96.19H67a7.74,7.74,0,0,0,3.88,1.2c2.1,0,3.15-.85,3.15-2.54a1.87,1.87,0,0,0-.88-1.66,4.63,4.63,0,0,0-2.57-.58,13.75,13.75,0,0,0-3,.42H67.3V85.29h9.6v2.29H70.2v2.9q1.08-.06,1.59-.06a6.22,6.22,0,0,1,4,1.14,3.9,3.9,0,0,1,1.39,3.18,4.49,4.49,0,0,1-1.6,3.6,6.37,6.37,0,0,1-4.32,1.38A11.86,11.86,0,0,1,66.74,98.87Z"/><path class="cls-7" d="M101.57,96.5H95.05v4H92.36v-4H84V94.26h2.42V90.83c-.37.38-.76.75-1.17,1.1l-1.8-1.63a16.12,16.12,0,0,0,2.87-3.38A14.75,14.75,0,0,0,88.2,83l2.68.4a15.82,15.82,0,0,1-.59,1.7h10.84v2.17H95.05v2.19h5.37v2.17H95.05v2.63h6.52ZM89.19,87.27a21.38,21.38,0,0,1-1.53,2.19h4.7V87.27Zm-.1,7h3.27V91.63H89.09Z"/><path class="cls-7" d="M112.24,92.87a13.56,13.56,0,0,1-3.08,4.32,18.36,18.36,0,0,1-5,3.23l-1.29-2.09a13.14,13.14,0,0,0,5.4-4,11.93,11.93,0,0,0,2.45-6.06v-2l-4.65,0V84.08h7.4c0,.15,0,.32,0,.5v1.71a15.89,15.89,0,0,0,.34,3.31,10.82,10.82,0,0,0,1.27,3.08,12.87,12.87,0,0,0,2.36,2.94,20.11,20.11,0,0,0,3.49,2.57l-1.84,2.19a23.15,23.15,0,0,1-4.44-3.82A15.73,15.73,0,0,1,112.24,92.87Z"/><path class="cls-7" d="M127.22,100.48h-2.36V94.09a16.24,16.24,0,0,1-2.11,1.53l-1-1.77a14.07,14.07,0,0,0,3.06-2.66,11.69,11.69,0,0,0,2-3.17h-4.26V85.94h2.36V83.56h2.38v2.38h2.21l.5.52a15.2,15.2,0,0,1-2.51,4.87,31.76,31.76,0,0,0,3,2.33l-1.19,2c-.76-.59-1.44-1.17-2.06-1.74Zm13.14-.56H128.74V97.63h4.6V90.51h-3.68v-2.2h3.68V83.64H136v4.67h3.84v2.2H136v7.12h4.34Z"/><path d="M39.33,234.13a28.72,28.72,0,0,0,1.05-3.65l3.37.54a28.77,28.77,0,0,1-1.24,3.11H52.2v22h-3v-1.86h-14v1.86H32.31v-22ZM35.25,240h14v-3.4h-14Zm0,5.72h14v-3.37h-14Zm0,6h14v-3.7h-14Z"/><path d="M69,243.17c-.7,6.93-3.29,10.52-9.34,13l-1.86-2.45a11,11,0,0,0,6.75-5.16A16.29,16.29,0,0,0,66,243.17H61.36v-1.89a23,23,0,0,1-3.24,2.81l-1.89-2.27a21.53,21.53,0,0,0,8.21-11.12l2.81,1A25.83,25.83,0,0,1,62,240.55H77a30.29,30.29,0,0,1-6.55-9l2.67-1.08a23.77,23.77,0,0,0,9.12,10.29l-1.75,2.59a25.23,25.23,0,0,1-2.84-2.22l-.24-.21,0,.62c-.16,6.26-.54,11.15-1,12.41s-1.51,1.87-4,1.87c-1.14,0-2.27-.06-4-.16L68,252.89a32.05,32.05,0,0,0,3.91.29c1.24,0,1.57-.21,1.78-1.19a56.56,56.56,0,0,0,.73-8.82Z"/><path d="M97.57,252.13c5.21-1.32,7.74-4.21,7.74-8.88a8.08,8.08,0,0,0-3.94-7.34,8.56,8.56,0,0,0-2.91-1c-.81,6.26-1.89,10.26-3.86,14.12a12,12,0,0,1-2,3.05,4.3,4.3,0,0,1-3,1.45c-3.1,0-5.62-3.88-5.62-8.63A12.82,12.82,0,0,1,90,234a12.65,12.65,0,0,1,6.8-1.83c6.88,0,11.61,4.43,11.61,10.9,0,6.13-3.11,10-9.29,11.66Zm-2-17.33a8.35,8.35,0,0,0-5.4,2.48A10.33,10.33,0,0,0,87,244.79c0,2.91,1.21,5.59,2.56,5.59.68,0,1.3-.63,2.13-2.11a35.82,35.82,0,0,0,3.89-13Z"/><path d="M117.49,256.12h-2.91V245a33.71,33.71,0,0,1-2.89,2.49L110.15,245a32.86,32.86,0,0,0,8.32-8.83l2.26,1.49a35.21,35.21,0,0,1-3.24,4.34Zm-7.15-19.3a21.54,21.54,0,0,0,7-6.23l2.32,1.54a28.92,28.92,0,0,1-7.8,7Zm21.22,16.66c0,1.78-.81,2.43-2.94,2.43-1.46,0-3.33-.06-4.7-.16l-.51-2.84c1.29.11,3.13.22,4.15.22.78,0,1-.22,1-.92V241.82h-8.2v-2.7h15.81v2.7h-4.61Zm2.8-21.54v2.64H122.14v-2.64Z"/><path d="M155.13,230.48h2.64l-.1,5.59h5c-.08,8.88-.46,15.3-1,17.57-.43,1.65-1.24,2.19-3.26,2.19a19.29,19.29,0,0,1-2.81-.19l-.51-2.78a13.42,13.42,0,0,0,2.67.3c1,0,1.24-.25,1.46-1.35a90.37,90.37,0,0,0,.83-12.37l0-.78H157.5c-.29,8.29-2.1,13.71-5.91,17.49l-2.16-1.67a13,13,0,0,0,1.06-1.08c-4.05.75-8.7,1.4-12.64,1.78l-.59-2.48c2.24-.14,3.89-.27,4.59-.33l1.65-.16v-1.83h-5.67V248.3h5.67v-1.52h-5.05v-8.66h5.05v-1.46h-6.08v-2h6.08v-1.16c-1.14.11-3,.24-4.54.32l-.94-2a65.75,65.75,0,0,0,11.28-1.38l1.51,1.92a43.47,43.47,0,0,1-4.72.86v1.46H152v1.46h3Zm-14.42,9.42v1.68h2.87V239.9Zm0,3.29V245h2.87v-1.81Zm5.3-1.61H149V239.9H146Zm0,3.42H149v-1.81H146Zm5.93-6.34v-2h-5.85v1.46h5.12v8.66h-5.12v1.52h5.45v2.08h-5.45v1.56c2.13-.19,3.29-.35,5.4-.67l.51-.09c1.7-3.1,2.64-7.2,2.89-12.52Z"/><path d="M169.85,232.45c.83,1.73,1.37,2.86,2.4,5.24.89-.33,1.62-.57,3.35-1.14.37-.1.89-.29,1.35-.43l.32-.11a34,34,0,0,0-2-4l2.43-.92a31.73,31.73,0,0,1,2.19,4.24,13.78,13.78,0,0,1,2.91-.35,6.8,6.8,0,0,1,4.1,1.26,6.48,6.48,0,0,1,2.19,4.89c0,2.73-1,4.62-3.13,5.8-1.38.76-2.86,1.14-5.8,1.46L179.11,246a12.14,12.14,0,0,0,5.39-1.38,3.8,3.8,0,0,0,1.6-3.51c0-2.19-1.24-3.51-3.3-3.51a11.52,11.52,0,0,0-1.89.22c.44,1.13.81,2.24,1.22,3.59l-2.54,1.21c-.51-1.78-.84-2.83-1.32-4.13-1.27.35-3.43,1.05-5,1.65,2.26,5.53,3.77,9.71,5.21,14.36l-2.73.92c-1.32-4.4-3.29-9.86-5.16-14.31l-.48.19c-2.19.84-3.4,1.32-4.29,1.67l-1-2.62.38-.13c2.54-.95,3.27-1.22,4.35-1.59-1-2.33-1.54-3.49-2.41-5.27Z"/><path d="M214,233.18l1.7,1.43a13.17,13.17,0,0,1-8.58,9.83l-1.67-2.27c3.1-.84,6-3.56,6.77-6.29H193.39v-2.7Zm-9.18,5.7v2.26c0,7.51-1.64,10.83-6.72,13.63L196,252.48A9.06,9.06,0,0,0,200.9,248c.64-1.27.94-3.43.94-6.83v-2.24Z"/><path d="M230.7,241.44a41.55,41.55,0,0,1-9.15,4.54L220,243.3a39.53,39.53,0,0,0,17.95-12l2.54,1.6a47.81,47.81,0,0,1-6.67,6.31V255H230.7Z"/><path d="M269.69,240.12v2.7h-9.77c-.3,6.91-2.49,10.28-8.15,12.49L249.88,253c5.07-2,6.8-4.54,7-10.15H246.07v-2.7Zm-5.91-7.51v2.7H249v-2.7Zm2.4,3.13a23.5,23.5,0,0,0-1.92-4.72l2.08-.46a20.65,20.65,0,0,1,1.92,4.65Zm3.4-.72a17.92,17.92,0,0,0-1.92-4.75l2-.41a18.09,18.09,0,0,1,2,4.56Z"/><path d="M284.68,244.14a37.72,37.72,0,0,1-7.45,3.67l-1.46-2.46a32.33,32.33,0,0,0,14.9-10l2.29,1.43a38.18,38.18,0,0,1-5.5,5.27v13h-2.78Z"/><path d="M322,233.18l1.7,1.43a13.17,13.17,0,0,1-8.58,9.83l-1.67-2.27c3.1-.84,6-3.56,6.77-6.29H301.39v-2.7Zm-9.18,5.7v2.26c0,7.51-1.64,10.83-6.72,13.63L304,252.48A9.06,9.06,0,0,0,308.9,248c.64-1.27.94-3.43.94-6.83v-2.24Z"/><path d="M331.85,232.45c.83,1.73,1.37,2.86,2.4,5.24.89-.33,1.62-.57,3.35-1.14.37-.1.89-.29,1.35-.43l.32-.11a34,34,0,0,0-2-4l2.43-.92a31.73,31.73,0,0,1,2.19,4.24,13.78,13.78,0,0,1,2.91-.35,6.8,6.8,0,0,1,4.1,1.26,6.48,6.48,0,0,1,2.19,4.89c0,2.73-1,4.62-3.13,5.8-1.38.76-2.86,1.14-5.8,1.46L341.11,246a12.14,12.14,0,0,0,5.39-1.38,3.8,3.8,0,0,0,1.6-3.51c0-2.19-1.24-3.51-3.3-3.51a11.52,11.52,0,0,0-1.89.22c.44,1.13.81,2.24,1.22,3.59l-2.54,1.21c-.51-1.78-.84-2.83-1.32-4.13-1.27.35-3.43,1.05-5,1.65,2.26,5.53,3.77,9.71,5.21,14.36l-2.73.92c-1.32-4.4-3.29-9.86-5.16-14.31l-.48.19c-2.19.84-3.4,1.32-4.29,1.67l-1-2.62.38-.13c2.54-.95,3.27-1.22,4.35-1.59-1-2.33-1.54-3.49-2.41-5.27Z"/><path d="M362.33,249.83c1.32-.62,1.78-.86,2.64-1.34l.28,2.34a42.5,42.5,0,0,1-5.84,3l-1-2.43,1.48-.57v-9.72H358v2.3c.05,6.29-.76,9.28-3.24,12.06l-1.89-2c2-2.19,2.62-4.56,2.62-9.56v-2.78h-2.05v-2.59h11.26v2.59h-2.38Zm1-18.16v2.64h-9v-2.64Zm-.08,22.89a17.25,17.25,0,0,0,4.91-3.81l2.21,1.33a20.91,20.91,0,0,1-5.23,4.37Zm14.3-18.28v14.34h-12V236.28h3.75a22.47,22.47,0,0,0,.62-2.34h-5.77v-2.38H379v2.38h-6.34c-.22.73-.54,1.7-.81,2.34Zm-9.47,2.08v2.08h6.83v-2.08Zm0,6h6.83v-2h-6.83Zm0,4.13h6.83v-2.18h-6.83Zm9,7.67a24.6,24.6,0,0,0-4.67-4l1.86-1.51a34.21,34.21,0,0,1,4.94,3.59Z"/><path d="M389.63,243.3C389.38,255,389.06,256,385.5,256a15.84,15.84,0,0,1-3.08-.27L382,253a13.15,13.15,0,0,0,3,.46c.76,0,1.05-.24,1.27-1a41.86,41.86,0,0,0,.65-6.67h-3.54c-.08.51-.13.86-.3,1.78l-2.56-.38a91,91,0,0,0,.94-9.85h5.16V234h-5.88v-2.54h8.42v8.32h-5.24c0,.51,0,.54-.05,1.08s-.06.67-.14,1.59l-.08.86Zm16,3.19a22.85,22.85,0,0,1-3.73,3.59,12.11,12.11,0,0,0,4.54,3.26l-1.6,2.57a14.46,14.46,0,0,1-8-11h-2v7.55l.68-.19c1.1-.32,2-.59,3.37-1.1l.35,2.24a47.51,47.51,0,0,1-8.45,2.75l-.73-2.62c.9-.16,1.38-.24,2.06-.4V244.9H390v-2.33h2.14V231.43h12.44v2.29h-9.72v1.51h8.86v2.11h-8.86v1.48h8.86v2.11h-8.86v1.64h11.23v2.33h-2.51Zm-6.21-1.59a10.86,10.86,0,0,0,1.16,3.29,31.57,31.57,0,0,0,2.86-3.29Z"/><path d="M419,242.57c-1.59,3-3.4,4.75-4.86,4.75-1.84,0-2.86-2.67-2.86-7.34a49.91,49.91,0,0,1,.89-8.31l2.89.43a41,41,0,0,0-.87,7.53c0,2.73.22,4.16.6,4.16s1.56-1.51,2.53-3.43Zm-2,10.32c6.13-1.71,8.61-5.08,8.61-11.72a67.39,67.39,0,0,0-.81-9.5l3-.3a66.66,66.66,0,0,1,.87,9.94c0,7.8-2.73,11.6-10.12,14.06Z"/><path d="M435.29,233.69c7-.08,16.43-.35,22.91-.62l.16,2.62a19,19,0,0,0-7.39,1.46,9.28,9.28,0,0,0-5.8,8.39,4.7,4.7,0,0,0,2,4.29c1.56,1.11,3.72,1.81,7,2.22l-.62,3c-4.19-.57-6.88-1.57-8.61-3.16a8,8,0,0,1-2.67-6.24,10.18,10.18,0,0,1,2.43-6.29,11.28,11.28,0,0,1,4.83-3.45c-2.95.08-8.75.35-14,.62Zm19.16,11.37a21.67,21.67,0,0,0-2.62-4.7l2.05-.76a23.18,23.18,0,0,1,2.65,4.65Zm3.56-1.38A20.2,20.2,0,0,0,455.4,239l2-.7a16.81,16.81,0,0,1,2.61,4.53Z"/><path d="M465.2,231.72h2.94v5h4.27v-6.24h3v6.24H480V231h2.92v5.73h4.13v2.61h-4.13v8.4H472.41v-8.4h-4.27V251.7H485.9v2.62H468.14v1.8H465.2V239.33h-3.78v-2.61h3.78Zm10.18,7.61v5.86H480v-5.86Z"/><path d="M506.67,243a27.11,27.11,0,0,0,7.83,3.13L513,248.7a29.37,29.37,0,0,1-5.78-2.56v10h-3.05V245.33h1.76a18.34,18.34,0,0,1-3.16-2.62h-3a15.8,15.8,0,0,1-3,2.86h1.68V247c0,5.21-1.62,7.77-6,9.47l-1.86-2.21c3.62-1.35,4.89-3.16,4.89-6.86v-.89a25.87,25.87,0,0,1-5.73,2.59l-1.56-2.27a19.38,19.38,0,0,0,8.37-4.07h-5V231.43H511v11.28h-4.81Zm-12.34-7h5.51v-2.37h-5.51Zm0,4.46h5.51v-2.38h-5.51Zm13.85-6.83h-5.72V236h5.72Zm0,4.45h-5.72v2.38h5.72Z"/><path d="M540.93,241.06v3.08H515.58v-3.08Z"/><path d="M43.57,289.13c5.21-1.32,7.74-4.21,7.74-8.88a8.08,8.08,0,0,0-3.94-7.34,8.56,8.56,0,0,0-2.91-1c-.81,6.26-1.89,10.26-3.86,14.12a12,12,0,0,1-2,3.05,4.3,4.3,0,0,1-3.05,1.45c-3.1,0-5.62-3.88-5.62-8.63A12.82,12.82,0,0,1,36,271a12.65,12.65,0,0,1,6.8-1.83c6.88,0,11.61,4.43,11.61,10.9,0,6.13-3.11,10-9.29,11.66Zm-2-17.33a8.35,8.35,0,0,0-5.4,2.48A10.33,10.33,0,0,0,33,281.79c0,2.91,1.21,5.59,2.56,5.59.68,0,1.3-.63,2.13-2.11a35.82,35.82,0,0,0,3.89-13Z"/><path d="M76.07,277.71H62.79v-1.59a26.08,26.08,0,0,1-5,2.67l-1.7-2.4a21.68,21.68,0,0,0,11.31-8.91h3.24c2.8,3.51,6.1,5.72,11.63,7.8l-1.4,2.62a44.46,44.46,0,0,1-4.81-2.35Zm-8,5.81a52.27,52.27,0,0,1-3.72,5.85l.51,0c2-.11,7.15-.52,9.91-.81a39.61,39.61,0,0,0-3-3.05l2.49-1.44a53.39,53.39,0,0,1,6.83,7.18l-2.65,1.87c-.89-1.22-1.32-1.76-1.92-2.51-4.72.75-11.58,1.48-17.7,1.89l-.95-2.84c1,0,1.14,0,1.76-.05l1.45-.08a44.93,44.93,0,0,0,3.41-6H56.88v-2.6H81.63v2.6Zm7.45-8.29a28,28,0,0,1-6.42-5.32A22.4,22.4,0,0,1,64,275.23Z"/><path d="M95.16,273.07a31.41,31.41,0,0,1-3.94,6.05,32.23,32.23,0,0,1,4.65,3.45l-1.62,2.59A44.77,44.77,0,0,0,91,282v11.12H88.17V282.46l-.21.22a29.45,29.45,0,0,1-3.16,2.64l-1.7-2.4a28.39,28.39,0,0,0,8.2-8.47H84V271.8h4.1v-4.32H90.9v4.32h2.94Zm5-5.59h2.92V275h5.59v2.64H103.1v11.83h6v2.7H93.6v-2.7h6.58V277.68H94.71V275h5.47Z"/><path d="M119.82,271.18c.86-1.38,1.32-2.16,1.78-3l2.94.43c-.41.7-.43.75-1.4,2.32l-.17.27h9.29v2.59h-11a47.71,47.71,0,0,1-3.29,4.13,8.69,8.69,0,0,1,4.53-1.48,4,4,0,0,1,4.18,3.18c2-.65,5.16-1.67,6.89-2.21l1.13,2.56-.46.14-1.32.35c-2.46.67-4.37,1.21-5.88,1.7.1,1.29.18,2.45.21,4.42l-2.89.17c0-1.41,0-1.92,0-3.4v-.27c-4,1.37-6.07,2.78-6.07,4.18s1.78,1.84,6.88,1.84a72.66,72.66,0,0,0,7.56-.41l.32,2.81c-2.81.21-4.88.29-7.8.29-3.62,0-5.75-.21-7.26-.75a3.52,3.52,0,0,1-2.62-3.43c0-2.08,1.3-3.67,4.27-5.21a32.64,32.64,0,0,1,4.37-1.86c-.35-1.35-.89-1.86-2-1.86-2,0-5.24,1.75-8.5,4.61l-1.76-2a39.41,39.41,0,0,0,6.43-7.5h-5.37v-2.59Z"/><path d="M149.73,272.5v1.89h-6.91v-1a23.69,23.69,0,0,1-4.16,2.86l-1.56-2.13a18.89,18.89,0,0,0,7.31-6.64h3.19a45.75,45.75,0,0,1,6.37,5.37l-1.84,2a49.29,49.29,0,0,0-5.64-5.58,20.46,20.46,0,0,1-2.7,3.18Zm-7.29,11.64c-.05.51-.11.86-.19,1.35h10.37v7.39H150V292h-5.86v1.1h-2.59V288a11.93,11.93,0,0,1-2.4,4l-2-2.14a10.28,10.28,0,0,0,2.8-7.28v-6.7h12.42v8.32Zm7.32-5v-1.49h-7.21v1.49Zm0,3.15v-1.56h-7.21v1.56Zm-5.62,7.7H150v-2.51h-5.86Zm13.12-20.41V286.4h-2.62V269.56Zm4.83-1.4v22.16c0,1.83-.73,2.45-2.88,2.45a23.44,23.44,0,0,1-3.22-.19l-.48-2.72a23.49,23.49,0,0,0,3.07.24c.71,0,.81-.11.81-.86V268.16Z"/><path d="M176,279.57c-1.59,3-3.4,4.75-4.86,4.75-1.84,0-2.86-2.67-2.86-7.34a49.91,49.91,0,0,1,.89-8.31l2.89.43a41,41,0,0,0-.87,7.53c0,2.73.22,4.16.6,4.16s1.56-1.51,2.53-3.43Zm-2,10.32c6.13-1.71,8.61-5.08,8.61-11.72a67.39,67.39,0,0,0-.81-9.5l3-.3a66.66,66.66,0,0,1,.87,9.94c0,7.8-2.73,11.6-10.12,14.06Z"/><path d="M200.46,271.23c.17-1.37.36-2.75.44-3.26l2.91.29,0,.22-.1.67-.11.9-.14.89,0,.29h10.9v2.59h-11.2l0,.25c0,.11,0,.4-.05.73l-.08.94-.08.84,0,.27a18.64,18.64,0,0,1,3.24-.27c5.91,0,9.66,2.91,9.66,7.5,0,4.4-2.91,7-9.18,8.1l-1.26-2.32c5.07-.84,7.47-2.73,7.47-5.91a4.6,4.6,0,0,0-2.43-4.24,27.69,27.69,0,0,1-7.66,8.66c-2.54,1.87-4.19,2.57-6.1,2.57-2.43,0-3.84-1.59-3.84-4.38,0-3.8,2.81-7.31,7.18-9l0-.35c.14-1.89.19-2.46.27-3.38h-6.34v-2.59Zm-5,15.23c0,1.37.52,2.08,1.52,2.08a5.76,5.76,0,0,0,3.23-1.44,36,36,0,0,1-.4-5.53c0-.21,0-.75,0-1.35C197.14,281.65,195.44,284.08,195.44,286.46Zm7.18-5.54c0,1.38.06,2.76.19,4.08a23.64,23.64,0,0,0,4.89-6.07,16.7,16.7,0,0,0-1.7-.11,13.54,13.54,0,0,0-3.35.4C202.62,280,202.62,280.55,202.62,280.92Z"/><path d="M221,291.67a79.5,79.5,0,0,1-.64-10.85,97.2,97.2,0,0,1,.72-12.29l2.87.27a96.77,96.77,0,0,0-.68,11.91,74.53,74.53,0,0,0,.62,10.55Zm16.09-23.14.57,5.75H243V277h-5.16l.06,2.4,0,.94c0,7-1.67,9.94-6.91,12.2l-1.78-2.26c4.43-2,5.75-4.32,5.75-10.07l0-.95-.06-2.26h-8.66v-2.68h8.55l-.1-5.75Zm2.59,4.57a19.38,19.38,0,0,0-1.89-4.43l1.87-.51a22.5,22.5,0,0,1,2,4.37Zm3.05-1.06a16.58,16.58,0,0,0-2-4.48l1.94-.48a16,16,0,0,1,2.05,4.4Z"/><path d="M246.56,270.69c7-.08,16.43-.35,22.91-.62l.16,2.62a19,19,0,0,0-7.39,1.46,9.29,9.29,0,0,0-5.81,8.39,4.71,4.71,0,0,0,2,4.29c1.56,1.11,3.72,1.81,7,2.22l-.62,3c-4.19-.57-6.88-1.57-8.61-3.16a8,8,0,0,1-2.67-6.24,10.18,10.18,0,0,1,2.43-6.29,11.28,11.28,0,0,1,4.83-3.45c-3,.08-8.75.35-14,.62Z"/><path d="M285.35,284.7a21.72,21.72,0,0,1-2.62,5.46,3.61,3.61,0,0,1-2.83,1.72c-1.4,0-2.7-1.05-3.7-3.05a18.51,18.51,0,0,1-1.65-5.15,68,68,0,0,1-.54-8.34c0-1.16.06-3.08.17-5.48l3.1.24c-.11,2-.16,3.32-.16,5.07,0,5.59.54,9.61,1.56,11.8.38.78.92,1.38,1.25,1.38.64,0,2-2.43,3.07-5.56Zm8.34,3.13a51.18,51.18,0,0,0-4.4-16.6l2.81-.67c2.81,5.75,3.86,9.47,4.67,16.54Z"/><path d="M309.41,271.13c-.38-1.06-.68-2-1-2.92l2.92-.16c.32,1.13.7,2.29,1,3.08h9.18v2.53H313.3c.43,1.11,1.13,2.67,1.7,3.81h8.34V280h-7a49.92,49.92,0,0,0,2.78,4.31l-2.94.87a42.2,42.2,0,0,1-3.08-5.18H301v-2.54h10.91c-.44-1-1.06-2.46-1.57-3.81h-8.88v-2.53ZM319,291.77c-2.18.14-3.89.19-5,.19-3.65,0-6.29-.35-8-1.08-2.3-.94-3.57-2.61-3.57-4.69a4.48,4.48,0,0,1,1-2.92l2.35,1.3a3.68,3.68,0,0,0-.41,1.64c0,2.08,2.68,3.05,8.45,3.05,1.52,0,2.84-.05,4.89-.21Z"/><path d="M341.48,268.1v3.32h8.29v2.51h-8.29v3.13h7.83v2.49h-7.83v4.07a37.84,37.84,0,0,1,9.26,4.75l-1.56,2.51a41.17,41.17,0,0,0-7.7-4.56c-.19,4.05-1.91,5.64-6.12,5.64s-6.89-1.78-6.89-4.56,2.81-4.64,7.53-4.64a17,17,0,0,1,2.57.19v-3.4h-9.34v-2.49h9.34v-3.13h-9.91v-2.51h9.91V268.1Zm-2.91,17.3a18,18,0,0,0-3-.32c-2.56,0-4.15.86-4.15,2.27s1.51,2.16,3.75,2.16c2.4,0,3.4-1.06,3.4-3.59Z"/><path d="M361,268.59V284.3c0,3.29,1.75,5,5.21,5a6.53,6.53,0,0,0,5.64-3.18,19.25,19.25,0,0,0,2.56-6.32l2.67,1.62a18.63,18.63,0,0,1-3.23,7.1,9.24,9.24,0,0,1-7.7,3.7c-5.37,0-8.26-2.81-8.26-8v-15.6Z"/><path d="M394.89,272.34v3.94h7v2.46h-7v5.61a31.08,31.08,0,0,1,7.67,4.08l-1.43,2.37a31.39,31.39,0,0,0-6.24-3.8c-.14,3.29-1.92,5-5.18,5s-5.56-1.78-5.56-4.24,2.53-4.18,6.26-4.18c.43,0,1,0,1.81.11V272.34ZM392.22,286a9,9,0,0,0-2-.22c-2,0-3.45.78-3.45,1.86s1.16,2,2.73,2c1.88,0,2.67-1,2.67-3.32Z"/><path d="M410.31,276.55a63.59,63.59,0,0,1,11.61-1.75c4.69,0,7.39,2.4,7.39,6.58,0,4-1.43,6.83-4.26,8.51-1.92,1.13-5.1,2-9.07,2.45l-1.22-2.62a23.71,23.71,0,0,0,8.34-2.16c2.08-1.13,3.06-3.1,3.06-6.1,0-2.8-1.27-4-4.19-4-1.94,0-5.34.6-10.8,1.89ZM425.56,273a71.51,71.51,0,0,0-11-2.35l1.08-2.51a63.31,63.31,0,0,1,11,2.4Z"/><path d="M449.27,268.56l-.65,17.06h-2.75l-.65-17.06Zm0,19.44v4h-4v-4Z"/><path class="cls-7" d="M41.23,208.11l-8.52.77-.34-2,2.21-.13v-.91c-1.13.33-2.36.62-3.7.87l-.62-1.9a29.09,29.09,0,0,0,5-1.3H31v-1.87h7.14v-1h2.61v1h7.35v1.87H46.45l1.29,1a17,17,0,0,1-2.75,1.3,28.37,28.37,0,0,0,3.83,1l-1.28,2q-5.88-1-8.48-5c-.56.32-1.21.64-1.93,1v1.76c1.95-.15,3.3-.27,4-.36Zm.24-9.29a1.27,1.27,0,0,1-.5,1.05,1.94,1.94,0,0,1-1.24.39H38.38l-.19-1.46h.74c.27,0,.4-.1.4-.31v-.36H37.82v3H35.34v-3H33.9v2.34H31.56v-3.59h3.78v-.63H30.92V195h.87l-1-.61a11.33,11.33,0,0,0,2.13-2.54l2,.36c-.16.31-.3.57-.42.77h.84v-1.15h2.48v1.15H41.2v1.37H37.82V195h4v1.29h-4v.63h3.65Zm-8.06-4.51c-.24.24-.47.45-.69.65h2.62v-.65Zm12,9.18H41.52a11.94,11.94,0,0,0,1.37,1.22A27.28,27.28,0,0,0,45.43,203.49Zm-1-5.22H42.16v-6h2.26Zm3.15,1.12a1.41,1.41,0,0,1-.59,1.17,2.28,2.28,0,0,1-1.44.46H43.33L43,199h1.65c.32,0,.48-.13.48-.38v-6.84h2.4Z"/><path class="cls-7" d="M68.08,206.53l-.43,2.08-6.25,0a31,31,0,0,1-6-.4,4.1,4.1,0,0,1-2.18-1.48,12.4,12.4,0,0,1-3,2.16l-.86-2.24a8.26,8.26,0,0,0,2.5-1.48v-4.74h-2v-2h4.44v6.23a1.49,1.49,0,0,0,.79,1.28,4.38,4.38,0,0,0,2,.62c.81.07,2.45.11,4.9.11C65.09,206.67,67.13,206.62,68.08,206.53Zm-13.4-10.8-2.35,1.2a19.66,19.66,0,0,0-1.14-1.88c-.6-.91-1-1.56-1.35-1.93L52,192A34.34,34.34,0,0,1,54.68,195.73Zm4.55-3.3c-.14.46-.3.92-.49,1.39h1.12V192h2.61v1.85h4.17v1.85H62.47v1.76h4.86v1.9H54.81v-1.9h5v-1.76h-2a12.62,12.62,0,0,1-1.16,1.71l-2.2-1a13.7,13.7,0,0,0,2.37-4.3Zm-3.38,13.24v-5.43H66.52v5.43Zm2.42-1.8H64V202H58.27Z"/><path class="cls-7" d="M75.57,196.51l-6.44,0v-1.84l6.44,0ZM75,208H71.52v.7h-2v-6.34H75Zm0-14.14H69.75v-1.63H75ZM74.87,199h-5.1v-1.6h5.1Zm0,2.52h-5.1v-1.61h5.1ZM73,206.38v-2.32H71.59v2.32Zm7-1.23a16.74,16.74,0,0,1-3.77,3.1l-1.11-1.88A15,15,0,0,0,79,202.78H75.57v-2H80v-1H76.33v-7.6h9.79v7.6H82.31v1H87v2H83.35a17.27,17.27,0,0,0,4.07,3.31l-1.32,2.06a15.51,15.51,0,0,1-3.79-3.32v4H80Zm-1.32-9.81H80v-1.26H78.68ZM80,196.73H78.68V198H80Zm2.25-1.39H83.7v-1.26H82.29Zm1.41,1.39H82.29V198H83.7Z"/><path class="cls-7" d="M104.08,193,97,210.82H94.45L101.54,193Z"/><path class="cls-7" d="M114.7,198.22l-.74-2.28,2.36-.36a23.49,23.49,0,0,1,1,2.64h1V195.4h-5.33v-2h3.74l-.77-1.43,2.5-.53,1.06,2h3.48l1.14-2,2.57.57-1,1.43h4v2h-5.44v2.82h1c.5-1.26.85-2.18,1-2.74l2.46.52a23.94,23.94,0,0,1-1,2.22h2.47v2H112.4v-2Zm13.57,10.45h-2.64v-.54h-8.81v.54h-2.66V201h14.11Zm-2.64-4.92v-1h-8.81v1Zm0,2.58v-1.06h-8.81v1.06Zm-5.07-8.11h1.38V195.4h-1.38Z"/><path class="cls-7" d="M149.83,207l-.42,2H149l-5.86.06a30.55,30.55,0,0,1-6-.41,4.17,4.17,0,0,1-2.18-1.48,12.46,12.46,0,0,1-3,2.17l-.86-2.24a7.7,7.7,0,0,0,2.3-1.35v-4.86H131.6v-2.05h4.26v6.34a1.42,1.42,0,0,0,.31.92,2.29,2.29,0,0,0,.93.64,6.23,6.23,0,0,0,1.79.34c.77.05,2.22.07,4.36.07C146.64,207.13,148.84,207.09,149.83,207Zm-13.47-10.7-2.36,1q-.37-.8-2.36-3.9l2.15-1A32.24,32.24,0,0,1,136.36,196.29Zm9.73,7H144v3.13H141.6v-3.13h-2v3.19h-2.44V195.9h3.24l-2.13-1.24,1-.91h-2.34V192h10.69l1,1.25a17.44,17.44,0,0,1-3.83,2.67h3.81v8.89A1.41,1.41,0,0,1,148,206a2.55,2.55,0,0,1-1.52.44h0l-1.84,0-.19-2h1.23c.33,0,.49-.16.49-.46Zm-4.49-4.45v-1.17h-2v1.17Zm-2,2.77h2v-1.21h-2Zm.88-7.82,2.27,1.38a18.15,18.15,0,0,0,2.11-1.38Zm3.52,3.88v1.17h2.12v-1.17Zm0,3.94h2.12v-1.21H144Z"/><path class="cls-7" d="M153.89,203a12.66,12.66,0,0,1-2.11,2.72l-1.29-1.61a13.07,13.07,0,0,0,1.77-2.4,16.77,16.77,0,0,0,1.48-3h-2.68v-2h2.83v-1.91c-1,.16-1.86.27-2.5.32l-.38-1.81a27.82,27.82,0,0,0,3.44-.57,17.89,17.89,0,0,0,3.15-.93l1,1.83a17.81,17.81,0,0,1-2.22.67v2.4h2v2h-2v.6a13,13,0,0,0,2.15,2.16l-1.1,1.93a14.34,14.34,0,0,1-1-1.11v6.61h-2.48Zm14.76.92-1.45.17v4.65h-2.58v-4.36l-6.49.75-.07-2.16,6.56-.76v-5.61l-1.3,1.57a52.62,52.62,0,0,0-3.83-3.87l1.64-1.79a30.59,30.59,0,0,1,3.49,3.39v-4h2.58v10l1.41-.17ZM164,200.54l-1.63,1.93a39,39,0,0,0-3.86-3.92l1.55-1.86A35.71,35.71,0,0,1,164,200.54Z"/><path class="cls-7" d="M180.06,208.9h-2.65v-3.69H169.9v-2.13h7.51v-1.25H179l-.67-1.11a5,5,0,0,0,3.27-5h2.26c0,.66,0,1.13,0,1.41.37,1.35,1.63,2.61,3.76,3.79l-1.46,1.71a8.86,8.86,0,0,1-3.29-2.9,8.37,8.37,0,0,1-2.78,2.41v1h7.86v2.13h-7.86Zm-4.25-13.21a14.62,14.62,0,0,1-.06,1.54,5.85,5.85,0,0,0,2.64,3.24l-1.31,1.67a7,7,0,0,1-2.33-2.23,8,8,0,0,1-3.6,2.9L170,201.18A7.05,7.05,0,0,0,171.9,200a5,5,0,0,0,1.2-1.72,6.38,6.38,0,0,0,.44-2.55Zm11.51-.46H170.48v-2.07h7v-1.41h2.69v1.41h7.2Z"/></g></g></svg>