<svg xmlns="http://www.w3.org/2000/svg" viewBox="0 0 780 170"><defs><style>.cls-1{fill:#fff;}.cls-2{fill:#d7d7d7;}.cls-3{fill:#182b7b;}.cls-4,.cls-5{fill:none;stroke-miterlimit:10;}.cls-4{stroke:#fff;stroke-width:2px;}.cls-5{stroke:#d7d7d7;stroke-width:3px;}.cls-6{fill:#bdbdbd;}.cls-7{fill:#b90f52;}.cls-8{fill:#8a8a8a;}</style></defs><title>Asset 20</title><g id="Layer_2" data-name="Layer 2"><g id="デザイン"><rect class="cls-1" x="1.5" y="1.5" width="777" height="167"/><path class="cls-2" d="M777,3V167H3V3H777m3-3H0V170H780V0Z"/><rect class="cls-3" x="35" y="24" width="100" height="26"/><line class="cls-4" x1="128" y1="37" x2="139" y2="37"/><line class="cls-5" x1="390" y1="29.5" x2="390" y2="140.5"/></g><g id="テキスト"><path d="M39.09,115.34c2,2.16,4.44,2.94,9.33,3.06H61.26a10.6,10.6,0,0,0-1,2.79h-12c-5.46-.06-8-1-10.44-3.6a27.24,27.24,0,0,1-4.17,4.29l-1.65-3a30.61,30.61,0,0,0,3.51-2.55L36,116v-7.59H32.28v-2.88h6.81Zm-1.92-14.25a28,28,0,0,0-4.35-5.85l2.43-1.77a31.52,31.52,0,0,1,4.47,5.58Zm11.07-7.8H51.3v2h7.17v2.22H51.3V99.2h8.76v2.34h-20V99.2h8.16V97.52H41.73V95.3h6.51Zm8.22,19.8c1.08.51,2,1,3.21,1.62L57.75,117c-2.19-1.32-4.11-2.37-6.45-3.51v4.41H48.24V112A27.89,27.89,0,0,1,42,115.64l-1.89-2.19a33,33,0,0,0,8.1-4.26H42.33v-6.12H57.51v6.12h-.12l1.83,1.17a29.11,29.11,0,0,1-3.06,2.58Zm-11.13-5.88h9.15v-2.13H45.33Zm6,3.75c.57.21,1.44.54,2.37.93a3.88,3.88,0,0,1,.51-.45,29.38,29.38,0,0,0,2.13-2.25H52c-.12.12-.42.36-.69.57Z"/><path d="M84.69,105.8a15.8,15.8,0,0,0,1.2,1.89h4.56v2.22H88.08a20.84,20.84,0,0,0,3.12,2l-1.68,2.31a15.83,15.83,0,0,1-1.56-1,15.21,15.21,0,0,1-2.25,2.13L84,113.6a14.32,14.32,0,0,0,2-2,16.93,16.93,0,0,1-1.59-1.68H79a13.74,13.74,0,0,1-1.62,1.92,15.27,15.27,0,0,1,1.89,1.8l-1.77,1.89c-.87-.9-1.44-1.47-2-2-.18.15-.42.36-1.35,1.05l-1.5-1.83V119c0,2.13-.6,2.76-2.61,2.76a18.8,18.8,0,0,1-2.82-.18l-.51-2.7a13.53,13.53,0,0,0,2.43.21c.69,0,.84-.15.84-.78v-4.92H66.63a15.27,15.27,0,0,1-2.58,8.46l-2.16-2.19c1.47-2.19,2-4.5,2-8.25V100.7h8.76v11.85a15.28,15.28,0,0,0,3-2.64H73.32v-2.22h4a17.19,17.19,0,0,0,1-1.89H73.83v-2.16h1.68l-.09-.21-.06-.15a19.63,19.63,0,0,0-1.08-2l2.55-.93c.33.66.87,2,1.35,3.24h1A24,24,0,0,0,80,99.83l2.79.27a24.52,24.52,0,0,1-.81,3.54H83.7a21.9,21.9,0,0,0,1.8-3.3l2.61.9a20.53,20.53,0,0,1-1.53,2.4h2.94v2.16ZM70.08,93.29h3.15v2.13h6.33V93.29h3.21v2.13h7.71v2.52H82.77v1.5H79.56v-1.5H73.23V99.8H70.08V97.94h-7.5V95.42h7.5ZM66.69,106H70v-2.79H66.69Zm0,5.16H70v-3H66.69Zm6.54,7a26.2,26.2,0,0,0,5.43-2.64l.69,2.19-.48.3a32.6,32.6,0,0,1-4.65,2.61ZM83,110.81v8.64c0,1.65-.63,2.31-2.19,2.31a25.93,25.93,0,0,1-3-.18l-.45-2.49a15,15,0,0,0,2.22.24c.57,0,.69-.15.69-.84v-7.68Zm-1.71-5a18.14,18.14,0,0,1-.87,1.89H83a15.31,15.31,0,0,1-.9-1.89Zm7.53,14.79a40.94,40.94,0,0,0-5.34-3.45l1.5-1.86,1,.48a32.26,32.26,0,0,1,4.47,2.55Z"/><path d="M131.16,104v3h-8.7v10.14c0,.9.36,1,2.67,1,1.86,0,2.55-.24,2.73-1a18.83,18.83,0,0,0,.3-3.57l3.33.9c-.18,3.15-.48,4.74-1,5.43-.75,1-2.13,1.29-5.79,1.29-4.62,0-5.64-.51-5.64-2.79V107h-4.47c0,9.45-2.4,13.08-9.93,14.7L102.78,119c3.63-.6,6.24-2.13,7.29-4.26.72-1.44,1-3.66,1.08-7.68H103.5v-3h12.09V93.29h3.3V104Zm-22.29-.84a44.36,44.36,0,0,0-3.78-6.72l2.94-1.5a29.59,29.59,0,0,1,3.84,6.51ZM122,102a38.51,38.51,0,0,0,4-7.38L129.39,96a46.32,46.32,0,0,1-4.47,7.29Z"/><path class="cls-6" d="M155.62,101.86v4.64h5.57v-4.64H163v11.35h-1.79v-5.13h-5.57v5.13h-1.8V101.86Z"/><path class="cls-6" d="M167.7,101.53v1.79h-1.95v-1.79Zm-.1,3.42v8.26h-1.77V105Z"/><path class="cls-6" d="M172.21,101.23v7.08l3.4-3.36h2.23l-3.3,3.23,3.58,5H175.9l-2.62-4-1.07,1v3h-1.74v-12Z"/><path class="cls-6" d="M184.75,107.72c0-1-.67-1.61-1.95-1.61a4.28,4.28,0,0,0-2.7.87l-.74-1.14a6.15,6.15,0,0,1,3.51-1.12c2.33,0,3.52,1.11,3.52,3.25v2.76a5.57,5.57,0,0,0,.48,2.48h-1.56a5.26,5.26,0,0,1-.39-1.39h-.06a3.26,3.26,0,0,1-3,1.61,2.64,2.64,0,0,1-2.85-2.6c0-1.84,1.6-2.82,4.61-2.82h1.15Zm-.73,1.44c-2.23,0-3.23.49-3.23,1.58,0,.79.61,1.31,1.54,1.31a2.37,2.37,0,0,0,2.41-2.2v-.69Z"/><path class="cls-6" d="M190.57,107.24c.51-1.71,1.38-2.51,2.75-2.51a2.41,2.41,0,0,1,1.13.24l-.47,1.6a2.35,2.35,0,0,0-.86-.14c-1.27,0-2.21,1-2.49,2.77v4h-1.75V105h1.69l0,2.29Z"/><path class="cls-6" d="M197.46,105v4.84c0,1.36.56,2.09,1.61,2.09a2.81,2.81,0,0,0,2.45-2.06V105h1.78v8.26h-1.76v-1.57a3.61,3.61,0,0,1-2.92,1.72c-1.92,0-2.94-1.15-2.94-3.29V105Z"/><path class="cls-6" d="M218.7,101.86v1.53h-5.94v3.22H218v1.49h-5.25v3.55h6.15v1.56H211V101.86Z"/><path class="cls-6" d="M222.69,106.5a3.45,3.45,0,0,1,2.93-1.71c1.83,0,2.88,1.19,2.88,3.26v5.16h-1.72v-4.88q0-2.07-1.68-2.07a2.9,2.9,0,0,0-2.41,2v4.92H221V105h1.73Z"/><path class="cls-6" d="M238.76,101.23v12H237V112a3.12,3.12,0,0,1-2.7,1.45c-2.3,0-3.86-1.76-3.86-4.36s1.64-4.32,3.94-4.32a3.2,3.2,0,0,1,2.62,1.36v-4.86ZM237,107.86a2.55,2.55,0,0,0-2.26-1.74c-1.42,0-2.46,1.23-2.46,2.94s1,2.94,2.44,2.94a2.65,2.65,0,0,0,2.28-1.61Z"/><path class="cls-6" d="M249.18,109.06a4.24,4.24,0,1,1-4.23-4.35A4.11,4.11,0,0,1,249.18,109.06Zm-6.68,0c0,1.75,1,3,2.45,3s2.44-1.2,2.44-3-1-2.94-2.44-2.94S242.5,107.35,242.5,109.05Z"/><path class="cls-1" d="M35.91,35.08a4,4,0,0,1,3.35-1.95c2.09,0,3.29,1.36,3.29,3.73v5.89h-2V37.18c0-1.59-.64-2.37-1.92-2.37a3.32,3.32,0,0,0-2.75,2.32v5.62h-2V33.3h2Z"/><path class="cls-1" d="M52.31,33.3v5.54c0,1.55.64,2.39,1.84,2.39A3.21,3.21,0,0,0,57,38.87V33.3h2v9.45H57V41a4.11,4.11,0,0,1-3.33,2c-2.2,0-3.36-1.31-3.36-3.76V33.3Z"/><path class="cls-1" d="M68.36,35a2.88,2.88,0,0,1,2.57-1.89,2.58,2.58,0,0,1,2.69,2.08,3.14,3.14,0,0,1,2.72-2.08,2.77,2.77,0,0,1,2.29,1.08,4.16,4.16,0,0,1,.68,2.65v5.89H77.42V37.08c0-1.42-.58-2.27-1.57-2.27s-1.71,1-2,2.21v5.73H72V37c0-1.39-.58-2.19-1.57-2.19s-1.71.94-2,2.35v5.59H66.48V33.3h1.88Z"/><path class="cls-1" d="M89,29.06v5.81a3.59,3.59,0,0,1,3.11-1.79c2.56,0,4.38,2.05,4.38,5S94.68,43,92,43a3.9,3.9,0,0,1-3.17-1.54l-.19,1.34H87V29.06Zm0,10.58a3,3,0,0,0,2.64,1.73c1.67,0,2.75-1.31,2.75-3.33s-1.13-3.38-2.75-3.38A3.07,3.07,0,0,0,89,36.76Z"/><path class="cls-1" d="M104.89,38.36a2.84,2.84,0,0,0,3,3,3.75,3.75,0,0,0,3-1.42L112,41.23A5.48,5.48,0,0,1,107.73,43a4.62,4.62,0,0,1-4.92-4.93c0-3,2-5.08,4.73-5.08A4.43,4.43,0,0,1,112,37.79v.57Zm5-1.42a2.36,2.36,0,0,0-2.45-2.39,2.63,2.63,0,0,0-2.54,2.39Z"/><path class="cls-1" d="M121.19,35.93c.58-2,1.57-2.87,3.14-2.87a2.81,2.81,0,0,1,1.29.27l-.54,1.83a2.76,2.76,0,0,0-1-.16c-1.45,0-2.53,1.2-2.85,3.17v4.58h-2V33.3h1.94l-.06,2.63Z"/><path class="cls-7" d="M155.78,36.26c0,4.18-1.92,6.76-5,6.76s-5-2.58-5-6.76,1.92-6.75,5-6.75S155.78,32.09,155.78,36.26Zm-7.9,0c0,3.09,1.1,5,2.86,5s2.87-1.91,2.87-5-1.09-5-2.87-5S147.88,33.16,147.88,36.26Z"/><path class="cls-7" d="M167,35.14c2.09,0,3.22-.72,3.22-2,0-1.15-1-1.88-2.46-1.88a4,4,0,0,0-3.16,1.34l-1.18-1.23a6,6,0,0,1,4.4-1.79c2.75,0,4.61,1.36,4.61,3.37,0,1.6-1.15,2.69-3.14,3v.06c2.24.18,3.59,1.43,3.59,3.35,0,2.35-1.94,3.78-5.11,3.78a6.23,6.23,0,0,1-4.9-1.89l1.25-1.32a4.85,4.85,0,0,0,3.68,1.44c1.75,0,2.82-.81,2.82-2.16,0-1.6-1.15-2.33-3.65-2.33h-1.2V35.14Z"/><path class="cls-8" d="M43.05,78.35H34.18V76.5a31.07,31.07,0,0,0,4.53-4,4.1,4.1,0,0,0,1.16-2.47,1.66,1.66,0,0,0-.56-1.33,2.34,2.34,0,0,0-1.54-.47,5.67,5.67,0,0,0-3.09,1h-.2V67.08a10.5,10.5,0,0,1,3.7-.74,5,5,0,0,1,3.21.91,3.08,3.08,0,0,1,1.13,2.55,4.91,4.91,0,0,1-.92,2.68,20,20,0,0,1-4.26,4h5.71Z"/><path class="cls-8" d="M49.24,78.6a4.17,4.17,0,0,1-3.52-1.46,7.78,7.78,0,0,1-1.12-4.68,7.68,7.68,0,0,1,1.13-4.65,4.14,4.14,0,0,1,3.51-1.47,4.17,4.17,0,0,1,3.52,1.46,7.7,7.7,0,0,1,1.12,4.66,7.8,7.8,0,0,1-1.11,4.69A4.2,4.2,0,0,1,49.24,78.6Zm0-10.44a1.59,1.59,0,0,0-1.56,1,8.25,8.25,0,0,0-.48,3.28,8,8,0,0,0,.49,3.28,1.69,1.69,0,0,0,3.11,0,8.35,8.35,0,0,0,.48-3.28,8.51,8.51,0,0,0-.47-3.28A1.62,1.62,0,0,0,49.24,68.16Z"/><path class="cls-8" d="M60.07,78.6a4.17,4.17,0,0,1-3.52-1.46,7.71,7.71,0,0,1-1.12-4.68,7.69,7.69,0,0,1,1.12-4.65,4.16,4.16,0,0,1,3.52-1.47,4.18,4.18,0,0,1,3.52,1.46,7.7,7.7,0,0,1,1.12,4.66,7.72,7.72,0,0,1-1.12,4.69A4.18,4.18,0,0,1,60.07,78.6Zm0-10.44a1.62,1.62,0,0,0-1.57,1A8.47,8.47,0,0,0,58,72.47a8,8,0,0,0,.49,3.28,1.68,1.68,0,0,0,3.1,0,8.13,8.13,0,0,0,.49-3.28,8.51,8.51,0,0,0-.47-3.28A1.62,1.62,0,0,0,60.07,68.16Z"/><path class="cls-8" d="M67.19,78.41v-2h.24a4.28,4.28,0,0,0,1.8.35q3.21,0,3.57-3.36a5.42,5.42,0,0,1-2.78.93,3.9,3.9,0,0,1-2.79-1,3.61,3.61,0,0,1-1.07-2.79,4,4,0,0,1,1.27-3,4.69,4.69,0,0,1,3.3-1.17,4.36,4.36,0,0,1,3.47,1.39,5.94,5.94,0,0,1,1.22,4.06,7.25,7.25,0,0,1-1.61,5,6,6,0,0,1-4.68,1.77A8.08,8.08,0,0,1,67.19,78.41Zm5.62-6.28s0-.17,0-.35,0-.31,0-.4c0-2.19-.71-3.28-2.13-3.28a1.75,1.75,0,0,0-1.4.61,2.5,2.5,0,0,0-.54,1.7c0,1.43.76,2.15,2.27,2.15A4.33,4.33,0,0,0,72.81,72.13Z"/><path class="cls-8" d="M95.69,75.92H90.25v3.34H88V75.92H81.08V74.05h2V71.19a12.1,12.1,0,0,1-1,.92l-1.5-1.36A13.5,13.5,0,0,0,83,67.93a12,12,0,0,0,1.53-3.26l2.23.33a13,13,0,0,1-.48,1.42h9v1.8H90.25v1.83h4.48v1.8H90.25v2.2h5.44Zm-10.32-7.7a16.12,16.12,0,0,1-1.28,1.83H88V68.22Zm-.08,5.83H88v-2.2H85.29Z"/><path class="cls-8" d="M104.58,72.89A11.53,11.53,0,0,1,102,76.5a15.38,15.38,0,0,1-4.17,2.68l-1.08-1.74a10.81,10.81,0,0,0,4.5-3.31,9.87,9.87,0,0,0,2-5V67.46l-3.87,0V65.57h6.16c0,.13,0,.27,0,.42v1.42a13,13,0,0,0,.29,2.76,8.94,8.94,0,0,0,1,2.57,10.82,10.82,0,0,0,2,2.45,16.61,16.61,0,0,0,2.91,2.13l-1.54,1.83A19.23,19.23,0,0,1,106.59,76,13.28,13.28,0,0,1,104.58,72.89Z"/><path class="cls-8" d="M117.06,79.23h-2V73.91a14,14,0,0,1-1.75,1.27l-.87-1.47A11.92,11.92,0,0,0,115,71.5a9.83,9.83,0,0,0,1.69-2.65h-3.55V67.12h2v-2h2v2H119l.42.43a12.39,12.39,0,0,1-2.1,4,26,26,0,0,0,2.5,2l-1,1.68c-.63-.49-1.2-1-1.71-1.45ZM128,78.77h-9.68V76.86h3.83V70.92h-3.07V69.09h3.07V65.2h2.23v3.89h3.2v1.83h-3.2v5.94H128Z"/><path d="M442.68,85.16h-2.2V83.72h-10v1.44h-2.18V68.48h14.34ZM430.52,75h10V70.37h-10Zm0,6.8h10v-5h-10Z"/><path d="M461.77,72.74a37.91,37.91,0,0,1-5.3,8c.95.82,1.52,1.35,2.28,2.11l-1.59,1.63a40.16,40.16,0,0,0-6.23-5.53l1.4-1.48c.95.67,1.56,1.12,2.62,2a28.9,28.9,0,0,0,4.11-6H452a19.41,19.41,0,0,1-4.06,4.79l-1.51-1.41a16.42,16.42,0,0,0,5.67-8.51l2.07.46A22.26,22.26,0,0,1,453,71.58h7.56Z"/><path d="M474.43,82.71c3.67-.93,5.45-3,5.45-6.25a5.69,5.69,0,0,0-2.77-5.16,6,6,0,0,0-2.05-.71,28.55,28.55,0,0,1-2.72,9.94,8.34,8.34,0,0,1-1.41,2.15,3,3,0,0,1-2.14,1c-2.19,0-4-2.73-4-6.08A9,9,0,0,1,469.11,70a8.86,8.86,0,0,1,4.79-1.3c4.84,0,8.17,3.12,8.17,7.68,0,4.31-2.19,7-6.54,8.21ZM473,70.52a5.88,5.88,0,0,0-3.8,1.75A7.27,7.27,0,0,0,467,77.55c0,2,.86,3.93,1.81,3.93.47,0,.91-.44,1.5-1.48A25.09,25.09,0,0,0,473,70.84Z"/><path d="M486.12,77.43a19,19,0,0,1-2,4.39l-1.06-2a15.82,15.82,0,0,0,2.81-5.76h-2.45V72.3h2.7V70.08c-1.05.19-1.39.25-2.08.32l-.66-1.48a23.19,23.19,0,0,0,5.6-1.4l1,1.42c-.67.27-1.08.4-1.69.59l-.38.11V72.3h1.58v1.75H488v1.44a16.78,16.78,0,0,1,2.24,2.06l-1,1.78a20.06,20.06,0,0,0-1.2-1.77v8h-1.84Zm12.25,5a20.68,20.68,0,0,1,3.3,1.8l-1.38,1.33a24.33,24.33,0,0,0-3.8-2.31l1-.82h-4.36l1.09.82A16.36,16.36,0,0,1,490,85.68l-1.21-1.41a13.32,13.32,0,0,0,3.82-1.84h-1.79V74.94h9.5v7.49Zm-3.91-15h1.91v1.19h4.68V70h-4.68v.76h4.09V72h-4.09v.84h5.15v1.33h-11.6V72.8h4.54V72h-3.73V70.73h3.73V70H490.2v-1.3h4.26ZM492.65,77h5.7v-.85h-5.7Zm0,2h5.7v-.88h-5.7Zm0,2.11h5.7v-.94h-5.7Z"/><path d="M512.09,68.81l1.29,1.1c-.68,2.37-1.08,3.68-1.52,4.84A18.54,18.54,0,0,1,516.12,76c.07-.86.11-1.56.11-2.36,0-.42,0-.66,0-1.42l2,.21A40.05,40.05,0,0,1,518,76.9c.86.44,1.51.84,2.42,1.41l-.8,2A21.77,21.77,0,0,0,517.69,79a8.27,8.27,0,0,1-5.32,6.21l-1.16-1.56A6.94,6.94,0,0,0,515.83,78a15.31,15.31,0,0,0-4.6-1.54,29.59,29.59,0,0,1-3,6.27,3.26,3.26,0,0,1-2.6,1.62c-1.61,0-2.75-1.58-2.75-3.76,0-3.52,2.79-5.89,7-6a32.25,32.25,0,0,0,1.31-4h-6.36V68.81Zm-4.92,8a4,4,0,0,0-2.42,3.67c0,1,.4,1.8.88,1.8.83,0,2.13-2.16,3.59-5.92A6.67,6.67,0,0,0,507.17,76.84Z"/><path d="M529.43,72.07h-7.84V70.55h7.84v-.92c-1.71.07-2.37.11-2.62.11-.66,0-1.19,0-2.69.07l-.78-1.48A99.22,99.22,0,0,0,536,67.4l1.35,1.46c-1.9.29-3.06.42-4.86.56l-1,.09v1h8v1.52h-8v1h6.32v6.4h-6.32v1.14h6.95v1.49h-6.95v1.25h8.07V84.9h-18V83.38h8V82.13H522.6V80.64h6.83V79.5h-6.21V73.1h6.21Zm-4.23,2.36v1.22h4.23V74.43Zm0,2.53v1.25h4.23V77Zm6.25-1.31h4.33V74.43h-4.33Zm0,2.56h4.33V77h-4.33Z"/><path d="M546.52,67.9v5.26c2.05-2.38,4-3.53,6.07-3.53,2.85,0,4.55,2.46,4.55,6.64a19.53,19.53,0,0,1-.35,3.88,17.35,17.35,0,0,1,2,1.67l-.95,1.75a19.82,19.82,0,0,0-1.71-1.65,4.08,4.08,0,0,1-3.8,2.18c-2.22,0-3.67-1.18-3.67-3,0-1.62,1.5-2.87,3.46-2.87a7.06,7.06,0,0,1,2.79.66c.08-.74.12-1.74.12-2.67,0-3-.9-4.75-2.42-4.75-1.82,0-3.72,1.38-6.09,4.46v9h-2.07V78l-1.66,2.15-.74,1-.23.28-1-2a36.8,36.8,0,0,0,3.61-4.48V73.06h-3.16V71.2h3.16V67.9Zm5.75,11.91c-1,0-1.8.59-1.8,1.33s.78,1.29,1.84,1.29a2.29,2.29,0,0,0,2.17-1.6,1.11,1.11,0,0,1,0-.13A3.91,3.91,0,0,0,552.27,79.81Z"/><path d="M560.08,69.74c4.9-.06,11.57-.25,16.13-.44l.12,1.84a13.55,13.55,0,0,0-5.21,1A6.53,6.53,0,0,0,567,78.08a3.32,3.32,0,0,0,1.38,3,10.63,10.63,0,0,0,4.9,1.56l-.43,2.09c-2.95-.4-4.85-1.11-6.06-2.23A5.61,5.61,0,0,1,565,78.13a7.1,7.1,0,0,1,1.71-4.42,7.91,7.91,0,0,1,3.4-2.43c-2.07,0-6.16.24-9.88.43Zm13.49,8a15.35,15.35,0,0,0-1.84-3.31l1.44-.53A15.57,15.57,0,0,1,575,77.17Zm2.51-1a14.41,14.41,0,0,0-1.84-3.33l1.38-.49a11.69,11.69,0,0,1,1.84,3.19Z"/><path d="M586.74,71.41A22.44,22.44,0,0,1,584,75.67a21.92,21.92,0,0,1,3.27,2.43l-1.14,1.82c-.72-.78-1.52-1.52-2.31-2.22v7.83h-2V78l-.15.15A22.12,22.12,0,0,1,579.44,80l-1.19-1.7a20,20,0,0,0,5.77-6h-5.15V70.52h2.89v-3h2v3h2.07Zm3.53-3.93h2.05V72.8h3.94v1.86h-3.94V83h4.22v1.9h-10.9V83h4.63V74.66h-3.85V72.8h3.85Z"/><path d="M597.38,84a21.89,21.89,0,0,0,5.76-1.88l1.55,1.33a27.28,27.28,0,0,1-6.19,2.17ZM614,82.09H599V73.4h15Zm-1-9.69H600V68.05h13Zm-12,3.48H612V74.81H601Zm0,2.33H612V77.15H601Zm0,2.47H612V79.54H601Zm1-9.65h8.87V69.51h-8.87Zm12.1,14.51a42.16,42.16,0,0,0-5.77-2.05l1.56-1.35A38.3,38.3,0,0,1,615.67,84Z"/><path d="M624.57,68.05l-.44,2.62h5.53v1.82h-5.85l-.5,2.93h5.25v1.82H623a16.93,16.93,0,0,0-.27,2.59,2.39,2.39,0,0,0,.78,2,4.63,4.63,0,0,0,3,.89c2.74,0,4.2-1,4.2-3a8.45,8.45,0,0,0-.55-2.75l1.94-.14a7.45,7.45,0,0,1,.76,3,4.26,4.26,0,0,1-1.69,3.64,8.21,8.21,0,0,1-4.71,1.28c-3.84,0-5.93-1.69-5.93-4.77a17,17,0,0,1,.28-2.72h-3.47V75.42h3.8l.51-2.93H617.6V70.67H622l.5-2.81Z"/><path d="M649.3,74.68H640V73.56a18.93,18.93,0,0,1-3.52,1.88l-1.19-1.69a15.28,15.28,0,0,0,8-6.27h2.28c2,2.47,4.29,4,8.18,5.49l-1,1.84a32.92,32.92,0,0,1-3.39-1.65Zm-5.62,4.08a36.77,36.77,0,0,1-2.62,4.12h.36c1.43-.08,5-.37,7-.58a26.72,26.72,0,0,0-2.12-2.14l1.74-1a36.61,36.61,0,0,1,4.81,5.06L651,85.51c-.63-.86-.93-1.24-1.35-1.77-3.33.53-8.15,1-12.46,1.33l-.67-2,1.24,0,1-.06a32.62,32.62,0,0,0,2.4-4.22H635.8V76.94h17.42v1.82Zm5.24-5.83a19.8,19.8,0,0,1-4.52-3.74,15.77,15.77,0,0,1-3.57,3.74Z"/><path d="M662.74,71.41A22.44,22.44,0,0,1,660,75.67a21.92,21.92,0,0,1,3.27,2.43l-1.14,1.82c-.72-.78-1.52-1.52-2.31-2.22v7.83h-2V78l-.15.15A22.12,22.12,0,0,1,655.44,80l-1.19-1.7a20,20,0,0,0,5.77-6h-5.15V70.52h2.89v-3h2v3h2.07Zm3.53-3.93h2.05V72.8h3.94v1.86h-3.94V83h4.22v1.9h-10.9V83h4.63V74.66h-3.85V72.8h3.85Z"/><path d="M673.46,75.89c.47,0,.79,0,1.59,0,.29-.29.89-1,1.26-1.37a22,22,0,0,0-2.76-3.14L674.71,70c.29.27.36.35.51.5a21.77,21.77,0,0,0,1.92-3.12l1.67.93a25.76,25.76,0,0,1-2.5,3.37c.36.41.87,1.08,1.12,1.44l.09-.09c.7-.84,1.9-2.4,2.66-3.52l1.48,1.08a46.42,46.42,0,0,1-4.46,5.15c1.23-.07,1.92-.11,2.83-.21-.29-.76-.38-1-.63-1.52l1.52-.55a17.06,17.06,0,0,1,1.52,4.16l-1.54.65a23.54,23.54,0,0,1,1,3.59l-1.71.74a20.35,20.35,0,0,0-.85-3.88l1.52-.43,0-.16-.32-1.21c-.44.06-1.3.19-1.69.23v8.38h-1.85V77.38l-.36,0c-.93.08-1.57.14-2.73.21Zm.11,7.53a22.35,22.35,0,0,0,.89-4.87l1.75.23a19,19,0,0,1-.87,5.42Zm16.74-.16h1.27V85H680.69V83.26h1.85V68.43h7.77Zm-5.82-9.91h3.86V70.18h-3.86Zm0,4.77h3.86V75h-3.86Zm0,5.14h3.86V79.77h-3.86Z"/><path d="M692.17,83.26a25.49,25.49,0,0,0,.51-4.93l1.54.13a31.3,31.3,0,0,1-.43,5.51Zm6.14-8.45a11.43,11.43,0,0,1,.64,2.36l-1.23.62-.1-.41c0-.19,0-.27-.13-.63-.3,0-.42.09-.84.15l-.22.06v8.57h-1.69V77.2c-.67.08-1.51.18-2.11.23l-.36-1.65c.4,0,.45,0,1-.08.34-.43.59-.78,1.07-1.44a21,21,0,0,0-2.17-3.12l1-1.35c.38.46.43.52.47.58a17.36,17.36,0,0,0,1.33-3l1.6.76a24.47,24.47,0,0,1-2,3.48,11.38,11.38,0,0,1,.76,1.2,1.86,1.86,0,0,0,.14-.19c.51-.82,1.27-2.13,1.76-3.06l1.37,1A43.15,43.15,0,0,1,695,75.59c.91-.08,1.31-.11,2.07-.21-.08-.25-.23-.7-.38-1.08l1.22-.44v-.65H700a18.56,18.56,0,0,0-.55-2.12h-.76V69.57h2.37V67.48h1.81v2.09h2.37v1.52h-.76a19.94,19.94,0,0,1-.67,2.12h1.79l-.06-1.71c0-.85,0-1.72,0-3.4v-.62h1.69v.62c0,2.44,0,3.78.11,5.11h3.36v1.6h-3.28c.07,1.23.17,2.26.28,3.42A26.94,26.94,0,0,0,709,75.4l1.41.95a29.83,29.83,0,0,1-2.38,4.27,6.25,6.25,0,0,0,.93,2.21,7.44,7.44,0,0,0,.53-2.59l1.43,1c-.29,2.74-.88,4.11-1.75,4.11s-1.8-1.22-2.43-2.91a20.3,20.3,0,0,1-3.12,3.1l-1.21-1.26a14.84,14.84,0,0,0,1.65-1.35h-3.49v.94H699V76h5.72v6.27a17.8,17.8,0,0,0,1.5-1.81,38.55,38.55,0,0,1-.55-5.62Zm-1.07,7.85a32.45,32.45,0,0,0-.6-4.07l1.34-.36a26.19,26.19,0,0,1,.73,3.67Zm3.37-4h2.56V77.28h-2.56Zm0,2.81h2.56V80h-2.56Zm1.74-8.31a21.53,21.53,0,0,0,.55-2.12H701a13.63,13.63,0,0,1,.5,2.12Zm6.52-.39a16.32,16.32,0,0,0-1.35-3.94l1.54-.64A16.87,16.87,0,0,1,710.5,72Z"/><path d="M719.57,68.05l-.44,2.62h5.53v1.82h-5.85l-.5,2.93h5.25v1.82H718a16.93,16.93,0,0,0-.27,2.59,2.39,2.39,0,0,0,.78,2,4.63,4.63,0,0,0,3,.89c2.74,0,4.2-1,4.2-3a8.45,8.45,0,0,0-.55-2.75l1.94-.14a7.45,7.45,0,0,1,.76,3,4.26,4.26,0,0,1-1.69,3.64,8.21,8.21,0,0,1-4.71,1.28c-3.84,0-5.93-1.69-5.93-4.77a17,17,0,0,1,.28-2.72h-3.47V75.42h3.8l.51-2.93H712.6V70.67H717l.5-2.81Z"/><path d="M441,96.61l-.06-.07a13.51,13.51,0,0,0-2.12-2.26l1.63-.92a15.76,15.76,0,0,1,2.3,2.32l-1.56,1H444v1.79H438a26.23,26.23,0,0,0,1,5.83,25.08,25.08,0,0,0,2.28-4.58l1.79.91a29.26,29.26,0,0,1-3.23,5.76,7.39,7.39,0,0,0,1.91,2.37c.18.13.27.19.35.19.24,0,.49-1.27.62-3.08l1.79,1c-.42,3.51-.84,4.52-1.9,4.52s-2.83-1.33-4.14-3.36a18.14,18.14,0,0,1-3.93,3.42L433.22,110a15.67,15.67,0,0,0,4.37-3.67A28.86,28.86,0,0,1,436,98.46h-6.34v2.33h5.6a32.18,32.18,0,0,1-.49,6.5c-.31,1.16-1,1.61-2.32,1.61a12.82,12.82,0,0,1-1.46-.09l-.21,0-.27,0-.32-1.9a11.83,11.83,0,0,0,1.8.17c.57,0,.74-.11.9-.66a20.85,20.85,0,0,0,.38-3.84h-3.61c-.06,4.22-.55,6.86-1.67,8.76l-1.68-1.37c.93-1.67,1.33-4,1.33-7.89V96.67h8.23c0-.8-.1-2-.12-3.19h2.06c0,1.19,0,1.52.07,3.19H441Z"/><path d="M462.46,104.91a34.66,34.66,0,0,1-3.93,2.42,14.83,14.83,0,0,0,5.07,2.14l-1.29,1.77c-4.35-1.16-7.68-4-8.84-7.6h-2.62V109c1.39-.25,3.52-.75,5-1.16l.14,1.76a70.9,70.9,0,0,1-8.68,2l-.67-1.92c1.24-.15,1.6-.21,2.05-.28v-5.76h-3.27v-1.58h3.27v-8h12.83v1.55H450.85v1.11h9.86v1.5h-9.86v1.12h9.86v1.46h-9.86v1.23h12.67v1.58H461Zm-7.09-1.27a8.41,8.41,0,0,0,1.81,2.58,29.23,29.23,0,0,0,3.59-2.58Z"/><path d="M469.81,94.26v11c0,2.32,1.24,3.5,3.67,3.5a4.59,4.59,0,0,0,4-2.24,13.72,13.72,0,0,0,1.8-4.45l1.89,1.14a13.28,13.28,0,0,1-2.28,5,6.53,6.53,0,0,1-5.42,2.6c-3.78,0-5.81-2-5.81-5.62v-11Z"/><path d="M488.17,111.22a33.64,33.64,0,0,0-3.88-4.63l1.5-1.33a29.77,29.77,0,0,1,3.95,4.54Z"/><path d="M517.94,98.42l0,2.29c0,.5,0,.61,0,1l0,.8h2.68v1.71h-2.73v.34c0,.8-.06,1.37-.14,2.34h2.45v1.67h-2.6a6.42,6.42,0,0,1-.38,2,1.94,1.94,0,0,1-2,1.09,26.81,26.81,0,0,1-2.81-.17l-.38-1.75a20,20,0,0,0,2.49.23c.49,0,.72-.12.85-.4s.08-.21.15-1H506.6c-.08.44-.12.65-.31,1.58l-2.07-.32c.33-1.54.78-4.07.93-5.27l.06-.34h-2.74V102.5h3l.23-1.67c.07-.59.11-.82.28-2.41ZM519.59,95v1.72H506.84a14.12,14.12,0,0,1-2.35,2.8l-1.73-1.26a11.91,11.91,0,0,0,3.59-5l2.15.32a15.79,15.79,0,0,1-.65,1.45Zm-12.29,9.17c-.19,1.31-.23,1.65-.4,2.68H510c0-.13,0-.17.06-.36.11-.88.21-1.52.22-1.71s0-.32.08-.61Zm.48-4.22c-.08.67-.08.8-.14,1.31,0,.35,0,.4-.13,1.2h3c.11-1.23.13-1.48.17-2l0-.52Zm4.23,6.9h3.53c0-.46.06-.85.08-1,.06-.8.06-.89.08-1.14l0-.53h-3.37Zm.72-6.9c-.05,1-.09,1.5-.21,2.51h3.29c0-.76.08-1.59.1-2.51Z"/><path d="M537.68,111.16h-2.2v-1.44h-10v1.44h-2.18V94.48h14.34ZM525.52,101h10V96.37h-10Zm0,6.8h10v-5h-10Z"/><path d="M550.43,108.71c3.67-.93,5.45-3,5.45-6.25a5.69,5.69,0,0,0-2.77-5.16,6,6,0,0,0-2.05-.71,28.55,28.55,0,0,1-2.72,9.94,8.34,8.34,0,0,1-1.41,2.15,3,3,0,0,1-2.14,1c-2.19,0-3.95-2.73-3.95-6.08A9,9,0,0,1,545.11,96a8.86,8.86,0,0,1,4.79-1.3c4.84,0,8.17,3.12,8.17,7.68,0,4.31-2.19,7-6.54,8.21ZM549,96.52a5.88,5.88,0,0,0-3.8,1.75,7.27,7.27,0,0,0-2.28,5.28c0,2,.86,3.93,1.81,3.93.47,0,.91-.44,1.5-1.48A25.09,25.09,0,0,0,549,96.84Z"/><path d="M564,111.53h-2v-9.24a19.73,19.73,0,0,1-1.59,2.21l-1-2.06c1.75-2.12,3.08-5,4.28-9l2,.53A36.4,36.4,0,0,1,564,98.51Zm13.54-12.81v1.92h-5.34v8.21h5v1.9H565.33v-1.9h4.78v-8.21h-5.45V98.72h5.45v-5h2.07v5Z"/><path d="M586.43,96.33h-7.5V94.81h7.5V93.48h2v1.33h7.62v1.52h-7.62v.89h6.13V101h-6.13V102H595v2.45h1.54v1.46H595v3.33h-2v-.78h-4.56v1.4c0,1.31-.46,1.7-2,1.7a20.81,20.81,0,0,1-2.56-.14l-.33-1.65a23.13,23.13,0,0,0,2.44.15c.32,0,.41-.09.41-.42v-1h-6.51V107h6.51v-1.1h-8v-1.46h8v-1.06h-6.49V102h6.49V101h-6V97.22h6Zm-4.08,2.16v1.28h4.08V98.49Zm6.1,1.28h4.2V98.49h-4.2Zm4.56,4.65v-1.06h-4.56v1.06Zm0,2.56v-1.1h-4.56V107Z"/><path d="M604.09,96.08c.6-1,.93-1.52,1.25-2.13l2.07.31c-.28.49-.3.53-1,1.63l-.11.19h6.53V97.9h-7.77a32.89,32.89,0,0,1-2.31,2.91,6.15,6.15,0,0,1,3.19-1,2.83,2.83,0,0,1,2.94,2.24c1.43-.46,3.63-1.18,4.85-1.56l.79,1.8-.32.1-.93.25c-1.73.47-3.08.85-4.14,1.19.07.92.13,1.73.15,3.12l-2,.11c0-1,0-1.35,0-2.39v-.19c-2.83,1-4.27,2-4.27,2.94s1.25,1.3,4.84,1.3a51.07,51.07,0,0,0,5.32-.29l.23,2c-2,.15-3.44.21-5.49.21a15.85,15.85,0,0,1-5.11-.54,2.47,2.47,0,0,1-1.85-2.41c0-1.46.92-2.58,3-3.67a23.06,23.06,0,0,1,3.07-1.31c-.24-1-.62-1.31-1.4-1.31-1.39,0-3.69,1.24-6,3.25l-1.23-1.4a28,28,0,0,0,4.52-5.29h-3.78V96.08Z"/><path d="M632,99.59v10c0,1.32-.52,1.77-2,1.77-.74,0-2.11-.06-3.07-.11l-.42-1.88a28.38,28.38,0,0,0,2.89.17c.47,0,.57-.1.57-.61v-1.67h-7.3v4.22h-2.09V102.2a18,18,0,0,1-3,2.41L616.27,103a15.59,15.59,0,0,0,5.45-5.5h-5.13V95.79h5.91a18,18,0,0,0,.78-2.43l2.16.25a22.25,22.25,0,0,1-.72,2.18h9.65V97.5H624a16,16,0,0,1-1.24,2.09Zm-9.37,3.08h7.3v-1.44h-7.3Zm0,3.12h7.3v-1.6h-7.3Z"/><path d="M652.12,94.88V96.4H649.5a12.5,12.5,0,0,1-.78,1.64h4.8v1.54h-18V98h4.72a13,13,0,0,0-.84-1.64h-2.47V94.88h6.54v-1.4h2v1.4Zm-16.61,15.2a10.17,10.17,0,0,0,1.92-3.51l1.9.66a11.28,11.28,0,0,1-2,4.09Zm9.41-4a12.68,12.68,0,0,1,2.07,2.12l-1.64,1.16a11.82,11.82,0,0,0-2.05-2.39l1.35-.89h-6.82v-5.63h13.36V106Zm-5.06-3.48h9.27v-.8h-9.27Zm0,2.13h9.27v-.92h-9.27Zm2.8,2.07v2.07c0,.34.05.47.21.55a7.81,7.81,0,0,0,2.14.21c1.75,0,2.41-.1,2.57-.36a5.31,5.31,0,0,0,.21-1.58l1.93.53a10,10,0,0,1-.21,1.92c-.17.65-.55.93-1.42,1.06a29.15,29.15,0,0,1-3.34.17,12.18,12.18,0,0,1-3.33-.26,1.32,1.32,0,0,1-.78-1.37v-2.94Zm-1-10.36a8.53,8.53,0,0,1,.72,1.64h4.32a15,15,0,0,0,.7-1.64Zm10.47,14.4a24.84,24.84,0,0,0-2.58-3.74l1.67-1a21.11,21.11,0,0,1,2.68,3.48Z"/><path d="M669.24,104a10,10,0,0,0-1.71-1.91l1.4-.91a9.68,9.68,0,0,1,2,2l-1.14.78h2.73v1.4h-2.83l1.33,1c-.93.74-1.27,1-2.52,1.88a4.3,4.3,0,0,0,1.61,1.18c.27,0,.44-.67.57-2.19l1.8.9c-.22,2.26-.85,3.42-1.86,3.42a5.74,5.74,0,0,1-3.66-2.3l-.33.19a30.86,30.86,0,0,1-3.76,1.92l-1.1-1.45a23,23,0,0,0,4.31-2.07,9.93,9.93,0,0,1-.81-2.45H661v1.1h.13l.12,0c.78-.05,1.42-.11,3.23-.3l0,1.27c-1,.17-2.21.33-3.52.48v2.26c0,1-.45,1.39-1.78,1.39a21.22,21.22,0,0,1-2.49-.16l-.29-1.63a14.76,14.76,0,0,0,2.13.25c.36,0,.47-.12.47-.5v-1.4c-1.34.11-2.73.22-4,.28l-.43-1.54c2.3-.07,2.64-.09,4.4-.23v-1.25h-4.56V104H659v-.84c-.85.08-2.29.15-3.24.15l-.54-1.27a42.16,42.16,0,0,0,7.53-.76l1,1.27a22.24,22.24,0,0,1-2.39.38l-.4.06v1h4c-.1-.71-.17-1.54-.21-2.46h1.92c0,.55.15,1.75.25,2.46Zm-9.86-9a10,10,0,0,0-.84-1.16l2.09-.51a10,10,0,0,1,1,1.67h3.89c.42-.69.71-1.2.9-1.6l2.26.34c-.36.5-.67.92-.82,1.14l-.09.12H672v1.39h-7.5v1h6.36v1.27h-6.36v1h8v1.43h-18V99.67h7.92v-1h-6.25V97.37h6.25v-1H655V95Zm7.77,10.37a8.38,8.38,0,0,0,.53,1.44c.49-.34.7-.51,1-.75s.65-.52.88-.69Z"/><path d="M675.32,110.73a49.24,49.24,0,0,1-.36-6.27,62,62,0,0,1,.79-10.15l2,.21a51.44,51.44,0,0,0-.76,9.39,46.75,46.75,0,0,0,.4,6.55Zm15.1-1.14a31.92,31.92,0,0,1-4.41.28q-6.4,0-6.4-3.76a4.36,4.36,0,0,1,.8-2.6l1.75.78a2.65,2.65,0,0,0-.5,1.57c0,1.35,1.37,2,4.43,2a31.88,31.88,0,0,0,4.12-.28ZM689.79,96v2h-8.91V96Z"/><path d="M702.92,94.24l-.45,12h-1.94l-.46-12Zm0,13.68v2.85h-2.85v-2.85Z"/><path class="cls-8" d="M436.4,48.92l-7.1.64L429,47.88l1.84-.1V47a30.53,30.53,0,0,1-3.08.72l-.52-1.58a24.76,24.76,0,0,0,4.19-1.09H427.9V43.52h6v-.81H436v.81h6.13v1.55h-1.4l1.08.88A14.11,14.11,0,0,1,439.54,47a23.87,23.87,0,0,0,3.19.81l-1.07,1.69q-4.89-.83-7.07-4.18a14.15,14.15,0,0,1-1.61.81v1.47c1.63-.13,2.75-.23,3.36-.31Zm.2-7.74a1.08,1.08,0,0,1-.41.88,1.6,1.6,0,0,1-1,.32H434l-.15-1.21h.61c.23,0,.34-.09.34-.26V40.6h-1.26v2.49h-2.07V40.6H430.3v2h-2v-3h3.15V39h-3.68V38h.73l-.87-.5a9.38,9.38,0,0,0,1.78-2.12l1.69.3c-.13.26-.24.48-.34.64h.69v-1h2.07v1h2.82v1.14h-2.82V38h3.33V39h-3.33v.52h3Zm-6.72-3.76c-.2.2-.38.38-.57.54h2.18v-.54Zm10,7.65h-3.26a9,9,0,0,0,1.15,1A23,23,0,0,0,439.9,45.07Zm-.84-4.35h-1.88v-5h1.88Zm2.63.94a1.18,1.18,0,0,1-.5,1A1.88,1.88,0,0,1,440,43h-1.84l-.24-1.73h1.38c.26,0,.4-.1.4-.32V35.28h2Z"/><path class="cls-8" d="M458.77,47.61l-.35,1.73-5.21,0a25.35,25.35,0,0,1-5-.34,3.46,3.46,0,0,1-1.81-1.23,10.65,10.65,0,0,1-2.51,1.8l-.71-1.87a6.84,6.84,0,0,0,2.07-1.23V42.56h-1.69v-1.7h3.69v5.19a1.26,1.26,0,0,0,.66,1.07,3.7,3.7,0,0,0,1.68.51c.68.06,2,.09,4.09.09C456.29,47.72,458,47.69,458.77,47.61Zm-11.16-9-1.95,1a15.88,15.88,0,0,0-1-1.57c-.5-.76-.87-1.3-1.12-1.61l1.77-.94A27.31,27.31,0,0,1,447.61,38.6Zm3.79-2.75A10.87,10.87,0,0,1,451,37h.94V35.47h2.17V37h3.48v1.54H454.1V40h4v1.58H447.72V40h4.21V38.56h-1.7a11.11,11.11,0,0,1-1,1.43l-1.83-.81a11.4,11.4,0,0,0,2-3.58Zm-2.81,11V42.37h8.89v4.52Zm2-1.5h4.81V43.85H450.6Z"/><path class="cls-8" d="M465,39.26l-5.36,0V37.76l5.36,0Zm-.47,9.6h-2.91v.58H460V44.16h4.59Zm0-11.79h-4.35V35.71h4.35Zm-.08,4.27h-4.25V40h4.25Zm0,2.1h-4.25V42.1h4.25Zm-1.55,4.05V45.55H461.7v1.94Zm5.82-1A14.2,14.2,0,0,1,465.57,49l-.93-1.57a12.26,12.26,0,0,0,3.27-3H465V42.85h3.69v-.8h-3V35.71h8.15v6.34h-3.18v.8h3.89v1.63h-3a14.19,14.19,0,0,0,3.39,2.76L473.8,49a13,13,0,0,1-3.17-2.77v3.33h-1.92Zm-1.1-8.18h1.13V37.23h-1.13Zm1.13,1.16h-1.13v1.09h1.13Zm1.88-1.16h1.18V37.23h-1.18Zm1.18,1.16h-1.18v1.09h1.18Z"/><path class="cls-8" d="M488.77,36.37l-5.92,14.81h-2.1l5.91-14.81Z"/><path class="cls-8" d="M501,40.35a12.82,12.82,0,0,1-.37,3.37,10.55,10.55,0,0,1-.85,2.22A5.1,5.1,0,0,0,501.35,47a7.66,7.66,0,0,0,1.94.47,34.28,34.28,0,0,0,3.67.13c1.25,0,2.53,0,3.84-.07l-.45,1.71h-2c-2.76,0-4.53-.05-5.32-.14a8,8,0,0,1-2.28-.57,6.49,6.49,0,0,1-2-1.21,9.74,9.74,0,0,1-2.6,2.23l-1-1.34A9.12,9.12,0,0,0,497.5,46a11.1,11.1,0,0,1-1.6-2.89l1.51-.71a8.18,8.18,0,0,0,1,1.93,7.92,7.92,0,0,0,.54-2.41h-2.66l-.32-.56,2.09-3.79h-2.18V35.87h4.47l.49.51-2.23,4Zm9.32,5.76H506.2v1.1h-2.09v-1.1h-3.65V44.57h3.65v-.65H501V42.49h3.1v-.68h-2.63V40.46h2.63v-.8h-3.47V38.3h3.47v-.77h-2.56V36.19h2.56v-.8h2.09v.8h3.46V38.3h.94v1.36h-.94v2.15H506.2v.68H510v1.43H506.2v.65h4.07Zm-4.07-8.58v.77h1.43v-.77Zm0,2.13v.8h1.43v-.8Z"/><path class="cls-8" d="M515.63,35.35a7.84,7.84,0,0,1-.39.76h3.68v1.33h-2l.52,1-1.75.37L515,37.44h-.71A10.9,10.9,0,0,1,512.86,39l-1.52-.85a10.12,10.12,0,0,0,2.29-3ZM518,47a18.51,18.51,0,0,1-5.87,2.47l-.67-1.54a19.36,19.36,0,0,0,4.71-1.75h-4.1V44.65h5.86v-.91l-.5-.43a2.79,2.79,0,0,0,1.13-2.46v-2h5.57v3.42c0,.18.07.26.23.26h.15a.86.86,0,0,0,.46-.07s.09-.18.11-.42,0-.68,0-1.34l1.39.19V42.8a1.1,1.1,0,0,1-.2.68,1.06,1.06,0,0,1-.58.38,6.65,6.65,0,0,1-1.48.11,3.41,3.41,0,0,1-1-.1,1.27,1.27,0,0,1-.59-.4,1,1,0,0,1-.26-.7v-.53l-1,.68c-.25-.34-.65-.85-1.19-1.52a3.57,3.57,0,0,1-1,2.31h.89v.94h6.14v1.48H522a19.83,19.83,0,0,0,4.81,1.54L526,49.32a15.93,15.93,0,0,1-6-2.54v2.77h-2ZM517.71,43c-.46.13-2.32.45-5.58.94l-.33-1.54,2.29-.25V40.6H512.2V39.2h5.6v1.4H516v1.33c.68-.09,1.24-.18,1.68-.26Zm4.91-7.6c-.13.27-.24.5-.35.69h4.37v1.33H524.3l.56.87-1.81.34-.7-1.21h-1a9.15,9.15,0,0,1-1.07,1.16l-1.53-.7a11.15,11.15,0,0,0,2-2.75Zm-2.4,5.73.9-.55c.51.54.93,1,1.28,1.43v-1.9h-2.17v.49C520.23,40.78,520.23,41,520.22,41.15Z"/><path class="cls-8" d="M530.28,44.67a9.77,9.77,0,0,1-1.76,2.27l-1.07-1.34a10.44,10.44,0,0,0,1.48-2,14.22,14.22,0,0,0,1.23-2.53h-2.23V39.39h2.35V37.8c-.85.14-1.55.22-2.08.26l-.32-1.5a24.45,24.45,0,0,0,2.87-.48,14.94,14.94,0,0,0,2.63-.77l.82,1.52a13,13,0,0,1-1.85.56v2H534v1.68h-1.67v.5a11,11,0,0,0,1.79,1.81L533.23,45c-.28-.27-.58-.58-.88-.93v5.5h-2.07Zm12.31.77-1.21.14v3.88h-2.15V45.82l-5.41.63-.06-1.8,5.47-.63V39.34l-1.09,1.31c-1.6-1.72-2.67-2.8-3.19-3.23l1.37-1.49a27.56,27.56,0,0,1,2.91,2.83V35.39h2.15v8.38l1.17-.14Zm-3.89-2.82-1.36,1.6A33.32,33.32,0,0,0,534.13,41l1.29-1.55A28.91,28.91,0,0,1,538.7,42.62Z"/><path class="cls-8" d="M552.09,49.58h-2.21V46.51h-6.25V44.74h6.25V43.69h1.35l-.56-.92a4.16,4.16,0,0,0,2.72-4.2h1.88c0,.56,0,1,0,1.18.32,1.12,1.36,2.17,3.14,3.16l-1.22,1.42a7.45,7.45,0,0,1-2.74-2.41,6.89,6.89,0,0,1-2.32,2v.82h6.55v1.77h-6.55Zm-3.54-11c0,.57,0,1,0,1.28a4.91,4.91,0,0,0,2.2,2.71L549.61,44a5.73,5.73,0,0,1-1.94-1.86,6.71,6.71,0,0,1-3,2.42l-.93-1.36a5.35,5.35,0,0,0,1.55-1,4.27,4.27,0,0,0,1-1.43,5.37,5.37,0,0,0,.36-2.13Zm9.59-.38h-14V36.46h5.79V35.29h2.24v1.17h6Z"/></g></g></svg>