<svg xmlns="http://www.w3.org/2000/svg" viewBox="0 0 580 337"><defs><style>.cls-1{fill:#fff;}.cls-2{fill:#d7d7d7;}.cls-3{fill:#182b7b;}.cls-4{fill:none;stroke:#fff;stroke-miterlimit:10;stroke-width:2.4px;}.cls-5{fill:#b90f52;}.cls-6{fill:#8a8a8a;}.cls-7{fill:#bdbdbd;}</style></defs><title>Asset 4</title><g id="Layer_2" data-name="Layer 2"><g id="デザイン"><rect class="cls-1" x="1.82" y="1.82" width="576.36" height="333.36"/><path class="cls-2" d="M576.36,3.64V333.36H3.64V3.64H576.36M580,0H0V337H580V0Z"/><rect class="cls-3" x="28.75" y="34.2" width="120" height="31.2"/><line class="cls-4" x1="140.35" y1="49.8" x2="153.55" y2="49.8"/><path class="cls-1" d="M29.65,47.39A4.77,4.77,0,0,1,33.7,45c2.53,0,4,1.64,4,4.51v7.12H35.3V49.92c0-1.91-.77-2.86-2.32-2.86a4,4,0,0,0-3.33,2.81v6.79H27.27V45.24h2.38Z"/><path class="cls-1" d="M49.47,45.24v6.7c0,1.87.78,2.88,2.23,2.88A3.88,3.88,0,0,0,55.08,52V45.24h2.46V56.66H55.1V54.49a5,5,0,0,1-4,2.38c-2.65,0-4.06-1.59-4.06-4.55V45.24Z"/><path class="cls-1" d="M68.87,47.31A3.48,3.48,0,0,1,72,45a3.12,3.12,0,0,1,3.25,2.52A3.78,3.78,0,0,1,78.52,45a3.32,3.32,0,0,1,2.76,1.32,5,5,0,0,1,.82,3.19v7.12H79.81V49.81c0-1.72-.69-2.75-1.89-2.75-1,0-2.07,1.16-2.42,2.67v6.93H73.22V49.71c0-1.68-.7-2.65-1.9-2.65s-2.07,1.14-2.43,2.84v6.76H66.6V45.24h2.27Z"/><path class="cls-1" d="M93.75,40.12v7A4.36,4.36,0,0,1,97.51,45c3.09,0,5.3,2.48,5.3,6s-2.13,6-5.34,6a4.7,4.7,0,0,1-3.83-1.86l-.24,1.62h-2V40.12Zm0,12.78A3.69,3.69,0,0,0,96.94,55c2,0,3.33-1.58,3.33-4s-1.37-4.08-3.33-4.08c-1.29,0-2.41.89-3.19,2.53Z"/><path class="cls-1" d="M113,51.36A3.43,3.43,0,0,0,116.65,55a4.51,4.51,0,0,0,3.63-1.72l1.34,1.55A6.6,6.6,0,0,1,116.45,57a5.58,5.58,0,0,1-6-6c0-3.62,2.36-6.14,5.72-6.14,3.16,0,5.38,2.38,5.38,5.75v.7Zm6.08-1.73a2.86,2.86,0,0,0-3-2.88,3.18,3.18,0,0,0-3.08,2.88Z"/><path class="cls-1" d="M132.72,48.42c.69-2.36,1.89-3.47,3.79-3.47a3.38,3.38,0,0,1,1.56.33l-.65,2.21a3.21,3.21,0,0,0-1.18-.2c-1.77,0-3.06,1.45-3.45,3.83v5.54h-2.42V45.24h2.35l-.08,3.18Z"/><path class="cls-5" d="M174.52,48.82c0,5-2.32,8.16-6.09,8.16s-6.09-3.11-6.09-8.16,2.32-8.16,6.09-8.16S174.52,43.77,174.52,48.82Zm-9.55,0c0,3.74,1.33,6,3.46,6s3.46-2.3,3.46-6-1.31-6.09-3.46-6.09S165,45.07,165,48.82Z"/><path class="cls-5" d="M183.55,54.61c.54-2,2.2-3.91,4.84-5.59l.48-.31c2.63-1.69,3.25-2.38,3.25-3.66s-1.22-2.3-2.92-2.3a4.83,4.83,0,0,0-4,2l-1.6-1.39a6.76,6.76,0,0,1,5.7-2.67c3.14,0,5.5,1.87,5.5,4.37a3.81,3.81,0,0,1-1.09,2.9,12.13,12.13,0,0,1-2.78,2l-.35.22-.62.38c-2.32,1.43-3.58,2.71-3.81,3.87H195v2.25H183.55Z"/><path class="cls-6" d="M68,99.46V97h.31a5.83,5.83,0,0,0,2.32.42q4.13,0,4.59-4.11a7.2,7.2,0,0,1-3.58,1.14,5.2,5.2,0,0,1-3.59-1.21,4.31,4.31,0,0,1-1.37-3.41,4.71,4.71,0,0,1,1.64-3.7,6.17,6.17,0,0,1,4.24-1.44A5.79,5.79,0,0,1,77,86.39a7.06,7.06,0,0,1,1.57,5,8.53,8.53,0,0,1-2.08,6.17,8,8,0,0,1-6,2.16A10.81,10.81,0,0,1,68,99.46Zm7.24-7.69c0-.06,0-.2,0-.43s0-.38,0-.49q0-4-2.73-4a2.34,2.34,0,0,0-1.81.75A3,3,0,0,0,70,89.67c0,1.75,1,2.63,2.92,2.63A5.7,5.7,0,0,0,75.24,91.77Z"/><path d="M44.44,133.68c2.24,5.7,7.21,10.53,13.91,13.59l-2.56,3.67c-6.91-3.74-11.56-8.57-13.87-14.41-2.27,6.81-7.06,11.82-14.3,14.85l-2.56-3.46c7.17-2.24,12.21-7.5,13.69-14.24H26.5v-3.53H39.33v-7.42H25.24V119.2H57.71v3.53H43.4v7.42h13v3.53Z"/><path d="M77.63,134.62H71.36v3.46h6.42v3.17H71.36v3.89l.36-.07.58-.07c1.87-.29,3.5-.54,6.31-1.08l.21,3.13c-5.08,1.16-12.14,2.38-17.76,3L60,146.51c3.1-.29,5-.5,7.46-.83l.36,0v-4.4H61v-3.17H67.8v-3.46H61.6V118.48h16Zm-13-9.58h3.28v-3.57H64.66Zm0,6.59h3.28v-3.71H64.66Zm10-10.16H71.22V125h3.39Zm0,6.45H71.22v3.71h3.39Zm19.6-7.53a46.05,46.05,0,0,1-5.8,7c.43.4.65.61,1.66,1.59l-1.66,1.47h5.11L95,132a69.44,69.44,0,0,1-3.28,8.94l-3.39-1.08a36.08,36.08,0,0,0,2.52-6.13H87.51v14.63c0,2.31-.8,3.06-3.35,3.06a34,34,0,0,1-4.33-.29l-.57-3.53a35.18,35.18,0,0,0,3.74.33c.62,0,.76-.18.76-.9v-13.3h-5V130.4h7.82a47.45,47.45,0,0,0-6.24-5.33l2.42-2.16c1.47,1,1.83,1.3,3.31,2.49a31.07,31.07,0,0,0,3-3.75H79.44v-3.17h13Z"/><path d="M132.15,125.07A36.47,36.47,0,0,0,144,132.53l-2.41,3.24c-5.87-2.81-10.23-6.16-13.3-10.23v9.08h-3.74v-9a29.57,29.57,0,0,1-13.08,10.81l-2.31-3A30.37,30.37,0,0,0,121,125.07H110.53v-3.24h13.91v-4.65h3.9v4.65h14v3.24Zm7.25,26.34h-4v-2.3H117.56v2.3h-4V136.06H139.4Zm-21.84-5.55H135.4v-6.63H117.56Z"/><path d="M150.79,135.67a44,44,0,0,1-4,8.68l-2-4a37,37,0,0,0,5.55-12.29h-4.87v-3.5h5.27v-7.42h3.64v7.42h3.27v3.5h-3.27v3.21a27.8,27.8,0,0,1,4.54,4.21l-2.09,3.21a27.38,27.38,0,0,0-2.45-3.25v15.93h-3.64Zm27.2,2.48v3.21h-8.32v5.4h9.94v3.39H156.48v-3.39h9.37v-5.4H158.1v-3.21h7.75V134h3.82v4.18Zm1.41-8.5v3.2H157.31v-3.2h8.54V125h-7.39v-3.28h7.39v-4.58h3.82v4.58h8V125h-8v4.61Z"/><path class="cls-7" d="M208.6,127.48v6.31l5.66-6.31h2.79l-5.54,5.84,6,7.79h-2.76l-4.68-6.48-1.48,1.46v5h-2.17V127.48Z"/><path class="cls-7" d="M220.68,131.18l2.07,6.19.15.44c.08.25.17.52.27.77l.22.66h.05v-.05c.34-.86.39-1,.66-1.77l2.1-6.24h2.34l-4.41,11.16c-.74,1.85-1.83,2.55-4,2.55h-.72l-.58-1.65h1c1.3,0,1.87-.28,2.17-1.07l.36-.91-4.09-10.08Z"/><path class="cls-7" d="M239.65,136.13a5.09,5.09,0,1,1-5.08-5.24A4.94,4.94,0,0,1,239.65,136.13Zm-8,0c0,2.1,1.2,3.55,2.95,3.55s2.93-1.45,2.93-3.55-1.23-3.53-2.93-3.53S231.62,134.07,231.62,136.11Z"/><path class="cls-7" d="M244.09,126.72v8.5l4.08-4h2.68l-3.95,3.89,4.29,6h-2.66l-3.15-4.87-1.29,1.23v3.64H242V126.72Z"/><path class="cls-7" d="M259.16,134.51c0-1.26-.81-1.93-2.34-1.93a5.16,5.16,0,0,0-3.25,1l-.89-1.36a7.33,7.33,0,0,1,4.22-1.35c2.79,0,4.22,1.33,4.22,3.9v3.32a6.7,6.7,0,0,0,.58,3h-1.87a6.56,6.56,0,0,1-.47-1.67h-.07a4.28,4.28,0,0,1-1.41,1.4,4.19,4.19,0,0,1-2.22.54,3.17,3.17,0,0,1-3.42-3.13c0-2.21,1.92-3.39,5.54-3.39h1.38Zm-.88,1.73c-2.67,0-3.89.59-3.89,1.91,0,.94.74,1.56,1.85,1.56a2.85,2.85,0,0,0,2.9-2.64v-.83Z"/><path class="cls-7" d="M276.61,127.41l5.37,13.7h-2.39l-1.4-3.74h-5.57l-1.39,3.74h-2.39l5.37-13.7Zm-.3,4.63c-.27-.74-.76-2.19-.86-2.64h-.07c-.13.53-.52,1.71-.85,2.64l-1.32,3.58h4.39Z"/><path class="cls-7" d="M285.37,133a3.05,3.05,0,0,1,2.71-2,2.73,2.73,0,0,1,2.83,2.19,3.3,3.3,0,0,1,2.86-2.19,2.89,2.89,0,0,1,2.4,1.15,4.37,4.37,0,0,1,.71,2.77v6.2h-2v-6c0-1.5-.6-2.39-1.65-2.39-.89,0-1.8,1-2.1,2.32v6h-2v-6c0-1.47-.61-2.31-1.65-2.31s-1.8,1-2.12,2.47v5.88h-2v-9.93h2Z"/><path class="cls-7" d="M306,134.51c0-1.26-.81-1.93-2.34-1.93a5.18,5.18,0,0,0-3.25,1l-.89-1.36a7.39,7.39,0,0,1,4.23-1.35c2.79,0,4.22,1.33,4.22,3.9v3.32a6.85,6.85,0,0,0,.57,3h-1.87a6.56,6.56,0,0,1-.47-1.67h-.06a4.32,4.32,0,0,1-1.42,1.4,4.14,4.14,0,0,1-2.22.54,3.17,3.17,0,0,1-3.41-3.13c0-2.21,1.91-3.39,5.53-3.39H306Zm-.87,1.73c-2.68,0-3.89.59-3.89,1.91,0,.94.74,1.56,1.85,1.56a2.84,2.84,0,0,0,2.89-2.64v-.83Z"/><path class="cls-7" d="M313.17,133.05a4.14,4.14,0,0,1,3.52-2.06c2.2,0,3.46,1.43,3.46,3.92v6.2h-2.07v-5.86c0-1.66-.67-2.49-2-2.49a3.49,3.49,0,0,0-2.89,2.44v5.91H311.1v-9.93h2.07Z"/><path class="cls-7" d="M332.65,136.13a5.09,5.09,0,1,1-5.09-5.24A4.94,4.94,0,0,1,332.65,136.13Zm-8,0c0,2.1,1.2,3.55,2.94,3.55s2.93-1.45,2.93-3.55-1.23-3.53-2.93-3.53S324.62,134.07,324.62,136.11Z"/><path d="M39.59,233.68A30.66,30.66,0,0,0,40.65,230l3.39.54a31.22,31.22,0,0,1-1.25,3.12h9.74v22.1h-3v-1.87h-14v1.87h-3v-22.1Zm-4.1,5.91h14v-3.42h-14Zm0,5.75h14V242h-14Zm0,6h14v-3.72h-14Z"/><path d="M69.4,242.76c-.71,7-3.31,10.58-9.39,13l-1.87-2.47a11,11,0,0,0,6.78-5.18,16.15,16.15,0,0,0,1.44-5.37H61.72v-1.89a23.74,23.74,0,0,1-3.25,2.82l-1.9-2.28a21.67,21.67,0,0,0,8.25-11.18l2.82,1a25.92,25.92,0,0,1-5.24,8.89H77.48a30.46,30.46,0,0,1-6.59-9L73.57,230a23.93,23.93,0,0,0,9.17,10.33L81,243a25.43,25.43,0,0,1-2.85-2.22l-.24-.22,0,.63c-.16,6.29-.54,11.2-1,12.47s-1.52,1.87-4,1.87c-1.14,0-2.28,0-4-.16l-.54-2.79a30.73,30.73,0,0,0,3.93.3c1.25,0,1.58-.22,1.79-1.2a56.93,56.93,0,0,0,.74-8.87Z"/><path d="M90.31,235.88c.3-1.61.55-2.91.9-5.08l.05-.38,2.9.44c-.35,2.14-.59,3.44-.92,5h1.6c4,0,5.78,1.62,5.78,5.42,0,4-.73,8.62-1.71,10.79a3.46,3.46,0,0,1-3.39,2.42,10.5,10.5,0,0,1-4.69-1.39l.32-2.79a10.52,10.52,0,0,0,3.91,1.22c.62,0,.92-.27,1.27-1.11a27.28,27.28,0,0,0,1.41-8.92c0-2.36-.59-2.93-3.06-2.93h-2a54.21,54.21,0,0,1-6.05,16l-2.66-1.47a50.92,50.92,0,0,0,5.8-14.53H84.45v-2.71ZM106.45,249a42.14,42.14,0,0,0-4.72-10.82l2.58-1.17a45.74,45.74,0,0,1,5,10.71Zm-2-12.69a23.13,23.13,0,0,0-2.66-4.78l2.06-.76a26.61,26.61,0,0,1,2.69,4.69Zm3.55-1.14a22.83,22.83,0,0,0-2.63-4.8l2-.66a17.36,17.36,0,0,1,2.66,4.53Z"/><path d="M122.48,239.51h-7.7v16.27h-2.85V231h10.55Zm-7.7-5.15h5.1V233h-5.1Zm0,3.22h5.1v-1.46h-5.1Zm13.94,16.68a34.12,34.12,0,0,0-4.61-3.85c-1.06,2.23-2.93,3.66-6.07,4.75L116.57,253c3.17-.87,5.21-2.53,5.7-4.61h-6v-2.15h6.24v-1.62H117v-2h2.76a11.59,11.59,0,0,0-1.11-1.93l2.44-.92a17.82,17.82,0,0,1,1.41,2.85h2.66a16.71,16.71,0,0,0,1.3-2.9l2.58.73a16.49,16.49,0,0,1-1.19,2.17h3v2h-5.69v1.62h6.4v2.15H125a35.15,35.15,0,0,1,5.53,3.71Zm7.13-1.08c0,1.76-.7,2.44-2.6,2.44a17.23,17.23,0,0,1-2.36-.16l-.51-2.71a18.28,18.28,0,0,0,2,.16c.46,0,.63-.16.63-.6v-12.8h-7.87V231h10.71Zm-8.08-18.82H133V233h-5.24Zm0,3.22H133v-1.46h-5.24Z"/><path d="M146.87,230.61v6.81c2.76-2.44,5.4-3.58,8.27-3.58a7.69,7.69,0,0,1,5.7,2.31,9.75,9.75,0,0,1,2.49,6.7c0,6.53-2.9,9.6-10.25,10.82L151.67,251c6.54-.92,8.68-2.93,8.68-8.11a7.19,7.19,0,0,0-1.47-4.61,4.64,4.64,0,0,0-3.79-1.71c-2.85,0-4.91,1.14-8.22,4.61v13.75h-2.93V244.69c-1,1.36-2.41,3.23-4.26,5.8l-1.41-3.2a64.32,64.32,0,0,0,5.67-7.18v-2.25H139V235.2h4.91v-4.59Z"/><path d="M168.62,238.8c7.08-1.08,9.17-1.32,11.34-1.32,4.94,0,7.7,2.63,7.7,7.35,0,3.33-1.9,6-5.29,7.37a27.6,27.6,0,0,1-8.51,1.76l-.9-2.65c4-.33,6.62-.82,8.3-1.6a5.6,5.6,0,0,0,3.58-5.13,4.54,4.54,0,0,0-1.19-3.44c-.9-.84-1.82-1.11-3.61-1.11-2.09,0-5.31.43-11.77,1.57l-.59-2.66Z"/><path d="M199.6,234.74c.33-1.41.46-2.15.84-4.26l3,.38c-.25,1.25-.55,2.71-.85,3.88h8.82v2.63H202a96.74,96.74,0,0,1-5.86,17.54l-2.93-1A97.43,97.43,0,0,0,199,237.37h-5.56v-2.63Zm17.25,19.47a37.45,37.45,0,0,1-4.83.3,23.63,23.63,0,0,1-6.53-.76,3.62,3.62,0,0,1-2.61-3.53,4.86,4.86,0,0,1,1.09-2.95l2.36,1.38a2,2,0,0,0-.41,1.14,1.38,1.38,0,0,0,.87,1.35,15.08,15.08,0,0,0,4.39.52,36.07,36.07,0,0,0,5.34-.41Zm-12.42-13.13a103.9,103.9,0,0,1,11.36-.62l.14,2.68a109.5,109.5,0,0,0-11.12.57Z"/><path d="M243.49,248.54a23.87,23.87,0,0,1-3.91,2.58,22.86,22.86,0,0,0,6,2.14l-1.74,2.33c-5.58-1.68-9.65-4.61-11.5-8.24a21.49,21.49,0,0,1-3.22,2.17v3.14c3.33-.59,4.23-.81,6.29-1.33l.08,2.17a71,71,0,0,1-12.07,2.42l-.84-2.36c1.68-.19,2.31-.27,3.63-.46v-2.25a41.39,41.39,0,0,1-5.85,1.7L219,250.33a34.09,34.09,0,0,0,9.9-3.17h-9.36V245H230.9v-1h2.88v1h11.5v2.15h-3.64Zm-17.12-16.62V230H229v1.9h5.26v1.89H229v1.31h6.13V237H229v1.17h5.26v3.9c0,1.25-.33,1.52-2,1.52a13.18,13.18,0,0,1-2.09-.11l-.33-1.81a14.6,14.6,0,0,0,1.55.1c.38,0,.43-.05.43-.46V240H229v4h-2.61v-4h-2.63v3.8h-2.52v-5.56h5.15V237h-6.86v-1.92h2.42L220,233.65a10.39,10.39,0,0,0,2.55-3.5l2.41.52c-.19.46-.35.78-.59,1.25Zm-3.2,1.89a10.46,10.46,0,0,1-1.11,1.31h4.31v-1.31Zm11.75,13.35a13.52,13.52,0,0,0,2.6,2.63,23.07,23.07,0,0,0,3.42-2.63Zm3.63-15.87V240h-2.63v-8.74Zm5.21-1.27v11.39c0,1.87-.57,2.36-2.74,2.36a27.09,27.09,0,0,1-3.12-.19l-.46-2.14a20.86,20.86,0,0,0,2.9.24c.57,0,.71-.14.71-.73V230Z"/><path d="M258.27,255.48h-2.79v-1.35h-4.86v1.65H247.8V243h10.47Zm-7.65-3.87h4.86v-6.08h-4.86Zm17.17-11.21H251.25v-9.54h16.54Zm-13.56-2.46h10.55v-4.53H254.23Zm17,17.84h-2.82v-1.65h-5v1.65h-2.8V243h10.64Zm-7.84-4.17h5V245.5h-5Z"/><path d="M283.2,233.73c.87-1.38,1.33-2.17,1.79-3l3,.43c-.41.7-.44.76-1.41,2.33l-.17.27h9.33v2.61H284.61a47.8,47.8,0,0,1-3.31,4.15,8.86,8.86,0,0,1,4.56-1.5,4.05,4.05,0,0,1,4.2,3.2c2-.65,5.18-1.68,6.92-2.22l1.14,2.58-.46.13-1.33.36c-2.47.67-4.4,1.22-5.91,1.7.1,1.31.18,2.47.21,4.45l-2.9.16c0-1.41,0-1.92-.05-3.41v-.27c-4.05,1.38-6.11,2.79-6.11,4.2s1.79,1.84,6.92,1.84a73,73,0,0,0,7.59-.4l.33,2.82c-2.82.21-4.91.3-7.84.3-3.63,0-5.78-.22-7.29-.76a3.55,3.55,0,0,1-2.64-3.45c0-2.09,1.31-3.69,4.29-5.23a32.92,32.92,0,0,1,4.39-1.87c-.35-1.36-.89-1.87-2-1.87-2,0-5.27,1.76-8.55,4.63l-1.76-2a40,40,0,0,0,6.45-7.54h-5.39v-2.61Z"/><path d="M306.26,255.78h-2.71V244.64c-.6.67-1.09,1.19-1.77,1.87l-1.27-2.61a32.16,32.16,0,0,0,5.61-7.83l2.23,1.27c-.33.7-.47,1-.74,1.46h4.59v-3h-4v-2.44h4V230h2.66v3.33h3.66v2.44h-3.66v3h4.2v2.42H307.53v-2.28c-.38.71-.7,1.25-1.27,2.12Zm-5.75-19.88a20,20,0,0,0,4.88-5.88l2.47,1.22a25.5,25.5,0,0,1-5.94,6.89ZM312.2,242h2.68v2.71h3.93v2.42h-3.93v3.23l.38-.06c1.19-.19,2.31-.41,4.21-.81l.08,2.25a94.61,94.61,0,0,1-12,2.28l-.84-2.5c2-.22,3.31-.38,5.51-.7v-3.69h-4.32v-2.42h4.32Zm12.2,11.34c0,1.57-.73,2.2-2.58,2.2-.67,0-2-.06-2.73-.11l-.63-2.5a18.24,18.24,0,0,0,2.55.19c.52,0,.63-.11.63-.65V241h-1.82v-2.65h6.94V241H324.4ZM326,231.32v2.6h-5.67v-2.6Z"/><path d="M339.32,230h3v4.85h9.81v14h-2.93v-1.84h-6.88v8.73h-3v-8.73H332.6v2h-2.93V234.87h9.65Zm-6.72,14.32h6.72v-6.76H332.6Zm16.59-6.76h-6.88v6.76h6.88Z"/><path d="M356,233.24c7-.08,16.51-.35,23-.62l.16,2.63a19.17,19.17,0,0,0-7.43,1.47,9.33,9.33,0,0,0-5.83,8.43,4.75,4.75,0,0,0,2,4.31c1.58,1.12,3.74,1.82,7,2.23l-.62,3c-4.21-.57-6.92-1.57-8.66-3.17a8,8,0,0,1-2.68-6.27,10.19,10.19,0,0,1,2.44-6.32,11.36,11.36,0,0,1,4.86-3.47c-3,.08-8.79.35-14.11.63Zm19.25,11.42a21.88,21.88,0,0,0-2.63-4.72l2.06-.76a22.89,22.89,0,0,1,2.66,4.67Zm3.58-1.38a20.47,20.47,0,0,0-2.63-4.75l2-.7a16.71,16.71,0,0,1,2.63,4.55Z"/><path d="M399.46,251.47c0,1,.27,1.14,2.19,1.14,2.5,0,3-.14,3.21-.87a15,15,0,0,0,.35-3.44l2.82,1c-.22,5.75-.54,6-6.7,6a10.57,10.57,0,0,1-3.74-.38,2,2,0,0,1-1.11-2v-6.37h-3.64c-.16,2.93-.84,4.86-2.22,6.24a12.68,12.68,0,0,1-6.81,3l-1.57-2.55c5.5-.73,7.4-2.41,7.67-6.7H386V231.1h18.28v15.46h-4.83Zm-10.52-15.89h12.39v-2.23H388.94Zm0,4.31h12.39v-2.25H388.94Zm0,4.42h12.39V242H388.94Z"/><path d="M412.72,245.88a85.64,85.64,0,0,1,1.63-11l2.85.55a53.79,53.79,0,0,0-1.3,7.84,15.64,15.64,0,0,1,8.89-3.2c4.94,0,7.73,2.33,7.73,6.42,0,5.48-4.34,8.08-14,8.41l-1.05-2.74c8.54,0,12-1.65,12-5.69,0-2.55-1.79-4.07-4.78-4.07s-7,1.87-9.71,4.63Zm15.11-9.71a51.15,51.15,0,0,0-11.31-3.41l1.11-2.36a61.1,61.1,0,0,1,11.42,3.14Z"/><path d="M445,230.61v7.49c4.17-4.34,6.18-5.64,8.7-5.64a4.49,4.49,0,0,1,4.61,4.83,8.27,8.27,0,0,1-.16,1.62A79.64,79.64,0,0,0,457,249.16c0,.82.22,1.23.63,1.23.87,0,2.49-1.52,3.79-3.56l1.09,3c-1.44,2.31-3.36,3.63-5.21,3.63a3,3,0,0,1-2.44-1.11,4.69,4.69,0,0,1-.76-3.14,38.92,38.92,0,0,1,.44-5c.13-.92.27-1.87.37-2.82.22-1.6.22-1.66.38-3.45a4.48,4.48,0,0,0,0-.57c0-1.49-.68-2.36-1.79-2.36-1.79,0-4.77,2.58-8.51,7.38v12.5h-2.93v-9.16q-2.52,3.54-4.07,5.86l-1.38-3.15a77,77,0,0,0,5.45-7.24v-3.36h-4.64V235.2h4.64v-4.59Z"/><path d="M48.84,268.6l1.41,2.2c-4.56,2.76-8.84,5.53-11.94,7.65a16.2,16.2,0,0,1,6.57-1.36c5.42,0,8.81,2.68,8.81,7a7,7,0,0,1-4.15,6.4A18.36,18.36,0,0,1,42.11,292c-4.56,0-7.08-1.57-7.08-4.42,0-2.36,2.31-4.23,5.26-4.23,3.26,0,5.45,1.93,6.3,5.59,2.71-.87,4.06-2.5,4.06-4.8,0-3-2.25-4.75-6-4.75a17.8,17.8,0,0,0-7.16,1.36,28.53,28.53,0,0,0-4.42,2.9l-1.88-2.25A108.78,108.78,0,0,1,45.34,271.2H34v-2.6Zm-8.52,17.06c-1.41,0-2.52.84-2.52,1.92,0,1.23,1.63,1.93,4.37,1.93A17.71,17.71,0,0,0,44,289.4C43.38,286.88,42.19,285.66,40.32,285.66Z"/><path d="M77.81,270a23.72,23.72,0,0,0-2.23-2L77.7,267a16.75,16.75,0,0,1,2.57,2.15l-1.62.86h2.76v2.23H74.63A20.76,20.76,0,0,0,76,277.52a27.24,27.24,0,0,0,3-4.31l2.2,1.19a32.67,32.67,0,0,1-4,5.35c.67.92,1.62,1.71,2,1.71s.43-.52.71-2.34l.08-.4,0-.25,2.31,1.3a12,12,0,0,1-.89,3.39c-.47,1-1,1.44-1.71,1.44-1.17,0-3-1.19-4.51-2.9A23.08,23.08,0,0,1,72,284.14l-1-1.14h-8.6v-5.8H71v4.61a24.52,24.52,0,0,0,2.93-2.23,23.13,23.13,0,0,1-2.12-7.37H60.91v3.06c0,5.54-.33,7.33-1.87,9.9l-2.44-1.79c1-1.73,1.46-4,1.46-7.84V270H71.54c-.08-.7-.16-1.71-.22-2.84h2.82c.09,1.3.11,1.87.22,2.84ZM57.22,290.81a18.12,18.12,0,0,0,2.14-5.58l2.69.78a16.7,16.7,0,0,1-2.25,6.51Zm14-17.19v2.09H61.78v-2.09ZM67,285.33v3.72c0,.57.11.76.46.87a14,14,0,0,0,2.8.19c2.63,0,3.39-.14,3.58-.6a12.46,12.46,0,0,0,.32-2.41l2.85.76a17.19,17.19,0,0,1-.38,2.82c-.43,1.63-1.44,1.92-6.4,1.92-5.24,0-6.1-.32-6.1-2.25v-5Zm-2.19-4.28H68.5v-1.87H64.82Zm5.58,7.76a23.86,23.86,0,0,0-2.9-3.88l2-1.28a17.13,17.13,0,0,1,3.12,3.61Zm9.68,3a30.34,30.34,0,0,0-3.36-5.92l2.41-1.27a22.69,22.69,0,0,1,3.53,5.42Z"/><path d="M101.68,267.14h2.65l-.1,5.61h5c-.08,8.92-.46,15.38-1,17.66-.43,1.65-1.24,2.19-3.28,2.19a18.21,18.21,0,0,1-2.82-.19l-.51-2.79a12.8,12.8,0,0,0,2.68.3c1,0,1.25-.25,1.47-1.36a92.23,92.23,0,0,0,.84-12.42l0-.79h-2.55c-.3,8.33-2.11,13.78-5.94,17.58L96,291.25A11.58,11.58,0,0,0,97,290.16c-4.07.76-8.73,1.41-12.69,1.79l-.6-2.49c2.25-.14,3.91-.28,4.61-.33L90,289v-1.85h-5.7V285H90v-1.52H84.92v-8.71H90v-1.46H83.88v-2.06H90v-1.17c-1.14.11-3,.24-4.56.32l-1-2A67.52,67.52,0,0,0,95.82,267L97.34,269a41.6,41.6,0,0,1-4.75.87v1.47h5.94v1.46h3ZM87.19,276.6v1.68h2.88V276.6Zm0,3.31v1.82h2.88v-1.82Zm5.32-1.63h3V276.6h-3Zm0,3.45h3v-1.82h-3Zm6-6.38v-2H92.59v1.46h5.15v8.71H92.59V285h5.48v2.08H92.59v1.58c2.14-.19,3.31-.35,5.42-.68l.52-.08c1.71-3.12,2.66-7.24,2.9-12.59Z"/><path d="M117.44,273c.3-1.6.54-2.9.89-5.07l.06-.38,2.9.44c-.35,2.14-.6,3.44-.92,5H122c4,0,5.77,1.63,5.77,5.43,0,4-.73,8.62-1.7,10.79a3.47,3.47,0,0,1-3.39,2.42,10.54,10.54,0,0,1-4.7-1.39l.33-2.79a10.54,10.54,0,0,0,3.9,1.22c.63,0,.93-.27,1.28-1.11a27.6,27.6,0,0,0,1.41-8.92c0-2.36-.6-2.93-3.06-2.93h-2a53.93,53.93,0,0,1-6,16l-2.66-1.47a50.77,50.77,0,0,0,5.81-14.53h-5.29V273Zm16.13,13.08a41.76,41.76,0,0,0-4.71-10.82l2.57-1.17a45.55,45.55,0,0,1,5,10.71Zm-1.95-12.7A22.42,22.42,0,0,0,129,268.6l2.07-.76a26.56,26.56,0,0,1,2.68,4.69Zm3.56-1.13a22.94,22.94,0,0,0-2.64-4.81l2-.65a17.36,17.36,0,0,1,2.66,4.53Z"/><path d="M147.22,270.91c.16-1.39.35-2.77.43-3.29l2.93.3,0,.22-.11.68-.11.89-.14.9,0,.3h11v2.6H149.88l0,.24c0,.11,0,.41,0,.74l-.08.94-.09.85,0,.27a18.76,18.76,0,0,1,3.25-.27c5.94,0,9.71,2.93,9.71,7.54,0,4.42-2.93,7-9.22,8.13l-1.27-2.33c5.09-.84,7.51-2.74,7.51-5.94a4.64,4.64,0,0,0-2.44-4.26,27.9,27.9,0,0,1-7.71,8.71c-2.54,1.87-4.2,2.57-6.12,2.57-2.45,0-3.85-1.6-3.85-4.39,0-3.82,2.82-7.35,7.21-9.06l0-.35c.13-1.9.19-2.47.27-3.39H140.6v-2.6Zm-5,15.29c0,1.38.51,2.09,1.52,2.09a5.84,5.84,0,0,0,3.25-1.44,36.32,36.32,0,0,1-.41-5.56c0-.21,0-.76,0-1.35C143.88,281.37,142.18,283.82,142.18,286.2Zm7.21-5.56a39.39,39.39,0,0,0,.19,4.1,23.85,23.85,0,0,0,4.91-6.1,16.71,16.71,0,0,0-1.71-.11,13.68,13.68,0,0,0-3.36.4C149.39,279.69,149.39,280.26,149.39,280.64Z"/><path d="M176.84,279.29c-1.6,3-3.42,4.77-4.88,4.77-1.84,0-2.88-2.69-2.88-7.38a50.43,50.43,0,0,1,.9-8.35l2.9.43a41.47,41.47,0,0,0-.87,7.57c0,2.74.22,4.18.6,4.18s1.57-1.52,2.55-3.45Zm-2,10.36c6.16-1.71,8.66-5.1,8.66-11.77a66.7,66.7,0,0,0-.82-9.55l3-.3a67.17,67.17,0,0,1,.87,10c0,7.84-2.74,11.66-10.17,14.13Z"/><path d="M207.52,267.76v3.34h8.33v2.52h-8.33v3.14h7.87v2.5h-7.87v4.09a38.38,38.38,0,0,1,9.3,4.78l-1.57,2.52a41,41,0,0,0-7.73-4.58c-.19,4.07-1.93,5.66-6.16,5.66s-6.91-1.79-6.91-4.58,2.82-4.66,7.56-4.66a17.15,17.15,0,0,1,2.58.19v-3.42h-9.38v-2.5h9.38v-3.14h-10V271.1h10v-3.34Zm-2.93,17.38a17.24,17.24,0,0,0-3-.32c-2.58,0-4.18.87-4.18,2.28s1.52,2.17,3.77,2.17c2.42,0,3.42-1.06,3.42-3.61Z"/><path d="M236.52,267.68v3.66h7.81v2.55h-7.81v5.67a10.32,10.32,0,0,1,.46,2.9c0,3.17-.68,5.45-2.09,6.94-1.57,1.68-3.66,2.72-6.81,3.34l-1.52-2.25c4.5-.84,6.68-2.34,7.41-5.07a4.37,4.37,0,0,1-3.39,1.54c-3.2,0-5.16-2.09-5.16-5.5a5.42,5.42,0,0,1,5.59-5.62,5,5,0,0,1,2.52.65v-2.6H220.46v-2.55h13.07v-3.66Zm-2.88,13.26a2.56,2.56,0,0,0-2.55-2.71,3,3,0,0,0-2.79,3.2c0,1.9,1.08,3.15,2.71,3.15s2.63-1.36,2.63-3.15Z"/><path d="M261.55,268.22l-.65,17.14h-2.76l-.65-17.14Zm0,19.53v4.07h-4.06v-4.07Z"/></g><g id="テキスト"><path class="cls-1" d="M29.84,47.5a4.72,4.72,0,0,1,4-2.34c2.51,0,3.95,1.63,3.95,4.47V56.7H35.44V50c0-1.9-.77-2.84-2.3-2.84A4,4,0,0,0,29.84,50V56.7H27.47V45.37h2.37Z"/><path class="cls-1" d="M49.52,45.37V52c0,1.86.76,2.86,2.2,2.86a3.85,3.85,0,0,0,3.36-2.82V45.37h2.44V56.7H55.1V54.55a4.94,4.94,0,0,1-4,2.36c-2.63,0-4-1.58-4-4.51v-7Z"/><path class="cls-1" d="M68.77,47.42a3.49,3.49,0,0,1,3.09-2.26,3.1,3.1,0,0,1,3.23,2.5,3.76,3.76,0,0,1,3.26-2.5,3.34,3.34,0,0,1,2.75,1.3,5.06,5.06,0,0,1,.8,3.17V56.7H79.64V49.9c0-1.71-.69-2.72-1.88-2.72-1,0-2.06,1.15-2.4,2.64V56.7H73.09V49.81c0-1.68-.69-2.63-1.88-2.63s-2,1.13-2.42,2.82v6.7H66.53V45.37h2.24Z"/><path class="cls-1" d="M93.48,40.28v7a4.34,4.34,0,0,1,3.73-2.15c3.07,0,5.26,2.46,5.26,5.93S100.36,57,97.17,57a4.66,4.66,0,0,1-3.8-1.84l-.23,1.61h-2V40.28Zm0,12.69a3.66,3.66,0,0,0,3.17,2.08c2,0,3.3-1.58,3.3-4s-1.36-4-3.3-4c-1.29,0-2.4.89-3.17,2.52Z"/><path class="cls-1" d="M112.61,51.44a3.4,3.4,0,0,0,3.6,3.61,4.51,4.51,0,0,0,3.61-1.71l1.33,1.53A6.56,6.56,0,0,1,116,57a5.54,5.54,0,0,1-5.91-5.91c0-3.59,2.34-6.09,5.68-6.09,3.13,0,5.34,2.37,5.34,5.71v.69Zm6-1.71a2.82,2.82,0,0,0-2.93-2.86,3.16,3.16,0,0,0-3.06,2.86Z"/><path class="cls-1" d="M132.17,48.52c.69-2.34,1.88-3.44,3.76-3.44a3.38,3.38,0,0,1,1.56.33l-.66,2.19a3.09,3.09,0,0,0-1.17-.19c-1.74,0-3,1.44-3.41,3.8V56.7h-2.4V45.37h2.32l-.08,3.15Z"/><path class="cls-6" d="M38.41,99.42H27.76V97.19a36.74,36.74,0,0,0,5.44-4.74,5,5,0,0,0,1.39-3,2,2,0,0,0-.67-1.6,2.76,2.76,0,0,0-1.84-.57,6.78,6.78,0,0,0-3.72,1.27h-.23V85.9A12.26,12.26,0,0,1,32.56,85a6,6,0,0,1,3.86,1.09,3.72,3.72,0,0,1,1.35,3.06,5.9,5.9,0,0,1-1.1,3.21,23.81,23.81,0,0,1-5.12,4.77h6.86Z"/><path class="cls-6" d="M45.84,99.72A5,5,0,0,1,41.61,98q-1.34-1.75-1.34-5.61c0-2.55.45-4.42,1.35-5.59A5,5,0,0,1,45.84,85a5,5,0,0,1,4.22,1.75q1.35,1.77,1.35,5.59T50.07,98A5,5,0,0,1,45.84,99.72Zm0-12.53A1.93,1.93,0,0,0,44,88.42a10.09,10.09,0,0,0-.57,4A9.76,9.76,0,0,0,44,96.3a2,2,0,0,0,3.73,0,9.85,9.85,0,0,0,.58-3.93,10,10,0,0,0-.56-3.93A1.94,1.94,0,0,0,45.84,87.19Z"/><path class="cls-6" d="M63.71,99.42h-9V97.35h3V89.18h-3v-1.9a5,5,0,0,0,2.54-.5,2,2,0,0,0,.87-1.52h2.61V97.35h3Z"/><path class="cls-6" d="M101.57,96.5H95.05v4H92.36v-4H84V94.26h2.42V90.83c-.37.38-.76.75-1.17,1.1l-1.8-1.63a16.12,16.12,0,0,0,2.87-3.38A14.75,14.75,0,0,0,88.2,83l2.68.4a15.82,15.82,0,0,1-.59,1.7h10.84v2.17H95.05v2.19h5.37v2.17H95.05v2.63h6.52ZM89.19,87.27a21.38,21.38,0,0,1-1.53,2.19h4.7V87.27Zm-.1,7h3.27V91.63H89.09Z"/><path class="cls-6" d="M112.24,92.87a13.56,13.56,0,0,1-3.08,4.32,18.36,18.36,0,0,1-5,3.23l-1.29-2.09a13.14,13.14,0,0,0,5.4-4,11.93,11.93,0,0,0,2.45-6.06v-2l-4.65,0V84.08h7.4c0,.15,0,.32,0,.5v1.71a15.89,15.89,0,0,0,.34,3.31,10.82,10.82,0,0,0,1.27,3.08,12.87,12.87,0,0,0,2.36,2.94,20.11,20.11,0,0,0,3.49,2.57l-1.84,2.19a23.15,23.15,0,0,1-4.44-3.82A15.73,15.73,0,0,1,112.24,92.87Z"/><path class="cls-6" d="M127.22,100.48h-2.36V94.09a16.24,16.24,0,0,1-2.11,1.53l-1-1.77a14.07,14.07,0,0,0,3.06-2.66,11.69,11.69,0,0,0,2-3.17h-4.26V85.94h2.36V83.56h2.38v2.38h2.21l.5.52a15.2,15.2,0,0,1-2.51,4.87,31.76,31.76,0,0,0,3,2.33l-1.19,2c-.76-.59-1.44-1.17-2.06-1.74Zm13.14-.56H128.74V97.63h4.6V90.51h-3.68v-2.2h3.68V83.64H136v4.67h3.84v2.2H136v7.12h4.34Z"/><path class="cls-6" d="M41.23,208.11l-8.52.77-.34-2,2.21-.13v-.91c-1.13.33-2.36.62-3.7.87l-.62-1.9a29.09,29.09,0,0,0,5-1.3H31v-1.87h7.14v-1h2.61v1h7.35v1.87H46.45l1.29,1a17,17,0,0,1-2.75,1.3,28.37,28.37,0,0,0,3.83,1l-1.28,2q-5.88-1-8.48-5c-.56.32-1.21.64-1.93,1v1.76c1.95-.15,3.3-.27,4-.36Zm.24-9.29a1.27,1.27,0,0,1-.5,1.05,1.94,1.94,0,0,1-1.24.39H38.38l-.19-1.46h.74c.27,0,.4-.1.4-.31v-.36H37.82v3H35.34v-3H33.9v2.34H31.56v-3.59h3.78v-.63H30.92V195h.87l-1-.61a11.33,11.33,0,0,0,2.13-2.54l2,.36c-.16.31-.3.57-.42.77h.84v-1.15h2.48v1.15H41.2v1.37H37.82V195h4v1.29h-4v.63h3.65Zm-8.06-4.51c-.24.24-.47.45-.69.65h2.62v-.65Zm12,9.18H41.52a11.94,11.94,0,0,0,1.37,1.22A27.28,27.28,0,0,0,45.43,203.49Zm-1-5.22H42.16v-6h2.26Zm3.15,1.12a1.41,1.41,0,0,1-.59,1.17,2.28,2.28,0,0,1-1.44.46H43.33L43,199h1.65c.32,0,.48-.13.48-.38v-6.84h2.4Z"/><path class="cls-6" d="M68.08,206.53l-.43,2.08-6.25,0a31,31,0,0,1-6-.4,4.1,4.1,0,0,1-2.18-1.48,12.4,12.4,0,0,1-3,2.16l-.86-2.24a8.26,8.26,0,0,0,2.5-1.48v-4.74h-2v-2h4.44v6.23a1.49,1.49,0,0,0,.79,1.28,4.38,4.38,0,0,0,2,.62c.81.07,2.45.11,4.9.11C65.09,206.67,67.13,206.62,68.08,206.53Zm-13.4-10.8-2.35,1.2a19.66,19.66,0,0,0-1.14-1.88c-.6-.91-1-1.56-1.35-1.93L52,192A34.34,34.34,0,0,1,54.68,195.73Zm4.55-3.3c-.14.46-.3.92-.49,1.39h1.12V192h2.61v1.85h4.17v1.85H62.47v1.76h4.86v1.9H54.81v-1.9h5v-1.76h-2a12.62,12.62,0,0,1-1.16,1.71l-2.2-1a13.7,13.7,0,0,0,2.37-4.3Zm-3.38,13.24v-5.43H66.52v5.43Zm2.42-1.8H64V202H58.27Z"/><path class="cls-6" d="M75.57,196.51l-6.44,0v-1.84l6.44,0ZM75,208H71.52v.7h-2v-6.34H75Zm0-14.14H69.75v-1.63H75ZM74.87,199h-5.1v-1.6h5.1Zm0,2.52h-5.1v-1.61h5.1ZM73,206.38v-2.32H71.59v2.32Zm7-1.23a16.74,16.74,0,0,1-3.77,3.1l-1.11-1.88A15,15,0,0,0,79,202.78H75.57v-2H80v-1H76.33v-7.6h9.79v7.6H82.31v1H87v2H83.35a17.27,17.27,0,0,0,4.07,3.31l-1.32,2.06a15.51,15.51,0,0,1-3.79-3.32v4H80Zm-1.32-9.81H80v-1.26H78.68ZM80,196.73H78.68V198H80Zm2.25-1.39H83.7v-1.26H82.29Zm1.41,1.39H82.29V198H83.7Z"/><path class="cls-6" d="M104.08,193,97,210.82H94.45L101.54,193Z"/><path class="cls-6" d="M114.7,198.22l-.74-2.28,2.36-.36a23.49,23.49,0,0,1,1,2.64h1V195.4h-5.33v-2h3.74l-.77-1.43,2.5-.53,1.06,2h3.48l1.14-2,2.57.57-1,1.43h4v2h-5.44v2.82h1c.5-1.26.85-2.18,1-2.74l2.46.52a23.94,23.94,0,0,1-1,2.22h2.47v2H112.4v-2Zm13.57,10.45h-2.64v-.54h-8.81v.54h-2.66V201h14.11Zm-2.64-4.92v-1h-8.81v1Zm0,2.58v-1.06h-8.81v1.06Zm-5.07-8.11h1.38V195.4h-1.38Z"/><path class="cls-6" d="M149.83,207l-.42,2H149l-5.86.06a30.55,30.55,0,0,1-6-.41,4.17,4.17,0,0,1-2.18-1.48,12.46,12.46,0,0,1-3,2.17l-.86-2.24a7.7,7.7,0,0,0,2.3-1.35v-4.86H131.6v-2.05h4.26v6.34a1.42,1.42,0,0,0,.31.92,2.29,2.29,0,0,0,.93.64,6.23,6.23,0,0,0,1.79.34c.77.05,2.22.07,4.36.07C146.64,207.13,148.84,207.09,149.83,207Zm-13.47-10.7-2.36,1q-.37-.8-2.36-3.9l2.15-1A32.24,32.24,0,0,1,136.36,196.29Zm9.73,7H144v3.13H141.6v-3.13h-2v3.19h-2.44V195.9h3.24l-2.13-1.24,1-.91h-2.34V192h10.69l1,1.25a17.44,17.44,0,0,1-3.83,2.67h3.81v8.89A1.41,1.41,0,0,1,148,206a2.55,2.55,0,0,1-1.52.44h0l-1.84,0-.19-2h1.23c.33,0,.49-.16.49-.46Zm-4.49-4.45v-1.17h-2v1.17Zm-2,2.77h2v-1.21h-2Zm.88-7.82,2.27,1.38a18.15,18.15,0,0,0,2.11-1.38Zm3.52,3.88v1.17h2.12v-1.17Zm0,3.94h2.12v-1.21H144Z"/><path class="cls-6" d="M153.89,203a12.66,12.66,0,0,1-2.11,2.72l-1.29-1.61a13.07,13.07,0,0,0,1.77-2.4,16.77,16.77,0,0,0,1.48-3h-2.68v-2h2.83v-1.91c-1,.16-1.86.27-2.5.32l-.38-1.81a27.82,27.82,0,0,0,3.44-.57,17.89,17.89,0,0,0,3.15-.93l1,1.83a17.81,17.81,0,0,1-2.22.67v2.4h2v2h-2v.6a13,13,0,0,0,2.15,2.16l-1.1,1.93a14.34,14.34,0,0,1-1-1.11v6.61h-2.48Zm14.76.92-1.45.17v4.65h-2.58v-4.36l-6.49.75-.07-2.16,6.56-.76v-5.61l-1.3,1.57a52.62,52.62,0,0,0-3.83-3.87l1.64-1.79a30.59,30.59,0,0,1,3.49,3.39v-4h2.58v10l1.41-.17ZM164,200.54l-1.63,1.93a39,39,0,0,0-3.86-3.92l1.55-1.86A35.71,35.71,0,0,1,164,200.54Z"/><path class="cls-6" d="M180.06,208.9h-2.65v-3.69H169.9v-2.13h7.51v-1.25H179l-.67-1.11a5,5,0,0,0,3.27-5h2.26c0,.66,0,1.13,0,1.41.37,1.35,1.63,2.61,3.76,3.79l-1.46,1.71a8.86,8.86,0,0,1-3.29-2.9,8.37,8.37,0,0,1-2.78,2.41v1h7.86v2.13h-7.86Zm-4.25-13.21a14.62,14.62,0,0,1-.06,1.54,5.85,5.85,0,0,0,2.64,3.24l-1.31,1.67a7,7,0,0,1-2.33-2.23,8,8,0,0,1-3.6,2.9L170,201.18A7.05,7.05,0,0,0,171.9,200a5,5,0,0,0,1.2-1.72,6.38,6.38,0,0,0,.44-2.55Zm11.51-.46H170.48v-2.07h7v-1.41h2.69v1.41h7.2Z"/></g></g></svg>