<svg xmlns="http://www.w3.org/2000/svg" viewBox="0 0 580 337"><defs><style>.cls-1{fill:#fff;}.cls-2{fill:#d7d7d7;}.cls-3{fill:#182b7b;}.cls-4{fill:none;stroke:#fff;stroke-miterlimit:10;stroke-width:2.4px;}.cls-5{fill:#b90f52;}.cls-6{fill:#8a8a8a;}.cls-7{fill:#bdbdbd;}</style></defs><title>Asset 1</title><g id="Layer_2" data-name="Layer 2"><g id="デザイン"><rect class="cls-1" x="1.82" y="1.82" width="576.36" height="333.36"/><path class="cls-2" d="M576.36,3.64V333.36H3.64V3.64H576.36M580,0H0V337H580V0Z"/><rect class="cls-3" x="28.75" y="34.2" width="120" height="31.2"/><line class="cls-4" x1="140.35" y1="49.8" x2="153.55" y2="49.8"/><path class="cls-5" d="M173.17,48.85c0,5-2.3,8.1-6,8.1s-6-3.09-6-8.1,2.3-8.1,6-8.1S173.17,43.84,173.17,48.85Zm-9.48,0c0,3.71,1.32,6,3.43,6s3.44-2.28,3.44-6-1.3-6-3.44-6S163.69,45.13,163.69,48.85Z"/><path class="cls-5" d="M191.4,41V51h2.78v2H191.4v3.59h-2.34V53h-7.8v-2L188.48,41Zm-2.34,5.61c0-.79.05-2.37.13-3.48h-.08A20,20,0,0,1,187.56,46L184,51h5.07Z"/><path class="cls-6" d="M38.47,99.44H27.82V97.22a37,37,0,0,0,5.43-4.75,4.89,4.89,0,0,0,1.39-3,2,2,0,0,0-.67-1.6,2.76,2.76,0,0,0-1.84-.57,6.81,6.81,0,0,0-3.71,1.27h-.24V85.92A12.27,12.27,0,0,1,32.62,85a6,6,0,0,1,3.85,1.09,3.7,3.7,0,0,1,1.36,3.06,6,6,0,0,1-1.1,3.21,24.19,24.19,0,0,1-5.13,4.77h6.87Z"/><path class="cls-6" d="M45.89,99.74A5,5,0,0,1,41.67,98q-1.35-1.76-1.35-5.61t1.35-5.59A5,5,0,0,1,45.89,85a5,5,0,0,1,4.22,1.76q1.35,1.75,1.35,5.58T50.12,98A5,5,0,0,1,45.89,99.74Zm0-12.53A1.93,1.93,0,0,0,44,88.45a10,10,0,0,0-.57,3.94A9.94,9.94,0,0,0,44,96.32a2,2,0,0,0,3.74,0,10.1,10.1,0,0,0,.58-3.94,10,10,0,0,0-.57-3.93A1.93,1.93,0,0,0,45.89,87.21Z"/><path class="cls-6" d="M63.76,99.44h-9V97.37h3V89.2h-3V87.31a5,5,0,0,0,2.54-.51,2,2,0,0,0,.87-1.52H60.8V97.37h3Z"/><path class="cls-6" d="M67.42,99.51V97.1h.29a5.14,5.14,0,0,0,2.16.42q3.85,0,4.29-4a6.49,6.49,0,0,1-3.34,1.12,4.73,4.73,0,0,1-3.35-1.18,4.34,4.34,0,0,1-1.27-3.35,4.71,4.71,0,0,1,1.52-3.63,5.59,5.59,0,0,1,4-1.41,5.24,5.24,0,0,1,4.17,1.66,7.17,7.17,0,0,1,1.47,4.88,8.66,8.66,0,0,1-1.94,6.05,7.22,7.22,0,0,1-5.61,2.12A9.5,9.5,0,0,1,67.42,99.51ZM74.17,92c0-.06,0-.2,0-.42s0-.37,0-.48q0-3.93-2.55-3.93a2.13,2.13,0,0,0-1.68.73,3,3,0,0,0-.64,2c0,1.72.9,2.58,2.72,2.58A5,5,0,0,0,74.17,92Z"/><path class="cls-6" d="M101.62,96.52H95.1v4H92.41v-4H84.09V94.28h2.42V90.85Q86,91.42,85.34,92l-1.8-1.64a16.12,16.12,0,0,0,2.87-3.38A14.75,14.75,0,0,0,88.25,83l2.68.4c-.19.64-.38,1.21-.58,1.7h10.83v2.17H95.1v2.19h5.37v2.17H95.1v2.63h6.52ZM89.24,87.29a21.38,21.38,0,0,1-1.53,2.19h4.7V87.29Zm-.09,7h3.26V91.65H89.15Z"/><path class="cls-6" d="M112.29,92.89a13.72,13.72,0,0,1-3.08,4.33,18.58,18.58,0,0,1-5,3.22l-1.29-2.09a13.14,13.14,0,0,0,5.4-4,11.93,11.93,0,0,0,2.45-6.06V86.37l-4.65,0V84.1h7.4c0,.16,0,.32,0,.51v1.7a15.89,15.89,0,0,0,.34,3.31,11,11,0,0,0,1.27,3.09,12.77,12.77,0,0,0,2.36,2.93A19.61,19.61,0,0,0,121,98.21l-1.84,2.19a22.85,22.85,0,0,1-4.44-3.82A15.73,15.73,0,0,1,112.29,92.89Z"/><path class="cls-6" d="M127.27,100.5h-2.36V94.11a17,17,0,0,1-2.11,1.53l-1-1.77a14.3,14.3,0,0,0,3.06-2.65,11.89,11.89,0,0,0,2-3.18h-4.26V86H125V83.58h2.38V86h2.21l.5.51a15.3,15.3,0,0,1-2.51,4.87,31.76,31.76,0,0,0,3,2.33l-1.19,2c-.76-.59-1.44-1.17-2.06-1.74Zm13.14-.56H128.79V97.66h4.59V90.53h-3.67v-2.2h3.67V83.66h2.69v4.67h3.84v2.2h-3.84v7.13h4.34Z"/><path d="M40.43,117.88h3.9v5.82h13.4V148c0,2.68-1.11,3.54-4.51,3.54-2.46,0-4.39-.08-6.14-.18l-.72-3.72c2.25.14,4.93.25,6.51.25.75,0,.92-.18.92-1V127.27h-9.5v.36a19.59,19.59,0,0,1-.36,2.79A56.22,56.22,0,0,1,53.19,140l-3,2.76A72.71,72.71,0,0,0,42.93,134a19.34,19.34,0,0,1-9,9.9l-2.28-3.07c5.71-3.11,8.43-7.29,8.79-13.55H31.25v24.55H27.32V123.7H40.43Z"/><path d="M88,132.78A18.18,18.18,0,0,0,89.39,135h5.43v2.64H92A25,25,0,0,0,95.71,140l-2,2.76a20.92,20.92,0,0,1-1.86-1.22,18,18,0,0,1-2.68,2.54l-2-2a16.68,16.68,0,0,0,2.43-2.4,21.2,21.2,0,0,1-1.89-2H81.2A16.39,16.39,0,0,1,79.27,140a19,19,0,0,1,2.26,2.14l-2.11,2.25c-1-1.07-1.72-1.75-2.36-2.32-.22.18-.5.43-1.61,1.25l-1.79-2.18v7.4c0,2.54-.71,3.29-3.1,3.29a22.55,22.55,0,0,1-3.36-.22l-.61-3.21a16.93,16.93,0,0,0,2.89.25c.83,0,1-.18,1-.93v-5.86h-4a18.22,18.22,0,0,1-3.08,10.07l-2.57-2.61c1.75-2.6,2.43-5.35,2.43-9.82V126.7H73.66v14.12a18.35,18.35,0,0,0,3.58-3.15H74.41V135H79.2a20.6,20.6,0,0,0,1.22-2.25H75V130.2h2l-.1-.25-.08-.17a23,23,0,0,0-1.28-2.33l3-1.1c.39.78,1,2.35,1.6,3.85h1.18a28.29,28.29,0,0,0,1-4.53l3.33.32a30,30,0,0,1-1,4.21h2a26.1,26.1,0,0,0,2.14-3.93L92,127.35a24.21,24.21,0,0,1-1.82,2.85h3.5v2.58Zm-17.4-14.9h3.75v2.53h7.54v-2.53h3.82v2.53h9.18v3H85.67v1.79H81.85v-1.79H74.31v2.22H70.56v-2.22H61.62v-3h8.94Zm-4,15.11h4v-3.32h-4Zm0,6.15h4V135.6h-4Zm7.79,8.29a31.38,31.38,0,0,0,6.46-3.15l.83,2.61-.58.36a39.2,39.2,0,0,1-5.53,3.11Zm11.61-8.69V149c0,2-.75,2.76-2.61,2.76a31.65,31.65,0,0,1-3.57-.22l-.54-3a18.25,18.25,0,0,0,2.65.28c.68,0,.82-.18.82-1v-9.15Zm-2-6a20.91,20.91,0,0,1-1,2.25h3a20.65,20.65,0,0,1-1.07-2.25Zm9,17.61a48.91,48.91,0,0,0-6.36-4.11l1.79-2.21,1.14.57a38,38,0,0,1,5.33,3Z"/><path d="M139,129.38v18.9c0,2.47-1,3.33-3.82,3.33-1.4,0-4-.11-5.79-.22l-.79-3.53a51.85,51.85,0,0,0,5.43.32c.9,0,1.07-.18,1.07-1.15v-3.14H121.4v7.93h-3.93V134.28a33,33,0,0,1-5.61,4.53l-2.39-3a29.2,29.2,0,0,0,10.25-10.33h-9.64v-3.21h11.11a34.11,34.11,0,0,0,1.46-4.58l4.08.47a41.19,41.19,0,0,1-1.36,4.11h18.15v3.21H123.94a33,33,0,0,1-2.32,3.93Zm-17.62,5.79h13.72v-2.72H121.4Zm0,5.86h13.72v-3H121.4Z"/><path d="M176.18,136.42H164.39v3.68H177v3.15H164.39v4.18h14.79v3.18H146v-3.18h14.58v-4.18h-12.4V140.1h12.4v-3.68H149V119.2h27.19Zm-23.33-10.11h7.68V122.2h-7.68Zm0,7.11h7.68V129.2h-7.68Zm19.44-11.22h-7.9v4.11h7.9Zm0,7h-7.9v4.22h7.9Z"/><path class="cls-7" d="M207.19,128.09l3.48,5.57,3.49-5.57h2.69l-5.09,7.41v6.1h-2.15v-6.1l-5.11-7.41Z"/><path class="cls-7" d="M220.49,131.76v5.77c0,1.62.67,2.49,1.92,2.49a3.35,3.35,0,0,0,2.92-2.45v-5.81h2.12v9.84h-2.1v-1.87a4.27,4.27,0,0,1-3.47,2.06c-2.29,0-3.51-1.37-3.51-3.92v-6.11Z"/><path class="cls-7" d="M232.42,134.49c.6-2,1.63-3,3.27-3a2.94,2.94,0,0,1,1.35.28l-.57,1.9a3,3,0,0,0-1-.16c-1.52,0-2.63,1.25-3,3.3v4.77H230.4v-9.84h2l-.07,2.73Z"/><path class="cls-7" d="M241.05,127.69v2.13h-2.32v-2.13Zm-.11,4.07v9.84h-2.11v-9.84Z"/><path class="cls-7" d="M253.19,128.09l4.34,7.12.12.18a28.82,28.82,0,0,1,1.55,2.93h.07c0-1.14-.09-3.21-.09-4.48v-5.75h2.09V141.6h-2.14L254,133.33a31.7,31.7,0,0,1-1.64-3h-.08c.08,1.12.13,2.92.13,4.77v6.54h-2.09V128.09Z"/><path class="cls-7" d="M270.5,135.06c0-1.25-.8-1.92-2.31-1.92a5.11,5.11,0,0,0-3.22,1l-.89-1.35a7.33,7.33,0,0,1,4.19-1.34c2.77,0,4.19,1.32,4.19,3.87v3.29a6.72,6.72,0,0,0,.56,2.95h-1.85a6.26,6.26,0,0,1-.47-1.65h-.06a4.42,4.42,0,0,1-1.4,1.39,4.11,4.11,0,0,1-2.21.53,3.14,3.14,0,0,1-3.38-3.1c0-2.19,1.9-3.36,5.49-3.36h1.36Zm-.86,1.72c-2.66,0-3.86.59-3.86,1.89,0,.93.74,1.55,1.84,1.55a2.82,2.82,0,0,0,2.87-2.62v-.82Z"/><path class="cls-7" d="M278,127.69v2.13H275.7v-2.13Zm-.11,4.07v9.84H275.8v-9.84Z"/><path class="cls-7" d="M284.33,131.76h3v1.62h-3v5.3a2.67,2.67,0,0,0,.11,1,.93.93,0,0,0,.87.5,3,3,0,0,0,1.67-.55l.43,1.47a4.5,4.5,0,0,1-2.6.7c-1.67,0-2.57-1-2.57-2.83v-5.59h-2.33v-1.62h2.33v-2.1l2.09-.94Z"/><path class="cls-7" d="M298.9,136.66a5,5,0,1,1-5-5.19A4.89,4.89,0,0,1,298.9,136.66Zm-7.95,0c0,2.08,1.18,3.52,2.92,3.52s2.9-1.44,2.9-3.52-1.22-3.51-2.9-3.51S291,134.63,291,136.65Z"/><path d="M40.75,258.15H38.33V253a51,51,0,0,1-5.45,1.53l-.7-2.62.6-.11,1-.21V235.85H32.53v-2.43H41.9v1.86H45v-3h2.59v3h3.29v2.17h-.82l0,.2,0,.08a27.63,27.63,0,0,1-.82,2.8h2.54L51.67,238c-.05-1.33-.05-2.51-.05-5v-.76H54v1c0,3.08,0,4.77.05,5.69,0,.57,0,.71.06,1.58h4.6v2.32H54.23v.46c0,.43.19,3.24.27,4.25a39.12,39.12,0,0,0,1.91-3.93l2,1.37a41.34,41.34,0,0,1-3.37,6.09c.32,1.45,1,3.3,1.28,3.3s.43-1.06.79-3.65l2,1.34C58.75,256,57.9,258,56.63,258s-2.56-1.77-3.46-4.28a31,31,0,0,1-4.47,4.41L47,256.29a22.72,22.72,0,0,0,2.18-1.74H44.26v1.39H42V244.48h8.2v9l.05-.05.08-.08a27.1,27.1,0,0,0,2-2.48,54.15,54.15,0,0,1-.63-8h-11Zm-4.68-22.3v3.37h2.31v-3.37Zm0,5.58v3.38h2.31v-3.38Zm0,5.58v4.06c1.09-.27,1.44-.36,2.31-.6V247Zm7.19-6.48a22.52,22.52,0,0,0-.63-2.8l-.08-.28h-1v-1.6h-.79v4.68Zm1,7.95H48v-2.09H44.26Zm0,4.11H48v-2.2H44.26ZM47,240.53a25.6,25.6,0,0,0,.76-3.08H44.86a22.9,22.9,0,0,1,.63,3.08Zm9.2-.6a23.24,23.24,0,0,0-1.93-5.63l2.18-.93a25.08,25.08,0,0,1,2.07,5.37Z"/><path d="M80.29,249.41a15.48,15.48,0,0,1-6.86,8.36l-1.85-1.64a14.17,14.17,0,0,0,6.26-6.72H76a16.5,16.5,0,0,1-7.82,7.24l-1.68-1.74a15.56,15.56,0,0,0,6.91-5.5H71.63a11.83,11.83,0,0,1-2.48,2L67.66,250a45.61,45.61,0,0,1-7.14,3.54l-1-2.7a36.77,36.77,0,0,0,3.6-1.28v-8.95H60V238h3.13v-5.67h2.75V238H68.5v2.64H65.89v7.75c.87-.4,1.3-.62,2.47-1.22l.36,1.69a11.82,11.82,0,0,0,2.67-3H67.63v-2.24H85.87v2.24H74.27a16.22,16.22,0,0,1-.92,1.49H84.86a45,45,0,0,1-1,9.07c-.41,1.31-1.2,1.77-3,1.77a22.22,22.22,0,0,1-2.67-.19l-.49-2.53a11.2,11.2,0,0,0,2.48.3c.84,0,1.06-.2,1.28-1a31,31,0,0,0,.65-5.28Zm3.13-7.19H69.73v-9.15H83.42Zm-11-5.55h8.36v-1.58H72.39Zm0,3.56h8.36V238.6H72.39Z"/><path d="M101.39,254.12c5.26-1.34,7.82-4.25,7.82-9a8.18,8.18,0,0,0-4-7.41,8.74,8.74,0,0,0-2.94-1c-.81,6.31-1.9,10.34-3.89,14.24a11.69,11.69,0,0,1-2,3.07,4.31,4.31,0,0,1-3.07,1.47c-3.13,0-5.67-3.92-5.67-8.71a12.9,12.9,0,0,1,6.13-10.94,12.7,12.7,0,0,1,6.86-1.86c6.94,0,11.71,4.47,11.71,11q0,9.27-9.37,11.77Zm-2-17.48a8.45,8.45,0,0,0-5.45,2.5,10.45,10.45,0,0,0-3.27,7.57c0,2.94,1.23,5.64,2.59,5.64.68,0,1.31-.63,2.15-2.13a35.92,35.92,0,0,0,3.92-13.12Z"/><path d="M139.24,250.74a30.12,30.12,0,0,1-3.51-1.31,34.88,34.88,0,0,1-.76,6.92c-.44,1.22-1.42,1.71-3.38,1.71-.84,0-2.31-.1-3.51-.24l-.44-2.37a26.64,26.64,0,0,0,3.16.3c1,0,1.34-.25,1.58-1.17a21.38,21.38,0,0,0,.44-3.65h-5.75c-1.06,4.44-3.62,6.43-9.5,7.41l-1.44-2.21c4.9-.71,7.18-2.15,8.11-5.2h-5.12v-1.09a28.62,28.62,0,0,1-3.4,1.36l-1.5-2.17a20.34,20.34,0,0,0,9.09-4.93l2.29,1.09a16.31,16.31,0,0,1-4.27,3.51h12.82a25,25,0,0,1-5.28-3.46l2.07-1.33a27,27,0,0,0,9.69,4.43ZM125.79,235h-8.3v-2h19.6v2h-8.47v1.36h11.17v5.33h-2.86v-3.4h-8.31v6.43h-2.83v-6.43h-8.14v3.4h-2.83v-5.33h11Zm-1.14,4.44V241h-5.83v-1.57Zm0,2.74v1.64h-5.83v-1.64Zm11.11-2.74V241h-6v-1.57Zm0,2.74v1.64h-6v-1.64Z"/><path d="M166.45,258.12h-2.86v-1.58H145.48v1.61h-2.86V233.34h23.83Zm-21-4.08h18.11v-18.3H145.48Zm4.38-17.54h2.7v3.32h4V236.5h2.7v3.32h3.05v2.26h-3.05v3.62h3.7V248h-3.7v5.34h-2.7V248h-4.21a8.08,8.08,0,0,1-3.52,5.8l-2.07-1.93a5.87,5.87,0,0,0,2.81-3.87h-3.35V245.7h3.65c0-.24,0-.38,0-.7v-2.92h-3.1v-2.26h3.1Zm2.7,5.58v2.64c0,.3,0,.55,0,1h4v-3.62Z"/><path d="M192.42,234.49v2.39h-18a19,19,0,0,1-3.49,4l-2.2-2a14.42,14.42,0,0,0,4.79-6.69l3.08.51c-.3.76-.46,1.06-.82,1.83Zm-23,21.1a19.13,19.13,0,0,0,7.63-4.25,52.12,52.12,0,0,0-5.64-3l1.91-2A54,54,0,0,1,179,249.3a20.57,20.57,0,0,0,2.55-4l2.73,1.09a22,22,0,0,1-2.83,4.46c1.44.93,3.26,2.23,4.76,3.43l-1.93,2.26c-1.58-1.33-3.08-2.45-4.74-3.62a22,22,0,0,1-8.17,4.87Zm20.7-13a40.48,40.48,0,0,0,.89,10.12c.28.88.47,1.34.6,1.34.28,0,.71-2,.85-3.95L195,252a19.23,19.23,0,0,1-1,4.3c-.49,1.17-1.23,1.85-2.07,1.85-1.25,0-2.7-1.42-3.49-3.46-.87-2.2-1.2-4.82-1.33-10.1H169.69v-2.37h20.45Zm-.49-4.06v2.12h-16v-2.12Z"/><path d="M207.65,233.1l-.63,3.76h7.92v2.61h-8.38l-.71,4.19h7.52v2.62h-8A24.27,24.27,0,0,0,205,250a3.4,3.4,0,0,0,1.12,2.91,6.61,6.61,0,0,0,4.33,1.28c3.92,0,6-1.5,6-4.33a12,12,0,0,0-.79-3.94l2.77-.2a10.55,10.55,0,0,1,1.09,4.25,6.15,6.15,0,0,1-2.42,5.23A11.84,11.84,0,0,1,210.4,257c-5.5,0-8.5-2.42-8.5-6.83a22.83,22.83,0,0,1,.41-3.89h-5v-2.62h5.44l.74-4.19h-5.86v-2.61H204l.71-4Z"/><path d="M247.78,248.86a36.66,36.66,0,0,1-5.5,3.62,23,23,0,0,0,7.16,2.94L247.62,258c-6.83-2-10.92-5.47-12.74-10.78h-5v7.08c2.94-.6,5-1.09,7.6-1.8l.19,2.43a82.09,82.09,0,0,1-13.1,3.15l-1.06-2.69c1.09-.14,1.44-.19,3.32-.52V235.11h7.76v-2.83h3.08v2.83h7.84v11.68Zm-5.36-11.38H229.84v2.59h12.58Zm0,4.82H229.84v2.64h12.58Zm-4.55,4.9a11.14,11.14,0,0,0,2.37,3.62A34.4,34.4,0,0,0,245,247.2Z"/><path d="M251.24,256.05a12.55,12.55,0,0,0,4.74-4.6,27.73,27.73,0,0,0-4.76-2.72,54.35,54.35,0,0,0,2.31-8.55h-2.88v-2.64H254c.14-.85.3-1.72.44-2.59,0-.19.16-1.09.41-2.67l2.72.36c-.14.73-.44,2.36-.9,4.9h5.06c-.1,5.8-.81,9.93-2.2,13a30.24,30.24,0,0,1,2.86,2.15l-1.55,2.5c-1-.81-2.1-1.71-2.7-2.17a22.29,22.29,0,0,1-4.85,5.11Zm5.91-7a31.43,31.43,0,0,0,1.8-8.87H256.2c-.3,1.71-1.14,5.25-1.8,7.38a21,21,0,0,1,2.1,1.14Zm13.7-5.58h5.52V246h-5.52v9.53c0,1.91-.71,2.53-2.86,2.53-1.23,0-2.53,0-3.7-.16l-.55-2.81a33.44,33.44,0,0,0,3.46.25c.57,0,.73-.19.73-.82V246h-6.12v-2.56h6.12v-3l.06-.05.22-.22a35,35,0,0,0,3.26-3.76h-8.68v-2.56h11.46l1.53,1.5a50.88,50.88,0,0,1-4.93,5.75Z"/><path d="M278.61,235.52c7-.08,16.58-.35,23.12-.63l.16,2.65a19.3,19.3,0,0,0-7.46,1.47,9.36,9.36,0,0,0-5.85,8.46,4.75,4.75,0,0,0,2,4.33c1.58,1.12,3.76,1.83,7,2.24l-.63,3c-4.22-.57-6.94-1.58-8.68-3.19a8,8,0,0,1-2.7-6.28,10.28,10.28,0,0,1,2.45-6.35,11.39,11.39,0,0,1,4.87-3.48c-3,.08-8.82.35-14.15.62ZM297.94,247a21.55,21.55,0,0,0-2.64-4.73l2.07-.77a23.56,23.56,0,0,1,2.67,4.69Zm3.59-1.38a20.27,20.27,0,0,0-2.64-4.77l2-.71a16.92,16.92,0,0,1,2.64,4.58Z"/><path d="M316.68,237.54c-2.1.27-5.12.51-7.57.6l-.87-2.56c7.29-.36,12.41-1.09,16.44-2.43l1.74,2.43a55.28,55.28,0,0,1-6.75,1.52v5.55h10.16v2.73H319.62c-.22,5.63-3,9.58-8.47,12l-1.93-2.47c4.87-2,7.08-4.9,7.38-9.53H306v-2.73h10.68Z"/><path d="M356.84,243.25v3H333.43v-3Z"/><path d="M360.52,252.4c.49,0,1.42-.05,2.53-.13a170.4,170.4,0,0,0,7-18.74l3.05.79a161.11,161.11,0,0,1-6.7,17.73c4.06-.27,8.69-.74,12-1.2-1.28-2.26-2.67-4.49-4-6.4l2.61-1.66A82,82,0,0,1,384.31,255l-3,1.56c-.57-1.26-.87-1.8-1.61-3.21-4.41.76-12.38,1.76-18.54,2.31Z"/><path d="M410.27,235c-.09,8.79-1.26,13.66-4,16.91-1.77,2.15-6,4.43-9.77,5.28l-1.72-2.78c4.42-.93,8-2.78,9.51-5,1.68-2.42,2.66-6.53,2.72-11.63H392v7.44h-3.05V235Z"/><path d="M438.53,243.25v3H415.12v-3Z"/><path d="M464.05,238.14c-1.91,10.8-6.43,16-16.53,19.08l-1.66-2.69c8.74-2.21,13.26-6.92,14.84-15.39h-9a22.69,22.69,0,0,1-6.56,6.76L443,243.69a18.66,18.66,0,0,0,8.39-10.62l2.88.79a25.67,25.67,0,0,1-1,2.56H462Z"/><path d="M39.12,275.43c.3-1.61.54-2.92.9-5.1l0-.38,2.92.44c-.36,2.15-.6,3.45-.93,5h1.61c4,0,5.8,1.63,5.8,5.44,0,4-.74,8.66-1.72,10.84a3.48,3.48,0,0,1-3.4,2.42,10.58,10.58,0,0,1-4.71-1.39l.32-2.8a10.61,10.61,0,0,0,3.92,1.22c.63,0,.93-.27,1.28-1.11a27.52,27.52,0,0,0,1.42-9c0-2.37-.6-2.94-3.08-2.94h-2a54.12,54.12,0,0,1-6.07,16.06l-2.67-1.47a51.06,51.06,0,0,0,5.83-14.59H33.24v-2.72Zm16.2,13.12a42.11,42.11,0,0,0-4.74-10.86l2.59-1.18a46.15,46.15,0,0,1,5,10.76Zm-2-12.74A22.56,22.56,0,0,0,50.69,271l2.07-.77a26.47,26.47,0,0,1,2.7,4.71Zm3.57-1.15a23.31,23.31,0,0,0-2.65-4.82l2-.65a16.92,16.92,0,0,1,2.67,4.55Z"/><path d="M69,273.33c.16-1.39.35-2.78.43-3.3l2.94.3,0,.22-.11.68-.11.9L72,273l0,.3H83v2.61H71.69l0,.25c0,.11,0,.41-.06.73l-.08,1-.08.84,0,.27a19,19,0,0,1,3.27-.27c6,0,9.75,2.94,9.75,7.57,0,4.44-2.94,7-9.26,8.17l-1.28-2.34c5.12-.85,7.54-2.76,7.54-6A4.63,4.63,0,0,0,79,281.88a28,28,0,0,1-7.73,8.74c-2.56,1.88-4.22,2.58-6.15,2.58-2.45,0-3.87-1.6-3.87-4.41,0-3.84,2.83-7.38,7.24-9.09l0-.35c.14-1.91.19-2.48.27-3.41H62.38v-2.61ZM64,288.68c0,1.39.52,2.1,1.53,2.1a5.89,5.89,0,0,0,3.27-1.44,35.45,35.45,0,0,1-.41-5.58c0-.22,0-.77,0-1.36C65.67,283.84,64,286.29,64,288.68Zm7.25-5.58a39.59,39.59,0,0,0,.19,4.11,23.81,23.81,0,0,0,4.92-6.12A16.71,16.71,0,0,0,74.6,281a13.38,13.38,0,0,0-3.38.41C71.2,282.15,71.2,282.72,71.2,283.1Z"/><path d="M106.4,271l1.42,2.2c-4.57,2.78-8.88,5.55-12,7.68a16.12,16.12,0,0,1,6.59-1.36c5.44,0,8.85,2.69,8.85,7a7,7,0,0,1-4.17,6.43,18.51,18.51,0,0,1-7.46,1.47c-4.57,0-7.1-1.58-7.1-4.44,0-2.37,2.31-4.25,5.28-4.25,3.26,0,5.47,1.93,6.31,5.61,2.73-.87,4.09-2.5,4.09-4.82,0-3-2.26-4.76-6-4.76a18,18,0,0,0-7.19,1.36,28.48,28.48,0,0,0-4.44,2.91l-1.88-2.26a108.57,108.57,0,0,1,14.16-10.18H91.48V271Zm-8.55,17.12c-1.41,0-2.53.84-2.53,1.93S97,292,99.71,292a17.73,17.73,0,0,0,1.85-.11C100.93,289.36,99.73,288.14,97.85,288.14Z"/><path d="M134.18,279.86h-13.4v-1.6a26.49,26.49,0,0,1-5,2.69L114,278.53a21.8,21.8,0,0,0,11.41-9h3.27c2.83,3.54,6.15,5.78,11.73,7.87L139,280.05a45.08,45.08,0,0,1-4.84-2.36Zm-8.06,5.86a51.93,51.93,0,0,1-3.76,5.91l.52,0c2-.11,7.21-.52,10-.82a40.23,40.23,0,0,0-3.05-3.08l2.51-1.44a53.7,53.7,0,0,1,6.89,7.24l-2.67,1.88c-.9-1.22-1.34-1.77-1.94-2.53-4.76.76-11.68,1.5-17.86,1.9l-1-2.85,1.77-.06,1.47-.08a46.74,46.74,0,0,0,3.43-6h-7.65V283.1h25v2.62Zm7.51-8.36a28.31,28.31,0,0,1-6.48-5.37,22.55,22.55,0,0,1-5.11,5.37Z"/><path d="M153.43,275.18a31.6,31.6,0,0,1-4,6.1,33.29,33.29,0,0,1,4.68,3.48l-1.63,2.62a45.61,45.61,0,0,0-3.33-3.19v11.22h-2.8V284.66l-.22.21a29.07,29.07,0,0,1-3.18,2.67l-1.72-2.42a28.81,28.81,0,0,0,8.28-8.55h-7.38V273.9h4.14v-4.36h2.83v4.36h3Zm5.07-5.64h2.94v7.63h5.63v2.67h-5.63v11.92h6v2.72H151.85v-2.72h6.65V279.84H153v-2.67h5.53Z"/><path d="M169.69,272.78c7-.08,16.58-.35,23.12-.62l.16,2.64a19.3,19.3,0,0,0-7.46,1.47,9.37,9.37,0,0,0-5.86,8.47,4.78,4.78,0,0,0,2,4.33c1.58,1.11,3.76,1.82,7,2.23l-.63,3c-4.22-.57-6.94-1.58-8.68-3.18a8.05,8.05,0,0,1-2.7-6.29,10.28,10.28,0,0,1,2.45-6.35A11.47,11.47,0,0,1,184,275c-3,.08-8.82.35-14.15.63ZM189,284.25a21.82,21.82,0,0,0-2.64-4.74l2.07-.76a23.49,23.49,0,0,1,2.67,4.68Zm3.59-1.39a20.64,20.64,0,0,0-2.64-4.77l2-.7A17,17,0,0,1,194.6,282Z"/><path d="M213.12,270.09v3.67H221v2.56h-7.84V282a10.14,10.14,0,0,1,.46,2.92c0,3.18-.68,5.47-2.09,7-1.58,1.68-3.68,2.72-6.84,3.35L203.13,293c4.52-.85,6.7-2.35,7.43-5.1a4.33,4.33,0,0,1-3.4,1.56c-3.22,0-5.18-2.1-5.18-5.53a5.45,5.45,0,0,1,5.61-5.64,5,5,0,0,1,2.53.66v-2.62H197v-2.56h13.12v-3.67Zm-2.89,13.31a2.58,2.58,0,0,0-2.56-2.72,3,3,0,0,0-2.8,3.21c0,1.91,1.09,3.16,2.72,3.16s2.64-1.36,2.64-3.16Z"/><path d="M238.25,270.63l-.65,17.21h-2.78l-.65-17.21Zm0,19.61v4.08h-4.08v-4.08Z"/></g><g id="テキスト"><path class="cls-1" d="M29.84,47.5a4.72,4.72,0,0,1,4-2.34c2.51,0,3.95,1.63,3.95,4.47V56.7H35.44V50c0-1.9-.77-2.84-2.3-2.84A4,4,0,0,0,29.84,50V56.7H27.47V45.37h2.37Z"/><path class="cls-1" d="M49.52,45.37V52c0,1.86.76,2.86,2.2,2.86a3.85,3.85,0,0,0,3.36-2.82V45.37h2.44V56.7H55.1V54.55a4.94,4.94,0,0,1-4,2.36c-2.63,0-4-1.58-4-4.51v-7Z"/><path class="cls-1" d="M68.77,47.42a3.49,3.49,0,0,1,3.09-2.26,3.1,3.1,0,0,1,3.23,2.5,3.76,3.76,0,0,1,3.26-2.5,3.34,3.34,0,0,1,2.75,1.3,5.06,5.06,0,0,1,.8,3.17V56.7H79.64V49.9c0-1.71-.69-2.72-1.88-2.72-1,0-2.06,1.15-2.4,2.64V56.7H73.09V49.81c0-1.68-.69-2.63-1.88-2.63s-2,1.13-2.42,2.82v6.7H66.53V45.37h2.24Z"/><path class="cls-1" d="M93.48,40.28v7a4.34,4.34,0,0,1,3.73-2.15c3.07,0,5.26,2.46,5.26,5.93S100.36,57,97.17,57a4.66,4.66,0,0,1-3.8-1.84l-.23,1.61h-2V40.28Zm0,12.69a3.66,3.66,0,0,0,3.17,2.08c2,0,3.3-1.58,3.3-4s-1.36-4-3.3-4c-1.29,0-2.4.89-3.17,2.52Z"/><path class="cls-1" d="M112.61,51.44a3.4,3.4,0,0,0,3.6,3.61,4.51,4.51,0,0,0,3.61-1.71l1.33,1.53A6.56,6.56,0,0,1,116,57a5.54,5.54,0,0,1-5.91-5.91c0-3.59,2.34-6.09,5.68-6.09,3.13,0,5.34,2.37,5.34,5.71v.69Zm6-1.71a2.82,2.82,0,0,0-2.93-2.86,3.16,3.16,0,0,0-3.06,2.86Z"/><path class="cls-1" d="M132.17,48.52c.69-2.34,1.88-3.44,3.76-3.44a3.38,3.38,0,0,1,1.56.33l-.66,2.19a3.09,3.09,0,0,0-1.17-.19c-1.74,0-3,1.44-3.41,3.8V56.7h-2.4V45.37h2.32l-.08,3.15Z"/><path class="cls-6" d="M41.23,208.11l-8.52.77-.34-2,2.21-.13v-.91c-1.13.33-2.36.62-3.7.87l-.62-1.9a29.09,29.09,0,0,0,5-1.3H31v-1.87h7.14v-1h2.61v1h7.35v1.87H46.45l1.29,1a17,17,0,0,1-2.75,1.3,28.37,28.37,0,0,0,3.83,1l-1.28,2q-5.88-1-8.48-5c-.56.32-1.21.64-1.93,1v1.76c1.95-.15,3.3-.27,4-.36Zm.24-9.29a1.27,1.27,0,0,1-.5,1.05,1.94,1.94,0,0,1-1.24.39H38.38l-.19-1.46h.74c.27,0,.4-.1.4-.31v-.36H37.82v3H35.34v-3H33.9v2.34H31.56v-3.59h3.78v-.63H30.92V195h.87l-1-.61a11.33,11.33,0,0,0,2.13-2.54l2,.36c-.16.31-.3.57-.42.77h.84v-1.15h2.48v1.15H41.2v1.37H37.82V195h4v1.29h-4v.63h3.65Zm-8.06-4.51c-.24.24-.47.45-.69.65h2.62v-.65Zm12,9.18H41.52a11.94,11.94,0,0,0,1.37,1.22A27.28,27.28,0,0,0,45.43,203.49Zm-1-5.22H42.16v-6h2.26Zm3.15,1.12a1.41,1.41,0,0,1-.59,1.17,2.28,2.28,0,0,1-1.44.46H43.33L43,199h1.65c.32,0,.48-.13.48-.38v-6.84h2.4Z"/><path class="cls-6" d="M68.08,206.53l-.43,2.08-6.25,0a31,31,0,0,1-6-.4,4.1,4.1,0,0,1-2.18-1.48,12.4,12.4,0,0,1-3,2.16l-.86-2.24a8.26,8.26,0,0,0,2.5-1.48v-4.74h-2v-2h4.44v6.23a1.49,1.49,0,0,0,.79,1.28,4.38,4.38,0,0,0,2,.62c.81.07,2.45.11,4.9.11C65.09,206.67,67.13,206.62,68.08,206.53Zm-13.4-10.8-2.35,1.2a19.66,19.66,0,0,0-1.14-1.88c-.6-.91-1-1.56-1.35-1.93L52,192A34.34,34.34,0,0,1,54.68,195.73Zm4.55-3.3c-.14.46-.3.92-.49,1.39h1.12V192h2.61v1.85h4.17v1.85H62.47v1.76h4.86v1.9H54.81v-1.9h5v-1.76h-2a12.62,12.62,0,0,1-1.16,1.71l-2.2-1a13.7,13.7,0,0,0,2.37-4.3Zm-3.38,13.24v-5.43H66.52v5.43Zm2.42-1.8H64V202H58.27Z"/><path class="cls-6" d="M75.57,196.51l-6.44,0v-1.84l6.44,0ZM75,208H71.52v.7h-2v-6.34H75Zm0-14.14H69.75v-1.63H75ZM74.87,199h-5.1v-1.6h5.1Zm0,2.52h-5.1v-1.61h5.1ZM73,206.38v-2.32H71.59v2.32Zm7-1.23a16.74,16.74,0,0,1-3.77,3.1l-1.11-1.88A15,15,0,0,0,79,202.78H75.57v-2H80v-1H76.33v-7.6h9.79v7.6H82.31v1H87v2H83.35a17.27,17.27,0,0,0,4.07,3.31l-1.32,2.06a15.51,15.51,0,0,1-3.79-3.32v4H80Zm-1.32-9.81H80v-1.26H78.68ZM80,196.73H78.68V198H80Zm2.25-1.39H83.7v-1.26H82.29Zm1.41,1.39H82.29V198H83.7Z"/><path class="cls-6" d="M104.08,193,97,210.82H94.45L101.54,193Z"/><path class="cls-6" d="M114.7,198.22l-.74-2.28,2.36-.36a23.49,23.49,0,0,1,1,2.64h1V195.4h-5.33v-2h3.74l-.77-1.43,2.5-.53,1.06,2h3.48l1.14-2,2.57.57-1,1.43h4v2h-5.44v2.82h1c.5-1.26.85-2.18,1-2.74l2.46.52a23.94,23.94,0,0,1-1,2.22h2.47v2H112.4v-2Zm13.57,10.45h-2.64v-.54h-8.81v.54h-2.66V201h14.11Zm-2.64-4.92v-1h-8.81v1Zm0,2.58v-1.06h-8.81v1.06Zm-5.07-8.11h1.38V195.4h-1.38Z"/><path class="cls-6" d="M149.83,207l-.42,2H149l-5.86.06a30.55,30.55,0,0,1-6-.41,4.17,4.17,0,0,1-2.18-1.48,12.46,12.46,0,0,1-3,2.17l-.86-2.24a7.7,7.7,0,0,0,2.3-1.35v-4.86H131.6v-2.05h4.26v6.34a1.42,1.42,0,0,0,.31.92,2.29,2.29,0,0,0,.93.64,6.23,6.23,0,0,0,1.79.34c.77.05,2.22.07,4.36.07C146.64,207.13,148.84,207.09,149.83,207Zm-13.47-10.7-2.36,1q-.37-.8-2.36-3.9l2.15-1A32.24,32.24,0,0,1,136.36,196.29Zm9.73,7H144v3.13H141.6v-3.13h-2v3.19h-2.44V195.9h3.24l-2.13-1.24,1-.91h-2.34V192h10.69l1,1.25a17.44,17.44,0,0,1-3.83,2.67h3.81v8.89A1.41,1.41,0,0,1,148,206a2.55,2.55,0,0,1-1.52.44h0l-1.84,0-.19-2h1.23c.33,0,.49-.16.49-.46Zm-4.49-4.45v-1.17h-2v1.17Zm-2,2.77h2v-1.21h-2Zm.88-7.82,2.27,1.38a18.15,18.15,0,0,0,2.11-1.38Zm3.52,3.88v1.17h2.12v-1.17Zm0,3.94h2.12v-1.21H144Z"/><path class="cls-6" d="M153.89,203a12.66,12.66,0,0,1-2.11,2.72l-1.29-1.61a13.07,13.07,0,0,0,1.77-2.4,16.77,16.77,0,0,0,1.48-3h-2.68v-2h2.83v-1.91c-1,.16-1.86.27-2.5.32l-.38-1.81a27.82,27.82,0,0,0,3.44-.57,17.89,17.89,0,0,0,3.15-.93l1,1.83a17.81,17.81,0,0,1-2.22.67v2.4h2v2h-2v.6a13,13,0,0,0,2.15,2.16l-1.1,1.93a14.34,14.34,0,0,1-1-1.11v6.61h-2.48Zm14.76.92-1.45.17v4.65h-2.58v-4.36l-6.49.75-.07-2.16,6.56-.76v-5.61l-1.3,1.57a52.62,52.62,0,0,0-3.83-3.87l1.64-1.79a30.59,30.59,0,0,1,3.49,3.39v-4h2.58v10l1.41-.17ZM164,200.54l-1.63,1.93a39,39,0,0,0-3.86-3.92l1.55-1.86A35.71,35.71,0,0,1,164,200.54Z"/><path class="cls-6" d="M180.06,208.9h-2.65v-3.69H169.9v-2.13h7.51v-1.25H179l-.67-1.11a5,5,0,0,0,3.27-5h2.26c0,.66,0,1.13,0,1.41.37,1.35,1.63,2.61,3.76,3.79l-1.46,1.71a8.86,8.86,0,0,1-3.29-2.9,8.37,8.37,0,0,1-2.78,2.41v1h7.86v2.13h-7.86Zm-4.25-13.21a14.62,14.62,0,0,1-.06,1.54,5.85,5.85,0,0,0,2.64,3.24l-1.31,1.67a7,7,0,0,1-2.33-2.23,8,8,0,0,1-3.6,2.9L170,201.18A7.05,7.05,0,0,0,171.9,200a5,5,0,0,0,1.2-1.72,6.38,6.38,0,0,0,.44-2.55Zm11.51-.46H170.48v-2.07h7v-1.41h2.69v1.41h7.2Z"/></g></g></svg>