<svg xmlns="http://www.w3.org/2000/svg" viewBox="0 0 261.79 17.11"><title>Asset 18</title><g id="Layer_2" data-name="Layer 2"><g id="テキスト"><path d="M9.69,2.29C9.85,8.44,11.9,12,17,15.09L15.7,16.82a14.94,14.94,0,0,1-7-9L8.61,8a13.73,13.73,0,0,1-7.24,9L0,15.36C5.08,12.82,7.24,9.27,7.74,2.68H3.24V.81H9.69Z"/><path d="M25.72,3.73a20.7,20.7,0,0,1-2.63,4,22.53,22.53,0,0,1,3.1,2.3l-1.08,1.73a28.92,28.92,0,0,0-2.19-2.1v7.42H21.06V10l-.14.15a19.65,19.65,0,0,1-2.11,1.76l-1.13-1.6a19.15,19.15,0,0,0,5.47-5.65H18.27V2.88H21V0h1.87V2.88h2ZM29.07,0H31V5h3.72V6.81H31v7.88h4v1.8H24.68v-1.8h4.39V6.81H25.42V5h3.65Z"/><path d="M42.16,2.47c.57-.92.88-1.44,1.19-2l2,.29c-.27.47-.29.5-.94,1.55l-.11.18h6.2V4.2H43.09A30.39,30.39,0,0,1,40.9,7a5.88,5.88,0,0,1,3-1,2.69,2.69,0,0,1,2.79,2.12L51.3,6.61l.76,1.71-.31.09-.88.23C49.23,9.09,48,9.45,47,9.78c.07.86.12,1.64.14,3l-1.93.11c0-.94,0-1.28,0-2.27v-.18c-2.68.92-4.05,1.85-4.05,2.79s1.19,1.22,4.59,1.22a48.27,48.27,0,0,0,5-.27L50.93,16c-1.88.14-3.26.2-5.21.2a15.06,15.06,0,0,1-4.84-.51,2.36,2.36,0,0,1-1.75-2.29C39.13,12,40,11,42,9.94A21.09,21.09,0,0,1,44.89,8.7c-.23-.9-.59-1.25-1.33-1.25-1.31,0-3.49,1.18-5.67,3.08L36.72,9.2A26.07,26.07,0,0,0,41,4.2H37.42V2.47Z"/><path d="M66.28,2.93A23.79,23.79,0,0,0,68.44.43l1.67.92a36.73,36.73,0,0,1-3.47,3.48H71V6.41H64.64a25.25,25.25,0,0,1-3.2,1.85l0,.17a54.37,54.37,0,0,0,6.9-1.19l1,1.44a55.55,55.55,0,0,1-7.35,1l-1,.09c-.13.44-.16.56-.29.94h8.1c-.52,5.49-1,6.36-3.72,6.36a28.58,28.58,0,0,1-3-.19l-.43-1.81a32.15,32.15,0,0,0,3.4.27c.59,0,.77-.13,1.08-.71a8.39,8.39,0,0,0,.52-2.44H60.23a14.11,14.11,0,0,1-.61,1.38l-1.93-.39a22.74,22.74,0,0,0,1.5-3.88c-1.39.63-3,1.3-4.43,1.77l-1-1.57a38.44,38.44,0,0,0,7.91-3.13H53.89V4.83h6.56V3.19H56V1.67h4.45V0h1.92V1.67h3.91Zm-3.91.26V4.83h1.75A19.12,19.12,0,0,0,66,3.19Z"/><path d="M84.32,4.77l.79,1.3-.36.27c-2.69,2-3.6,2.73-4.86,3.8a3.68,3.68,0,0,1,1.69-.49,1.36,1.36,0,0,1,1.49,1.44,2.75,2.75,0,0,1,0,.43c-.09,1-.15,1.59-.15,2,0,.74.29.86,2,.86a28,28,0,0,0,3-.19l.16,1.87c-1.08.09-2.29.14-3.55.14a6,6,0,0,1-2.61-.32A1.75,1.75,0,0,1,81,14.1c0-.67.07-1.87.12-2.29a.44.44,0,0,0,0-.16.57.57,0,0,0-.63-.61c-1.12,0-3.37,1.8-6.7,5.38L72.4,14.91c2.8-2.68,7.09-6.45,9.54-8.37H74.39V4.77Zm-.63-1A66.71,66.71,0,0,0,76.05,2L76.63.36A51.56,51.56,0,0,1,84.3,2.09Z"/><path d="M90.65,2.14c4.64-.05,11-.23,15.28-.41L106,3.47a12.7,12.7,0,0,0-4.93,1,6.19,6.19,0,0,0-3.87,5.6,3.15,3.15,0,0,0,1.31,2.86,10.07,10.07,0,0,0,4.65,1.48l-.42,2C100,16,98.19,15.32,97,14.26a5.34,5.34,0,0,1-1.78-4.16,6.74,6.74,0,0,1,1.62-4.19A7.5,7.5,0,0,1,100.1,3.6c-2,.06-5.83.23-9.36.42Z"/><path d="M116.52,11.49a14.89,14.89,0,0,1-1.75,3.64,2.43,2.43,0,0,1-1.89,1.15c-.94,0-1.8-.71-2.47-2a12.38,12.38,0,0,1-1.1-3.44A45.76,45.76,0,0,1,109,5.24c0-.78,0-2.05.11-3.66l2.07.17C111.06,3.12,111,4,111,5.13c0,3.73.36,6.41,1,7.87.25.52.61.92.83.92.43,0,1.33-1.62,2-3.71Zm5.56,2.09A34,34,0,0,0,119.14,2.5L121,2.05a29.13,29.13,0,0,1,3.11,11Z"/><path d="M138.64,1l.94,1.46c-3,1.84-5.87,3.67-7.93,5.08a10.78,10.78,0,0,1,4.36-.9c3.6,0,5.85,1.78,5.85,4.64a4.6,4.6,0,0,1-2.75,4.25,12.1,12.1,0,0,1-4.94,1c-3,0-4.7-1-4.7-2.93,0-1.57,1.53-2.81,3.5-2.81,2.16,0,3.62,1.28,4.17,3.71,1.81-.58,2.71-1.66,2.71-3.19,0-2-1.5-3.15-4-3.15a11.89,11.89,0,0,0-4.75.9,18.6,18.6,0,0,0-2.93,1.93L127,9.43a72.13,72.13,0,0,1,9.37-6.73h-7.55V1ZM133,12.3c-.94,0-1.68.56-1.68,1.28s1.08,1.27,2.9,1.27a9.82,9.82,0,0,0,1.22-.07C135,13.11,134.23,12.3,133,12.3Z"/><path d="M152,4.74c-.06,1.27-.08,1.69-.18,2.59h7.09a37.34,37.34,0,0,1-.68,7.9c-.35,1.14-1.1,1.55-2.81,1.55a25.61,25.61,0,0,1-2.74-.18l-.34-2a22.11,22.11,0,0,0,2.92.29c.68,0,.88-.16,1-.88a30.81,30.81,0,0,0,.5-5h-5.24a10.59,10.59,0,0,1-5.72,7.84l-1.39-1.55a9.23,9.23,0,0,0,4.56-4.7,19.31,19.31,0,0,0,.95-5.92h-5.81V2.93h7.18V0h2V2.93h7.42V4.74Z"/><path d="M162.2,12a40.82,40.82,0,0,0,4.89-8.59,1.78,1.78,0,0,1,1.63-1.24,1.76,1.76,0,0,1,1.11.45c.33.27.34.28,1,1.38a45.12,45.12,0,0,0,7.85,9.56l-1.28,1.68A54.35,54.35,0,0,1,169.15,5c-.24-.34-.33-.43-.43-.43s-.26.18-.49.79a38.62,38.62,0,0,1-4.43,8Z"/><path d="M180,3.35A34.93,34.93,0,0,0,187,1l1.23,1.48c-3.31,2.63-5,5.36-5,8,0,2.89,1.35,4.34,4.07,4.34,3,0,4.61-2.14,4.61-6a20.7,20.7,0,0,0-1.27-6.62l1.72-.72A27.51,27.51,0,0,0,197,8.25L195.9,10a22.84,22.84,0,0,1-3.3-5.29,14.9,14.9,0,0,1,.92,5c0,4.56-2.18,7-6.3,7-3.75,0-5.91-2.21-5.91-6.05,0-2.41,1.53-5.25,4-7.43a22.54,22.54,0,0,1-4.79,2Z"/><path d="M213.32,15.83a52,52,0,0,1-5.4.27,26.3,26.3,0,0,1-5.51-.45c-1.84-.51-2.9-1.71-2.9-3.3,0-2.12,1.23-3.64,4.22-5.18A44.33,44.33,0,0,1,201.53,1l2-.5a50.73,50.73,0,0,0,1.93,5.91,45.23,45.23,0,0,1,7.18-2.6l.6,1.78a47.61,47.61,0,0,0-9.55,3.64,3.69,3.69,0,0,0-2.12,2.92A1.81,1.81,0,0,0,203,13.81a16.72,16.72,0,0,0,4.34.4,47.34,47.34,0,0,0,5.79-.35Z"/><path d="M231.27,15.38a46.37,46.37,0,0,1-6,.43,15.55,15.55,0,0,1-6-.9,2.8,2.8,0,0,1-1.76-2.72A4.3,4.3,0,0,1,218.92,9l1.53,1a2.82,2.82,0,0,0-.85,1.87c0,.65.36,1.08,1.12,1.37a15.7,15.7,0,0,0,4.48.52,37.07,37.07,0,0,0,5.8-.45ZM230,1.85V3.76H219.2V1.85Z"/><path d="M249.32,15.83a52,52,0,0,1-5.4.27,26.3,26.3,0,0,1-5.51-.45c-1.84-.51-2.9-1.71-2.9-3.3,0-2.12,1.23-3.64,4.22-5.18A44.33,44.33,0,0,1,237.53,1l2-.5a50.73,50.73,0,0,0,1.93,5.91,45.23,45.23,0,0,1,7.18-2.6l.6,1.78a47.61,47.61,0,0,0-9.55,3.64,3.69,3.69,0,0,0-2.12,2.92A1.81,1.81,0,0,0,239,13.81a16.72,16.72,0,0,0,4.34.4,47.34,47.34,0,0,0,5.79-.35Z"/><path d="M261.79.72l-.43,11.38h-1.83L259.09.72Zm0,13v2.7h-2.7v-2.7Z"/></g></g></svg>