<svg xmlns="http://www.w3.org/2000/svg" viewBox="0 0 580 337"><defs><style>.cls-1{fill:#fff;}.cls-2{fill:#d7d7d7;}.cls-3{fill:#182b7b;}.cls-4{fill:none;stroke:#fff;stroke-miterlimit:10;stroke-width:2.4px;}.cls-5{fill:#b90f52;}.cls-6{fill:#8a8a8a;}.cls-7{fill:#bdbdbd;}</style></defs><title>Asset 5</title><g id="Layer_2" data-name="Layer 2"><g id="デザイン"><rect class="cls-1" x="1.82" y="1.82" width="576.36" height="333.36"/><path class="cls-2" d="M576.36,3.64V333.36H3.64V3.64H576.36M580,0H0V337H580V0Z"/><rect class="cls-3" x="28.75" y="34.2" width="120" height="31.2"/><line class="cls-4" x1="140.35" y1="49.8" x2="153.55" y2="49.8"/><path class="cls-1" d="M29.65,47.39A4.77,4.77,0,0,1,33.7,45c2.53,0,4,1.64,4,4.51v7.12H35.3V49.92c0-1.91-.77-2.86-2.32-2.86a4,4,0,0,0-3.33,2.81v6.79H27.27V45.24h2.38Z"/><path class="cls-1" d="M49.47,45.24v6.7c0,1.87.78,2.88,2.23,2.88A3.88,3.88,0,0,0,55.08,52V45.24h2.46V56.66H55.1V54.49a5,5,0,0,1-4,2.38c-2.65,0-4.06-1.59-4.06-4.55V45.24Z"/><path class="cls-1" d="M68.87,47.31A3.48,3.48,0,0,1,72,45a3.12,3.12,0,0,1,3.25,2.52A3.78,3.78,0,0,1,78.52,45a3.32,3.32,0,0,1,2.76,1.32,5,5,0,0,1,.82,3.19v7.12H79.81V49.81c0-1.72-.69-2.75-1.89-2.75-1,0-2.07,1.16-2.42,2.67v6.93H73.22V49.71c0-1.68-.7-2.65-1.9-2.65s-2.07,1.14-2.43,2.84v6.76H66.6V45.24h2.27Z"/><path class="cls-1" d="M93.75,40.12v7A4.36,4.36,0,0,1,97.51,45c3.09,0,5.3,2.48,5.3,6s-2.13,6-5.34,6a4.7,4.7,0,0,1-3.83-1.86l-.24,1.62h-2V40.12Zm0,12.78A3.69,3.69,0,0,0,96.94,55c2,0,3.33-1.58,3.33-4s-1.37-4.08-3.33-4.08c-1.29,0-2.41.89-3.19,2.53Z"/><path class="cls-1" d="M113,51.36A3.43,3.43,0,0,0,116.65,55a4.51,4.51,0,0,0,3.63-1.72l1.34,1.55A6.6,6.6,0,0,1,116.45,57a5.58,5.58,0,0,1-6-6c0-3.62,2.36-6.14,5.72-6.14,3.16,0,5.38,2.38,5.38,5.75v.7Zm6.08-1.73a2.86,2.86,0,0,0-3-2.88,3.18,3.18,0,0,0-3.08,2.88Z"/><path class="cls-1" d="M132.72,48.42c.69-2.36,1.89-3.47,3.79-3.47a3.38,3.38,0,0,1,1.56.33l-.65,2.21a3.21,3.21,0,0,0-1.18-.2c-1.77,0-3.06,1.45-3.45,3.83v5.54h-2.42V45.24h2.35l-.08,3.18Z"/><path class="cls-5" d="M174.65,48.88c0,5-2.32,8.15-6.08,8.15s-6.09-3.11-6.09-8.15,2.32-8.15,6.09-8.15S174.65,43.84,174.65,48.88Zm-9.54,0c0,3.73,1.33,6,3.46,6s3.45-2.3,3.45-6-1.31-6.09-3.45-6.09S165.11,45.13,165.11,48.88Z"/><path class="cls-5" d="M188.21,47.53c2.51,0,3.88-.87,3.88-2.48,0-1.39-1.16-2.28-3-2.28a4.83,4.83,0,0,0-3.81,1.63l-1.43-1.49a7.32,7.32,0,0,1,5.31-2.17c3.33,0,5.57,1.65,5.57,4.08,0,1.93-1.39,3.25-3.79,3.56v.07c2.71.22,4.33,1.72,4.33,4,0,2.84-2.34,4.56-6.16,4.56a7.48,7.48,0,0,1-5.92-2.28l1.51-1.58a5.86,5.86,0,0,0,4.44,1.74c2.11,0,3.4-1,3.4-2.61,0-1.93-1.39-2.82-4.4-2.82h-1.45v-2Z"/><path class="cls-6" d="M38.24,99.55H27.59V97.33A36.64,36.64,0,0,0,33,92.58a5,5,0,0,0,1.39-3,2,2,0,0,0-.67-1.6,2.76,2.76,0,0,0-1.84-.57,6.86,6.86,0,0,0-3.72,1.27H28V86a12.48,12.48,0,0,1,4.43-.89,6,6,0,0,1,3.86,1.09,3.73,3.73,0,0,1,1.36,3.06A5.91,5.91,0,0,1,36.5,92.5a23.81,23.81,0,0,1-5.12,4.77h6.86Z"/><path class="cls-6" d="M45.67,99.85a5,5,0,0,1-4.23-1.75q-1.34-1.75-1.34-5.61t1.35-5.59a5,5,0,0,1,4.22-1.76,5,5,0,0,1,4.22,1.76q1.35,1.75,1.35,5.58T49.9,98.11A5,5,0,0,1,45.67,99.85Zm0-12.53a1.93,1.93,0,0,0-1.88,1.24,10,10,0,0,0-.57,3.94,9.84,9.84,0,0,0,.58,3.94,2,2,0,0,0,3.73,0,9.91,9.91,0,0,0,.58-3.94,10,10,0,0,0-.56-3.93A1.94,1.94,0,0,0,45.67,87.32Z"/><path class="cls-6" d="M58.66,99.85a5,5,0,0,1-4.22-1.75q-1.35-1.75-1.35-5.61t1.35-5.59a5,5,0,0,1,4.22-1.76,5,5,0,0,1,4.22,1.76q1.35,1.75,1.35,5.58t-1.34,5.63A5,5,0,0,1,58.66,99.85Zm0-12.53a1.94,1.94,0,0,0-1.88,1.24,10,10,0,0,0-.57,3.94,9.81,9.81,0,0,0,.59,3.94,1.92,1.92,0,0,0,1.86,1.23,2,2,0,0,0,1.87-1.25,10.1,10.1,0,0,0,.58-3.94,10,10,0,0,0-.57-3.93A1.93,1.93,0,0,0,58.66,87.32Z"/><path class="cls-6" d="M67.2,99.62V97.21h.29a5.14,5.14,0,0,0,2.16.42c2.57,0,4-1.35,4.28-4a6.5,6.5,0,0,1-3.33,1.11,4.71,4.71,0,0,1-3.35-1.18A4.34,4.34,0,0,1,66,90.18a4.71,4.71,0,0,1,1.53-3.63,5.57,5.57,0,0,1,4-1.41,5.25,5.25,0,0,1,4.17,1.66,7.17,7.17,0,0,1,1.46,4.88,8.65,8.65,0,0,1-1.93,6,7.22,7.22,0,0,1-5.61,2.12A9.44,9.44,0,0,1,67.2,99.62ZM74,92.09c0-.07,0-.21,0-.43s0-.37,0-.47q0-3.94-2.55-3.94a2.11,2.11,0,0,0-1.68.73,3,3,0,0,0-.65,2c0,1.72.91,2.58,2.72,2.58A5.1,5.1,0,0,0,74,92.09Z"/><path class="cls-6" d="M101.4,96.63H94.88v4H92.19v-4H83.87V94.39h2.42V91q-.56.57-1.17,1.11l-1.8-1.63a16.49,16.49,0,0,0,2.87-3.39A14.41,14.41,0,0,0,88,83.13l2.68.41a16.5,16.5,0,0,1-.58,1.69H101V87.4H94.88v2.19h5.37v2.17H94.88v2.63h6.52ZM89,87.4a21.38,21.38,0,0,1-1.53,2.19h4.7V87.4Zm-.1,7h3.27V91.76H88.92Z"/><path class="cls-6" d="M112.07,93A13.72,13.72,0,0,1,109,97.33a18.58,18.58,0,0,1-5,3.22l-1.29-2.09a13.05,13.05,0,0,0,5.4-4,11.93,11.93,0,0,0,2.45-6.06v-2l-4.65,0V84.21h7.4c0,.16,0,.33,0,.51v1.7a15.24,15.24,0,0,0,.34,3.31,10.7,10.7,0,0,0,1.27,3.09,12.82,12.82,0,0,0,2.35,2.94,20.2,20.2,0,0,0,3.5,2.56l-1.85,2.19a22.71,22.71,0,0,1-4.43-3.82A15.42,15.42,0,0,1,112.07,93Z"/><path class="cls-6" d="M127.05,100.61h-2.36V94.22a17,17,0,0,1-2.11,1.53l-1-1.77a14.3,14.3,0,0,0,3.06-2.65,11.89,11.89,0,0,0,2-3.18h-4.26V86.08h2.36V83.7h2.38v2.38h2.21l.5.51a15.14,15.14,0,0,1-2.52,4.87,33.18,33.18,0,0,0,3,2.33l-1.19,2c-.75-.59-1.44-1.17-2-1.74Zm13.13-.56H128.57V97.77h4.59V90.64h-3.67v-2.2h3.67V83.77h2.68v4.67h3.85v2.2h-3.85v7.13h4.34Z"/><path d="M34.31,142.84c2.44,2.59,5.32,3.52,11.17,3.67H60.85a12.54,12.54,0,0,0-1.14,3.34H45.37c-6.53-.08-9.62-1.15-12.5-4.31a32.29,32.29,0,0,1-5,5.13l-2-3.55a36.27,36.27,0,0,0,4.21-3.06l.54-.43v-9.09h-4.5v-3.45h8.16ZM32,125.78a33.2,33.2,0,0,0-5.21-7l2.91-2.12a37.48,37.48,0,0,1,5.35,6.69Zm13.25-9.34h3.67v2.41h8.58v2.65H48.93v2H59.42v2.8H35.49v-2.8h9.77v-2H37.47v-2.65h7.79Zm9.85,23.71c1.29.61,2.37,1.15,3.84,1.94l-2.3,2.73c-2.62-1.58-4.92-2.84-7.72-4.21v5.28H45.26v-7.07a33.1,33.1,0,0,1-7.5,4.38l-2.27-2.62a39.42,39.42,0,0,0,9.7-5.1h-7v-7.33H56.36v7.33h-.14l2.19,1.4A35.76,35.76,0,0,1,54.75,140Zm-13.33-7h11v-2.55h-11Zm7.15,4.49c.68.25,1.72.64,2.84,1.11a4.77,4.77,0,0,1,.61-.54,35.06,35.06,0,0,0,2.55-2.69H49.75c-.14.14-.5.43-.82.68Z"/><path d="M88.91,131.42a18.35,18.35,0,0,0,1.44,2.26h5.46v2.66H93a24.73,24.73,0,0,0,3.74,2.33l-2,2.77a18.89,18.89,0,0,1-1.86-1.22,18.73,18.73,0,0,1-2.7,2.55l-2-2a17.39,17.39,0,0,0,2.45-2.41,20.28,20.28,0,0,1-1.91-2h-6.5a16.55,16.55,0,0,1-1.94,2.3,19.15,19.15,0,0,1,2.27,2.15l-2.12,2.27c-1-1.08-1.73-1.76-2.37-2.34-.22.18-.51.43-1.62,1.26l-1.8-2.19v7.43c0,2.55-.72,3.31-3.12,3.31a21.64,21.64,0,0,1-3.38-.22l-.61-3.23a16.19,16.19,0,0,0,2.91.25c.83,0,1-.18,1-.93v-5.89h-4a18.35,18.35,0,0,1-3.09,10.13L61.61,148c1.76-2.62,2.44-5.38,2.44-9.87V125.31H74.54V139.5a18.48,18.48,0,0,0,3.59-3.16H75.3v-2.66h4.81a20.68,20.68,0,0,0,1.22-2.26H75.91v-2.59h2l-.11-.25-.07-.18a25.13,25.13,0,0,0-1.29-2.33l3-1.12c.39.79,1,2.37,1.62,3.88H82.3a28.65,28.65,0,0,0,1-4.56l3.34.32a30.21,30.21,0,0,1-1,4.24h2a26.87,26.87,0,0,0,2.15-4L93,126a25.59,25.59,0,0,1-1.84,2.87h3.52v2.59Zm-17.49-15h3.77V119h7.58v-2.55h3.84V119h9.23v3H86.61v1.79H82.77V122H75.19v2.22H71.42V122h-9v-3h9Zm-4.06,15.19h4v-3.34h-4Zm0,6.18h4v-3.55h-4Zm7.83,8.34a31.27,31.27,0,0,0,6.5-3.17l.83,2.63-.58.36a38.54,38.54,0,0,1-5.57,3.12Zm11.67-8.73v10.34c0,2-.75,2.77-2.62,2.77a29.67,29.67,0,0,1-3.59-.22l-.54-3a17.51,17.51,0,0,0,2.66.29c.68,0,.82-.18.82-1v-9.19Zm-2-6a20.3,20.3,0,0,1-1,2.26h3.06a18.45,18.45,0,0,1-1.08-2.26Zm9,17.71A48,48,0,0,0,87.44,145l1.79-2.23,1.15.57a39.94,39.94,0,0,1,5.36,3.06Z"/><path d="M144.56,129.26v3.63H134.14V145c0,1.08.43,1.26,3.19,1.26,2.23,0,3.06-.29,3.27-1.19a21.89,21.89,0,0,0,.36-4.27l4,1.08c-.22,3.77-.57,5.67-1.22,6.5-.9,1.18-2.55,1.54-6.93,1.54-5.54,0-6.76-.61-6.76-3.34V132.89h-5.35c0,11.32-2.87,15.66-11.89,17.6l-2.23-3.3c4.35-.72,7.47-2.55,8.73-5.1.86-1.73,1.22-4.39,1.3-9.2h-9.16v-3.63h14.47V116.44h4v12.82Zm-26.69-1a53,53,0,0,0-4.53-8l3.52-1.8a35.84,35.84,0,0,1,4.6,7.8Zm15.73-1.37a46.23,46.23,0,0,0,4.81-8.83l4,1.65a56.23,56.23,0,0,1-5.36,8.73Z"/><path class="cls-7" d="M173.84,126.7v5.56h6.67V126.7h2.15v13.59h-2.15v-6.14h-6.67v6.14h-2.15V126.7Z"/><path class="cls-7" d="M188.3,126.3v2.15H186V126.3Zm-.11,4.09v9.9h-2.12v-9.9Z"/><path class="cls-7" d="M193.7,126v8.47l4.08-4h2.67l-3.95,3.88,4.28,6h-2.65L195,135.44l-1.29,1.23v3.62h-2.08V126Z"/><path class="cls-7" d="M208.73,133.72c0-1.26-.81-1.93-2.34-1.93a5.12,5.12,0,0,0-3.23,1l-.89-1.36a7.29,7.29,0,0,1,4.21-1.34c2.78,0,4.21,1.32,4.21,3.89v3.3a6.81,6.81,0,0,0,.57,3H209.4a6.35,6.35,0,0,1-.47-1.66h-.07a4.26,4.26,0,0,1-1.41,1.39,4.13,4.13,0,0,1-2.21.54,3.16,3.16,0,0,1-3.41-3.12c0-2.2,1.91-3.37,5.52-3.37h1.38Zm-.88,1.72c-2.66,0-3.87.59-3.87,1.9,0,.94.74,1.56,1.84,1.56a2.84,2.84,0,0,0,2.89-2.64v-.82Z"/><path class="cls-7" d="M215.7,133.15c.6-2.05,1.64-3,3.29-3a2.94,2.94,0,0,1,1.35.29l-.57,1.91a2.77,2.77,0,0,0-1-.17c-1.53,0-2.65,1.26-3,3.32v4.8h-2.1v-9.9h2l-.07,2.76Z"/><path class="cls-7" d="M223.94,130.39v5.81c0,1.62.68,2.5,1.93,2.5a3.38,3.38,0,0,0,2.94-2.47v-5.84h2.13v9.9h-2.11v-1.88a4.31,4.31,0,0,1-3.49,2.06c-2.3,0-3.52-1.37-3.52-3.94v-6.14Z"/><path class="cls-7" d="M249.38,126.7v1.83h-7.11v3.86h6.29v1.78h-6.29v4.26h7.36v1.86h-9.51V126.7Z"/><path class="cls-7" d="M254.15,132.26a4.15,4.15,0,0,1,3.51-2c2.2,0,3.45,1.43,3.45,3.91v6.17h-2.06v-5.84c0-1.66-.67-2.48-2-2.48a3.5,3.5,0,0,0-2.89,2.43v5.89h-2.06v-9.9h2.06Z"/><path class="cls-7" d="M273.4,126v14.39h-2.06V138.8a3.74,3.74,0,0,1-3.24,1.73c-2.75,0-4.61-2.1-4.61-5.22s2-5.17,4.71-5.17a3.83,3.83,0,0,1,3.14,1.63V126Zm-2.06,7.93a3.08,3.08,0,0,0-2.7-2.08c-1.71,0-2.95,1.48-2.95,3.53s1.15,3.52,2.91,3.52a3.19,3.19,0,0,0,2.74-1.93Z"/><path class="cls-7" d="M285.87,135.33a5.07,5.07,0,1,1-5.06-5.22A4.92,4.92,0,0,1,285.87,135.33Zm-8,0c0,2.1,1.2,3.54,2.94,3.54s2.92-1.44,2.92-3.54-1.23-3.52-2.92-3.52S277.87,133.28,277.87,135.31Z"/><path d="M53.06,255H49.91V253H35.71V255H32.59v-23.8H53.06ZM35.71,240.49h14.2V233.9H35.71Zm0,9.7h14.2v-7.1H35.71Z"/><path d="M80.31,237.29a55.28,55.28,0,0,1-7.57,11.39c1.36,1.16,2.17,1.92,3.25,3L73.72,254a56.47,56.47,0,0,0-8.9-7.89l2-2.12c1.36,1,2.22,1.6,3.74,2.82a42,42,0,0,0,5.86-8.56H66.34a28.21,28.21,0,0,1-5.8,6.83l-2.14-2A23.5,23.5,0,0,0,66.48,231l3,.65a30.39,30.39,0,0,1-1.65,4H78.57Z"/><path d="M98.36,251.52c5.24-1.33,7.79-4.23,7.79-8.92a8.14,8.14,0,0,0-4-7.37,8.76,8.76,0,0,0-2.93-1c-.81,6.28-1.9,10.3-3.88,14.18a11.9,11.9,0,0,1-2,3.06,4.32,4.32,0,0,1-3.07,1.46c-3.11,0-5.64-3.9-5.64-8.67a12.87,12.87,0,0,1,6.1-10.9,12.73,12.73,0,0,1,6.84-1.85c6.91,0,11.65,4.45,11.65,11q0,9.22-9.32,11.71Zm-2-17.4A8.39,8.39,0,0,0,91,236.61a10.41,10.41,0,0,0-3.25,7.54c0,2.93,1.22,5.61,2.58,5.61.67,0,1.3-.62,2.14-2.12a36,36,0,0,0,3.9-13.06Z"/><path d="M115,244a26.62,26.62,0,0,1-2.85,6.27l-1.51-2.88a22.5,22.5,0,0,0,4-8.21h-3.5v-2.49H115v-3.18c-1.49.27-2,.36-3,.46l-1-2.11a33.23,33.23,0,0,0,8-2l1.49,2c-.95.38-1.55.57-2.42.84l-.54.16v3.8h2.25v2.49h-2.25v2.06a23.64,23.64,0,0,1,3.2,2.93l-1.49,2.55a26.41,26.41,0,0,0-1.71-2.53v11.36H115Zm17.49,7.13a28.67,28.67,0,0,1,4.71,2.58l-2,1.9a34.36,34.36,0,0,0-5.42-3.31l1.44-1.17h-6.21l1.55,1.17a22.9,22.9,0,0,1-6.1,3.47l-1.74-2a19.19,19.19,0,0,0,5.45-2.64h-2.55V240.43h13.56v10.68Zm-5.59-21.33h2.74v1.71h6.67v1.84h-6.67v1.09h5.83v1.76h-5.83v1.19H137v1.9H120.46v-1.9h6.48v-1.19h-5.31v-1.76h5.31v-1.09h-6.07v-1.84h6.07Zm-2.57,13.61h8.13v-1.22h-8.13Zm0,2.9h8.13V245h-8.13Zm0,3h8.13V248h-8.13Z"/><path d="M152.1,231.68l1.85,1.57c-1,3.39-1.55,5.26-2.17,6.91a26.76,26.76,0,0,1,6.07,1.79c.11-1.22.16-2.22.16-3.36,0-.59,0-1,0-2l2.9.3a59.81,59.81,0,0,1-.3,6.37c1.22.62,2.14,1.19,3.45,2l-1.14,2.82a32.47,32.47,0,0,0-2.77-1.84,11.83,11.83,0,0,1-7.59,8.86l-1.65-2.22a9.92,9.92,0,0,0,6.59-8,22,22,0,0,0-6.57-2.2,42.28,42.28,0,0,1-4.33,9,4.68,4.68,0,0,1-3.72,2.3c-2.3,0-3.93-2.25-3.93-5.36,0-5,4-8.41,10.06-8.52a48.59,48.59,0,0,0,1.87-5.69h-9.08v-2.6Zm-7,11.47a5.7,5.7,0,0,0-3.44,5.23c0,1.38.57,2.57,1.25,2.57,1.19,0,3-3.09,5.12-8.46A9.16,9.16,0,0,0,145.08,243.15Z"/><path d="M176.86,236.34h-11.2v-2.17h11.2v-1.33c-2.44.11-3.39.17-3.74.17-1,.05-1.71.05-3.85.1L168.16,231a142.16,142.16,0,0,0,18-1.33l1.92,2.09c-2.71.41-4.36.6-6.94.79l-1.44.13v1.49h11.39v2.17H179.73v1.46h9v9.14h-9v1.63h9.93v2.11h-9.93v1.79h11.53v2.17H165.5v-2.17h11.36v-1.79H167.1v-2.11h9.76v-1.63H168V237.8h8.87Zm-6.05,3.36v1.74h6.05V239.7Zm0,3.61v1.79h6.05v-1.79Zm8.92-1.87h6.19V239.7h-6.19Zm0,3.66h6.19v-1.79h-6.19Z"/><path d="M201.23,230.38v7.51c2.93-3.39,5.78-5,8.68-5,4.07,0,6.48,3.53,6.48,9.49a27.79,27.79,0,0,1-.49,5.53,25.42,25.42,0,0,1,2.85,2.39l-1.36,2.49a31.52,31.52,0,0,0-2.44-2.36,5.83,5.83,0,0,1-5.42,3.12c-3.17,0-5.23-1.68-5.23-4.26,0-2.3,2.14-4.09,4.93-4.09a10,10,0,0,1,4,.95c.11-1.06.16-2.49.16-3.82,0-4.26-1.27-6.78-3.44-6.78-2.61,0-5.32,2-8.71,6.37v12.8h-2.95v-9.84l-2.36,3.06-1.06,1.41-.32.41-1.41-2.93a50.56,50.56,0,0,0,5.15-6.4v-2.63h-4.5v-2.66h4.5v-4.71Zm8.22,17c-1.46,0-2.58.84-2.58,1.9s1.12,1.84,2.63,1.84a3.25,3.25,0,0,0,3.09-2.27,1.82,1.82,0,0,1,.09-.19A5.65,5.65,0,0,0,209.45,247.37Z"/><path d="M220.6,233c7-.08,16.51-.36,23-.63l.16,2.63a19.12,19.12,0,0,0-7.42,1.47,9.32,9.32,0,0,0-5.83,8.43,4.77,4.77,0,0,0,2,4.31c1.57,1.11,3.74,1.81,7,2.22l-.62,3c-4.2-.57-6.91-1.57-8.65-3.17a8,8,0,0,1-2.68-6.26,10.19,10.19,0,0,1,2.44-6.32,11.38,11.38,0,0,1,4.85-3.47c-3,.08-8.78.35-14.1.63Zm19.24,11.41a22,22,0,0,0-2.62-4.72l2.05-.76a22.89,22.89,0,0,1,2.66,4.67Zm3.58-1.38a20.47,20.47,0,0,0-2.63-4.75l2-.7a16.71,16.71,0,0,1,2.63,4.55Z"/><path d="M258.63,235.39a31.64,31.64,0,0,1-3.95,6.08,31.76,31.76,0,0,1,4.66,3.47l-1.63,2.6a44.9,44.9,0,0,0-3.3-3.17v11.16h-2.8v-10.7l-.21.21a28.92,28.92,0,0,1-3.18,2.66l-1.7-2.41a28.57,28.57,0,0,0,8.24-8.52h-7.35v-2.65h4.12v-4.34h2.82v4.34h3Zm5.05-5.61h2.93v7.59h5.61V240h-5.61V251.9h6v2.71H257.06V251.9h6.62V240h-5.51v-2.66h5.51Z"/><path d="M273.82,253.39a31.29,31.29,0,0,0,8.21-2.68l2.23,1.9a39.51,39.51,0,0,1-8.84,3.09Zm23.75-2.76H276.1V238.24h21.47Zm-1.49-13.83H277.59v-6.21h18.49Zm-17.05,5h15.58v-1.52H279Zm0,3.34h15.58v-1.52H279Zm0,3.52h15.58V247H279Zm1.46-13.77h12.66v-2.17H280.49Zm17.27,20.71a59.13,59.13,0,0,0-8.24-2.93l2.22-1.92a56.68,56.68,0,0,1,8.19,2.57Z"/><path d="M312.62,230.59l-.62,3.74h7.88v2.61h-8.35l-.7,4.17h7.48v2.6H310.4a24.16,24.16,0,0,0-.38,3.69,3.38,3.38,0,0,0,1.11,2.9,6.61,6.61,0,0,0,4.31,1.28c3.9,0,6-1.49,6-4.31a11.94,11.94,0,0,0-.79-3.93l2.77-.19a10.48,10.48,0,0,1,1.08,4.22,6.11,6.11,0,0,1-2.41,5.21,11.73,11.73,0,0,1-6.72,1.81c-5.48,0-8.46-2.41-8.46-6.8a22.74,22.74,0,0,1,.41-3.88h-5v-2.6h5.42l.73-4.17h-5.83v-2.61H309l.7-4Z"/><path d="M347.92,240.05H334.58v-1.6a26,26,0,0,1-5,2.69l-1.71-2.41a21.74,21.74,0,0,0,11.36-8.95h3.25c2.82,3.52,6.13,5.75,11.69,7.83l-1.41,2.63a45,45,0,0,1-4.83-2.35Zm-8,5.83a52.05,52.05,0,0,1-3.74,5.89l.51,0c2-.11,7.18-.52,9.95-.82a41.74,41.74,0,0,0-3-3.06l2.5-1.43a52.67,52.67,0,0,1,6.86,7.21l-2.66,1.87c-.9-1.22-1.33-1.76-1.93-2.52-4.74.76-11.63,1.49-17.78,1.89l-.95-2.84,1.76-.06,1.47-.08a45.68,45.68,0,0,0,3.41-6h-7.61v-2.6h24.86v2.6Zm7.48-8.32a27.61,27.61,0,0,1-6.45-5.34,22.58,22.58,0,0,1-5.1,5.34Z"/><path d="M367.09,235.39a31.73,31.73,0,0,1-4,6.08,32.36,32.36,0,0,1,4.67,3.47l-1.63,2.6a45,45,0,0,0-3.31-3.17v11.16h-2.79v-10.7l-.22.21a28.86,28.86,0,0,1-3.17,2.66L355,245.29a28.33,28.33,0,0,0,8.24-8.52h-7.34v-2.65H360v-4.34h2.82v4.34h2.95Zm5-5.61h2.93v7.59h5.61V240h-5.61V251.9h6v2.71H365.52V251.9h6.61V240h-5.5v-2.66h5.5Z"/><path d="M382.39,241.79l2.27-.08c.41-.41,1.28-1.36,1.79-2a30.5,30.5,0,0,0-3.93-4.48l1.65-1.89c.41.37.52.48.74.7a32.08,32.08,0,0,0,2.73-4.45L390,231a36.93,36.93,0,0,1-3.58,4.8c.52.6,1.25,1.55,1.6,2.06l.14-.13c1-1.2,2.71-3.42,3.79-5l2.12,1.55a67.47,67.47,0,0,1-6.37,7.34c1.76-.1,2.73-.16,4-.3-.41-1.08-.55-1.4-.9-2.16l2.17-.79a24.83,24.83,0,0,1,2.17,5.94l-2.2.92a36.67,36.67,0,0,1,1.39,5.12L392,251.36a28.63,28.63,0,0,0-1.23-5.53l2.17-.62,0-.22c-.14-.54-.35-1.36-.46-1.74-.62.09-1.85.27-2.41.33v11.95h-2.63V243.9l-.52.06c-1.33.11-2.25.19-3.9.3Zm.16,10.73a32.38,32.38,0,0,0,1.27-6.94l2.5.33a27.29,27.29,0,0,1-1.25,7.73Zm23.88-.21h1.82v2.52H392.71v-2.52h2.63V231.14h11.09Zm-8.29-14.15h5.5v-4.53h-5.5Zm0,6.8h5.5v-4.47h-5.5Zm0,7.35h5.5v-5h-5.5Z"/><path d="M409.09,252.31a36,36,0,0,0,.73-7.05l2.2.19a44.52,44.52,0,0,1-.62,7.86Zm8.76-12.07a16.34,16.34,0,0,1,.92,3.37l-1.76.89-.14-.6c-.05-.27-.08-.38-.19-.89-.43.08-.59.14-1.19.22l-.32.08v12.22h-2.42V243.66c-.95.11-2.14.24-3,.32l-.51-2.35c.57,0,.65-.06,1.46-.11.49-.62.84-1.11,1.52-2.06a29.58,29.58,0,0,0-3.09-4.45l1.44-1.92c.54.65.62.73.67.81a24.54,24.54,0,0,0,1.9-4.31l2.28,1.08a36.55,36.55,0,0,1-2.9,5,20,20,0,0,1,1.08,1.7,1.51,1.51,0,0,0,.19-.27c.73-1.16,1.82-3,2.52-4.36l2,1.35a61.16,61.16,0,0,1-5.07,7.3c1.3-.11,1.87-.17,2.95-.3-.11-.36-.33-1-.54-1.55l1.73-.62,0,.08v-1h2.93a24.74,24.74,0,0,0-.79-3h-1.08v-2.17h3.39v-3h2.57v3h3.39v2.17h-1.08a31,31,0,0,1-.95,3h2.55l-.08-2.44c-.06-1.22-.09-2.47-.09-4.86v-.89h2.42v.89c0,3.47,0,5.4.16,7.3h4.8v2.27h-4.69c.11,1.77.24,3.23.4,4.88a36.55,36.55,0,0,0,2-4l2,1.36a42,42,0,0,1-3.39,6.1c.41,1.49,1.11,3.14,1.33,3.14s.54-1.7.76-3.68l2,1.35c-.4,3.91-1.24,5.86-2.49,5.86s-2.58-1.74-3.47-4.15a28.14,28.14,0,0,1-4.45,4.42l-1.73-1.79a24.51,24.51,0,0,0,2.36-1.92h-5v1.32h-2.25V241.9H427v8.94a24.23,24.23,0,0,0,2.14-2.57,56.84,56.84,0,0,1-.78-8Zm-1.52,11.2a45.61,45.61,0,0,0-.87-5.8l1.93-.52a37.93,37.93,0,0,1,1,5.24Zm4.8-5.64h3.66v-2h-3.66Zm0,4h3.66v-2.14h-3.66ZM423.62,238c.38-1.25.55-1.93.79-3h-2.68a19.18,19.18,0,0,1,.7,3Zm9.3-.57a23.35,23.35,0,0,0-1.92-5.61l2.19-.93a24.08,24.08,0,0,1,2.06,5.35Z"/><path d="M448.19,230.59l-.62,3.74h7.88v2.61H447.1l-.7,4.17h7.48v2.6H446a24.16,24.16,0,0,0-.38,3.69,3.38,3.38,0,0,0,1.11,2.9,6.61,6.61,0,0,0,4.31,1.28c3.9,0,6-1.49,6-4.31a11.94,11.94,0,0,0-.79-3.93l2.77-.19a10.48,10.48,0,0,1,1.08,4.22,6.11,6.11,0,0,1-2.41,5.21,11.73,11.73,0,0,1-6.72,1.81c-5.48,0-8.46-2.41-8.46-6.8a22.74,22.74,0,0,1,.41-3.88h-5v-2.6h5.43l.73-4.17h-5.83v-2.61h6.29l.7-4Z"/><path d="M50.62,271.36l-.09-.11a19.49,19.49,0,0,0-3-3.23l2.33-1.3A21.84,21.84,0,0,1,53.11,270l-2.22,1.41h4V274H46.41a38.16,38.16,0,0,0,1.5,8.32,35.2,35.2,0,0,0,3.25-6.53l2.55,1.3a41,41,0,0,1-4.61,8.21,10.6,10.6,0,0,0,2.74,3.39c.24.19.38.27.48.27.36,0,.71-1.82.9-4.39l2.55,1.49c-.6,5-1.2,6.45-2.71,6.45-1.68,0-4-1.9-5.91-4.8a25.07,25.07,0,0,1-5.62,4.88l-2-2.17a21.87,21.87,0,0,0,6.24-5.23c-.89-1.81-1.9-6.83-2.25-11.19H34.48v3.33h8a45.18,45.18,0,0,1-.7,9.27c-.44,1.66-1.38,2.31-3.31,2.31a17,17,0,0,1-2.09-.14l-.3,0-.37,0L35.24,286a16.58,16.58,0,0,0,2.58.24c.81,0,1.06-.16,1.27-.95a28.47,28.47,0,0,0,.55-5.48H34.48c-.08,6-.78,9.79-2.38,12.5l-2.39-1.95c1.33-2.38,1.9-5.69,1.9-11.25v-7.67H43.35c-.05-1.14-.14-2.85-.16-4.56h2.93c0,1.71,0,2.17.1,4.56H50.7Z"/><path d="M81.28,283.2a47,47,0,0,1-5.61,3.45,21.37,21.37,0,0,0,7.24,3.06l-1.85,2.52c-6.2-1.65-11-5.72-12.6-10.84H64.72v7.7c2-.36,5-1.06,7.21-1.66l.19,2.52a101.65,101.65,0,0,1-12.39,2.8L58.78,290c1.76-.22,2.28-.3,2.93-.41v-8.21H57v-2.25h4.67V267.75H80V270H64.72v1.58H78.79v2.14H64.72v1.6H78.79v2.09H64.72v1.76H82.8v2.25H79.19Zm-10.11-1.81a11.91,11.91,0,0,0,2.57,3.68,42.83,42.83,0,0,0,5.13-3.68Z"/><path d="M91.78,268v15.78c0,3.31,1.76,5,5.23,5a6.57,6.57,0,0,0,5.67-3.2,19.49,19.49,0,0,0,2.57-6.34l2.68,1.63a18.78,18.78,0,0,1-3.25,7.13A9.26,9.26,0,0,1,97,291.69c-5.39,0-8.29-2.82-8.29-8V268Z"/><path d="M118,292.2a47.15,47.15,0,0,0-5.53-6.61l2.14-1.9a44.26,44.26,0,0,1,5.64,6.48Z"/><path d="M160.45,273.93l0,3.28c0,.71,0,.87,0,1.41l-.05,1.14h3.82v2.44h-3.9v.49c0,1.14-.08,1.95-.19,3.33h3.49v2.39h-3.71a9.75,9.75,0,0,1-.54,2.9c-.46,1.06-1.38,1.54-2.9,1.54a37.39,37.39,0,0,1-4-.24l-.55-2.49a27.59,27.59,0,0,0,3.55.32c.71,0,1-.16,1.22-.57a4.35,4.35,0,0,0,.22-1.46H144.27c-.11.62-.16.92-.43,2.25l-3-.46c.46-2.2,1.11-5.8,1.33-7.51l.08-.49h-3.9v-2.44h4.23l.32-2.38c.11-.85.16-1.17.41-3.45Zm2.36-4.82v2.46H144.62a20,20,0,0,1-3.36,4l-2.47-1.79a17,17,0,0,0,5.13-7.19l3.06.47a21.84,21.84,0,0,1-.92,2.06ZM145.27,282.2c-.27,1.87-.32,2.36-.57,3.82h4.39c0-.19,0-.24.09-.51.16-1.25.3-2.17.32-2.44,0-.11.06-.46.11-.87Zm.68-6c-.11.95-.11,1.14-.19,1.87,0,.49,0,.57-.19,1.71h4.34c.16-1.76.19-2.11.24-2.85l.06-.73ZM152,286h5c0-.65.08-1.22.11-1.43.08-1.14.08-1.28.11-1.63l0-.76h-4.8Zm1-9.84c-.08,1.41-.14,2.14-.3,3.58h4.69c.05-1.08.11-2.28.13-3.58Z"/><path d="M188.63,292.12h-3.15v-2.06h-14.2v2.06h-3.12v-23.8h20.47Zm-17.35-14.53h14.2V271h-14.2Zm0,9.71h14.2v-7.11h-14.2Z"/><path d="M206.82,288.62c5.23-1.32,7.78-4.22,7.78-8.91a8.14,8.14,0,0,0-4-7.38,8.7,8.7,0,0,0-2.92-1c-.82,6.29-1.9,10.3-3.88,14.18a11.88,11.88,0,0,1-2,3.06,4.28,4.28,0,0,1-3.06,1.46c-3.12,0-5.64-3.9-5.64-8.67a12.84,12.84,0,0,1,6.1-10.9,12.67,12.67,0,0,1,6.83-1.84c6.91,0,11.66,4.44,11.66,10.95q0,9.23-9.33,11.71Zm-2-17.4a8.37,8.37,0,0,0-5.42,2.5,10.38,10.38,0,0,0-3.25,7.53c0,2.93,1.22,5.61,2.57,5.61.68,0,1.3-.62,2.14-2.11a35.89,35.89,0,0,0,3.91-13.07Z"/><path d="M226.15,292.64h-2.9V279.46a29.29,29.29,0,0,1-2.27,3.15l-1.41-2.93c2.49-3,4.39-7.08,6.1-12.9l2.87.75a52.32,52.32,0,0,1-2.39,6.54Zm19.33-18.27v2.73h-7.62v11.71h7.08v2.72H228.08v-2.72h6.83V277.1h-7.78v-2.73h7.78v-7.13h3v7.13Z"/><path d="M258.2,271H247.49v-2.17H258.2v-1.9h2.87v1.9H272V271H261.07v1.27h8.76v5.45h-8.76V279h9.39v3.5h2.19v2.09h-2.19v4.74h-2.88v-1.11h-6.51v2c0,1.87-.65,2.42-2.81,2.42a32.54,32.54,0,0,1-3.66-.19l-.47-2.36a32.66,32.66,0,0,0,3.47.22c.47,0,.6-.14.6-.6v-1.49h-9.3v-2.06h9.3v-1.57H246.79V282.5H258.2V281h-9.27v-2h9.27v-1.33h-8.59v-5.45h8.59ZM252.37,274v1.82h5.83V274Zm8.7,1.82h6V274h-6Zm6.51,6.64V281h-6.51v1.52Zm0,3.66v-1.57h-6.51v1.57Z"/><path d="M283.39,270.6c.87-1.39,1.33-2.17,1.79-3l2.95.43c-.4.71-.43.76-1.4,2.34l-.17.27h9.33v2.6H284.8a47.8,47.8,0,0,1-3.31,4.15,8.83,8.83,0,0,1,4.56-1.49,4,4,0,0,1,4.2,3.2l6.91-2.23,1.14,2.58-.46.13-1.33.36c-2.47.67-4.39,1.22-5.91,1.7.11,1.31.19,2.47.22,4.45l-2.9.16c0-1.41,0-1.92-.06-3.41v-.27c-4,1.38-6.1,2.79-6.1,4.2s1.79,1.84,6.92,1.84a70.55,70.55,0,0,0,7.59-.41l.32,2.82c-2.82.22-4.9.3-7.83.3-3.63,0-5.78-.21-7.29-.76a3.53,3.53,0,0,1-2.63-3.44c0-2.09,1.3-3.69,4.28-5.23a32.92,32.92,0,0,1,4.39-1.87c-.35-1.36-.89-1.87-2-1.87-2,0-5.25,1.76-8.53,4.63l-1.77-2a39.74,39.74,0,0,0,6.46-7.54h-5.4v-2.6Z"/><path d="M323.19,275.61V290c0,1.87-.73,2.53-2.9,2.53-1.06,0-3-.09-4.39-.17l-.6-2.68a39.1,39.1,0,0,0,4.12.24c.68,0,.82-.13.82-.86v-2.39H309.83v6h-3V279.33a26,26,0,0,1-4.25,3.44l-1.82-2.3a22.19,22.19,0,0,0,7.78-7.84h-7.32v-2.44h8.43a25.85,25.85,0,0,0,1.12-3.47l3.09.35a32.55,32.55,0,0,1-1,3.12h13.77v2.44H311.75a22.58,22.58,0,0,1-1.76,3ZM309.83,280h10.41v-2.06H309.83Zm0,4.45h10.41v-2.28H309.83Z"/><path d="M351.93,268.89v2.17h-3.74a16,16,0,0,1-1.11,2.33h6.86v2.2H328.18v-2.2h6.73a20,20,0,0,0-1.19-2.33h-3.53v-2.17h9.33v-2h2.9v2Zm-23.69,21.69a14.67,14.67,0,0,0,2.74-5l2.71.95a16,16,0,0,1-2.9,5.83Zm13.42-5.78a17.86,17.86,0,0,1,2.95,3l-2.33,1.65a16.59,16.59,0,0,0-2.93-3.41l1.93-1.28h-9.73v-8H350.6v8Zm-7.21-5h13.23V278.7H334.45Zm0,3h13.23v-1.3H334.45Zm4,2.95v3c0,.49.08.68.3.79a11.31,11.31,0,0,0,3.06.29c2.5,0,3.45-.13,3.66-.51a6.88,6.88,0,0,0,.3-2.25l2.77.76a15.13,15.13,0,0,1-.3,2.73c-.25.93-.79,1.33-2,1.52a42,42,0,0,1-4.78.25,17.25,17.25,0,0,1-4.74-.38,1.88,1.88,0,0,1-1.11-2v-4.2Zm-1.49-14.77a12.21,12.21,0,0,1,1,2.33h6.16a19.64,19.64,0,0,0,1-2.33Zm14.94,20.55a34.6,34.6,0,0,0-3.69-5.34l2.39-1.36a29,29,0,0,1,3.82,5Z"/><path d="M376.36,281.82a13.57,13.57,0,0,0-2.44-2.71l2-1.3a14,14,0,0,1,2.85,2.9l-1.63,1.11h3.9v2h-4l1.9,1.38c-1.33,1.06-1.81,1.44-3.6,2.68a6.17,6.17,0,0,0,2.3,1.69c.38,0,.62-1,.81-3.12l2.58,1.27c-.33,3.23-1.22,4.88-2.66,4.88s-3.87-1.49-5.23-3.28l-.46.27a44.36,44.36,0,0,1-5.37,2.74l-1.57-2.06a33.29,33.29,0,0,0,6.15-3,14.75,14.75,0,0,1-1.16-3.49h-6.1v1.57h.19l.16,0c1.11-.08,2-.16,4.61-.43l.05,1.81c-1.49.25-3.14.47-5,.68v3.23c0,1.49-.65,2-2.55,2a30.88,30.88,0,0,1-3.55-.22l-.41-2.33a21.83,21.83,0,0,0,3,.35c.51,0,.67-.16.67-.7v-2c-1.92.16-3.9.33-5.66.41l-.62-2.2c3.28-.11,3.76-.13,6.28-.32v-1.79h-6.5v-2h6.5v-1.19c-1.21.11-3.28.22-4.63.22l-.76-1.82a59.37,59.37,0,0,0,10.73-1.09l1.44,1.82a32.81,32.81,0,0,1-3.41.54l-.57.08v1.44h5.72c-.14-1-.25-2.2-.3-3.5h2.74c0,.79.21,2.5.35,3.5ZM362.29,269a13,13,0,0,0-1.19-1.66l3-.73a14.38,14.38,0,0,1,1.36,2.39H371c.59-1,1-1.71,1.27-2.28l3.23.49c-.52.7-.95,1.3-1.17,1.62l-.14.17h6.05v2H369.53v1.44h9.08v1.82h-9.08v1.46H381v2H355.35v-2h11.31v-1.46h-8.92v-1.82h8.92V271H356.11v-2Zm11.09,14.8a12.59,12.59,0,0,0,.76,2.06c.7-.49,1-.74,1.49-1.09.65-.51.92-.73,1.25-1Z"/><path d="M385,291.5a71.21,71.21,0,0,1-.51-8.95,87.87,87.87,0,0,1,1.14-14.47l2.9.29a73.55,73.55,0,0,0-1.09,13.4,67.48,67.48,0,0,0,.57,9.35Zm21.55-1.63a44.23,44.23,0,0,1-6.29.41c-6.1,0-9.13-1.79-9.13-5.37a6.19,6.19,0,0,1,1.14-3.71l2.49,1.11a3.89,3.89,0,0,0-.7,2.25c0,1.92,1.95,2.79,6.31,2.79a44.28,44.28,0,0,0,5.89-.41Zm-.89-19.33v2.82H393v-2.82Z"/><path d="M424.44,268l-.65,17.13H421L420.37,268Zm0,19.52v4.06h-4.07v-4.06Z"/></g><g id="テキスト"><path class="cls-1" d="M29.84,47.5a4.72,4.72,0,0,1,4-2.34c2.51,0,3.95,1.63,3.95,4.47V56.7H35.44V50c0-1.9-.77-2.84-2.3-2.84A4,4,0,0,0,29.84,50V56.7H27.47V45.37h2.37Z"/><path class="cls-1" d="M49.52,45.37V52c0,1.86.76,2.86,2.2,2.86a3.85,3.85,0,0,0,3.36-2.82V45.37h2.44V56.7H55.1V54.55a4.94,4.94,0,0,1-4,2.36c-2.63,0-4-1.58-4-4.51v-7Z"/><path class="cls-1" d="M68.77,47.42a3.49,3.49,0,0,1,3.09-2.26,3.1,3.1,0,0,1,3.23,2.5,3.76,3.76,0,0,1,3.26-2.5,3.34,3.34,0,0,1,2.75,1.3,5.06,5.06,0,0,1,.8,3.17V56.7H79.64V49.9c0-1.71-.69-2.72-1.88-2.72-1,0-2.06,1.15-2.4,2.64V56.7H73.09V49.81c0-1.68-.69-2.63-1.88-2.63s-2,1.13-2.42,2.82v6.7H66.53V45.37h2.24Z"/><path class="cls-1" d="M93.48,40.28v7a4.34,4.34,0,0,1,3.73-2.15c3.07,0,5.26,2.46,5.26,5.93S100.36,57,97.17,57a4.66,4.66,0,0,1-3.8-1.84l-.23,1.61h-2V40.28Zm0,12.69a3.66,3.66,0,0,0,3.17,2.08c2,0,3.3-1.58,3.3-4s-1.36-4-3.3-4c-1.29,0-2.4.89-3.17,2.52Z"/><path class="cls-1" d="M112.61,51.44a3.4,3.4,0,0,0,3.6,3.61,4.51,4.51,0,0,0,3.61-1.71l1.33,1.53A6.56,6.56,0,0,1,116,57a5.54,5.54,0,0,1-5.91-5.91c0-3.59,2.34-6.09,5.68-6.09,3.13,0,5.34,2.37,5.34,5.71v.69Zm6-1.71a2.82,2.82,0,0,0-2.93-2.86,3.16,3.16,0,0,0-3.06,2.86Z"/><path class="cls-1" d="M132.17,48.52c.69-2.34,1.88-3.44,3.76-3.44a3.38,3.38,0,0,1,1.56.33l-.66,2.19a3.09,3.09,0,0,0-1.17-.19c-1.74,0-3,1.44-3.41,3.8V56.7h-2.4V45.37h2.32l-.08,3.15Z"/><path class="cls-6" d="M41.23,208.11l-8.52.77-.34-2,2.21-.13v-.91c-1.13.33-2.36.62-3.7.87l-.62-1.9a29.09,29.09,0,0,0,5-1.3H31v-1.87h7.14v-1h2.61v1h7.35v1.87H46.45l1.29,1a17,17,0,0,1-2.75,1.3,28.37,28.37,0,0,0,3.83,1l-1.28,2q-5.88-1-8.48-5c-.56.32-1.21.64-1.93,1v1.76c1.95-.15,3.3-.27,4-.36Zm.24-9.29a1.27,1.27,0,0,1-.5,1.05,1.94,1.94,0,0,1-1.24.39H38.38l-.19-1.46h.74c.27,0,.4-.1.4-.31v-.36H37.82v3H35.34v-3H33.9v2.34H31.56v-3.59h3.78v-.63H30.92V195h.87l-1-.61a11.33,11.33,0,0,0,2.13-2.54l2,.36c-.16.31-.3.57-.42.77h.84v-1.15h2.48v1.15H41.2v1.37H37.82V195h4v1.29h-4v.63h3.65Zm-8.06-4.51c-.24.24-.47.45-.69.65h2.62v-.65Zm12,9.18H41.52a11.94,11.94,0,0,0,1.37,1.22A27.28,27.28,0,0,0,45.43,203.49Zm-1-5.22H42.16v-6h2.26Zm3.15,1.12a1.41,1.41,0,0,1-.59,1.17,2.28,2.28,0,0,1-1.44.46H43.33L43,199h1.65c.32,0,.48-.13.48-.38v-6.84h2.4Z"/><path class="cls-6" d="M68.08,206.53l-.43,2.08-6.25,0a31,31,0,0,1-6-.4,4.1,4.1,0,0,1-2.18-1.48,12.4,12.4,0,0,1-3,2.16l-.86-2.24a8.26,8.26,0,0,0,2.5-1.48v-4.74h-2v-2h4.44v6.23a1.49,1.49,0,0,0,.79,1.28,4.38,4.38,0,0,0,2,.62c.81.07,2.45.11,4.9.11C65.09,206.67,67.13,206.62,68.08,206.53Zm-13.4-10.8-2.35,1.2a19.66,19.66,0,0,0-1.14-1.88c-.6-.91-1-1.56-1.35-1.93L52,192A34.34,34.34,0,0,1,54.68,195.73Zm4.55-3.3c-.14.46-.3.92-.49,1.39h1.12V192h2.61v1.85h4.17v1.85H62.47v1.76h4.86v1.9H54.81v-1.9h5v-1.76h-2a12.62,12.62,0,0,1-1.16,1.71l-2.2-1a13.7,13.7,0,0,0,2.37-4.3Zm-3.38,13.24v-5.43H66.52v5.43Zm2.42-1.8H64V202H58.27Z"/><path class="cls-6" d="M75.57,196.51l-6.44,0v-1.84l6.44,0ZM75,208H71.52v.7h-2v-6.34H75Zm0-14.14H69.75v-1.63H75ZM74.87,199h-5.1v-1.6h5.1Zm0,2.52h-5.1v-1.61h5.1ZM73,206.38v-2.32H71.59v2.32Zm7-1.23a16.74,16.74,0,0,1-3.77,3.1l-1.11-1.88A15,15,0,0,0,79,202.78H75.57v-2H80v-1H76.33v-7.6h9.79v7.6H82.31v1H87v2H83.35a17.27,17.27,0,0,0,4.07,3.31l-1.32,2.06a15.51,15.51,0,0,1-3.79-3.32v4H80Zm-1.32-9.81H80v-1.26H78.68ZM80,196.73H78.68V198H80Zm2.25-1.39H83.7v-1.26H82.29Zm1.41,1.39H82.29V198H83.7Z"/><path class="cls-6" d="M104.08,193,97,210.82H94.45L101.54,193Z"/><path class="cls-6" d="M114.7,198.22l-.74-2.28,2.36-.36a23.49,23.49,0,0,1,1,2.64h1V195.4h-5.33v-2h3.74l-.77-1.43,2.5-.53,1.06,2h3.48l1.14-2,2.57.57-1,1.43h4v2h-5.44v2.82h1c.5-1.26.85-2.18,1-2.74l2.46.52a23.94,23.94,0,0,1-1,2.22h2.47v2H112.4v-2Zm13.57,10.45h-2.64v-.54h-8.81v.54h-2.66V201h14.11Zm-2.64-4.92v-1h-8.81v1Zm0,2.58v-1.06h-8.81v1.06Zm-5.07-8.11h1.38V195.4h-1.38Z"/><path class="cls-6" d="M149.83,207l-.42,2H149l-5.86.06a30.55,30.55,0,0,1-6-.41,4.17,4.17,0,0,1-2.18-1.48,12.46,12.46,0,0,1-3,2.17l-.86-2.24a7.7,7.7,0,0,0,2.3-1.35v-4.86H131.6v-2.05h4.26v6.34a1.42,1.42,0,0,0,.31.92,2.29,2.29,0,0,0,.93.64,6.23,6.23,0,0,0,1.79.34c.77.05,2.22.07,4.36.07C146.64,207.13,148.84,207.09,149.83,207Zm-13.47-10.7-2.36,1q-.37-.8-2.36-3.9l2.15-1A32.24,32.24,0,0,1,136.36,196.29Zm9.73,7H144v3.13H141.6v-3.13h-2v3.19h-2.44V195.9h3.24l-2.13-1.24,1-.91h-2.34V192h10.69l1,1.25a17.44,17.44,0,0,1-3.83,2.67h3.81v8.89A1.41,1.41,0,0,1,148,206a2.55,2.55,0,0,1-1.52.44h0l-1.84,0-.19-2h1.23c.33,0,.49-.16.49-.46Zm-4.49-4.45v-1.17h-2v1.17Zm-2,2.77h2v-1.21h-2Zm.88-7.82,2.27,1.38a18.15,18.15,0,0,0,2.11-1.38Zm3.52,3.88v1.17h2.12v-1.17Zm0,3.94h2.12v-1.21H144Z"/><path class="cls-6" d="M153.89,203a12.66,12.66,0,0,1-2.11,2.72l-1.29-1.61a13.07,13.07,0,0,0,1.77-2.4,16.77,16.77,0,0,0,1.48-3h-2.68v-2h2.83v-1.91c-1,.16-1.86.27-2.5.32l-.38-1.81a27.82,27.82,0,0,0,3.44-.57,17.89,17.89,0,0,0,3.15-.93l1,1.83a17.81,17.81,0,0,1-2.22.67v2.4h2v2h-2v.6a13,13,0,0,0,2.15,2.16l-1.1,1.93a14.34,14.34,0,0,1-1-1.11v6.61h-2.48Zm14.76.92-1.45.17v4.65h-2.58v-4.36l-6.49.75-.07-2.16,6.56-.76v-5.61l-1.3,1.57a52.62,52.62,0,0,0-3.83-3.87l1.64-1.79a30.59,30.59,0,0,1,3.49,3.39v-4h2.58v10l1.41-.17ZM164,200.54l-1.63,1.93a39,39,0,0,0-3.86-3.92l1.55-1.86A35.71,35.71,0,0,1,164,200.54Z"/><path class="cls-6" d="M180.06,208.9h-2.65v-3.69H169.9v-2.13h7.51v-1.25H179l-.67-1.11a5,5,0,0,0,3.27-5h2.26c0,.66,0,1.13,0,1.41.37,1.35,1.63,2.61,3.76,3.79l-1.46,1.71a8.86,8.86,0,0,1-3.29-2.9,8.37,8.37,0,0,1-2.78,2.41v1h7.86v2.13h-7.86Zm-4.25-13.21a14.62,14.62,0,0,1-.06,1.54,5.85,5.85,0,0,0,2.64,3.24l-1.31,1.67a7,7,0,0,1-2.33-2.23,8,8,0,0,1-3.6,2.9L170,201.18A7.05,7.05,0,0,0,171.9,200a5,5,0,0,0,1.2-1.72,6.38,6.38,0,0,0,.44-2.55Zm11.51-.46H170.48v-2.07h7v-1.41h2.69v1.41h7.2Z"/></g></g></svg>