<svg xmlns="http://www.w3.org/2000/svg" viewBox="0 0 780 170"><defs><style>.cls-1{fill:#fff;}.cls-2{fill:#d7d7d7;}.cls-3{fill:#182b7b;}.cls-4,.cls-5{fill:none;stroke-miterlimit:10;}.cls-4{stroke:#fff;stroke-width:2px;}.cls-5{stroke:#d7d7d7;stroke-width:3px;}.cls-6{fill:#bdbdbd;}.cls-7{fill:#b90f52;}.cls-8{fill:#8a8a8a;}</style></defs><title>Asset 28</title><g id="Layer_2" data-name="Layer 2"><g id="デザイン"><rect class="cls-1" x="1.5" y="1.5" width="777" height="167"/><path class="cls-2" d="M777,3V167H3V3H777m3-3H0V170H780V0Z"/><rect class="cls-3" x="35" y="24" width="100" height="26"/><line class="cls-4" x1="128" y1="37" x2="139" y2="37"/><line class="cls-5" x1="390" y1="29.5" x2="390" y2="140.5"/></g><g id="テキスト"><path d="M44.79,93.29h3.27v4.89H59.31v20.4c0,2.25-.93,3-3.78,3-2.07,0-3.69-.06-5.16-.15l-.6-3.12c1.89.12,4.14.21,5.46.21.63,0,.78-.15.78-.84V101.18H48v.3a17.25,17.25,0,0,1-.3,2.34,46.87,46.87,0,0,1,7.77,8L53,114.17a61.51,61.51,0,0,0-6.12-7.35,16.25,16.25,0,0,1-7.59,8.31l-1.92-2.58c4.8-2.61,7.08-6.12,7.38-11.37H37.08v20.61h-3.3V98.18h11Z"/><path d="M84.69,105.8a15.8,15.8,0,0,0,1.2,1.89h4.56v2.22H88.08a20.84,20.84,0,0,0,3.12,2l-1.68,2.31a15.83,15.83,0,0,1-1.56-1,15.21,15.21,0,0,1-2.25,2.13L84,113.6a14.32,14.32,0,0,0,2-2,16.93,16.93,0,0,1-1.59-1.68H79a13.74,13.74,0,0,1-1.62,1.92,15.27,15.27,0,0,1,1.89,1.8l-1.77,1.89c-.87-.9-1.44-1.47-2-2-.18.15-.42.36-1.35,1.05l-1.5-1.83V119c0,2.13-.6,2.76-2.61,2.76a18.8,18.8,0,0,1-2.82-.18l-.51-2.7a13.53,13.53,0,0,0,2.43.21c.69,0,.84-.15.84-.78v-4.92H66.63a15.27,15.27,0,0,1-2.58,8.46l-2.16-2.19c1.47-2.19,2-4.5,2-8.25V100.7h8.76v11.85a15.28,15.28,0,0,0,3-2.64H73.32v-2.22h4a17.19,17.19,0,0,0,1-1.89H73.83v-2.16h1.68l-.09-.21-.06-.15a19.63,19.63,0,0,0-1.08-2l2.55-.93c.33.66.87,2,1.35,3.24h1A24,24,0,0,0,80,99.83l2.79.27a24.52,24.52,0,0,1-.81,3.54H83.7a21.9,21.9,0,0,0,1.8-3.3l2.61.9a20.53,20.53,0,0,1-1.53,2.4h2.94v2.16ZM70.08,93.29h3.15v2.13h6.33V93.29h3.21v2.13h7.71v2.52H82.77v1.5H79.56v-1.5H73.23V99.8H70.08V97.94h-7.5V95.42h7.5ZM66.69,106H70v-2.79H66.69Zm0,5.16H70v-3H66.69Zm6.54,7a26.2,26.2,0,0,0,5.43-2.64l.69,2.19-.48.3a32.6,32.6,0,0,1-4.65,2.61ZM83,110.81v8.64c0,1.65-.63,2.31-2.19,2.31a25.93,25.93,0,0,1-3-.18l-.45-2.49a15,15,0,0,0,2.22.24c.57,0,.69-.15.69-.84v-7.68Zm-1.71-5a18.14,18.14,0,0,1-.87,1.89H83a15.31,15.31,0,0,1-.9-1.89Zm7.53,14.79a40.94,40.94,0,0,0-5.34-3.45l1.5-1.86,1,.48a32.26,32.26,0,0,1,4.47,2.55Z"/><path d="M127.56,103v15.87c0,2.07-.81,2.79-3.21,2.79-1.17,0-3.33-.09-4.86-.18l-.66-3a43.5,43.5,0,0,0,4.56.27c.75,0,.9-.15.9-1v-2.64H112.77v6.66h-3.3V107.06a28.52,28.52,0,0,1-4.71,3.81l-2-2.55a24.55,24.55,0,0,0,8.61-8.67h-8.1V97h9.33a28.43,28.43,0,0,0,1.23-3.84l3.42.39A33.17,33.17,0,0,1,116.1,97h15.24v2.7H114.9a26.68,26.68,0,0,1-2,3.3Zm-14.79,4.86h11.52v-2.28H112.77Zm0,4.92h11.52v-2.52H112.77Z"/><path d="M158.76,108.86h-9.9V112h10.62v2.64H148.86v3.51h12.42v2.67h-27.9V118.1h12.24v-3.51H135.21V112h10.41v-3.09h-9.69V94.4h22.83Zm-19.59-8.49h6.45V96.92h-6.45Zm0,6h6.45V102.8h-6.45Zm16.32-9.42h-6.63v3.45h6.63Zm0,5.88h-6.63v3.54h6.63Z"/><path class="cls-6" d="M184.79,101.86l2.93,4.68,2.92-4.68h2.26l-4.27,6.22v5.13h-1.81v-5.13l-4.29-6.22Z"/><path class="cls-6" d="M196,105v4.84c0,1.36.56,2.09,1.61,2.09a2.81,2.81,0,0,0,2.45-2.06V105h1.78v8.26H200v-1.57a3.61,3.61,0,0,1-2.92,1.72c-1.92,0-2.94-1.15-2.94-3.29V105Z"/><path class="cls-6" d="M206,107.24c.5-1.71,1.37-2.51,2.75-2.51a2.44,2.44,0,0,1,1.13.24l-.48,1.6a2.3,2.3,0,0,0-.85-.14c-1.28,0-2.21,1-2.49,2.77v4h-1.75V105H206l-.06,2.29Z"/><path class="cls-6" d="M213.22,101.53v1.79h-1.95v-1.79Zm-.1,3.42v8.26h-1.76V105Z"/><path class="cls-6" d="M223.41,101.86l3.65,6,.09.16a24.53,24.53,0,0,1,1.31,2.45h0c0-1-.07-2.69-.07-3.75v-4.84h1.75v11.35H228.4l-4.31-6.95a25.65,25.65,0,0,1-1.38-2.55h-.07c.07.94.12,2.45.12,4v5.49H221V101.86Z"/><path class="cls-6" d="M238,107.72c0-1-.67-1.61-1.95-1.61a4.28,4.28,0,0,0-2.7.87l-.75-1.14a6.19,6.19,0,0,1,3.52-1.12c2.33,0,3.52,1.11,3.52,3.25v2.76a5.72,5.72,0,0,0,.47,2.48h-1.55a5.26,5.26,0,0,1-.39-1.39h-.06a3.66,3.66,0,0,1-1.18,1.17,3.47,3.47,0,0,1-1.85.44,2.63,2.63,0,0,1-2.84-2.6c0-1.84,1.6-2.82,4.61-2.82H238Zm-.73,1.44c-2.23,0-3.24.49-3.24,1.58a1.36,1.36,0,0,0,1.54,1.31,2.37,2.37,0,0,0,2.41-2.2v-.69Z"/><path class="cls-6" d="M244.26,101.53v1.79h-1.95v-1.79Zm-.1,3.42v8.26H242.4V105Z"/><path class="cls-6" d="M249.55,105h2.55v1.35h-2.55v4.46a2.14,2.14,0,0,0,.1.84.78.78,0,0,0,.73.42,2.59,2.59,0,0,0,1.4-.46l.36,1.23a3.81,3.81,0,0,1-2.18.59c-1.4,0-2.16-.84-2.16-2.38v-4.7h-2V105h2v-1.77l1.75-.78Z"/><path class="cls-6" d="M261.79,109.06a4.24,4.24,0,1,1-4.23-4.35A4.11,4.11,0,0,1,261.79,109.06Zm-6.68,0c0,1.75,1,3,2.45,3s2.44-1.2,2.44-3-1-2.94-2.44-2.94S255.11,107.35,255.11,109.05Z"/><path class="cls-1" d="M35.91,35.08a4,4,0,0,1,3.35-1.95c2.09,0,3.29,1.36,3.29,3.73v5.89h-2V37.18c0-1.59-.64-2.37-1.92-2.37a3.32,3.32,0,0,0-2.75,2.32v5.62h-2V33.3h2Z"/><path class="cls-1" d="M52.31,33.3v5.54c0,1.55.64,2.39,1.84,2.39A3.21,3.21,0,0,0,57,38.87V33.3h2v9.45H57V41a4.11,4.11,0,0,1-3.33,2c-2.2,0-3.36-1.31-3.36-3.76V33.3Z"/><path class="cls-1" d="M68.36,35a2.88,2.88,0,0,1,2.57-1.89,2.58,2.58,0,0,1,2.69,2.08,3.14,3.14,0,0,1,2.72-2.08,2.77,2.77,0,0,1,2.29,1.08,4.16,4.16,0,0,1,.68,2.65v5.89H77.42V37.08c0-1.42-.58-2.27-1.57-2.27s-1.71,1-2,2.21v5.73H72V37c0-1.39-.58-2.19-1.57-2.19s-1.71.94-2,2.35v5.59H66.48V33.3h1.88Z"/><path class="cls-1" d="M89,29.06v5.81a3.59,3.59,0,0,1,3.11-1.79c2.56,0,4.38,2.05,4.38,5S94.68,43,92,43a3.9,3.9,0,0,1-3.17-1.54l-.19,1.34H87V29.06Zm0,10.58a3,3,0,0,0,2.64,1.73c1.67,0,2.75-1.31,2.75-3.33s-1.13-3.38-2.75-3.38A3.07,3.07,0,0,0,89,36.76Z"/><path class="cls-1" d="M104.89,38.36a2.84,2.84,0,0,0,3,3,3.75,3.75,0,0,0,3-1.42L112,41.23A5.48,5.48,0,0,1,107.73,43a4.62,4.62,0,0,1-4.92-4.93c0-3,2-5.08,4.73-5.08A4.43,4.43,0,0,1,112,37.79v.57Zm5-1.42a2.36,2.36,0,0,0-2.45-2.39,2.63,2.63,0,0,0-2.54,2.39Z"/><path class="cls-1" d="M121.19,35.93c.58-2,1.57-2.87,3.14-2.87a2.81,2.81,0,0,1,1.29.27l-.54,1.83a2.76,2.76,0,0,0-1-.16c-1.45,0-2.53,1.2-2.85,3.17v4.58h-2V33.3h1.94l-.06,2.63Z"/><path class="cls-7" d="M155.78,36.26c0,4.18-1.92,6.76-5,6.76s-5-2.58-5-6.76,1.92-6.75,5-6.75S155.78,32.09,155.78,36.26Zm-7.9,0c0,3.09,1.1,5,2.86,5s2.87-1.91,2.87-5-1.09-5-2.87-5S147.88,33.16,147.88,36.26Z"/><path class="cls-7" d="M171,29.7v8.39h2.32v1.66H171v3H169v-3h-6.5V38.11l6-8.41ZM169,34.38c0-.66.05-2,.11-2.9h-.06a18,18,0,0,1-1.3,2.37l-3,4.24H169Z"/><path class="cls-8" d="M43.05,78.35H34.18V76.5a31.07,31.07,0,0,0,4.53-4,4.1,4.1,0,0,0,1.16-2.47,1.66,1.66,0,0,0-.56-1.33,2.34,2.34,0,0,0-1.54-.47,5.67,5.67,0,0,0-3.09,1h-.2V67.08a10.5,10.5,0,0,1,3.7-.74,5,5,0,0,1,3.21.91,3.08,3.08,0,0,1,1.13,2.55,4.91,4.91,0,0,1-.92,2.68,20,20,0,0,1-4.26,4h5.71Z"/><path class="cls-8" d="M49.24,78.6a4.17,4.17,0,0,1-3.52-1.46,7.78,7.78,0,0,1-1.12-4.68,7.68,7.68,0,0,1,1.13-4.65,4.14,4.14,0,0,1,3.51-1.47,4.17,4.17,0,0,1,3.52,1.46,7.7,7.7,0,0,1,1.12,4.66,7.8,7.8,0,0,1-1.11,4.69A4.2,4.2,0,0,1,49.24,78.6Zm0-10.44a1.59,1.59,0,0,0-1.56,1,8.25,8.25,0,0,0-.48,3.28,8,8,0,0,0,.49,3.28,1.69,1.69,0,0,0,3.11,0,8.35,8.35,0,0,0,.48-3.28,8.51,8.51,0,0,0-.47-3.28A1.62,1.62,0,0,0,49.24,68.16Z"/><path class="cls-8" d="M64.13,78.35H56.64V76.63h2.52V69.82H56.64V68.24a4.14,4.14,0,0,0,2.12-.42,1.61,1.61,0,0,0,.72-1.27h2.18V76.63h2.47Z"/><path class="cls-8" d="M67.19,78.41v-2h.24a4.28,4.28,0,0,0,1.8.35q3.21,0,3.57-3.36a5.42,5.42,0,0,1-2.78.93,3.9,3.9,0,0,1-2.79-1,3.61,3.61,0,0,1-1.07-2.79,4,4,0,0,1,1.27-3,4.69,4.69,0,0,1,3.3-1.17,4.36,4.36,0,0,1,3.47,1.39,5.94,5.94,0,0,1,1.22,4.06,7.25,7.25,0,0,1-1.61,5,6,6,0,0,1-4.68,1.77A8.08,8.08,0,0,1,67.19,78.41Zm5.62-6.28s0-.17,0-.35,0-.31,0-.4c0-2.19-.71-3.28-2.13-3.28a1.75,1.75,0,0,0-1.4.61,2.5,2.5,0,0,0-.54,1.7c0,1.43.76,2.15,2.27,2.15A4.33,4.33,0,0,0,72.81,72.13Z"/><path class="cls-8" d="M95.69,75.92H90.25v3.34H88V75.92H81.08V74.05h2V71.19a12.1,12.1,0,0,1-1,.92l-1.5-1.36A13.5,13.5,0,0,0,83,67.93a12,12,0,0,0,1.53-3.26l2.23.33a13,13,0,0,1-.48,1.42h9v1.8H90.25v1.83h4.48v1.8H90.25v2.2h5.44Zm-10.32-7.7a16.12,16.12,0,0,1-1.28,1.83H88V68.22Zm-.08,5.83H88v-2.2H85.29Z"/><path class="cls-8" d="M104.58,72.89A11.53,11.53,0,0,1,102,76.5a15.38,15.38,0,0,1-4.17,2.68l-1.08-1.74a10.81,10.81,0,0,0,4.5-3.31,9.87,9.87,0,0,0,2-5V67.46l-3.87,0V65.57h6.16c0,.13,0,.27,0,.42v1.42a13,13,0,0,0,.29,2.76,8.94,8.94,0,0,0,1,2.57,10.82,10.82,0,0,0,2,2.45,16.61,16.61,0,0,0,2.91,2.13l-1.54,1.83A19.23,19.23,0,0,1,106.59,76,13.28,13.28,0,0,1,104.58,72.89Z"/><path class="cls-8" d="M117.06,79.23h-2V73.91a14,14,0,0,1-1.75,1.27l-.87-1.47A11.92,11.92,0,0,0,115,71.5a9.83,9.83,0,0,0,1.69-2.65h-3.55V67.12h2v-2h2v2H119l.42.43a12.39,12.39,0,0,1-2.1,4,26,26,0,0,0,2.5,2l-1,1.68c-.63-.49-1.2-1-1.71-1.45ZM128,78.77h-9.68V76.86h3.83V70.92h-3.07V69.09h3.07V65.2h2.23v3.89h3.2v1.83h-3.2v5.94H128Z"/><path d="M432.12,85.53h-1.69v-3.6a35.92,35.92,0,0,1-3.8,1.07l-.5-1.83.42-.07.7-.15V70h-.87V68.28h6.54v1.29h2.16V67.48h1.81v2.09h2.29v1.52h-.57l0,.13v.06c-.14.57-.37,1.38-.57,2h1.76l0-1.76c0-.93,0-1.75,0-3.46v-.53h1.69v.68c0,2.15,0,3.33,0,4,0,.4,0,.5,0,1.1h3.21v1.62h-3.15v.32c0,.31.13,2.26.19,3A26.85,26.85,0,0,0,443,75.4l1.41.95a29,29,0,0,1-2.36,4.25,6.08,6.08,0,0,0,.89,2.3c.16,0,.31-.74.55-2.54l1.43.93c-.29,2.75-.88,4.1-1.77,4.1s-1.78-1.23-2.41-3a21.58,21.58,0,0,1-3.12,3.08l-1.21-1.26A17.55,17.55,0,0,0,438,83h-3.4v1H433V76h5.72v6.27l0,0,.05-.06a18.65,18.65,0,0,0,1.43-1.73,37.4,37.4,0,0,1-.44-5.58h-7.69ZM428.85,70v2.35h1.61V70Zm0,3.89v2.36h1.61V73.86Zm0,3.89v2.84c.76-.19,1-.25,1.61-.42V77.75Zm5-4.52a16.58,16.58,0,0,0-.44-2l-.06-.19h-.7V70h-.55v3.26Zm.7,5.55h2.58V77.32h-2.58Zm0,2.87h2.58V80.11h-2.58Zm1.88-8.42a17.57,17.57,0,0,0,.53-2.14h-2a15.26,15.26,0,0,1,.43,2.14Zm6.42-.41a16.32,16.32,0,0,0-1.35-3.94l1.52-.64A16.87,16.87,0,0,1,444.48,72Z"/><path d="M459.7,79.43a10.78,10.78,0,0,1-4.78,5.83l-1.29-1.14A9.87,9.87,0,0,0,458,79.43H456.7a11.5,11.5,0,0,1-5.45,5l-1.18-1.22a10.89,10.89,0,0,0,4.83-3.83h-1.24a8,8,0,0,1-1.73,1.4l-1-1a31.14,31.14,0,0,1-5,2.46l-.68-1.88a24.47,24.47,0,0,0,2.51-.89V73.27h-2.19V71.43h2.19v-4h1.91v4h1.83v1.84h-1.83v5.42c.61-.29.92-.44,1.73-.86l.25,1.18a8.19,8.19,0,0,0,1.86-2.11h-2.62V75.34H463.6V76.9h-8.09a12.34,12.34,0,0,1-.65,1h8a30.94,30.94,0,0,1-.71,6.32c-.28.91-.83,1.24-2.13,1.24a14.83,14.83,0,0,1-1.86-.14l-.34-1.76a8,8,0,0,0,1.73.21c.59,0,.74-.14.89-.71a21.39,21.39,0,0,0,.46-3.68Zm2.19-5h-9.56V68h9.56Zm-7.7-3.87H460V69.43h-5.84Zm0,2.49H460V71.88h-5.84Z"/><path d="M474.43,82.71c3.67-.93,5.45-3,5.45-6.25a5.69,5.69,0,0,0-2.77-5.16,6,6,0,0,0-2.05-.71,28.55,28.55,0,0,1-2.72,9.94,8.34,8.34,0,0,1-1.41,2.15,3,3,0,0,1-2.14,1c-2.19,0-4-2.73-4-6.08A9,9,0,0,1,469.11,70a8.86,8.86,0,0,1,4.79-1.3c4.84,0,8.17,3.12,8.17,7.68,0,4.31-2.19,7-6.54,8.21ZM473,70.52a5.88,5.88,0,0,0-3.8,1.75A7.27,7.27,0,0,0,467,77.55c0,2,.86,3.93,1.81,3.93.47,0,.91-.44,1.5-1.48A25.09,25.09,0,0,0,473,70.84Z"/><path d="M500.84,80.36a23.31,23.31,0,0,1-2.45-.91,24.79,24.79,0,0,1-.53,4.82c-.31.86-1,1.2-2.36,1.2-.59,0-1.61-.08-2.45-.17l-.3-1.66a17.13,17.13,0,0,0,2.2.21c.7,0,.93-.17,1.1-.81a15.07,15.07,0,0,0,.31-2.55h-4c-.74,3.1-2.53,4.48-6.63,5.17l-1-1.54c3.42-.49,5-1.5,5.66-3.63H486.8v-.76a19.64,19.64,0,0,1-2.38,1l-1-1.52a14.15,14.15,0,0,0,6.34-3.44l1.6.76a11.53,11.53,0,0,1-3,2.45h9a17.16,17.16,0,0,1-3.69-2.41l1.44-.93a19.16,19.16,0,0,0,6.77,3.1Zm-9.39-11h-5.79V67.93h13.68v1.43h-5.91v1h7.79V74h-2V71.66h-5.79v4.48h-2V71.66h-5.68V74h-2V70.31h7.65Zm-.79,3.1v1.1h-4.07v-1.1Zm0,1.91v1.14h-4.07V74.37Zm7.75-1.91v1.1h-4.18v-1.1Zm0,1.91v1.14h-4.18V74.37Z"/><path d="M519.82,85.51h-2V84.4H505.19v1.13h-2V68.22h16.62Zm-14.63-2.85h12.63V69.89H505.19Zm3.06-12.24h1.88v2.32h2.77V70.42h1.89v2.32h2.12v1.58h-2.12v2.52h2.58v1.62h-2.58v3.72H512.9V78.46H510a5.58,5.58,0,0,1-2.45,4l-1.44-1.34a4.08,4.08,0,0,0,1.95-2.7h-2.33V76.84h2.54a3.55,3.55,0,0,0,0-.49v-2h-2.17V72.74h2.17Zm1.88,3.9v1.84c0,.21,0,.38,0,.68h2.79V74.32Z"/><path d="M538,69v1.67H525.37a13.54,13.54,0,0,1-2.43,2.79l-1.54-1.42a10,10,0,0,0,3.34-4.68l2.15.36c-.21.54-.32.74-.57,1.28Zm-16,14.72a13.3,13.3,0,0,0,5.32-3,34.49,34.49,0,0,0-3.93-2.09l1.33-1.37a38.68,38.68,0,0,1,3.91,2,14.26,14.26,0,0,0,1.79-2.79l1.9.76a15.22,15.22,0,0,1-2,3.11c1,.65,2.28,1.56,3.33,2.4l-1.35,1.57c-1.1-.93-2.15-1.71-3.31-2.52a15.34,15.34,0,0,1-5.7,3.4Zm14.44-9.1a27.84,27.84,0,0,0,.63,7.07c.19.6.32.93.41.93a6.34,6.34,0,0,0,.59-2.76l1.79,1.33a12.85,12.85,0,0,1-.69,3c-.34.82-.85,1.3-1.44,1.3-.87,0-1.88-1-2.43-2.42s-.84-3.36-.93-7h-12.2V74.39h14.27ZM536,71.81v1.48H524.82V71.81Z"/><path d="M548.57,68.05l-.44,2.62h5.53v1.82h-5.85l-.5,2.93h5.25v1.82H547a16.93,16.93,0,0,0-.27,2.59,2.39,2.39,0,0,0,.78,2,4.63,4.63,0,0,0,3,.89c2.74,0,4.2-1,4.2-3a8.45,8.45,0,0,0-.55-2.75l1.94-.14a7.45,7.45,0,0,1,.76,3,4.26,4.26,0,0,1-1.69,3.64,8.21,8.21,0,0,1-4.71,1.28c-3.84,0-5.93-1.69-5.93-4.77a17,17,0,0,1,.28-2.72h-3.47V75.42h3.8l.51-2.93H541.6V70.67H546l.5-2.81Z"/><path d="M576.57,79.05a26.48,26.48,0,0,1-3.83,2.52,16.16,16.16,0,0,0,5,2.06l-1.27,1.78c-4.77-1.4-7.62-3.82-8.89-7.52h-3.52v4.94c2.05-.42,3.52-.76,5.3-1.26l.14,1.69a57,57,0,0,1-9.14,2.21l-.74-1.88c.76-.1,1-.14,2.32-.36V69.45h5.41v-2h2.15v2H575V77.6Zm-3.74-7.94h-8.78v1.8h8.78Zm0,3.36h-8.78v1.84h8.78Zm-3.17,3.42a7.76,7.76,0,0,0,1.65,2.52,24.28,24.28,0,0,0,3.32-2.52Z"/><path d="M579,84.06a8.73,8.73,0,0,0,3.3-3.21A20.37,20.37,0,0,0,579,79a36.73,36.73,0,0,0,1.61-6h-2V71.14h2.36c.09-.59.2-1.19.3-1.8,0-.13.11-.76.28-1.86l1.9.24c-.09.52-.3,1.66-.62,3.42h3.53c-.07,4-.57,6.94-1.54,9.1a21.14,21.14,0,0,1,2,1.5l-1.09,1.75c-.68-.57-1.46-1.2-1.88-1.52a15.3,15.3,0,0,1-3.38,3.57Zm4.12-4.88A22,22,0,0,0,584.36,73h-1.91c-.21,1.19-.8,3.66-1.26,5.14a15.42,15.42,0,0,1,1.46.8Zm9.56-3.89h3.85v1.78h-3.85v6.65c0,1.33-.5,1.77-2,1.77-.85,0-1.77,0-2.58-.12l-.38-2c1,.11,1.92.17,2.41.17s.51-.14.51-.57v-6h-4.27V75.29h4.27V73.21l0,0,.15-.15a24.5,24.5,0,0,0,2.28-2.63H587V68.62h8l1.06,1a33.61,33.61,0,0,1-3.43,4Z"/><path d="M598.08,69.74c4.9-.06,11.57-.25,16.13-.44l.12,1.84a13.55,13.55,0,0,0-5.21,1A6.53,6.53,0,0,0,605,78.08a3.32,3.32,0,0,0,1.38,3,10.63,10.63,0,0,0,4.9,1.56l-.43,2.09c-2.95-.4-4.85-1.11-6.06-2.23A5.61,5.61,0,0,1,603,78.13a7.1,7.1,0,0,1,1.71-4.42,7.91,7.91,0,0,1,3.4-2.43c-2.07,0-6.16.24-9.88.43Zm13.49,8a15.35,15.35,0,0,0-1.84-3.31l1.44-.53A15.57,15.57,0,0,1,613,77.17Zm2.51-1a14.41,14.41,0,0,0-1.84-3.33l1.38-.49a11.69,11.69,0,0,1,1.84,3.19Z"/><path d="M624.64,71.14c-1.46.19-3.57.36-5.28.42l-.61-1.78a43.92,43.92,0,0,0,11.48-1.69l1.21,1.69a38.84,38.84,0,0,1-4.71,1.06v3.87h7.09v1.91H626.7c-.16,3.93-2.09,6.68-5.91,8.37l-1.35-1.73c3.4-1.42,4.94-3.42,5.15-6.64H617.2V74.71h7.44Z"/><path d="M652.67,75.13v2.09H636.33V75.13Z"/><path d="M655.23,81.52c.35,0,1,0,1.77-.1a120.18,120.18,0,0,0,4.87-13.07l2.12.55a114.64,114.64,0,0,1-4.67,12.37c2.83-.19,6.06-.51,8.36-.84-.89-1.57-1.86-3.13-2.79-4.46l1.82-1.16a57.07,57.07,0,0,1,5.13,8.53l-2.09,1.08c-.4-.87-.61-1.25-1.12-2.24-3.08.53-8.65,1.24-12.94,1.62Z"/><path d="M690,69.36c-.06,6.13-.88,9.53-2.8,11.8-1.23,1.5-4.21,3.09-6.82,3.68l-1.19-1.94c3.07-.64,5.54-1.93,6.63-3.49s1.86-4.56,1.9-8.11H677.18v5.18h-2.13V69.36Z"/><path d="M709.67,75.13v2.09H693.33V75.13Z"/><path d="M727.47,71.56c-1.33,7.54-4.48,11.17-11.53,13.32L714.78,83c6.1-1.54,9.25-4.83,10.35-10.73h-6.25A15.84,15.84,0,0,1,714.31,77l-1.52-1.54A13.07,13.07,0,0,0,718.64,68l2,.55c-.23.66-.47,1.25-.72,1.79H726Z"/><path d="M431,97.58c.21-1.12.38-2,.62-3.55l0-.27,2,.31c-.24,1.5-.41,2.41-.64,3.51h1.12c2.83,0,4.05,1.14,4.05,3.8a22.4,22.4,0,0,1-1.2,7.56,2.41,2.41,0,0,1-2.37,1.69,7.33,7.33,0,0,1-3.29-1l.23-2a7.32,7.32,0,0,0,2.73.85c.44,0,.65-.19.89-.78a19.21,19.21,0,0,0,1-6.25c0-1.65-.42-2-2.14-2h-1.43a37.85,37.85,0,0,1-4.23,11.21l-1.87-1a35.7,35.7,0,0,0,4.07-10.18h-3.71v-1.9Zm11.3,9.16A29.24,29.24,0,0,0,439,99.16l1.81-.82a32.38,32.38,0,0,1,3.5,7.5Zm-1.37-8.89a15.83,15.83,0,0,0-1.86-3.35L440.5,94a18.78,18.78,0,0,1,1.88,3.29Zm2.49-.8a16.36,16.36,0,0,0-1.84-3.36l1.37-.46a12.05,12.05,0,0,1,1.86,3.17Z"/><path d="M451.84,96.12c.11-1,.25-1.94.3-2.3l2.05.21v.15l-.08.48-.08.62-.09.63,0,.21h7.67v1.82H453.7l0,.17c0,.08,0,.29,0,.52l-.05.66-.06.59,0,.19a13.49,13.49,0,0,1,2.28-.19c4.16,0,6.8,2.05,6.8,5.28s-2,4.9-6.46,5.7l-.89-1.63c3.57-.59,5.26-1.92,5.26-4.16a3.23,3.23,0,0,0-1.71-3,19.38,19.38,0,0,1-5.39,6.1c-1.79,1.31-2.95,1.81-4.3,1.81-1.71,0-2.69-1.12-2.69-3.08,0-2.68,2-5.15,5-6.35l0-.24c.09-1.33.13-1.73.19-2.38H447.2V96.12Zm-3.53,10.71c0,1,.36,1.46,1.06,1.46a4.08,4.08,0,0,0,2.28-1,25.43,25.43,0,0,1-.29-3.9c0-.15,0-.53,0-1A5.32,5.32,0,0,0,448.31,106.83Zm5.05-3.89c0,1,0,1.94.13,2.87a16.6,16.6,0,0,0,3.44-4.28c-.38,0-.84-.07-1.2-.07a9.51,9.51,0,0,0-2.35.28C453.36,102.27,453.36,102.67,453.36,102.94Z"/><path d="M477.92,94.5l1,1.54c-3.19,1.94-6.19,3.88-8.36,5.36a11.29,11.29,0,0,1,4.6-1c3.8,0,6.18,1.88,6.18,4.9a4.86,4.86,0,0,1-2.91,4.48,12.78,12.78,0,0,1-5.21,1c-3.19,0-4.95-1.1-4.95-3.1,0-1.65,1.61-3,3.68-3,2.28,0,3.82,1.35,4.41,3.91,1.9-.6,2.85-1.74,2.85-3.36,0-2.07-1.58-3.32-4.18-3.32a12.57,12.57,0,0,0-5,1,19.6,19.6,0,0,0-3.09,2l-1.31-1.58a75.26,75.26,0,0,1,9.87-7.1h-8V94.5Zm-6,12c-1,0-1.77.59-1.77,1.35s1.14,1.35,3.06,1.35a11.3,11.3,0,0,0,1.29-.08C474.11,107.31,473.27,106.45,472,106.45Z"/><path d="M497.3,100.68H488V99.56a18.93,18.93,0,0,1-3.52,1.88l-1.19-1.69a15.28,15.28,0,0,0,8-6.27h2.28c2,2.47,4.29,4,8.18,5.49l-1,1.84a32.92,32.92,0,0,1-3.39-1.65Zm-5.62,4.08a36.77,36.77,0,0,1-2.62,4.12h.36c1.43-.08,5-.37,7-.58a26.72,26.72,0,0,0-2.12-2.14l1.74-1a36.61,36.61,0,0,1,4.81,5.06L499,111.51c-.63-.86-.93-1.24-1.35-1.77-3.33.53-8.15,1-12.46,1.33l-.67-2,1.24,0,1-.06a32.62,32.62,0,0,0,2.4-4.22H483.8v-1.82h17.42v1.82Zm5.24-5.83a19.8,19.8,0,0,1-4.52-3.74,15.77,15.77,0,0,1-3.57,3.74Z"/><path d="M510.74,97.41a22.44,22.44,0,0,1-2.78,4.26,21.92,21.92,0,0,1,3.27,2.43l-1.14,1.82c-.72-.78-1.52-1.52-2.31-2.22v7.83h-2V104l-.15.15a22.12,22.12,0,0,1-2.23,1.87l-1.19-1.7a20,20,0,0,0,5.77-6h-5.15V96.52h2.89v-3h2v3h2.07Zm3.53-3.93h2.05V98.8h3.94v1.86h-3.94V109h4.22v1.9h-10.9V109h4.63v-8.32h-3.85V98.8h3.85Z"/><path d="M522.08,95.74c4.9-.06,11.57-.25,16.13-.44l.12,1.84a13.55,13.55,0,0,0-5.21,1,6.53,6.53,0,0,0-4.08,5.91,3.32,3.32,0,0,0,1.38,3,10.63,10.63,0,0,0,4.9,1.56l-.43,2.09c-2.95-.4-4.85-1.11-6.06-2.23a5.61,5.61,0,0,1-1.88-4.39,7.1,7.1,0,0,1,1.71-4.42,7.91,7.91,0,0,1,3.4-2.43c-2.07,0-6.16.24-9.88.43Zm13.49,8a15.35,15.35,0,0,0-1.84-3.31l1.44-.53a15.57,15.57,0,0,1,1.86,3.27Zm2.51-1a14.41,14.41,0,0,0-1.84-3.33l1.38-.49a11.69,11.69,0,0,1,1.84,3.19Z"/><path d="M552.39,93.86v2.56h5.47v1.79h-5.47v4a7.37,7.37,0,0,1,.32,2c0,2.22-.48,3.82-1.46,4.86a8.37,8.37,0,0,1-4.77,2.34l-1.07-1.58c3.16-.58,4.68-1.63,5.19-3.55a3,3,0,0,1-2.37,1.09c-2.25,0-3.61-1.47-3.61-3.86a3.79,3.79,0,0,1,3.91-3.93,3.56,3.56,0,0,1,1.77.45V98.21h-9.16V96.42h9.16V93.86Zm-2,9.29a1.8,1.8,0,0,0-1.78-1.9,2.11,2.11,0,0,0-2,2.24,2,2,0,0,0,1.9,2.2,2,2,0,0,0,1.84-2.2Z"/><path d="M569.92,94.24l-.45,12h-1.94l-.46-12Zm0,13.68v2.85h-2.85v-2.85Z"/><path class="cls-8" d="M441.66,47H436v1.09a1.25,1.25,0,0,1-.59,1.07,2.4,2.4,0,0,1-1.44.42h-2.42l-.18-1.68h1.85a.56.56,0,0,0,.36-.14.38.38,0,0,0,.16-.31V47h-5.62V45.73h5.62V45h-6.3V43.55h6.3v-.69h-5.47V41.61h5.47v-.72h-5.07V38h5.07v-.72h-6.12V35.87h6.12v-.72H436v.72h6.46v1.37H436V38h5.17v2.93H436v.72h5.65v1.94h1V45h-1Zm-7.91-8h-3.1v.86h3.1Zm5.43.86V39H436v.86Zm.35,3.67v-.69H436v.69ZM436,45.73h3.52V45H436Z"/><path class="cls-8" d="M448.17,48.13a1.13,1.13,0,0,1-.51.92,2,2,0,0,1-1.25.39h-1.86l-.21-1.88h1.41c.29,0,.44-.13.44-.41V44.94a12.07,12.07,0,0,1-1.68,2.24L443.16,46a15.84,15.84,0,0,0,2.64-4.17h-2.17V40.24h2.42c-.44-.39-1.07-.94-1.9-1.64l1.33-1.25s.5.42,1.49,1.22a12.69,12.69,0,0,0,1.23-1.25H444V35.78h6.11l.82.89a14.31,14.31,0,0,1-2.72,2.93,7.4,7.4,0,0,1,.68.64h1.67l.53.44c-.05.17-.13.4-.24.68a13.42,13.42,0,0,0,2.27-.87,7.55,7.55,0,0,1-1.1-1.36c-.32.39-.65.74-1,1.08l-1.3-1a9.38,9.38,0,0,0,2.38-4l1.89.29a7,7,0,0,1-.38,1.05h4.9v1.53h-.81a6.13,6.13,0,0,1-1.49,2.3,13.36,13.36,0,0,0,2.67.78l-1,1.68a18.36,18.36,0,0,1-3.19-1.26,11.07,11.07,0,0,1-2,.86h1.71c0,.47,0,.83,0,1.07h3.52c0,1.21,0,2.19-.08,3a7.78,7.78,0,0,1-.27,1.69,1.57,1.57,0,0,1-.7.85,2.48,2.48,0,0,1-1.32.32h-1.85l-.26-1.74h1.57a.66.66,0,0,0,.65-.41,6.18,6.18,0,0,0,.21-2.11h-1.65a5.58,5.58,0,0,1-1.45,2.67,6.83,6.83,0,0,1-2.91,1.74L448.82,48a5.53,5.53,0,0,0,2.06-1.19A4.22,4.22,0,0,0,452,45.12h-2V43.56h2.27c0-.21,0-.53,0-1l-1,.29-.55-1.18a11.69,11.69,0,0,1-1.22,2.51l-1.29-.55c.2-.45.46-1.1.77-1.93h-.8Zm6.42-8.63a5.37,5.37,0,0,0,1.08-1.37h-2.38A4.94,4.94,0,0,0,454.59,39.5Z"/><path class="cls-8" d="M468.55,48.16h-1.78v.59h-1.69V42h4.51v5.16a11.49,11.49,0,0,0,1.05-1.37,17.52,17.52,0,0,1-.57-4.45h-5.71V49.6h-1.73V47.24a28.12,28.12,0,0,1-3,.71l-.33-1.68.65-.1V37.32h-.5V35.84h5.37v.78h1.59V35.5h1.83v1.12h1.8V35.44h1.81v4.29h2.53v1.56H471.9q0,1.16.12,2c.16-.37.4-1,.72-1.91l1.65.54a16.53,16.53,0,0,1-1.86,4c.11.31.22.59.34.85a2.7,2.7,0,0,0,.22.43.16.16,0,0,0,.09,0,.11.11,0,0,0,.1-.08c0-.06,0-.32.05-.77s0-.92,0-1.4l1.4.24a27.64,27.64,0,0,1-.14,3,1.68,1.68,0,0,1-.4.93,1.08,1.08,0,0,1-.77.27c-.7,0-1.41-.65-2.11-1.94a18.27,18.27,0,0,1-1.9,2l-1.07-1.18Zm-6.83-10.84V39.1h.91V37.32Zm0,3.17v1.76h.91V40.49Zm0,5.36.91-.19v-2h-.91Zm3.76-6.12-.28-1.59h-.52v-.82h-.32v2.41Zm2.43,4.65v-1h-1.14v1Zm0,2.37V45.52h-1.14v1.23Zm-1.12-8.61.28,1.59h.59l.29-1.59Zm2.38,1.59h.91V38.14h-.55Zm5.16-.77-1.53.38-.87-2.91,1.47-.35Z"/><path class="cls-8" d="M488.77,36.37l-5.92,14.81h-2.1l5.91-14.81Z"/><path class="cls-8" d="M498.09,38.53V35.85h2.14v2.68h1.94V35.28h2.2v1h4.78v1.38h-4.78v.87h6.15V40H495.63v-1.5Zm.19,10.94h-2V40.6h2v6.87H508V40.6H510v8.87H508v-.61h-9.74ZM502.2,45a10.47,10.47,0,0,1-3,1.84l-.83-1.21a11.77,11.77,0,0,0,3-1.86h-2.56V42.46h1.16l-.64-1.15,1.53-.5.9,1.65h.5V40.4H504v2.06h.59l.91-1.71,1.65.46-.8,1.25h1.22v1.35h-2.62a13.13,13.13,0,0,0,3,1.8l-1,1.33A14.16,14.16,0,0,1,504,45v2.18H502.2Z"/><path class="cls-8" d="M514.28,44.67a9.77,9.77,0,0,1-1.76,2.27l-1.07-1.34a10.44,10.44,0,0,0,1.48-2,14.22,14.22,0,0,0,1.23-2.53h-2.23V39.39h2.35V37.8c-.85.14-1.55.22-2.08.26l-.32-1.5a24.45,24.45,0,0,0,2.87-.48,14.94,14.94,0,0,0,2.63-.77l.82,1.52a13,13,0,0,1-1.85.56v2H518v1.68h-1.67v.5a11,11,0,0,0,1.79,1.81L517.23,45c-.28-.27-.58-.58-.88-.93v5.5h-2.07Zm12.31.77-1.21.14v3.88h-2.15V45.82l-5.41.63-.06-1.8,5.47-.63V39.34l-1.09,1.31c-1.6-1.72-2.67-2.8-3.19-3.23l1.37-1.49a27.56,27.56,0,0,1,2.91,2.83V35.39h2.15v8.38l1.17-.14Zm-3.89-2.82-1.36,1.6A33.32,33.32,0,0,0,518.13,41l1.29-1.55A28.91,28.91,0,0,1,522.7,42.62Z"/><path class="cls-8" d="M542.66,36.92a8.41,8.41,0,0,1-.82,2.09,10.73,10.73,0,0,1-2.16,2.82,13.91,13.91,0,0,1-2.8,2.15l-1.22-1.62a9.73,9.73,0,0,0,2.25-1.79,10.27,10.27,0,0,0,1.65-2.22H528.28v-2H542Zm-6.95,2.16v.38c0,1.07,0,2-.06,2.66a9.17,9.17,0,0,1-.43,2.25A6.76,6.76,0,0,1,534,46.6a7.84,7.84,0,0,1-2,1.77,11.18,11.18,0,0,1-2.8,1.18l-.85-1.89a6.69,6.69,0,0,0,3.93-2.56,8.48,8.48,0,0,0,1-4.52v-1.5Z"/><path class="cls-8" d="M551.66,41.9l-1.06,2c-1.15-.5-2.11-.89-2.85-1.14s-2-.63-3.73-1.12l.89-1.84a29.05,29.05,0,0,1,3,.76C548.77,40.81,550,41.27,551.66,41.9Zm7-.61a14.23,14.23,0,0,1-5.3,5.66,19,19,0,0,1-8,2.39l-.51-2.1a18.53,18.53,0,0,0,6.87-1.94,13,13,0,0,0,5-5Zm-5.48-3.22-1.1,2c-.57-.26-1.16-.51-1.76-.76s-1.1-.44-1.48-.56l-3.28-1.05.92-1.81A47.84,47.84,0,0,1,553.18,38.07Z"/><path class="cls-8" d="M574.8,47.87,573,49.55a72.32,72.32,0,0,0-5.34-4.92,23.89,23.89,0,0,1-7.32,5l-1.14-1.85A21.89,21.89,0,0,0,565.06,44a16.27,16.27,0,0,0,4.18-5.47h-7.91v-2h10.26l.64.62A15,15,0,0,1,571,40.34,19.75,19.75,0,0,1,569.15,43Q572.53,45.72,574.8,47.87Z"/><path class="cls-8" d="M589.77,37.13a17.13,17.13,0,0,1-.2,2.39,14.41,14.41,0,0,1-1,3.39,10.66,10.66,0,0,1-2,2.88,11.85,11.85,0,0,1-3.18,2.31A18.64,18.64,0,0,1,579,49.64l-.78-2a12.32,12.32,0,0,0,6.44-3.08,45.05,45.05,0,0,0-4.29-1.82l1.09-1.79A40.66,40.66,0,0,1,586,42.79a11.18,11.18,0,0,0,1.29-3.69h-5.18a14.84,14.84,0,0,1-5.29,5.21l-1.28-1.63a13.11,13.11,0,0,0,5.63-7.25l2.4.31c-.22.64-.39,1.11-.5,1.39Z"/><path class="cls-8" d="M600.3,39.42l-1.42,1.93c-.78-.49-1.46-.91-2.06-1.25s-1.94-1-4-2.09L594,36.22A50.68,50.68,0,0,1,600.3,39.42Zm6.34,1.9a14.18,14.18,0,0,1-5.18,5.59,19.2,19.2,0,0,1-8.08,2.4l-.54-2.19a21,21,0,0,0,4.46-.81,11.88,11.88,0,0,0,3.12-1.5,16.09,16.09,0,0,0,2.28-1.88,15.09,15.09,0,0,0,2.07-2.86Z"/><path class="cls-8" d="M622.34,43.56l-1.48,1.86a29.09,29.09,0,0,0-6.9-3.49v7.62H611.5V35.46H614v4.17A40.37,40.37,0,0,1,622.34,43.56Z"/><path class="cls-8" d="M626.28,44.67a9.77,9.77,0,0,1-1.76,2.27l-1.07-1.34a10.44,10.44,0,0,0,1.48-2,14.22,14.22,0,0,0,1.23-2.53h-2.23V39.39h2.35V37.8c-.85.14-1.55.22-2.08.26l-.32-1.5a24.45,24.45,0,0,0,2.87-.48,14.94,14.94,0,0,0,2.63-.77l.82,1.52a13,13,0,0,1-1.85.56v2H630v1.68h-1.67v.5a11,11,0,0,0,1.79,1.81L629.23,45c-.28-.27-.58-.58-.88-.93v5.5h-2.07Zm12.31.77-1.21.14v3.88h-2.15V45.82l-5.41.63-.06-1.8,5.47-.63V39.34l-1.09,1.31c-1.6-1.72-2.67-2.8-3.19-3.23l1.37-1.49a27.56,27.56,0,0,1,2.91,2.83V35.39h2.15v8.38l1.17-.14Zm-3.89-2.82-1.36,1.6A33.32,33.32,0,0,0,630.13,41l1.29-1.55A28.91,28.91,0,0,1,634.7,42.62Z"/><path class="cls-8" d="M648.09,49.58h-2.21V46.51h-6.25V44.74h6.25V43.69h1.35l-.56-.92a4.16,4.16,0,0,0,2.72-4.2h1.88c0,.56,0,1,0,1.18.32,1.12,1.36,2.17,3.14,3.16l-1.22,1.42a7.45,7.45,0,0,1-2.74-2.41,6.89,6.89,0,0,1-2.32,2v.82h6.55v1.77h-6.55Zm-3.54-11c0,.57,0,1,0,1.28a4.91,4.91,0,0,0,2.2,2.71L645.61,44a5.73,5.73,0,0,1-1.94-1.86,6.71,6.71,0,0,1-3,2.42l-.93-1.36a5.35,5.35,0,0,0,1.55-1,4.27,4.27,0,0,0,1-1.43,5.37,5.37,0,0,0,.36-2.13Zm9.59-.38h-14V36.46h5.79V35.29h2.24v1.17h6Z"/></g></g></svg>