<svg xmlns="http://www.w3.org/2000/svg" xmlns:xlink="http://www.w3.org/1999/xlink" viewBox="0 0 174.74 30"><defs><style>.cls-1{fill:none;}.cls-2{clip-path:url(#clip-path);}.cls-3{fill:#a4a4a4;}.cls-4{clip-path:url(#clip-path-2);}.cls-5{fill:#b90f52;}</style><clipPath id="clip-path"><rect class="cls-1" width="30" height="30"/></clipPath><clipPath id="clip-path-2"><circle class="cls-1" cx="15" cy="32.5" r="15"/></clipPath></defs><title>Asset 29</title><g id="Layer_2" data-name="Layer 2"><g id="デザイン"><g class="cls-2"><path class="cls-3" d="M15,3A12,12,0,1,1,3,15,12,12,0,0,1,15,3m0-3A15,15,0,1,0,30,15,15,15,0,0,0,15,0Z"/><g class="cls-4"><path class="cls-5" d="M15,3A12,12,0,1,1,3,15,12,12,0,0,1,15,3m0-3A15,15,0,1,0,30,15,15,15,0,0,0,15,0Z"/></g></g></g><g id="テキスト"><path d="M53.79,12.75h1.93v1.71H53.79v3.72c1.1-.41,1.42-.54,2.2-.88L56.15,19a43.2,43.2,0,0,1-6.38,2.59l-.61-1.89c.88-.23,1.53-.41,2.4-.7l.34-.11V14.46H49.74V12.75H51.9V9.14H49.5V7.4h6.4V9.14H53.79Zm9.13,8.49c0,.42.12.49.84.49s.89-.07,1-.38A13.07,13.07,0,0,0,65,19.1l1.71.6c-.16,3.49-.41,3.79-3,3.79a4.15,4.15,0,0,1-2.07-.28,1.08,1.08,0,0,1-.49-1V17.59H59.86c-.16,3.62-1.52,5.18-5.37,6.21l-1-1.49c3.53-1,4.43-1.89,4.6-4.72H56.53V7.31h8.78V17.59H62.92ZM58.34,10.37h5.15V8.84H58.34Zm0,2.84h5.15V11.7H58.34Zm0,2.9h5.15V14.56H58.34Z"/><path d="M72.89,8.73a17.85,17.85,0,0,0,.72-2.23l2,.25a16.22,16.22,0,0,1-.63,2h9.6v1.73H74.2a23.39,23.39,0,0,1-2.34,3.83v9.42H69.92V16.58c-.58.59-.78.77-1.44,1.39l-1.23-1.62a19.51,19.51,0,0,0,4.83-5.89H67.7V8.73Zm4.57,3h2v3.2H83.6v1.68H79.42v4.57h5.14V22.9H72.62V21.19h4.84V16.62h-4V14.94h4Z"/><path d="M94.88,21.05c3.48-.89,5.17-2.81,5.17-5.93a5.41,5.41,0,0,0-2.63-4.9,5.8,5.8,0,0,0-1.94-.66A26.88,26.88,0,0,1,92.9,19a7.85,7.85,0,0,1-1.33,2,2.85,2.85,0,0,1-2,1c-2.07,0-3.75-2.59-3.75-5.76a8.55,8.55,0,0,1,4-7.24,8.45,8.45,0,0,1,4.54-1.22c4.59,0,7.74,3,7.74,7.27q0,6.14-6.19,7.78ZM93.57,9.49A5.56,5.56,0,0,0,90,11.14a6.93,6.93,0,0,0-2.16,5c0,1.94.81,3.73,1.71,3.73.45,0,.86-.42,1.42-1.41a23.86,23.86,0,0,0,2.59-8.68Z"/><path d="M107.72,23.71h-1.93V15a21.5,21.5,0,0,1-1.51,2.09l-.94-2a23.44,23.44,0,0,0,4-8.57L109.3,7a34.72,34.72,0,0,1-1.58,4.34Zm12.84-12.14v1.82H115.5v7.78h4.7V23H109v-1.8h4.53V13.39h-5.16V11.57h5.16V6.84h2v4.73Z"/><path d="M129,9.31h-7.11V7.87H129V6.61h1.91V7.87h7.22V9.31H130.9v.84h5.82v3.62H130.9v.88h6.23V17h1.46v1.38h-1.46v3.15h-1.91v-.73H130.9v1.33c0,1.24-.43,1.6-1.87,1.6a20.85,20.85,0,0,1-2.43-.13L126.29,22a20.57,20.57,0,0,0,2.31.14c.3,0,.39-.09.39-.39v-1h-6.17V19.41H129V18.36h-7.58V17H129V16h-6.15V14.65H129v-.88h-5.7V10.15H129Zm-3.87,2v1.21H129V11.36Zm5.78,1.21h4V11.36h-4ZM135.22,17V16H130.9v1Zm0,2.43V18.36H130.9v1.05Z"/><path d="M147,6.61h2V9.54h6.75V21.78c0,1.35-.55,1.79-2.27,1.79-1.24,0-2.21,0-3.09-.09L150,21.6c1.13.08,2.48.13,3.27.13.38,0,.47-.09.47-.5V11.34H148.9v.18a9.39,9.39,0,0,1-.18,1.41,28,28,0,0,1,4.67,4.82l-1.5,1.39a36.47,36.47,0,0,0-3.67-4.41,9.75,9.75,0,0,1-4.56,5l-1.15-1.54a7.65,7.65,0,0,0,4.43-6.83h-4.61V23.71h-2V9.54H147Z"/><path d="M171.84,23.71h-2v-.85h-7.73v.85h-2V18.24c-.67.34-1.08.55-1.84.88l-1-1.6a17.15,17.15,0,0,0,7.72-5h1.75a21.4,21.4,0,0,0,8,4.81l-1.1,1.57c-.72-.31-1.1-.47-1.8-.81ZM158.12,13.39a12.77,12.77,0,0,0,4.55-2.93l1.46,1a15.48,15.48,0,0,1-4.84,3.34Zm15.73-5.13V12h-1.92V9.77H160.06V12h-1.91V8.26H165V6.61h1.92V8.26Zm-3.44,9A21.54,21.54,0,0,1,165.93,14a17,17,0,0,1-4,3.27Zm-8.28,1.48v2.57h7.73V18.76Zm10.37-4.09a30.57,30.57,0,0,0-4.89-3.26l1.26-1.06a27.92,27.92,0,0,1,4.91,3Z"/></g></g></svg>