<svg xmlns="http://www.w3.org/2000/svg" viewBox="0 0 780 170"><defs><style>.cls-1{fill:#fff;}.cls-2{fill:#d7d7d7;}.cls-3{fill:#182b7b;}.cls-4,.cls-5{fill:none;stroke-miterlimit:10;}.cls-4{stroke:#fff;stroke-width:2px;}.cls-5{stroke:#d7d7d7;stroke-width:3px;}.cls-6{fill:#bdbdbd;}.cls-7{fill:#b90f52;}.cls-8{fill:#8a8a8a;}</style></defs><title>Asset 4</title><g id="Layer_2" data-name="Layer 2"><g id="デザイン"><rect class="cls-1" x="1.5" y="1.5" width="777" height="167"/><path class="cls-2" d="M777,3V167H3V3H777m3-3H0V170H780V0Z"/><rect class="cls-3" x="35" y="24" width="100" height="26"/><line class="cls-4" x1="128" y1="37" x2="139" y2="37"/><line class="cls-5" x1="390" y1="29.5" x2="390" y2="140.5"/></g><g id="テキスト"><path d="M32,113.72c1.8-2.79,3.42-8.34,4.23-14.55l3.36.75c-1,7.47-2.61,12.72-4.77,16.08ZM48.27,93.59V118c0,2.7-.78,3.42-3.75,3.42-1.35,0-2.94-.06-4.47-.21l-.75-3.42a36.42,36.42,0,0,0,4.47.36c.93,0,1.08-.12,1.08-.9V93.59Zm9.24,22a103.76,103.76,0,0,0-5.13-16l3.09-1.32a77,77,0,0,1,5.34,15.51Z"/><path d="M67.59,108.11a36.93,36.93,0,0,1-3.81,8L62,112.94a32.53,32.53,0,0,0,5.25-10.44H62.52V99.59h5.07v-6.3h3.12v6.3h4v2.91h-4v2l.18.12a28.64,28.64,0,0,1,4.68,4.17l-1.71,2.76a39.73,39.73,0,0,0-3.15-3.63v13.92H67.59Zm16.86-5.61a27.37,27.37,0,0,0,6.9,11l-1.77,3.63A32.42,32.42,0,0,1,84,107.06v14.73H80.91v-14.4a26.24,26.24,0,0,1-5.61,10.29l-2-3c3.12-2.91,5.34-6.72,7.11-12.15H75.84V99.59h5.07v-6.3H84v6.3h6.54v2.91Z"/><path d="M122.43,99.35h4.35v2.22h-4.35v1.59h4.74v11.7h-4.8v2.85c0,.57.12.75.54.87a20.8,20.8,0,0,0,2.85.18c1.71,0,2.52-.18,2.73-.66a15.34,15.34,0,0,0,.33-3l3.06,1c-.18,2.46-.48,3.75-1,4.32s-2.25.93-5.85.93c-3.36,0-4.53-.12-5.16-.6a1.8,1.8,0,0,1-.72-1.68v-4.26h-3.72c-1,4.56-3.81,6.3-11.1,7l-1.41-2.76c6.24-.42,8.49-1.47,9.15-4.2h-4.71v-11.7h4.77v-1.59h-4.32V99.35h4.32V97.67h-5.07V101H104V95.48h11.64V93.29h3.21v2.19h11.82V101h-3.12V97.67h-5.1Zm-11.94,7.14h13.59V105H110.49Zm0,3.18h13.59v-1.44H110.49Zm0,3.24h13.59v-1.44H110.49ZM115,97.67v1.68h4.56V97.67Zm4.56,5.49v-1.59H115v1.59Z"/><path d="M140.94,121.79H137.7V109.43a37.52,37.52,0,0,1-3.21,2.76l-1.71-2.82A36.49,36.49,0,0,0,142,99.56l2.52,1.65a39.57,39.57,0,0,1-3.6,4.83ZM133,100.34a24,24,0,0,0,7.83-6.93l2.58,1.71a32,32,0,0,1-8.67,7.83Zm23.58,18.51c0,2-.9,2.7-3.27,2.7-1.62,0-3.69-.06-5.22-.18l-.57-3.15c1.44.12,3.48.24,4.62.24.87,0,1.11-.24,1.11-1V105.89h-9.12v-3H161.7v3h-5.13Zm3.12-23.94v2.94H146.1V94.91Z"/><path class="cls-6" d="M185.62,101.86v4.64h5.57v-4.64H193v11.35h-1.79v-5.13h-5.57v5.13h-1.8V101.86Z"/><path class="cls-6" d="M197.7,101.53v1.79h-1.95v-1.79Zm-.1,3.42v8.26h-1.77V105Z"/><path class="cls-6" d="M202,107.24c.51-1.71,1.38-2.51,2.75-2.51a2.54,2.54,0,0,1,1.13.24l-.47,1.6a2.35,2.35,0,0,0-.86-.14c-1.27,0-2.21,1-2.49,2.77v4h-1.75V105H202l-.05,2.29Z"/><path class="cls-6" d="M215,109.06a4.24,4.24,0,1,1-4.23-4.35A4.12,4.12,0,0,1,215,109.06Zm-6.69,0c0,1.75,1,3,2.46,3s2.43-1.2,2.43-3-1-2.94-2.43-2.94S208.29,107.35,208.29,109.05Z"/><path class="cls-6" d="M217.9,105l1.72,5.15.13.36c.07.21.14.44.22.65s.1.31.18.54h0v0c.28-.71.32-.82.55-1.47l1.75-5.19h1.94l-3.67,9.28a3,3,0,0,1-3.33,2.13h-.6l-.48-1.37h.8c1.08,0,1.55-.24,1.81-.9l.29-.75-3.4-8.39Z"/><path class="cls-6" d="M227.63,105v4.84c0,1.36.56,2.09,1.61,2.09a2.81,2.81,0,0,0,2.45-2.06V105h1.78v8.26H231.7v-1.57a3.58,3.58,0,0,1-2.91,1.72c-1.92,0-2.94-1.15-2.94-3.29V105Z"/><path class="cls-6" d="M237.82,101.23v7.08l3.4-3.36h2.23l-3.29,3.23,3.57,5h-2.21l-2.62-4-1.08,1v3h-1.74v-12Z"/><path class="cls-6" d="M247.31,101.53v1.79h-1.95v-1.79Zm-.1,3.42v8.26h-1.76V105Z"/><path class="cls-6" d="M257,101.86v5.26l4.71-5.26H264l-4.6,4.86,5,6.49h-2.3l-3.89-5.39L257,109v4.17h-1.8V101.86Z"/><path class="cls-6" d="M273.8,109.06a4.24,4.24,0,1,1-4.23-4.35A4.11,4.11,0,0,1,273.8,109.06Zm-6.68,0c0,1.75,1,3,2.45,3s2.44-1.2,2.44-3-1-2.94-2.44-2.94S267.12,107.35,267.12,109.05Z"/><path class="cls-6" d="M277.47,101.23v5.09a3.15,3.15,0,0,1,2.72-1.57c2.24,0,3.83,1.79,3.83,4.33s-1.54,4.34-3.86,4.34a3.43,3.43,0,0,1-2.78-1.34l-.16,1.17h-1.47v-12Zm0,9.26a2.65,2.65,0,0,0,2.31,1.51c1.46,0,2.41-1.14,2.41-2.91s-1-3-2.41-3a2.67,2.67,0,0,0-2.31,1.83Z"/><path class="cls-6" d="M291.13,107.72c0-1-.67-1.61-1.94-1.61a4.33,4.33,0,0,0-2.71.87l-.74-1.14a6.19,6.19,0,0,1,3.52-1.12c2.32,0,3.51,1.11,3.51,3.25v2.76a5.71,5.71,0,0,0,.48,2.48h-1.56a5.67,5.67,0,0,1-.39-1.39h-.05a3.66,3.66,0,0,1-1.18,1.17,3.47,3.47,0,0,1-1.85.44,2.63,2.63,0,0,1-2.84-2.6C285.38,109,287,108,290,108h1.14Zm-.72,1.44c-2.23,0-3.24.49-3.24,1.58a1.36,1.36,0,0,0,1.54,1.31,2.37,2.37,0,0,0,2.41-2.2v-.69Z"/><path class="cls-6" d="M296.37,105l1.72,5.15.13.36c.07.21.14.44.22.65s.1.31.18.54h.05v0c.28-.71.32-.82.55-1.47L301,105h1.94l-3.67,9.28a3,3,0,0,1-3.33,2.13h-.6l-.48-1.37h.8c1.08,0,1.55-.24,1.81-.9l.29-.75-3.4-8.39Z"/><path class="cls-6" d="M309.52,107.72c0-1-.68-1.61-1.95-1.61a4.28,4.28,0,0,0-2.7.87l-.75-1.14a6.19,6.19,0,0,1,3.52-1.12c2.32,0,3.51,1.11,3.51,3.25v2.76a5.71,5.71,0,0,0,.48,2.48h-1.55a5.61,5.61,0,0,1-.4-1.39h-.05a3.66,3.66,0,0,1-1.18,1.17,3.47,3.47,0,0,1-1.85.44,2.63,2.63,0,0,1-2.84-2.6c0-1.84,1.6-2.82,4.61-2.82h1.15Zm-.73,1.44c-2.23,0-3.24.49-3.24,1.58a1.36,1.36,0,0,0,1.54,1.31,2.37,2.37,0,0,0,2.41-2.2v-.69Z"/><path class="cls-6" d="M313.84,111.11a4.71,4.71,0,0,0,2.83.92c1.06,0,1.62-.35,1.62-1s-.46-.94-1.66-1.29l-.73-.21c-1.72-.49-2.41-1.19-2.41-2.42,0-1.42,1.26-2.38,3.11-2.38a5.15,5.15,0,0,1,3.26,1l-.78,1.16a4.08,4.08,0,0,0-2.45-.77c-.83,0-1.38.39-1.38,1a.81.81,0,0,0,.44.68,5.13,5.13,0,0,0,.94.36l.21.07.81.27c1.76.57,2.48,1.29,2.48,2.49,0,1.6-1.26,2.52-3.42,2.52a5.54,5.54,0,0,1-3.64-1.16Z"/><path class="cls-6" d="M323.89,101.23v5.27a3.45,3.45,0,0,1,2.93-1.71c1.84,0,2.89,1.19,2.89,3.26v5.16H328v-4.88q0-2.07-1.68-2.07a2.91,2.91,0,0,0-2.41,2v4.92h-1.72v-12Z"/><path class="cls-6" d="M334.41,101.53v1.79h-2v-1.79Zm-.1,3.42v8.26h-1.77V105Z"/><path class="cls-1" d="M35.91,35.08a4,4,0,0,1,3.35-1.95c2.09,0,3.29,1.36,3.29,3.73v5.89h-2V37.18c0-1.59-.64-2.37-1.92-2.37a3.32,3.32,0,0,0-2.75,2.32v5.62h-2V33.3h2Z"/><path class="cls-1" d="M52.31,33.3v5.54c0,1.55.64,2.39,1.84,2.39A3.21,3.21,0,0,0,57,38.87V33.3h2v9.45H57V41a4.11,4.11,0,0,1-3.33,2c-2.2,0-3.36-1.31-3.36-3.76V33.3Z"/><path class="cls-1" d="M68.36,35a2.88,2.88,0,0,1,2.57-1.89,2.58,2.58,0,0,1,2.69,2.08,3.14,3.14,0,0,1,2.72-2.08,2.75,2.75,0,0,1,2.29,1.09,4.11,4.11,0,0,1,.68,2.64v5.89H77.42V37.08c0-1.42-.58-2.27-1.57-2.27s-1.71,1-2,2.21v5.73H72V37c0-1.39-.58-2.19-1.57-2.19s-1.71.94-2,2.35v5.59H66.48V33.3h1.88Z"/><path class="cls-1" d="M89,29.06v5.81a3.59,3.59,0,0,1,3.11-1.79c2.56,0,4.38,2.05,4.38,4.94S94.68,43,92,43a3.9,3.9,0,0,1-3.17-1.54l-.19,1.34H87V29.06Zm0,10.58a3,3,0,0,0,2.64,1.73c1.67,0,2.75-1.31,2.75-3.33s-1.13-3.38-2.75-3.38A3.07,3.07,0,0,0,89,36.76Z"/><path class="cls-1" d="M104.89,38.36a2.84,2.84,0,0,0,3,3,3.75,3.75,0,0,0,3-1.42L112,41.23A5.48,5.48,0,0,1,107.73,43a4.62,4.62,0,0,1-4.92-4.94c0-3,2-5.07,4.73-5.07A4.42,4.42,0,0,1,112,37.78v.58Zm5-1.42a2.36,2.36,0,0,0-2.45-2.39,2.63,2.63,0,0,0-2.54,2.39Z"/><path class="cls-1" d="M121.19,35.93c.58-2,1.57-2.87,3.14-2.87a2.81,2.81,0,0,1,1.29.27l-.54,1.83a2.76,2.76,0,0,0-1-.16c-1.45,0-2.53,1.2-2.85,3.17v4.58h-2V33.3h1.94l-.06,2.63Z"/><path class="cls-7" d="M155.78,36.26c0,4.18-1.92,6.76-5,6.76s-5-2.58-5-6.76,1.92-6.75,5-6.75S155.78,32.09,155.78,36.26Zm-7.9,0c0,3.09,1.1,5,2.86,5s2.87-1.91,2.87-5-1.09-5-2.87-5S147.88,33.16,147.88,36.26Z"/><path class="cls-7" d="M167.33,31.75a22,22,0,0,1-3.09.88L163.81,31a16,16,0,0,0,4.07-1.43h1.55V42.75h-2.1Z"/><path class="cls-8" d="M43.05,78.35H34.18V76.5a31.07,31.07,0,0,0,4.53-4,4.1,4.1,0,0,0,1.16-2.47,1.66,1.66,0,0,0-.56-1.33,2.34,2.34,0,0,0-1.54-.47,5.67,5.67,0,0,0-3.09,1h-.2V67.08a10.5,10.5,0,0,1,3.7-.74,5,5,0,0,1,3.21.91,3.08,3.08,0,0,1,1.13,2.55,4.91,4.91,0,0,1-.92,2.68,20,20,0,0,1-4.26,4h5.71Z"/><path class="cls-8" d="M49.24,78.6a4.17,4.17,0,0,1-3.52-1.46,7.78,7.78,0,0,1-1.12-4.68,7.68,7.68,0,0,1,1.13-4.65,4.14,4.14,0,0,1,3.51-1.47,4.17,4.17,0,0,1,3.52,1.46,7.7,7.7,0,0,1,1.12,4.66,7.8,7.8,0,0,1-1.11,4.69A4.2,4.2,0,0,1,49.24,78.6Zm0-10.44a1.59,1.59,0,0,0-1.56,1,8.25,8.25,0,0,0-.48,3.28,8,8,0,0,0,.49,3.28,1.69,1.69,0,0,0,3.11,0,8.35,8.35,0,0,0,.48-3.28,8.51,8.51,0,0,0-.47-3.28A1.62,1.62,0,0,0,49.24,68.16Z"/><path class="cls-8" d="M64.13,78.35H56.64V76.63h2.52V69.82H56.64V68.24a4.14,4.14,0,0,0,2.12-.42,1.61,1.61,0,0,0,.72-1.27h2.18V76.63h2.47Z"/><path class="cls-8" d="M66.66,77.89V75.66h.25a6.42,6.42,0,0,0,3.23,1c1.75,0,2.63-.71,2.63-2.12A1.57,1.57,0,0,0,72,73.16a3.93,3.93,0,0,0-2.15-.49,11.15,11.15,0,0,0-2.48.36h-.29V66.57h8v1.92H69.55V70.9c.6,0,1-.05,1.32-.05a5.19,5.19,0,0,1,3.36,1,3.25,3.25,0,0,1,1.15,2.65,3.75,3.75,0,0,1-1.33,3,5.28,5.28,0,0,1-3.6,1.15A9.84,9.84,0,0,1,66.66,77.89Z"/><path class="cls-8" d="M95.69,75.92H90.25v3.34H88V75.92H81.08V74.05h2V71.19a12.1,12.1,0,0,1-1,.92l-1.5-1.36A13.5,13.5,0,0,0,83,67.93a12,12,0,0,0,1.53-3.26l2.23.33a13,13,0,0,1-.48,1.42h9v1.8H90.25v1.83h4.48v1.8H90.25v2.2h5.44Zm-10.32-7.7a16.12,16.12,0,0,1-1.28,1.83H88V68.22Zm-.08,5.83H88v-2.2H85.29Z"/><path class="cls-8" d="M104.58,72.89A11.53,11.53,0,0,1,102,76.5a15.38,15.38,0,0,1-4.17,2.68l-1.08-1.74a10.81,10.81,0,0,0,4.5-3.31,9.87,9.87,0,0,0,2-5V67.46l-3.87,0V65.57h6.16c0,.13,0,.27,0,.42v1.42a13,13,0,0,0,.29,2.76,8.94,8.94,0,0,0,1,2.57,10.82,10.82,0,0,0,2,2.45,16.61,16.61,0,0,0,2.91,2.13l-1.54,1.83A19.23,19.23,0,0,1,106.59,76,13.28,13.28,0,0,1,104.58,72.89Z"/><path class="cls-8" d="M117.06,79.23h-2V73.91a14,14,0,0,1-1.75,1.27l-.87-1.47A11.92,11.92,0,0,0,115,71.5a9.83,9.83,0,0,0,1.69-2.65h-3.55V67.12h2v-2h2v2H119l.42.43a12.39,12.39,0,0,1-2.1,4,26,26,0,0,0,2.5,2l-1,1.68c-.63-.49-1.2-1-1.71-1.45ZM128,78.77h-9.68V76.86h3.83V70.92h-3.07V69.09h3.07V65.2h2.23v3.89h3.2v1.83h-3.2v5.94H128Z"/><path d="M433.45,70a20.29,20.29,0,0,0,.74-2.56l2.37.38a20.62,20.62,0,0,1-.87,2.18h6.82V85.52H440.4V84.21h-9.82v1.31h-2.07V70Zm-2.87,4.14h9.82V71.79h-9.82Zm0,4h9.82V75.84h-9.82Zm0,4.24h9.82V79.84h-9.82Z"/><path d="M454.33,76.41c-.5,4.88-2.32,7.41-6.58,9.11l-1.31-1.72a7.74,7.74,0,0,0,4.75-3.63,11.36,11.36,0,0,0,1-3.76H449V75.08a15.36,15.36,0,0,1-2.28,2l-1.33-1.59a15.19,15.19,0,0,0,5.78-7.83l2,.7a18.07,18.07,0,0,1-3.66,6.23H460a21.28,21.28,0,0,1-4.62-6.32l1.88-.76a16.89,16.89,0,0,0,6.42,7.24l-1.23,1.82a19,19,0,0,1-2-1.56l-.17-.15,0,.44c-.11,4.4-.37,7.84-.7,8.74s-1.06,1.31-2.79,1.31c-.8,0-1.6,0-2.79-.12l-.38-2a21.83,21.83,0,0,0,2.75.2c.87,0,1.1-.15,1.25-.83a39.8,39.8,0,0,0,.52-6.21Z"/><path d="M474.43,82.71c3.67-.93,5.45-3,5.45-6.25a5.69,5.69,0,0,0-2.77-5.16,6,6,0,0,0-2.05-.71,28.55,28.55,0,0,1-2.72,9.94,8.34,8.34,0,0,1-1.41,2.15,3,3,0,0,1-2.14,1c-2.19,0-4-2.73-4-6.08A9,9,0,0,1,469.11,70a8.86,8.86,0,0,1,4.79-1.3c4.84,0,8.17,3.12,8.17,7.68,0,4.31-2.19,7-6.54,8.21ZM473,70.52a5.88,5.88,0,0,0-3.8,1.75A7.27,7.27,0,0,0,467,77.55c0,2,.86,3.93,1.81,3.93.47,0,.91-.44,1.5-1.48A25.09,25.09,0,0,0,473,70.84Z"/><path d="M488.45,85.52H486.4V77.7a26.35,26.35,0,0,1-2,1.75l-1.08-1.79a23.25,23.25,0,0,0,5.85-6.21l1.59,1a23.82,23.82,0,0,1-2.28,3.06Zm-5-13.58a15.19,15.19,0,0,0,5-4.39L490,68.64a20,20,0,0,1-5.49,5Zm14.93,11.72c0,1.26-.57,1.71-2.07,1.71-1,0-2.34,0-3.31-.11l-.36-2c.91.08,2.21.16,2.93.16.55,0,.7-.16.7-.65V75.46h-5.77v-1.9H501.6v1.9h-3.25Zm2-15.16v1.87h-8.61V68.5Z"/><path d="M514.94,67.48h1.86l-.08,3.93h3.52c-.06,6.25-.33,10.77-.72,12.37-.31,1.16-.88,1.54-2.3,1.54a12.47,12.47,0,0,1-2-.14l-.36-2a9.28,9.28,0,0,0,1.88.21c.68,0,.87-.18,1-1a65.3,65.3,0,0,0,.59-8.71v-.55h-1.78c-.21,5.84-1.48,9.65-4.16,12.31l-1.52-1.17c.34-.33.51-.5.74-.76-2.85.53-6.12,1-8.89,1.25l-.42-1.75c1.58-.09,2.74-.19,3.23-.23l1.16-.11V81.48h-4V80h4V79H503.2v-6.1h3.55v-1h-4.28V70.38h4.28v-.81c-.8.07-2.13.17-3.19.23l-.67-1.43a45.84,45.84,0,0,0,7.94-1l1.07,1.35a29.8,29.8,0,0,1-3.33.61v1h4.16v1h2.11Zm-10.15,6.63v1.18h2V74.11Zm0,2.32V77.7h2V76.43Zm3.73-1.14h2.07V74.11h-2.07Zm0,2.41h2.07V76.43h-2.07Zm4.18-4.47v-1.4h-4.13v1h3.61V79h-3.61V80h3.84v1.46h-3.84v1.1c1.5-.13,2.32-.25,3.8-.47l.36-.06a20.33,20.33,0,0,0,2-8.82Z"/><path d="M525.29,68.86c.59,1.22,1,2,1.69,3.69.63-.23,1.14-.4,2.36-.8.27-.07.63-.21.95-.3l.23-.08a24.17,24.17,0,0,0-1.39-2.79l1.71-.65a22.59,22.59,0,0,1,1.54,3,10.19,10.19,0,0,1,2-.25,4.8,4.8,0,0,1,2.89.89A4.58,4.58,0,0,1,538.86,75a4.24,4.24,0,0,1-2.21,4.08,10.15,10.15,0,0,1-4.08,1l-.76-1.73a8.35,8.35,0,0,0,3.8-1,2.65,2.65,0,0,0,1.12-2.47,2.21,2.21,0,0,0-2.32-2.47,8,8,0,0,0-1.33.16c.31.79.57,1.57.86,2.52l-1.79.86c-.36-1.26-.59-2-.93-2.91-.89.25-2.41.74-3.51,1.16,1.59,3.89,2.66,6.84,3.66,10.11l-1.92.64c-.93-3.09-2.31-6.93-3.62-10.07l-.35.14-3,1.17-.68-1.84.26-.09c1.79-.67,2.3-.86,3.06-1.12-.7-1.64-1.08-2.45-1.69-3.71Z"/><path d="M556.39,69.38l1.2,1a9.26,9.26,0,0,1-6,6.92l-1.18-1.6a7,7,0,0,0,4.77-4.42H541.86v-1.9Zm-6.45,4V75c0,5.28-1.16,7.62-4.73,9.6L543.67,83a6.36,6.36,0,0,0,3.47-3.19,11.4,11.4,0,0,0,.67-4.81V73.39Z"/><path d="M568.12,75.19a28.87,28.87,0,0,1-6.44,3.19l-1.12-1.88A27.86,27.86,0,0,0,573.19,68L575,69.15a33.76,33.76,0,0,1-4.7,4.44V84.71h-2.16Z"/><path d="M595.55,74.26v1.9h-6.87c-.21,4.86-1.75,7.24-5.74,8.8l-1.33-1.66c3.57-1.42,4.79-3.19,4.9-7.14h-7.58v-1.9ZM591.39,69v1.9H581V69Zm1.69,2.2a16.48,16.48,0,0,0-1.34-3.32l1.46-.33a15.25,15.25,0,0,1,1.35,3.27Zm2.4-.51a12.58,12.58,0,0,0-1.35-3.34l1.4-.29A12.5,12.5,0,0,1,597,70.25Z"/><path d="M606.1,77.09a26.36,26.36,0,0,1-5.24,2.58l-1-1.72a22.84,22.84,0,0,0,10.49-7l1.61,1a27.39,27.39,0,0,1-3.87,3.71v9.17h-2Z"/><path d="M632.39,69.38l1.2,1a9.26,9.26,0,0,1-6,6.92l-1.18-1.6a7,7,0,0,0,4.77-4.42H617.86v-1.9Zm-6.45,4V75c0,5.28-1.16,7.62-4.73,9.6L619.67,83a6.36,6.36,0,0,0,3.47-3.19,11.4,11.4,0,0,0,.67-4.81V73.39Z"/><path d="M639.29,68.86c.59,1.22,1,2,1.69,3.69.63-.23,1.14-.4,2.36-.8.27-.07.63-.21.95-.3l.23-.08a24.17,24.17,0,0,0-1.39-2.79l1.71-.65a22.59,22.59,0,0,1,1.54,3,10.19,10.19,0,0,1,2-.25,4.8,4.8,0,0,1,2.89.89A4.58,4.58,0,0,1,652.86,75a4.24,4.24,0,0,1-2.21,4.08,10.15,10.15,0,0,1-4.08,1l-.76-1.73a8.35,8.35,0,0,0,3.8-1,2.65,2.65,0,0,0,1.12-2.47,2.21,2.21,0,0,0-2.32-2.47,8,8,0,0,0-1.33.16c.31.79.57,1.57.86,2.52l-1.79.86c-.36-1.26-.59-2-.93-2.91-.89.25-2.41.74-3.51,1.16,1.59,3.89,2.66,6.84,3.66,10.11l-1.92.64c-.93-3.09-2.31-6.93-3.62-10.07l-.35.14-3,1.17-.68-1.84.26-.09c1.79-.67,2.3-.86,3.06-1.12-.7-1.64-1.08-2.45-1.69-3.71Z"/><path d="M660.74,81.1c.93-.44,1.26-.61,1.87-.95l.19,1.65a30.18,30.18,0,0,1-4.11,2.13l-.7-1.71,1-.4V75H657.7V76.6c0,4.42-.53,6.53-2.28,8.49l-1.33-1.43c1.39-1.54,1.85-3.21,1.85-6.72V75h-1.45V73.16h7.93V75h-1.68Zm.71-12.79v1.87h-6.31V68.31Zm-.06,16.11a12.11,12.11,0,0,0,3.46-2.68l1.56.94a14.86,14.86,0,0,1-3.69,3.07Zm10.07-12.86V81.65H663V71.56h2.65c.2-.68.28-1,.43-1.65H662V68.24h10.44v1.67H668c-.15.51-.38,1.2-.57,1.65ZM664.79,73v1.47h4.81V73Zm0,4.24h4.81v-1.4h-4.81Zm0,2.91h4.81V78.63h-4.81Zm6.36,5.39a17.16,17.16,0,0,0-3.28-2.81l1.31-1.06a24.49,24.49,0,0,1,3.48,2.52Z"/><path d="M680,76.5c-.17,8.23-.4,9-2.9,9a11.53,11.53,0,0,1-2.17-.19l-.26-2a9.18,9.18,0,0,0,2.08.32c.54,0,.75-.17.9-.72a28.56,28.56,0,0,0,.45-4.69h-2.49c0,.36-.09.61-.2,1.25l-1.81-.26a65.85,65.85,0,0,0,.67-6.94h3.62V70H673.7V68.16h5.93V74h-3.69c0,.36,0,.38,0,.76s0,.48-.1,1.12l-.06.61Zm11.25,2.24a15.81,15.81,0,0,1-2.62,2.53,8.51,8.51,0,0,0,3.19,2.3l-1.12,1.8A10.17,10.17,0,0,1,685,77.62h-1.4v5.32l.47-.13c.78-.23,1.39-.42,2.38-.78l.25,1.58a33.75,33.75,0,0,1-6,1.93l-.51-1.84c.62-.11,1-.17,1.44-.28v-5.8h-1.5V76h1.5V68.14h8.76v1.62h-6.84v1.06h6.23V72.3h-6.23v1h6.23v1.48h-6.23V76h7.9v1.63h-1.77Zm-4.37-1.12a7.74,7.74,0,0,0,.82,2.32,22.24,22.24,0,0,0,2-2.32Z"/><path d="M700.59,76c-1.12,2.11-2.4,3.34-3.42,3.34-1.29,0-2-1.88-2-5.17a35.19,35.19,0,0,1,.63-5.85l2,.31a28.84,28.84,0,0,0-.6,5.3c0,1.92.15,2.92.41,2.92s1.1-1.06,1.79-2.41Zm-1.41,7.26c4.31-1.2,6.06-3.58,6.06-8.25a47.41,47.41,0,0,0-.57-6.69l2.13-.21a46.92,46.92,0,0,1,.61,7c0,5.49-1.92,8.16-7.13,9.89Z"/><path d="M712.08,69.74c4.9-.06,11.57-.25,16.13-.44l.12,1.84a13.55,13.55,0,0,0-5.21,1A6.53,6.53,0,0,0,719,78.08a3.32,3.32,0,0,0,1.38,3,10.63,10.63,0,0,0,4.9,1.56l-.43,2.09c-2.95-.4-4.85-1.11-6.06-2.23A5.61,5.61,0,0,1,717,78.14a7.1,7.1,0,0,1,1.71-4.43,7.91,7.91,0,0,1,3.4-2.43c-2.07,0-6.16.24-9.88.43Zm13.49,8a15.35,15.35,0,0,0-1.84-3.31l1.44-.53A15.57,15.57,0,0,1,727,77.17Zm2.51-1a14.41,14.41,0,0,0-1.84-3.33l1.38-.49a11.69,11.69,0,0,1,1.84,3.19Z"/><path d="M429.13,94.35h2.08v3.52h3V93.48h2.09v4.39h3.26v-4h2.06v4h2.9v1.84h-2.9v5.91h-7.41V99.71h-3v8.7h12.5v1.84h-12.5v1.27h-2.08V99.71h-2.66V97.87h2.66Zm7.17,5.36v4.12h3.26V99.71Z"/><path d="M458.32,102.31a19.15,19.15,0,0,0,5.51,2.21l-1.09,1.78a20.81,20.81,0,0,1-4.06-1.8v7h-2.15v-7.59h1.24a12.68,12.68,0,0,1-2.23-1.85h-2.12a10.92,10.92,0,0,1-2.13,2h1.18v1c0,3.66-1.14,5.47-4.22,6.66l-1.31-1.55c2.54-1,3.44-2.23,3.44-4.83v-.63a18.58,18.58,0,0,1-4,1.83l-1.1-1.6a13.58,13.58,0,0,0,5.89-2.87h-3.5V94.14h13.72v7.94H458Zm-8.68-4.94h3.87V95.7h-3.87Zm0,3.14h3.87V98.83h-3.87Zm9.74-4.81h-4v1.67h4Zm0,3.13h-4v1.68h4Z"/><path d="M482.43,100.92v2.17H464.59v-2.17Z"/><path d="M493.43,108.71c3.67-.93,5.45-3,5.45-6.25a5.69,5.69,0,0,0-2.77-5.16,6,6,0,0,0-2.05-.71,28.55,28.55,0,0,1-2.72,9.94,8.34,8.34,0,0,1-1.41,2.15,3,3,0,0,1-2.14,1c-2.19,0-4-2.73-4-6.08A9,9,0,0,1,488.11,96a8.86,8.86,0,0,1,4.79-1.3c4.84,0,8.17,3.12,8.17,7.68,0,4.31-2.19,7-6.54,8.21ZM492,96.52a5.88,5.88,0,0,0-3.8,1.75,7.27,7.27,0,0,0-2.28,5.28c0,2,.86,3.93,1.81,3.93.47,0,.91-.44,1.5-1.48A25.09,25.09,0,0,0,492,96.84Z"/><path d="M516.3,100.68H507V99.56a18.93,18.93,0,0,1-3.52,1.88l-1.19-1.69a15.28,15.28,0,0,0,8-6.27h2.28c2,2.47,4.29,4,8.18,5.49l-1,1.84a32.92,32.92,0,0,1-3.39-1.65Zm-5.62,4.08a36.77,36.77,0,0,1-2.62,4.12h.36c1.43-.08,5-.37,7-.57a25.27,25.27,0,0,0-2.12-2.15l1.74-1a36.61,36.61,0,0,1,4.81,5.06L518,111.51c-.63-.86-.93-1.24-1.35-1.77-3.33.53-8.15,1-12.46,1.33l-.67-2,1.24,0,1-.06a32.62,32.62,0,0,0,2.4-4.22H502.8v-1.82h17.42v1.82Zm5.24-5.83a19.8,19.8,0,0,1-4.52-3.74,15.77,15.77,0,0,1-3.57,3.74Z"/><path d="M529.74,97.41a22.44,22.44,0,0,1-2.78,4.26,21.92,21.92,0,0,1,3.27,2.43l-1.14,1.82c-.72-.78-1.52-1.52-2.31-2.22v7.82h-2V104l-.15.15a20.71,20.71,0,0,1-2.23,1.86l-1.19-1.69a20,20,0,0,0,5.77-6h-5.15V96.52h2.89v-3h2v3h2.07Zm3.53-3.93h2.05V98.8h3.94v1.86h-3.94V109h4.22v1.9h-10.9V109h4.63v-8.32h-3.85V98.8h3.85Z"/><path d="M547.09,96.08c.6-1,.93-1.52,1.25-2.13l2.07.31c-.28.49-.3.53-1,1.63l-.11.19h6.53V97.9h-7.77a32.89,32.89,0,0,1-2.31,2.91,6.15,6.15,0,0,1,3.19-1,2.83,2.83,0,0,1,2.94,2.24c1.43-.46,3.63-1.18,4.85-1.56l.79,1.8-.32.1-.93.25c-1.73.47-3.08.85-4.14,1.19.07.92.13,1.73.15,3.12l-2,.11c0-1,0-1.35,0-2.39v-.19c-2.83,1-4.27,2-4.27,2.94s1.25,1.3,4.84,1.3a51.07,51.07,0,0,0,5.32-.29l.23,2c-2,.15-3.44.21-5.49.21a15.85,15.85,0,0,1-5.11-.54,2.47,2.47,0,0,1-1.85-2.41c0-1.46.92-2.58,3-3.67a23.06,23.06,0,0,1,3.07-1.31c-.24-1-.62-1.31-1.4-1.31-1.39,0-3.69,1.24-6,3.25l-1.23-1.4a28,28,0,0,0,4.52-5.29h-3.78V96.08Z"/><path d="M568.14,97v1.33h-4.87v-.7a17.3,17.3,0,0,1-2.92,2l-1.1-1.5a13.43,13.43,0,0,0,5.15-4.67h2.24a31,31,0,0,1,4.48,3.78l-1.29,1.44a34.88,34.88,0,0,0-4-3.93A14.31,14.31,0,0,1,564,97ZM563,105.2c0,.36-.08.61-.13,1h7.29v5.2h-1.84v-.6h-4.12v.77h-1.83V107.9a8.39,8.39,0,0,1-1.69,2.79l-1.42-1.5a7.27,7.27,0,0,0,2-5.13V99.35H570v5.85Zm5.15-3.53v-1h-5.08v1Zm0,2.22v-1.1h-5.08v1.1Zm-3.95,5.41h4.12v-1.76h-4.12Zm9.23-14.36v11.85h-1.85V94.94Zm3.4-1v15.6c0,1.29-.51,1.73-2,1.73a18.14,18.14,0,0,1-2.27-.13l-.34-1.92a17.12,17.12,0,0,0,2.17.17c.49,0,.57-.08.57-.61V94Z"/><path d="M586.59,102c-1.12,2.11-2.4,3.34-3.42,3.34-1.29,0-2-1.88-2-5.17a35.19,35.19,0,0,1,.63-5.85l2,.31a28.84,28.84,0,0,0-.6,5.3c0,1.92.15,2.92.41,2.92s1.1-1.06,1.79-2.41Zm-1.41,7.26c4.31-1.2,6.06-3.58,6.06-8.25a47.41,47.41,0,0,0-.57-6.69l2.13-.21a46.92,46.92,0,0,1,.61,7c0,5.49-1.92,8.16-7.13,9.89Z"/><path d="M603.84,96.12c.11-1,.25-1.94.3-2.3l2.05.21v.15l-.08.48-.08.62-.09.63,0,.21h7.67v1.82H605.7l0,.17c0,.08,0,.29,0,.52l0,.66-.06.59,0,.19a13.49,13.49,0,0,1,2.28-.19c4.16,0,6.8,2.05,6.8,5.28s-2.05,4.9-6.46,5.7l-.89-1.63c3.57-.59,5.26-1.92,5.26-4.16a3.23,3.23,0,0,0-1.71-3,19.38,19.38,0,0,1-5.39,6.1c-1.79,1.31-2.95,1.81-4.3,1.81-1.71,0-2.69-1.12-2.69-3.08,0-2.68,2-5.15,5.05-6.35l0-.24c.09-1.33.13-1.73.19-2.38H599.2V96.12Zm-3.53,10.71c0,1,.36,1.47,1.06,1.47a4.11,4.11,0,0,0,2.28-1,25.43,25.43,0,0,1-.29-3.9c0-.15,0-.53,0-1A5.32,5.32,0,0,0,600.31,106.83Zm5.05-3.89c0,1,0,1.94.13,2.87a16.6,16.6,0,0,0,3.44-4.28c-.38,0-.84-.07-1.2-.07a9.51,9.51,0,0,0-2.35.28C605.36,102.27,605.36,102.67,605.36,102.94Z"/><path d="M618.3,110.5a56.43,56.43,0,0,1-.46-7.64,68,68,0,0,1,.52-8.64l2,.19a69.18,69.18,0,0,0-.48,8.38,52.9,52.9,0,0,0,.44,7.42Zm11.32-16.28.4,4h3.78v1.88h-3.63l0,1.69,0,.66c0,4.9-1.18,7-4.86,8.59l-1.26-1.6c3.12-1.4,4-3,4-7.08l0-.67,0-1.59H622V98.27h6l-.08-4Zm1.82,3.21a14,14,0,0,0-1.32-3.12l1.31-.36a15.16,15.16,0,0,1,1.4,3.08Zm2.15-.74a11.61,11.61,0,0,0-1.42-3.16l1.36-.34a11.47,11.47,0,0,1,1.45,3.1Z"/><path d="M636.27,95.74c4.9-.06,11.57-.25,16.13-.44l.12,1.84a13.55,13.55,0,0,0-5.21,1,6.53,6.53,0,0,0-4.08,5.91,3.32,3.32,0,0,0,1.38,3,10.63,10.63,0,0,0,4.9,1.56l-.43,2.09c-3-.4-4.85-1.11-6.06-2.23a5.57,5.57,0,0,1-1.88-4.38,7.1,7.1,0,0,1,1.71-4.43,7.91,7.91,0,0,1,3.4-2.43c-2.07,0-6.16.24-9.88.43Z"/><path d="M663.57,105.6a15.28,15.28,0,0,1-1.84,3.84,2.55,2.55,0,0,1-2,1.21c-1,0-1.9-.74-2.61-2.15a12.58,12.58,0,0,1-1.15-3.62A46.75,46.75,0,0,1,655.6,99c0-.82,0-2.17.11-3.86l2.18.17c-.07,1.44-.11,2.34-.11,3.57,0,3.93.38,6.76,1.1,8.3.27.55.65,1,.88,1,.45,0,1.4-1.71,2.16-3.91Zm5.87,2.2a36,36,0,0,0-3.09-11.68l2-.48a30.62,30.62,0,0,1,3.29,11.65Z"/><path d="M680.5,96c-.26-.74-.47-1.42-.66-2.05l2-.11c.23.79.49,1.61.7,2.16h6.46v1.79h-5.81c.3.78.8,1.88,1.2,2.68h5.87v1.78h-4.94a32.31,32.31,0,0,0,2,3l-2.07.61a29.85,29.85,0,0,1-2.16-3.65h-8.53v-1.78h7.67c-.3-.67-.74-1.73-1.1-2.68h-6.25V96Zm6.75,14.54c-1.54.09-2.74.13-3.5.13a15.28,15.28,0,0,1-5.62-.76,3.56,3.56,0,0,1-2.51-3.31,3.17,3.17,0,0,1,.7-2l1.66.91a2.62,2.62,0,0,0-.29,1.16c0,1.46,1.88,2.15,5.95,2.15,1.06,0,2,0,3.44-.15Z"/><path d="M703.08,93.91v2.34h5.83V98h-5.83v2.2h5.5V102h-5.5v2.87a26.46,26.46,0,0,1,6.51,3.34l-1.1,1.77a28.83,28.83,0,0,0-5.41-3.21c-.14,2.85-1.35,4-4.32,4s-4.84-1.26-4.84-3.21,2-3.27,5.3-3.27a13,13,0,0,1,1.8.13V102h-6.57v-1.75H701V98h-7V96.25h7V93.91ZM701,106.09a12.35,12.35,0,0,0-2.1-.23c-1.81,0-2.93.61-2.93,1.6s1.06,1.52,2.64,1.52,2.39-.74,2.39-2.53Z"/><path d="M431.81,120.26v11c0,2.32,1.24,3.5,3.67,3.5a4.59,4.59,0,0,0,4-2.24,13.72,13.72,0,0,0,1.8-4.45l1.89,1.14a13.28,13.28,0,0,1-2.28,5,6.53,6.53,0,0,1-5.42,2.6c-3.78,0-5.81-2-5.81-5.62v-11Z"/><path d="M455.66,122.9v2.77h4.92v1.73h-4.92v3.95a22,22,0,0,1,5.39,2.87l-1,1.67a22.19,22.19,0,0,0-4.39-2.68c-.1,2.32-1.35,3.52-3.65,3.52s-3.91-1.26-3.91-3,1.78-2.94,4.4-2.94a12,12,0,0,1,1.28.08v-8Zm-1.88,9.63a6.24,6.24,0,0,0-1.37-.15c-1.43,0-2.43.55-2.43,1.31s.81,1.38,1.92,1.38c1.33,0,1.88-.68,1.88-2.33Z"/><path d="M466.51,125.86a44.2,44.2,0,0,1,8.17-1.23c3.3,0,5.2,1.69,5.2,4.63s-1,4.81-3,6A17.36,17.36,0,0,1,470.5,137l-.86-1.84a16.63,16.63,0,0,0,5.87-1.52c1.46-.8,2.15-2.18,2.15-4.29s-.89-2.85-3-2.85a39.53,39.53,0,0,0-7.59,1.33Zm10.73-2.51a51.41,51.41,0,0,0-7.77-1.65l.76-1.77a45.71,45.71,0,0,1,7.77,1.69Z"/><path d="M493.92,120.24l-.45,12h-1.94l-.46-12Zm0,13.68v2.85h-2.85v-2.85Z"/><path class="cls-8" d="M436.4,48.92l-7.1.64L429,47.89l1.84-.11V47a30.53,30.53,0,0,1-3.08.72l-.52-1.58a24.76,24.76,0,0,0,4.19-1.09H427.9V43.52h6v-.81H436v.81h6.13v1.55h-1.4l1.08.88A14.11,14.11,0,0,1,439.54,47a23.87,23.87,0,0,0,3.19.81l-1.07,1.69q-4.89-.83-7.07-4.18a14.15,14.15,0,0,1-1.61.81v1.47c1.63-.13,2.75-.23,3.36-.31Zm.2-7.74a1.08,1.08,0,0,1-.41.88,1.61,1.61,0,0,1-1,.33H434l-.15-1.22h.61c.23,0,.34-.09.34-.26V40.6h-1.26v2.49h-2.07V40.6H430.3v2h-2v-3h3.15V39h-3.68V38h.73l-.87-.5a9.38,9.38,0,0,0,1.78-2.12l1.69.3c-.13.26-.24.48-.34.64h.69v-1h2.07v1h2.82v1.14h-2.82V38h3.33V39h-3.33v.52h3Zm-6.72-3.76c-.2.2-.38.38-.57.54h2.18v-.54Zm10,7.65h-3.26a9,9,0,0,0,1.15,1A23,23,0,0,0,439.9,45.07Zm-.84-4.35h-1.88v-5h1.88Zm2.63.94a1.21,1.21,0,0,1-.5,1A1.93,1.93,0,0,1,440,43h-1.84l-.24-1.73h1.38c.26,0,.4-.1.4-.32V35.28h2Z"/><path class="cls-8" d="M458.77,47.61l-.35,1.73-5.21,0a25.35,25.35,0,0,1-5-.34,3.46,3.46,0,0,1-1.81-1.23,10.65,10.65,0,0,1-2.51,1.8l-.71-1.87a6.84,6.84,0,0,0,2.07-1.23V42.56h-1.69v-1.7h3.69v5.19a1.26,1.26,0,0,0,.66,1.07,3.7,3.7,0,0,0,1.68.51c.68.06,2,.09,4.09.09C456.29,47.72,458,47.69,458.77,47.61Zm-11.16-9-1.95,1a17.19,17.19,0,0,0-1-1.57c-.5-.76-.87-1.3-1.12-1.61l1.77-.94A27.31,27.31,0,0,1,447.61,38.6Zm3.79-2.75A10.87,10.87,0,0,1,451,37h.94V35.47h2.17V37h3.48v1.54H454.1V40h4v1.58H447.72V40h4.21V38.56h-1.7a11.11,11.11,0,0,1-1,1.43l-1.83-.81a11.4,11.4,0,0,0,2-3.58Zm-2.81,11V42.37h8.89v4.52Zm2-1.5h4.81V43.85H450.6Z"/><path class="cls-8" d="M465,39.26l-5.36,0V37.76l5.36,0Zm-.47,9.6h-2.91v.58H460V44.16h4.59Zm0-11.79h-4.35V35.71h4.35Zm-.08,4.27h-4.25V40h4.25Zm0,2.1h-4.25V42.1h4.25Zm-1.55,4.05V45.55H461.7v1.94Zm5.82-1A14.2,14.2,0,0,1,465.57,49l-.93-1.57a12.26,12.26,0,0,0,3.27-3H465V42.85h3.69v-.8h-3V35.71h8.15v6.34h-3.18v.8h3.89v1.63h-3a14.19,14.19,0,0,0,3.39,2.76L473.8,49a13,13,0,0,1-3.17-2.77v3.33h-1.92Zm-1.1-8.18h1.13V37.23h-1.13Zm1.13,1.16h-1.13v1.09h1.13Zm1.88-1.16h1.18V37.23h-1.18Zm1.18,1.16h-1.18v1.09h1.18Z"/><path class="cls-8" d="M488.77,36.37l-5.92,14.81h-2.1l5.91-14.81Z"/><path class="cls-8" d="M497.63,40.68l-.62-1.9,2-.3a21.56,21.56,0,0,1,.79,2.2h.82V38.33h-4.45V36.71h3.12l-.64-1.19,2.08-.45.89,1.64h2.89l1-1.67,2.14.48-.84,1.19h3.35v1.62h-4.53v2.35h.84c.42-1,.71-1.81.86-2.28l2.05.43a17.89,17.89,0,0,1-.87,1.85h2.05v1.63H495.71V40.68Zm11.31,8.71h-2.21v-.45h-7.34v.45h-2.21V43h11.76Zm-2.21-4.1v-.83h-7.34v.83Zm0,2.15v-.88h-7.34v.88Zm-4.22-6.76h1.15V38.33h-1.15Z"/><path class="cls-8" d="M526.91,48l-.36,1.67h-.32l-4.89.05a24.83,24.83,0,0,1-5-.35,3.51,3.51,0,0,1-1.82-1.22,10.61,10.61,0,0,1-2.5,1.8l-.72-1.87a6.32,6.32,0,0,0,1.91-1.12v-4h-1.53V41.18h3.55v5.28a1.14,1.14,0,0,0,.26.77,1.8,1.8,0,0,0,.78.54,5.17,5.17,0,0,0,1.48.28q1,.06,3.63.06C524.25,48.11,526.08,48.07,526.91,48Zm-11.23-8.92-2,.86c-.21-.44-.86-1.52-2-3.25l1.79-.79A25.71,25.71,0,0,1,515.68,39.07Zm8.11,5.81H522v2.61h-2V44.88h-1.7v2.65h-2V38.75H519l-1.78-1,.85-.75h-2V35.49h8.91l.82,1a15.1,15.1,0,0,1-3.19,2.22h3.17v7.41a1.2,1.2,0,0,1-.51,1,2.13,2.13,0,0,1-1.26.36h0l-1.54,0-.16-1.68h1c.27,0,.41-.12.41-.38Zm-3.74-3.71v-1h-1.7v1Zm-1.7,2.3h1.7v-1h-1.7Zm.74-6.51L521,38.1A13.41,13.41,0,0,0,522.73,37ZM522,40.19v1h1.77v-1Zm0,3.28h1.77v-1H522Z"/><path class="cls-8" d="M530.28,44.67a9.77,9.77,0,0,1-1.76,2.27l-1.07-1.34a10.44,10.44,0,0,0,1.48-2,14.56,14.56,0,0,0,1.23-2.53h-2.23V39.39h2.35V37.8c-.85.14-1.55.22-2.08.26l-.32-1.5a24.45,24.45,0,0,0,2.87-.48,14.94,14.94,0,0,0,2.63-.77l.82,1.52a13,13,0,0,1-1.85.56v2H534v1.68h-1.67v.5a11,11,0,0,0,1.79,1.81L533.23,45c-.28-.27-.58-.58-.88-.93v5.5h-2.07Zm12.31.77-1.21.14v3.88h-2.15V45.82l-5.41.63-.06-1.8,5.47-.63V39.34l-1.09,1.31c-1.6-1.72-2.67-2.8-3.19-3.23l1.37-1.49a27.56,27.56,0,0,1,2.91,2.83V35.39h2.15v8.38l1.17-.14Zm-3.89-2.82-1.36,1.6A33.32,33.32,0,0,0,534.13,41l1.29-1.55A28.91,28.91,0,0,1,538.7,42.62Z"/><path class="cls-8" d="M552.09,49.58h-2.21V46.51h-6.25V44.74h6.25V43.69h1.35l-.56-.92a4.16,4.16,0,0,0,2.72-4.2h1.88c0,.56,0,1,0,1.18.32,1.12,1.36,2.17,3.14,3.16l-1.22,1.42a7.45,7.45,0,0,1-2.74-2.41,6.89,6.89,0,0,1-2.32,2v.82h6.55v1.77h-6.55Zm-3.54-11c0,.57,0,1,0,1.28a4.91,4.91,0,0,0,2.2,2.71L549.61,44a5.73,5.73,0,0,1-1.94-1.86,6.71,6.71,0,0,1-3,2.42l-.93-1.36a5.35,5.35,0,0,0,1.55-1,4.27,4.27,0,0,0,1-1.43,5.37,5.37,0,0,0,.36-2.13Zm9.59-.38h-14V36.46h5.79V35.29h2.24v1.17h6Z"/></g></g></svg>