<svg xmlns="http://www.w3.org/2000/svg" xmlns:xlink="http://www.w3.org/1999/xlink" viewBox="0 0 349.08 30"><defs><style>.cls-1{fill:none;}.cls-2{clip-path:url(#clip-path);}.cls-3{fill:#a4a4a4;}.cls-4{clip-path:url(#clip-path-2);}.cls-5{fill:#b90f52;}.cls-6{fill:#182b7b;}</style><clipPath id="clip-path"><rect class="cls-1" width="30" height="30"/></clipPath><clipPath id="clip-path-2"><circle class="cls-1" cx="15" cy="32.5" r="15"/></clipPath></defs><title>Asset 3</title><g id="Layer_2" data-name="Layer 2"><g id="ヘッダー_フッター" data-name="ヘッダー・フッター"><g class="cls-2"><path class="cls-3" d="M15,3A12,12,0,1,1,3,15,12,12,0,0,1,15,3m0-3A15,15,0,1,0,30,15,15,15,0,0,0,15,0Z"/><g class="cls-4"><path class="cls-5" d="M15,3A12,12,0,1,1,3,15,12,12,0,0,1,15,3m0-3A15,15,0,1,0,30,15,15,15,0,0,0,15,0Z"/></g></g><path class="cls-6" d="M44,20.38a9.68,9.68,0,0,0,7.5,3.27c3,0,4.65-1.17,4.65-3.27s-1.23-3.14-4.62-4.15l-2-.59a16.15,16.15,0,0,1-4-1.7,4.88,4.88,0,0,1-2.32-4.23c0-4.09,3-6.47,8.09-6.47A12.79,12.79,0,0,1,59,5.79L57.3,8.39a9.38,9.38,0,0,0-6-2.13C48.59,6.26,47,7.41,47,9.34c0,1.77,1,2.55,4.45,3.59l2.19.64C58,14.86,60,17,60,20.26a6.07,6.07,0,0,1-2.77,5.13,11.37,11.37,0,0,1-5.91,1.4,12.17,12.17,0,0,1-9.27-3.89Z"/><path class="cls-6" d="M81.43,3.66V6.71H69.56v6.44h10.5v3H69.56v7.11H81.85v3.11H66V3.66Z"/><path class="cls-6" d="M92.24,3.66l7.28,12,.2.3a48.59,48.59,0,0,1,2.6,4.9h.11c-.08-1.9-.14-5.37-.14-7.5V3.66h3.5V26.34h-3.58L93.58,12.45a51.69,51.69,0,0,1-2.74-5.09H90.7c.14,1.87.22,4.9.22,8v11h-3.5V3.66Z"/><path class="cls-6" d="M121.19,3.66V6.38h-3.08V23.62h3.08v2.72h-9.74V23.62h3.08V6.38h-3.08V3.66Z"/><path class="cls-6" d="M147.68,15c0,7-4.54,11.85-11.09,11.85S125.5,22,125.5,15s4.6-11.79,11.09-11.79S147.68,8.06,147.68,15Zm-18.28,0c0,5.18,2.91,8.71,7.19,8.71s7.2-3.53,7.2-8.71-2.94-8.73-7.2-8.73S129.4,9.79,129.4,14.94Z"/><path class="cls-6" d="M161.59,3.66c5.35,0,8.49,2.3,8.49,6.19a5.2,5.2,0,0,1-2.3,4.48A9.65,9.65,0,0,1,164,15.64v.09c2.52.78,3.8,2.52,7.86,10.61h-4.36c-3.34-7.9-4.54-9.32-8.07-9.41h-2.66v9.41h-3.61V3.66Zm-4.87,10.39h3.81c3.64,0,5.6-1.35,5.6-3.89,0-2.36-1.79-3.59-5.21-3.59h-4.2Z"/><path class="cls-6" d="M193.18,3.66,197.8,14.1a34.46,34.46,0,0,1,1.71,4.71h.11a30.7,30.7,0,0,1,1.71-4.71L206,3.66h5.26V26.34h-3.47V14.75c0-2.27.08-6.5.17-8.18h-.12a67.68,67.68,0,0,1-2.54,6.72L201,22.53h-2.91l-4.23-9.24a61.6,61.6,0,0,1-2.55-6.72h-.11c.11,2.33.17,5.13.17,8.18V26.34h-3.48V3.66Z"/><path class="cls-6" d="M233.19,3.66V6.71H221.32v6.44h10.5v3h-10.5v7.11h12.29v3.11H217.73V3.66Z"/><path class="cls-6" d="M239.54,20.38a9.7,9.7,0,0,0,7.51,3.27c3,0,4.65-1.17,4.65-3.27s-1.24-3.14-4.62-4.15l-2-.59a16.15,16.15,0,0,1-4-1.7,4.88,4.88,0,0,1-2.32-4.23c0-4.09,3-6.47,8.09-6.47a12.79,12.79,0,0,1,7.62,2.55l-1.66,2.6a9.34,9.34,0,0,0-6-2.13c-2.69,0-4.29,1.15-4.29,3.08,0,1.77,1,2.55,4.45,3.59l2.19.64c4.34,1.29,6.41,3.45,6.41,6.69a6.07,6.07,0,0,1-2.77,5.13,11.37,11.37,0,0,1-5.91,1.4,12.17,12.17,0,0,1-9.27-3.89Z"/><path class="cls-6" d="M261.8,20.38a9.7,9.7,0,0,0,7.51,3.27c3,0,4.65-1.17,4.65-3.27s-1.24-3.14-4.62-4.15l-2-.59a16.15,16.15,0,0,1-4-1.7,4.88,4.88,0,0,1-2.32-4.23c0-4.09,3-6.47,8.09-6.47a12.81,12.81,0,0,1,7.62,2.55l-1.66,2.6a9.34,9.34,0,0,0-6-2.13c-2.68,0-4.28,1.15-4.28,3.08,0,1.77,1,2.55,4.45,3.59l2.19.64c4.34,1.29,6.41,3.45,6.41,6.69a6.07,6.07,0,0,1-2.77,5.13,11.37,11.37,0,0,1-5.91,1.4,12.17,12.17,0,0,1-9.27-3.89Z"/><path class="cls-6" d="M294.2,3.55l8.93,22.79h-4l-2.33-6.22h-9.27l-2.32,6.22h-4L290.2,3.55Zm-.5,7.7c-.45-1.23-1.26-3.64-1.43-4.4h-.11c-.23.9-.87,2.86-1.43,4.4l-2.19,6h7.31Z"/><path class="cls-6" d="M323.66,23.43a7.87,7.87,0,0,1-6.47,3.39,10.42,10.42,0,0,1-8-3.28c-2-2.1-3-4.9-3-8.48,0-7,4.71-11.88,11.43-11.88a12.23,12.23,0,0,1,8.23,2.89l-2,2.49a8.85,8.85,0,0,0-6.19-2.27c-4.62,0-7.56,3.42-7.56,8.79,0,5.07,3,8.57,7.37,8.57a7.29,7.29,0,0,0,6-3.41V17.6h-6.1V14.75h9.43v11.7h-2.63Z"/><path class="cls-6" d="M348.66,3.66V6.71H336.79v6.44h10.5v3h-10.5v7.11h12.29v3.11H333.2V3.66Z"/></g></g></svg>