<svg xmlns="http://www.w3.org/2000/svg" viewBox="0 0 370.42 76.42"><defs><style>.cls-1{fill:none;stroke:#bebebe;stroke-miterlimit:10;}.cls-2{fill:#b90f52;}.cls-3{fill:#bdbdbd;}.cls-4{fill:#182b7b;}</style></defs><title>Asset 1</title><g id="Layer_2" data-name="Layer 2"><g id="デザイン"><line class="cls-1" y1="20.37" x2="180" y2="20.37"/></g><g id="テキスト"><path class="cls-2" d="M1.71,9.94A5.54,5.54,0,0,0,6,11.81c1.7,0,2.66-.67,2.66-1.87S8,8.15,6,7.57L4.88,7.23a9,9,0,0,1-2.27-1A2.78,2.78,0,0,1,1.28,3.84C1.28,1.5,3,.14,5.91.14A7.32,7.32,0,0,1,10.26,1.6L9.32,3.09A5.39,5.39,0,0,0,5.87,1.87c-1.53,0-2.44.66-2.44,1.76S4,5.09,6,5.68l1.25.37c2.48.74,3.66,2,3.66,3.83A3.43,3.43,0,0,1,9.3,12.8a6.4,6.4,0,0,1-3.38.81,7,7,0,0,1-5.3-2.23Z"/><path class="cls-3" d="M19.6,9a2.84,2.84,0,0,0,3,3,3.77,3.77,0,0,0,3-1.42l1.1,1.28a5.46,5.46,0,0,1-4.27,1.81,4.62,4.62,0,0,1-4.93-4.93c0-3,1.95-5.08,4.74-5.08a4.43,4.43,0,0,1,4.45,4.76V9Zm5-1.42a2.38,2.38,0,0,0-2.45-2.39,2.63,2.63,0,0,0-2.55,2.39Z"/><path class="cls-3" d="M36,5.68a4,4,0,0,1,3.35-1.95c2.1,0,3.3,1.36,3.3,3.73v5.89h-2V7.78c0-1.59-.64-2.37-1.92-2.37A3.33,3.33,0,0,0,36,7.73v5.62h-2V3.91h2Z"/><path class="cls-3" d="M52.85,0V2.05H50.62V0Zm-.11,3.91v9.44h-2V3.91Z"/><path class="cls-3" d="M69.67,8.61a4.85,4.85,0,1,1-9.69,0,4.85,4.85,0,1,1,9.69,0ZM62,8.6c0,2,1.14,3.37,2.8,3.37s2.79-1.37,2.79-3.37-1.17-3.37-2.79-3.37S62,6.66,62,8.6Z"/><path class="cls-3" d="M78.48,6.53c.58-1.95,1.57-2.86,3.14-2.86a2.81,2.81,0,0,1,1.29.27l-.54,1.82a2.76,2.76,0,0,0-1-.16c-1.45,0-2.53,1.2-2.85,3.17v4.58h-2V3.91h1.94l-.06,2.62Z"/><path class="cls-3" d="M101.38,5.62A2.88,2.88,0,0,1,104,3.73a2.58,2.58,0,0,1,2.69,2.08,3.14,3.14,0,0,1,2.72-2.08,2.76,2.76,0,0,1,2.29,1.09,4.13,4.13,0,0,1,.68,2.64v5.89h-1.89V7.68c0-1.42-.58-2.27-1.57-2.27s-1.72,1-2,2.21v5.73H105V7.6c0-1.39-.58-2.19-1.57-2.19s-1.71.94-2,2.35v5.59H99.5V3.91h1.88Z"/><path class="cls-3" d="M121.36,9a2.84,2.84,0,0,0,3,3,3.77,3.77,0,0,0,3-1.42l1.1,1.28a5.46,5.46,0,0,1-4.27,1.81,4.62,4.62,0,0,1-4.93-4.93c0-3,2-5.08,4.74-5.08a4.43,4.43,0,0,1,4.45,4.76V9Zm5-1.42a2.38,2.38,0,0,0-2.45-2.39,2.63,2.63,0,0,0-2.55,2.39Z"/><path class="cls-3" d="M136,11A5.4,5.4,0,0,0,139.19,12c1.21,0,1.85-.4,1.85-1.16s-.53-1.08-1.9-1.48l-.84-.24c-2-.56-2.75-1.36-2.75-2.77,0-1.61,1.44-2.72,3.55-2.72a5.88,5.88,0,0,1,3.73,1.12l-.89,1.33a4.68,4.68,0,0,0-2.8-.88c-.95,0-1.57.45-1.57,1.14a.91.91,0,0,0,.49.77,5.07,5.07,0,0,0,1.08.41l.24.08.93.31c2,.65,2.83,1.47,2.83,2.85,0,1.82-1.44,2.88-3.91,2.88a6.35,6.35,0,0,1-4.16-1.33Z"/><path class="cls-3" d="M150.4,11A5.37,5.37,0,0,0,153.63,12c1.22,0,1.86-.4,1.86-1.16s-.53-1.08-1.91-1.48l-.83-.24c-2-.56-2.75-1.36-2.75-2.77,0-1.61,1.44-2.72,3.55-2.72a5.88,5.88,0,0,1,3.73,1.12l-.89,1.33a4.71,4.71,0,0,0-2.81-.88c-.94,0-1.56.45-1.56,1.14a.91.91,0,0,0,.49.77,4.88,4.88,0,0,0,1.07.41l.24.08.93.31c2,.65,2.84,1.47,2.84,2.85,0,1.82-1.44,2.88-3.91,2.88a6.33,6.33,0,0,1-4.16-1.33Z"/><path class="cls-3" d="M170.61,7.07c0-1.2-.77-1.84-2.23-1.84a4.85,4.85,0,0,0-3.08,1l-.85-1.3a7,7,0,0,1,4-1.28c2.66,0,4,1.26,4,3.71v3.16a6.4,6.4,0,0,0,.55,2.83h-1.78a6.33,6.33,0,0,1-.45-1.59h-.06a4.09,4.09,0,0,1-1.35,1.33,3.9,3.9,0,0,1-2.11.52,3,3,0,0,1-3.25-3c0-2.1,1.83-3.22,5.27-3.22h1.31Zm-.83,1.65c-2.55,0-3.7.56-3.7,1.81,0,.9.7,1.49,1.76,1.49a2.7,2.7,0,0,0,2.75-2.51V8.72Z"/><path class="cls-3" d="M188.61,12.47a4.4,4.4,0,0,1-1.15,3.39,5,5,0,0,1-3.28,1.07,6.11,6.11,0,0,1-4.31-1.44l.91-1.34a4.88,4.88,0,0,0,3.38,1.18,2.31,2.31,0,0,0,2.55-2.48V11.54a3.66,3.66,0,0,1-2.85,1.39c-2.55,0-4.25-1.84-4.25-4.59s1.78-4.66,4.21-4.66a3.74,3.74,0,0,1,3,1.3l.32-1.06h1.47Zm-1.9-5.86a3,3,0,0,0-2.61-1.38c-1.49,0-2.58,1.32-2.58,3.09s1.09,3.12,2.62,3.12A2.84,2.84,0,0,0,186.71,10Z"/><path class="cls-3" d="M197.74,9a2.84,2.84,0,0,0,3,3,3.75,3.75,0,0,0,3-1.42l1.11,1.28a5.49,5.49,0,0,1-4.28,1.81,4.62,4.62,0,0,1-4.93-4.93c0-3,2-5.08,4.74-5.08a4.43,4.43,0,0,1,4.45,4.76V9Zm5-1.42a2.37,2.37,0,0,0-2.45-2.39,2.62,2.62,0,0,0-2.54,2.39Z"/><path class="cls-4" d="M19.54,52.61v4.8H3.5v-4.8Z"/><path class="cls-4" d="M56.79,37.92V30.77h5.32v7.15H77.62v4.46H62.11v8.26h19.4v4.42H67.06V68.88c0,1.63.57,1.87,4.13,1.87,4.51,0,4.7-.29,4.94-6.33l.05-1.2,5,1.68c-.33,9.88-1,10.6-10.37,10.6-7.53,0-9.12-.76-9.12-4.41v-16H54.77c-.14,6.43-1,10.12-3,13.39-2.36,3.74-7.54,6.91-12.87,8L36.24,72c10-2.64,13-6.48,13.15-16.89H36.62V50.64H56.79V42.38H46.56A33.57,33.57,0,0,1,42,49.53l-4-3.21c3.07-3.7,5.37-8.35,7.1-14.59l4.8.91a49.66,49.66,0,0,1-1.54,5.28Z"/><path class="cls-4" d="M109.59,50h18.72v3.27H109.59V55.1h16.08V67H109.59v1.82h20.25v3.6H109.59v3.94H104.4V72.43H84.24v-3.6H104.4V67h-16V55.1h16V53.28H85.87V50H104.4V47.37h5.14V30.77h5v2.59h13.63v3H114.53v1.68h12.39V41H114.53v1.68h14.93v3.12H114.53v2.74h-4.94Zm-16.8-2.64A12.78,12.78,0,0,0,98,44.73c-4,.87-8.31,1.64-12,2.07l-1.24-3.31c4.89-.44,11.23-1.2,14.83-1.68,0-.34.1-.53.14-.92H87.31v-3H99.84V36.38H86.06v-3H99.84V30.77h5v8.54c0,5.38-2.73,8.78-8.4,10.61Zm.67,10.52v1.73H104.4V57.89Zm0,4.46V64H104.4V62.35Zm16.13-2.73h10.94V57.89H109.59Zm0,4.41h10.94V62.35H109.59Z"/><path class="cls-4" d="M142.61,40c4,2.5,7.63,5,13.25,9.07l.91.68a78.94,78.94,0,0,0,8.83-17.19l5.14,2.4a108.39,108.39,0,0,1-9.6,18.1A98.3,98.3,0,0,1,174,64.22l-3.7,4.23A110,110,0,0,0,158.83,58l-.86-.72a77.13,77.13,0,0,1-20.69,17.52l-3.41-4.65C140.4,67,147.79,60.86,153.7,53.9c-4.27-3.12-9.32-6.62-14-9.65Z"/><path class="cls-4" d="M190.27,57.74a64.43,64.43,0,0,0-4.56-13.34l4.47-2.16A65.93,65.93,0,0,1,195,55.92Zm3.6,12.48c14.07-3.64,19-10.6,20.69-29.47l5,1.49c-2.36,20-7.73,27.55-22.95,32.3Zm7.3-14.59a85.59,85.59,0,0,0-4.32-13.3l4.61-1.92A70.27,70.27,0,0,1,206,53.85Z"/><path class="cls-4" d="M245.71,32.25v11l22.52-3,2.93,2.93c-2.79,8.06-7,13.78-12.29,16.94l-4.08-3.4c4.41-2.31,8.54-7.06,9.84-11.29l-18.92,2.74V64.37c0,3.41,1.06,3.84,9.32,3.84a132.29,132.29,0,0,0,13.39-.72v5.33c-4.32.33-8.59.48-13.11.48-6.76,0-10-.24-11.61-.92-2.31-1-3.36-3-3.36-6.52V49L230.5,50.4l-.53-5L240.34,44V32.25Z"/><path class="cls-4" d="M319.68,50.11v5.28H278.4V50.11Z"/><path class="cls-4" d="M341.23,55.2A128,128,0,0,0,327.12,50l2-4.7a91.13,91.13,0,0,1,13.92,5ZM330.14,68.11c10.52-.77,17-2.78,21.75-6.67,4.94-4,8.55-10.42,10.13-17.95l4.8,2.88c-4.37,17.61-14.55,25.39-35.19,27ZM346,43.2A106.2,106.2,0,0,0,331.92,38l1.54-4.65a69.94,69.94,0,0,1,14.21,4.94ZM359.81,41a41.44,41.44,0,0,0-4.8-8.26l3.7-1.34a41.39,41.39,0,0,1,4.8,8.16Zm7.11-1.3a42.25,42.25,0,0,0-4.71-8.35l3.46-1.1a28.21,28.21,0,0,1,4.75,7.92Z"/></g></g></svg>