<svg xmlns="http://www.w3.org/2000/svg" viewBox="0 0 780 170"><defs><style>.cls-1{fill:#fff;}.cls-2{fill:#d7d7d7;}.cls-3{fill:#182b7b;}.cls-4,.cls-5{fill:none;stroke-miterlimit:10;}.cls-4{stroke:#fff;stroke-width:2px;}.cls-5{stroke:#d7d7d7;stroke-width:3px;}.cls-6{fill:#bdbdbd;}.cls-7{fill:#b90f52;}.cls-8{fill:#8a8a8a;}</style></defs><title>Asset 12</title><g id="Layer_2" data-name="Layer 2"><g id="デザイン"><rect class="cls-1" x="1.5" y="1.5" width="777" height="167"/><path class="cls-2" d="M777,3V167H3V3H777m3-3H0V170H780V0Z"/><rect class="cls-3" x="35" y="24" width="100" height="26"/><line class="cls-4" x1="128" y1="37" x2="139" y2="37"/><line class="cls-5" x1="390" y1="29.5" x2="390" y2="140.5"/></g><g id="テキスト"><path d="M49,107c1.86,4.74,6,8.76,11.58,11.31l-2.13,3.06c-5.76-3.12-9.63-7.14-11.55-12C45,115.07,41,119.24,35,121.76l-2.13-2.88c6-1.86,10.17-6.24,11.4-11.85H34.08v-2.94H44.76V97.91H33V95h27v2.94H48.15v6.18H59V107Z"/><path d="M76.65,107.81H71.43v2.88h5.34v2.64H71.43v3.24l.3-.06.48-.06c1.56-.24,2.91-.45,5.25-.9l.18,2.61c-4.23,1-10.11,2-14.79,2.52l-.9-3c2.58-.24,4.2-.42,6.21-.69l.3,0v-3.66H62.79v-2.64h5.67v-2.88H63.3V94.37H76.65Zm-10.8-8h2.73v-3H65.85Zm0,5.49h2.73v-3.09H65.85Zm8.28-8.46H71.31v3h2.82Zm0,5.37H71.31v3.09h2.82ZM90.45,96a38.61,38.61,0,0,1-4.83,5.79c.36.33.54.51,1.38,1.32l-1.38,1.23h4.26l1.26,1.32a56.29,56.29,0,0,1-2.73,7.44l-2.82-.9a29.61,29.61,0,0,0,2.1-5.1H84.87v12.18c0,1.92-.66,2.55-2.79,2.55a28.26,28.26,0,0,1-3.6-.24L78,118.61a30,30,0,0,0,3.12.27c.51,0,.63-.15.63-.75V107.06H77.61V104.3h6.51a38.61,38.61,0,0,0-5.19-4.44l2-1.8a33.07,33.07,0,0,1,2.76,2.07A24.83,24.83,0,0,0,86.16,97h-8V94.37H89Z"/><path d="M122,99.86a30.25,30.25,0,0,0,9.84,6.21l-2,2.7a29.09,29.09,0,0,1-11.07-8.52v7.56h-3.12v-7.53a24.54,24.54,0,0,1-10.89,9l-1.92-2.46a25.39,25.39,0,0,0,9.9-7H104v-2.7h11.58V93.29h3.24v3.87h11.67v2.7Zm6,21.93h-3.33v-1.92H109.89v1.92h-3.33V109h21.51Zm-18.18-4.62h14.85v-5.52H109.89Z"/><path d="M137.55,108.68a36.3,36.3,0,0,1-3.3,7.23l-1.65-3.3a30.74,30.74,0,0,0,4.62-10.23h-4.05V99.47h4.38V93.29h3v6.18h2.73v2.91h-2.73v2.67a23,23,0,0,1,3.78,3.51l-1.74,2.67a22,22,0,0,0-2-2.7v13.26h-3Zm22.65,2.07v2.67h-6.93v4.5h8.28v2.82H142.29v-2.82h7.8v-4.5h-6.45v-2.67h6.45v-3.48h3.18v3.48Zm1.17-7.08v2.67H143v-2.67h7.11V99.83h-6.15V97.1h6.15V93.29h3.18V97.1H160v2.73h-6.69v3.84Z"/><path class="cls-6" d="M185.68,101.86v5.26l4.71-5.26h2.33l-4.61,4.86,5,6.49h-2.3l-3.89-5.39L185.68,109v4.17h-1.8V101.86Z"/><path class="cls-6" d="M195.74,105l1.72,5.15.12.36c.08.21.15.44.23.65s.1.31.18.54h0l0,0c.28-.71.32-.82.54-1.47l1.75-5.19h1.95l-3.67,9.28a3.05,3.05,0,0,1-3.33,2.13h-.6l-.48-1.37h.8c1.08,0,1.55-.24,1.8-.9l.3-.75-3.4-8.39Z"/><path class="cls-6" d="M211.53,109.06a4.24,4.24,0,1,1-4.23-4.35A4.11,4.11,0,0,1,211.53,109.06Zm-6.68,0c0,1.75,1,3,2.45,3s2.44-1.2,2.44-3-1-2.94-2.44-2.94S204.85,107.35,204.85,109.05Z"/><path class="cls-6" d="M215.22,101.23v7.08l3.41-3.36h2.23l-3.3,3.23,3.58,5h-2.22l-2.62-4-1.08,1v3h-1.73v-12Z"/><path class="cls-6" d="M227.77,107.72c0-1-.67-1.61-2-1.61a4.28,4.28,0,0,0-2.7.87l-.74-1.14a6.15,6.15,0,0,1,3.51-1.12c2.33,0,3.52,1.11,3.52,3.25v2.76a5.72,5.72,0,0,0,.47,2.48h-1.55a5.26,5.26,0,0,1-.39-1.39h-.06a3.26,3.26,0,0,1-3,1.61,2.64,2.64,0,0,1-2.85-2.6c0-1.84,1.6-2.82,4.61-2.82h1.15Zm-.73,1.44c-2.23,0-3.23.49-3.23,1.58,0,.79.61,1.31,1.54,1.31a2.38,2.38,0,0,0,2.41-2.2v-.69Z"/><path class="cls-6" d="M242.3,101.81l4.47,11.4h-2l-1.16-3.11H239l-1.16,3.11h-2l4.47-11.4Zm-.25,3.85c-.22-.62-.63-1.82-.71-2.2h-.06c-.11.45-.44,1.43-.71,2.2l-1.1,3h3.66Z"/><path class="cls-6" d="M249.59,106.44a2.55,2.55,0,0,1,2.26-1.65,2.25,2.25,0,0,1,2.35,1.82,2.76,2.76,0,0,1,2.38-1.82,2.43,2.43,0,0,1,2,.95,3.71,3.71,0,0,1,.58,2.31v5.16h-1.65v-5c0-1.25-.5-2-1.37-2s-1.5.84-1.75,1.94v5h-1.65v-5c0-1.22-.51-1.92-1.38-1.92s-1.5.83-1.76,2.06v4.89H248V105h1.63Z"/><path class="cls-6" d="M266.8,107.72c0-1-.67-1.61-1.95-1.61a4.3,4.3,0,0,0-2.7.87l-.74-1.14a6.15,6.15,0,0,1,3.51-1.12c2.33,0,3.52,1.11,3.52,3.25v2.76a5.57,5.57,0,0,0,.48,2.48h-1.56a5.26,5.26,0,0,1-.39-1.39h-.06a3.26,3.26,0,0,1-3,1.61,2.64,2.64,0,0,1-2.85-2.6c0-1.84,1.6-2.82,4.61-2.82h1.15Zm-.73,1.44c-2.22,0-3.23.49-3.23,1.58,0,.79.61,1.31,1.54,1.31a2.37,2.37,0,0,0,2.41-2.2v-.69Z"/><path class="cls-6" d="M272.74,106.5a3.44,3.44,0,0,1,2.92-1.71c1.84,0,2.89,1.19,2.89,3.26v5.16h-1.72v-4.88q0-2.07-1.68-2.07a2.9,2.9,0,0,0-2.41,2v4.92H271V105h1.73Z"/><path class="cls-6" d="M289,109.06a4.24,4.24,0,1,1-4.23-4.35A4.11,4.11,0,0,1,289,109.06Zm-6.68,0c0,1.75,1,3,2.45,3s2.44-1.2,2.44-3-1-2.94-2.44-2.94S282.27,107.35,282.27,109.05Z"/><path class="cls-1" d="M35.91,35.08a4,4,0,0,1,3.35-1.95c2.09,0,3.29,1.36,3.29,3.73v5.89h-2V37.18c0-1.59-.64-2.37-1.92-2.37a3.32,3.32,0,0,0-2.75,2.32v5.62h-2V33.3h2Z"/><path class="cls-1" d="M52.31,33.3v5.54c0,1.55.64,2.39,1.84,2.39A3.21,3.21,0,0,0,57,38.87V33.3h2v9.45H57V41a4.11,4.11,0,0,1-3.33,2c-2.2,0-3.36-1.31-3.36-3.76V33.3Z"/><path class="cls-1" d="M68.36,35a2.88,2.88,0,0,1,2.57-1.89,2.58,2.58,0,0,1,2.69,2.08,3.14,3.14,0,0,1,2.72-2.08,2.75,2.75,0,0,1,2.29,1.09,4.11,4.11,0,0,1,.68,2.64v5.89H77.42V37.08c0-1.42-.58-2.27-1.57-2.27s-1.71,1-2,2.21v5.73H72V37c0-1.39-.58-2.19-1.57-2.19s-1.71.94-2,2.35v5.59H66.48V33.3h1.88Z"/><path class="cls-1" d="M89,29.06v5.81a3.59,3.59,0,0,1,3.11-1.79c2.56,0,4.38,2.05,4.38,4.94S94.68,43,92,43a3.9,3.9,0,0,1-3.17-1.54l-.19,1.34H87V29.06Zm0,10.58a3,3,0,0,0,2.64,1.73c1.67,0,2.75-1.31,2.75-3.33s-1.13-3.38-2.75-3.38A3.07,3.07,0,0,0,89,36.76Z"/><path class="cls-1" d="M104.89,38.36a2.84,2.84,0,0,0,3,3,3.75,3.75,0,0,0,3-1.42L112,41.23A5.48,5.48,0,0,1,107.73,43a4.62,4.62,0,0,1-4.92-4.94c0-3,2-5.07,4.73-5.07A4.42,4.42,0,0,1,112,37.78v.58Zm5-1.42a2.36,2.36,0,0,0-2.45-2.39,2.63,2.63,0,0,0-2.54,2.39Z"/><path class="cls-1" d="M121.19,35.93c.58-2,1.57-2.87,3.14-2.87a2.81,2.81,0,0,1,1.29.27l-.54,1.83a2.76,2.76,0,0,0-1-.16c-1.45,0-2.53,1.2-2.85,3.17v4.58h-2V33.3h1.94l-.06,2.63Z"/><path class="cls-7" d="M155.78,36.26c0,4.18-1.92,6.76-5,6.76s-5-2.58-5-6.76,1.92-6.75,5-6.75S155.78,32.09,155.78,36.26Zm-7.9,0c0,3.09,1.1,5,2.86,5s2.87-1.91,2.87-5-1.09-5-2.87-5S147.88,33.16,147.88,36.26Z"/><path class="cls-7" d="M163.25,41.05c.45-1.63,1.83-3.23,4-4.63l.4-.25c2.18-1.39,2.69-2,2.69-3s-1-1.9-2.41-1.9a4,4,0,0,0-3.3,1.63l-1.33-1.15A5.59,5.59,0,0,1,168,29.51c2.6,0,4.55,1.55,4.55,3.62a3.16,3.16,0,0,1-.9,2.4,10.25,10.25,0,0,1-2.3,1.66l-.29.18-.51.32c-1.92,1.18-3,2.24-3.16,3.2h7.32v1.86h-9.48Z"/><path class="cls-8" d="M43.05,78.35H34.18V76.5a31.07,31.07,0,0,0,4.53-4,4.1,4.1,0,0,0,1.16-2.47,1.66,1.66,0,0,0-.56-1.33,2.34,2.34,0,0,0-1.54-.47,5.67,5.67,0,0,0-3.09,1h-.2V67.08a10.5,10.5,0,0,1,3.7-.74,5,5,0,0,1,3.21.91,3.08,3.08,0,0,1,1.13,2.55,4.91,4.91,0,0,1-.92,2.68,20,20,0,0,1-4.26,4h5.71Z"/><path class="cls-8" d="M49.24,78.6a4.17,4.17,0,0,1-3.52-1.46,7.78,7.78,0,0,1-1.12-4.68,7.68,7.68,0,0,1,1.13-4.65,4.14,4.14,0,0,1,3.51-1.47,4.17,4.17,0,0,1,3.52,1.46,7.7,7.7,0,0,1,1.12,4.66,7.8,7.8,0,0,1-1.11,4.69A4.2,4.2,0,0,1,49.24,78.6Zm0-10.44a1.59,1.59,0,0,0-1.56,1,8.25,8.25,0,0,0-.48,3.28,8,8,0,0,0,.49,3.28,1.69,1.69,0,0,0,3.11,0,8.35,8.35,0,0,0,.48-3.28,8.51,8.51,0,0,0-.47-3.28A1.62,1.62,0,0,0,49.24,68.16Z"/><path class="cls-8" d="M64.13,78.35H56.64V76.63h2.52V69.82H56.64V68.24a4.14,4.14,0,0,0,2.12-.42,1.61,1.61,0,0,0,.72-1.27h2.18V76.63h2.47Z"/><path class="cls-8" d="M67.19,78.41v-2h.24a4.28,4.28,0,0,0,1.8.35q3.21,0,3.57-3.36a5.42,5.42,0,0,1-2.78.93,3.9,3.9,0,0,1-2.79-1,3.61,3.61,0,0,1-1.07-2.79,4,4,0,0,1,1.27-3,4.69,4.69,0,0,1,3.3-1.17,4.36,4.36,0,0,1,3.47,1.39,5.94,5.94,0,0,1,1.22,4.06,7.25,7.25,0,0,1-1.61,5,6,6,0,0,1-4.68,1.77A8.08,8.08,0,0,1,67.19,78.41Zm5.62-6.28s0-.17,0-.35,0-.31,0-.4c0-2.19-.71-3.28-2.13-3.28a1.75,1.75,0,0,0-1.4.61,2.5,2.5,0,0,0-.54,1.7c0,1.43.76,2.15,2.27,2.15A4.33,4.33,0,0,0,72.81,72.13Z"/><path class="cls-8" d="M95.69,75.92H90.25v3.34H88V75.92H81.08V74.05h2V71.19a12.1,12.1,0,0,1-1,.92l-1.5-1.36A13.5,13.5,0,0,0,83,67.93a12,12,0,0,0,1.53-3.26l2.23.33a13,13,0,0,1-.48,1.42h9v1.8H90.25v1.83h4.48v1.8H90.25v2.2h5.44Zm-10.32-7.7a16.12,16.12,0,0,1-1.28,1.83H88V68.22Zm-.08,5.83H88v-2.2H85.29Z"/><path class="cls-8" d="M104.58,72.89A11.53,11.53,0,0,1,102,76.5a15.38,15.38,0,0,1-4.17,2.68l-1.08-1.74a10.81,10.81,0,0,0,4.5-3.31,9.87,9.87,0,0,0,2-5V67.46l-3.87,0V65.57h6.16c0,.13,0,.27,0,.42v1.42a13,13,0,0,0,.29,2.76,8.94,8.94,0,0,0,1,2.57,10.82,10.82,0,0,0,2,2.45,16.61,16.61,0,0,0,2.91,2.13l-1.54,1.83A19.23,19.23,0,0,1,106.59,76,13.28,13.28,0,0,1,104.58,72.89Z"/><path class="cls-8" d="M117.06,79.23h-2V73.91a14,14,0,0,1-1.75,1.27l-.87-1.47A11.92,11.92,0,0,0,115,71.5a9.83,9.83,0,0,0,1.69-2.65h-3.55V67.12h2v-2h2v2H119l.42.43a12.39,12.39,0,0,1-2.1,4,26,26,0,0,0,2.5,2l-1,1.68c-.63-.49-1.2-1-1.71-1.45ZM128,78.77h-9.68V76.86h3.83V70.92h-3.07V69.09h3.07V65.2h2.23v3.89h3.2v1.83h-3.2v5.94H128Z"/><path d="M433.45,70a20.29,20.29,0,0,0,.74-2.56l2.37.38a20.62,20.62,0,0,1-.87,2.18h6.82V85.52H440.4V84.21h-9.82v1.31h-2.07V70Zm-2.87,4.14h9.82V71.79h-9.82Zm0,4h9.82V75.84h-9.82Zm0,4.24h9.82V79.84h-9.82Z"/><path d="M454.33,76.41c-.5,4.88-2.32,7.41-6.58,9.11l-1.31-1.72a7.74,7.74,0,0,0,4.75-3.63,11.36,11.36,0,0,0,1-3.76H449V75.08a15.36,15.36,0,0,1-2.28,2l-1.33-1.59a15.19,15.19,0,0,0,5.78-7.83l2,.7a18.07,18.07,0,0,1-3.66,6.23H460a21.28,21.28,0,0,1-4.62-6.32l1.88-.76a16.89,16.89,0,0,0,6.42,7.24l-1.23,1.82a19,19,0,0,1-2-1.56l-.17-.15,0,.44c-.11,4.4-.37,7.84-.7,8.74s-1.06,1.31-2.79,1.31c-.8,0-1.6,0-2.79-.12l-.38-2a21.83,21.83,0,0,0,2.75.2c.87,0,1.1-.15,1.25-.83a39.8,39.8,0,0,0,.52-6.21Z"/><path d="M469,71.58c.21-1.12.38-2,.62-3.55l0-.27,2,.31c-.24,1.5-.41,2.41-.64,3.51h1.12c2.83,0,4.05,1.14,4.05,3.8a22.4,22.4,0,0,1-1.2,7.56,2.41,2.41,0,0,1-2.37,1.69,7.33,7.33,0,0,1-3.29-1l.23-2a7.32,7.32,0,0,0,2.73.85c.44,0,.65-.19.89-.78a19.21,19.21,0,0,0,1-6.25c0-1.65-.42-2-2.14-2h-1.43a37.85,37.85,0,0,1-4.23,11.21l-1.87-1a35.7,35.7,0,0,0,4.07-10.18h-3.71v-1.9Zm11.3,9.16A29.24,29.24,0,0,0,477,73.16l1.81-.82a32.38,32.38,0,0,1,3.5,7.5Zm-1.37-8.89a15.83,15.83,0,0,0-1.86-3.35L478.5,68a18.78,18.78,0,0,1,1.88,3.29Zm2.49-.8a16.36,16.36,0,0,0-1.84-3.36l1.37-.46a12.05,12.05,0,0,1,1.86,3.17Z"/><path d="M491.51,74.13h-5.39V85.52h-2V68.14h7.39Zm-5.39-3.61h3.57v-1h-3.57Zm0,2.26h3.57v-1h-3.57Zm9.76,11.68a24.51,24.51,0,0,0-3.23-2.7c-.74,1.56-2,2.57-4.25,3.33l-1-1.5c2.22-.61,3.65-1.77,4-3.23h-4.2v-1.5h4.37V77.72h-3.88V76.31h1.94a8.37,8.37,0,0,0-.78-1.35l1.71-.64a13.09,13.09,0,0,1,1,2h1.86a11,11,0,0,0,.91-2l1.81.51a10.48,10.48,0,0,1-.84,1.52h2.07v1.41h-4v1.14h4.49v1.5H493.3a24.94,24.94,0,0,1,3.87,2.6Zm5-.76c0,1.24-.5,1.71-1.83,1.71a13.32,13.32,0,0,1-1.65-.11L497,83.4c.38,0,1.08.11,1.4.11s.44-.11.44-.42v-9h-5.51v-6h7.51Zm-5.67-13.18h3.67v-1h-3.67Zm0,2.26h3.67v-1h-3.67Z"/><path d="M508.59,67.9v4.76a8.56,8.56,0,0,1,5.8-2.5,5.41,5.41,0,0,1,4,1.61,6.83,6.83,0,0,1,1.74,4.69c0,4.58-2,6.73-7.18,7.58l-1-1.88c4.58-.64,6.08-2,6.08-5.68a5.07,5.07,0,0,0-1-3.23,3.25,3.25,0,0,0-2.66-1.19c-2,0-3.44.79-5.76,3.23v9.63h-2V77.75c-.72,1-1.69,2.27-3,4.07l-1-2.24a44.25,44.25,0,0,0,4-5V73H503.1V71.11h3.44V67.9Z"/><path d="M523.83,73.63a53.65,53.65,0,0,1,7.94-.93c3.46,0,5.4,1.84,5.4,5.15A5.47,5.47,0,0,1,533.46,83a19.89,19.89,0,0,1-6,1.23l-.63-1.86a18.34,18.34,0,0,0,5.81-1.12,3.91,3.91,0,0,0,2.51-3.59,2.87,2.87,0,0,0-3.36-3.19,54.76,54.76,0,0,0-8.25,1.1l-.41-1.86Z"/><path d="M545.53,70.78c.23-1,.32-1.5.59-3l2.09.27c-.17.87-.38,1.9-.59,2.71h6.17v1.85h-6.61a68.69,68.69,0,0,1-4.1,12.29L541,84.2a68.64,68.64,0,0,0,4.06-11.57H541.2V70.78Zm12.08,13.64a25,25,0,0,1-3.38.21,16.73,16.73,0,0,1-4.58-.53,2.53,2.53,0,0,1-1.82-2.47,3.4,3.4,0,0,1,.76-2.07l1.65,1a1.42,1.42,0,0,0-.29.8,1,1,0,0,0,.61,1,11.07,11.07,0,0,0,3.08.36,25.1,25.1,0,0,0,3.74-.29Zm-8.7-9.19a71.75,71.75,0,0,1,8-.44l.09,1.88a75.11,75.11,0,0,0-7.78.4Z"/><path d="M576.27,80.45a16.68,16.68,0,0,1-2.74,1.81,16.31,16.31,0,0,0,4.18,1.5l-1.21,1.63c-3.92-1.18-6.77-3.23-8.06-5.77a15.59,15.59,0,0,1-2.26,1.52v2.2c2.34-.42,3-.57,4.41-.93l.06,1.52a50.57,50.57,0,0,1-8.46,1.69L561.6,84c1.18-.14,1.62-.19,2.55-.33V82.07A27.85,27.85,0,0,1,560,83.26l-.95-1.55A24,24,0,0,0,566,79.48h-6.56V78h8v-.74h2V78h8v1.5H575Zm-12-11.64V67.48h1.82v1.33h3.69v1.33H566.1v.91h4.3V72.4h-4.3v.81h3.69V76c0,.87-.23,1.06-1.37,1.06a8.93,8.93,0,0,1-1.46-.07l-.23-1.27c.29,0,.74.07,1.08.07s.31,0,.31-.32v-1h-2v2.77h-1.82V74.45h-1.84v2.66h-1.77v-3.9h3.61V72.4h-4.81V71.05h1.7l-1.35-1a7.2,7.2,0,0,0,1.78-2.45l1.69.36a8.67,8.67,0,0,1-.41.88ZM562,70.14a7.89,7.89,0,0,1-.78.91h3v-.91Zm8.23,9.34a9.14,9.14,0,0,0,1.82,1.85,15.6,15.6,0,0,0,2.39-1.85Zm2.54-11.11v6.12H571V68.37Zm3.65-.89v8c0,1.31-.4,1.65-1.92,1.65a20.62,20.62,0,0,1-2.18-.13l-.33-1.5a15.22,15.22,0,0,0,2,.17c.4,0,.5-.1.5-.52V67.48Z"/><path d="M586.63,85.32h-2v-.95h-3.4v1.15h-2V76.58h7.34Zm-5.36-2.72h3.4V78.34h-3.4Zm12-7.85H581.7V68.07h11.59ZM583.79,73h7.39V69.85h-7.39Zm11.92,12.5h-2V84.37h-3.52v1.15h-2V76.58h7.45Zm-5.5-2.92h3.52V78.33h-3.52Z"/><path d="M604.09,70.08c.6-1,.93-1.52,1.25-2.13l2.07.31c-.28.49-.3.53-1,1.63l-.11.19h6.53V71.9h-7.77a32.89,32.89,0,0,1-2.31,2.91,6.15,6.15,0,0,1,3.19-1A2.83,2.83,0,0,1,608.89,76c1.43-.46,3.63-1.18,4.85-1.56l.79,1.8-.32.1-.93.25c-1.73.47-3.08.85-4.14,1.19.07.92.13,1.73.15,3.12l-2,.11c0-1,0-1.35,0-2.39v-.19c-2.83,1-4.27,2-4.27,2.94s1.25,1.3,4.84,1.3a51.07,51.07,0,0,0,5.32-.29l.23,2c-2,.15-3.44.21-5.49.21a15.85,15.85,0,0,1-5.11-.54,2.47,2.47,0,0,1-1.85-2.41c0-1.46.92-2.58,3-3.67A23.06,23.06,0,0,1,607,76.65c-.24-1-.62-1.31-1.4-1.31-1.39,0-3.69,1.24-6,3.25l-1.23-1.4a28,28,0,0,0,4.52-5.29h-3.78V70.08Z"/><path d="M620.24,85.52h-1.9v-7.8c-.42.47-.76.83-1.24,1.31l-.89-1.83a22.43,22.43,0,0,0,3.93-5.49l1.56.9c-.23.49-.32.68-.51,1h3.21V71.52h-2.78V69.81h2.78V67.48h1.86v2.33h2.56v1.71h-2.56v2.11h2.94v1.69h-8.07V73.73c-.27.49-.49.87-.89,1.48Zm-4-13.92a14,14,0,0,0,3.42-4.12l1.73.85a17.78,17.78,0,0,1-4.16,4.83Zm8.19,4.29h1.88v1.9H629v1.69h-2.75v2.26l.26,0c.84-.14,1.62-.29,3-.57l0,1.57a65.52,65.52,0,0,1-8.41,1.6l-.59-1.75c1.41-.15,2.32-.26,3.86-.49V79.48h-3V77.79h3ZM633,83.83c0,1.11-.52,1.54-1.81,1.54-.47,0-1.4,0-1.92-.07l-.43-1.75a13.9,13.9,0,0,0,1.78.13c.36,0,.44-.07.44-.45V75.15h-1.27V73.29h4.86v1.86H633Zm1.13-15.44v1.82h-4V68.39Z"/><path d="M643.4,67.48h2.09v3.4h6.87V80.7h-2.05V79.41h-4.82v6.11H643.4V79.41h-4.71v1.38h-2.06V70.88h6.77Zm-4.71,10h4.71V72.78h-4.71Zm11.62-4.73h-4.82v4.73h4.82Z"/><path d="M655.08,69.74c4.9-.06,11.57-.25,16.13-.44l.12,1.84a13.55,13.55,0,0,0-5.21,1A6.53,6.53,0,0,0,662,78.08a3.32,3.32,0,0,0,1.38,3,10.63,10.63,0,0,0,4.9,1.56l-.43,2.09c-2.95-.4-4.85-1.11-6.06-2.23A5.61,5.61,0,0,1,660,78.14a7.1,7.1,0,0,1,1.71-4.43,7.91,7.91,0,0,1,3.4-2.43c-2.07,0-6.16.24-9.88.43Zm13.49,8a15.35,15.35,0,0,0-1.84-3.31l1.44-.53A15.57,15.57,0,0,1,670,77.17Zm2.51-1a14.41,14.41,0,0,0-1.84-3.33l1.38-.49a11.69,11.69,0,0,1,1.84,3.19Z"/><path d="M685.52,82.5c0,.71.19.8,1.54.8,1.75,0,2.07-.09,2.24-.61a10.47,10.47,0,0,0,.25-2.41l2,.7c-.15,4-.38,4.22-4.69,4.22a7.43,7.43,0,0,1-2.62-.26,1.38,1.38,0,0,1-.78-1.41V79.07h-2.55a6.3,6.3,0,0,1-1.55,4.37,8.87,8.87,0,0,1-4.77,2.1l-1.1-1.78c3.85-.51,5.18-1.69,5.37-4.69H676.1V68.24h12.8V79.07h-3.38Zm-7.37-11.13h8.68V69.81h-8.68Zm0,3h8.68V72.82h-8.68Zm0,3.1h8.68V75.86h-8.68Z"/><path d="M694.81,78.59A60.56,60.56,0,0,1,696,70.86l2,.38a39.06,39.06,0,0,0-.92,5.49,11,11,0,0,1,6.24-2.24c3.45,0,5.41,1.63,5.41,4.5,0,3.84-3,5.66-9.84,5.89L698.1,83c6,0,8.38-1.16,8.38-4,0-1.78-1.26-2.85-3.35-2.85a10.4,10.4,0,0,0-6.8,3.25Zm10.58-6.8a35.62,35.62,0,0,0-7.92-2.39l.78-1.66a42.6,42.6,0,0,1,8,2.21Z"/><path d="M717.4,67.9v5.24c2.93-3,4.33-4,6.1-4a3.14,3.14,0,0,1,3.23,3.38,6.49,6.49,0,0,1-.11,1.14,54.28,54.28,0,0,0-.82,7.18c0,.57.15.85.44.85.6,0,1.74-1.06,2.66-2.48l.76,2.12c-1,1.62-2.36,2.55-3.65,2.55a2.08,2.08,0,0,1-1.71-.78,3.27,3.27,0,0,1-.53-2.2,27.13,27.13,0,0,1,.3-3.52c.1-.64.19-1.31.27-2,.15-1.12.15-1.16.26-2.42a3.3,3.3,0,0,0,0-.39c0-1.05-.47-1.66-1.25-1.66-1.26,0-3.35,1.81-6,5.17v8.76h-2V78.5q-1.77,2.48-2.85,4.1l-1-2.2a52.67,52.67,0,0,0,3.82-5.08V73H712.1V71.11h3.25V67.9Z"/><path d="M439.92,94.5l1,1.54c-3.19,1.94-6.19,3.88-8.36,5.36a11.29,11.29,0,0,1,4.6-1c3.8,0,6.18,1.88,6.18,4.9a4.86,4.86,0,0,1-2.91,4.48,12.78,12.78,0,0,1-5.21,1c-3.19,0-4.95-1.1-4.95-3.1,0-1.65,1.61-3,3.68-3,2.28,0,3.82,1.35,4.41,3.91,1.9-.6,2.85-1.74,2.85-3.36,0-2.07-1.58-3.32-4.18-3.32a12.57,12.57,0,0,0-5,1,19.6,19.6,0,0,0-3.09,2l-1.31-1.58a75.26,75.26,0,0,1,9.87-7.1h-8V94.5Zm-6,12c-1,0-1.77.59-1.77,1.35s1.14,1.35,3.06,1.35a11.3,11.3,0,0,0,1.29-.08C436.11,107.31,435.27,106.45,434,106.45Z"/><path d="M460.22,95.47a17,17,0,0,0-1.56-1.37l1.48-.74a13,13,0,0,1,1.81,1.5l-1.14.61h1.93V97H458a14.79,14.79,0,0,0,.93,3.72,19,19,0,0,0,2.13-3l1.54.84a22.7,22.7,0,0,1-2.77,3.74c.47.65,1.14,1.2,1.42,1.2s.31-.36.5-1.63l.05-.29,0-.17,1.62.91a8.47,8.47,0,0,1-.63,2.38c-.32.7-.7,1-1.2,1a5.35,5.35,0,0,1-3.15-2,16.89,16.89,0,0,1-2.34,1.71l-.72-.8h-6v-4.06h6.06v3.22a17,17,0,0,0,2.05-1.55A16.24,16.24,0,0,1,456,97h-7.62v2.15c0,3.87-.23,5.13-1.31,6.93l-1.71-1.25c.74-1.22,1-2.8,1-5.49v-3.9h9.44c-.06-.49-.12-1.19-.15-2h2c.06.91.08,1.31.15,2ZM445.8,110.06a12.84,12.84,0,0,0,1.5-3.91l1.88.55a11.79,11.79,0,0,1-1.58,4.56Zm9.84-12v1.46H449V98Zm-3,8.2v2.61c0,.4.07.53.32.61a10.4,10.4,0,0,0,2,.13c1.84,0,2.37-.1,2.5-.42a8.72,8.72,0,0,0,.23-1.69l2,.53a12.15,12.15,0,0,1-.27,2c-.3,1.14-1,1.35-4.48,1.35-3.67,0-4.28-.23-4.28-1.58v-3.52Zm-1.54-3h2.58v-1.31h-2.58Zm3.91,5.44a16.82,16.82,0,0,0-2-2.72l1.42-.89a12.32,12.32,0,0,1,2.19,2.52Zm6.78,2.11a21.09,21.09,0,0,0-2.35-4.15l1.69-.89a16.14,16.14,0,0,1,2.47,3.8Z"/><path d="M476.94,93.48h1.86l-.08,3.93h3.52c-.06,6.25-.33,10.77-.72,12.37-.31,1.16-.88,1.54-2.3,1.54a12.47,12.47,0,0,1-2-.14l-.36-2a9.28,9.28,0,0,0,1.88.21c.68,0,.87-.18,1-1a65.3,65.3,0,0,0,.59-8.71v-.55h-1.78c-.21,5.84-1.48,9.65-4.16,12.31l-1.52-1.17c.34-.33.51-.5.74-.76-2.85.53-6.12,1-8.89,1.25l-.42-1.75c1.58-.09,2.74-.19,3.23-.23l1.16-.11v-1.29h-4V106h4V105H465.2v-6.1h3.55v-1h-4.28V96.38h4.28v-.81c-.8.07-2.13.17-3.19.23l-.67-1.43a45.84,45.84,0,0,0,7.94-1l1.07,1.35a29.8,29.8,0,0,1-3.33.61v1h4.16v1h2.11Zm-10.15,6.63v1.18h2v-1.18Zm0,2.32v1.27h2v-1.27Zm3.73-1.14h2.07v-1.18h-2.07Zm0,2.41h2.07v-1.27h-2.07Zm4.18-4.47v-1.4h-4.13v1h3.61V105h-3.61V106h3.84v1.46h-3.84v1.1c1.5-.13,2.32-.25,3.8-.47l.36-.06a20.33,20.33,0,0,0,2-8.82Z"/><path d="M488,97.58c.21-1.12.38-2,.62-3.55l0-.27,2,.31c-.24,1.5-.41,2.41-.64,3.51h1.12c2.83,0,4.05,1.14,4.05,3.8a22.4,22.4,0,0,1-1.2,7.56,2.41,2.41,0,0,1-2.37,1.69,7.33,7.33,0,0,1-3.29-1l.23-2a7.32,7.32,0,0,0,2.73.85c.44,0,.65-.19.89-.78a19.21,19.21,0,0,0,1-6.25c0-1.65-.42-2-2.14-2h-1.43a37.85,37.85,0,0,1-4.23,11.21l-1.87-1a35.7,35.7,0,0,0,4.07-10.18h-3.71v-1.9Zm11.3,9.16A29.24,29.24,0,0,0,496,99.16l1.81-.82a32.38,32.38,0,0,1,3.5,7.5Zm-1.37-8.89a15.83,15.83,0,0,0-1.86-3.35L497.5,94a18.78,18.78,0,0,1,1.88,3.29Zm2.49-.8a16.36,16.36,0,0,0-1.84-3.36l1.37-.46a12.05,12.05,0,0,1,1.86,3.17Z"/><path d="M508.84,96.12c.11-1,.25-1.94.3-2.3l2.05.21v.15l-.08.48-.08.62-.09.63,0,.21h7.67v1.82H510.7l0,.17c0,.08,0,.29,0,.52l-.05.66-.06.59,0,.19a13.49,13.49,0,0,1,2.28-.19c4.16,0,6.8,2.05,6.8,5.28s-2.05,4.9-6.46,5.7l-.89-1.63c3.57-.59,5.26-1.92,5.26-4.16a3.23,3.23,0,0,0-1.71-3,19.38,19.38,0,0,1-5.39,6.1c-1.79,1.31-2.95,1.81-4.3,1.81-1.71,0-2.69-1.12-2.69-3.08,0-2.68,2-5.15,5-6.35l0-.24c.09-1.33.13-1.73.19-2.38H504.2V96.12Zm-3.53,10.71c0,1,.36,1.46,1.06,1.46a4.08,4.08,0,0,0,2.28-1,25.43,25.43,0,0,1-.29-3.9c0-.15,0-.53,0-1A5.32,5.32,0,0,0,505.31,106.83Zm5.05-3.89c0,1,0,1.94.13,2.87a16.6,16.6,0,0,0,3.44-4.28c-.38,0-.84-.07-1.2-.07a9.51,9.51,0,0,0-2.35.28C510.36,102.27,510.36,102.67,510.36,102.94Z"/><path d="M529.59,102c-1.12,2.11-2.4,3.34-3.42,3.34-1.29,0-2-1.88-2-5.17a35.19,35.19,0,0,1,.63-5.85l2,.31a28.84,28.84,0,0,0-.6,5.3c0,1.92.15,2.92.41,2.92s1.1-1.06,1.79-2.41Zm-1.41,7.26c4.31-1.2,6.06-3.58,6.06-8.25a47.41,47.41,0,0,0-.57-6.69l2.13-.21a46.92,46.92,0,0,1,.61,7c0,5.49-1.92,8.16-7.13,9.89Z"/><path d="M551.08,93.91v2.34h5.83V98h-5.83v2.2h5.5V102h-5.5v2.87a26.46,26.46,0,0,1,6.51,3.34l-1.1,1.77a28.83,28.83,0,0,0-5.41-3.21c-.14,2.85-1.35,4-4.32,4s-4.84-1.26-4.84-3.21,2-3.27,5.3-3.27a13,13,0,0,1,1.8.13V102h-6.57v-1.75H549V98h-7V96.25h7V93.91ZM549,106.09a12.35,12.35,0,0,0-2.1-.23c-1.81,0-2.93.61-2.93,1.6s1.06,1.52,2.64,1.52,2.39-.74,2.39-2.53Z"/><path d="M571.39,93.86v2.56h5.47v1.79h-5.47v4a7.37,7.37,0,0,1,.32,2c0,2.22-.48,3.82-1.46,4.86a8.37,8.37,0,0,1-4.77,2.34l-1.07-1.58c3.16-.58,4.68-1.63,5.19-3.55a3,3,0,0,1-2.37,1.09c-2.25,0-3.61-1.47-3.61-3.86a3.79,3.79,0,0,1,3.91-3.93,3.56,3.56,0,0,1,1.77.45V98.21h-9.16V96.42h9.16V93.86Zm-2,9.29a1.8,1.8,0,0,0-1.78-1.9,2.11,2.11,0,0,0-2,2.24,2,2,0,0,0,1.9,2.2,2,2,0,0,0,1.84-2.2Z"/><path d="M588.92,94.24l-.45,12h-1.94l-.46-12Zm0,13.68v2.85h-2.85v-2.85Z"/><path class="cls-8" d="M436.4,48.92l-7.1.64L429,47.89l1.84-.11V47a30.53,30.53,0,0,1-3.08.72l-.52-1.58a24.76,24.76,0,0,0,4.19-1.09H427.9V43.52h6v-.81H436v.81h6.13v1.55h-1.4l1.08.88A14.11,14.11,0,0,1,439.54,47a23.87,23.87,0,0,0,3.19.81l-1.07,1.69q-4.89-.83-7.07-4.18a14.15,14.15,0,0,1-1.61.81v1.47c1.63-.13,2.75-.23,3.36-.31Zm.2-7.74a1.08,1.08,0,0,1-.41.88,1.61,1.61,0,0,1-1,.33H434l-.15-1.22h.61c.23,0,.34-.09.34-.26V40.6h-1.26v2.49h-2.07V40.6H430.3v2h-2v-3h3.15V39h-3.68V38h.73l-.87-.5a9.38,9.38,0,0,0,1.78-2.12l1.69.3c-.13.26-.24.48-.34.64h.69v-1h2.07v1h2.82v1.14h-2.82V38h3.33V39h-3.33v.52h3Zm-6.72-3.76c-.2.2-.38.38-.57.54h2.18v-.54Zm10,7.65h-3.26a9,9,0,0,0,1.15,1A23,23,0,0,0,439.9,45.07Zm-.84-4.35h-1.88v-5h1.88Zm2.63.94a1.21,1.21,0,0,1-.5,1A1.93,1.93,0,0,1,440,43h-1.84l-.24-1.73h1.38c.26,0,.4-.1.4-.32V35.28h2Z"/><path class="cls-8" d="M458.77,47.61l-.35,1.73-5.21,0a25.35,25.35,0,0,1-5-.34,3.46,3.46,0,0,1-1.81-1.23,10.65,10.65,0,0,1-2.51,1.8l-.71-1.87a6.84,6.84,0,0,0,2.07-1.23V42.56h-1.69v-1.7h3.69v5.19a1.26,1.26,0,0,0,.66,1.07,3.7,3.7,0,0,0,1.68.51c.68.06,2,.09,4.09.09C456.29,47.72,458,47.69,458.77,47.61Zm-11.16-9-1.95,1a17.19,17.19,0,0,0-1-1.57c-.5-.76-.87-1.3-1.12-1.61l1.77-.94A27.31,27.31,0,0,1,447.61,38.6Zm3.79-2.75A10.87,10.87,0,0,1,451,37h.94V35.47h2.17V37h3.48v1.54H454.1V40h4v1.58H447.72V40h4.21V38.56h-1.7a11.11,11.11,0,0,1-1,1.43l-1.83-.81a11.4,11.4,0,0,0,2-3.58Zm-2.81,11V42.37h8.89v4.52Zm2-1.5h4.81V43.85H450.6Z"/><path class="cls-8" d="M465,39.26l-5.36,0V37.76l5.36,0Zm-.47,9.6h-2.91v.58H460V44.16h4.59Zm0-11.79h-4.35V35.71h4.35Zm-.08,4.27h-4.25V40h4.25Zm0,2.1h-4.25V42.1h4.25Zm-1.55,4.05V45.55H461.7v1.94Zm5.82-1A14.2,14.2,0,0,1,465.57,49l-.93-1.57a12.26,12.26,0,0,0,3.27-3H465V42.85h3.69v-.8h-3V35.71h8.15v6.34h-3.18v.8h3.89v1.63h-3a14.19,14.19,0,0,0,3.39,2.76L473.8,49a13,13,0,0,1-3.17-2.77v3.33h-1.92Zm-1.1-8.18h1.13V37.23h-1.13Zm1.13,1.16h-1.13v1.09h1.13Zm1.88-1.16h1.18V37.23h-1.18Zm1.18,1.16h-1.18v1.09h1.18Z"/><path class="cls-8" d="M488.77,36.37l-5.92,14.81h-2.1l5.91-14.81Z"/><path class="cls-8" d="M497.63,40.68l-.62-1.9,2-.3a21.56,21.56,0,0,1,.79,2.2h.82V38.33h-4.45V36.71h3.12l-.64-1.19,2.08-.45.89,1.64h2.89l1-1.67,2.14.48-.84,1.19h3.35v1.62h-4.53v2.35h.84c.42-1,.71-1.81.86-2.28l2.05.43a17.89,17.89,0,0,1-.87,1.85h2.05v1.63H495.71V40.68Zm11.31,8.71h-2.21v-.45h-7.34v.45h-2.21V43h11.76Zm-2.21-4.1v-.83h-7.34v.83Zm0,2.15v-.88h-7.34v.88Zm-4.22-6.76h1.15V38.33h-1.15Z"/><path class="cls-8" d="M526.91,48l-.36,1.67h-.32l-4.89.05a24.83,24.83,0,0,1-5-.35,3.51,3.51,0,0,1-1.82-1.22,10.61,10.61,0,0,1-2.5,1.8l-.72-1.87a6.32,6.32,0,0,0,1.91-1.12v-4h-1.53V41.18h3.55v5.28a1.14,1.14,0,0,0,.26.77,1.8,1.8,0,0,0,.78.54,5.17,5.17,0,0,0,1.48.28q1,.06,3.63.06C524.25,48.11,526.08,48.07,526.91,48Zm-11.23-8.92-2,.86c-.21-.44-.86-1.52-2-3.25l1.79-.79A25.71,25.71,0,0,1,515.68,39.07Zm8.11,5.81H522v2.61h-2V44.88h-1.7v2.65h-2V38.75H519l-1.78-1,.85-.75h-2V35.49h8.91l.82,1a15.1,15.1,0,0,1-3.19,2.22h3.17v7.41a1.2,1.2,0,0,1-.51,1,2.13,2.13,0,0,1-1.26.36h0l-1.54,0-.16-1.68h1c.27,0,.41-.12.41-.38Zm-3.74-3.71v-1h-1.7v1Zm-1.7,2.3h1.7v-1h-1.7Zm.74-6.51L521,38.1A13.41,13.41,0,0,0,522.73,37ZM522,40.19v1h1.77v-1Zm0,3.28h1.77v-1H522Z"/><path class="cls-8" d="M530.28,44.67a9.77,9.77,0,0,1-1.76,2.27l-1.07-1.34a10.44,10.44,0,0,0,1.48-2,14.56,14.56,0,0,0,1.23-2.53h-2.23V39.39h2.35V37.8c-.85.14-1.55.22-2.08.26l-.32-1.5a24.45,24.45,0,0,0,2.87-.48,14.94,14.94,0,0,0,2.63-.77l.82,1.52a13,13,0,0,1-1.85.56v2H534v1.68h-1.67v.5a11,11,0,0,0,1.79,1.81L533.23,45c-.28-.27-.58-.58-.88-.93v5.5h-2.07Zm12.31.77-1.21.14v3.88h-2.15V45.82l-5.41.63-.06-1.8,5.47-.63V39.34l-1.09,1.31c-1.6-1.72-2.67-2.8-3.19-3.23l1.37-1.49a27.56,27.56,0,0,1,2.91,2.83V35.39h2.15v8.38l1.17-.14Zm-3.89-2.82-1.36,1.6A33.32,33.32,0,0,0,534.13,41l1.29-1.55A28.91,28.91,0,0,1,538.7,42.62Z"/><path class="cls-8" d="M552.09,49.58h-2.21V46.51h-6.25V44.74h6.25V43.69h1.35l-.56-.92a4.16,4.16,0,0,0,2.72-4.2h1.88c0,.56,0,1,0,1.18.32,1.12,1.36,2.17,3.14,3.16l-1.22,1.42a7.45,7.45,0,0,1-2.74-2.41,6.89,6.89,0,0,1-2.32,2v.82h6.55v1.77h-6.55Zm-3.54-11c0,.57,0,1,0,1.28a4.91,4.91,0,0,0,2.2,2.71L549.61,44a5.73,5.73,0,0,1-1.94-1.86,6.71,6.71,0,0,1-3,2.42l-.93-1.36a5.35,5.35,0,0,0,1.55-1,4.27,4.27,0,0,0,1-1.43,5.37,5.37,0,0,0,.36-2.13Zm9.59-.38h-14V36.46h5.79V35.29h2.24v1.17h6Z"/></g></g></svg>