<svg xmlns="http://www.w3.org/2000/svg" xmlns:xlink="http://www.w3.org/1999/xlink" viewBox="0 0 261.06 30"><defs><style>.cls-1{fill:none;}.cls-2{clip-path:url(#clip-path);}.cls-3{fill:#a4a4a4;}.cls-4{clip-path:url(#clip-path-2);}.cls-5{fill:#b90f52;}.cls-6{fill:#182b7b;}</style><clipPath id="clip-path" transform="translate(0 0)"><rect class="cls-1" width="30" height="30"/></clipPath><clipPath id="clip-path-2" transform="translate(0 0)"><circle class="cls-1" cx="15" cy="32.5" r="15"/></clipPath></defs><title>Asset 2</title><g id="Layer_2" data-name="Layer 2"><g id="デザイン"><g class="cls-2"><path class="cls-3" d="M15,3A12,12,0,1,1,3,15,12,12,0,0,1,15,3m0-3A15,15,0,1,0,30,15,15,15,0,0,0,15,0Z" transform="translate(0 0)"/><g class="cls-4"><path class="cls-5" d="M15,3A12,12,0,1,1,3,15,12,12,0,0,1,15,3m0-3A15,15,0,1,0,30,15,15,15,0,0,0,15,0Z" transform="translate(0 0)"/></g></g></g><g id="テキスト"><path class="cls-6" d="M43.14,21.88a6.91,6.91,0,0,0,5.36,2.34c2.12,0,3.32-.84,3.32-2.34s-.88-2.24-3.3-3L47.1,18.5a11.34,11.34,0,0,1-2.84-1.22,3.48,3.48,0,0,1-1.66-3c0-2.92,2.14-4.62,5.78-4.62a9.13,9.13,0,0,1,5.44,1.82l-1.18,1.86a6.68,6.68,0,0,0-4.3-1.52c-1.92,0-3.06.82-3.06,2.2s.7,1.82,3.18,2.56L50,17c3.1.92,4.58,2.46,4.58,4.78a4.32,4.32,0,0,1-2,3.66,8.08,8.08,0,0,1-4.22,1,8.68,8.68,0,0,1-6.62-2.78Z" transform="translate(0 0)"/><path class="cls-6" d="M69.88,9.94v2.18H61.4v4.6h7.5v2.12H61.4v5.08h8.78v2.22H58.84V9.94Z" transform="translate(0 0)"/><path class="cls-6" d="M77.6,9.94l5.2,8.54.14.22a34.47,34.47,0,0,1,1.86,3.5h.08c-.06-1.36-.1-3.84-.1-5.36V9.94h2.5v16.2H84.72l-6.16-9.92a36.87,36.87,0,0,1-2-3.64h-.1c.1,1.34.16,3.5.16,5.72v7.84h-2.5V9.94Z" transform="translate(0 0)"/><path class="cls-6" d="M98.28,9.94v1.94h-2.2V24.2h2.2v1.94h-7V24.2h2.2V11.88h-2.2V9.94Z" transform="translate(0 0)"/><path class="cls-6" d="M117.2,18c0,5-3.24,8.46-7.92,8.46S101.36,23,101.36,18s3.28-8.42,7.92-8.42S117.2,13.08,117.2,18Zm-13.06,0c0,3.7,2.08,6.22,5.14,6.22s5.14-2.52,5.14-6.22-2.1-6.24-5.14-6.24S104.14,14.32,104.14,18Z" transform="translate(0 0)"/><path class="cls-6" d="M127.14,9.94c3.82,0,6.06,1.64,6.06,4.42a3.72,3.72,0,0,1-1.64,3.2,6.83,6.83,0,0,1-2.74.94v.06c1.8.56,2.72,1.8,5.62,7.58h-3.12c-2.38-5.64-3.24-6.66-5.76-6.72h-1.9v6.72h-2.58V9.94Zm-3.48,7.42h2.72c2.6,0,4-1,4-2.78S129.1,12,126.66,12h-3Z" transform="translate(0 0)"/><path class="cls-6" d="M149.7,9.94,153,17.4a24.23,24.23,0,0,1,1.22,3.36h.08a22.51,22.51,0,0,1,1.22-3.36l3.3-7.46h3.76v16.2H160.1V17.86c0-1.62.06-4.64.12-5.84h-.08a49.67,49.67,0,0,1-1.82,4.8l-3,6.6h-2.08l-3-6.6a44.53,44.53,0,0,1-1.82-4.8h-.08c.08,1.66.12,3.66.12,5.84v8.28h-2.48V9.94Z" transform="translate(0 0)"/><path class="cls-6" d="M178.28,9.94v2.18H169.8v4.6h7.5v2.12h-7.5v5.08h8.78v2.22H167.24V9.94Z" transform="translate(0 0)"/><path class="cls-6" d="M182.82,21.88a6.91,6.91,0,0,0,5.36,2.34c2.12,0,3.32-.84,3.32-2.34s-.88-2.24-3.3-3l-1.42-.42a11.34,11.34,0,0,1-2.84-1.22,3.48,3.48,0,0,1-1.66-3c0-2.92,2.14-4.62,5.78-4.62a9.13,9.13,0,0,1,5.44,1.82l-1.18,1.86A6.68,6.68,0,0,0,188,11.8c-1.92,0-3.06.82-3.06,2.2s.7,1.82,3.18,2.56l1.56.46c3.1.92,4.58,2.46,4.58,4.78a4.32,4.32,0,0,1-2,3.66,8.08,8.08,0,0,1-4.22,1,8.68,8.68,0,0,1-6.62-2.78Z" transform="translate(0 0)"/><path class="cls-6" d="M198.72,21.88a6.91,6.91,0,0,0,5.36,2.34c2.12,0,3.32-.84,3.32-2.34s-.88-2.24-3.3-3l-1.42-.42a11.34,11.34,0,0,1-2.84-1.22,3.48,3.48,0,0,1-1.66-3c0-2.92,2.14-4.62,5.78-4.62a9.13,9.13,0,0,1,5.44,1.82l-1.18,1.86a6.68,6.68,0,0,0-4.3-1.52c-1.92,0-3.06.82-3.06,2.2s.7,1.82,3.18,2.56l1.56.46c3.1.92,4.58,2.46,4.58,4.78a4.32,4.32,0,0,1-2,3.66,8.08,8.08,0,0,1-4.22,1,8.68,8.68,0,0,1-6.62-2.78Z" transform="translate(0 0)"/><path class="cls-6" d="M221.86,9.86l6.38,16.28H225.4l-1.66-4.44h-6.62l-1.66,4.44h-2.84L219,9.86Zm-.36,5.5c-.32-.88-.9-2.6-1-3.14h-.08c-.16.64-.62,2-1,3.14l-1.56,4.26H223Z" transform="translate(0 0)"/><path class="cls-6" d="M242.9,24.06a5.6,5.6,0,0,1-4.62,2.42,7.44,7.44,0,0,1-5.7-2.34,8.34,8.34,0,0,1-2.14-6.06c0-5,3.36-8.48,8.16-8.48a8.74,8.74,0,0,1,5.88,2.06L243,13.44a6.33,6.33,0,0,0-4.42-1.62c-3.3,0-5.4,2.44-5.4,6.28,0,3.62,2.16,6.12,5.26,6.12a5.2,5.2,0,0,0,4.28-2.44V19.9H238.4v-2h6.74v8.36h-1.88Z" transform="translate(0 0)"/><path class="cls-6" d="M260.76,9.94v2.18h-8.48v4.6h7.5v2.12h-7.5v5.08h8.78v2.22H249.72V9.94Z" transform="translate(0 0)"/></g></g></svg>