<svg xmlns="http://www.w3.org/2000/svg" xmlns:xlink="http://www.w3.org/1999/xlink" viewBox="0 0 243.94 30"><defs><style>.cls-1{fill:none;}.cls-2{clip-path:url(#clip-path);}.cls-3{fill:#a4a4a4;}.cls-4{clip-path:url(#clip-path-2);}.cls-5{fill:#b90f52;}</style><clipPath id="clip-path"><rect class="cls-1" width="30" height="30"/></clipPath><clipPath id="clip-path-2"><circle class="cls-1" cx="15" cy="32.5" r="15"/></clipPath></defs><title>Asset 6</title><g id="Layer_2" data-name="Layer 2"><g id="デザイン"><g class="cls-2"><path class="cls-3" d="M15,3A12,12,0,1,1,3,15,12,12,0,0,1,15,3m0-3A15,15,0,1,0,30,15,15,15,0,0,0,15,0Z"/><g class="cls-4"><path class="cls-5" d="M15,3A12,12,0,1,1,3,15,12,12,0,0,1,15,3m0-3A15,15,0,1,0,30,15,15,15,0,0,0,15,0Z"/></g></g></g><g id="テキスト"><path d="M64.83,22a46.4,46.4,0,0,1-6,.43,15.52,15.52,0,0,1-5.94-.9,2.79,2.79,0,0,1-1.76-2.72,4.34,4.34,0,0,1,1.38-3.15l1.54,1a2.82,2.82,0,0,0-.85,1.87,1.42,1.42,0,0,0,1.12,1.37,15.28,15.28,0,0,0,4.48.53,38.32,38.32,0,0,0,5.8-.45ZM63.51,8.46v1.91H52.76V8.46Z"/><path d="M76.88,21.05c3.48-.89,5.17-2.81,5.17-5.93a5.41,5.41,0,0,0-2.63-4.9,5.8,5.8,0,0,0-1.94-.66A27,27,0,0,1,74.9,19a7.76,7.76,0,0,1-1.33,2,2.85,2.85,0,0,1-2,1c-2.07,0-3.75-2.59-3.75-5.76a8.55,8.55,0,0,1,4-7.24,8.45,8.45,0,0,1,4.54-1.22c4.59,0,7.74,3,7.74,7.27q0,6.14-6.19,7.78ZM75.57,9.49A5.56,5.56,0,0,0,72,11.14a6.93,6.93,0,0,0-2.16,5c0,1.94.81,3.73,1.71,3.73.45,0,.86-.42,1.42-1.41a23.86,23.86,0,0,0,2.59-8.68Z"/><path d="M89.72,23.71H87.79V15a21.5,21.5,0,0,1-1.51,2.09l-.94-2a23.44,23.44,0,0,0,4-8.57L91.3,7a34.72,34.72,0,0,1-1.58,4.34Zm12.84-12.14v1.82H97.5v7.78h4.7V23H91v-1.8h4.53V13.39H90.37V11.57h5.16V6.84h2v4.73Z"/><path d="M111,9.31h-7.11V7.87H111V6.61h1.91V7.87h7.22V9.31H112.9v.84h5.82v3.62H112.9v.88h6.23V17h1.46v1.38h-1.46v3.15h-1.91v-.73H112.9v1.33c0,1.24-.43,1.6-1.87,1.6a20.85,20.85,0,0,1-2.43-.13L108.29,22a20.57,20.57,0,0,0,2.31.14c.3,0,.39-.09.39-.39v-1h-6.17V19.41H111V18.36h-7.58V17H111V16h-6.15V14.65H111v-.88h-5.7V10.15H111Zm-3.87,2v1.21H111V11.36Zm5.78,1.21h4V11.36h-4ZM117.22,17V16H112.9v1Zm0,2.43V18.36H112.9v1.05Z"/><path d="M130.88,21.05c3.48-.89,5.17-2.81,5.17-5.93a5.41,5.41,0,0,0-2.63-4.9,5.8,5.8,0,0,0-1.94-.66A27,27,0,0,1,128.9,19a7.76,7.76,0,0,1-1.33,2,2.85,2.85,0,0,1-2,1c-2.07,0-3.75-2.59-3.75-5.76a8.55,8.55,0,0,1,4-7.24,8.45,8.45,0,0,1,4.54-1.22c4.59,0,7.74,3,7.74,7.27q0,6.14-6.19,7.78ZM129.57,9.49a5.56,5.56,0,0,0-3.6,1.65,6.93,6.93,0,0,0-2.16,5c0,1.94.81,3.73,1.71,3.73.45,0,.86-.42,1.42-1.41a23.86,23.86,0,0,0,2.59-8.68Z"/><path d="M143.07,7.92c.56,1.15.92,1.91,1.6,3.49.6-.21,1.08-.38,2.23-.75l.9-.29.22-.07a22.57,22.57,0,0,0-1.31-2.65L148.33,7a21.87,21.87,0,0,1,1.46,2.82,9.59,9.59,0,0,1,1.94-.23,4.52,4.52,0,0,1,2.74.85,4.33,4.33,0,0,1,1.45,3.26,4,4,0,0,1-2.08,3.87,9.91,9.91,0,0,1-3.88,1l-.71-1.64a7.91,7.91,0,0,0,3.6-.92,2.52,2.52,0,0,0,1.06-2.34,2.09,2.09,0,0,0-2.2-2.34,9.2,9.2,0,0,0-1.26.14c.29.76.54,1.5.81,2.4l-1.69.81c-.34-1.19-.56-1.89-.88-2.75-.85.23-2.29.7-3.33,1.09,1.51,3.69,2.52,6.49,3.47,9.58l-1.82.61c-.88-2.93-2.19-6.57-3.44-9.54l-.32.13-2.86,1.11-.65-1.74.25-.09,2.9-1.07c-.67-1.54-1-2.32-1.6-3.51Z"/><path d="M165.14,14.67c-1.06,2-2.27,3.17-3.24,3.17-1.23,0-1.91-1.78-1.91-4.9a33.21,33.21,0,0,1,.59-5.54l1.93.29a27.3,27.3,0,0,0-.58,5c0,1.82.15,2.77.4,2.77s1-1,1.69-2.28Zm-1.33,6.88c4.08-1.13,5.74-3.38,5.74-7.81A44.93,44.93,0,0,0,169,7.4l2-.2a44.33,44.33,0,0,1,.57,6.63c0,5.2-1.82,7.74-6.75,9.38Z"/><path d="M179.72,10.49c.2-1.06.36-1.92.59-3.36l0-.25,1.92.28c-.23,1.43-.39,2.29-.61,3.33h1.06c2.69,0,3.84,1.08,3.84,3.61a21.08,21.08,0,0,1-1.14,7.16,2.28,2.28,0,0,1-2.25,1.6,7,7,0,0,1-3.11-.91l.22-1.86a6.8,6.8,0,0,0,2.59.81c.41,0,.61-.18.84-.74a18.16,18.16,0,0,0,.94-5.92c0-1.57-.4-2-2-2h-1.35a35.86,35.86,0,0,1-4,10.63l-1.76-1a33.9,33.9,0,0,0,3.85-9.66h-3.51v-1.8Zm10.71,8.68A28,28,0,0,0,187.3,12l1.71-.78a30.28,30.28,0,0,1,3.31,7.12Zm-1.3-8.42a15,15,0,0,0-1.76-3.17l1.37-.51a17.83,17.83,0,0,1,1.78,3.12Zm2.36-.76a15.42,15.42,0,0,0-1.74-3.19L191,6.37a11.44,11.44,0,0,1,1.77,3Z"/><path d="M202.07,18.09a14.37,14.37,0,0,1-1.74,3.64,2.4,2.4,0,0,1-1.89,1.15c-.94,0-1.8-.7-2.47-2a12.38,12.38,0,0,1-1.1-3.44,44.12,44.12,0,0,1-.36-5.57c0-.77,0-2.05.11-3.65l2.07.16c-.07,1.37-.11,2.22-.11,3.39,0,3.72.36,6.41,1,7.87.25.52.61.91.83.91.43,0,1.33-1.62,2-3.71Zm5.57,2.09A34.25,34.25,0,0,0,204.7,9.11l1.88-.45a29.08,29.08,0,0,1,3.11,11Z"/><path d="M213,22.88a54.48,54.48,0,0,1-.31-6.1,64.41,64.41,0,0,1,.67-9.53l1.93.29a49,49,0,0,0-.65,8.48,63,63,0,0,0,.32,6.56ZM224.47,7.25v3.19h3.58v1.75h-3.58v5.4a16.41,16.41,0,0,1,4.12,2.68l-1,1.75a23.14,23.14,0,0,0-3.15-2.4c-.16,2.29-1.26,3.3-3.62,3.3-2.54,0-4.12-1.19-4.12-3.12s1.65-3.06,4.1-3.06a8.51,8.51,0,0,1,1.73.2V12.19h-5.65V10.44h5.65V7.25Zm-1.93,11.4a6.24,6.24,0,0,0-1.83-.32c-1.32,0-2.15.54-2.15,1.4s.87,1.42,2.22,1.42c1.17,0,1.76-.66,1.76-2Z"/><path d="M232.35,9.79a7.32,7.32,0,0,1,5.89-2.72,7.84,7.84,0,0,1,4.07,1.08,3.34,3.34,0,0,1,1.63,2.63c0,1.48-.68,2.45-2.44,3.48s-2.47,2.16-2.45,4.45h-1.89c0-3,.48-4.09,2.59-5.51,1.3-.87,1.76-1.5,1.76-2.35,0-1-1.47-1.9-3.26-1.9A5.48,5.48,0,0,0,233.93,11Zm7.09,10.5V23h-2.7v-2.7Z"/></g></g></svg>