<svg xmlns="http://www.w3.org/2000/svg" xmlns:xlink="http://www.w3.org/1999/xlink" viewBox="0 0 344.22 30"><defs><style>.cls-1{fill:none;}.cls-2{clip-path:url(#clip-path);}.cls-3{fill:#a4a4a4;}.cls-4{clip-path:url(#clip-path-2);}.cls-5{fill:#b90f52;}</style><clipPath id="clip-path"><rect class="cls-1" width="30" height="30"/></clipPath><clipPath id="clip-path-2"><circle class="cls-1" cx="15" cy="32.5" r="15"/></clipPath></defs><title>Asset 15</title><g id="Layer_2" data-name="Layer 2"><g id="デザイン"><g class="cls-2"><path class="cls-3" d="M15,3A12,12,0,1,1,3,15,12,12,0,0,1,15,3m0-3A15,15,0,1,0,30,15,15,15,0,0,0,15,0Z"/><g class="cls-4"><path class="cls-5" d="M15,3A12,12,0,1,1,3,15,12,12,0,0,1,15,3m0-3A15,15,0,1,0,30,15,15,15,0,0,0,15,0Z"/></g></g></g><g id="テキスト"><path d="M62.56,13.43H53.7V12.37a17.5,17.5,0,0,1-3.33,1.78l-1.14-1.6a14.48,14.48,0,0,0,7.55-5.94h2.16C60.81,9,63,10.42,66.7,11.81l-.94,1.75A31,31,0,0,1,62.56,12ZM57.23,17.3a34,34,0,0,1-2.49,3.91l.35,0c1.35-.07,4.77-.34,6.6-.54a25.64,25.64,0,0,0-2-2l1.65-1a34.48,34.48,0,0,1,4.56,4.79l-1.76,1.24c-.6-.81-.89-1.17-1.28-1.67-3.15.5-7.73,1-11.82,1.26l-.63-1.89,1.18,0,1-.05a31.53,31.53,0,0,0,2.27-4H49.76V15.57H66.27V17.3Zm5-5.53a18.49,18.49,0,0,1-4.29-3.54,14.88,14.88,0,0,1-3.38,3.54Z"/><path d="M75.28,10.33a20.74,20.74,0,0,1-2.63,4,21,21,0,0,1,3.1,2.3L74.67,18.4a29.27,29.27,0,0,0-2.2-2.11v7.42H70.62V16.6l-.15.14a20,20,0,0,1-2.1,1.77L67.23,16.9a18.83,18.83,0,0,0,5.48-5.65H67.83V9.49h2.74V6.61h1.87V9.49h2Zm3.35-3.72h2v5H84.3v1.76H80.58V21.3h4v1.8H74.24V21.3h4.39V13.41H75V11.65h3.65Z"/><path d="M94.88,21.05c3.48-.89,5.17-2.81,5.17-5.93a5.41,5.41,0,0,0-2.63-4.9,5.8,5.8,0,0,0-1.94-.66A26.88,26.88,0,0,1,92.9,19a7.85,7.85,0,0,1-1.33,2,2.85,2.85,0,0,1-2,1c-2.07,0-3.75-2.59-3.75-5.76a8.55,8.55,0,0,1,4-7.24,8.45,8.45,0,0,1,4.54-1.22c4.59,0,7.74,3,7.74,7.27q0,6.14-6.19,7.78ZM93.57,9.49A5.56,5.56,0,0,0,90,11.14a6.93,6.93,0,0,0-2.16,5c0,1.94.81,3.73,1.71,3.73.45,0,.86-.42,1.42-1.41a23.86,23.86,0,0,0,2.59-8.68Z"/><path d="M112.07,18.09a14.37,14.37,0,0,1-1.74,3.64,2.4,2.4,0,0,1-1.89,1.15c-.94,0-1.8-.7-2.47-2a12.38,12.38,0,0,1-1.1-3.44,44.12,44.12,0,0,1-.36-5.57c0-.77,0-2.05.11-3.65l2.07.16c-.07,1.37-.11,2.22-.11,3.39,0,3.72.36,6.41,1,7.87.25.52.61.91.83.91.43,0,1.33-1.62,2.05-3.71Zm5.57,2.09A34.25,34.25,0,0,0,114.7,9.11l1.88-.45a29.08,29.08,0,0,1,3.11,11Z"/><path d="M130.07,18.09a14.37,14.37,0,0,1-1.74,3.64,2.4,2.4,0,0,1-1.89,1.15c-.94,0-1.8-.7-2.47-2a12.38,12.38,0,0,1-1.1-3.44,44.12,44.12,0,0,1-.36-5.57c0-.77,0-2.05.11-3.65l2.07.16c-.07,1.37-.11,2.22-.11,3.39,0,3.72.36,6.41,1,7.87.25.52.61.91.83.91.43,0,1.33-1.62,2-3.71Zm5.57,2.09A34.25,34.25,0,0,0,132.7,9.11l1.88-.45a29.08,29.08,0,0,1,3.11,11Z"/><path d="M154.88,22.43a52,52,0,0,1-5.4.27,26.3,26.3,0,0,1-5.51-.45c-1.84-.5-2.9-1.71-2.9-3.29,0-2.13,1.22-3.64,4.21-5.19a45,45,0,0,1-2.19-6.21l2-.5A50.53,50.53,0,0,0,147,13a45.21,45.21,0,0,1,7.18-2.59l.59,1.78a46.91,46.91,0,0,0-9.54,3.64,3.66,3.66,0,0,0-2.12,2.92,1.82,1.82,0,0,0,1.46,1.71,16.8,16.8,0,0,0,4.33.39,49.42,49.42,0,0,0,5.8-.34Z"/><path d="M172.83,22a46.4,46.4,0,0,1-6,.43,15.52,15.52,0,0,1-5.94-.9,2.79,2.79,0,0,1-1.76-2.72,4.34,4.34,0,0,1,1.38-3.15l1.54,1a2.82,2.82,0,0,0-.85,1.88c0,.64.36,1.08,1.12,1.36a15.28,15.28,0,0,0,4.48.53,37,37,0,0,0,5.8-.46ZM171.51,8.46v1.91H160.76V8.46Z"/><path d="M187.48,7.61l1,1.41C185.68,11,182.89,13,181,14.44a9.23,9.23,0,0,1,4.41-1.08c3.43,0,5.73,1.74,5.73,4.34a4.65,4.65,0,0,1-3.31,4.61,18.87,18.87,0,0,1-6.21.82L181,21.28a19.15,19.15,0,0,0,5.69-.59c1.64-.54,2.34-1.43,2.34-2.94,0-1.75-1.4-2.81-3.69-2.81a10.66,10.66,0,0,0-4.61.94,14.47,14.47,0,0,0-2.86,2.1l-1.37-1.4a64.75,64.75,0,0,1,8.81-7.2h-6.63V7.61Z"/><path d="M199.72,9.07c.57-.92.88-1.44,1.18-2l2,.28c-.27.47-.29.51-.94,1.55l-.11.18H208V10.8h-7.37a32.48,32.48,0,0,1-2.19,2.76,5.79,5.79,0,0,1,3-1,2.69,2.69,0,0,1,2.79,2.12c1.35-.43,3.44-1.12,4.59-1.48l.76,1.71-.31.09-.88.24c-1.64.45-2.92.81-3.92,1.13.07.87.12,1.64.14,2.95l-1.93.11c0-.93,0-1.27,0-2.27V17c-2.69.92-4.05,1.86-4.05,2.8S199.82,21,203.23,21a48.27,48.27,0,0,0,5-.27l.21,1.87c-1.87.15-3.25.2-5.2.2a15.14,15.14,0,0,1-4.84-.5A2.37,2.37,0,0,1,196.69,20c0-1.39.87-2.45,2.85-3.48a22.39,22.39,0,0,1,2.91-1.24c-.23-.9-.59-1.24-1.33-1.24-1.31,0-3.49,1.17-5.67,3.08l-1.17-1.33a26.78,26.78,0,0,0,4.28-5H195V9.07Z"/><path d="M227.15,11.36a19.29,19.29,0,0,1-1.89,7,14,14,0,0,0,3.55,3.4l-1.05,1.86A19.29,19.29,0,0,1,224.25,20a12.65,12.65,0,0,1-4.3,3.86l-1.21-1.59a10.21,10.21,0,0,0,4.47-3.92,21.66,21.66,0,0,1-1.71-3.87c-.18.37-.34.66-.6,1.09l-1.26-1.62a9.65,9.65,0,0,0,.61-1.2H218a18.53,18.53,0,0,1-2.1,1.92h3.36l.79.9a16.27,16.27,0,0,1-2.53,2v.63c1.58-.23,2.1-.3,3.08-.48l0,1.44c-1,.21-1.75.36-3.13.59v2.59c0,1.08-.36,1.41-1.57,1.41-.79,0-1.42,0-2.09-.09l-.34-1.57a13.54,13.54,0,0,0,1.89.16c.25,0,.32-.07.32-.36V20c-1.35.2-2.57.34-3.83.45l-.4-1.64c1.64-.12,2.47-.19,3.53-.32l.33,0,.37,0V17.08a6.64,6.64,0,0,0,1.5-1H214c-.54.36-1.26.79-1.86,1.11l-.95-1.38a23.47,23.47,0,0,0,4.56-3.08h-4.25V11.18h3.13V9.65H212.1V8.17h2.52V6.61h1.76V8.17h2.13V9.5a13.92,13.92,0,0,0,1-1.81l1.44,1a16.82,16.82,0,0,1-1.6,2.52h1v1.4a25.17,25.17,0,0,0,1.58-5.92l1.84.25c-.2,1.08-.32,1.69-.59,2.74h5.38v1.71ZM216.38,9.65v1.53h.92a15.94,15.94,0,0,0,1.12-1.53Zm6.29,1.71c-.11.32-.13.43-.16.5a2.11,2.11,0,0,1-.08.22,20,20,0,0,0,1.71,4.5,18.77,18.77,0,0,0,1.19-5.22Z"/><path d="M241.87,11.38l.8,1.29-.36.27c-2.69,2-3.6,2.74-4.87,3.8a3.71,3.71,0,0,1,1.7-.48,1.36,1.36,0,0,1,1.49,1.44,2.89,2.89,0,0,1,0,.43c-.09.95-.15,1.58-.15,2,0,.73.29.86,2,.86a25.77,25.77,0,0,0,3-.2l.16,1.87c-1.08.09-2.29.15-3.55.15a5.81,5.81,0,0,1-2.61-.33,1.74,1.74,0,0,1-.94-1.8c0-.66.08-1.87.13-2.28a.5.5,0,0,0,0-.17.58.58,0,0,0-.63-.61c-1.12,0-3.37,1.8-6.7,5.39L230,21.51c2.81-2.68,7.1-6.44,9.55-8.37H232V11.38Zm-.63-1a66,66,0,0,0-7.63-1.8L234.19,7a52.85,52.85,0,0,1,7.67,1.73Z"/><path d="M248.21,8.75c4.64-.06,11-.24,15.28-.42l.11,1.75a12.91,12.91,0,0,0-4.93,1,6.2,6.2,0,0,0-3.87,5.6,3.17,3.17,0,0,0,1.31,2.87A10.2,10.2,0,0,0,260.76,21l-.42,2c-2.79-.38-4.59-1-5.74-2.1a5.32,5.32,0,0,1-1.78-4.16,6.75,6.75,0,0,1,1.62-4.2,7.57,7.57,0,0,1,3.22-2.3c-2,0-5.83.23-9.36.41Z"/><path d="M278.67,23.28a101.28,101.28,0,0,0-10.41-6.92c-.87-.5-1.19-.9-1.19-1.45a1.42,1.42,0,0,1,.52-1c.22-.22.22-.22,1.1-.7a99.83,99.83,0,0,0,9.58-6.11l1.15,1.52c-2.23,1.62-6.61,4.37-9.29,5.85-.32.2-.47.32-.47.45s0,.16,1.07.79a99.35,99.35,0,0,1,9.09,5.83Z"/><path d="M288.24,9.74c.22-.94.31-1.42.56-2.83l2,.25c-.16.83-.36,1.8-.56,2.58H295v1.74h-5.15a65,65,0,0,1-3.89,11.65L284,22.45a65.11,65.11,0,0,0,3.86-11h-3.7V9.74Zm11.45,12.93a26.11,26.11,0,0,1-3.2.19,15.58,15.58,0,0,1-4.34-.5A2.4,2.4,0,0,1,290.42,20a3.23,3.23,0,0,1,.72-2l1.57.91a1.32,1.32,0,0,0-.28.76.93.93,0,0,0,.58.9,10,10,0,0,0,2.92.34,23.84,23.84,0,0,0,3.54-.27ZM291.44,14a69.9,69.9,0,0,1,7.55-.41l.09,1.78a70.46,70.46,0,0,0-7.38.38Zm5.64-3.33a14.78,14.78,0,0,0-1.75-3.19l1.37-.5a17.18,17.18,0,0,1,1.77,3.13Zm2.48-.58a13.52,13.52,0,0,0-1.72-3.18l1.29-.47a12.21,12.21,0,0,1,1.77,3Z"/><path d="M309.12,10.08c-.32-.86-.76-2.07-1-3L310,7a28.87,28.87,0,0,0,1.1,3.12h6.5v1.8h-5.67a37.53,37.53,0,0,0,2.84,4.9l-1.85.88a33.28,33.28,0,0,1-3.08-5.78h-7.78v-1.8Zm5.73,13c-1.53.08-2.47.11-3.14.11a18.81,18.81,0,0,1-5.34-.57c-2.06-.67-3.14-2-3.14-3.86a3.79,3.79,0,0,1,1.08-2.81l1.66.9a2.48,2.48,0,0,0-.72,1.88c0,1.85,1.75,2.57,6.27,2.57,1,0,1.83,0,3.11-.14Z"/><path d="M328.07,18.09a14.37,14.37,0,0,1-1.74,3.64,2.4,2.4,0,0,1-1.89,1.15c-.94,0-1.8-.7-2.47-2a12.38,12.38,0,0,1-1.1-3.44,44.12,44.12,0,0,1-.36-5.57c0-.77,0-2.05.11-3.65l2.07.16c-.07,1.37-.11,2.22-.11,3.39,0,3.72.36,6.41,1.05,7.87.25.52.61.91.83.91.43,0,1.33-1.62,2.05-3.71Zm5.57,2.09A34.25,34.25,0,0,0,330.7,9.11l1.88-.45a29.08,29.08,0,0,1,3.11,11Z"/><path d="M344.22,20.33a3,3,0,1,1-3-3A3,3,0,0,1,344.22,20.33Zm-4.66,0a1.64,1.64,0,1,0,1.64-1.64A1.66,1.66,0,0,0,339.56,20.33Z"/></g></g></svg>