<svg xmlns="http://www.w3.org/2000/svg" viewBox="0 0 24.52 168.5"><defs><style>.cls-1{fill:none;stroke:#fff;stroke-miterlimit:10;}.cls-2{fill:#fff;}</style></defs><title>Asset 6</title><g id="Layer_2" data-name="Layer 2"><g id="デザイン"><line class="cls-1" x1="24.02" y1="45.5" x2="24.02" y2="168.5"/><rect class="cls-2" x="6.52" width="5" height="5"/></g><g id="テキスト"><path class="cls-2" d="M11.28,133.74a5.38,5.38,0,0,0,1.06-3.23c0-1.22-.4-1.86-1.17-1.86s-1.07.53-1.47,1.91l-.24.83c-.56,2-1.36,2.75-2.77,2.75-1.62,0-2.72-1.44-2.72-3.55a5.9,5.9,0,0,1,1.12-3.73l1.33.9a4.66,4.66,0,0,0-.88,2.8c0,.94.45,1.57,1.13,1.57a.9.9,0,0,0,.77-.5,5.24,5.24,0,0,0,.42-1.07l.08-.24.3-.93c.66-2,1.48-2.83,2.85-2.83,1.83,0,2.88,1.44,2.88,3.9a6.33,6.33,0,0,1-1.32,4.16Z"/><path class="cls-2" d="M12.24,113.5a4.72,4.72,0,0,1,1.73,4,4.8,4.8,0,0,1-5,5,4.85,4.85,0,0,1-5-5,5.39,5.39,0,0,1,1.31-3.7l1.35,1a3.76,3.76,0,0,0-1,2.67c0,1.78,1.37,3,3.37,3a3.1,3.1,0,0,0,3.33-3A3.34,3.34,0,0,0,11,114.67Z"/><path class="cls-2" d="M6.87,107.31c-2-.58-2.87-1.57-2.87-3.14a2.81,2.81,0,0,1,.27-1.29l1.83.54a2.76,2.76,0,0,0-.16,1c0,1.45,1.2,2.53,3.17,2.85h4.58v2H4.24v-1.94l2.63.06Z"/><path class="cls-2" d="M9,90.11a4.84,4.84,0,1,1,0,9.68,4.84,4.84,0,1,1,0-9.68Zm0,7.63c2,0,3.38-1.13,3.38-2.8s-1.38-2.78-3.38-2.78-3.36,1.16-3.36,2.78S7,97.74,8.93,97.74Z"/><path class="cls-2" d="M0,83.23H11.73c.26,0,.37-.11.37-.35v-1.3l1.59.23v1.74A1.49,1.49,0,0,1,12,85.25H0Z"/><path class="cls-2" d="M0,75.07H11.73c.26,0,.37-.11.37-.35v-1.3l1.59.23v1.74A1.49,1.49,0,0,1,12,77.09H0Z"/><path class="cls-2" d="M0,52.3H13.73v2H12.26a3.54,3.54,0,0,1,1.65,3.09c0,2.62-2,4.4-5,4.4S4,59.89,4,57.26a3.66,3.66,0,0,1,1.55-3H0Zm7.57,2a2.9,2.9,0,0,0-2,2.58c0,1.63,1.4,2.81,3.36,2.81s3.36-1.1,3.36-2.78a3.05,3.05,0,0,0-1.84-2.61Z"/><path class="cls-2" d="M9,38a4.84,4.84,0,1,1,0,9.68A4.84,4.84,0,1,1,9,38Zm0,7.63c2,0,3.38-1.14,3.38-2.8S10.93,40,8.93,40s-3.36,1.17-3.36,2.79S7,45.63,8.93,45.63Z"/><path class="cls-2" d="M4.24,32.75l5-1.39.08,0c1.06-.3,1.41-.38,2.13-.54v-.05a21.91,21.91,0,0,1-2.24-.62l-4.3-1.49V26.83l4.3-1.49a21.91,21.91,0,0,1,2.24-.62v0c-.56-.11-1.09-.26-2.08-.53l-.13,0-5-1.4V20.63l9.59,3v1.9L8.88,27.2a15.79,15.79,0,0,1-2,.49v.07a18.25,18.25,0,0,1,2,.49l4.95,1.68v1.91l-9.59,3Z"/><path class="cls-2" d="M6,14.73a3.93,3.93,0,0,1-1.95-3.34c0-2.1,1.36-3.3,3.72-3.3h5.9v2H8.12c-1.59,0-2.37.64-2.37,1.92a3.31,3.31,0,0,0,2.32,2.75h5.62v2H4.24v-2Z"/></g></g></svg>