<svg xmlns="http://www.w3.org/2000/svg" viewBox="0 0 24.66 185.5"><defs><style>.cls-1{fill:none;stroke:#fff;stroke-miterlimit:10;stroke-width:1px;}.cls-2{fill:#fff;}</style></defs><title>Asset 1</title><g id="Layer_2" data-name="Layer 2"><g id="デザイン"><line class="cls-1" x1="24.16" y1="62.5" x2="24.16" y2="185.5"/><rect class="cls-2" x="6.55" width="5.03" height="5"/></g><g id="テキスト"><path class="cls-2" d="M11.35,150.74a5.38,5.38,0,0,0,1.06-3.23c0-1.22-.4-1.86-1.17-1.86s-1.08.53-1.48,1.91l-.25.83c-.56,2-1.36,2.75-2.78,2.75C5.1,151.14,4,149.7,4,147.59a5.84,5.84,0,0,1,1.13-3.73l1.34.9a4.61,4.61,0,0,0-.89,2.8c0,.94.45,1.57,1.14,1.57a.93.93,0,0,0,.78-.5,4.88,4.88,0,0,0,.41-1.07l.08-.24.31-.93c.66-2,1.48-2.83,2.87-2.83,1.83,0,2.89,1.44,2.89,3.9a6.33,6.33,0,0,1-1.33,4.16Z"/><path class="cls-2" d="M12.32,130.5a4.72,4.72,0,0,1,1.73,4,4.82,4.82,0,0,1-5.07,5,4.86,4.86,0,0,1-5-5,5.39,5.39,0,0,1,1.32-3.7l1.35,1a3.81,3.81,0,0,0-1,2.67c0,1.78,1.38,3,3.39,3a3.1,3.1,0,0,0,3.35-3,3.32,3.32,0,0,0-1.27-2.75Z"/><path class="cls-2" d="M6.91,124.31c-2-.58-2.89-1.57-2.89-3.14a2.69,2.69,0,0,1,.28-1.29l1.83.54a2.76,2.76,0,0,0-.16,1c0,1.45,1.21,2.53,3.19,2.85h4.6v2H4.27v-1.94l2.64.06Z"/><path class="cls-2" d="M9,107.11a4.84,4.84,0,1,1,0,9.68,4.84,4.84,0,1,1,0-9.68Zm0,7.63c2,0,3.4-1.13,3.4-2.8S11,109.16,9,109.16s-3.38,1.16-3.38,2.78S7,114.74,9,114.74Z"/><path class="cls-2" d="M0,100.23H11.8c.26,0,.37-.11.37-.35v-1.3l1.59.23v1.74a1.49,1.49,0,0,1-1.65,1.7H0Z"/><path class="cls-2" d="M0,92.07H11.8c.26,0,.37-.11.37-.35v-1.3l1.59.23v1.74a1.49,1.49,0,0,1-1.65,1.7H0Z"/><path class="cls-2" d="M0,69.3H13.81v2H12.33A3.55,3.55,0,0,1,14,74.36c0,2.62-2,4.4-5,4.4s-5-1.87-5-4.5a3.62,3.62,0,0,1,1.57-3H0Zm7.61,2a2.91,2.91,0,0,0-2,2.58C5.62,75.48,7,76.66,9,76.66s3.38-1.1,3.38-2.78a3,3,0,0,0-1.85-2.61Z"/><path class="cls-2" d="M9,55a4.84,4.84,0,1,1,0,9.68A4.84,4.84,0,1,1,9,55Zm0,7.63c2,0,3.4-1.13,3.4-2.8S11,57.05,9,57.05,5.6,58.21,5.6,59.83,7,62.63,9,62.63Z"/><path class="cls-2" d="M4.27,49.75l5-1.39.08,0c1.06-.3,1.41-.38,2.14-.54v0a22.44,22.44,0,0,1-2.26-.62L4.89,45.64V43.83l4.33-1.49a22.44,22.44,0,0,1,2.26-.62v0c-.57-.11-1.1-.26-2.1-.53l-.12,0-5-1.39V37.63l9.64,3v1.9l-5,1.67a15.94,15.94,0,0,1-2,.49v.07a19,19,0,0,1,2,.49l5,1.68v1.91l-9.64,3Z"/><path class="cls-2" d="M6.05,31.74a4,4,0,0,1-2-3.35c0-2.1,1.37-3.3,3.75-3.3h5.92v2H8.16c-1.59,0-2.38.64-2.38,1.92a3.35,3.35,0,0,0,2.33,2.76h5.65v2H4.27v-2Z"/></g></g></svg>