<svg xmlns="http://www.w3.org/2000/svg" viewBox="0 0 314.18 25.92"><defs><style>.cls-1{fill:#e2e2e2;}</style></defs><title>Asset 16</title><g id="Layer_2" data-name="Layer 2"><g id="テキスト"><path class="cls-1" d="M4.51,1.08l4,9a30.2,30.2,0,0,1,1.47,4H10a26.74,26.74,0,0,1,1.47-4l4-8.95H20V20.52H17V10.58c0-1.94.08-5.56.15-7H17a61,61,0,0,1-2.18,5.76l-3.63,7.92H8.74L5.11,9.34A55,55,0,0,1,2.93,3.58h-.1c.1,2,.15,4.39.15,7v9.94H0V1.08Z"/><path class="cls-1" d="M34.49,1l7.66,19.54H38.74l-2-5.33H28.8l-2,5.33H23.4L31.06,1Zm-.43,6.6c-.39-1-1.08-3.12-1.23-3.76h-.09c-.2.76-.75,2.44-1.23,3.76L29.64,12.7H35.9Z"/><path class="cls-1" d="M61.92,18.31a10.24,10.24,0,0,1-7.27,2.62c-5.81,0-9.77-4.08-9.77-10.08S48.91.67,54.48.67a9.93,9.93,0,0,1,6.91,2.52L59.76,5.42a6.88,6.88,0,0,0-5.23-2.08c-3.67,0-6.29,3.14-6.29,7.53a8.08,8.08,0,0,0,1.39,4.78,6.39,6.39,0,0,0,5,2.54A7.87,7.87,0,0,0,60.36,16Z"/><path class="cls-1" d="M69.7,1.08V9h9.55V1.08h3.07V20.52H79.25V11.74H69.7v8.78H66.62V1.08Z"/><path class="cls-1" d="M95.54,1.08V3.41H92.9V18.19h2.64v2.33H87.19V18.19h2.64V3.41H87.19V1.08Z"/><path class="cls-1" d="M104.52,1.08l6.24,10.25.17.26a43.73,43.73,0,0,1,2.23,4.2h.1c-.08-1.63-.12-4.6-.12-6.43V1.08h3V20.52h-3.08l-7.39-11.9a47.14,47.14,0,0,1-2.35-4.37h-.12c.12,1.61.19,4.2.19,6.86v9.41h-3V1.08Z"/><path class="cls-1" d="M135.17,1.08V3.7H125V9.22h9v2.54h-9v6.1h10.54v2.66H121.92V1.08Z"/><path class="cls-1" d="M159.38.5l-9,25.42-1.63-.5L157.75,0Z"/><path class="cls-1" d="M180.5,1.08a10.1,10.1,0,0,1,4.88,1A5.54,5.54,0,0,1,188.23,7c0,4.25-2.59,6.36-7.87,6.36h-3.65v7.13h-3.07V1.08Zm-3.79,9.82H180c3.56,0,4.95-1.06,4.95-3.77a3.29,3.29,0,0,0-1.39-2.79,6.34,6.34,0,0,0-3.22-.67h-3.6Z"/><path class="cls-1" d="M200.35,1.08c4.59,0,7.27,2,7.27,5.3a4.45,4.45,0,0,1-2,3.84,8.24,8.24,0,0,1-3.29,1.13v.07c2.16.68,3.26,2.16,6.74,9.1h-3.74c-2.86-6.77-3.89-8-6.92-8.06h-2.28v8.06h-3.09V1.08ZM196.17,10h3.27c3.12,0,4.8-1.16,4.8-3.34,0-2-1.54-3.07-4.47-3.07h-3.6Z"/><path class="cls-1" d="M231.12,10.78c0,6-3.89,10.15-9.51,10.15s-9.5-4.15-9.5-10.15S216.05.67,221.61.67,231.12,4.85,231.12,10.78Zm-15.67,0c0,4.44,2.49,7.47,6.16,7.47s6.17-3,6.17-7.47-2.52-7.49-6.17-7.49S215.45,6.34,215.45,10.75Z"/><path class="cls-1" d="M242.13,1.08c6.51,0,10.42,3.65,10.42,9.7,0,3.67-1.49,6.6-4.17,8.23A12.05,12.05,0,0,1,242,20.52h-6.41V1.08Zm-3.48,16.78h2.91c4.9,0,7.68-2.55,7.68-7.06s-2.66-7.08-7.56-7.08h-3Z"/><path class="cls-1" d="M260.59,1.08v12.1a5.1,5.1,0,0,0,.89,3.17,4.65,4.65,0,0,0,3.89,1.84,4.89,4.89,0,0,0,3.84-1.77,5.12,5.12,0,0,0,.93-3.24V1.08h3.1v12.7a6.64,6.64,0,0,1-1.35,4.32A8.07,8.07,0,0,1,265.37,21a8.18,8.18,0,0,1-6.6-2.92,6.7,6.7,0,0,1-1.28-4.25V1.08Z"/><path class="cls-1" d="M295.1,18.31a10.24,10.24,0,0,1-7.27,2.62c-5.81,0-9.77-4.08-9.77-10.08s4-10.18,9.6-10.18a9.93,9.93,0,0,1,6.91,2.52l-1.63,2.23a6.88,6.88,0,0,0-5.23-2.08c-3.67,0-6.29,3.14-6.29,7.53a8.15,8.15,0,0,0,1.39,4.78,6.4,6.4,0,0,0,5,2.54A7.87,7.87,0,0,0,293.54,16Z"/><path class="cls-1" d="M314.18,1.08V3.82h-6.65v16.7h-3.14V3.82h-6.67V1.08Z"/></g></g></svg>