<svg xmlns="http://www.w3.org/2000/svg" viewBox="0 0 221.59 20.28"><defs><style>.cls-1{fill:#e2e2e2;}</style></defs><title>Asset 14</title><g id="Layer_2" data-name="Layer 2"><g id="テキスト"><path class="cls-1" d="M19,10.11c0,6-3.89,10.15-9.51,10.15S0,16.11,0,10.11,3.94,0,9.5,0,19,4.18,19,10.11Zm-15.67,0c0,4.44,2.49,7.47,6.16,7.47s6.17-3,6.17-7.47S13.15,2.59,9.5,2.59,3.34,5.67,3.34,10.08Z"/><path class="cls-1" d="M26.66.41v12.1a5,5,0,0,0,.89,3.16,4.67,4.67,0,0,0,3.89,1.85,4.89,4.89,0,0,0,3.84-1.77,5.1,5.1,0,0,0,.94-3.24V.41h3.09v12.7A6.64,6.64,0,0,1,38,17.43a8.07,8.07,0,0,1-6.53,2.85,8.16,8.16,0,0,1-6.6-2.93,6.67,6.67,0,0,1-1.27-4.24V.41Z"/><path class="cls-1" d="M52.39.41c4.59,0,7.28,2,7.28,5.3a4.47,4.47,0,0,1-2,3.84,8.24,8.24,0,0,1-3.29,1.13v.07c2.16.68,3.26,2.16,6.74,9.1H57.41c-2.86-6.77-3.89-8-6.91-8.06H48.22v8.06h-3.1V.41Zm-4.17,8.9h3.26c3.12,0,4.8-1.15,4.8-3.33,0-2-1.54-3.08-4.46-3.08h-3.6Z"/><path class="cls-1" d="M82.15.41A13.17,13.17,0,0,1,86.3,1a4.58,4.58,0,0,1,3.27,4.28c0,2.4-1.39,3.89-4.11,4.39v.1c3.29.45,5,2.08,5,4.68,0,3.4-2.83,5.42-7.58,5.42H75.46V.41ZM78.5,8.47h3.36c2.84,0,4.47-1,4.47-2.83S84.82,2.74,82,2.74H78.5Zm0,8.81h4a7.06,7.06,0,0,0,2.86-.5,3,3,0,0,0,1.68-2.64,2.64,2.64,0,0,0-1.87-2.64,8.11,8.11,0,0,0-3.2-.6H78.5Z"/><path class="cls-1" d="M98.76.41v12.1a5,5,0,0,0,.89,3.16,4.66,4.66,0,0,0,3.89,1.85,4.92,4.92,0,0,0,3.84-1.77,5.16,5.16,0,0,0,.93-3.24V.41h3.1v12.7a6.64,6.64,0,0,1-1.35,4.32,8.07,8.07,0,0,1-6.52,2.85,8.16,8.16,0,0,1-6.6-2.93,6.67,6.67,0,0,1-1.28-4.24V.41Z"/><path class="cls-1" d="M117.43,14.74a8.28,8.28,0,0,0,6.43,2.81c2.55,0,4-1,4-2.81s-1.06-2.69-4-3.55l-1.71-.51a13.47,13.47,0,0,1-3.4-1.46,4.19,4.19,0,0,1-2-3.63c0-3.5,2.57-5.54,6.94-5.54a11,11,0,0,1,6.53,2.18l-1.42,2.23a8,8,0,0,0-5.16-1.82c-2.3,0-3.67,1-3.67,2.64s.84,2.18,3.82,3.07l1.87.56c3.72,1.1,5.49,2.95,5.49,5.73A5.17,5.17,0,0,1,128.81,19a9.7,9.7,0,0,1-5.07,1.2,10.41,10.41,0,0,1-7.94-3.33Z"/><path class="cls-1" d="M143.69.41V2.74h-2.64V17.52h2.64v2.33h-8.36V17.52H138V2.74h-2.65V.41Z"/><path class="cls-1" d="M152.66.41l6.24,10.25.17.26a40.54,40.54,0,0,1,2.23,4.2h.1c-.07-1.63-.12-4.61-.12-6.43V.41h3V19.85h-3.07L153.82,8a45.23,45.23,0,0,1-2.36-4.37h-.12c.12,1.6.2,4.2.2,6.86v9.41h-3V.41Z"/><path class="cls-1" d="M183.31.41V3H173.13V8.54h9v2.55h-9v6.1h10.54v2.66H170.06V.41Z"/><path class="cls-1" d="M188.76,14.74a8.28,8.28,0,0,0,6.43,2.81c2.55,0,4-1,4-2.81s-1.06-2.69-4-3.55l-1.71-.51a13.56,13.56,0,0,1-3.41-1.46,4.2,4.2,0,0,1-2-3.63c0-3.5,2.57-5.54,6.94-5.54a11,11,0,0,1,6.53,2.18l-1.42,2.23A8,8,0,0,0,195,2.64c-2.31,0-3.67,1-3.67,2.64s.84,2.18,3.81,3.07l1.88.56c3.72,1.1,5.49,2.95,5.49,5.73A5.2,5.2,0,0,1,200.14,19a9.7,9.7,0,0,1-5.07,1.2,10.39,10.39,0,0,1-7.94-3.33Z"/><path class="cls-1" d="M207.84,14.74a8.28,8.28,0,0,0,6.43,2.81c2.55,0,4-1,4-2.81s-1.06-2.69-4-3.55l-1.71-.51a13.56,13.56,0,0,1-3.41-1.46,4.2,4.2,0,0,1-2-3.63c0-3.5,2.57-5.54,6.94-5.54a11,11,0,0,1,6.53,2.18l-1.42,2.23a8,8,0,0,0-5.16-1.82c-2.31,0-3.67,1-3.67,2.64s.84,2.18,3.81,3.07l1.88.56c3.72,1.1,5.49,2.95,5.49,5.73A5.2,5.2,0,0,1,219.22,19a9.7,9.7,0,0,1-5.07,1.2,10.41,10.41,0,0,1-7.94-3.33Z"/></g></g></svg>