<svg xmlns="http://www.w3.org/2000/svg" viewBox="0 0 419.69 21.55"><defs><style>.cls-1{fill:#e2e2e2;}</style></defs><title>Asset 15</title><g id="Layer_2" data-name="Layer 2"><g id="テキスト"><path class="cls-1" d="M18.84,21.39H16L13,11.26a36.15,36.15,0,0,1-1-4.16H12A29.67,29.67,0,0,1,11,11.26l-3,10.13H5.21L0,1.68H3.19l2.6,10.37c.31,1.29.52,2.33,1,4.94h.09A46.29,46.29,0,0,1,8,12.22l2.76-9H13.3l2.76,9c.33,1.15.57,2.2,1.08,4.77h.09c.32-1.84.72-3.81,1-4.94L20.86,1.68H24Z"/><path class="cls-1" d="M45.46,11.38c0,6-3.89,10.15-9.51,10.15s-9.5-4.15-9.5-10.15S30.38,1.27,36,1.27,45.46,5.45,45.46,11.38Zm-15.67,0c0,4.44,2.49,7.47,6.16,7.47s6.17-3,6.17-7.47S39.6,3.86,36,3.86,29.79,6.94,29.79,11.35Z"/><path class="cls-1" d="M57.38,1.68c4.59,0,7.28,2,7.28,5.3a4.46,4.46,0,0,1-2,3.84A8.13,8.13,0,0,1,59.4,12V12c2.16.68,3.27,2.16,6.75,9.1H62.4c-2.86-6.77-3.89-8-6.91-8.06H53.21v8.06h-3.1V1.68Zm-4.17,8.9h3.26c3.12,0,4.8-1.15,4.8-3.33,0-2-1.53-3.07-4.46-3.07h-3.6Z"/><path class="cls-1" d="M73.49,1.68V18.39h9.26v2.73H70.32V1.68Z"/><path class="cls-1" d="M92.93,1.68c6.5,0,10.42,3.65,10.42,9.7,0,3.67-1.49,6.6-4.18,8.23a12.05,12.05,0,0,1-6.41,1.51H86.35V1.68ZM89.45,18.46h2.9c4.9,0,7.68-2.55,7.68-7.06s-2.66-7.08-7.56-7.08h-3Z"/><path class="cls-1" d="M111.31,0V1.92a8.74,8.74,0,0,1-1.94,5.52h-1.66a7.21,7.21,0,0,0,1.61-3.84h-1.61V0Z"/><path class="cls-1" d="M121.8,16a8.28,8.28,0,0,0,6.43,2.81c2.55,0,4-1,4-2.81s-1.06-2.69-4-3.55L126.55,12a13.72,13.72,0,0,1-3.41-1.46,4.19,4.19,0,0,1-2-3.63c0-3.5,2.57-5.54,6.94-5.54a11,11,0,0,1,6.53,2.18L133.2,5.74A8,8,0,0,0,128,3.91c-2.3,0-3.67,1-3.67,2.64s.84,2.19,3.81,3.08l1.88.55c3.72,1.1,5.49,3,5.49,5.73a5.19,5.19,0,0,1-2.37,4.4,9.79,9.79,0,0,1-5.07,1.2,10.42,10.42,0,0,1-7.94-3.34Z"/><path class="cls-1" d="M163.46,1.68V4.34h-9.88v5.74h8.71v2.55h-8.71v8.49H150.5V1.68Z"/><path class="cls-1" d="M177,1.58l7.66,19.54h-3.41l-2-5.33h-7.95l-2,5.33h-3.41l7.66-19.54Zm-.43,6.6c-.38-1-1.08-3.12-1.22-3.76h-.1c-.19.76-.74,2.44-1.22,3.76l-1.87,5.12h6.26Z"/><path class="cls-1" d="M188.62,16a8.28,8.28,0,0,0,6.43,2.81c2.54,0,4-1,4-2.81s-1.05-2.69-4-3.55l-1.7-.51A13.4,13.4,0,0,1,190,10.49a4.17,4.17,0,0,1-2-3.63c0-3.5,2.57-5.54,6.93-5.54a11,11,0,0,1,6.53,2.18L200,5.74a8,8,0,0,0-5.16-1.83c-2.31,0-3.68,1-3.68,2.64S192,8.74,195,9.63l1.87.55c3.72,1.1,5.5,3,5.5,5.73a5.2,5.2,0,0,1-2.38,4.4,9.75,9.75,0,0,1-5.06,1.2,10.44,10.44,0,0,1-8-3.34Z"/><path class="cls-1" d="M221.78,1.68V4.42h-6.64v16.7H212V4.42h-6.67V1.68Z"/><path class="cls-1" d="M238.75,1.68V4.3H228.57V9.82h9v2.54h-9v6.1h10.54v2.66H225.5V1.68Z"/><path class="cls-1" d="M244.2,16a8.28,8.28,0,0,0,6.43,2.81c2.55,0,4-1,4-2.81s-1.06-2.69-4-3.55L249,12a13.56,13.56,0,0,1-3.41-1.46,4.19,4.19,0,0,1-2-3.63c0-3.5,2.57-5.54,6.94-5.54A11,11,0,0,1,257,3.5L255.6,5.74a8,8,0,0,0-5.16-1.83c-2.31,0-3.67,1-3.67,2.64s.84,2.19,3.81,3.08l1.88.55c3.72,1.1,5.49,3,5.49,5.73a5.21,5.21,0,0,1-2.37,4.4,9.79,9.79,0,0,1-5.07,1.2,10.4,10.4,0,0,1-7.94-3.34Z"/><path class="cls-1" d="M277.37,1.68V4.42h-6.65v16.7h-3.15V4.42H260.9V1.68Z"/><path class="cls-1" d="M307,18.91a10.26,10.26,0,0,1-7.28,2.62c-5.8,0-9.76-4.08-9.76-10.08s4-10.18,9.6-10.18a10,10,0,0,1,6.91,2.52L304.85,6a6.88,6.88,0,0,0-5.23-2.08c-3.68,0-6.29,3.14-6.29,7.53a8.1,8.1,0,0,0,1.39,4.78,6.38,6.38,0,0,0,5,2.54,7.9,7.9,0,0,0,5.74-2.23Z"/><path class="cls-1" d="M314.78,1.68v12.1a5.1,5.1,0,0,0,.89,3.17,4.67,4.67,0,0,0,3.89,1.84A4.87,4.87,0,0,0,323.4,17a5.12,5.12,0,0,0,.93-3.24V1.68h3.1v12.7a6.7,6.7,0,0,1-1.34,4.32A8.91,8.91,0,0,1,313,18.63a6.7,6.7,0,0,1-1.27-4.25V1.68Z"/><path class="cls-1" d="M347.54,1.68V4.42h-6.65v16.7h-3.14V4.42h-6.67V1.68Z"/><path class="cls-1" d="M365.59,1.68V4.42h-6.65v16.7H355.8V4.42h-6.67V1.68Z"/><path class="cls-1" d="M376.72,1.68V4h-2.64V18.79h2.64v2.33h-8.35V18.79H371V4h-2.64V1.68Z"/><path class="cls-1" d="M385.7,1.68l6.24,10.25.17.26a43.73,43.73,0,0,1,2.23,4.2h.1c-.07-1.63-.12-4.6-.12-6.43V1.68h3V21.12h-3.07l-7.4-11.9a47.14,47.14,0,0,1-2.35-4.37h-.12c.12,1.61.19,4.2.19,6.86v9.41h-3V1.68Z"/><path class="cls-1" d="M417,18.63a6.74,6.74,0,0,1-5.55,2.9,8.91,8.91,0,0,1-6.84-2.81A10,10,0,0,1,402,11.45c0-6,4-10.18,9.8-10.18a10.52,10.52,0,0,1,7.05,2.47l-1.72,2.14a7.63,7.63,0,0,0-5.31-1.94c-4,0-6.48,2.92-6.48,7.53,0,4.35,2.59,7.35,6.31,7.35a6.23,6.23,0,0,0,5.14-2.93V13.63H411.6V11.18h8.09v10h-2.26Z"/></g></g></svg>