<svg xmlns="http://www.w3.org/2000/svg" viewBox="0 0 394.58 20.28"><defs><style>.cls-1{fill:#e2e2e2;}</style></defs><title>Asset 17</title><g id="Layer_2" data-name="Layer 2"><g id="テキスト"><path class="cls-1" d="M17,17.64a10.24,10.24,0,0,1-7.27,2.62C4,20.26,0,16.18,0,10.18S4,0,9.6,0a9.93,9.93,0,0,1,6.91,2.52L14.88,4.75A6.88,6.88,0,0,0,9.65,2.67C6,2.67,3.36,5.81,3.36,10.2A8.1,8.1,0,0,0,4.75,15a6.4,6.4,0,0,0,5,2.54,7.87,7.87,0,0,0,5.73-2.23Z"/><path class="cls-1" d="M24.82.41v12.1a5,5,0,0,0,.88,3.16,4.67,4.67,0,0,0,3.89,1.85,4.89,4.89,0,0,0,3.84-1.77,5.1,5.1,0,0,0,.94-3.24V.41h3.1v12.7a6.64,6.64,0,0,1-1.35,4.32,8.07,8.07,0,0,1-6.53,2.85A8.16,8.16,0,0,1,23,17.35a6.67,6.67,0,0,1-1.27-4.24V.41Z"/><path class="cls-1" d="M43.49,14.74a8.28,8.28,0,0,0,6.43,2.81c2.54,0,4-1,4-2.81s-1.06-2.69-4-3.55l-1.7-.51a13.4,13.4,0,0,1-3.41-1.46,4.2,4.2,0,0,1-2-3.63c0-3.5,2.57-5.54,6.94-5.54A11,11,0,0,1,56.3,2.23L54.89,4.46a8,8,0,0,0-5.16-1.82c-2.31,0-3.67,1-3.67,2.64s.84,2.18,3.81,3.07l1.87.56c3.72,1.1,5.5,2.95,5.5,5.73A5.18,5.18,0,0,1,54.86,19a9.66,9.66,0,0,1-5.06,1.2,10.39,10.39,0,0,1-7.94-3.33Z"/><path class="cls-1" d="M76.66.41V3.14H70V19.85H66.86V3.14H60.19V.41Z"/><path class="cls-1" d="M98.16,10.11c0,6-3.89,10.15-9.5,10.15s-9.51-4.15-9.51-10.15S83.09,0,88.66,0,98.16,4.18,98.16,10.11Zm-15.67,0c0,4.44,2.49,7.47,6.17,7.47s6.16-3,6.16-7.47S92.3,2.59,88.66,2.59,82.49,5.67,82.49,10.08Z"/><path class="cls-1" d="M107,.41l4,9a29,29,0,0,1,1.46,4h.1a27.6,27.6,0,0,1,1.46-4l4-8.95h4.52V19.85h-3V9.91c0-1.94.07-5.57.15-7h-.1a60.12,60.12,0,0,1-2.19,5.77l-3.62,7.92h-2.5l-3.62-7.92a52.24,52.24,0,0,1-2.18-5.77h-.1c.1,2,.14,4.4.14,7v9.94h-3V.41Z"/><path class="cls-1" d="M141.34.41V3H131.16V8.54h9v2.55h-9v6.1H141.7v2.66H128.09V.41Z"/><path class="cls-1" d="M153.84.41c4.58,0,7.27,2,7.27,5.3a4.44,4.44,0,0,1-2,3.84,8.13,8.13,0,0,1-3.28,1.13v.07c2.16.68,3.26,2.16,6.74,9.1h-3.74c-2.86-6.77-3.89-8-6.92-8.06h-2.28v8.06h-3.09V.41Zm-4.18,8.9h3.27c3.12,0,4.8-1.15,4.8-3.33,0-2-1.54-3.08-4.47-3.08h-3.6Z"/><path class="cls-1" d="M191,.41V3.14h-6.65V19.85H181.2V3.14h-6.67V.41Z"/><path class="cls-1" d="M208,.41V3H197.78V8.54h9v2.55h-9v6.1h10.54v2.66H194.71V.41Z"/><path class="cls-1" d="M213.41,14.74a8.28,8.28,0,0,0,6.43,2.81c2.54,0,4-1,4-2.81s-1-2.69-4-3.55l-1.7-.51a13.4,13.4,0,0,1-3.41-1.46,4.18,4.18,0,0,1-2-3.63c0-3.5,2.57-5.54,6.93-5.54a11,11,0,0,1,6.53,2.18l-1.41,2.23a8,8,0,0,0-5.16-1.82c-2.31,0-3.68,1-3.68,2.64s.84,2.18,3.82,3.07l1.87.56c3.72,1.1,5.5,2.95,5.5,5.73A5.18,5.18,0,0,1,224.78,19a9.66,9.66,0,0,1-5.06,1.2,10.43,10.43,0,0,1-7.95-3.33Z"/><path class="cls-1" d="M246.58.41V3.14h-6.65V19.85h-3.15V3.14h-6.67V.41Z"/><path class="cls-1" d="M257.71.41V2.74h-2.64V17.52h2.64v2.33h-8.35V17.52H252V2.74h-2.64V.41Z"/><path class="cls-1" d="M266.88.41l4,9a29,29,0,0,1,1.46,4h.1a27.6,27.6,0,0,1,1.46-4l4-8.95h4.51V19.85h-3V9.91c0-1.94.07-5.57.14-7h-.09a60.12,60.12,0,0,1-2.19,5.77l-3.62,7.92h-2.5l-3.62-7.92a54.31,54.31,0,0,1-2.19-5.77h-.09c.09,2,.14,4.4.14,7v9.94h-3V.41Z"/><path class="cls-1" d="M305.71,10.11c0,6-3.89,10.15-9.5,10.15s-9.51-4.15-9.51-10.15S290.64,0,296.21,0,305.71,4.18,305.71,10.11Zm-15.67,0c0,4.44,2.49,7.47,6.17,7.47s6.16-3,6.16-7.47-2.52-7.49-6.16-7.49S290,5.67,290,10.08Z"/><path class="cls-1" d="M314.4.41l6.24,10.25.17.26a42.57,42.57,0,0,1,2.23,4.2h.09c-.07-1.63-.12-4.61-.12-6.43V.41h3V19.85h-3.07L315.55,8a42.77,42.77,0,0,1-2.35-4.37h-.12c.12,1.6.19,4.2.19,6.86v9.41h-3V.41Z"/><path class="cls-1" d="M339.21.41V2.74h-2.64V17.52h2.64v2.33h-8.35V17.52h2.64V2.74h-2.64V.41Z"/><path class="cls-1" d="M353.06.31l7.66,19.54h-3.41l-2-5.33h-7.95l-2,5.33H342L349.63.31Zm-.43,6.6c-.38-1-1.08-3.12-1.22-3.77h-.1c-.19.77-.74,2.45-1.23,3.77L348.21,12h6.27Z"/><path class="cls-1" d="M367.53.41v16.7h9.27v2.74H364.36V.41Z"/><path class="cls-1" d="M380.83,14.74a8.28,8.28,0,0,0,6.43,2.81c2.54,0,4-1,4-2.81s-1.06-2.69-4-3.55l-1.7-.51a13.4,13.4,0,0,1-3.41-1.46,4.2,4.2,0,0,1-2-3.63c0-3.5,2.57-5.54,6.94-5.54a11,11,0,0,1,6.53,2.18l-1.42,2.23a8,8,0,0,0-5.16-1.82c-2.31,0-3.67,1-3.67,2.64s.84,2.18,3.81,3.07l1.87.56c3.73,1.1,5.5,2.95,5.5,5.73A5.2,5.2,0,0,1,392.21,19a9.72,9.72,0,0,1-5.07,1.2,10.39,10.39,0,0,1-7.94-3.33Z"/></g></g></svg>