<svg xmlns="http://www.w3.org/2000/svg" xmlns:xlink="http://www.w3.org/1999/xlink" viewBox="0 0 333.43 30"><defs><style>.cls-1{fill:none;}.cls-2{clip-path:url(#clip-path);}.cls-3{fill:#ababab;}.cls-4{clip-path:url(#clip-path-2);}.cls-5{fill:#c00f52;}.cls-6{fill:#182b7b;}</style><clipPath id="clip-path"><rect class="cls-1" width="30" height="30"/></clipPath><clipPath id="clip-path-2"><circle class="cls-1" cx="15" cy="32.5" r="15"/></clipPath></defs><title>Asset 2</title><g id="Layer_2" data-name="Layer 2"><g id="ヘッダー_フッター" data-name="ヘッダー・フッター"><g class="cls-2"><path class="cls-3" d="M15,3A12,12,0,1,1,3,15,12,12,0,0,1,15,3m0-3A15,15,0,1,0,30,15,15,15,0,0,0,15,0Z"/><g class="cls-4"><path class="cls-5" d="M15,3A12,12,0,1,1,3,15,12,12,0,0,1,15,3m0-3A15,15,0,1,0,30,15,15,15,0,0,0,15,0Z"/></g></g><path class="cls-6" d="M51.86,3.66a11.69,11.69,0,0,1,5.69,1.2,6.45,6.45,0,0,1,3.33,5.74c0,5-3,7.42-9.18,7.42H47.44v8.32H43.86V3.66ZM47.44,15.11h3.81c4.14,0,5.77-1.23,5.77-4.39a3.79,3.79,0,0,0-1.63-3.25,7.27,7.27,0,0,0-3.75-.79h-4.2Z"/><path class="cls-6" d="M75,3.66c5.35,0,8.48,2.3,8.48,6.19a5.22,5.22,0,0,1-2.29,4.48,9.7,9.7,0,0,1-3.84,1.31v.09c2.52.78,3.81,2.52,7.87,10.61H80.87c-3.33-7.9-4.53-9.32-8.06-9.41H70.15v9.41H66.54V3.66ZM70.15,14.05H74c3.64,0,5.6-1.35,5.6-3.89,0-2.36-1.8-3.59-5.21-3.59h-4.2Z"/><path class="cls-6" d="M98.82,3.66V6.38H95.74V23.62h3.08v2.72H89.08V23.62h3.08V6.38H89.08V3.66Z"/><path class="cls-6" d="M106,3.66l4.9,13.5A37.15,37.15,0,0,1,112.37,22h.11A39.2,39.2,0,0,1,114,17.16l4.87-13.5h4.06l-8.9,23h-3.14l-8.93-23Z"/><path class="cls-6" d="M137.51,3.55l8.94,22.79h-4l-2.32-6.22h-9.27l-2.33,6.22h-4l8.93-22.79Zm-.5,7.7c-.45-1.23-1.26-3.64-1.43-4.4h-.11c-.22.9-.87,2.86-1.43,4.4l-2.18,6h7.31Z"/><path class="cls-6" d="M169.52,23.76A12,12,0,0,1,161,26.82c-6.77,0-11.39-4.76-11.39-11.76s4.7-11.88,11.2-11.88a11.63,11.63,0,0,1,8.06,2.94L167,8.73a8,8,0,0,0-6.11-2.44c-4.28,0-7.33,3.67-7.33,8.79a9.5,9.5,0,0,0,1.62,5.58,7.46,7.46,0,0,0,5.83,3A9.19,9.19,0,0,0,167.7,21Z"/><path class="cls-6" d="M176.94,3.66,182.79,13l5.85-9.35h4.51l-8.54,12.43V26.34H181V16.09L172.43,3.66Z"/><path class="cls-6" d="M217,3.66a11.65,11.65,0,0,1,5.68,1.2A6.45,6.45,0,0,1,226,10.6c0,5-3,7.42-9.18,7.42h-4.26v8.32H209V3.66Zm-4.43,11.45h3.81c4.15,0,5.77-1.23,5.77-4.39a3.81,3.81,0,0,0-1.62-3.25,7.31,7.31,0,0,0-3.76-.79h-4.2Z"/><path class="cls-6" d="M252.37,15c0,7-4.54,11.85-11.09,11.85S230.19,22,230.19,15s4.6-11.79,11.09-11.79S252.37,8.06,252.37,15Zm-18.29,0c0,5.18,2.92,8.71,7.2,8.71s7.2-3.53,7.2-8.71-2.94-8.73-7.2-8.73S234.08,9.79,234.08,14.94Z"/><path class="cls-6" d="M261.41,3.66V23.15h10.81v3.19h-14.5V3.66Z"/><path class="cls-6" d="M285.3,3.66V6.38h-3.08V23.62h3.08v2.72h-9.75V23.62h3.08V6.38h-3.08V3.66Z"/><path class="cls-6" d="M309.79,23.76a11.92,11.92,0,0,1-8.48,3.06c-6.77,0-11.39-4.76-11.39-11.76s4.7-11.88,11.2-11.88a11.63,11.63,0,0,1,8.06,2.94l-1.9,2.61a8,8,0,0,0-6.11-2.44c-4.28,0-7.34,3.67-7.34,8.79a9.43,9.43,0,0,0,1.63,5.58,7.46,7.46,0,0,0,5.82,3A9.22,9.22,0,0,0,308,21Z"/><path class="cls-6" d="M317.22,3.66,323.07,13l5.85-9.35h4.51l-8.54,12.43V26.34h-3.61V16.09L312.71,3.66Z"/></g></g></svg>