<svg xmlns="http://www.w3.org/2000/svg" viewBox="0 0 462.45 46.16"><defs><style>.cls-1{fill:#182b7b;}.cls-2{fill:#c10f52;}</style></defs><title>Asset 3</title><g id="Layer_2" data-name="Layer 2"><g id="デザイン"><path class="cls-1" d="M11.64,37a3,3,0,0,0,3.14-.85l8.4-9.28,7.61,9.68a3,3,0,0,0,2.37,1.15h.05a3,3,0,0,0,2.38-1.22l8.94-12.17c0-.37,0-.75,0-1.13a21.43,21.43,0,0,0-1.28-7.34L33.08,29.69l-7.37-9.38a3,3,0,0,0-4.61-.16l-6.4,7.08L11.81,4.72A21.83,21.83,0,0,0,6.34,9.47l3.21,25A3,3,0,0,0,11.64,37Z"/><path class="cls-1" d="M34.44,3.21l.16.09Z"/><path class="cls-1" d="M26.72.46l.76.14Z"/><path class="cls-1" d="M25.51.3c.25,0,.49.06.74.09C26,.35,25.76.32,25.51.3Z"/><path class="cls-1" d="M30.39,1.38l.34.11Z"/><path class="cls-1" d="M28,.7l.51.11Z"/><path class="cls-1" d="M31.31,1.71l.32.13Z"/><path class="cls-1" d="M32.22,2.08l.24.11Z"/><path class="cls-1" d="M29,.94l.46.13Z"/><path class="cls-1" d="M24.41.2l.7.06Z"/><path class="cls-1" d="M21.15.24l.46,0Z"/><path class="cls-1" d="M14.08,2l.56-.22Z"/><path class="cls-1" d="M12.42,2.74l.6-.31Z"/><path class="cls-1" d="M15.31,1.48l.58-.2Z"/><path class="cls-1" d="M23,.16l1,0Z"/><path class="cls-1" d="M11.61,3.17h0L11.89,3Z"/><path class="cls-1" d="M35.23,3.68l.09.06Z"/><path class="cls-1" d="M23,.16h0Z"/><path class="cls-1" d="M16.62,1.06l.54-.15Z"/><path class="cls-1" d="M19.73.39l.5-.06Z"/><path class="cls-1" d="M18.38.62l.4-.07Z"/><path class="cls-1" d="M24.09,1.61l.4,0Z"/><path class="cls-1" d="M23,1.58Z"/><path class="cls-1" d="M13.61,3.74l.19-.09Z"/><path class="cls-1" d="M26.27,1.83l.12,0Z"/><path class="cls-1" d="M25.19,1.69l.25,0Z"/><path class="cls-1" d="M42.87,14.76c.15.35.29.7.41,1.06h0a21.81,21.81,0,0,0-1.88-3.89A20.58,20.58,0,0,1,42.87,14.76Z"/><path class="cls-1" d="M12.69,4.21l.05,0Z"/><path class="cls-1" d="M37.31,5.15h0Z"/><path class="cls-2" d="M11.59,3.19v0l-.07-.54a3,3,0,1,0-6,.77l.53,4.16v0A23.06,23.06,0,0,1,11.59,3.19Z"/><path class="cls-1" d="M20.23.33c.31,0,.61-.07.92-.09C20.84.26,20.54.29,20.23.33Z"/><path class="cls-1" d="M37.31,5.16a23.06,23.06,0,0,1,7,9.29l-1,1.36A21.58,21.58,0,1,1,6.34,9.47v0A20.73,20.73,0,0,1,7.74,7.9a21.76,21.76,0,0,1,3.19-2.63c.29-.2.58-.38.87-.56l-.19-1.53h0l.19,1.52c-.29.18-.58.36-.87.56A21.76,21.76,0,0,0,7.72,7.9,20.73,20.73,0,0,0,6.31,9.45L6.07,7.59A23,23,0,1,0,37.31,5.16Z"/><path class="cls-1" d="M41.41,11.92c-.17-.28-.35-.55-.53-.82a21.84,21.84,0,0,0-2.63-3.2,22.38,22.38,0,0,0-3.2-2.63,21.39,21.39,0,0,0-8.66-3.42A21.62,21.62,0,0,1,41.41,11.92Z"/><path class="cls-1" d="M12.69,4.21c-.3.16-.6.32-.89.5h0C12.1,4.54,12.39,4.37,12.69,4.21Z"/><path class="cls-1" d="M21.61.2c.45,0,.9,0,1.35,0C22.51.16,22.06.18,21.61.2Z"/><path class="cls-1" d="M18.78.55l.95-.16Z"/><path class="cls-1" d="M14.64,1.73l.67-.25Z"/><path class="cls-1" d="M15.89,1.28l.73-.22Z"/><path class="cls-1" d="M13,2.43c.35-.17.7-.33,1.06-.48C13.72,2.1,13.37,2.26,13,2.43Z"/><path class="cls-1" d="M11.89,3c.17-.1.35-.19.53-.28C12.24,2.83,12.06,2.92,11.89,3Z"/><path class="cls-1" d="M17.16.91c.4-.11.81-.2,1.22-.29C18,.71,17.56.8,17.16.91Z"/><path class="cls-1" d="M23,.16Z"/><path class="cls-1" d="M25.11.26l.4,0Z"/><path class="cls-1" d="M23,1.58a21.38,21.38,0,0,0-8.4,1.7c-.26.11-.53.24-.79.37A21.47,21.47,0,0,1,23,1.58Z"/><path class="cls-1" d="M30.73,1.49l.58.22Z"/><path class="cls-1" d="M31.63,1.84l.59.24Z"/><path class="cls-1" d="M29.42,1.07l1,.31Z"/><path class="cls-1" d="M34.6,3.3l.63.38Z"/><path class="cls-1" d="M25.44,1.73l.83.1Z"/><path class="cls-1" d="M12.74,4.18l.87-.44Z"/><path class="cls-1" d="M32.46,2.19q1,.47,2,1Q33.48,2.66,32.46,2.19Z"/><path class="cls-1" d="M28.46.81l.5.13Z"/><path class="cls-1" d="M35.32,3.74c.69.44,1.35.91,2,1.41C36.67,4.65,36,4.18,35.32,3.74Z"/><path class="cls-1" d="M26.25.39l.47.07Z"/><path class="cls-1" d="M24.05.18l.36,0Z"/><path class="cls-1" d="M24.49,1.64l.7.05Z"/><path class="cls-1" d="M27.48.6,28,.7Z"/><path class="cls-1" d="M23.3,1.59l.79,0Z"/><path class="cls-1" d="M11.81,4.72h0c-.29.18-.58.36-.87.56A21.76,21.76,0,0,0,7.74,7.9,20.73,20.73,0,0,0,6.33,9.45v0A21.83,21.83,0,0,1,11.81,4.72Z"/><path class="cls-1" d="M12.69,4.21l.05,0,.87-.44.19-.09c.26-.13.53-.26.79-.37A21.38,21.38,0,0,1,23,1.58h.31l.79,0,.4,0,.7.05.25,0,.83.1.12,0a21.39,21.39,0,0,1,8.66,3.42,22.38,22.38,0,0,1,3.2,2.63,21.84,21.84,0,0,1,2.63,3.2c.18.27.36.54.53.82a21.81,21.81,0,0,1,1.88,3.89l1-1.36a23.06,23.06,0,0,0-7-9.29h0c-.64-.5-1.3-1-2-1.41l-.09-.06L34.6,3.3l-.16-.09q-1-.56-2-1l-.24-.11-.59-.24-.32-.13-.58-.22-.34-.11-1-.31L29,.94l-.5-.13L28,.7,27.48.6,26.72.46,26.25.39c-.25,0-.49-.07-.74-.09l-.4,0L24.41.2l-.36,0-1,0H23c-.45,0-.9,0-1.35,0l-.46,0c-.31,0-.61,0-.92.09l-.5.06-.95.16-.4.07c-.41.09-.82.18-1.22.29l-.54.15-.73.22-.58.2-.67.25L14.08,2c-.36.15-.71.31-1.06.48l-.6.31c-.18.09-.36.18-.53.28l-.28.16.19,1.53C12.09,4.53,12.39,4.37,12.69,4.21Z"/><path class="cls-1" d="M7.72,7.9a21.76,21.76,0,0,1,3.19-2.63c.29-.2.58-.38.87-.56l-.19-1.52a23.06,23.06,0,0,0-5.52,4.4l.24,1.86A20.73,20.73,0,0,1,7.72,7.9Z"/></g><g id="テキスト"><path d="M58.67,23.75a20.89,20.89,0,0,1-1.75,2.92l-1.76-1.76A21.2,21.2,0,0,0,57.3,21,19,19,0,0,0,58.63,17H56V14.57h2.66V10.14h3v4.43h1.65V17H61.64v1.74a16.51,16.51,0,0,0,2.27,2.1l-1.08,2.4a8.91,8.91,0,0,1-1.19-1.12v9.35h-3ZM69.2,25.42a21.11,21.11,0,0,1-5,4.83l-1.74-2.11A25.08,25.08,0,0,0,65.73,25a20.78,20.78,0,0,0,2.51-3.38H64V18.8h5.16V16.21H67a9.56,9.56,0,0,1-1.46,2.49l-2.41-1.22a16.16,16.16,0,0,0,1.51-3.29,16.81,16.81,0,0,0,.87-3.69l3,.26a19.83,19.83,0,0,1-.54,2.7h1.19V10.05h3.22v3.41H77.2v2.75H72.38V18.8H77.8v2.8H73.27a23.27,23.27,0,0,0,1.92,2.65,31.11,31.11,0,0,0,3.62,3.5l-2.07,2.57a25.53,25.53,0,0,1-4.43-5.12v6.05H69.2Z"/><path d="M102,16.9H95.37a36.83,36.83,0,0,0,.41,4.1,17.5,17.5,0,0,0,.78,3.17A10.54,10.54,0,0,0,97.7,26.5a4.81,4.81,0,0,0,.82,1.05.71.71,0,0,0,.32.11.39.39,0,0,0,.41-.38c0-.25.12-1.57.25-4l2.63.55q-.12,3.16-.3,4.8a3.27,3.27,0,0,1-.78,2.15,2.47,2.47,0,0,1-1.68.53,3.49,3.49,0,0,1-1.92-.55,9.11,9.11,0,0,1-2.14-2.2,13.48,13.48,0,0,1-2-4.09,36.22,36.22,0,0,1-1.15-7.62H80V14.24H92c0-.4,0-1,0-1.67V10H95.3v4.23H98q-.8-1.05-2.34-2.91l2.4-1.39a39,39,0,0,1,3,3.48l-1.27.82H102Zm-8.77,9.62,0,2.77c-.54.15-2.45.42-5.72.79s-5.58.62-6.93.72L80,27.87c1-.05,2.61-.17,4.9-.38V21.43H81V18.75H91.64v2.68H88.16v5.75C90.8,26.89,92.48,26.68,93.18,26.52Z"/><path d="M121.57,19.78h-13V18.45a24.66,24.66,0,0,1-3.94,2.05L103.09,18a26.08,26.08,0,0,0,5.74-3.4,16.24,16.24,0,0,0,4.41-4.42h3.18a24.59,24.59,0,0,0,10.44,7.44l-1.71,2.76a24.59,24.59,0,0,1-3.58-1.81Zm-.48,10.36q-5.57.62-15.73,1.14l-.51-2.89,3.06-.1a44.44,44.44,0,0,0,2.31-3.9h-5.66V21.57h20.83v2.82h-4.82a41.81,41.81,0,0,1,4.87,5.79l-3.5,1.31A11.73,11.73,0,0,0,121.09,30.14ZM110.61,17.06h8.69a22.83,22.83,0,0,1-4.35-4A22.64,22.64,0,0,1,110.61,17.06Zm1.17,11.05c3.08-.16,5.54-.33,7.36-.5-.77-.94-1.45-1.73-2-2.38l1.55-.84H114C113.32,25.66,112.57,26.9,111.78,28.11Z"/><path d="M134.13,31.39h-3v-8a20.77,20.77,0,0,1-2.63,1.91l-1.31-2.21a17.53,17.53,0,0,0,3.83-3.32,14.52,14.52,0,0,0,2.54-4h-5.32V13.23h2.94v-3h3v3H137l.62.64A18.85,18.85,0,0,1,134.44,20a40,40,0,0,0,3.74,2.91l-1.49,2.52c-.94-.73-1.8-1.45-2.56-2.16Zm16.41-.69H136V27.84h5.75v-8.9h-4.6V16.18h4.6V10.35h3.35v5.83h4.8v2.76h-4.8v8.9h5.42Z"/><path d="M164.54,23.78a22.48,22.48,0,0,1-3.46,4l-1.92-1.95a19.75,19.75,0,0,0,2.69-3.07A21.68,21.68,0,0,0,164.08,19h-4V16.32h4.45V14.09c-1.6.26-2.84.43-3.74.5L160.25,12c1.54-.15,3.24-.4,5.11-.76a26.66,26.66,0,0,0,4.37-1.16L171,12.57a30.35,30.35,0,0,1-3.39.92v2.83h3.13V19h-3.13v.3a29.44,29.44,0,0,0,3.53,3.18L169.62,25a22.86,22.86,0,0,1-2-1.79v8.15h-3.11Zm13.55,5.72h-3.43v1.25H171.4V12h10v18.8h-3.27ZM174.66,27h3.43V14.5h-3.43Z"/><path d="M201.5,30.05H188.37v1.18h-3.48V11.52H205V31.23H201.5Zm-8.25-15.76h-4.88v4.85h4.88Zm-4.88,13h4.88V21.89h-4.88Zm13.13-8.11V14.29h-4.9v4.85Zm-4.9,8.11h4.9V21.89h-4.9Z"/><path d="M229.91,30.46H208V27.53h9.07V14.77h-8.18V11.93H229v2.84h-8.45V27.53h9.34Z"/><path d="M241.27,27.4A27.49,27.49,0,0,1,232.12,31l-.86-2.34a29.51,29.51,0,0,0,7.21-2.6h-6.42V23.86h9.22v-1.1h-8V20.67h8v-1.1h-8.36V17.33h4.39L236.77,16h-4.41V13.73H235L233.83,11l2.8-.7,1.5,3.41h1.07V10H242v3.72h1.78V10h2.8v3.72h1.21l1.49-3.43,2.93.69-1.44,2.74h2.82V16h-4.53l-.81,1.35h4.81v2.24h-8.66v1.1h8.07v2.09h-8.07v1.1h9.34v2.23h-6.38a31.05,31.05,0,0,0,7.19,2.35l-1.22,2.61a25.36,25.36,0,0,1-8.93-3.85v4.19h-3.16ZM239.79,16l.54,1.35h4.9l.7-1.35Z"/><path d="M280.74,17.25l-3.09,11h-1.23l-2.51-9.17-2.5,9.17h-1.19l-3.13-11h1.4l2.43,8.86,2.39-8.86h1.28l2.4,8.94,2.42-8.94Z"/><path d="M290,28.29l-1.13-3.15h-4.79l-1.14,3.15h-1.38l4.09-11h1.73l4.08,11ZM288.46,24l-2-5.45-2,5.45Z"/><path d="M293,28.29v-11h2.66a9.09,9.09,0,0,1,3.66.61,4.82,4.82,0,0,1,2.11,1.86,5.74,5.74,0,0,1,.77,3.06,5.65,5.65,0,0,1-1.46,3.89q-1.47,1.62-5.05,1.62Zm1.36-9.88v8.72h1.42a5.44,5.44,0,0,0,3.8-1.1,4.27,4.27,0,0,0,1.19-3.27,4.22,4.22,0,0,0-1.2-3.2,5.31,5.31,0,0,0-3.79-1.15Z"/><path d="M311.4,28.29l-1.14-3.15h-4.79l-1.13,3.15H303l4.09-11h1.74l4.08,11ZM309.85,24l-2-5.45-2,5.45Z"/><path d="M323.23,28.29H319v-1h1.45v-9H319v-1h4.25v1h-1.44v9h1.44Z"/><path d="M333.9,28.29h-1.58l-5.56-9.58v9.58h-1.27v-11h1.89l5.25,9.06V17.25h1.27Z"/><path d="M336.61,28.29v-11h2.66a9.09,9.09,0,0,1,3.66.61,4.74,4.74,0,0,1,2.1,1.86,5.66,5.66,0,0,1,.78,3.06,5.65,5.65,0,0,1-1.46,3.89q-1.47,1.62-5.05,1.62ZM338,18.41v8.72h1.42a5.44,5.44,0,0,0,3.8-1.1,4.27,4.27,0,0,0,1.19-3.27,4.22,4.22,0,0,0-1.2-3.2,5.31,5.31,0,0,0-3.79-1.15Z"/><path d="M356.19,23.91a4.81,4.81,0,0,1-1.1,3.5A4.19,4.19,0,0,1,352,28.52q-4.24,0-4.24-4.61V17.25h1.36V24a3.75,3.75,0,0,0,.71,2.55,3.4,3.4,0,0,0,4.32,0,3.63,3.63,0,0,0,.72-2.53V17.25h1.37Z"/><path d="M362.16,28.49a9.58,9.58,0,0,1-3.91-.92V25.9h.1a5.7,5.7,0,0,0,3.82,1.44,3.49,3.49,0,0,0,2.07-.54,1.83,1.83,0,0,0,.43-2.51,2.08,2.08,0,0,0-1.11-.61l-2.46-.5a3.9,3.9,0,0,1-2.08-1,2.94,2.94,0,0,1,.4-4.2,4.4,4.4,0,0,1,2.86-.88,9.11,9.11,0,0,1,3.69.81v1.6h-.1a5.46,5.46,0,0,0-3.59-1.26,3,3,0,0,0-1.84.5,1.56,1.56,0,0,0-.7,1.33c0,.91.53,1.5,1.59,1.76.62.11,1.3.25,2.06.42a6.73,6.73,0,0,1,1.62.53,2.81,2.81,0,0,1,.79.63,2.39,2.39,0,0,1,.45.79,3.12,3.12,0,0,1,.15,1,3,3,0,0,1-1.16,2.38A4.76,4.76,0,0,1,362.16,28.49Z"/><path d="M371,28.29V18.44h-3.91V17.25h9.2v1.19h-3.92v9.85Z"/><path d="M386.85,28.29h-1.78l-3.63-4.44h-2.25v4.44h-1.36v-11H381a4.78,4.78,0,0,1,3.15.83,2.76,2.76,0,0,1,.95,2.18,3.26,3.26,0,0,1-2.24,3.2Zm-7.66-9.88v4.32h1.6a3.14,3.14,0,0,0,2.18-.61,2.34,2.34,0,0,0,.66-1.8c0-1.27-.86-1.91-2.59-1.91Z"/><path d="M396.15,17.25l-4,6.47v4.57h-1.36V23.87l-4-6.62h1.51l3.21,5.31,3.23-5.31Z"/><path d="M407.24,28.49a5,5,0,0,1-3.88-1.5,5.88,5.88,0,0,1-1.4-4.21,5.91,5.91,0,0,1,1.42-4.19,5,5,0,0,1,3.86-1.53,8,8,0,0,1,3.65,1v1.61h-.1a5.59,5.59,0,0,0-3.63-1.44,3.42,3.42,0,0,0-2.77,1.21,5.07,5.07,0,0,0-1,3.36,5,5,0,0,0,1,3.35,3.46,3.46,0,0,0,2.76,1.2,5.47,5.47,0,0,0,1.77-.29,6.07,6.07,0,0,0,1.85-1.17h.1v1.62a11.17,11.17,0,0,1-2.19.83A7.13,7.13,0,0,1,407.24,28.49Z"/><path d="M415.81,28.52A3.54,3.54,0,0,1,413,27.35a4.68,4.68,0,0,1-1-3.19,4.68,4.68,0,0,1,1-3.2,3.89,3.89,0,0,1,5.57,0,4.72,4.72,0,0,1,1,3.21,4.65,4.65,0,0,1-1,3.2A3.56,3.56,0,0,1,415.81,28.52Zm0-7.64a2.19,2.19,0,0,0-1.84.84,4,4,0,0,0-.64,2.44,3.92,3.92,0,0,0,.64,2.42,2.44,2.44,0,0,0,3.68,0,3.92,3.92,0,0,0,.64-2.42C418.29,22,417.47,20.88,415.81,20.88Z"/><path d="M423.71,28.29h-1.66v-2h1.66Z"/><path d="M429.56,26.29,427.49,31h-1l1.29-4.71Z"/><path d="M444.07,28.29h-6.88v-11h1.36V27.1h5.52Z"/><path d="M448.05,28.45c-1.71,0-2.57-.94-2.57-2.82V21.07h-.94V20h.95V17.63h1.28V20h2.9v1.06h-2.9V24.9a4.91,4.91,0,0,0,.18,1.69,1.15,1.15,0,0,0,.55.56,2.08,2.08,0,0,0,.93.18,3.34,3.34,0,0,0,1.2-.26h0v1.17A6.93,6.93,0,0,1,448.05,28.45Z"/><path d="M456.46,28.29v-.91a4.4,4.4,0,0,1-2.74,1.14,2.79,2.79,0,0,1-2.33-1.15,5.11,5.11,0,0,1-.87-3.14A4.77,4.77,0,0,1,451.57,21a3.25,3.25,0,0,1,2.58-1.24,5,5,0,0,1,2.31.65V16.76h1.29V28.29Zm0-2v-4.9a4.91,4.91,0,0,0-2-.5,2.27,2.27,0,0,0-1.89.85,3.73,3.73,0,0,0-.69,2.4c0,2.08.75,3.12,2.24,3.12A3.57,3.57,0,0,0,456.46,26.33Z"/><path d="M462.45,28.29h-1.67v-2h1.67Z"/></g></g></svg>