<svg xmlns="http://www.w3.org/2000/svg" viewBox="0 0 246.89 59.88"><defs><style>.cls-1{fill:none;stroke:#c3c3c3;stroke-miterlimit:10;}.cls-2{fill:#182b7b;}</style></defs><title>Asset 4</title><g id="Layer_2" data-name="Layer 2"><g id="デザイン"><line class="cls-1" x1="33.66" y1="59.38" x2="213.66" y2="59.38"/></g><g id="テキスト"><path class="cls-2" d="M6.48,29.77h-3V14.51c-.65,1.21-1.24,2.14-2.08,3.41L0,14.51C2.33,11,3.88,6.82,5.4,0L8.53.78a69.8,69.8,0,0,1-2,6.91Zm22.32,0h-3V28H12.28v1.8h-3v-28H28.8ZM12.28,25.18H25.83V4.5H12.28ZM23.91,14.39v8.77h-9.8V14.39h3.47v-3H13V8.81h4.62V5.33h2.73V8.81h4.84v2.54H20.31v3Zm-7.32,2.29v4.13h4.83V16.68Z"/><path class="cls-2" d="M47.87,4.9c-.1,8.65,5.05,17,13.05,21.33l-2.11,3.26A29.46,29.46,0,0,1,46.32,13.61,25.59,25.59,0,0,1,34,29.73l-2.33-2.88c8-3.81,12.74-12,12.59-21.73V.62h3.63Z"/><path class="cls-2" d="M61.81,16.12a47.37,47.37,0,0,0,1-7.9l.09-1.49L65.44,7a53.57,53.57,0,0,1-1,10.51Zm7.45,13.65H66.09V.31h3.17V4.9l1.45-1.21a25.06,25.06,0,0,1,2.08,4.4l-2.05,2.05a31.7,31.7,0,0,0-1.48-4.06ZM91.05,2.33V4.59H83.21V6.05H90V8.22H83.21V9.71H92v2.41H71.64V9.71h8.44V8.22H73.5V6.05h6.58V4.59H72.6V2.33h7.48v-2h3.13v2ZM89.5,27c0,1.89-.8,2.63-2.88,2.63a31.61,31.61,0,0,1-3.85-.25l-.43-2.72a30,30,0,0,0,3.19.24c.65,0,.81-.15.81-.86v-2H77v5.65H73.88v-16H89.5ZM77,17.74h9.3V16H77Zm0,4.09h9.3V20H77Z"/><path class="cls-2" d="M99.51.31h3.16V3.47h4.72V6.14h-4.72v2.6H108v2.7h-1.8a26.87,26.87,0,0,1-1.3,3.81h2.91v2.64h-5.18v2.79h5v2.7h-5v6.39H99.51V23.38H94.18v-2.7h5.33V17.89H93.93V15.25h2.79a31.6,31.6,0,0,0-1.18-3.81H93.31V8.74h6.2V6.14H94.58V3.47h4.93ZM98.46,11.44a39.37,39.37,0,0,1,1.11,3.81h2.51a21.27,21.27,0,0,0,1.21-3.81ZM121.65,8.5c0,1.95-.65,2.51-2.88,2.51-1.12,0-2.42-.06-3.57-.16l-.53-2.73c1.68.19,2.7.28,3.2.28s.71-.15.71-.62V4.12h-6.64v8.81h8.59l1.8,1.55a24.49,24.49,0,0,1-3.13,8.9,18,18,0,0,0,4.15,3.5l-1.7,2.82A17.71,17.71,0,0,1,117.4,26a26.57,26.57,0,0,1-3.66,3.88l-1.8-2.48v2.36h-3.06V1.4h12.77Zm-9.71,18.6a15.71,15.71,0,0,0,3.6-3.57,24.12,24.12,0,0,1-3.25-7.87h-.35Zm3.14-11.44a18.29,18.29,0,0,0,2.14,5.18A15.9,15.9,0,0,0,119,15.66Z"/><path class="cls-2" d="M131.07,29.77h-3.29v-15c-.74,1.18-1.3,2-2.23,3.32L124,14.67c2.67-3.48,4.71-8.07,6.51-14.58l3.2.87a62.64,62.64,0,0,1-2.64,7.44Zm14.85-12A25.16,25.16,0,0,0,154.2,25l-1.89,2.79A26,26,0,0,1,144.56,20v9.74h-3.17V20.15a23.36,23.36,0,0,1-7.28,8.16L132,25.77a22.85,22.85,0,0,0,8-8h-7.44V15h8.83V11.69H134.7V1.4h16.71V11.69h-6.85V15h9.18v2.76Zm-8-8.75h10.36v-5H137.89Z"/><path class="cls-2" d="M165.82,5.86V8.59H155.31V5.86Zm-.49,21.43A30.5,30.5,0,0,0,173,25.64a20.76,20.76,0,0,1-4-3.28h-2.42V20h15.79l1.39,1.3a22.11,22.11,0,0,1-5.11,4.25,39.18,39.18,0,0,0,6.79,1.55l-1.71,2.73a34.72,34.72,0,0,1-8-2.7,34.17,34.17,0,0,1-9.3,2.95l-1.12-1.89h-6.38v1.55h-2.86V19.35h9.28Zm-.44-25.86V4h-8.4V1.43Zm0,9.08V13h-8.4V10.51Zm0,4.44v2.44h-8.4V15Zm-6,10.69h3.59V22h-3.59Zm18.26-14.91h5.7V12.4h-5.7v1.4h5.7v1.61h-5.7v1.43h7.29v1.95H167.37V12.4c-.49.53-.65.72-1.18,1.24L165,11.1a14.24,14.24,0,0,0,3.69-5.64l1.09.25v-.9h-3.85V2.48h3.85V.31h2.94V2.48h4.19V.31h3.07V2.48h4.74V4.81h-4.74V6.26h-1.86a10.64,10.64,0,0,1-.68,1.24H184V9.36h-6.85Zm-7-1.37v1.37h4.16V9.36Zm0,3v1.4h4.16V12.4Zm0,3v1.43h4.16V15.41Zm4.25-7.91a17.87,17.87,0,0,0,.84-2l1.58.22V4.81h-4.19V6.26h-1.39c-.22.47-.37.84-.56,1.24Zm-2,14.86a16.67,16.67,0,0,0,3.28,2.07,17.51,17.51,0,0,0,3.2-2.07Z"/><path class="cls-2" d="M200.36,8.46c-.1,2.21-.13,2.92-.31,4.47h12.21c-.12,6.82-.56,11.53-1.18,13.61s-1.89,2.67-4.83,2.67a46.73,46.73,0,0,1-4.72-.31L201,25.49a36.62,36.62,0,0,0,5,.49c1.18,0,1.52-.28,1.8-1.52a51.79,51.79,0,0,0,.86-8.52h-9a18.22,18.22,0,0,1-9.86,13.48l-2.39-2.66a15.9,15.9,0,0,0,7.85-8.09c.93-2.48,1.43-5.59,1.64-10.21h-10V5.36h12.37V.31h3.5V5.36h12.78v3.1Z"/><path class="cls-2" d="M230.61,10.42h-3.87v3.35h5v-2.7h6V.31h3.35V11.07h5.8v3.1h-5.8v15.6h-3.35V14.17H232V16.4h-5.3v8.37l.65-.15c1.89-.44,3.16-.78,5.36-1.4l.25,2.61a102.92,102.92,0,0,1-14.33,3.72l-1.24-2.95c1.83-.28,3.79-.62,6-1.08a.77.77,0,0,1,.25,0V16.4h-5.93V13.77h5.93V10.42h-3.38c-.47.43-.78.74-1.59,1.42l-1.55-2.76A24.58,24.58,0,0,0,223.6.31H227a39.42,39.42,0,0,1,5.74,6.45L230.61,8.9ZM219.88,24.59a26.1,26.1,0,0,0-1.7-5.92l2.76-.9a25.37,25.37,0,0,1,1.8,5.86Zm9.89-16.75A51.52,51.52,0,0,0,226,3.26L225.71,3a31.76,31.76,0,0,1-3.13,4.89ZM227.2,22.73a33.69,33.69,0,0,0,1.61-5.43l2.82.75a28.86,28.86,0,0,1-1.86,5.3Z"/></g></g></svg>