<svg xmlns="http://www.w3.org/2000/svg" xmlns:xlink="http://www.w3.org/1999/xlink" viewBox="0 0 249.88 30"><defs><style>.cls-1{fill:none;}.cls-2{clip-path:url(#clip-path);}.cls-3{fill:#ababab;}.cls-4{clip-path:url(#clip-path-2);}.cls-5{fill:#c00f52;}.cls-6{fill:#182b7b;}</style><clipPath id="clip-path" transform="translate(0 0)"><rect class="cls-1" width="30" height="30"/></clipPath><clipPath id="clip-path-2" transform="translate(0 0)"><circle class="cls-1" cx="15" cy="32.5" r="15"/></clipPath></defs><title>Asset 1</title><g id="Layer_2" data-name="Layer 2"><g id="デザイン"><g class="cls-2"><path class="cls-3" d="M15,3A12,12,0,1,1,3,15,12,12,0,0,1,15,3m0-3A15,15,0,1,0,30,15,15,15,0,0,0,15,0Z" transform="translate(0 0)"/><g class="cls-4"><path class="cls-5" d="M15,3A12,12,0,1,1,3,15,12,12,0,0,1,15,3m0-3A15,15,0,1,0,30,15,15,15,0,0,0,15,0Z" transform="translate(0 0)"/></g></g></g><g id="テキスト"><path class="cls-6" d="M48.76,9.94a8.32,8.32,0,0,1,4.06.86,4.6,4.6,0,0,1,2.38,4.1c0,3.54-2.16,5.3-6.56,5.3h-3v5.94H43V9.94ZM45.6,18.12h2.72c3,0,4.12-.88,4.12-3.14a2.72,2.72,0,0,0-1.16-2.32,5.25,5.25,0,0,0-2.68-.56h-3Z" transform="translate(0 0)"/><path class="cls-6" d="M65.3,9.94c3.82,0,6.06,1.64,6.06,4.42a3.72,3.72,0,0,1-1.64,3.2A6.83,6.83,0,0,1,67,18.5v.06c1.8.56,2.72,1.8,5.62,7.58H69.48c-2.38-5.64-3.24-6.66-5.76-6.72h-1.9v6.72H59.24V9.94Zm-3.48,7.42h2.72c2.6,0,4-1,4-2.78S67.26,12,64.82,12h-3Z" transform="translate(0 0)"/><path class="cls-6" d="M82.3,9.94v1.94H80.1V24.2h2.2v1.94h-7V24.2h2.2V11.88h-2.2V9.94Z" transform="translate(0 0)"/><path class="cls-6" d="M87.42,9.94l3.5,9.64A26.55,26.55,0,0,1,92,23h.08a28.94,28.94,0,0,1,1.06-3.44L96.6,9.94h2.9L93.14,26.36H90.9L84.52,9.94Z" transform="translate(0 0)"/><path class="cls-6" d="M109.94,9.86l6.38,16.28h-2.84l-1.66-4.44H105.2l-1.66,4.44H100.7l6.38-16.28Zm-.36,5.5c-.32-.88-.9-2.6-1-3.14h-.08c-.16.64-.62,2-1,3.14l-1.56,4.26h5.22Z" transform="translate(0 0)"/><path class="cls-6" d="M132.8,24.3a8.55,8.55,0,0,1-6.06,2.18c-4.84,0-8.14-3.4-8.14-8.4s3.36-8.48,8-8.48a8.3,8.3,0,0,1,5.76,2.1L131,13.56a5.73,5.73,0,0,0-4.36-1.74c-3.06,0-5.24,2.62-5.24,6.28a6.75,6.75,0,0,0,1.16,4,5.32,5.32,0,0,0,4.16,2.12,6.58,6.58,0,0,0,4.78-1.86Z" transform="translate(0 0)"/><path class="cls-6" d="M138.1,9.94l4.18,6.68,4.18-6.68h3.22l-6.1,8.88v7.32H141V18.82l-6.12-8.88Z" transform="translate(0 0)"/><path class="cls-6" d="M166.7,9.94a8.32,8.32,0,0,1,4.06.86,4.6,4.6,0,0,1,2.38,4.1c0,3.54-2.16,5.3-6.56,5.3h-3v5.94H161V9.94Zm-3.16,8.18h2.72c3,0,4.12-.88,4.12-3.14a2.72,2.72,0,0,0-1.16-2.32,5.25,5.25,0,0,0-2.68-.56h-3Z" transform="translate(0 0)"/><path class="cls-6" d="M192,18c0,5-3.24,8.46-7.92,8.46S176.14,23,176.14,18s3.28-8.42,7.92-8.42S192,13.08,192,18Zm-13.06,0c0,3.7,2.08,6.22,5.14,6.22S189.2,21.7,189.2,18s-2.1-6.24-5.14-6.24S178.92,14.32,178.92,18Z" transform="translate(0 0)"/><path class="cls-6" d="M198.44,9.94V23.86h7.72v2.28H195.8V9.94Z" transform="translate(0 0)"/><path class="cls-6" d="M215.5,9.94v1.94h-2.2V24.2h2.2v1.94h-7V24.2h2.2V11.88h-2.2V9.94Z" transform="translate(0 0)"/><path class="cls-6" d="M233,24.3a8.55,8.55,0,0,1-6.06,2.18c-4.84,0-8.14-3.4-8.14-8.4s3.36-8.48,8-8.48a8.3,8.3,0,0,1,5.76,2.1l-1.36,1.86a5.73,5.73,0,0,0-4.36-1.74c-3.06,0-5.24,2.62-5.24,6.28a6.75,6.75,0,0,0,1.16,4,5.32,5.32,0,0,0,4.16,2.12,6.58,6.58,0,0,0,4.78-1.86Z" transform="translate(0 0)"/><path class="cls-6" d="M238.3,9.94l4.18,6.68,4.18-6.68h3.22l-6.1,8.88v7.32H241.2V18.82l-6.12-8.88Z" transform="translate(0 0)"/></g></g></svg>