<svg xmlns="http://www.w3.org/2000/svg" viewBox="0 0 522.78 33.32"><defs><style>.cls-1{fill:#182b7b;}</style></defs><title>rec_img02</title><g id="Layer_2" data-name="Layer 2"><g id="テキスト"><path class="cls-1" d="M4.76,2.21H8.47V8.5h5.37V.65h3.74V8.5h5.84V1.29H27.1V8.5h5.2v3.3H27.1V22.37H13.84V11.8H8.47V27.37H30.83v3.3H8.47v2.27H4.76V11.8H0V8.5H4.76ZM17.58,11.8v7.37h5.84V11.8Z"/><path class="cls-1" d="M57,16.45a34.09,34.09,0,0,0,9.86,3.95L64.9,23.59a36.18,36.18,0,0,1-7.27-3.23V32.94H53.79V19.34H56a22.57,22.57,0,0,1-4-3.29H48.21a19.78,19.78,0,0,1-3.81,3.6h2.11v1.73c0,6.57-2,9.79-7.55,11.94l-2.34-2.79c4.55-1.7,6.15-4,6.15-8.64V20.77A32.6,32.6,0,0,1,35.56,24l-2-2.86c4.66-1.22,8-2.86,10.54-5.13H37.88V1.84H62.42V16.05H56.37ZM41.45,7.62h6.93v-3H41.45Zm0,5.6h6.93v-3H41.45Zm17.44-8.6H51.68v3h7.21Zm0,5.61H51.68v3h7.21Z"/><path class="cls-1" d="M79.83,5.3c1.09-1.73,1.67-2.72,2.25-3.8l3.7.54C85.27,2.92,85.24,3,84,5l-.2.34H95.5V8.57H81.6a60.23,60.23,0,0,1-4.15,5.2,11.06,11.06,0,0,1,5.71-1.87c2.72,0,4.42,1.32,5.27,4,2.55-.82,6.5-2.11,8.67-2.79l1.43,3.23-.58.17L96.29,17c-3.1.85-5.51,1.53-7.42,2.15.14,1.63.24,3.09.28,5.57l-3.64.21c0-1.77,0-2.42-.07-4.29v-.34c-5.06,1.74-7.65,3.5-7.65,5.27s2.25,2.31,8.67,2.31A91.3,91.3,0,0,0,96,27.33l.41,3.54c-3.54.27-6.16.37-9.83.37-4.55,0-7.24-.27-9.14-.95-2.18-.81-3.3-2.28-3.3-4.32,0-2.61,1.63-4.62,5.37-6.56A40.42,40.42,0,0,1,85,17.07c-.44-1.7-1.12-2.35-2.52-2.35-2.48,0-6.59,2.21-10.71,5.81L69.56,18a50.37,50.37,0,0,0,8.1-9.45H70.89V5.3Z"/><path class="cls-1" d="M133.52,5.41v3.4H108.26v5.26c0,9.93-.79,14.59-3.23,18.67l-3-2.82c1.9-3.34,2.48-7.11,2.48-15.85V5.41h12.44V.65h3.85V5.41ZM111,27.67l.06-.2a112.09,112.09,0,0,0,6.26-17l3.84.88a114.48,114.48,0,0,1-6.32,16.19l3.57-.31c3.91-.3,5.37-.47,9-1-1.6-3.06-2.55-4.73-3.91-6.94l3.23-1.56a92.21,92.21,0,0,1,7.14,12.81l-3.4,2.18c-.51-1.16-.71-1.6-1-2.21-.2-.44-.4-.92-.64-1.36-5.31,1-12.58,1.9-20.4,2.51l-1.29-3.63c.68,0,1.94-.1,3.7-.21Z"/><path class="cls-1" d="M139.26,31.11a101.56,101.56,0,0,1-.81-13.67A120.84,120.84,0,0,1,139.37,2l3.6.34a122.72,122.72,0,0,0-.85,15,94,94,0,0,0,.78,13.3ZM159.53,2l.71,7.24H167v3.37h-6.49l.07,3,0,1.19c0,8.78-2.1,12.51-8.7,15.37l-2.24-2.86c5.57-2.51,7.24-5.43,7.24-12.68l0-1.19-.06-2.85H145.89V9.21h10.78L156.53,2Zm3.26,5.75a24.85,24.85,0,0,0-2.38-5.58l2.35-.64A27.66,27.66,0,0,1,165.27,7Zm3.84-1.33A20.37,20.37,0,0,0,164.08.75l2.45-.61a20.57,20.57,0,0,1,2.58,5.54Z"/><path class="cls-1" d="M194.07,2.48l1.77,2.76c-5.71,3.46-11.09,6.93-15,9.58a20.27,20.27,0,0,1,8.23-1.7c6.8,0,11,3.37,11,8.77a8.7,8.7,0,0,1-5.21,8,22.92,22.92,0,0,1-9.31,1.83c-5.71,0-8.87-2-8.87-5.54,0-3,2.89-5.3,6.59-5.3,4.08,0,6.83,2.41,7.89,7,3.4-1.09,5.1-3.13,5.1-6,0-3.7-2.82-6-7.48-6a22.48,22.48,0,0,0-9,1.7,37.13,37.13,0,0,0-5.54,3.64L172,18.46A135.52,135.52,0,0,1,189.68,5.75H175.44V2.48ZM183.39,23.87c-1.76,0-3.16,1.05-3.16,2.41,0,1.53,2,2.41,5.48,2.41a21.84,21.84,0,0,0,2.31-.13C187.24,25.4,185.74,23.87,183.39,23.87Z"/><path class="cls-1" d="M212.4,32.4a60.35,60.35,0,0,0-6.94-8.3l2.69-2.38a54.88,54.88,0,0,1,7.07,8.13Z"/><path class="cls-1" d="M253.74,30.19a14.91,14.91,0,0,0,5.92-3,20.86,20.86,0,0,1-3.81-6.32h-1.43V18.19h12.82l1.63,1.43a25.89,25.89,0,0,1-4.52,7.51,22.21,22.21,0,0,0,6.08,2.72l-2,3A22.12,22.12,0,0,1,262,29.41a21,21,0,0,1-6.63,3.7l-1.63-2.44v2.27h-3.43v-3.7c-2.86.57-7.38,1.25-11.66,1.7l-.92-3.06c1.63-.07,2.34-.11,3.74-.24V16.35H238V13.6h32.3v2.75H253.74Zm12.85-18.43H241.74V1.36h24.85Zm-21.72,4.59v2h5.44v-2Zm0,4.22v2h5.44v-2Zm0,4.21v2.55L247,27.1l2.31-.24,1-.14V24.78Zm.58-19.34h17.44V3.74H245.45Zm0,4.11h17.44V7.62H245.45Zm13.46,11.29a15.65,15.65,0,0,0,2.92,4.22,18.47,18.47,0,0,0,2.72-4.22Z"/><path class="cls-1" d="M303.58,3.33V6.12H272.71V3.33h13.5V.65h3.64V3.33ZM283.8,29.51v1.36h-3.4V21.66h15.13v7.71c.64.07,1.66.14,2.38.14.95,0,1.15-.17,1.15-1V20H277.24v13h-3.68V17.27h29.17V29.65c0,2.1-1.05,3-3.5,3-1,0-2.28-.07-4-.21l-.68-2.92Zm15-14H277.54V7.89h21.22Zm-17.58-2.59h13.9V10.47h-13.9Zm2.62,11.43v2.55h8.33V24.31Z"/><path class="cls-1" d="M323.81,27.91c6.57-1.66,9.76-5.3,9.76-11.18,0-4.08-1.83-7.52-5-9.25a11.28,11.28,0,0,0-3.67-1.26c-1,7.89-2.38,12.92-4.86,17.78a14.86,14.86,0,0,1-2.52,3.84,5.41,5.41,0,0,1-3.84,1.84c-3.91,0-7.07-4.9-7.07-10.88A16.12,16.12,0,0,1,314.3,5.13a15.9,15.9,0,0,1,8.56-2.31c8.67,0,14.62,5.58,14.62,13.74q0,11.57-11.69,14.68ZM321.33,6.09a10.55,10.55,0,0,0-6.8,3.12,13,13,0,0,0-4.08,9.45c0,3.68,1.53,7,3.23,7,.85,0,1.64-.78,2.69-2.65,2.38-4.15,4.08-9.89,4.89-16.39Z"/><path class="cls-1" d="M354.48,1.67l-.78,4.69h9.89V9.62H353.12l-.88,5.24h9.38v3.26H351.7a30.05,30.05,0,0,0-.48,4.62,4.27,4.27,0,0,0,1.39,3.64A8.29,8.29,0,0,0,358,28c4.89,0,7.51-1.87,7.51-5.41a15.18,15.18,0,0,0-1-4.93l3.46-.23a13,13,0,0,1,1.36,5.3,7.68,7.68,0,0,1-3,6.53,14.74,14.74,0,0,1-8.43,2.27c-6.87,0-10.61-3-10.61-8.53a29.09,29.09,0,0,1,.51-4.86H341.6V14.86h6.8l.92-5.24H342V6.36h7.88l.89-5Z"/><path class="cls-1" d="M391.81,27.91c6.57-1.66,9.76-5.3,9.76-11.18,0-4.08-1.83-7.52-5-9.25a11.28,11.28,0,0,0-3.67-1.26c-1,7.89-2.38,12.92-4.86,17.78a14.86,14.86,0,0,1-2.52,3.84,5.41,5.41,0,0,1-3.84,1.84c-3.91,0-7.07-4.9-7.07-10.88A16.12,16.12,0,0,1,382.3,5.13a15.9,15.9,0,0,1,8.56-2.31c8.67,0,14.62,5.58,14.62,13.74q0,11.57-11.69,14.68ZM389.33,6.09a10.55,10.55,0,0,0-6.8,3.12,13,13,0,0,0-4.08,9.45c0,3.68,1.53,7,3.23,7,.85,0,1.64-.78,2.69-2.65,2.38-4.15,4.08-9.89,4.89-16.39Z"/><path class="cls-1" d="M408.17,8.87C418.78,7.21,423,6.7,426.66,6.7c3.91,0,6.53.85,8.61,2.82s3,4.38,3,7.72a11.24,11.24,0,0,1-6.59,10.26c-3.33,1.67-7.92,2.76-14.11,3.27l-1.26-3.67c6.29-.52,10.47-1.36,13.06-2.69,3.26-1.67,5-4.18,5-7.34a6.7,6.7,0,0,0-1.83-5.17c-1.4-1.29-2.86-1.73-5.65-1.73-3.16,0-7.71.61-17.88,2.34Zm26.28-1a28.67,28.67,0,0,0-3.3-5.68l2.52-.88A28.7,28.7,0,0,1,437,6.9Zm4.18-1.4A26.78,26.78,0,0,0,435.37.78L437.78,0A20.13,20.13,0,0,1,441,5.41Z"/><path class="cls-1" d="M467,32.13A188.08,188.08,0,0,0,447.3,19.07c-1.63-.95-2.24-1.7-2.24-2.75a2.64,2.64,0,0,1,1-1.94c.4-.41.4-.41,2.07-1.33A191.74,191.74,0,0,0,466.21,1.53l2.17,2.86a206,206,0,0,1-17.54,11c-.61.38-.88.62-.88.85s0,.31,2,1.5a188.62,188.62,0,0,1,17.17,11Z"/><path class="cls-1" d="M490.52,15.88c-2,3.77-4.29,6-6.12,6-2.31,0-3.61-3.37-3.61-9.25a62.17,62.17,0,0,1,1.13-10.47l3.63.55a52.09,52.09,0,0,0-1.08,9.48c0,3.43.27,5.24.74,5.24s2-1.91,3.2-4.32Zm-2.52,13c7.72-2.14,10.85-6.39,10.85-14.75a85.27,85.27,0,0,0-1-12l3.8-.37a83.71,83.71,0,0,1,1.09,12.51c0,9.82-3.43,14.62-12.75,17.71Z"/><path class="cls-1" d="M522.78,26.55a5.71,5.71,0,1,1-5.67-5.71A5.74,5.74,0,0,1,522.78,26.55Zm-8.8,0a3.1,3.1,0,1,0,3.09-3.09A3.15,3.15,0,0,0,514,26.55Z"/></g></g></svg>