<svg xmlns="http://www.w3.org/2000/svg" viewBox="0 0 299.36 77.14"><defs><style>.cls-1{fill:none;stroke:#bebebe;stroke-miterlimit:10;}.cls-2{fill:#b90f52;}.cls-3{fill:#bdbdbd;}.cls-4{fill:#182b7b;}</style></defs><title>Asset 3</title><g id="Layer_2" data-name="Layer 2"><g id="デザイン"><line class="cls-1" y1="20.71" x2="180" y2="20.71"/></g><g id="テキスト"><path class="cls-2" d="M7.51.66l5.1,13H10.34L9,10.13H3.71L2.38,13.69H.11L5.22.66Zm-.29,4.4C7,4.35,6.5,3,6.4,2.54H6.34c-.13.52-.5,1.64-.82,2.52L4.27,8.47H8.45Z"/><path class="cls-3" d="M21,5.67A3.54,3.54,0,0,1,24.08,4c2.58,0,4.37,2,4.37,5s-1.76,4.9-4.42,4.9a3.72,3.72,0,0,1-3-1.62v5H19v-13h2Zm0,4.64a3,3,0,0,0,2.63,2c1.65,0,2.75-1.33,2.75-3.33S25.27,5.6,23.62,5.6A3.08,3.08,0,0,0,21,7.46Z"/><path class="cls-3" d="M37.54,5.67A3.53,3.53,0,0,1,40.63,4C43.2,4,45,6.07,45,9s-1.76,4.9-4.42,4.9a3.71,3.71,0,0,1-3-1.62v5h-2v-13h2Zm0,4.64a3,3,0,0,0,2.62,2c1.65,0,2.76-1.33,2.76-3.33S41.81,5.6,40.16,5.6a3.07,3.07,0,0,0-2.62,1.86Z"/><path class="cls-3" d="M54.39,0V11.73c0,.26.11.37.35.37H56l-.22,1.59H54.07A1.49,1.49,0,0,1,52.37,12V0Z"/><path class="cls-3" d="M65,.34v2H62.82v-2Zm-.11,3.9v9.45h-2V4.24Z"/><path class="cls-3" d="M81.27,12.24a4.72,4.72,0,0,1-4,1.73,4.81,4.81,0,0,1-5-5,4.85,4.85,0,0,1,5-5A5.34,5.34,0,0,1,81,5.28L80,6.63a3.76,3.76,0,0,0-2.67-1c-1.78,0-3,1.37-3,3.37a3.1,3.1,0,0,0,3,3.33A3.35,3.35,0,0,0,80.1,11Z"/><path class="cls-3" d="M93.91,7.41c0-1.2-.77-1.84-2.23-1.84a5,5,0,0,0-3.09,1l-.85-1.29a7,7,0,0,1,4-1.28c2.66,0,4,1.26,4,3.71v3.15a6.57,6.57,0,0,0,.54,2.84H94.55a6,6,0,0,1-.45-1.59H94a4.05,4.05,0,0,1-1.34,1.33,3.9,3.9,0,0,1-2.11.51,3,3,0,0,1-3.25-3c0-2.09,1.82-3.21,5.26-3.21h1.32Zm-.84,1.65c-2.54,0-3.69.56-3.69,1.81,0,.89.7,1.49,1.76,1.49a2.7,2.7,0,0,0,2.75-2.52V9.06Z"/><path class="cls-3" d="M106.47,4.24h2.91V5.79h-2.91v5.09a2.45,2.45,0,0,0,.11,1,.87.87,0,0,0,.83.48,3,3,0,0,0,1.6-.52l.42,1.41a4.46,4.46,0,0,1-2.5.67c-1.6,0-2.47-1-2.47-2.72V5.79h-2.24V4.24h2.24v-2l2-.89Z"/><path class="cls-3" d="M118.74.34v2h-2.23v-2Zm-.12,3.9v9.45h-2V4.24Z"/><path class="cls-3" d="M135.56,9a4.85,4.85,0,1,1-9.69,0,4.85,4.85,0,1,1,9.69,0Zm-7.64,0c0,2,1.14,3.38,2.8,3.38s2.79-1.38,2.79-3.38-1.17-3.36-2.79-3.36S127.92,7,127.92,8.93Z"/><path class="cls-3" d="M144.5,6a3.93,3.93,0,0,1,3.34-1.95c2.1,0,3.3,1.36,3.3,3.72v5.9h-2V8.12c0-1.59-.64-2.37-1.92-2.37a3.31,3.31,0,0,0-2.75,2.32v5.62h-2V4.24h2Z"/><path class="cls-3" d="M171.47,5.67A3.54,3.54,0,0,1,174.56,4c2.58,0,4.37,2,4.37,5s-1.76,4.9-4.42,4.9a3.72,3.72,0,0,1-3-1.62v5h-2v-13h2Zm0,4.64a3,3,0,0,0,2.63,2c1.65,0,2.75-1.33,2.75-3.33s-1.1-3.36-2.75-3.36a3.08,3.08,0,0,0-2.63,1.86Z"/><path class="cls-3" d="M187.86,6.87c.57-2,1.56-2.87,3.13-2.87a2.83,2.83,0,0,1,1.3.27l-.54,1.83a2.8,2.8,0,0,0-1-.16c-1.46,0-2.53,1.2-2.85,3.17v4.58h-2V4.24h1.94l-.07,2.63Z"/><path class="cls-3" d="M207.46,9a4.85,4.85,0,1,1-9.69,0,4.85,4.85,0,1,1,9.69,0Zm-7.64,0c0,2,1.14,3.38,2.81,3.38s2.78-1.38,2.78-3.38-1.17-3.36-2.78-3.36S199.82,7,199.82,8.93Z"/><path class="cls-3" d="M222.75,12.24a4.71,4.71,0,0,1-4,1.73,4.81,4.81,0,0,1-5-5,4.85,4.85,0,0,1,5-5,5.37,5.37,0,0,1,3.7,1.31l-1,1.35a3.79,3.79,0,0,0-2.68-1c-1.77,0-3,1.37-3,3.37a3.1,3.1,0,0,0,3,3.33A3.36,3.36,0,0,0,221.59,11Z"/><path class="cls-3" d="M230.91,9.3a2.84,2.84,0,0,0,3,3,3.73,3.73,0,0,0,3-1.43l1.1,1.28A5.43,5.43,0,0,1,233.76,14,4.62,4.62,0,0,1,228.83,9c0-3,1.95-5.07,4.74-5.07A4.42,4.42,0,0,1,238,8.72V9.3Zm5-1.42a2.36,2.36,0,0,0-2.45-2.39,2.63,2.63,0,0,0-2.55,2.39Z"/><path class="cls-3" d="M254.13,0V13.73h-2V12.26a3.54,3.54,0,0,1-3.09,1.65c-2.62,0-4.4-2-4.4-5S246.54,4,249.17,4a3.66,3.66,0,0,1,3,1.55V0Zm-2,7.57a2.9,2.9,0,0,0-2.58-2C248,5.59,246.77,7,246.77,9s1.1,3.36,2.78,3.36a3.05,3.05,0,0,0,2.61-1.84Z"/><path class="cls-3" d="M263.9,4.24V9.78c0,1.55.64,2.38,1.84,2.38a3.22,3.22,0,0,0,2.81-2.35V4.24h2v9.45h-2v-1.8a4.1,4.1,0,0,1-3.33,2c-2.19,0-3.36-1.31-3.36-3.76V4.24Z"/><path class="cls-3" d="M280.14,6.87c.58-2,1.57-2.87,3.14-2.87a2.85,2.85,0,0,1,1.3.27L284,6.1a2.74,2.74,0,0,0-1-.16c-1.46,0-2.53,1.2-2.85,3.17v4.58h-2V4.24h1.93l-.06,2.63Z"/><path class="cls-3" d="M292.24,9.3a2.84,2.84,0,0,0,3,3,3.76,3.76,0,0,0,3-1.43l1.1,1.28A5.44,5.44,0,0,1,295.09,14,4.61,4.61,0,0,1,290.16,9c0-3,1.95-5.07,4.74-5.07a4.43,4.43,0,0,1,4.45,4.75V9.3Zm5-1.42a2.36,2.36,0,0,0-2.44-2.39,2.63,2.63,0,0,0-2.55,2.39Z"/><path class="cls-4" d="M19.54,52.94v4.8H3.5v-4.8Z"/><path class="cls-4" d="M80.4,36.77v4.46H44.74v9.41c0,13.2-1.2,20.07-4.37,25.87L36,72.67c2.59-4.7,3.5-10.61,3.5-22.42V36.77H56.88V31.1h5.38v5.67ZM44.06,70a51,51,0,0,0,4.18-16L53,55.29a51.71,51.71,0,0,1-4.51,17.62ZM60.53,51.84V69.17C60.53,70.75,61,71,64,71s3.94-.19,4.18-.86c.34-.87.48-3,.62-7.92l4.9,1.58c0,5.19-.43,8.55-1.2,9.79-1,1.73-2.78,2.21-8.69,2.21-4.61,0-6.05-.19-7-.86s-1.29-1.63-1.29-3.27V51.84ZM66,53.42a46.51,46.51,0,0,0-9.84-8.25l3.41-3.32a50.12,50.12,0,0,1,10.08,7.92Zm12,17.19a76.63,76.63,0,0,0-8-15.84l4.18-2.45a68,68,0,0,1,8.21,15.36Z"/><path class="cls-4" d="M106.85,66.77c-2,5.71-6.77,9-15.12,10.37l-2.79-4c7.3-.81,10.76-2.54,12.68-6.33h-9.7v-2a48,48,0,0,1-5.42,2.69l-2.74-3.7a34.31,34.31,0,0,0,10-5.13H84.24V55H98c.48-.53,1.1-1.25,1.58-1.87H89.76V39.79h7V37.68H85.2V33.93H96.77V31.1h5.09v2.83h10.08V31.1h5.14v2.83h11.76v3.75H117.08v2.11h7.34v13.3h-19.3c-.43.67-.81,1.2-1.29,1.87h26v3.7h-9.31a35.56,35.56,0,0,0,9.89,4.46l-2.45,4a43.43,43.43,0,0,1-5.66-2.64c-.67,10.52-1.59,12-7.11,12-1.63,0-3.84-.1-6.43-.29L108,72a45.39,45.39,0,0,0,6,.48c1.49,0,1.92-.29,2.21-1.58a34.19,34.19,0,0,0,.72-4.13ZM120,63.12a34.33,34.33,0,0,1-5.91-4.56H100.47a41.45,41.45,0,0,1-5.81,4.56h8.16l.38-3.31h5l-.43,3.31ZM94.75,42.86v2h24.58v-2Zm0,7.15h24.58v-2.2H94.75Zm17.19-12.33H101.86v2.11h10.08Z"/><path class="cls-4" d="M173.57,36.62c-.43,23.76-7.44,33.12-28.37,38l-2.69-4.75c17.52-3,24.82-11.28,25.16-28.37H136.42v-4.9Z"/><path class="cls-4" d="M221.43,36.38v36.2H184.66V36.38Zm-31.3,31.2H216V41.37H190.13Z"/><path class="cls-4" d="M271.68,50.45v5.28H230.4V50.45Z"/></g></g></svg>