<svg xmlns="http://www.w3.org/2000/svg" viewBox="0 0 370.42 76.42"><defs><style>.cls-1{fill:none;stroke:#bebebe;stroke-miterlimit:10;}.cls-2{fill:#b90f52;}.cls-3{fill:#bdbdbd;}.cls-4{fill:#182b7b;}</style></defs><title>rec_img01</title><g id="Layer_2" data-name="Layer 2"><g id="デザイン"><line class="cls-1" y1="20.37" x2="180" y2="20.37"/></g><g id="テキスト"><path class="cls-2" d="M6.42.38c3.06,0,4.85,1.32,4.85,3.54A3,3,0,0,1,10,6.48a5.53,5.53,0,0,1-2.2.75v0c1.44.45,2.18,1.44,4.5,6.07H9.76C7.86,8.83,7.17,8,5.15,8H3.63v5.38H1.57V.38ZM3.63,6.32H5.81C7.89,6.32,9,5.55,9,4.1s-1-2-3-2H3.63Z"/><path class="cls-3" d="M20.4,9a2.84,2.84,0,0,0,3,3,3.77,3.77,0,0,0,3-1.42l1.1,1.28a5.46,5.46,0,0,1-4.27,1.81,4.62,4.62,0,0,1-4.93-4.93c0-3,1.95-5.08,4.74-5.08a4.43,4.43,0,0,1,4.45,4.76V9Zm5-1.42A2.38,2.38,0,0,0,23,5.15a2.63,2.63,0,0,0-2.55,2.39Z"/><path class="cls-3" d="M43.19,11.91a4.72,4.72,0,0,1-4,1.73,4.82,4.82,0,0,1-5-5,4.86,4.86,0,0,1,5-5A5.35,5.35,0,0,1,42.88,5l-1,1.34a3.81,3.81,0,0,0-2.67-1c-1.78,0-3,1.38-3,3.38A3.1,3.1,0,0,0,39.27,12,3.36,3.36,0,0,0,42,10.69Z"/><path class="cls-3" d="M51.78,6.53c.57-1.95,1.57-2.86,3.13-2.86a2.83,2.83,0,0,1,1.3.27l-.54,1.82a2.8,2.8,0,0,0-1-.16c-1.46,0-2.53,1.2-2.85,3.17v4.58h-2V3.91h1.94l-.07,2.62Z"/><path class="cls-3" d="M64.45,3.91V9.44c0,1.56.64,2.39,1.84,2.39a3.21,3.21,0,0,0,2.8-2.35V3.91h2v9.44h-2V11.56a4.14,4.14,0,0,1-3.33,2c-2.2,0-3.36-1.32-3.36-3.77V3.91Z"/><path class="cls-3" d="M81.79,3.91h2.92V5.46H81.79v5.09a2.52,2.52,0,0,0,.11,1,.91.91,0,0,0,.84.48,2.91,2.91,0,0,0,1.6-.53l.41,1.41a4.32,4.32,0,0,1-2.49.67c-1.6,0-2.47-1-2.47-2.72V5.46H77.55V3.91h2.24v-2l2-.9Z"/><path class="cls-3" d="M94.06,0V2.05H91.84V0ZM94,3.91v9.44h-2V3.91Z"/><path class="cls-3" d="M103.94,5.68a3.93,3.93,0,0,1,3.34-1.95c2.1,0,3.3,1.36,3.3,3.73v5.89h-2V7.78c0-1.59-.64-2.37-1.92-2.37a3.31,3.31,0,0,0-2.75,2.32v5.62h-2V3.91h2Z"/><path class="cls-3" d="M126.74,12.47a4.4,4.4,0,0,1-1.15,3.39,5,5,0,0,1-3.29,1.07,6.1,6.1,0,0,1-4.3-1.44l.91-1.34a4.88,4.88,0,0,0,3.38,1.18,2.31,2.31,0,0,0,2.54-2.48V11.54A3.63,3.63,0,0,1,122,12.93c-2.54,0-4.24-1.84-4.24-4.59s1.78-4.66,4.21-4.66A3.74,3.74,0,0,1,125,5l.32-1.06h1.47Zm-1.91-5.86a3,3,0,0,0-2.61-1.38c-1.48,0-2.57,1.32-2.57,3.09s1.09,3.12,2.62,3.12A2.82,2.82,0,0,0,124.83,10Z"/><path class="cls-3" d="M146.67,5.62a2.9,2.9,0,0,1,2.58-1.89,2.59,2.59,0,0,1,2.69,2.08,3.12,3.12,0,0,1,2.72-2.08A2.76,2.76,0,0,1,157,4.82a4.19,4.19,0,0,1,.67,2.64v5.89h-1.89V7.68c0-1.42-.58-2.27-1.57-2.27s-1.71,1-2,2.21v5.73h-1.89V7.6c0-1.39-.57-2.19-1.57-2.19s-1.71.94-2,2.35v5.59H144.8V3.91h1.87Z"/><path class="cls-3" d="M166.65,9a2.84,2.84,0,0,0,3,3,3.75,3.75,0,0,0,3-1.42l1.11,1.28a5.48,5.48,0,0,1-4.28,1.81,4.62,4.62,0,0,1-4.93-4.93c0-3,2-5.08,4.74-5.08a4.43,4.43,0,0,1,4.45,4.76V9Zm5-1.42a2.37,2.37,0,0,0-2.45-2.39,2.63,2.63,0,0,0-2.54,2.39Z"/><path class="cls-3" d="M181.25,11A5.35,5.35,0,0,0,184.48,12c1.22,0,1.86-.4,1.86-1.16s-.53-1.08-1.91-1.48l-.83-.24c-2-.56-2.75-1.36-2.75-2.77,0-1.61,1.44-2.72,3.55-2.72a5.9,5.9,0,0,1,3.73,1.12l-.9,1.33a4.66,4.66,0,0,0-2.8-.88c-.94,0-1.57.45-1.57,1.14a.93.93,0,0,0,.5.77,4.88,4.88,0,0,0,1.07.41l.24.08.93.31c2,.65,2.83,1.47,2.83,2.85,0,1.82-1.44,2.88-3.9,2.88a6.33,6.33,0,0,1-4.16-1.33Z"/><path class="cls-3" d="M195.69,11A5.4,5.4,0,0,0,198.93,12c1.21,0,1.85-.4,1.85-1.16s-.52-1.08-1.9-1.48l-.83-.24c-2-.56-2.76-1.36-2.76-2.77,0-1.61,1.44-2.72,3.56-2.72a5.92,5.92,0,0,1,3.73,1.12l-.9,1.33a4.66,4.66,0,0,0-2.8-.88c-.94,0-1.57.45-1.57,1.14a.93.93,0,0,0,.5.77,4.88,4.88,0,0,0,1.07.41l.24.08.93.31c2,.65,2.83,1.47,2.83,2.85,0,1.82-1.44,2.88-3.9,2.88a6.38,6.38,0,0,1-4.17-1.33Z"/><path class="cls-3" d="M215.9,7.07c0-1.2-.76-1.84-2.22-1.84a4.89,4.89,0,0,0-3.09,1l-.85-1.3a7,7,0,0,1,4-1.28c2.66,0,4,1.26,4,3.71v3.16a6.41,6.41,0,0,0,.54,2.83h-1.78a6,6,0,0,1-.44-1.59H216a4,4,0,0,1-1.34,1.33,3.91,3.91,0,0,1-2.12.52,3,3,0,0,1-3.24-3c0-2.1,1.82-3.22,5.26-3.22h1.31Zm-.83,1.65c-2.54,0-3.7.56-3.7,1.81,0,.9.71,1.49,1.76,1.49a2.7,2.7,0,0,0,2.76-2.51V8.72Z"/><path class="cls-3" d="M233.91,12.47a4.4,4.4,0,0,1-1.16,3.39,5,5,0,0,1-3.28,1.07,6.09,6.09,0,0,1-4.3-1.44l.91-1.34a4.87,4.87,0,0,0,3.38,1.18A2.31,2.31,0,0,0,232,12.85V11.54a3.63,3.63,0,0,1-2.85,1.39c-2.54,0-4.24-1.84-4.24-4.59s1.78-4.66,4.21-4.66a3.71,3.71,0,0,1,3,1.3l.32-1.06h1.48ZM232,6.61a3,3,0,0,0-2.61-1.38c-1.49,0-2.58,1.32-2.58,3.09s1.09,3.12,2.63,3.12A2.83,2.83,0,0,0,232,10Z"/><path class="cls-3" d="M243,9a2.84,2.84,0,0,0,3,3,3.78,3.78,0,0,0,3-1.42l1.1,1.28a5.47,5.47,0,0,1-4.27,1.81A4.62,4.62,0,0,1,241,8.71c0-3,1.95-5.08,4.73-5.08a4.43,4.43,0,0,1,4.45,4.76V9Zm5-1.42a2.36,2.36,0,0,0-2.45-2.39,2.63,2.63,0,0,0-2.54,2.39Z"/><path class="cls-4" d="M19.54,52.61v4.8H3.5v-4.8Z"/><path class="cls-4" d="M70.66,58.7a32.39,32.39,0,0,0,11.9,9.89L79.44,73a34,34,0,0,1-10.8-10.9V76.37h-5V62.11A30.67,30.67,0,0,1,53.52,73.58L50.4,69.7a34,34,0,0,0,11.23-11H52V55c-.34.1-.39.14-.58.19s-.77.29-1.44.53l-2.55,1V71.86c0,3.16-1.2,4.32-4.36,4.32A24.12,24.12,0,0,1,38,75.7l-.91-5.09a20.22,20.22,0,0,0,4.12.48c1,0,1.25-.29,1.25-1.25V58.27c-1.92.58-3.07.91-5.47,1.54L35.66,55c2.36-.53,5.38-1.3,6.77-1.63V44.06h-6V39.41h6V30.77h5v8.64h5.19v4.65H47.42v7.88l3.17-1c.53-.2.82-.29,1.68-.58l.39,3.94h11V49.87h5v4.42h13V58.7ZM51.79,34.51A122.68,122.68,0,0,0,76,30.77l3.21,3.69a140.25,140.25,0,0,1-25.39,4.27Zm4.8,16.22a41,41,0,0,0-3.21-9.16l4.32-1.64a40.73,40.73,0,0,1,3.45,9.17Zm7.64-2a41.14,41.14,0,0,0-2.5-9.27l4.61-1.34A46,46,0,0,1,69,47.42Zm6.09.48a60.08,60.08,0,0,0,4.9-11.76l4.8,2a74,74,0,0,1-5.47,11.33Z"/><path class="cls-4" d="M126.05,70.7c0,3.65-1.25,4.8-5.23,4.8-2.5,0-4.47-.09-6.48-.28l-.91-5a49.77,49.77,0,0,0,6.14.48c1.06,0,1.3-.24,1.3-1.35V60.05H109.39V74.21h-5V60.05h-11c-.29,7.63-1.58,12.09-4.8,16.37l-4.42-3.65c2.79-3.51,4.08-8.4,4.08-15.46V33.21h37.83ZM93.41,44.49h10.94V37.73H93.41Zm0,11.24h10.94v-7H93.41Zm27.46-18H109.39v6.76h11.48Zm0,11H109.39v7h11.48Z"/><path class="cls-4" d="M142.61,40c4,2.5,7.63,5,13.25,9.07l.91.68a78.94,78.94,0,0,0,8.83-17.19l5.14,2.4a108.39,108.39,0,0,1-9.6,18.1A98.3,98.3,0,0,1,174,64.22l-3.7,4.23A110,110,0,0,0,158.83,58l-.86-.72a77.13,77.13,0,0,1-20.69,17.52l-3.41-4.65C140.4,67,147.79,60.86,153.7,53.9c-4.27-3.12-9.32-6.62-14-9.65Z"/><path class="cls-4" d="M190.27,57.74a64.43,64.43,0,0,0-4.56-13.34l4.47-2.16A65.93,65.93,0,0,1,195,55.92Zm3.6,12.48c14.07-3.64,19-10.6,20.69-29.47l5,1.49c-2.36,20-7.73,27.55-22.95,32.3Zm7.3-14.59a85.59,85.59,0,0,0-4.32-13.3l4.61-1.92A70.27,70.27,0,0,1,206,53.85Z"/><path class="cls-4" d="M245.71,32.25v11l22.52-3,2.93,2.93c-2.79,8.06-7,13.78-12.29,16.94l-4.08-3.4c4.41-2.31,8.54-7.06,9.84-11.29l-18.92,2.74V64.37c0,3.41,1.06,3.84,9.32,3.84a132.29,132.29,0,0,0,13.39-.72v5.33c-4.32.33-8.59.48-13.11.48-6.76,0-10-.24-11.61-.92-2.31-1-3.36-3-3.36-6.52V49L230.5,50.4l-.53-5L240.34,44V32.25Z"/><path class="cls-4" d="M319.68,50.11v5.28H278.4V50.11Z"/><path class="cls-4" d="M341.23,55.2A128,128,0,0,0,327.12,50l2-4.7a91.13,91.13,0,0,1,13.92,5ZM330.14,68.11c10.52-.77,17-2.78,21.75-6.67,4.94-4,8.55-10.42,10.13-17.95l4.8,2.88c-4.37,17.61-14.55,25.39-35.19,27ZM346,43.2A106.2,106.2,0,0,0,331.92,38l1.54-4.65a69.94,69.94,0,0,1,14.21,4.94ZM359.81,41a41.44,41.44,0,0,0-4.8-8.26l3.7-1.34a41.39,41.39,0,0,1,4.8,8.16Zm7.11-1.3a42.25,42.25,0,0,0-4.71-8.35l3.46-1.1a28.21,28.21,0,0,1,4.75,7.92Z"/></g></g></svg>