<svg xmlns="http://www.w3.org/2000/svg" xmlns:xlink="http://www.w3.org/1999/xlink" viewBox="0 0 193.01 30"><defs><style>.cls-1{fill:none;}.cls-2{clip-path:url(#clip-path);}.cls-3{fill:#a4a4a4;}.cls-4{clip-path:url(#clip-path-2);}.cls-5{fill:#b90f52;}.cls-6{fill:#182b7b;}</style><clipPath id="clip-path"><rect class="cls-1" width="30" height="30"/></clipPath><clipPath id="clip-path-2"><circle class="cls-1" cx="15" cy="32.5" r="15"/></clipPath></defs><title>rec_banner_txt</title><g id="Layer_2" data-name="Layer 2"><g id="ヘッダー_フッター" data-name="ヘッダー・フッター"><g class="cls-2"><path class="cls-3" d="M15,3A12,12,0,1,1,3,15,12,12,0,0,1,15,3m0-3A15,15,0,1,0,30,15,15,15,0,0,0,15,0Z"/><g class="cls-4"><path class="cls-5" d="M15,3A12,12,0,1,1,3,15,12,12,0,0,1,15,3m0-3A15,15,0,1,0,30,15,15,15,0,0,0,15,0Z"/></g></g><path class="cls-6" d="M52.23,3.66c5.35,0,8.48,2.3,8.48,6.19a5.22,5.22,0,0,1-2.29,4.48,9.7,9.7,0,0,1-3.84,1.31v.09c2.52.78,3.81,2.52,7.87,10.61H58.08C54.75,18.44,53.54,17,50,16.93H47.36v9.41H43.74V3.66ZM47.36,14.05h3.8c3.64,0,5.6-1.35,5.6-3.89,0-2.36-1.79-3.59-5.2-3.59h-4.2Z"/><path class="cls-6" d="M82.83,3.66V6.71H71v6.44h10.5v3H71v7.11H83.25v3.11H67.38V3.66Z"/><path class="cls-6" d="M107.67,23.76a12,12,0,0,1-8.49,3.06c-6.77,0-11.39-4.76-11.39-11.76S92.49,3.18,99,3.18a11.63,11.63,0,0,1,8.06,2.94l-1.9,2.61A8,8,0,0,0,99,6.29c-4.28,0-7.33,3.67-7.33,8.79a9.5,9.5,0,0,0,1.62,5.58,7.46,7.46,0,0,0,5.83,3,9.19,9.19,0,0,0,6.69-2.6Z"/><path class="cls-6" d="M121.72,3.66c5.35,0,8.49,2.3,8.49,6.19a5.2,5.2,0,0,1-2.3,4.48,9.65,9.65,0,0,1-3.83,1.31v.09c2.52.78,3.8,2.52,7.86,10.61h-4.36c-3.34-7.9-4.54-9.32-8.07-9.41h-2.66v9.41h-3.61V3.66Zm-4.87,10.39h3.81c3.64,0,5.6-1.35,5.6-3.89,0-2.36-1.79-3.59-5.21-3.59h-4.2Z"/><path class="cls-6" d="M140.4,3.66V17.77a5.93,5.93,0,0,0,1,3.7A5.42,5.42,0,0,0,146,23.62a5.68,5.68,0,0,0,4.48-2.07,5.92,5.92,0,0,0,1.09-3.78V3.66h3.62V18.47a7.77,7.77,0,0,1-1.57,5A9.42,9.42,0,0,1,146,26.84a9.54,9.54,0,0,1-7.7-3.41,7.81,7.81,0,0,1-1.48-5V3.66Z"/><path class="cls-6" d="M170.56,3.66V6.38h-3.08V23.62h3.08v2.72h-9.75V23.62h3.08V6.38h-3.08V3.66Z"/><path class="cls-6" d="M193,3.66V6.85h-7.76V26.34h-3.66V6.85H173.8V3.66Z"/></g></g></svg>