<svg xmlns="http://www.w3.org/2000/svg" viewBox="0 0 236.95 77.19"><defs><style>.cls-1{fill:none;stroke:#bebebe;stroke-miterlimit:10;}.cls-2{fill:#b90f52;}.cls-3{fill:#bdbdbd;}.cls-4{fill:#182b7b;}</style></defs><title>rec_img06</title><g id="Layer_2" data-name="Layer 2"><g id="デザイン"><line class="cls-1" y1="20.71" x2="180" y2="20.71"/></g><g id="テキスト"><path class="cls-2" d="M12.63,13.86H10.71l-2-6.75A27.7,27.7,0,0,1,8.1,4.34H8a18.72,18.72,0,0,1-.63,2.77l-2,6.75H3.54L.06.72H2.19L3.92,7.63c.21.87.35,1.56.69,3.3h.06a32.34,32.34,0,0,1,.71-3.18l1.84-6H8.93l1.84,6a30.09,30.09,0,0,1,.72,3.18h.07c.2-1.23.48-2.54.67-3.3L14,.72h2.12Z"/><path class="cls-3" d="M31.35,9a4.7,4.7,0,0,1-4.84,5,4.7,4.7,0,0,1-4.85-5,4.85,4.85,0,1,1,9.69,0Zm-7.64,0c0,2,1.14,3.38,2.8,3.38s2.79-1.38,2.79-3.38-1.17-3.36-2.79-3.36S23.71,7,23.71,8.93Z"/><path class="cls-3" d="M40.16,6.87C40.74,4.91,41.73,4,43.3,4a2.85,2.85,0,0,1,1.3.27L44.05,6.1a2.76,2.76,0,0,0-1-.16c-1.45,0-2.52,1.2-2.84,3.17v4.58h-2V4.24h1.94L40.1,6.87Z"/><path class="cls-3" d="M52.9,0V8.08l3.89-3.84h2.54l-3.76,3.7,4.08,5.75H57.12l-3-4.63L52.9,10.23v3.46h-2V0Z"/><path class="cls-3" d="M78.11,9.3a2.84,2.84,0,0,0,3,3,3.73,3.73,0,0,0,3-1.43l1.11,1.28A5.46,5.46,0,0,1,81,14,4.62,4.62,0,0,1,76,9C76,6.05,78,4,80.77,4a4.42,4.42,0,0,1,4.45,4.75V9.3Zm5-1.42a2.36,2.36,0,0,0-2.45-2.39,2.63,2.63,0,0,0-2.55,2.39Z"/><path class="cls-3" d="M94.54,6a4,4,0,0,1,3.35-1.95c2.1,0,3.3,1.36,3.3,3.72v5.9h-2V8.12c0-1.59-.64-2.37-1.92-2.37a3.33,3.33,0,0,0-2.76,2.32v5.62h-2V4.24h2Z"/><path class="cls-3" d="M109.84,4.24l1.83,5.08,0,.09c.33.93.43,1.25.61,1.89h.06c.14-.51.27-.88.61-1.82l0-.16,1.82-5.08h2.24l-3.9,9.6H111.5l-3.92-9.6Z"/><path class="cls-3" d="M125.86.34v2h-2.23v-2Zm-.12,3.9v9.45h-2V4.24Z"/><path class="cls-3" d="M135.6,6.87c.58-2,1.57-2.87,3.14-2.87a2.81,2.81,0,0,1,1.29.27l-.54,1.83a2.76,2.76,0,0,0-1-.16c-1.45,0-2.53,1.2-2.85,3.17v4.58h-2V4.24h1.94l-.06,2.63Z"/><path class="cls-3" d="M155.2,9a4.84,4.84,0,1,1-9.68,0,4.84,4.84,0,1,1,9.68,0Zm-7.63,0c0,2,1.13,3.38,2.8,3.38s2.78-1.38,2.78-3.38S152,5.57,150.37,5.57,147.57,7,147.57,8.93Z"/><path class="cls-3" d="M164.14,6a4,4,0,0,1,3.35-1.95c2.1,0,3.3,1.36,3.3,3.72v5.9h-2V8.12c0-1.59-.64-2.37-1.92-2.37a3.33,3.33,0,0,0-2.76,2.32v5.62h-2V4.24h2Z"/><path class="cls-3" d="M180.21,6a2.88,2.88,0,0,1,2.57-1.88,2.57,2.57,0,0,1,2.69,2.08,3.14,3.14,0,0,1,2.72-2.08,2.74,2.74,0,0,1,2.29,1.08,4.15,4.15,0,0,1,.68,2.64v5.9h-1.89V8c0-1.43-.58-2.27-1.57-2.27s-1.71,1-2,2.21v5.73h-1.89V7.94c0-1.39-.58-2.19-1.57-2.19s-1.71.94-2,2.35v5.59h-1.89V4.24h1.88Z"/><path class="cls-3" d="M200.19,9.3a2.84,2.84,0,0,0,3,3,3.73,3.73,0,0,0,3-1.43l1.1,1.28A5.43,5.43,0,0,1,203,14,4.62,4.62,0,0,1,198.11,9c0-3,1.95-5.07,4.74-5.07a4.42,4.42,0,0,1,4.45,4.75V9.3Zm5-1.42a2.36,2.36,0,0,0-2.45-2.39,2.63,2.63,0,0,0-2.55,2.39Z"/><path class="cls-3" d="M216.62,6A4,4,0,0,1,220,4.07c2.1,0,3.3,1.36,3.3,3.72v5.9h-2V8.12c0-1.59-.64-2.37-1.92-2.37a3.33,3.33,0,0,0-2.76,2.32v5.62h-2V4.24h2Z"/><path class="cls-3" d="M234,4.24h2.92V5.79H234v5.09a2.39,2.39,0,0,0,.12,1,.87.87,0,0,0,.83.48,3,3,0,0,0,1.6-.52l.42,1.41a4.46,4.46,0,0,1-2.5.67c-1.6,0-2.47-1-2.47-2.72V5.79h-2.24V4.24H232v-2l2-.89Z"/><path class="cls-4" d="M19.54,52.94v4.8H3.5v-4.8Z"/><path class="cls-4" d="M44.79,76.71H40.13V52.8c-1,1.87-1.73,3-3,4.94l-1.92-5.28c3.22-5.28,5.47-11.76,7.63-21.79l4.61,1.25c-.81,3.6-1.87,7.39-2.68,9.79ZM70.32,31.39h4.47l-.19,9.79h6.67c-.1,17.28-.48,27.32-1.3,31.2-.57,2.84-1.92,3.85-5.09,3.85a18.71,18.71,0,0,1-3.74-.34l-.72-4.75a15.81,15.81,0,0,0,3.41.43c1.44,0,1.73-.29,2-2C76.42,66,76.9,56.69,77,47.52V45.84H74.26c-.62,17-2.3,23.14-8.35,30.87l-3.65-3a18.55,18.55,0,0,0,1.29-1.59c-4.65.92-12.81,2.12-17.23,2.5l-1.15-4.18c3.41-.19,7.54-.52,9.46-.72v-3.6H46.56V62.59h8.07V60H47.14V45.17h7.49v-2.6H46V38.93h8.6V36.67c-3.56.38-4.23.43-5.86.53l-1.2-3.55A95.46,95.46,0,0,0,63.7,31.44l2.49,3.36c-2.73.62-4.36.91-7.29,1.34v2.79h8.4v2.25h2.83Zm-15.6,16.9H51.07v2.78h3.65Zm0,5.61H51.07v3h3.65Zm7.83-2.83V48.29H58.8v2.78Zm0,5.81v-3H58.8v3ZM58.9,42.57v2.6h7.34v-2.6Zm7.53,3.27V60H58.9v2.59h7.68v3.55H58.9v3.17c2-.24,5.76-.67,6.91-.86,2.74-5.38,3.65-10.47,4.13-22.61Z"/><path class="cls-4" d="M119.48,75.55A269.14,269.14,0,0,0,91.73,57.12c-2.31-1.35-3.17-2.4-3.17-3.89A3.74,3.74,0,0,1,90,50.49c.58-.57.58-.57,2.93-1.87,9.17-5.18,20.35-12.29,25.54-16.27l3.07,4C115.54,40.7,103.87,48.05,96.72,52c-.86.53-1.25.87-1.25,1.2s0,.43,2.84,2.11a265.49,265.49,0,0,1,24.24,15.56Z"/><path class="cls-4" d="M142.22,48.57h4.37V44.93h31.54v3.84H146.69v4.36h-4.47v10c1-.34,3.27-1.3,4.85-2l.68,4.37a103.2,103.2,0,0,1-14.65,6.1l-1.82-4.9,3-.82,3.12-1V53.13h-4.76V48.57h4.76V39.31H132.1V34.65h15.36v4.66h-5.24Zm34.66,13.69a43.44,43.44,0,0,1-5.9,4.56,34.21,34.21,0,0,0,7.49,3.6l-3.17,4.32a42.76,42.76,0,0,1-11.47-8.16V76.71h-5V66.24A53.15,53.15,0,0,1,148,72.62L144.48,69c6-2,11.28-5,14.83-8.21H150V50.64h24.44v10Zm-1.63-19.4H149V32.49h26.26ZM153.46,39.5h3.17V35.81h-3.17Zm1.29,17.91h14.84V54.09H154.75Zm5.72-17.91h3.16V35.81h-3.16Zm4.36,21.27a2.24,2.24,0,0,1-.33.38c-.05.1-.1.1-.19.24a30.78,30.78,0,0,0,3.6,3.31,40.56,40.56,0,0,0,4.22-3.93Zm6-25h-3.31V39.5h3.31Z"/><path class="cls-4" d="M186.19,31.1h4.95V41.28h3.79v1.87h6.62c-.43-1.34-1-2.83-1.48-4.08h-4.61V35.23H207V31.1H212v4.13h12.15v3.84h-5a41,41,0,0,1-1.53,4.08h8.59V47H194v-1.1h-2.88V61.44c1.2-.53,3.26-1.49,4.51-2.11l.58,4.56a120.35,120.35,0,0,1-15,6.86l-1.73-4.94c2.26-.67,3.79-1.2,6.67-2.31V45.89h-5.81V41.28h5.81Zm29.48,39.46c0,1.2.48,1.44,2.88,1.44,2.69,0,2.93-.43,3.17-5.47l4.46,1.63c-.29,7.06-1.34,8.16-7.87,8.16-6.15,0-7.39-.67-7.39-3.89V64.56h-4.13c-.92,6.72-5,10.66-13.11,12.63l-2.59-4c7.39-1.63,9.84-3.55,10.9-8.59h-4.42V49.25h24.29V64.56h-6.19ZM202.23,55.2h14.93V52.61H202.23Zm0,6h14.93V58.46H202.23Zm2.4-22.18A32.83,32.83,0,0,1,206,43.15h7a29.51,29.51,0,0,0,1.39-4.08Z"/></g></g></svg>