<svg xmlns="http://www.w3.org/2000/svg" viewBox="0 0 226.26 77.19"><defs><style>.cls-1{fill:none;stroke:#bebebe;stroke-miterlimit:10;}.cls-2{fill:#b90f52;}.cls-3{fill:#bdbdbd;}.cls-4{fill:#182b7b;}</style></defs><title>rec_img10</title><g id="Layer_2" data-name="Layer 2"><g id="デザイン"><line class="cls-1" x1="0.22" y1="20.71" x2="180.22" y2="20.71"/></g><g id="テキスト"><path class="cls-2" d="M7.59.72V10a4.22,4.22,0,0,1-.74,2.78A3.93,3.93,0,0,1,3.76,14,4.06,4.06,0,0,1,0,11.65l1.23-1.23a2.78,2.78,0,0,0,2.31,1.7c1.39,0,2-.68,2-2.31V.72Z"/><path class="cls-3" d="M24.61,9a4.7,4.7,0,0,1-4.83,5,4.7,4.7,0,0,1-4.85-5,4.72,4.72,0,0,1,4.85-5A4.71,4.71,0,0,1,24.61,9ZM17,8.93c0,2,1.13,3.38,2.8,3.38s2.78-1.38,2.78-3.38S21.4,5.57,19.78,5.57,17,7,17,8.93Z"/><path class="cls-3" d="M33.6,0V5.81A3.61,3.61,0,0,1,36.71,4C39.27,4,41.09,6.07,41.09,9s-1.76,5-4.42,5a3.86,3.86,0,0,1-3.16-1.53l-.2,1.34H31.63V0Zm0,10.58a3.07,3.07,0,0,0,2.64,1.73C37.91,12.31,39,11,39,9S37.86,5.6,36.24,5.6A3.07,3.07,0,0,0,33.6,7.7Z"/><path class="cls-3" d="M63,.72C67.36.72,70,3.15,70,7.19a6.11,6.11,0,0,1-2.78,5.49,8,8,0,0,1-4.28,1H58.64V.72ZM60.71,11.91h1.93c3.27,0,5.12-1.7,5.12-4.71s-1.77-4.72-5-4.72h-2Z"/><path class="cls-3" d="M78.64,9.3a2.84,2.84,0,0,0,3,3,3.73,3.73,0,0,0,3-1.43l1.1,1.28A5.43,5.43,0,0,1,81.49,14,4.62,4.62,0,0,1,76.56,9c0-3,2-5.07,4.74-5.07a4.42,4.42,0,0,1,4.45,4.75V9.3Zm5-1.42a2.36,2.36,0,0,0-2.45-2.39,2.63,2.63,0,0,0-2.55,2.39Z"/><path class="cls-3" d="M93.23,11.28a5.41,5.41,0,0,0,3.24,1.06c1.21,0,1.85-.4,1.85-1.17s-.53-1.07-1.9-1.47l-.83-.24c-2-.56-2.76-1.36-2.76-2.77C92.83,5.07,94.27,4,96.39,4a5.92,5.92,0,0,1,3.73,1.12l-.9,1.33a4.68,4.68,0,0,0-2.8-.88c-1,0-1.57.45-1.57,1.13a.9.9,0,0,0,.5.77,5,5,0,0,0,1.07.42l.24.08.93.3c2,.66,2.83,1.48,2.83,2.85,0,1.83-1.44,2.88-3.91,2.88a6.3,6.3,0,0,1-4.16-1.33Z"/><path class="cls-3" d="M115.88,12.24a4.73,4.73,0,0,1-4,1.73,4.81,4.81,0,0,1-5-5,4.85,4.85,0,0,1,5-5,5.35,5.35,0,0,1,3.7,1.31l-1,1.35a3.76,3.76,0,0,0-2.67-1c-1.78,0-3,1.37-3,3.37a3.1,3.1,0,0,0,3,3.33A3.36,3.36,0,0,0,114.71,11Z"/><path class="cls-3" d="M124.47,6.87C125,4.91,126,4,127.6,4a2.85,2.85,0,0,1,1.3.27l-.55,1.83a2.74,2.74,0,0,0-1-.16c-1.46,0-2.53,1.2-2.85,3.17v4.58h-2V4.24h1.94l-.07,2.63Z"/><path class="cls-3" d="M137.55.34v2h-2.22v-2Zm-.11,3.9v9.45h-2V4.24Z"/><path class="cls-3" d="M147.46,5.67A3.53,3.53,0,0,1,150.55,4c2.57,0,4.37,2,4.37,5s-1.76,4.9-4.42,4.9a3.71,3.71,0,0,1-3-1.62v5h-2v-13h2Zm0,4.64a3,3,0,0,0,2.62,2c1.65,0,2.76-1.33,2.76-3.33s-1.11-3.36-2.76-3.36a3.07,3.07,0,0,0-2.62,1.86Z"/><path class="cls-3" d="M165,4.24h2.91V5.79H165v5.09a2.45,2.45,0,0,0,.11,1,.87.87,0,0,0,.83.48,3,3,0,0,0,1.6-.52l.42,1.41a4.46,4.46,0,0,1-2.5.67c-1.6,0-2.47-1-2.47-2.72V5.79H160.7V4.24h2.24v-2l2-.89Z"/><path class="cls-3" d="M177.22.34v2H175v-2Zm-.12,3.9v9.45h-2V4.24Z"/><path class="cls-3" d="M194,9a4.85,4.85,0,1,1-9.69,0A4.85,4.85,0,1,1,194,9Zm-7.64,0c0,2,1.14,3.38,2.8,3.38S192,10.93,192,8.93s-1.17-3.36-2.79-3.36S186.4,7,186.4,8.93Z"/><path class="cls-3" d="M203,6a4,4,0,0,1,3.34-1.95c2.1,0,3.3,1.36,3.3,3.72v5.9h-2V8.12c0-1.59-.64-2.37-1.92-2.37A3.32,3.32,0,0,0,203,8.07v5.62h-2V4.24h2Z"/><path class="cls-4" d="M19.76,52.94v4.8h-16v-4.8Z"/><path class="cls-4" d="M59.07,66.77c-2,5.71-6.76,9-15.12,10.37l-2.78-4c7.3-.81,10.75-2.54,12.67-6.33H44.15v-2a48.21,48.21,0,0,1-5.43,2.69L36,63.79a34.23,34.23,0,0,0,10-5.13H36.46V55H50.19c.48-.53,1.11-1.25,1.59-1.87H42V39.79h7V37.68H37.42V33.93H49V31.1h5.09v2.83H64.16V31.1H69.3v2.83H81.06v3.75H69.3v2.11h7.34v13.3H57.35c-.44.67-.82,1.2-1.3,1.87h26v3.7H72.76a35.49,35.49,0,0,0,9.88,4.46l-2.44,4a43,43,0,0,1-5.67-2.64c-.67,10.52-1.58,12-7.1,12-1.64,0-3.84-.1-6.44-.29L60.23,72a45.39,45.39,0,0,0,6,.48c1.49,0,1.92-.29,2.21-1.58a34.35,34.35,0,0,0,.71-4.13Zm13.11-3.65a34.73,34.73,0,0,1-5.91-4.56H52.69a40.88,40.88,0,0,1-5.81,4.56H55l.39-3.31h5L60,63.12ZM47,42.86v2H71.56v-2ZM47,50H71.56v-2.2H47ZM64.16,37.68H54.08v2.11H64.16Z"/><path class="cls-4" d="M89.79,56.78V43.15c-1.2,1.15-1.68,1.58-2.88,2.59l-3.07-4A32.16,32.16,0,0,0,93.3,30.62l5.09.82c-1,1.73-1.49,2.64-2.26,3.84h9.22a38.88,38.88,0,0,0,2.16-4.42l5.42.82a31.78,31.78,0,0,1-2.35,3.6h15.65v3.5H110.29v2.74h13.63v3.21H110.29v2.65h13.63v3.26H110.29v2.74h17.09v3.4H109.67v3.27h20.4v4h-14.5a50.17,50.17,0,0,0,15.17,6.63l-3.22,4.65a51.49,51.49,0,0,1-17.85-10.9V76.71h-5.09V65a45.18,45.18,0,0,1-17.24,11l-3.12-4.37a40.52,40.52,0,0,0,15.37-7.63H84.46v-4h20.12V56.78Zm5-15.26H105.3V38.78H94.83Zm0,5.86H105.3V44.73H94.83Zm0,6H105.3V50.64H94.83Z"/><path class="cls-4" d="M155.36,52.94c-.48.87-1.58,2.6-2.35,3.75h25.06v4.13h-9.6A35.72,35.72,0,0,1,162,68.21l1.92.53c4.37,1.24,8.6,2.59,12.63,4.08l-3.07,3.89c-5-2-10.23-3.84-15.65-5.48-5.86,2.93-12.24,4.56-21.8,5.52l-2.49-4.17a63.87,63.87,0,0,0,18.24-3.08c-3.17-.91-8-2.06-12.87-3.07L141,64.27c.81-.91,1.63-1.82,3-3.45H132.46V56.69H147.2l.24-.34.1-.09c.77-1.06,1.25-1.78,2.25-3.32H136.64v-12h10.75V37.2H133.9v-4h42.68v4H162.85v3.69h11v12Zm-13.77-8.45v4.76h5.8V44.49ZM150,60.82a44.74,44.74,0,0,1-3.12,3.64,9.93,9.93,0,0,0,1,.24c2.26.48,3.27.72,8.69,2.07a28.43,28.43,0,0,0,6-5.95Zm8.11-19.93V37.2h-5.86v3.69Zm-5.86,8.36h5.86V44.49h-5.86Zm10.61,0h6.05V44.49h-6.05Z"/><path class="cls-4" d="M195.63,33h30.2v4.23H212.05a35.75,35.75,0,0,1-1.34,4.17h11.95V66.91H198.75V41.42H206c.34-1.1.87-3,1.15-4.17H196.07v3.16h-4.52V59.86c1.64-.53,3.8-1.3,5.19-1.88l.38,4.66a121.88,121.88,0,0,1-15.5,5.52L179.94,63c2.16-.52,3.12-.76,5.23-1.34l1.39-.39V40.41h-5.81V35.76h14.88Zm-2.16,40.42A32.23,32.23,0,0,0,204,67.25l4,2.49a41,41,0,0,1-11,7.45Zm10-24.63h14.25V45.12H203.51Zm0,7h14.25V52.27H203.51Zm0,7.35h14.25V59.28H203.51Zm19,13.63a60.77,60.77,0,0,0-9.7-7l3.6-2.73a62.55,62.55,0,0,1,9.89,6.09Z"/></g></g></svg>