<svg xmlns="http://www.w3.org/2000/svg" xmlns:xlink="http://www.w3.org/1999/xlink" viewBox="0 0 149.58 30"><defs><style>.cls-1{fill:none;}.cls-2{clip-path:url(#clip-path);}.cls-3{fill:#a4a4a4;}.cls-4{clip-path:url(#clip-path-2);}.cls-5{fill:#b90f52;}.cls-6{fill:#182b7b;}</style><clipPath id="clip-path" transform="translate(0 0)"><rect class="cls-1" width="30" height="30"/></clipPath><clipPath id="clip-path-2" transform="translate(0 0)"><circle class="cls-1" cx="15" cy="32.5" r="15"/></clipPath></defs><title>Asset 1</title><g id="Layer_2" data-name="Layer 2"><g id="デザイン"><g class="cls-2"><path class="cls-3" d="M15,3A12,12,0,1,1,3,15,12,12,0,0,1,15,3m0-3A15,15,0,1,0,30,15,15,15,0,0,0,15,0Z" transform="translate(0 0)"/><g class="cls-4"><path class="cls-5" d="M15,3A12,12,0,1,1,3,15,12,12,0,0,1,15,3m0-3A15,15,0,1,0,30,15,15,15,0,0,0,15,0Z" transform="translate(0 0)"/></g></g></g><g id="テキスト"><path class="cls-6" d="M49,9.94c3.82,0,6.06,1.64,6.06,4.42a3.72,3.72,0,0,1-1.64,3.2,6.83,6.83,0,0,1-2.74.94v.06c1.8.56,2.72,1.8,5.62,7.58H53.2c-2.38-5.64-3.24-6.66-5.76-6.72h-1.9v6.72H43V9.94Zm-3.48,7.42h2.72c2.6,0,4-1,4-2.78S51,12,48.54,12h-3Z" transform="translate(0 0)"/><path class="cls-6" d="M70.88,9.94v2.18H62.4v4.6h7.5v2.12H62.4v5.08h8.78v2.22H59.84V9.94Z" transform="translate(0 0)"/><path class="cls-6" d="M88.62,24.3a8.55,8.55,0,0,1-6.06,2.18c-4.84,0-8.14-3.4-8.14-8.4s3.36-8.48,8-8.48a8.3,8.3,0,0,1,5.76,2.1l-1.36,1.86a5.73,5.73,0,0,0-4.36-1.74c-3.06,0-5.24,2.62-5.24,6.28a6.75,6.75,0,0,0,1.16,4,5.32,5.32,0,0,0,4.16,2.12,6.58,6.58,0,0,0,4.78-1.86Z" transform="translate(0 0)"/><path class="cls-6" d="M98.66,9.94c3.82,0,6.06,1.64,6.06,4.42a3.72,3.72,0,0,1-1.64,3.2,6.83,6.83,0,0,1-2.74.94v.06c1.8.56,2.72,1.8,5.62,7.58h-3.12c-2.38-5.64-3.24-6.66-5.76-6.72h-1.9v6.72H92.6V9.94Zm-3.48,7.42H97.9c2.6,0,4-1,4-2.78S100.62,12,98.18,12h-3Z" transform="translate(0 0)"/><path class="cls-6" d="M112,9.94V20a4.22,4.22,0,0,0,.74,2.64A3.89,3.89,0,0,0,116,24.2a4.07,4.07,0,0,0,3.2-1.48A4.25,4.25,0,0,0,120,20V9.94h2.58V20.52a5.53,5.53,0,0,1-1.12,3.6A6.73,6.73,0,0,1,116,26.5a6.81,6.81,0,0,1-5.5-2.44,5.57,5.57,0,0,1-1.06-3.54V9.94Z" transform="translate(0 0)"/><path class="cls-6" d="M133.54,9.94v1.94h-2.2V24.2h2.2v1.94h-7V24.2h2.2V11.88h-2.2V9.94Z" transform="translate(0 0)"/><path class="cls-6" d="M149.58,9.94v2.28H144V26.14h-2.62V12.22h-5.56V9.94Z" transform="translate(0 0)"/></g></g></svg>