<svg xmlns="http://www.w3.org/2000/svg" viewBox="0 0 273.84 76.71"><defs><style>.cls-1{fill:none;stroke:#bebebe;stroke-miterlimit:10;}.cls-2{fill:#b90f52;}.cls-3{fill:#bdbdbd;}.cls-4{fill:#182b7b;}</style></defs><title>rec_img05</title><g id="Layer_2" data-name="Layer 2"><g id="デザイン"><line class="cls-1" y1="20.71" x2="180" y2="20.71"/></g><g id="テキスト"><path class="cls-2" d="M6.5.72V2.27H4.74v9.86H6.5v1.56H.93V12.13H2.69V2.27H.93V.72Z"/><path class="cls-3" d="M22.45,0V13.73h-2V12.26a3.53,3.53,0,0,1-3.09,1.65c-2.62,0-4.4-2-4.4-5S14.86,4,17.49,4a3.66,3.66,0,0,1,3,1.55V0Zm-2,7.57a2.9,2.9,0,0,0-2.57-2C16.27,5.59,15.09,7,15.09,9s1.1,3.36,2.78,3.36a3.05,3.05,0,0,0,2.61-1.84Z"/><path class="cls-3" d="M31.65,9.3a2.84,2.84,0,0,0,3,3,3.75,3.75,0,0,0,3-1.43l1.1,1.28A5.44,5.44,0,0,1,34.5,14,4.62,4.62,0,0,1,29.57,9c0-3,1.95-5.07,4.74-5.07a4.42,4.42,0,0,1,4.45,4.75V9.3Zm5-1.42a2.37,2.37,0,0,0-2.45-2.39,2.63,2.63,0,0,0-2.55,2.39Z"/><path class="cls-3" d="M52,7.41c0-1.2-.77-1.84-2.22-1.84a4.93,4.93,0,0,0-3.09,1l-.85-1.29a7,7,0,0,1,4-1.28c2.65,0,4,1.26,4,3.71v3.15a6.43,6.43,0,0,0,.54,2.84H52.64a6.46,6.46,0,0,1-.45-1.59h-.06a4.15,4.15,0,0,1-1.34,1.33,4,4,0,0,1-2.12.51,3,3,0,0,1-3.25-3c0-2.09,1.83-3.21,5.27-3.21H52Zm-.83,1.65c-2.54,0-3.7.56-3.7,1.81a1.56,1.56,0,0,0,1.76,1.49A2.71,2.71,0,0,0,52,9.84V9.06Z"/><path class="cls-3" d="M63.92,0V11.73c0,.26.11.37.35.37h1.3l-.22,1.59H63.6A1.49,1.49,0,0,1,61.9,12V0Z"/><path class="cls-3" d="M91.06,12.24A4.72,4.72,0,0,1,87,14a4.8,4.8,0,0,1-5-5,4.84,4.84,0,0,1,5-5,5.34,5.34,0,0,1,3.69,1.31l-1,1.35a3.76,3.76,0,0,0-2.67-1c-1.78,0-3,1.37-3,3.37a3.1,3.1,0,0,0,3,3.33A3.34,3.34,0,0,0,89.89,11Z"/><path class="cls-3" d="M103.7,7.41c0-1.2-.77-1.84-2.23-1.84a5,5,0,0,0-3.09,1l-.84-1.29a7,7,0,0,1,4-1.28c2.66,0,4,1.26,4,3.71v3.15a6.57,6.57,0,0,0,.54,2.84h-1.77a6.46,6.46,0,0,1-.45-1.59h-.06a4.19,4.19,0,0,1-1.35,1.33,4,4,0,0,1-2.11.51,3,3,0,0,1-3.25-3c0-2.09,1.82-3.21,5.27-3.21h1.31Zm-.83,1.65c-2.55,0-3.7.56-3.7,1.81,0,.89.7,1.49,1.76,1.49a2.7,2.7,0,0,0,2.75-2.52V9.06Z"/><path class="cls-3" d="M115.28,6a4,4,0,0,1,3.35-1.95c2.09,0,3.29,1.36,3.29,3.72v5.9h-2V8.12c0-1.59-.64-2.37-1.92-2.37a3.32,3.32,0,0,0-2.75,2.32v5.62h-2V4.24h2Z"/><path class="cls-3" d="M138.45,0V13.73h-2V12.26a3.53,3.53,0,0,1-3.09,1.65c-2.62,0-4.4-2-4.4-5S130.86,4,133.49,4a3.66,3.66,0,0,1,3,1.55V0Zm-2,7.57a2.9,2.9,0,0,0-2.58-2c-1.63,0-2.81,1.4-2.81,3.36s1.1,3.36,2.78,3.36a3.05,3.05,0,0,0,2.61-1.84Z"/><path class="cls-3" d="M148.64.34v2h-2.22v-2Zm-.11,3.9v9.45h-2V4.24Z"/><path class="cls-3" d="M165.3,0V13.73h-2V12.26a3.54,3.54,0,0,1-3.09,1.65c-2.62,0-4.4-2-4.4-5S157.71,4,160.34,4a3.66,3.66,0,0,1,3,1.55V0Zm-2,7.57a2.9,2.9,0,0,0-2.58-2c-1.63,0-2.81,1.4-2.81,3.36s1.1,3.36,2.78,3.36a3.05,3.05,0,0,0,2.61-1.84Z"/><path class="cls-3" d="M179,7.41c0-1.2-.77-1.84-2.23-1.84a5,5,0,0,0-3.09,1l-.84-1.29a7,7,0,0,1,4-1.28c2.66,0,4,1.26,4,3.71v3.15a6.57,6.57,0,0,0,.54,2.84h-1.77a6.46,6.46,0,0,1-.45-1.59h-.06a4.19,4.19,0,0,1-1.35,1.33,4,4,0,0,1-2.11.51,3,3,0,0,1-3.25-3c0-2.09,1.82-3.21,5.27-3.21H179Zm-.83,1.65c-2.55,0-3.7.56-3.7,1.81,0,.89.7,1.49,1.76,1.49A2.7,2.7,0,0,0,179,9.84V9.06Z"/><path class="cls-3" d="M191.54,4.24h2.91V5.79h-2.91v5.09a2.45,2.45,0,0,0,.11,1,.87.87,0,0,0,.83.48,3,3,0,0,0,1.6-.52l.42,1.41a4.46,4.46,0,0,1-2.5.67c-1.6,0-2.46-1-2.46-2.72V5.79h-2.25V4.24h2.25v-2l2-.89Z"/><path class="cls-3" d="M202.82,9.3a2.84,2.84,0,0,0,3,3,3.73,3.73,0,0,0,3-1.43l1.11,1.28A5.44,5.44,0,0,1,205.67,14,4.61,4.61,0,0,1,200.74,9c0-3,1.95-5.07,4.73-5.07a4.42,4.42,0,0,1,4.45,4.75V9.3Zm5-1.42a2.36,2.36,0,0,0-2.45-2.39,2.63,2.63,0,0,0-2.54,2.39Z"/><path class="cls-4" d="M19.54,52.94v4.8H3.5v-4.8Z"/><path class="cls-4" d="M36.72,67.49A93.91,93.91,0,0,0,54,56.21l2,4.17A99.76,99.76,0,0,1,39.55,72.1Zm25-22.56a43,43,0,0,0,4.61,9.5l.09-.1a2.09,2.09,0,0,1,.34-.33,76.43,76.43,0,0,0,7.11-8.11l4.36,3.31a64.51,64.51,0,0,1-9.36,8.74A40.26,40.26,0,0,0,82,68.3l-3.46,4.32a41.77,41.77,0,0,1-16.8-17.81V72.38c0,3.36-1.15,4.33-5.33,4.33A52,52,0,0,1,50,76.37l-1.3-5a50.13,50.13,0,0,0,6.72.62c.92,0,1.11-.24,1.11-1.39V44.06H37.63V39.55H56.5V31.1h5.23v8.45H72.29a38.18,38.18,0,0,0-5.42-6.24L71,31a34.86,34.86,0,0,1,5.71,6.1l-3.94,2.45h8v4.51h-19ZM48.15,57.12a54.45,54.45,0,0,0-7.54-7.87l4-3.27a50.35,50.35,0,0,1,7.68,7.63Z"/><path class="cls-4" d="M94.8,34.56c.43,2.11,1.15,4.85,2.16,8.16a26,26,0,0,1,12.43-3.22c.44-2.54.72-4.37,1-7l5.19,1c-.34,2.45-.72,4.71-1.06,6.53,3.75.91,6,2,8.21,4.18a16.66,16.66,0,0,1,4.94,12.19c0,6.05-1.92,10.46-5.8,13.49a22.55,22.55,0,0,1-10.61,4.32l-2.45-4.37a22.34,22.34,0,0,0,9.65-3.94c2.54-2.06,3.79-5.28,3.79-9.84,0-5.9-3-10-8.59-11.71-2.21,9.12-4.23,13.87-7.83,18.77-4.22,5.81-9.12,9.22-13,9.22-4.37,0-7.16-4-7.16-10.28a22.38,22.38,0,0,1,7.25-16.32c-.77-2.21-1.87-6.19-2.64-9.5Zm-4.42,27c0,3.64,1.11,5.9,2.88,5.9s3.89-1.58,6.63-4.66a78.11,78.11,0,0,1-5.38-12.29A17.14,17.14,0,0,0,90.38,61.54Zm8-14.5a74.3,74.3,0,0,0,4.76,11.42,43.87,43.87,0,0,0,5.42-14.69A19.88,19.88,0,0,0,98.35,47Z"/><path class="cls-4" d="M166.23,33.69l2.49,3.89c-8.06,4.9-15.65,9.79-21.12,13.54a28.68,28.68,0,0,1,11.62-2.4c9.6,0,15.6,4.75,15.6,12.38a12.29,12.29,0,0,1-7.34,11.33C164.26,74,159.12,75,154.32,75c-8.06,0-12.53-2.78-12.53-7.82,0-4.18,4.08-7.49,9.32-7.49,5.76,0,9.64,3.41,11.13,9.89,4.8-1.54,7.2-4.42,7.2-8.5,0-5.23-4-8.4-10.56-8.4-4.65,0-9.84,1-12.67,2.4a52,52,0,0,0-7.83,5.14l-3.31-4a190.31,190.31,0,0,1,25-18H139.92V33.69Zm-15.08,30.2c-2.49,0-4.46,1.49-4.46,3.41,0,2.16,2.88,3.4,7.73,3.4a28.84,28.84,0,0,0,3.26-.19C156.58,66.05,154.47,63.89,151.15,63.89Z"/><path class="cls-4" d="M205.68,38.21c-.14,13.39,7.83,26.4,20.21,33l-3.26,5c-9.12-5.61-16.52-15-19.35-24.58a39.58,39.58,0,0,1-19.1,25l-3.6-4.47c12.38-5.9,19.73-18.62,19.49-33.65v-7h5.61Z"/><path class="cls-4" d="M236.64,55.1a58.76,58.76,0,0,1-6,12.48l-2.88-5a52.06,52.06,0,0,0,8.4-16.7h-7.54V41.18h8V31.1h5.09V41.18h5.38v4.66h-5.38v3.69a54.12,54.12,0,0,1,7.87,7.16L246.67,61a46,46,0,0,0-4.94-5.95V76.71h-5.09Zm25.54-3.89a46.06,46.06,0,0,1-14.45,17.43L244.37,65c6.48-4.37,11.9-11,15.75-19.15H248.79V41.18h13.39V31.1h5V41.18h6.67v4.66h-6.67V71.57c0,3.55-1.2,4.56-5.28,4.56-2.16,0-4.66-.15-6.62-.34l-.92-4.89c1.83.19,4.61.33,6.2.33,1.39,0,1.63-.24,1.63-1.63Z"/></g></g></svg>