<svg xmlns="http://www.w3.org/2000/svg" viewBox="0 0 100 24"><defs><style>.cls-1{fill:#182b7b;}.cls-2{fill:#fff;}</style></defs><title>rec_img08</title><g id="Layer_2" data-name="Layer 2"><g id="デザイン"><rect class="cls-1" width="100" height="24"/></g><g id="テキスト"><path class="cls-2" d="M22,16a5.6,5.6,0,0,1-4.62,2.42,7.44,7.44,0,0,1-5.7-2.34A8.34,8.34,0,0,1,9.55,10c0-5,3.36-8.48,8.16-8.48a8.74,8.74,0,0,1,5.88,2.06L22.15,5.4a6.33,6.33,0,0,0-4.42-1.62c-3.3,0-5.4,2.44-5.4,6.28,0,3.62,2.16,6.12,5.26,6.12a5.2,5.2,0,0,0,4.28-2.44V11.86H17.51v-2h6.74v8.36H22.37Z"/><path class="cls-2" d="M36.09,10.26c0-1.5-1-2.3-2.78-2.3A6.15,6.15,0,0,0,29.45,9.2L28.39,7.58a8.76,8.76,0,0,1,5-1.6c3.32,0,5,1.58,5,4.64v3.94a8.06,8.06,0,0,0,.68,3.54H36.89a7.74,7.74,0,0,1-.56-2h-.08a5.12,5.12,0,0,1-1.68,1.66,4.91,4.91,0,0,1-2.64.64,3.77,3.77,0,0,1-4.06-3.72c0-2.62,2.28-4,6.58-4h1.64Zm-1,2.06c-3.18,0-4.62.7-4.62,2.26,0,1.12.88,1.86,2.2,1.86a3.38,3.38,0,0,0,3.44-3.14v-1Z"/><path class="cls-2" d="M46,1V15.66c0,.32.14.46.44.46h1.62l-.28,2H45.59A1.86,1.86,0,0,1,43.47,16V1Z"/><path class="cls-2" d="M54.19,1V15.66c0,.32.14.46.44.46h1.62l-.28,2H53.79A1.86,1.86,0,0,1,51.67,16V1Z"/><path class="cls-2" d="M61.27,12.62A3.55,3.55,0,0,0,65,16.38a4.69,4.69,0,0,0,3.76-1.78l1.38,1.6a6.83,6.83,0,0,1-5.34,2.26,5.77,5.77,0,0,1-6.16-6.16C58.67,8.56,61.11,6,64.59,6c3.26,0,5.56,2.46,5.56,5.94v.72Zm6.28-1.78a3,3,0,0,0-3.06-3,3.28,3.28,0,0,0-3.18,3Z"/><path class="cls-2" d="M76.65,9.58c.72-2.44,2-3.58,3.92-3.58a3.51,3.51,0,0,1,1.62.34l-.68,2.28a3.4,3.4,0,0,0-1.22-.2c-1.82,0-3.16,1.5-3.56,4V18.1h-2.5V6.3h2.42l-.08,3.28Z"/><path class="cls-2" d="M86.47,6.3l2.46,7.36.18.52c.1.3.2.62.32.92s.14.44.26.78h.06l0-.06c.4-1,.46-1.18.78-2.1l2.5-7.42h2.78L90.59,19.56c-.88,2.2-2.18,3-4.76,3H85l-.68-2h1.14c1.54,0,2.22-.34,2.58-1.28l.42-1.08-4.86-12Z"/></g></g></svg>