<svg xmlns="http://www.w3.org/2000/svg" xmlns:xlink="http://www.w3.org/1999/xlink" viewBox="0 0 304.54 30.64"><defs><style>.cls-1{fill:none;}.cls-2{clip-path:url(#clip-path);}.cls-3{fill:#a3a3a3;}.cls-4{clip-path:url(#clip-path-2);}.cls-5{fill:#b80f52;}.cls-6{fill:#182b7b;}</style><clipPath id="clip-path" transform="translate(0 0)"><rect class="cls-1" width="30" height="30"/></clipPath><clipPath id="clip-path-2" transform="translate(0 0)"><circle class="cls-1" cx="15" cy="32.5" r="15"/></clipPath></defs><title>svg-img-sp-02</title><g id="Layer_2" data-name="Layer 2"><g id="テキスト"><g class="cls-2"><path class="cls-3" d="M15,3A12,12,0,1,1,3,15,12,12,0,0,1,15,3m0-3A15,15,0,1,0,30,15,15,15,0,0,0,15,0Z" transform="translate(0 0)"/><g class="cls-4"><path class="cls-5" d="M15,3A12,12,0,1,1,3,15,12,12,0,0,1,15,3m0-3A15,15,0,1,0,30,15,15,15,0,0,0,15,0Z" transform="translate(0 0)"/></g></g><path class="cls-6" d="M46.48,9.94l3.3,7.46A24.23,24.23,0,0,1,51,20.76h.08A22.51,22.51,0,0,1,52.3,17.4l3.3-7.46h3.76v16.2H56.88V17.86c0-1.62.06-4.64.12-5.84h-.08a49.67,49.67,0,0,1-1.82,4.8l-3,6.6H50l-3-6.6A44.53,44.53,0,0,1,45.16,12h-.08c.08,1.66.12,3.66.12,5.84v8.28H42.72V9.94Z" transform="translate(0 0)"/><path class="cls-6" d="M71.46,9.86l6.38,16.28H75L73.34,21.7H66.72l-1.66,4.44H62.22L68.6,9.86Zm-.36,5.5c-.32-.88-.9-2.6-1-3.14H70c-.16.64-.62,2-1,3.14l-1.56,4.26h5.22Z" transform="translate(0 0)"/><path class="cls-6" d="M94.32,24.3a8.55,8.55,0,0,1-6.06,2.18c-4.84,0-8.14-3.4-8.14-8.4s3.36-8.48,8-8.48a8.3,8.3,0,0,1,5.76,2.1l-1.36,1.86a5.73,5.73,0,0,0-4.36-1.74c-3.06,0-5.24,2.62-5.24,6.28a6.75,6.75,0,0,0,1.16,4,5.32,5.32,0,0,0,4.16,2.12A6.58,6.58,0,0,0,93,22.34Z" transform="translate(0 0)"/><path class="cls-6" d="M100.8,9.94v6.62h8V9.94h2.56v16.2h-2.56V18.82h-8v7.32H98.24V9.94Z" transform="translate(0 0)"/><path class="cls-6" d="M122.34,9.94v1.94h-2.2V24.2h2.2v1.94h-7V24.2h2.2V11.88h-2.2V9.94Z" transform="translate(0 0)"/><path class="cls-6" d="M129.82,9.94l5.2,8.54.14.22A34.47,34.47,0,0,1,137,22.2h.08c-.06-1.36-.1-3.84-.1-5.36V9.94h2.5v16.2h-2.56l-6.16-9.92a36.87,36.87,0,0,1-2-3.64h-.1c.1,1.34.16,3.5.16,5.72v7.84h-2.5V9.94Z" transform="translate(0 0)"/><path class="cls-6" d="M155.36,9.94v2.18h-8.48v4.6h7.5v2.12h-7.5v5.08h8.78v2.22H144.32V9.94Z" transform="translate(0 0)"/><path class="cls-6" d="M175.54,9.46,168,30.64l-1.36-.42L174.18,9Z" transform="translate(0 0)"/><path class="cls-6" d="M193.14,9.94a8.32,8.32,0,0,1,4.06.86,4.6,4.6,0,0,1,2.38,4.1c0,3.54-2.16,5.3-6.56,5.3h-3v5.94h-2.56V9.94ZM190,18.12h2.72c3,0,4.12-.88,4.12-3.14a2.72,2.72,0,0,0-1.16-2.32A5.25,5.25,0,0,0,193,12.1h-3Z" transform="translate(0 0)"/><path class="cls-6" d="M209.68,9.94c3.82,0,6.06,1.64,6.06,4.42a3.72,3.72,0,0,1-1.64,3.2,6.83,6.83,0,0,1-2.74.94v.06c1.8.56,2.72,1.8,5.62,7.58h-3.12c-2.38-5.64-3.24-6.66-5.76-6.72h-1.9v6.72h-2.58V9.94Zm-3.48,7.42h2.72c2.6,0,4-1,4-2.78S211.64,12,209.2,12h-3Z" transform="translate(0 0)"/><path class="cls-6" d="M235.32,18c0,5-3.24,8.46-7.92,8.46S219.48,23,219.48,18s3.28-8.42,7.92-8.42S235.32,13.08,235.32,18Zm-13.06,0c0,3.7,2.08,6.22,5.14,6.22s5.14-2.52,5.14-6.22-2.1-6.24-5.14-6.24S222.26,14.32,222.26,18Z" transform="translate(0 0)"/><path class="cls-6" d="M244.5,9.94c5.42,0,8.68,3,8.68,8.08a7.63,7.63,0,0,1-3.48,6.86,10,10,0,0,1-5.34,1.26H239V9.94Zm-2.9,14H244c4.08,0,6.4-2.12,6.4-5.88s-2.22-5.9-6.3-5.9H241.6Z" transform="translate(0 0)"/><path class="cls-6" d="M259.88,9.94V20a4.22,4.22,0,0,0,.74,2.64,3.89,3.89,0,0,0,3.24,1.54,4.07,4.07,0,0,0,3.2-1.48,4.25,4.25,0,0,0,.78-2.7V9.94h2.58V20.52a5.53,5.53,0,0,1-1.12,3.6,6.73,6.73,0,0,1-5.44,2.38,6.81,6.81,0,0,1-5.5-2.44,5.57,5.57,0,0,1-1.06-3.54V9.94Z" transform="translate(0 0)"/><path class="cls-6" d="M288.64,24.3a8.55,8.55,0,0,1-6.06,2.18c-4.84,0-8.14-3.4-8.14-8.4s3.36-8.48,8-8.48a8.3,8.3,0,0,1,5.76,2.1l-1.36,1.86a5.73,5.73,0,0,0-4.36-1.74c-3.06,0-5.24,2.62-5.24,6.28a6.75,6.75,0,0,0,1.16,4,5.32,5.32,0,0,0,4.16,2.12,6.58,6.58,0,0,0,4.78-1.86Z" transform="translate(0 0)"/><path class="cls-6" d="M304.54,9.94v2.28H299V26.14h-2.62V12.22h-5.56V9.94Z" transform="translate(0 0)"/></g></g></svg>