<svg xmlns="http://www.w3.org/2000/svg" xmlns:xlink="http://www.w3.org/1999/xlink" viewBox="0 0 390.82 30"><defs><style>.cls-1{fill:none;}.cls-2{clip-path:url(#clip-path);}.cls-3{fill:#a3a3a3;}.cls-4{clip-path:url(#clip-path-2);}.cls-5{fill:#b80f52;}.cls-6{fill:#182b7b;}</style><clipPath id="clip-path" transform="translate(0)"><rect class="cls-1" width="30" height="30"/></clipPath><clipPath id="clip-path-2" transform="translate(0)"><circle class="cls-1" cx="15" cy="32.5" r="15"/></clipPath></defs><title>svg-img-sp-01</title><g id="Layer_2" data-name="Layer 2"><g id="テキスト"><g class="cls-2"><path class="cls-3" d="M15,3A12,12,0,1,1,3,15,12,12,0,0,1,15,3m0-3A15,15,0,1,0,30,15,15,15,0,0,0,15,0Z" transform="translate(0)"/><g class="cls-4"><path class="cls-5" d="M15,3A12,12,0,1,1,3,15,12,12,0,0,1,15,3m0-3A15,15,0,1,0,30,15,15,15,0,0,0,15,0Z" transform="translate(0)"/></g></g><path class="cls-6" d="M56.78,26.36h-2.4l-2.46-8.44a31.47,31.47,0,0,1-.8-3.46H51a24.13,24.13,0,0,1-.78,3.46L47.8,26.36H45.42L41.08,9.94h2.66l2.16,8.64c.26,1.08.44,1.94.86,4.12h.08a38,38,0,0,1,.88-4L50,11.24h2.14l2.3,7.48c.28,1,.48,1.84.9,4h.08c.26-1.54.6-3.18.84-4.12l2.18-8.64H61.1Z" transform="translate(0)"/><path class="cls-6" d="M79,18c0,5-3.24,8.46-7.92,8.46S63.12,23,63.12,18,66.4,9.6,71,9.6,79,13.08,79,18ZM65.9,18c0,3.7,2.08,6.22,5.14,6.22S76.18,21.7,76.18,18s-2.1-6.24-5.14-6.24S65.9,14.32,65.9,18Z" transform="translate(0)"/><path class="cls-6" d="M88.9,9.94c3.82,0,6.06,1.64,6.06,4.42a3.72,3.72,0,0,1-1.64,3.2,6.83,6.83,0,0,1-2.74.94v.06c1.8.56,2.72,1.8,5.62,7.58H93.08c-2.38-5.64-3.24-6.66-5.76-6.72h-1.9v6.72H82.84V9.94Zm-3.48,7.42h2.72c2.6,0,4-1,4-2.78S90.86,12,88.42,12h-3Z" transform="translate(0)"/><path class="cls-6" d="M102.32,9.94V23.86H110v2.28H99.68V9.94Z" transform="translate(0)"/><path class="cls-6" d="M118.52,9.94c5.42,0,8.68,3,8.68,8.08a7.63,7.63,0,0,1-3.48,6.86,10,10,0,0,1-5.34,1.26H113V9.94Zm-2.9,14H118c4.08,0,6.4-2.12,6.4-5.88s-2.22-5.9-6.3-5.9h-2.52Z" transform="translate(0)"/><path class="cls-6" d="M133.84,8.54v1.6a7.29,7.29,0,0,1-1.62,4.6h-1.38a6,6,0,0,0,1.34-3.2h-1.34v-3Z" transform="translate(0)"/><path class="cls-6" d="M142.58,21.88a6.91,6.91,0,0,0,5.36,2.34c2.12,0,3.32-.84,3.32-2.34s-.88-2.24-3.3-3l-1.42-.42a11.34,11.34,0,0,1-2.84-1.22,3.48,3.48,0,0,1-1.66-3c0-2.92,2.14-4.62,5.78-4.62a9.13,9.13,0,0,1,5.44,1.82l-1.18,1.86a6.68,6.68,0,0,0-4.3-1.52c-1.92,0-3.06.82-3.06,2.2s.7,1.82,3.18,2.56l1.56.46c3.1.92,4.58,2.46,4.58,4.78a4.32,4.32,0,0,1-2,3.66,8.08,8.08,0,0,1-4.22,1,8.68,8.68,0,0,1-6.62-2.78Z" transform="translate(0)"/><path class="cls-6" d="M177.3,9.94v2.22h-8.24v4.78h7.26v2.12h-7.26v7.08H166.5V9.94Z" transform="translate(0)"/><path class="cls-6" d="M188.6,9.86,195,26.14h-2.84l-1.66-4.44h-6.62l-1.66,4.44h-2.84l6.38-16.28Zm-.36,5.5c-.32-.88-.9-2.6-1-3.14h-.08c-.16.64-.62,2-1,3.14l-1.56,4.26h5.22Z" transform="translate(0)"/><path class="cls-6" d="M198.26,21.88a6.91,6.91,0,0,0,5.36,2.34c2.12,0,3.32-.84,3.32-2.34s-.88-2.24-3.3-3l-1.42-.42a11.34,11.34,0,0,1-2.84-1.22,3.48,3.48,0,0,1-1.66-3c0-2.92,2.14-4.62,5.78-4.62a9.13,9.13,0,0,1,5.44,1.82l-1.18,1.86a6.68,6.68,0,0,0-4.3-1.52c-1.92,0-3.06.82-3.06,2.2s.7,1.82,3.18,2.56l1.56.46c3.1.92,4.58,2.46,4.58,4.78a4.32,4.32,0,0,1-2,3.66,8.08,8.08,0,0,1-4.22,1,8.68,8.68,0,0,1-6.62-2.78Z" transform="translate(0)"/><path class="cls-6" d="M225.9,9.94v2.28h-5.54V26.14h-2.62V12.22h-5.56V9.94Z" transform="translate(0)"/><path class="cls-6" d="M240,9.94v2.18h-8.48v4.6h7.5v2.12h-7.5v5.08h8.78v2.22H229V9.94Z" transform="translate(0)"/><path class="cls-6" d="M244.58,21.88a6.91,6.91,0,0,0,5.36,2.34c2.12,0,3.32-.84,3.32-2.34s-.88-2.24-3.3-3l-1.42-.42a11.34,11.34,0,0,1-2.84-1.22,3.48,3.48,0,0,1-1.66-3c0-2.92,2.14-4.62,5.78-4.62a9.13,9.13,0,0,1,5.44,1.82l-1.18,1.86a6.68,6.68,0,0,0-4.3-1.52c-1.92,0-3.06.82-3.06,2.2s.7,1.82,3.18,2.56l1.56.46c3.1.92,4.58,2.46,4.58,4.78a4.32,4.32,0,0,1-2,3.66,8.08,8.08,0,0,1-4.22,1,8.68,8.68,0,0,1-6.62-2.78Z" transform="translate(0)"/><path class="cls-6" d="M272.22,9.94v2.28h-5.54V26.14h-2.62V12.22H258.5V9.94Z" transform="translate(0)"/><path class="cls-6" d="M296.92,24.3a8.55,8.55,0,0,1-6.06,2.18c-4.84,0-8.14-3.4-8.14-8.4s3.36-8.48,8-8.48a8.3,8.3,0,0,1,5.76,2.1l-1.36,1.86a5.73,5.73,0,0,0-4.36-1.74c-3.06,0-5.24,2.62-5.24,6.28a6.75,6.75,0,0,0,1.16,4,5.32,5.32,0,0,0,4.16,2.12,6.58,6.58,0,0,0,4.78-1.86Z" transform="translate(0)"/><path class="cls-6" d="M303.4,9.94V20a4.22,4.22,0,0,0,.74,2.64,3.89,3.89,0,0,0,3.24,1.54,4.07,4.07,0,0,0,3.2-1.48,4.25,4.25,0,0,0,.78-2.7V9.94h2.58V20.52a5.53,5.53,0,0,1-1.12,3.6,6.73,6.73,0,0,1-5.44,2.38,6.81,6.81,0,0,1-5.5-2.44,5.57,5.57,0,0,1-1.06-3.54V9.94Z" transform="translate(0)"/><path class="cls-6" d="M330.7,9.94v2.28h-5.54V26.14h-2.62V12.22H317V9.94Z" transform="translate(0)"/><path class="cls-6" d="M345.74,9.94v2.28H340.2V26.14h-2.62V12.22H332V9.94Z" transform="translate(0)"/><path class="cls-6" d="M355,9.94v1.94h-2.2V24.2H355v1.94h-7V24.2h2.2V11.88h-2.2V9.94Z" transform="translate(0)"/><path class="cls-6" d="M362.5,9.94l5.2,8.54.14.22a34.47,34.47,0,0,1,1.86,3.5h.08c-.06-1.36-.1-3.84-.1-5.36V9.94h2.5v16.2h-2.56l-6.16-9.92a36.87,36.87,0,0,1-2-3.64h-.1c.1,1.34.16,3.5.16,5.72v7.84h-2.5V9.94Z" transform="translate(0)"/><path class="cls-6" d="M388.58,24.06A5.6,5.6,0,0,1,384,26.48a7.44,7.44,0,0,1-5.7-2.34,8.34,8.34,0,0,1-2.14-6.06c0-5,3.36-8.48,8.16-8.48a8.74,8.74,0,0,1,5.88,2.06l-1.44,1.78a6.33,6.33,0,0,0-4.42-1.62c-3.3,0-5.4,2.44-5.4,6.28,0,3.62,2.16,6.12,5.26,6.12a5.2,5.2,0,0,0,4.28-2.44V19.9h-4.36v-2h6.74v8.36h-1.88Z" transform="translate(0)"/></g></g></svg>