<svg xmlns="http://www.w3.org/2000/svg" xmlns:xlink="http://www.w3.org/1999/xlink" viewBox="0 0 370.96 30"><defs><style>.cls-1{fill:none;}.cls-2{clip-path:url(#clip-path);}.cls-3{fill:#a3a3a3;}.cls-4{clip-path:url(#clip-path-2);}.cls-5{fill:#b80f52;}.cls-6{fill:#182b7b;}</style><clipPath id="clip-path" transform="translate(0 0)"><rect class="cls-1" width="30" height="30"/></clipPath><clipPath id="clip-path-2" transform="translate(0 0)"><circle class="cls-1" cx="15" cy="32.5" r="15"/></clipPath></defs><title>svg-img-sp-03</title><g id="Layer_2" data-name="Layer 2"><g id="テキスト"><g class="cls-2"><path class="cls-3" d="M15,3A12,12,0,1,1,3,15,12,12,0,0,1,15,3m0-3A15,15,0,1,0,30,15,15,15,0,0,0,15,0Z" transform="translate(0 0)"/><g class="cls-4"><path class="cls-5" d="M15,3A12,12,0,1,1,3,15,12,12,0,0,1,15,3m0-3A15,15,0,1,0,30,15,15,15,0,0,0,15,0Z" transform="translate(0 0)"/></g></g><path class="cls-6" d="M56.34,24.3a8.55,8.55,0,0,1-6.06,2.18c-4.84,0-8.14-3.4-8.14-8.4s3.36-8.48,8-8.48a8.3,8.3,0,0,1,5.76,2.1l-1.36,1.86a5.73,5.73,0,0,0-4.36-1.74c-3.06,0-5.24,2.62-5.24,6.28a6.75,6.75,0,0,0,1.16,4,5.32,5.32,0,0,0,4.16,2.12A6.58,6.58,0,0,0,55,22.34Z" transform="translate(0 0)"/><path class="cls-6" d="M62.82,9.94V20a4.22,4.22,0,0,0,.74,2.64A3.89,3.89,0,0,0,66.8,24.2,4.07,4.07,0,0,0,70,22.72a4.25,4.25,0,0,0,.78-2.7V9.94h2.58V20.52a5.53,5.53,0,0,1-1.12,3.6A6.73,6.73,0,0,1,66.8,26.5a6.81,6.81,0,0,1-5.5-2.44,5.57,5.57,0,0,1-1.06-3.54V9.94Z" transform="translate(0 0)"/><path class="cls-6" d="M78.38,21.88a6.91,6.91,0,0,0,5.36,2.34c2.12,0,3.32-.84,3.32-2.34s-.88-2.24-3.3-3l-1.42-.42a11.34,11.34,0,0,1-2.84-1.22,3.48,3.48,0,0,1-1.66-3c0-2.92,2.14-4.62,5.78-4.62a9.13,9.13,0,0,1,5.44,1.82l-1.18,1.86a6.68,6.68,0,0,0-4.3-1.52c-1.92,0-3.06.82-3.06,2.2s.7,1.82,3.18,2.56l1.56.46c3.1.92,4.58,2.46,4.58,4.78a4.32,4.32,0,0,1-2,3.66,8.08,8.08,0,0,1-4.22,1A8.68,8.68,0,0,1,77,23.68Z" transform="translate(0 0)"/><path class="cls-6" d="M106,9.94v2.28h-5.54V26.14H97.86V12.22H92.3V9.94Z" transform="translate(0 0)"/><path class="cls-6" d="M123.94,18c0,5-3.24,8.46-7.92,8.46S108.1,23,108.1,18,111.38,9.6,116,9.6,123.94,13.08,123.94,18Zm-13.06,0c0,3.7,2.08,6.22,5.14,6.22s5.14-2.52,5.14-6.22-2.1-6.24-5.14-6.24S110.88,14.32,110.88,18Z" transform="translate(0 0)"/><path class="cls-6" d="M131.34,9.94l3.3,7.46a24.23,24.23,0,0,1,1.22,3.36h.08a22.51,22.51,0,0,1,1.22-3.36l3.3-7.46h3.76v16.2h-2.48V17.86c0-1.62.06-4.64.12-5.84h-.08a49.67,49.67,0,0,1-1.82,4.8l-3,6.6h-2.08l-3-6.6A44.53,44.53,0,0,1,130,12h-.08c.08,1.66.12,3.66.12,5.84v8.28h-2.48V9.94Z" transform="translate(0 0)"/><path class="cls-6" d="M159.92,9.94v2.18h-8.48v4.6h7.5v2.12h-7.5v5.08h8.78v2.22H148.88V9.94Z" transform="translate(0 0)"/><path class="cls-6" d="M170.34,9.94c3.82,0,6.06,1.64,6.06,4.42a3.72,3.72,0,0,1-1.64,3.2,6.83,6.83,0,0,1-2.74.94v.06c1.8.56,2.72,1.8,5.62,7.58h-3.12c-2.38-5.64-3.24-6.66-5.76-6.72h-1.9v6.72h-2.58V9.94Zm-3.48,7.42h2.72c2.6,0,4-1,4-2.78S172.3,12,169.86,12h-3Z" transform="translate(0 0)"/><path class="cls-6" d="M201.3,9.94v2.28h-5.54V26.14h-2.62V12.22h-5.56V9.94Z" transform="translate(0 0)"/><path class="cls-6" d="M215.44,9.94v2.18H207v4.6h7.5v2.12H207v5.08h8.78v2.22H204.4V9.94Z" transform="translate(0 0)"/><path class="cls-6" d="M220,21.88a6.91,6.91,0,0,0,5.36,2.34c2.12,0,3.32-.84,3.32-2.34s-.88-2.24-3.3-3l-1.42-.42a11.34,11.34,0,0,1-2.84-1.22,3.48,3.48,0,0,1-1.66-3c0-2.92,2.14-4.62,5.78-4.62a9.13,9.13,0,0,1,5.44,1.82l-1.18,1.86a6.68,6.68,0,0,0-4.3-1.52c-1.92,0-3.06.82-3.06,2.2s.7,1.82,3.18,2.56l1.56.46c3.1.92,4.58,2.46,4.58,4.78a4.32,4.32,0,0,1-2,3.66,8.08,8.08,0,0,1-4.22,1,8.68,8.68,0,0,1-6.62-2.78Z" transform="translate(0 0)"/><path class="cls-6" d="M247.62,9.94v2.28h-5.54V26.14h-2.62V12.22H233.9V9.94Z" transform="translate(0 0)"/><path class="cls-6" d="M256.9,9.94v1.94h-2.2V24.2h2.2v1.94h-7V24.2h2.2V11.88h-2.2V9.94Z" transform="translate(0 0)"/><path class="cls-6" d="M264.54,9.94l3.3,7.46a24.23,24.23,0,0,1,1.22,3.36h.08a22.51,22.51,0,0,1,1.22-3.36l3.3-7.46h3.76v16.2h-2.48V17.86c0-1.62.06-4.64.12-5.84H275a49.67,49.67,0,0,1-1.82,4.8l-3,6.6h-2.08l-3-6.6a44.53,44.53,0,0,1-1.82-4.8h-.08c.08,1.66.12,3.66.12,5.84v8.28h-2.48V9.94Z" transform="translate(0 0)"/><path class="cls-6" d="M296.9,18c0,5-3.24,8.46-7.92,8.46S281.06,23,281.06,18,284.34,9.6,289,9.6,296.9,13.08,296.9,18Zm-13.06,0c0,3.7,2.08,6.22,5.14,6.22s5.14-2.52,5.14-6.22S292,11.76,289,11.76,283.84,14.32,283.84,18Z" transform="translate(0 0)"/><path class="cls-6" d="M304.14,9.94l5.2,8.54.14.22a34.47,34.47,0,0,1,1.86,3.5h.08c-.06-1.36-.1-3.84-.1-5.36V9.94h2.5v16.2h-2.56l-6.16-9.92a36.87,36.87,0,0,1-2-3.64H303c.1,1.34.16,3.5.16,5.72v7.84h-2.5V9.94Z" transform="translate(0 0)"/><path class="cls-6" d="M324.82,9.94v1.94h-2.2V24.2h2.2v1.94h-7V24.2h2.2V11.88h-2.2V9.94Z" transform="translate(0 0)"/><path class="cls-6" d="M336.36,9.86l6.38,16.28H339.9l-1.66-4.44h-6.62L330,26.14h-2.84L333.5,9.86Zm-.36,5.5c-.32-.88-.9-2.6-1-3.14h-.08c-.16.64-.62,2-1,3.14l-1.56,4.26h5.22Z" transform="translate(0 0)"/><path class="cls-6" d="M348.42,9.94V23.86h7.72v2.28H345.78V9.94Z" transform="translate(0 0)"/><path class="cls-6" d="M359.5,21.88a6.91,6.91,0,0,0,5.36,2.34c2.12,0,3.32-.84,3.32-2.34s-.88-2.24-3.3-3l-1.42-.42a11.34,11.34,0,0,1-2.84-1.22,3.48,3.48,0,0,1-1.66-3c0-2.92,2.14-4.62,5.78-4.62a9.13,9.13,0,0,1,5.44,1.82L369,13.32a6.68,6.68,0,0,0-4.3-1.52c-1.92,0-3.06.82-3.06,2.2s.7,1.82,3.18,2.56l1.56.46c3.1.92,4.58,2.46,4.58,4.78a4.32,4.32,0,0,1-2,3.66,8.08,8.08,0,0,1-4.22,1,8.68,8.68,0,0,1-6.62-2.78Z" transform="translate(0 0)"/></g></g></svg>