<svg xmlns="http://www.w3.org/2000/svg" xmlns:xlink="http://www.w3.org/1999/xlink" viewBox="0 0 164.04 30"><defs><style>.cls-1{fill:none;}.cls-2{clip-path:url(#clip-path);}.cls-3{fill:#a4a4a4;}.cls-4{clip-path:url(#clip-path-2);}.cls-5{fill:#b90f52;}.cls-6{fill:#182b7b;}</style><clipPath id="clip-path" transform="translate(0 0)"><rect class="cls-1" width="30" height="30"/></clipPath><clipPath id="clip-path-2" transform="translate(0 0)"><circle class="cls-1" cx="15" cy="32.5" r="15"/></clipPath></defs><title>svg-img-sp-04</title><g id="Layer_2" data-name="Layer 2"><g id="テキスト"><g class="cls-2"><path class="cls-3" d="M15,3A12,12,0,1,1,3,15,12,12,0,0,1,15,3m0-3A15,15,0,1,0,30,15,15,15,0,0,0,15,0Z" transform="translate(0 0)"/><g class="cls-4"><path class="cls-5" d="M15,3A12,12,0,1,1,3,15,12,12,0,0,1,15,3m0-3A15,15,0,1,0,30,15,15,15,0,0,0,15,0Z" transform="translate(0 0)"/></g></g><path class="cls-6" d="M56.34,24.3a8.55,8.55,0,0,1-6.06,2.18c-4.84,0-8.14-3.4-8.14-8.4s3.36-8.48,8-8.48a8.3,8.3,0,0,1,5.76,2.1l-1.36,1.86a5.73,5.73,0,0,0-4.36-1.74c-3.06,0-5.24,2.62-5.24,6.28a6.75,6.75,0,0,0,1.16,4,5.32,5.32,0,0,0,4.16,2.12A6.58,6.58,0,0,0,55,22.34Z" transform="translate(0 0)"/><path class="cls-6" d="M75.12,18c0,5-3.24,8.46-7.92,8.46S59.28,23,59.28,18,62.56,9.6,67.2,9.6,75.12,13.08,75.12,18ZM62.06,18c0,3.7,2.08,6.22,5.14,6.22S72.34,21.7,72.34,18s-2.1-6.24-5.14-6.24S62.06,14.32,62.06,18Z" transform="translate(0 0)"/><path class="cls-6" d="M82.52,9.94l3.3,7.46A24.23,24.23,0,0,1,87,20.76h.08a22.51,22.51,0,0,1,1.22-3.36l3.3-7.46H95.4v16.2H92.92V17.86c0-1.62.06-4.64.12-5.84H93a49.67,49.67,0,0,1-1.82,4.8l-3,6.6H86l-3-6.6A44.53,44.53,0,0,1,81.2,12h-.08c.08,1.66.12,3.66.12,5.84v8.28H78.76V9.94Z" transform="translate(0 0)"/><path class="cls-6" d="M105.88,9.94a8.32,8.32,0,0,1,4.06.86,4.6,4.6,0,0,1,2.38,4.1c0,3.54-2.16,5.3-6.56,5.3h-3v5.94h-2.56V9.94Zm-3.16,8.18h2.72c3,0,4.12-.88,4.12-3.14a2.72,2.72,0,0,0-1.16-2.32,5.25,5.25,0,0,0-2.68-.56h-3Z" transform="translate(0 0)"/><path class="cls-6" d="M123.78,9.86l6.38,16.28h-2.84l-1.66-4.44H119l-1.66,4.44h-2.84l6.38-16.28Zm-.36,5.5c-.32-.88-.9-2.6-1-3.14h-.08c-.16.64-.62,2-1,3.14l-1.56,4.26H125Z" transform="translate(0 0)"/><path class="cls-6" d="M136.62,9.94l5.2,8.54.14.22a34.47,34.47,0,0,1,1.86,3.5h.08c-.06-1.36-.1-3.84-.1-5.36V9.94h2.5v16.2h-2.56l-6.16-9.92a36.87,36.87,0,0,1-2-3.64h-.1c.1,1.34.16,3.5.16,5.72v7.84h-2.5V9.94Z" transform="translate(0 0)"/><path class="cls-6" d="M152.46,9.94l4.18,6.68,4.18-6.68H164l-6.1,8.88v7.32h-2.58V18.82l-6.12-8.88Z" transform="translate(0 0)"/></g></g></svg>