<svg xmlns="http://www.w3.org/2000/svg" xmlns:xlink="http://www.w3.org/1999/xlink" viewBox="0 0 145.08 37.99"><defs><style>.cls-1{fill:none;}.cls-2{clip-path:url(#clip-path);}.cls-3{fill:#1b307a;}.cls-4{clip-path:url(#clip-path-2);}.cls-5{fill:#be0f52;}.cls-6{fill:#a9a9a9;}.cls-7{fill:#182b7b;}</style><clipPath id="clip-path"><rect class="cls-1" width="30" height="30"/></clipPath><clipPath id="clip-path-2"><circle class="cls-1" cx="15" cy="32.5" r="15"/></clipPath></defs><title>Asset 1</title><g id="Layer_2" data-name="Layer 2"><g id="デザイン"><g class="cls-2"><path class="cls-3" d="M15,3A12,12,0,1,1,3,15,12,12,0,0,1,15,3m0-3A15,15,0,1,0,30,15,15,15,0,0,0,15,0Z"/><g class="cls-4"><path class="cls-5" d="M15,3A12,12,0,1,1,3,15,12,12,0,0,1,15,3m0-3A15,15,0,1,0,30,15,15,15,0,0,0,15,0Z"/></g></g></g><g id="テキスト"><path class="cls-6" d="M51.44,29.72v1h-1.1v6.16h1.1v1H48v-1h1.1V30.69H48v-1Z"/><path class="cls-6" d="M56.18,29.72,58.78,34l.07.11a17.24,17.24,0,0,1,.93,1.75h0c0-.68,0-1.92,0-2.68V29.72H61v8.1H59.74l-3.08-5a18.43,18.43,0,0,1-1-1.82h0c0,.67.08,1.75.08,2.86v3.92H54.46v-8.1Z"/><path class="cls-6" d="M69.84,29.72v1.11H65.72v2.39h3.63v1.06H65.72v3.54H64.44v-8.1Z"/><path class="cls-6" d="M80.18,33.76a4,4,0,1,1-7.92,0,4,4,0,1,1,7.92,0Zm-6.53,0c0,1.85,1,3.11,2.57,3.11s2.57-1.26,2.57-3.11-1.05-3.12-2.57-3.12S73.65,31.91,73.65,33.75Z"/><path class="cls-6" d="M86.15,29.72c1.91,0,3,.82,3,2.21a1.86,1.86,0,0,1-.82,1.6A3.41,3.41,0,0,1,87,34v0c.9.28,1.36.9,2.81,3.79H88.24c-1.19-2.82-1.62-3.33-2.88-3.36h-1v3.36H83.12v-8.1Zm-1.74,3.71h1.36c1.3,0,2-.48,2-1.39s-.64-1.28-1.86-1.28h-1.5Z"/><path class="cls-6" d="M94.33,29.72,96,33.45a12.11,12.11,0,0,1,.61,1.68h0a11.25,11.25,0,0,1,.61-1.68l1.65-3.73h1.88v8.1H99.53V33.68c0-.81,0-2.32.06-2.92h0a24.83,24.83,0,0,1-.91,2.4l-1.51,3.3h-1l-1.51-3.3a22.26,22.26,0,0,1-.91-2.4h0c0,.83.06,1.83.06,2.92v4.14H92.45v-8.1Z"/><path class="cls-6" d="M107.82,29.68,111,37.82h-1.42l-.83-2.22h-3.31l-.83,2.22H103.2l3.19-8.14Zm-.18,2.75c-.16-.44-.45-1.3-.51-1.57h0c-.08.32-.31,1-.51,1.57l-.78,2.13h2.61Z"/><path class="cls-6" d="M119.52,29.72v1.14h-2.77v7h-1.31v-7h-2.78V29.72Z"/><path class="cls-6" d="M125.16,29.72v1h-1.1v6.16h1.1v1h-3.48v-1h1.1V30.69h-1.1v-1Z"/><path class="cls-6" d="M135.62,33.76a4,4,0,1,1-7.92,0,4,4,0,1,1,7.92,0Zm-6.53,0c0,1.85,1,3.11,2.57,3.11s2.57-1.26,2.57-3.11-1-3.12-2.57-3.12S129.09,31.91,129.09,33.75Z"/><path class="cls-6" d="M140.24,29.72l2.6,4.27.07.11a17.24,17.24,0,0,1,.93,1.75h0c0-.68,0-1.92,0-2.68V29.72h1.25v8.1H143.8l-3.08-5a18.43,18.43,0,0,1-1-1.82h-.05c.05.67.08,1.75.08,2.86v3.92h-1.25v-8.1Z"/><path class="cls-7" d="M56.88,22.64l.79-2.73a7.58,7.58,0,0,0,3.23.79,4.13,4.13,0,0,0,2.69-.81,2.76,2.76,0,0,0,1-2.28A2.91,2.91,0,0,0,63.17,15a7.42,7.42,0,0,0-3.94-.89,18.77,18.77,0,0,0-3.31.32v6.46A2.49,2.49,0,0,1,54.79,23a4.82,4.82,0,0,1-2.83.79A5.94,5.94,0,0,1,48,22.47,4.32,4.32,0,0,1,46.41,19a5.37,5.37,0,0,1,1.64-3.8,11.36,11.36,0,0,1,4.46-2.73v-3H47V6.76h5.52V3h3.41V6.76h5.7V9.51h-5.7V11.6a20.81,20.81,0,0,1,3.27-.26,11.51,11.51,0,0,1,6.39,1.6A5.13,5.13,0,0,1,68,17.5,5.8,5.8,0,0,1,66.19,22a7,7,0,0,1-4.93,1.67A8.93,8.93,0,0,1,56.88,22.64Zm-4.37-7.19q-3,1.46-3,3.45a1.74,1.74,0,0,0,.7,1.4,2.51,2.51,0,0,0,1.63.57c.47,0,.7-.23.7-.67ZM69,9.22l-2.52,2a33.78,33.78,0,0,0-3-3.13,32.8,32.8,0,0,0-3.31-2.85l2-2.06a21.59,21.59,0,0,1,3.51,2.68A30.32,30.32,0,0,1,69,9.22Z"/><path class="cls-7" d="M76.72,18.16a12,12,0,0,1-5.25,5.71l-1.56-2.41a11.1,11.1,0,0,0,3.3-3.25,10.48,10.48,0,0,0,1.37-3.68h-4.1V11.94h4.26V8.13h-.43a16.07,16.07,0,0,1-1.88,3.44l-2.5-1.36a25.4,25.4,0,0,0,1.82-3.92,17.57,17.57,0,0,0,1.06-3.74L76,3c-.22.89-.46,1.73-.71,2.52h6V8.13H77.92v3.81h3.53v2.59h-3.2a12.69,12.69,0,0,0,3.56,4.85l-2.13,2.49A15,15,0,0,1,76.72,18.16ZM88.66,22H85.3v1.26H82.15V4.45h9.67v18.8H88.66ZM85.3,19.45h3.36V7H85.3Z"/><path class="cls-7" d="M99.81,23.94l-.48-3a34.92,34.92,0,0,0,9.32-.94c2.12-.63,3.19-1.66,3.19-3.09a2.81,2.81,0,0,0-1.14-2.41,5.17,5.17,0,0,0-3.13-.84,12.48,12.48,0,0,0-5.25,1.21,11.53,11.53,0,0,0-4.22,3.19l-2.56-1.51a27.92,27.92,0,0,0,2-9.94l3.46.2A25.89,25.89,0,0,1,100,13a13.47,13.47,0,0,1,3.61-1.52,14.87,14.87,0,0,1,4-.59,9.38,9.38,0,0,1,5.73,1.54,5.26,5.26,0,0,1,2.07,4.48A5.38,5.38,0,0,1,114,20.64,8.34,8.34,0,0,1,109.85,23,47.8,47.8,0,0,1,99.81,23.94ZM113.69,5.6l-1.54,3A31.12,31.12,0,0,0,106,6.83q-3.76-.72-6.29-.94l.91-2.81A67.17,67.17,0,0,1,113.69,5.6Z"/><path class="cls-7" d="M138,23.46c-2.4.08-4.46.13-6.17.13a39.66,39.66,0,0,1-6.19-.34,5,5,0,0,1-2.93-1.53,5,5,0,0,1-1.09-3.53v-7h-3.43V8.37h3.43V3.76h3.48V8.37h8c0-1.48-.1-3-.23-4.72l3.43-.21c.13,1.49.2,3.14.2,4.93h3.76v2.86h-3.82a29,29,0,0,1-.51,4.83A3.29,3.29,0,0,1,135,17.73a3.12,3.12,0,0,1-2,.62,6,6,0,0,1-2.69-.78,12.75,12.75,0,0,1-2.83-2l1.44-2.4A11.14,11.14,0,0,0,131,14.51a4.74,4.74,0,0,0,1.36.49.57.57,0,0,0,.4-.14.66.66,0,0,0,.18-.34c0-.14.07-.54.13-1.22s.11-1.37.14-2.07h-8v7.05c0,1.38.89,2.12,2.68,2.22l.37,0q1.81.09,4,.09,3.24,0,5.86-.25Z"/></g></g></svg>