<svg xmlns="http://www.w3.org/2000/svg" viewBox="0 0 540 120"><defs><style>.cls-1{fill:#dcdcdc;}.cls-2{fill:#be0f52;}.cls-3{fill:#fff;}</style></defs><title>Asset 7</title><g id="Layer_2" data-name="Layer 2"><g id="デザイン"><path class="cls-1" d="M178,2V58H2V2H178m2-2H0V60H180V0Z"/><path class="cls-1" d="M358,2V58H182V2H358m2-2H180V60H360V0Z"/><path class="cls-1" d="M538,2V58H362V2H538m2-2H360V60H540V0Z"/><path class="cls-1" d="M178,62v56H2V62H178m2-2H0v60H180V60Z"/><path class="cls-1" d="M358,62v56H182V62H358m2-2H180v60H360V60Z"/><path class="cls-1" d="M538,62v56H362V62H538m2-2H360v60H540V60Z"/><rect class="cls-2" x="150" y="57" width="60" height="6"/><rect class="cls-2" x="150" y="57" width="60" height="6" transform="translate(240 -120) rotate(90)"/><rect class="cls-2" x="330" y="57" width="60" height="6"/><rect class="cls-2" x="330" y="57" width="60" height="6" transform="translate(420 -300) rotate(90)"/></g><g id="テキスト"><path class="cls-3" d="M79.4,27.45a19.83,19.83,0,0,0,9,10.83L86.88,40.5a21.23,21.23,0,0,1-8.76-10.3A16.31,16.31,0,0,1,69,40.57l-1.52-2C72,36.94,76,32,76.49,27.45H67.91V25.12h8.67V20h2.49v5.17h8.84v2.33Z"/><path class="cls-3" d="M109.23,35.24h-7.11v.93h7.75v1.47h-7.75v.9h9.38v1.68h-21V38.54h9.22v-.9H92.13V36.17h7.62v-.93h-7V29.43h16.46Zm2.2-8.23v1.63H90.59V27Zm-2.75-.74H93.19v-6.1h15.49ZM95.06,31.68h4.75v-1H95.06Zm0,2.29h4.75V32.89H95.06Zm.48-11.36h10.81v-1H95.54Zm0,2.29h10.81v-1H95.54Zm11.38,5.77h-4.86v1h4.86Zm0,2.22h-4.86V34h4.86Z"/><path class="cls-3" d="M251.19,28c0,6.56-.46,9.58-1.89,12.46l-2-1.7c1.16-2.26,1.62-5.34,1.62-10.76V20.46h19v1.87H251.19Zm17.16,6.56v1.78h-7.41v2.51c0,1.32-.57,1.78-2.2,1.78-1.1,0-2.09,0-3.28-.15l-.35-2a24.55,24.55,0,0,0,3,.2c.48,0,.57-.09.57-.6V36.34h-7.42V34.56h7.42v-.88a19,19,0,0,0,3.56-1.1h-9.43V30.93h12.67l1.08,1.12a34.18,34.18,0,0,1-5.59,2.36v.15Zm-2.48-4.73H253V23.36h12.83Zm-10.5-4h8.19v-1h-8.19Zm0,2.46h8.19v-1h-8.19Z"/><path class="cls-3" d="M279.75,19.73h2.35v2.79h8.36V38.15c0,1.65-.59,2.18-2.46,2.18-1,0-2.2-.07-3.32-.16l-.49-2.26a21.72,21.72,0,0,0,3.24.26c.55,0,.66-.11.66-.66V24.57h-6.21a7.73,7.73,0,0,1-.22.86,33.53,33.53,0,0,1,6.16,3.72l-1.38,1.63c-1.59-1.21-3.52-2.51-5.5-3.72a10.26,10.26,0,0,1-5.51,4.27l-1.31-1.72c3-.9,5-2.71,5.5-5h-5.7V40.63h-2.38V22.52h8.21Zm1.14,13.64a9.61,9.61,0,0,1-5.43,4.12l-1.34-1.83c3.45-1,5.3-3,5.78-6.38l2.25.2a9.16,9.16,0,0,1-.49,2.22,40,40,0,0,1,6,3.54L286,37a37.39,37.39,0,0,0-4.4-3.17Z"/><path class="cls-3" d="M427.27,38.7a27.21,27.21,0,0,0,4.36-5.94l1.5,1.58A29.36,29.36,0,0,1,429,40.52Zm3.28-6a18.63,18.63,0,0,0-3.19-2.82l1.39-1.63a17.53,17.53,0,0,1,3.32,2.71Zm2.62-12.94h2.31v1.48h4.64V19.73h2.36v1.48h5.59V23h-5.59v.92h-2.36V23h-4.64v1.38h-2.31V23h-5.43V21.21h5.43Zm-1.54,8.91a22.61,22.61,0,0,0-3.1-2.92L430,24.15A17,17,0,0,1,433.17,27Zm10-1H447v5.92h-2.38v.93h3.74v1.67h-3.74v2.66c0,1.3-.59,1.81-2.18,1.81a18.82,18.82,0,0,1-2.35-.18l-.37-1.94a18,18,0,0,0,2.13.16c.44,0,.55-.11.55-.57V36.19h-5.32a13.07,13.07,0,0,1,2.37,2.44l-1.87,1.23a14.38,14.38,0,0,0-2.49-2.79l1.41-.88h-3.25V34.52h9.15v-.93h-8.16V27.67h5.23v-.94h-5.92V25.17h5.92v-.91h2.18v.91h2.47a7.12,7.12,0,0,0-.69-1.06l1.92-.48a8.59,8.59,0,0,1,1,1.54h1.52v1.56h-6.21ZM436.49,29v1h3V29Zm0,2.17v1.06h3V31.19ZM441.64,30h3.17V29h-3.17Zm0,2.24h3.17V31.19h-3.17Z"/><path class="cls-3" d="M459.75,19.73h2.35v2.79h8.36V38.15c0,1.65-.59,2.18-2.46,2.18-1,0-2.2-.07-3.32-.16l-.49-2.26a21.72,21.72,0,0,0,3.24.26c.55,0,.66-.11.66-.66V24.57h-6.21a7.73,7.73,0,0,1-.22.86,33.53,33.53,0,0,1,6.16,3.72l-1.38,1.63c-1.59-1.21-3.52-2.51-5.5-3.72a10.26,10.26,0,0,1-5.51,4.27l-1.31-1.72c3-.9,5-2.71,5.5-5h-5.7V40.63h-2.38V22.52h8.21Zm1.14,13.64a9.61,9.61,0,0,1-5.43,4.12l-1.34-1.83c3.45-1,5.3-3,5.78-6.38l2.25.2a9.16,9.16,0,0,1-.49,2.22,40,40,0,0,1,6,3.54L466,37a37.39,37.39,0,0,0-4.4-3.17Z"/><path class="cls-3" d="M67.21,94.71c1.32-2,2.51-6.11,3.1-10.67l2.46.55c-.77,5.48-1.91,9.33-3.49,11.8ZM79.18,80V97.86c0,2-.57,2.51-2.75,2.51-1,0-2.16,0-3.28-.15l-.55-2.51a27.72,27.72,0,0,0,3.28.26c.68,0,.79-.09.79-.66V80ZM86,96.1a75.11,75.11,0,0,0-3.76-11.7l2.27-1A56.43,56.43,0,0,1,88.38,94.8Z"/><path class="cls-3" d="M95.7,100.63H93.39V91.48a25,25,0,0,1-2,1.91l-1.15-2.11a25.88,25.88,0,0,0,5.7-6.8l1.92,1.15a32.25,32.25,0,0,1-2.18,3.14Zm-5.3-16a14.84,14.84,0,0,0,4.86-5l2,1.06a21,21,0,0,1-5.63,5.8Zm20.06,6.49a22.74,22.74,0,0,1-6.09-2.9,23.43,23.43,0,0,1-6.47,3.21L96.69,89.7a21.54,21.54,0,0,0,6-2.77.25.25,0,0,0-.11-.09,17.5,17.5,0,0,1-3.41-4.16H98v-2h11.24l1,1a17.94,17.94,0,0,1-4.13,5.17,18.36,18.36,0,0,0,5.45,2.27Zm-7.41-.88h2.29v2.4h5v2h-5V98h6.2v2H97V98h6.1V94.65H98.34v-2h4.71Zm-1.54-7.59a15,15,0,0,0,2.86,2.95l.28-.24A14.32,14.32,0,0,0,107,82.68Z"/><path class="cls-3" d="M254.84,88.05v10h-3.72V100h-2v-8.1c-.33.51-.66,1-1.1,1.54l-.95-2.31a21.08,21.08,0,0,0,3.46-8.44h-2.8V80.57H255v2.07h-2.32a26.23,26.23,0,0,1-1.6,5.41Zm-3.72,8h1.79V90h-1.79Zm9.51-13.64h-5.06V80.54h12.74v1.92h-5.74v1.76h5V93h-5a9.11,9.11,0,0,1-.81,3.15,23.64,23.64,0,0,0,7,2.53l-1.21,2a22.59,22.59,0,0,1-6.75-3,9.44,9.44,0,0,1-5.28,3.1l-1.12-1.73a7.9,7.9,0,0,0,4.75-2.49,24.91,24.91,0,0,1-2.4-2l1.3-1.19a17.38,17.38,0,0,0,2,1.63,7.49,7.49,0,0,0,.55-2.07h-4.77V84.22h4.86ZM257.75,86v1.76h2.88V86Zm0,3.39v1.85h2.88V89.37Zm4.82-1.63h3V86h-3Zm0,3.48h3V89.37h-3Z"/><path class="cls-3" d="M281.09,93.77A17.67,17.67,0,0,1,279,98.21a2.9,2.9,0,0,1-2.31,1.41c-1.14,0-2.2-.86-3-2.48a14.83,14.83,0,0,1-1.34-4.21,54.51,54.51,0,0,1-.44-6.8c0-.94,0-2.5.13-4.46l2.53.2c-.09,1.67-.13,2.7-.13,4.13,0,4.56.44,7.83,1.28,9.62.3.64.74,1.12,1,1.12.53,0,1.62-2,2.51-4.53Zm6.8,2.55a41.8,41.8,0,0,0-3.59-13.53l2.29-.55a35.49,35.49,0,0,1,3.81,13.49Z"/><path class="cls-3" d="M414.29,86.62A23.24,23.24,0,0,1,406.11,91l-1.45-1.65a27.66,27.66,0,0,0,7.19-3h-6.71V84.68h9.27c-1.57-.53-3.37-1.1-5.24-1.65l1.58-1H407V80.3H421.2l1.13.91a36.27,36.27,0,0,1-5.13,2.72l1.41.51.44.15.24.09h4.2l1.15,1.06a33.55,33.55,0,0,1-5.48,4.4l-1.72-1.32a23.46,23.46,0,0,0,3.46-2.38h-4.32v3.19a1.34,1.34,0,0,1-.68,1.26V92h9.35v1.84H418a25,25,0,0,0,7.44,3.79l-1.43,2a23.56,23.56,0,0,1-8.12-5.33v6.29h-2.33V94.41a19.2,19.2,0,0,1-7.92,5.63l-1.39-1.94a20.15,20.15,0,0,0,7.5-4.27h-7.41V92h9.22v-.91c-.64,0-1.25-.06-1.67-.11l-.4-1.82a16.11,16.11,0,0,0,2.24.2c.47,0,.55-.09.55-.6Zm1-3.39.09,0c.57-.25,1.74-.77,2.38-1.13h-6.25c.13,0,.24.07.33.11l2.11.66.24.09,1,.33Z"/><path class="cls-3" d="M430.16,92.6a68.17,68.17,0,0,1,1.32-8.95l2.31.44a43.47,43.47,0,0,0-1.06,6.36,12.73,12.73,0,0,1,7.22-2.6c4,0,6.27,1.89,6.27,5.21,0,4.45-3.52,6.56-11.4,6.83L434,97.66c6.93,0,9.71-1.34,9.71-4.62,0-2.07-1.46-3.3-3.88-3.3a12,12,0,0,0-7.87,3.76Zm12.25-7.87A41.69,41.69,0,0,0,433.24,82l.9-1.91a48.94,48.94,0,0,1,9.26,2.55Z"/><path class="cls-3" d="M456.2,84.48c.25-1.29.44-2.35.73-4.11l0-.31,2.36.35c-.29,1.74-.48,2.8-.75,4.07h1.7c3.27,0,4.68,1.32,4.68,4.4a25.89,25.89,0,0,1-1.38,8.76,2.82,2.82,0,0,1-2.75,2A8.62,8.62,0,0,1,457,98.48l.26-2.27a8.51,8.51,0,0,0,3.17,1c.51,0,.75-.22,1-.9a22.33,22.33,0,0,0,1.14-7.24c0-1.91-.48-2.38-2.49-2.38h-2a43.8,43.8,0,0,1-4.91,13L451,98.48a41.06,41.06,0,0,0,4.71-11.8h-4.29v-2.2Zm12.88,8.63a40.45,40.45,0,0,0-4.36-9.92l2.07-1.06a41.5,41.5,0,0,1,4.58,10Z"/><path class="cls-3" d="M484.19,93.77a17.67,17.67,0,0,1-2.14,4.44,2.9,2.9,0,0,1-2.31,1.41c-1.14,0-2.2-.86-3-2.48a14.83,14.83,0,0,1-1.34-4.21,54.51,54.51,0,0,1-.44-6.8c0-.94,0-2.5.13-4.46l2.53.2c-.09,1.67-.13,2.7-.13,4.13,0,4.56.44,7.83,1.27,9.62.31.64.75,1.12,1,1.12.52,0,1.62-2,2.51-4.53Zm6.8,2.55a41.8,41.8,0,0,0-3.59-13.53l2.29-.55a35.49,35.49,0,0,1,3.81,13.49Z"/></g></g></svg>