<svg xmlns="http://www.w3.org/2000/svg" xmlns:xlink="http://www.w3.org/1999/xlink" viewBox="0 0 213.25 30"><defs><style>.cls-1{fill:none;}.cls-2{clip-path:url(#clip-path);}.cls-3{fill:#1b307a;}.cls-4{clip-path:url(#clip-path-2);}.cls-5{fill:#be0f52;}.cls-6{fill:#fff;}</style><clipPath id="clip-path" transform="translate(0 0)"><rect class="cls-1" width="30" height="30"/></clipPath><clipPath id="clip-path-2" transform="translate(0 0)"><circle class="cls-1" cx="15" cy="32.5" r="15"/></clipPath></defs><title>top_img03</title><g id="Layer_2" data-name="Layer 2"><g id="デザイン"><g class="cls-2"><path class="cls-3" d="M15,3A12,12,0,1,1,3,15,12,12,0,0,1,15,3m0-3A15,15,0,1,0,30,15,15,15,0,0,0,15,0Z" transform="translate(0 0)"/><g class="cls-4"><path class="cls-5" d="M15,3A12,12,0,1,1,3,15,12,12,0,0,1,15,3m0-3A15,15,0,1,0,30,15,15,15,0,0,0,15,0Z" transform="translate(0 0)"/></g></g></g><g id="テキスト"><path class="cls-6" d="M62.48,22.38A12,12,0,0,1,54,25.43c-6.77,0-11.39-4.76-11.39-11.76S47.3,1.8,53.8,1.8a11.58,11.58,0,0,1,8.06,2.94L60,7.34A8,8,0,0,0,53.85,4.9c-4.28,0-7.33,3.67-7.33,8.79a9.43,9.43,0,0,0,1.62,5.58,7.44,7.44,0,0,0,5.82,3,9.22,9.22,0,0,0,6.7-2.61Z" transform="translate(0 0)"/><path class="cls-6" d="M88.77,13.58c0,7-4.54,11.85-11.09,11.85S66.59,20.58,66.59,13.58,71.18,1.8,77.68,1.8,88.77,6.67,88.77,13.58Zm-18.29,0c0,5.18,2.92,8.7,7.2,8.7s7.2-3.52,7.2-8.7-2.94-8.74-7.2-8.74S70.48,8.4,70.48,13.56Z" transform="translate(0 0)"/><path class="cls-6" d="M99.13,2.27l4.62,10.45a33.94,33.94,0,0,1,1.71,4.7h.11a30.65,30.65,0,0,1,1.71-4.7L111.9,2.27h5.26V25h-3.47V13.36c0-2.27.08-6.5.17-8.18h-.12a66.74,66.74,0,0,1-2.54,6.72L107,21.14h-2.91L99.83,11.9a61.6,61.6,0,0,1-2.55-6.72h-.11c.11,2.33.16,5.13.16,8.18V25H93.86V2.27Z" transform="translate(0 0)"/><path class="cls-6" d="M131.83,2.27a11.6,11.6,0,0,1,5.69,1.21,6.43,6.43,0,0,1,3.33,5.74c0,4.95-3,7.41-9.19,7.41h-4.25V25h-3.59V2.27Zm-4.42,11.45h3.81c4.14,0,5.76-1.23,5.76-4.39a3.8,3.8,0,0,0-1.62-3.25,7.38,7.38,0,0,0-3.75-.78h-4.2Z" transform="translate(0 0)"/><path class="cls-6" d="M156.89,2.16,165.82,25h-4l-2.33-6.21h-9.27L147.93,25h-4l8.93-22.79Zm-.5,7.7c-.45-1.23-1.26-3.64-1.43-4.4h-.11c-.23.9-.87,2.86-1.43,4.4l-2.18,6h7.3Z" transform="translate(0 0)"/><path class="cls-6" d="M174.87,2.27l7.28,12,.19.31a48.77,48.77,0,0,1,2.61,4.9h.11c-.09-1.91-.14-5.38-.14-7.51V2.27h3.5V25h-3.59l-8.62-13.89A51.69,51.69,0,0,1,173.47,6h-.14c.14,1.87.22,4.9.22,8V25h-3.5V2.27Z" transform="translate(0 0)"/><path class="cls-6" d="M197,2.27l5.85,9.35,5.86-9.35h4.5L204.71,14.7V25H201.1V14.7L192.53,2.27Z" transform="translate(0 0)"/></g></g></svg>