<svg xmlns="http://www.w3.org/2000/svg" xmlns:xlink="http://www.w3.org/1999/xlink" viewBox="0 0 300.81 30"><defs><style>.cls-1{fill:none;}.cls-2{clip-path:url(#clip-path);}.cls-3{fill:#1b307a;}.cls-4{clip-path:url(#clip-path-2);}.cls-5{fill:#be0f52;}.cls-6{fill:#fff;}</style><clipPath id="clip-path"><rect class="cls-1" width="30" height="30"/></clipPath><clipPath id="clip-path-2"><circle class="cls-1" cx="15" cy="32.5" r="15"/></clipPath></defs><title>top_img01</title><g id="Layer_2" data-name="Layer 2"><g id="デザイン"><g class="cls-2"><path class="cls-3" d="M15,3A12,12,0,1,1,3,15,12,12,0,0,1,15,3m0-3A15,15,0,1,0,30,15,15,15,0,0,0,15,0Z"/><g class="cls-4"><path class="cls-5" d="M15,3A12,12,0,1,1,3,15,12,12,0,0,1,15,3m0-3A15,15,0,1,0,30,15,15,15,0,0,0,15,0Z"/></g></g></g><g id="テキスト"><path class="cls-6" d="M64.46,13.58c0,7-4.53,11.85-11.08,11.85S42.29,20.58,42.29,13.58,46.88,1.79,53.38,1.79,64.46,6.67,64.46,13.58Zm-18.28,0c0,5.18,2.91,8.7,7.2,8.7s7.19-3.52,7.19-8.7-2.94-8.74-7.19-8.74S46.18,8.4,46.18,13.56Z"/><path class="cls-6" d="M73.4,2.27V16.38a5.91,5.91,0,0,0,1,3.7A5.45,5.45,0,0,0,79,22.24a5.7,5.7,0,0,0,4.48-2.08,5.92,5.92,0,0,0,1.09-3.78V2.27h3.61V17.08a7.71,7.71,0,0,1-1.57,5A9.4,9.4,0,0,1,79,25.46,9.54,9.54,0,0,1,71.27,22a7.81,7.81,0,0,1-1.49-5V2.27Z"/><path class="cls-6" d="M103.41,2.27c5.35,0,8.49,2.3,8.49,6.19a5.23,5.23,0,0,1-2.3,4.48,9.4,9.4,0,0,1-3.84,1.31v.09c2.52.78,3.81,2.52,7.87,10.61h-4.37c-3.33-7.89-4.53-9.32-8.06-9.41H98.54V25H94.93V2.27ZM98.54,12.66h3.81c3.64,0,5.6-1.34,5.6-3.89,0-2.35-1.79-3.59-5.21-3.59h-4.2Z"/><path class="cls-6" d="M138.13,2.27a15.31,15.31,0,0,1,4.84.67,5.33,5.33,0,0,1,3.81,5c0,2.8-1.62,4.53-4.79,5.12v.11c3.84.54,5.86,2.44,5.86,5.46,0,4-3.31,6.33-8.85,6.33h-8.68V2.27Zm-4.26,9.41h3.92c3.31,0,5.21-1.2,5.21-3.3S141.24,5,137.93,5h-4.06Zm0,10.28h4.68a8.21,8.21,0,0,0,3.33-.59,3.46,3.46,0,0,0,2-3.08c0-1.49-.59-2.33-2.18-3.08a9.43,9.43,0,0,0-3.73-.7h-4.06Z"/><path class="cls-6" d="M157.51,2.27V16.38a5.91,5.91,0,0,0,1,3.7,5.45,5.45,0,0,0,4.54,2.16,5.7,5.7,0,0,0,4.48-2.08,5.92,5.92,0,0,0,1.09-3.78V2.27h3.61V17.08a7.71,7.71,0,0,1-1.57,5,9.4,9.4,0,0,1-7.61,3.34,9.54,9.54,0,0,1-7.7-3.42,7.81,7.81,0,0,1-1.49-5V2.27Z"/><path class="cls-6" d="M179.29,19a9.68,9.68,0,0,0,7.5,3.27c3,0,4.65-1.17,4.65-3.27s-1.23-3.14-4.62-4.15l-2-.59a15.89,15.89,0,0,1-4-1.7,4.89,4.89,0,0,1-2.33-4.23c0-4.09,3-6.47,8.1-6.47a12.78,12.78,0,0,1,7.61,2.55L192.59,7a9.35,9.35,0,0,0-6-2.12c-2.69,0-4.28,1.14-4.28,3.08,0,1.76,1,2.54,4.45,3.58l2.18.64c4.34,1.29,6.41,3.45,6.41,6.7A6,6,0,0,1,192.56,24a11.28,11.28,0,0,1-5.91,1.4,12.13,12.13,0,0,1-9.26-3.89Z"/><path class="cls-6" d="M209.92,2.27V5h-3.08V22.24h3.08V25h-9.74V22.24h3.08V5h-3.08V2.27Z"/><path class="cls-6" d="M220.39,2.27l7.28,12,.2.31a46.54,46.54,0,0,1,2.6,4.9h.12c-.09-1.91-.14-5.38-.14-7.51V2.27H234V25h-3.59l-8.62-13.89A54.32,54.32,0,0,1,219,6h-.14c.14,1.87.23,4.9.23,8V25h-3.5V2.27Z"/><path class="cls-6" d="M256.15,2.27V5.32H244.28v6.44h10.5v3h-10.5v7.11h12.29V25H240.69V2.27Z"/><path class="cls-6" d="M262.51,19a9.68,9.68,0,0,0,7.5,3.27c3,0,4.65-1.17,4.65-3.27s-1.23-3.14-4.62-4.15l-2-.59a16.15,16.15,0,0,1-4-1.7,4.88,4.88,0,0,1-2.32-4.23c0-4.09,3-6.47,8.09-6.47a12.79,12.79,0,0,1,7.62,2.55L275.81,7a9.37,9.37,0,0,0-6-2.12C267.1,4.88,265.5,6,265.5,8c0,1.76,1,2.54,4.45,3.58l2.19.64c4.34,1.29,6.41,3.45,6.41,6.7A6.05,6.05,0,0,1,275.78,24a11.28,11.28,0,0,1-5.91,1.4,12.17,12.17,0,0,1-9.27-3.89Z"/><path class="cls-6" d="M284.77,19a9.68,9.68,0,0,0,7.5,3.27c3,0,4.65-1.17,4.65-3.27s-1.23-3.14-4.62-4.15l-2-.59a16.15,16.15,0,0,1-4-1.7A4.88,4.88,0,0,1,284,8.32c0-4.09,3-6.47,8.09-6.47a12.79,12.79,0,0,1,7.62,2.55L298.07,7a9.37,9.37,0,0,0-6-2.12c-2.69,0-4.29,1.14-4.29,3.08,0,1.76,1,2.54,4.45,3.58l2.19.64c4.34,1.29,6.41,3.45,6.41,6.7A6.05,6.05,0,0,1,298,24a11.28,11.28,0,0,1-5.91,1.4,12.17,12.17,0,0,1-9.27-3.89Z"/></g></g></svg>